<svg id="Dog_1" data-name="Dog 1" xmlns="http://www.w3.org/2000/svg" viewBox="0 0 3000 3000">
  <title>mouth</title>
  <g id="Mouth">
    <path d="M918.98628,1596.39985c8.34,26.94909,23.71975,71.21445,48.19487,116.30765,18.69315,34.44053,35.05192,55.28791,55.9297,72.383,2.94809,2.41394,5.45122,4.31494,7.14,5.56793h6.545a26.45537,26.45537,0,0,0,3.86748-6.49592,29.64157,29.64157,0,0,0,2.08242-10.20784c.159-2.60046,1.20571-13.89484,1.19009-17.63175-.1437-34.33611,4.02572-41.91695,1.48744-59.39117-.27473-1.89116-1.08383-7.0366,0-7.42391,1.26672-.4527,4.39957,5.85163,5.35506,7.73326,7.0633,13.90972,17.27843,25.82917,25.58488,38.97542,16.143,25.54876,33.19931,42.19711,58.01226,66.815a135.35654,135.35654,0,0,0,24.09743,17.9411,62.90783,62.90783,0,0,0,15.76743,6.18657,22.42265,22.42265,0,0,0,9.52.61867c2.90041-.491,7.20887-1.22026,8.62743-4.63994,1.2719-3.06612-.78991-6.75381-1.48751-8.04255-5.60548-10.3556-5.48791-23.1047-9.22248-34.3355-3.3764-10.15372-7.03366-29.47345-7.735-69.90833a190.43524,190.43524,0,0,0,23.79994,16.08509c23.26342,13.27459,44.21662,18.61484,62.1773,22.27169,82.39439,16.77577,139.22935,14.84778,139.22949,14.84778,76.39977-2.59167,140.46179-21.79546,186.82938-40.83143l-10.70992,29.69557-7.58623,26.44762-7.58622,26.91164a104.27177,104.27177,0,0,0-2.67753,13.91979c-.85429,6.94488-.33446,8.41705.44623,9.27986,2.86089,3.16172,10.81557-.10156,13.83375-1.392a241.88789,241.88789,0,0,0,52.35981-31.24223c27.89-22.9094,41.835-34.3641,45.21982-37.73811a338.09336,338.09336,0,0,0,39.26988-47.018v78.56954a7.01583,7.01583,0,0,0,.37186,5.18125c1.54862,2.8831,4.94661,3.19077,5.57811,3.24794,4.00125.36228,7.14393-2.65392,10.04061-5.33591,2.12282-1.96548,14.94926-12.99173,14.94933-12.9918,39.32412-44.05256,39.636-43.42955,48.78981-55.67922,15.05882-20.15162,25.96017-34.73976,36.88988-57.53519,0-.00007,8.63359-18.00653,13.38748-33.40752,18.61-60.28982-46.99206-155.17325-57.11983-169.82153-26.89862-38.90481-73.80493-104.933-161.542-142.91-35.66454-15.4374-86.90944-37.61881-149.93948-22.27166-47.11272,11.47144-79.24544,38.65941-95.49721,54.75122a210.57146,210.57146,0,0,0-30.34489-19.48772c-39.36227-20.7292-74.77376-23.17651-91.03468-24.12764-46.18147-2.70124-80.94465,8.71859-101.74467,15.77577-7.95381,2.69859-45.30375,15.73874-87.46469,46.3993-10.252,7.45548-40.44347,30.24657-71.39977,68.671A414.30905,414.30905,0,0,0,923.74623,1566.395Z" style="fill: #fff"/>
    <path d="M912.42019,1657.67058a371.301,371.301,0,0,1,8.88931-84.31393c1.387-6.97058,3.36692-13.79745,5.14222-20.68454.9911-3.41307,2.09481-6.79356,3.13823-10.1947,1.05971-3.39605,2.06949-6.812,3.34663-10.13506,2.427-6.69145,4.76108-13.42973,7.64814-19.95055,1.38957-3.28172,2.72686-6.59035,4.16317-9.85476l4.63649-9.64646a352.3951,352.3951,0,0,1,46.80819-71.68467,342.54613,342.54613,0,0,1,29.67614-31.09117,355.41164,355.41164,0,0,1,33.25344-27.34907,336.10056,336.10056,0,0,1,159.33842-62.37262c14.05367-1.68282,28.61632-3.15429,43.35838-2.63035a180.04915,180.04915,0,0,1,43.6832,6.72956,234.49463,234.49463,0,0,1,40.78121,16.03317,270.885,270.885,0,0,1,37.3418,22.56679l-10.45413.55725a190.47541,190.47541,0,0,1,37.09656-26.49275,202.63643,202.63643,0,0,1,41.98954-17.67425c29.18-8.61355,59.85463-10.84679,89.80285-8.14429a259.10745,259.10745,0,0,1,44.41712,7.9424,246.15532,246.15532,0,0,1,42.25406,15.89454,295.22866,295.22866,0,0,1,38.72025,22.63792c12.31391,8.45035,23.8688,17.41722,35.48668,26.59181a375.44079,375.44079,0,0,1,32.837,30.14162,410.20483,410.20483,0,0,1,29.24529,33.423,425.48224,425.48224,0,0,1,47.15693,74.91081,411.08252,411.08252,0,0,1,17.23524,40.716,327.78553,327.78553,0,0,1,12.41573,42.395,342.45332,342.45332,0,0,1,7.401,87.45134,368.17179,368.17179,0,0,0-11.96917-86.3585,382.7471,382.7471,0,0,0-32.48249-80.42026,416.46181,416.46181,0,0,0-48.366-71.727c-18.47268-22.11077-38.99823-42.67444-61.61157-60.19842-23.16987-17.436-46.60054-34.37493-72.39363-46.27282a231.09555,231.09555,0,0,0-39.873-14.3825,243.25477,243.25477,0,0,0-41.86582-6.88708c-28.21507-2.35674-56.84557-.137-83.75238,7.95723a186.16052,186.16052,0,0,0-38.56054,16.44031,183.32725,183.32725,0,0,0-34.04212,24.38664l-5.063,4.502-5.39191-3.94473a254.46851,254.46851,0,0,0-34.95982-21.33853,218.29379,218.29379,0,0,0-37.83826-15.09,163.78828,163.78828,0,0,0-39.769-6.30976c-13.49584-.49617-27.1322.65878-41.10754,2.12807a321.64941,321.64941,0,0,0-80.34193,18.89815,341.50174,341.50174,0,0,0-73.28988,38.40534c-45.50312,31.63214-83.83471,74.02438-110.02116,123.31971a362.30448,362.30448,0,0,0-30.82535,77.88693,368.402,368.402,0,0,0-8.82279,41.20151A384.124,384.124,0,0,0,912.42019,1657.67058Z"/>
  </g>
</svg>
