<svg id="Layer_18" data-name="Layer 18" xmlns="http://www.w3.org/2000/svg" viewBox="0 0 3000 3000">
  <title>5</title>
  <g>
    <path d="M1380.44221,1610.7142c-2.10914,3.18514-3.82473,5.65452-5.41724,8.201-10.95694,17.52-24.264,32.91558-40.85383,45.361-9.51091,7.13462-19.62786,13.41412-31.275,15.98458a64.507,64.507,0,0,1-21.51906,1.03238c-4.34595-.54308-8.77786-3.869-12.2449-6.97834-3.31052-2.96885-3.49566-7.51558-.95-11.4807,2.31984-3.61391,6.27212-5.33408,9.96767-3.72021,16.31569,7.12483,28.9675-.92862,41.25627-9.66338a131.65485,131.65485,0,0,0,43.59329-52.09458c3.03509-6.48205,4.584-13.75006,6.13288-20.80749,1.11313-5.07278,2.93184-9.2046,7.72666-11.57747,4.45683-2.2054,9.03166-4.04065,13.77193-.92506,4.44068,2.91913,4.70644,7.48417,3.91527,12.08927-1.61489,9.3994,1.00911,17.8801,5.29568,26.0101,11.68618,22.164,29.00692,38.762,50.9325,50.54289,9.30671,5.00055,18.95241,8.06451,29.90159,4.07714,7.13335-2.59819,12.00713-.24439,14.0958,4.85292,2.14106,5.225-.51308,11.15887-6.87891,14.54479-7.05642,3.75315-14.6961,3.77426-22.34634,2.58674-13.638-2.117-25.82559-7.9137-37.15841-15.50774-17.543-11.75523-31.64109-26.90121-42.95674-44.68314C1383.96483,1616.2544,1382.49948,1613.94906,1380.44221,1610.7142Z"/>
    <path d="M1716.15705,1078.7676c-3.79963-.64978-7.75556-.82669-11.37419-2.02384-30.41514-10.06134-61.22542-9.16439-92.25367-3.77114-9.81957,1.70669-19.66939,3.24071-29.50971,4.82688-13.72876,2.21317-27.03476-.09641-40.09972-4.10859-4.01291-1.23236-9.35153-2.15181-8.5954-8.1199.7085-5.59148,5.55117-6.69149,10.03549-6.18283,21.98451,2.49262,42.66027-3.93051,63.63959-8.64243,22.41108-5.0333,44.92705-6.95517,67.447-.33059,16.28756,4.7911,30.34239,13.08118,41.84864,25.41441Q1716.726,1077.29858,1716.15705,1078.7676Z"/>
    <path d="M986.33177,1159.3175c2.05832-4.948,3.54106-10.241,6.26858-14.78757a217.15115,217.15115,0,0,1,68.10478-70.703c12.52182-8.19644,26.46372-13.0188,41.70226-12.21285,4.19113.22146,8.89969,1.23834,12.22308,3.54442,2.1895,1.51926,3.28907,6.10613,2.95016,9.10142-.15514,1.36954-5.16785,3.49417-7.61168,3.086-14.71847-2.45858-27.65094,2.40585-39.79339,9.514a269.62726,269.62726,0,0,0-74.50994,64.40814q-3.65215,4.54728-7.33251,9.07251Q987.3326,1159.82909,986.33177,1159.3175Z"/>
  </g>
</svg>
