<svg id="Dog_1" data-name="Dog 1" xmlns="http://www.w3.org/2000/svg" viewBox="0 0 3000 3000">
  <title>Expression</title>
  <path d="M1610.97065,1628.98975a10.57859,10.57859,0,0,0-10.57867-10.57862c-.27735,0-.54963.02051-.8216.04151l-.01141-.04834c-.09656.02282-.1947.04516-.29138.06787a10.48873,10.48873,0,0,0-2.44916.571c-62.075,14.29846-145.90955,20.80933-198.68671-26.80005a124.03386,124.03386,0,0,1-8.94726-8.94726l-6.28028-6.958-7.62353,5.45313a223.10682,223.10682,0,0,1-206.30811,28.333l-.02044.05628a10.54852,10.54852,0,0,0-4.525-.33578,10.72944,10.72944,0,0,0-9.11464,10.18341,10.62043,10.62043,0,0,0,9.55312,10.89541,243.90332,243.90332,0,0,0,215.13476-26.90088q2.00025,1.94971,4.06446,3.81348c35.56689,32.085,82.42138,42.63574,128.66845,42.63574,31.06525,0,61.84626-4.76587,88.755-10.96021a10.48683,10.48683,0,0,0,2.45087-.56567c.1491-.035.302-.06885.45086-.104l-.01324-.05616A10.57688,10.57688,0,0,0,1610.97065,1628.98975Z"/>
</svg>
