<svg id="Layer_5" data-name="Layer 5" xmlns="http://www.w3.org/2000/svg" viewBox="0 0 3000 3000">
  <title>Expression</title>
  <g id="Expressions">
    <path d="M1271.99744,1621.97363c41.96862-7.49072,121.9093-14.65429,198.08117,27.70056a254.77847,254.77847,0,0,1,33.97754,22.65162" style="fill: #f4f4f4"/>
    <path d="M1274.02747,1615.36536a239.36985,239.36985,0,0,1,60.8507-11.17786,250.24486,250.24486,0,0,1,62.24659,4.26929A223.34527,223.34527,0,0,1,1456.219,1628.924c18.5116,9.61365,35.67164,21.80933,49.86719,36.79358-8.957-5.115-17.83777-10.06348-26.8999-14.54236q-6.77362-3.3924-13.6731-6.42078c-2.28125-1.04394-4.59094-2.02111-6.90136-2.98791-1.15577-.48181-2.30005-.985-3.46228-1.44812l-3.49036-1.37488a332.72548,332.72548,0,0,0-57.25671-16.75818,398.84423,398.84423,0,0,0-59.46363-7.02771q-15.05567-.66906-30.26892-.5249C1294.52075,1614.68018,1284.33887,1615.08008,1274.02747,1615.36536Z"/>
  </g>
</svg>
