<svg id="Layer_19" data-name="Layer 19" xmlns="http://www.w3.org/2000/svg" viewBox="0 0 3000 3000">
  <title>6</title>
  <g>
    <path d="M1524.692,1109.54685c-33.23458-66.80119,189.74226-198.22857,197.55859-110.30931C1645.67058,979.89073,1557.55375,1038.48874,1524.692,1109.54685Z"/>
    <path d="M1184.0957,1124.73832c.27235,12.92579-10.11053,12.85334-16.0284,5.85792-56.968-60.7776-129.88358-20.22615-177.59481-2.3536C1001.799,1054.88705,1150.21642,1063.45548,1184.0957,1124.73832Z"/>
    <path d="M1417.163,1675.40488c-12.14123,9.64266-17.55046,9.13245-43.51647-3.17416-8.449,15.65363-43.0482,28.33169-33.74363-.68716,7.12854-14.84327,26.07219-22.64319,26.123-40.24853,3.35751-16.76169-7.09349-55.13622,12.16557-60.84545C1409.69625,1592.231,1363.266,1661.19865,1417.163,1675.40488Z"/>
  </g>
</svg>
