<svg id="Layer_4" data-name="Layer 4" xmlns="http://www.w3.org/2000/svg" viewBox="0 0 3000 3000">
  <title>Expression</title>
  <g id="Expressions">
    <g>
      <path d="M1372.02465,1531.37493c-1.05346,2.56559-20.29347,55.9974.79516,86.77469,18.29245,26.69653,40.15182,18.15238,44.30517,18.53439" style="fill: #fff"/>
      <path d="M1405.86967,1643.41233c-10.16066,0-24.97859-3.34993-37.77476-22.02578-23.47193-34.254-1.60022-91.62392-1.36885-92.18733l10.59745,4.34861c-.20645.50951-19.44723,52.66032.22119,81.36462,13.4445,19.62164,28.43328,17.44631,35.63554,16.40391a19.21059,19.21059,0,0,1,4.47014-.33561l-1.05054,11.40647a1.14687,1.14687,0,0,0,.22933.01118c-.30408.00814-1.24733.14442-2.005.25425A59.96658,59.96658,0,0,1,1405.86967,1643.41233Z"/>
    </g>
    <g>
      <path d="M1331.01984,1673.19489c3.42723,5.48394,6.84352,55.31031,64.648,58.13053,28.26522,1.379,50.10439-9.09232,60.658-15.16446" style="fill: #fff"/>
      <path d="M1331.01984,1673.19489a24.58344,24.58344,0,0,1,2.117,4.52l1.78735,4.614c1.22177,3.04789,2.46732,6.05765,3.9286,8.94486a71.18732,71.18732,0,0,0,10.41528,15.94245,57.75572,57.75572,0,0,0,14.36843,11.76266,65.74331,65.74331,0,0,0,17.35211,6.676,93.07717,93.07717,0,0,0,18.79725,2.31033,120.966,120.966,0,0,0,19.1279-1.00389,145.11246,145.11246,0,0,0,37.41208-10.80034,98.0475,98.0475,0,0,1-56.60583,18.71817c-1.70191-.01652-3.40421.01666-5.10829-.08962-1.70383-.11949-3.41032-.18521-5.11453-.35352-1.701-.22412-3.40613-.40769-5.10309-.6824-1.69-.33713-3.3929-.59633-5.07219-1.0044a65.243,65.243,0,0,1-19.23735-7.85745,55.51384,55.51384,0,0,1-15.23057-14.1218,60.84272,60.84272,0,0,1-5.41708-8.75227,75.77031,75.77031,0,0,1-3.88092-9.40034,90.32756,90.32756,0,0,1-2.55771-9.71586c-.32709-1.63276-.62722-3.2654-.91656-4.891A28.82568,28.82568,0,0,0,1331.01984,1673.19489Z"/>
      <path d="M1331.01984,1673.19489c.952,1.38068,1.07989,6.88143,1.72326,8.40156l.77694,4.35344c1.22177,3.0479,2.46732,6.05765,3.9286,8.94486a71.18761,71.18761,0,0,0,10.41528,15.94246,57.75594,57.75594,0,0,0,14.36843,11.76266,65.74363,65.74363,0,0,0,17.35211,6.676,93.07717,93.07717,0,0,0,18.79725,2.31033,120.966,120.966,0,0,0,19.1279-1.00389c12.73655-1.7384,26.63746-9.20243,38.8162-14.42132-10.67856,7.86571-24.59143,17.12141-37.80964,20.02006a95.94371,95.94371,0,0,1-20.20031,2.3191c-1.70191-.01653-3.40421.01665-5.10829-.08962-1.70383-.1195-3.41032-.18522-5.11453-.35353-1.701-.22412-3.40613-.40768-5.10309-.6824-1.69-.33712-3.3929-.59633-5.07219-1.00439a65.24354,65.24354,0,0,1-19.23735-7.85745,55.51388,55.51388,0,0,1-15.23057-14.12181,60.84272,60.84272,0,0,1-5.41708-8.75227,75.769,75.769,0,0,1-3.88092-9.40034,90.32756,90.32756,0,0,1-2.55771-9.71586c-.32709-1.63276-.62722-3.2654-.91656-4.891C1330.38379,1680.00347,1331.58553,1674.74769,1331.01984,1673.19489Z" style="opacity: 0.2"/>
    </g>
  </g>
</svg>
