<svg id="Layer_3" data-name="Layer 3" xmlns="http://www.w3.org/2000/svg" viewBox="0 0 3000 3000">
  <title>mouth</title>
  <g id="Expressions">
    <path d="M1313.89366,1629.19193c1.70434-6.4375,16.50537-1.90551,35.59558-10.78662,20.5647-9.567,24.14856-24.48388,35.05615-22.65161,8.486,1.42542,5.7865,10.36487,19.95508,19.95508,5.84717,3.95776,12.12378,6.37244,32.3595,17.79773,2.62414,1.48157,5.43774,3.12183,5.93261,5.93262,1.2472,7.08349-13.40393,14.941-16.71911,16.719-2.68982,1.44251-11.77027,6.0802-32.35962,8.62927-18.0249,2.23169-27.03748,3.34742-38.29212-.5393-8.38439-2.89551-13.6665-7.05725-23.191-14.56177C1320.5648,1640.49467,1312.56907,1634.19474,1313.89366,1629.19193Z" style="fill: #e70041"/>
    <path d="M1610.9707,1628.98975a10.57864,10.57864,0,0,0-10.57873-10.57862c-.27735,0-.54968.02051-.82166.04151l-.01135-.04834c-.09656.02282-.1947.04516-.29138.06787a10.49063,10.49063,0,0,0-2.44922.571c-62.07495,14.29846-145.90942,20.80933-198.68665-26.80005a124.0359,124.0359,0,0,1-8.94726-8.94726l-6.28028-6.958-7.62353,5.45313a223.10681,223.10681,0,0,1-206.30811,28.333l-.02038.05628a10.55072,10.55072,0,0,0-4.525-.33582,10.72938,10.72938,0,0,0-9.11462,10.18335,10.62053,10.62053,0,0,0,9.5531,10.89551,245.64713,245.64713,0,0,0,109.64746,11.8999,242.50228,242.50228,0,0,0,30.9259-5.79065c8.86329,10.52466,34.60071,36.36975,73.60889,36.36975,2.42236,0,4.90235-.10058,7.42627-.30957,29.96582-2.48718,50.4043-19.27,61.19251-30.95605,20.9757,5.94446,43.0885,8.335,65.06665,8.335,31.0653,0,61.84631-4.76587,88.755-10.96021a10.488,10.488,0,0,0,2.45093-.56567c.149-.035.302-.06885.4508-.104l-.0133-.05616A10.577,10.577,0,0,0,1610.9707,1628.98975Zm-225.73681,29.1538c-30.71607,2.549-53.0094-14.92456-63.73389-25.79736a247.3393,247.3393,0,0,0,58.50037-28.32373q2.00023,1.94971,4.06445,3.81348a152.78165,152.78165,0,0,0,47.75684,29.02612C1422.04578,1645.97986,1406.48853,1656.38013,1385.23389,1658.14355Z"/>
  </g>
</svg>
