<svg id="Layer_8" data-name="Layer 8" xmlns="http://www.w3.org/2000/svg" viewBox="0 0 3000 3000"><title>eyes</title><path d="M1058.34,1517.38a342.81,342.81,0,0,1,5.21-113.87c.35-1.6.53-3.24.79-4.87,3.91-13.58,8-27.1,13.82-40,7-15.6,15.53-30.22,28.27-41.94,13.41-12.33,28.7-18.77,47.11-13.7,11.83,3.27,20.94,10.78,28.62,20,15.69,18.9,24.09,41.23,29.93,64.68a203.2,203.2,0,0,1,6.06,41.42,8.89,8.89,0,0,0,.61,3.38c1.68,3.61,0,5.6-3,7.23-6.57,3.6-13.11,7.26-19.65,10.92L1078,1516.85a18.42,18.42,0,0,0-3.07,1.66C1069,1523.52,1063.63,1521.4,1058.34,1517.38Z"/><path d="M1691.86,1392.65c2.29,13.22,5,26.34,6.48,39.71,2.76,25.19,2.31,50.34.21,75.52-.4,4.79-3,6.28-7.45,5.4-11.94-6.59-23.72-13.48-35.84-19.72q-51.73-26.65-103.7-52.85c-14.28-7.22-14.34-8.94-13.07-24.53a211.56,211.56,0,0,1,17.58-69.86c6-13.31,13.46-25.63,24.08-35.85,19.84-19.1,44.37-20.3,65.82-3.06,11.36,9.13,19.53,20.82,26.37,33.53C1681.16,1357.31,1686.82,1374.86,1691.86,1392.65Z"/><path d="M1193.91,1398.27c-.23,7.91-.28,14.57-2.7,20.93-1.66,4.35-3.69,8.31-9.09,8.73s-8.75-2.7-11.09-7c-7.24-13.42-8-27.54-4.23-42.09a36.51,36.51,0,0,1,1.22-3.8c1.28-3.43.89-8.23,5.75-9,7.65-1.26,14,1.88,16.65,8C1194,1382.17,1193.81,1390.88,1193.91,1398.27Z" style="fill:#fefefe"/><path d="M1602.94,1370.89c-1,11.09-2.09,22.15-4.14,33.11-1.43,7.69-6.22,13.5-10.65,19.46-2.6,3.49-6.54,3.35-10,0-8-8-10.47-17.87-9.68-28.8,1-13.24,6.7-24.45,15-34.48,2.7-3.25,6.12-5.3,10.51-4.26s6.76,4,8,8.12A19.38,19.38,0,0,1,1602.94,1370.89Z" style="fill:#fefefe"/></svg>