<svg id="Layer_2" data-name="Layer 2" xmlns="http://www.w3.org/2000/svg" viewBox="0 0 3000 3000"><title>eyes1</title><path d="M1117.73,1162c25.67.83,48.6,5.34,69.53,17.75,19.44,11.52,31.72,28,35.66,50.46.82,4.62,1.42,9.31-1.14,13.63-2.69,4.53-7.26,4.89-9.94.49-15-24.56-38.16-37.36-64.65-45.24-22-6.52-44.27-8.55-67.08-4.65-28.28,4.83-49.73,18.7-62.32,45.08-.8,1.68-1.19,4.32-3.92,3.65-2.51-.62-2.82-3.09-3-5.24-1.62-15,3.59-27.83,13.29-39,13.57-15.61,31.21-24.55,50.59-30.53C1089.28,1163.93,1104.4,1163.23,1117.73,1162Z"/><path d="M1034.42,1483.94a169.28,169.28,0,0,1-3.59-76.57c3.27-18.59,9.59-36,20.85-51.33,23.76-32.35,61-40.22,95.75-20.19,23.13,13.34,38.74,33.51,51,56.72,6.15,11.65,9.73,24.32,14.73,36.42.77,1.86.33,3.7-1.9,4.44-18.36,6-35.47,14.84-52.59,23.63-3.65,1.21-6.87,3.27-10.13,5.22-1.38.83-2.83,1.17-3.15-.54-.67-3.61-3.44-2.24-5.44-2.72a29.5,29.5,0,0,1-7.2-2.42c-11.79-7.81-17.73-19.64-21.6-32.6a106.36,106.36,0,0,1-2-51.88c2.68-13.35,8.08-25.34,19-34.23.37-.31.64-.75.45-1.85a53.18,53.18,0,0,0-24-3.3c-29.43,2.93-47.09,21.23-58.92,46.41-11.2,23.86-13.21,49.21-11,75.18.93,11,3.51,21.67,4.88,32.57.06,1.58.55,3.73-1.59,3.95-1.76.18-1.54-2.12-2.27-3.29S1035.44,1484.94,1034.42,1483.94Z"/><path d="M1565.46,1286.09c-10.17-.28-17.73-3.18-20.64-13.29-.77-2.66-3.17-4.68-3.26-7.72-.13-4.68,2.45-6.53,6.48-4.23,3.31,1.88,6.59,1.93,10.11,1.18a71.84,71.84,0,0,0,16.78-6.25,217.29,217.29,0,0,0,67.89-52.39c5.76-6.6,12.58-12.35,16.31-20.65,1.51-3.33,4.56-3.49,7.62-1.54s4.34,4.91,5,8.28c1.87,8.92-1.28,16.75-5.44,24.29-11.06,20.08-27,35.73-45.32,49.09-13,9.46-26.75,17.44-42.53,21.35A76.42,76.42,0,0,1,1565.46,1286.09Z"/><path d="M1700.73,1390.84c6.77,16.58,9.09,34,9.35,51.73.39,27.31-5.27,53.27-18.22,77.42-1.17,2.17.49,5.9-3.31,6.55-3.08.52-4-2.53-5.91-4-46.54-36-95.69-67.52-151.28-87.92-3.6-1.32-7.23-2.51-10.88-3.67-2.36-.74-3.43-2.38-2.62-4.56,4.39-11.82,7.26-24.23,13.53-35.33.08-.13.27-.19.41-.29a2.42,2.42,0,0,1,.81,1.18c.19,3.15-1.47,5.75-2.64,8.45-3.33,7.64-5.56,15.64-8,23.58-.52,1.74-.73,3.27,1.27,4.2,14.39,5.39,28.73,10.87,42.6,17.49,3,1.41,6,3,9,4.4l2.57,1.25c4.22,2.31,8.72,4.13,11.76,6.52,1.24,1.1,1.18-.09.92.52-.05.12-.19.07-.43-.16-3.39-3.25-3.29-4.38.91-5.57,12-3.42,19.52-11.53,24-22.79,10.24-25.65,9.43-50.93-2.7-75.79-.8-1.63-1.83-3.2-1.73-5.14a1.68,1.68,0,0,1,.86-1.19c3.12.54,4,3.28,5.24,5.55,4.54,8.65,7,18,8.27,27.61,2.42,17.78,1.16,35.2-6.51,51.69-4.45,9.57-10.73,17.61-20.68,22.1-3.55,1.61-1.7,2.62.29,3.77,12.54,7.21,25,14.6,37.1,22.53,16.29,10.67,31.89,22.31,47.35,34.13,3.88,3,4.52,2.93,6.62-1.34,8.56-17.38,12.94-35.81,14.74-55.1,2-21.59-.83-42.44-7.07-63-.5-1.65-1.41-3.55.68-4.93,1.69.49,2.15,1.87,2.6,3.35a182.57,182.57,0,0,1,7.1,34,162.06,162.06,0,0,1-9.19,73.92c-.81,2.22-1.26,4.63-2.9,6.46a13.13,13.13,0,0,0,2.32-4.58,164.1,164.1,0,0,0,10.53-70,156.33,156.33,0,0,0-7-37.54C1700,1394.5,1699,1392.64,1700.73,1390.84Z" style="fill:#232323"/><path d="M1610.93,1347.69l-.3,1.29c-2,.08-2.75-1.66-3.86-2.79-2.7-2.73-5.43-5.37-8.94-7.09-2-1-3.86-2.28-3.65-4.85s2.28-3.47,4.33-4.31c3.09-1.28,6.42-1.54,9.63-2.3-16.14,2.12-32.51,12.77-43.77,23.13-11.73,10.79-21.06,23.47-28.75,37.4-.84,1.52-1.21,3.59-3.51,3.79l-.31-1.18c12.54-26.46,30.4-48,57.37-60.66,29.55-13.81,60.85-7.95,84,15.09a108.29,108.29,0,0,1,27.51,45.63c.14,6.9,3,13.19,4.41,19.82,6.79,32.43,3.73,64-7.86,94.83a63,63,0,0,1-2.92,5.73c-.29-4,1.43-6.2,2.35-8.65a162.29,162.29,0,0,0,9.9-68.48c-.85-13.25-3-26.34-7.68-38.87-.58-1.54-.73-3.28-2.35-4.23-3-.72-3.13-3.68-4-5.78-5.77-13.7-13.72-25.93-24.82-35.8-17.84-15.87-38.24-23.07-62.15-16.79-1.55.4-3.89.22-4.33,1.9-.51,1.93,2,2.25,3.13,3.33C1607.29,1340.66,1611.13,1342.82,1610.93,1347.69Z" style="fill:#0f0f0f"/><path d="M1140.21,1458l2.46-.1c3-.11,5.6.1,3.11,4.41,5.09-.83,7.84-5.81,12.87-5.25-11.74,7.46-23.83,14.34-35.21,22.37a496.93,496.93,0,0,0-60.78,50.6c-1.41,1.37-2.46,3.11-3.85,4.52-2,2-4.48,2-4.9-.82-.56-3.7-2.78-6.33-4.31-9.39-6.46-12.95-12.48-26-15.18-40.4,2.1,1.54,1.22,4.67,3.27,6.28,1.27-.86.42-2.14.78-3.13,3.16.1,2.54,2.9,3.19,4.67,3.89,10.59,6.68,21.62,13.09,31.18,2.81,4.2,2.92,4.44,6.45,1a470.66,470.66,0,0,1,79.26-62.63c.49-.42,1.46-.25,1.53-1.17,0-.15-.47-.29-.77-.36a3.23,3.23,0,0,1-1-.62A1.07,1.07,0,0,1,1140.21,1458Z" style="fill:#121212"/><path d="M1141.3,1461.84c-10,6.9-20,13.6-29.82,20.75a435.72,435.72,0,0,0-51,43.84c-2.91,2.91-3.86,2.46-5.93-.89-6.55-10.62-10.23-22.34-14.17-34-.51-1.51-.31-3.38-1.88-4.45-7.06-31.36-9.5-62.73.26-94,5.69-18.27,14.6-34.69,29.69-47,18.15-14.79,38.52-18.55,60.84-11.37,1.45.47,4.82.76,1.48,3-13.86,9.47-18.6,23.86-21.15,39.22a101.39,101.39,0,0,0,5,53.07c3.89,10.28,9.61,19.36,18.88,25.76,1.86,2,4.71,1.84,6.91,3.11h0C1141.34,1459.68,1142.56,1460.37,1141.3,1461.84Z" style="fill:#fefefe"/><path d="M1129.3,1392.52c.4-13.25,3.86-27.57,15-39,7.24-7.47,8.93-7.44,16.63-.6,22.32,19.83,36,44.91,44.49,73.19.81,2.7.48,4.11-2.47,5.22a341.47,341.47,0,0,0-35.41,15.94c-1.79.92-3.52,2.3-4.47-1-.34-1.18-1.69-1.44-2.9-1.57-10-1.08-16.52-7.32-21.53-15.31C1132,1418.81,1129.23,1407.08,1129.3,1392.52Z" style="fill:#edeb00"/><path d="M1140.37,1458.91c-2.8.08-5.34-.42-6.91-3.11l6.75,2.2A4.83,4.83,0,0,1,1140.37,1458.91Z" style="fill:#989898"/><path d="M1610.93,1347.69c-2.13-4.5-5.76-7.6-9.62-10.52-1.13-.85-3.22-1.32-2.9-3s2.32-1.64,3.73-2.06c21-6.24,40.47-2.7,58.31,9.76,16.37,11.41,26.82,27.41,34.44,45.51.51,1.22,1.12,2.39,1.69,3.58,4.25,14.54,8,29.18,8.63,44.44,1.26,28.3-3.45,55.38-16.1,80.9-1.28,2.57-2.18,4.31-5.37,1.78a652.13,652.13,0,0,0-89.84-60.24,20.62,20.62,0,0,1-2-1.38c.15-.46.19-1,.36-1,15.75-5.1,23.52-17.41,28-32.11,6.44-21.23,5.41-42.43-2.29-63.23C1616.3,1355.65,1614.51,1351.13,1610.93,1347.69Z" style="fill:#fefefe"/><path d="M1532.11,1392c8.31-15.63,18.25-30.09,31.4-42.08,13-11.81,27.55-20.67,45.15-23.67,1.2-.21,2.59-.78,3.92,1.23-3.52.87-6.76,1.84-10,2.42a16.57,16.57,0,0,0-4.68,1.58c-1.33.67-2.95,1.19-2.91,3a3.67,3.67,0,0,0,2.69,3.29c5.7,2.18,9.33,6.71,13,11.22,12.93,22,15,45.64,9.28,69.87-2.81,11.94-7.82,23.4-19,30.67-3,1.94-6.27,3-9.5,4.22-1.12.43-3.1-.46-3.16,1.5,0,1.35,1.42,2.13,2.61,2.78a9.31,9.31,0,0,1,3.09,2.4,76,76,0,0,1-17.16-8.5c-.63-1.13.61-1.87.58-2.88-.06-.79-.12-1.77-1.1-1.74s-.82,1.08-.81,1.83a2.24,2.24,0,0,1-.64,1.81c-3.26-.69-5.91-2.74-8.9-4a13.31,13.31,0,0,1,7.56-5.27c13.33-2.74,20.27-12.18,24.71-23.77,8.42-22,5-42.74-8.3-62a7.91,7.91,0,0,0-.58-.81c-12.32-13.07-13.29-11.48-23.74-1.54a106.92,106.92,0,0,0-20.63,26.11,10.34,10.34,0,0,1-.77,1.28c-9.07,13.63-14.56,28.79-19,44.41-.4,1.45.18,3.54-2.29,3.72-2.5-.13-3.92-.4-2.81-3.84C1523.75,1414,1527.35,1402.77,1532.11,1392Z" style="fill:#010100"/><path d="M1543.93,1380c2.74-7.87,8.3-13.89,13.57-20a103.77,103.77,0,0,1,14.4-13.77c3.59-2.82,6.51-2.28,9.84.08,12,8.52,17.87,20.93,20.76,34.67,3.84,18.21.72,35.34-10.5,50.64a25.73,25.73,0,0,1-5.6,5.57c-6.2,4.59-14.1,5.52-20.47,9.69-13.7-5.82-27.23-12.05-41.4-16.71a6.49,6.49,0,0,1-1.59-1.14,177.27,177.27,0,0,1,15.87-42c1.39-2.57,2.4-5.45,5.12-7.08,1.36,2.2-.28,3.78-1.21,5.45a153.54,153.54,0,0,0-14.35,34.51c-1.46,5.45-1.31,5.88,3.72,7.85q16,6.3,31.79,13.27c2.3,1,4.32,1.7,6.42-.25a4.53,4.53,0,0,1,2.26-1c12.6-2.49,20.33-10.91,24.21-22.28,7.49-22,5.32-43-8.93-62a15.73,15.73,0,0,0-1.32-1.5c-7.44-7.8-9.37-8-17.68-1.22-8,6.46-14.07,14.58-20,22.87C1547.59,1377.47,1546.92,1380.12,1543.93,1380Z" style="fill:#262617"/><path d="M1574.84,1450.94l-.1-1.85c1.56-1.07,2.77-.17,4,.73l-1.9,2.1A2,2,0,0,1,1574.84,1450.94Z" style="fill:#262617"/><path d="M1141.3,1461.84l-.93-2.93a6.78,6.78,0,0,1,4.21.46C1144,1461,1143.34,1462.28,1141.3,1461.84Z" style="fill:#989898"/><path d="M1177.18,1383.24c1.22,4-4.09,7.64-3.06,12.77.26,1.27-1.46,1-2.3.59a7.89,7.89,0,0,1-3.75-4.51c-2.26-5.86-3.18-11.85-1.21-18,1.22-3.84,4.14-4.56,7-1.61C1176.52,1375.15,1176.9,1378.64,1177.18,1383.24Z" style="fill:#fdfdf4"/><path d="M1578.71,1449.82c-1.44.4-2.68-.33-4-.73-1.67-1.08-1.93-2.22,0-3.21,1.32-.67,2.91-1.4,3.71.58A10.89,10.89,0,0,1,1578.71,1449.82Z" style="fill:#505050"/><path d="M1543.93,1380c2.87-3.84,5.73-7.7,8.61-11.53a131.85,131.85,0,0,1,19.36-20.09c3.19-2.76,6-3,9.31-.45s6.58,5.14,9,8.61c14.18,20.85,16.14,43,5.82,65.84-4.4,9.75-11.7,17-23.15,18.39-.33,0-.83,0-1,.17-4.22,6.1-8.39,1.28-12.19-.34-10-4.22-19.82-8.66-30.08-12.06-3.92-1.3-4.17-3.36-3.19-6.79a163,163,0,0,1,15.93-38.14,34,34,0,0,0,1.59-3.59Z" style="fill:#edeb00"/><path d="M1573.21,1388.53c.5,5.38-2.34,9.13-6,12.51a2.4,2.4,0,0,1-3.14.39c-4.74-2.6-6.59-6.58-5.5-12.09.8-4.07,1.57-8.15,2.56-12.18.61-2.52,1.09-6.13,4.27-5.88a7.45,7.45,0,0,1,6.75,6.36C1572.71,1381.23,1572.86,1384.9,1573.21,1388.53Z" style="fill:#fefef9"/></svg>