<svg id="Layer_3" data-name="Layer 3" xmlns="http://www.w3.org/2000/svg" viewBox="0 0 3000 3000"><title>eyes</title><path d="M1238.86,1441.57c-2,2-4.56,2.72-7.09,3.47q-52,15.23-104,30.37c-3.32.86-6.74,1.12-10.09,1.93-4.31,1-8.11-.86-11.34-3.84-16-14.8-28.17-32.59-39.26-51.15a178.39,178.39,0,0,1-20.89-50.31c-3.87-16.23-4.21-32.31.69-48.37.43-1.08.85-2.17,1.31-3.23,3.82-8.83,8.67-14.53,20-15.21,26.86-1.6,53.6-5.15,80.38-8,18.51-1.94,37-3.72,55.47-6.38a18.87,18.87,0,0,1,15.48,5.26c4.51,4.17,9,8.33,11.35,14.23a112.35,112.35,0,0,1,11,34.86c.2,1.4,1.3,3.34-.35,4.07s-2.47-1.3-3.06-2.51c-4.44-9.16-13.08-10.87-21.75-11.53-6.64-.51-13.29-.75-19.8-2.17-8.47-1.85-17-1.23-25.3.18a49.9,49.9,0,0,1-24.13-2c-13.17-4.37-26.5-4.16-39.94-4.28-7.29-2.19-14.64-2.84-22.11-.9-5.34,1.39-9.89,3.71-12.48,9-2.51,5.11-4.06,5.26-8.57,1.47-1-.82-1.59-2.13-3.35-2.39-2.12,9.06-.2,17.94,1.72,26.58,6.41,29,19.7,54.57,38.71,77.33,6.31,7.56,13.66,14.08,20.31,21.3,2.16,2.35,4.29,2.78,7,1.26,2.34-1.28,5-1.87,7.44-2.88,1.64-.62,3.18-1.47,4.82-2.08,14-4.69,28-9.54,41.78-15.07,12.83-4.17,25.16-9.64,37.92-14,3.62-1.22,4.7-3.82,5.21-7.13,1.37-9,2-18.16,2.8-27.27,1.26-4.18-.23-8.61,1.18-12.77,4-6.78,7.37-13.79,8.71-21.64a13.06,13.06,0,0,1,.54-1.92c.5-1.43,1.1-3.28,2.71-3.2,2.09.1,1.38,2.4,1.52,3.6a264.11,264.11,0,0,1,1.09,44.73c-.59,10.93-2.61,21.75-2.37,32.74C1242.37,1436.85,1241.75,1439.73,1238.86,1441.57Z" style="fill:#010000"/><path d="M1612.44,1454.66a326.56,326.56,0,0,1-45.81-16.59,175.56,175.56,0,0,0-26.18-9.56c-2-.53-3.57-1.42-3.92,2.07-.4,4-3.22,1.65-5.18,1.15.23-1.14.72-2.21,1.06-3.33,1.39-4.56,2.95-5.63,7.66-4.76a75.1,75.1,0,0,1,18.47,6.08c21.73,10.29,45,16.5,67.18,25.6,3.7,1.52,7.47,2.93,10.65,5.41,3.4,2.66,6.7,2.19,10.21.26,6.11-3.37,10.89-8.49,15.19-13.56a265,265,0,0,0,37.57-58.07,3.88,3.88,0,0,0,.57-2.73c-5.78,3.45-11.15,6.6-14.51,13a155.06,155.06,0,0,1-28.75,39.35c-4.15,4.07-7.62,8.79-11.86,12.83-3.38,3.22-6.73,4.17-11.27,2.26a214.74,214.74,0,0,0-33.1-11.17c-10.1-2.44-19.29-7.3-28.81-11.22-11.16-4.6-22.43-8.39-34.46-9.8-5.9-.68-7.24-2.08-8.51-8a139.61,139.61,0,0,1-2.92-23.24c-.45-10.45-2.19-20.88-1-31.38a5.14,5.14,0,0,0-2.13-5.25c-2.29-1.57-2.65,1-3.8,1.92s-2,1.32-2.82-.22c-.65-6.7.91-13.21,1.64-19.78.19-1.71.74-3.4,2.69-3.77s3,1.06,4,2.45c4.14,6.11,7.38,12.24,7,20.22-.46,10.09-.86,20.26.39,30.36,1.33,8.63,1.83,17.36,3.21,26,.53,3.38,2,4.89,5.42,5,4,.09,7.75,1.48,11.67,2a8.37,8.37,0,0,1,1.55.32c13.08,4.25,25.69,9.69,38.34,15.05,3.91,2.21,8.31,2.89,12.56,4a226.15,226.15,0,0,1,27.84,9.3c4.16,1.75,6.91.92,10.12-2.19,13.78-13.35,26.08-27.84,35.63-44.55,3.25-3.79,3.85-9.27,8-12.51a57,57,0,0,0,14.59-10.31c13.41-12.9,7.64-29.45-3.58-37.36a51.57,51.57,0,0,0-7.3-4.33,161,161,0,0,1-21.47-12.72c-11.83-8.19-25-12.18-39.32-13-8-.46-15.63-3.28-23.74-3-9.46.33-18.66-.23-28.06-2.94-12.63-3.65-26-3.4-39.19-3-2.76.07-5.73.65-8.08-1.6-1.11-2.3,1.23-3.15,2-4.66,4.93-6.18,10.45-11.6,18.11-14.38,1.72-.63,3.32-1.33,5.27-1,26.27,4.71,52.91,6.27,79.39,9.23,18.87,2.11,37.78,3.87,56.65,6,3.85.43,8.07-1.12,11.53,1.84,9.26,8.75,12,20.22,13.36,32.23,2.07,18.84-2.51,36.68-9.36,53.87-11.29,28.35-28.22,53.19-49,75.44-3.1,3.32-6.87,5.76-10.6,8.24s-7.52,2.5-11.1-.3C1629.05,1460.37,1620.81,1457.39,1612.44,1454.66Z" style="fill:#010000"/><path d="M1516.83,1356.62a8.41,8.41,0,0,0,1.48-1.29c1-1.44.77-5.1,3.1-3.92,2.5,1.27,5.63,3,4.89,7.6a65.46,65.46,0,0,0,.1,19.31c.89,6.54.29,13.23,1.35,19.8.91,5.7,1.5,11.46,2.46,17.15.58,3.48,2.49,5.14,6.47,5.42a95.19,95.19,0,0,1,31.58,8.22c14.9,6.54,30,12.44,45.73,16.67a160.7,160.7,0,0,1,21,7.72c3.13,1.34,5.44,1.08,7.62-1.18,14.31-14.78,29.06-29.31,38.59-47.82,4.76-9.26,11-16.24,21.17-20.4-.66,5.68-3.5,10.47-6,15a342,342,0,0,1-24.89,38.93c-6.73,8.94-14.15,17.43-23.48,23.9-4.1,2.83-7.9,3.34-12.67.12-10-6.75-21.55-10.17-32.9-13.8-14.25-4.55-28.06-10.14-41.77-16a122.12,122.12,0,0,0-20.19-7c-3.52-.83-6.92-1.18-6.71,4.16.07,1.65-.87,2.39-2.39,2.61-3.61-.36-7.21-.76-10.58-2.27-3-7.54-3.21-15.58-4-23.46-1.44-14.88-2.94-29.79-1.44-44.78C1515.52,1359.57,1515.37,1357.84,1516.83,1356.62Z"/><path d="M1238.86,1441.57c2.19-3.07,2.82-6.48,3-10.24.78-14.51,2.44-29,2.67-43.48a177.85,177.85,0,0,0-2.49-34.5c-3,9.16-4.38,18.88-11.19,26.27-2.49-3-1-6,.07-8.92a34.28,34.28,0,0,0,2.44-14.12c-.18-2.81-.92-5.48-3.53-6.73-5.07-2.43-10.21-5.08-16.15-4a40.28,40.28,0,0,1-16.79-.32,30.27,30.27,0,0,0-11.42-.29c-15.24,2.24-30-1.16-44.83-3.55a102.91,102.91,0,0,0-15.39-.92c-3.33,0-6.34-.46-7.88-3.94-1.43-3.85-3.63-6.9-7.81-8.21-1.29-.4-3-.87-2.74-2.89,13.91-.19,27.64-.32,41.26,4.25,9.81,3.3,20.34,3,30.78,1,8.89-1.66,17.8.48,26.57,2.14a25.07,25.07,0,0,0,7.39.49c7.1-.8,13.41,1.87,19.75,4.2,4.9,1.8,6,7.14,9.18,11.37a110.66,110.66,0,0,0-9.26-34.13c-.68-1.49-1.81-2.83-1.55-4.64,6.18,9,8.84,19.31,10.91,29.71,5.46,27.38,4.81,55,1.61,82.53a88.84,88.84,0,0,0-.28,10.44C1243.2,1436.5,1243.14,1440.19,1238.86,1441.57Z" style="fill:#150d05"/><path d="M1516.83,1356.62c-2.08,12.51-.48,25.05.11,37.54.46,9.67,2,19.3,3.28,28.92a45.53,45.53,0,0,1,.55,6.38l-.42.08-.43-.08c-2.74-6.51-2.64-13.56-3.5-20.37-1.93-15.29-3-30.71-2-46.09,1.24-19.12,2.42-38.33,9.12-56.61a7.26,7.26,0,0,1,1.38-2.62l0,0a.9.9,0,0,1,1.38.14c.84,1,1.49,2,3.24,1.55,13.33-3.49,26.87-3.4,40.42-1.9,3,.34,7,.55,6.73,5.4-3.07,1.83-6.46.73-9.7,1.07a49.78,49.78,0,0,0-14.27,3.83c-3.4.73-6.67,2.12-10.19,2.2-4,.08-6,2.23-6.75,6a167.17,167.17,0,0,0-3.42,28.61c-.35,9.45,0,18.91-.11,28.37,0,2.27.41,4.7-1.47,6.58-1.58-1.49-.94-3.44-1-5.19-.06-9.79-.3-19.6.06-29.38.27-7.24-4.84-11.76-7.9-17.26-1.25-2.24-2.86-.17-3,1.66C1518.17,1342.5,1516.55,1349.47,1516.83,1356.62Z" style="fill:#1d1209"/><path d="M1612.44,1454.66c8.56,1.26,16.22,5,23.09,9.87,4.42,3.15,7.86,3.2,12.18.45,11-7,18.79-17.23,26.44-27.45,15.5-20.7,28.94-42.56,36.33-67.64,5.68-19.26,7.86-38.58,1.44-58.19-1.92-5.86-6.05-10.2-9.09-15.29,6.14,3.92,8.8,10.21,10.91,16.68,4.63,14.27,4.54,28.8,1.63,43.4a150.72,150.72,0,0,1-11.51,35c-12,25.44-27.33,48.71-47.31,68.71a36.29,36.29,0,0,1-7,5.53c-7.41,4.42-8.78,4.37-15.55-.8a46.06,46.06,0,0,0-9.68-5.14C1620.33,1458.06,1616.38,1456.37,1612.44,1454.66Z" style="fill:#160d06"/><path d="M1106.84,1325.69c2.46,2.49,6.58,2.11,8.77,5.15a11.27,11.27,0,0,1,2.35,4.79c1.76,8.95,1.57,9.25-11.23,16.73,4.5,1.51,8.77,1.25,12.84,1,8.6-.55,17.16,1.29,25.78,0,4.13-.62,7.73,1.43,10.82,4.17,7.15,7.47,7.69,14.27,1.74,21.64-4.37,5.41-10.94,6-16.22,1.5a24.25,24.25,0,0,1-7.46-11.42c-2-.1-2.36,1.41-3,2.47-4.73,8.15-7.4,16.7-4.66,26.18,4.44,15.31,21.14,25.6,37.08,12.41a75.26,75.26,0,0,0,15.4-17.53,20.29,20.29,0,0,0,2.47-17.68c-.78-3.24-2.37-6.2-3.21-9.44s.07-5.24,3.11-6.34c4.78-1.74,9-6.29,14.35-4.95,8.22,2,16.49,1.15,24.7,1.8,7.44.59,9.5,3.06,9.7,10.6.22,8.61.6,17.23-.32,25.83.06,10.13-1.37,20.11-2.9,30.1-.36,2.31-1.3,3.65-3.35,4.41q-19.38,7.14-38.77,14.26a9.08,9.08,0,0,1-2,.25,1.5,1.5,0,0,1-.22-1.36,4.11,4.11,0,0,1,2.26-1.71c4.91-1.85,9.08-5.73,14.76-5.49.43-.15.86-.27,1.29-.38,1.83-.34,3.15-1.53,4.51-2.68a8.5,8.5,0,0,1,1.2-.78c12-4.08,16.6-12.79,15.92-25-.23-4,1.28-7.88,1-11.91-.13-1.67,0-3.54-1.68-4.43-3.41-1.8-4.4-4.72-4.45-8.29,0-1.07.13-2.54-1.39-2.86-1.08-.22-1.73.81-2.46,1.45a13.25,13.25,0,0,0-1.06,1.06c-6.44,7.11-12.1,7.46-17.36-.63-.79-1.22-1.92-2.69-3.58-2.23-1.88.51-1.36,2.44-1.41,3.85-.58,17-10.74,27.58-24.3,35.66a39.33,39.33,0,0,1-13.37,5.27,24,24,0,0,1-14.94-2.3c-13.4-6.24-21-16-19.67-31.36.24-2.85-1-3-3.23-2.54-11.07,2.52-21.44,0-31.52-4.46a60.23,60.23,0,0,0-9.94-3.68,113.36,113.36,0,0,0,10.11,23.51c7,12.23,12.74,25.28,21.65,36.36a126.27,126.27,0,0,0,19.27,18.77c1.83,1.48,3.89,1.65,6.08,1.77s4.71-.63,6.63,1.29c-3.48,1.53-6.94,3.08-10.44,4.56a2.89,2.89,0,0,1-3.6-.64c-13.23-13.75-27.08-27-37-43.49-12.35-20.46-22.35-41.91-25.74-65.83-1-7.1-2.56-14.41.52-21.83,2.2,2,4.4,4.14,6.83,6,.94.72,2.59,2.34,3.46-.31,3.75-11.4,13.42-12.52,23.24-13.44C1098.6,1323.17,1102.74,1324.25,1106.84,1325.69Z" style="fill:#3f250e"/><path d="M1136.94,1458.55c-9.28,1.89-15.29-3.41-21.73-9-12.42-10.71-19.69-24.86-27.65-38.64-6.66-11.52-12.51-23.4-16.48-36.33,8.07,1.93,15.09,6.23,23,8.37a43.25,43.25,0,0,0,22.07.31c2.41-.58,3.94-.94,3.56,2.39-1.75,15.2,2.6,23,16.43,31.07,8.29,4.83,16.13,4.22,24.61.49,13.18-5.82,22-15.48,27.26-28.62,1.44-3.56.65-7.24.85-10.86.07-1.36,0-2.69,1.55-3.35a3.11,3.11,0,0,1,3.61,1c1.39,1.4,2.53,3,3.79,4.58,3.72,4.56,7,4.82,11.32.83,1.83-1.7,3.61-3.47,5.3-5.3,2-2.14,3.1-2,3.92,1a17.2,17.2,0,0,1,.5,4.92c0,1.55,0,3.58,1.48,4,6.42,1.67,4.64,6.72,4.43,10.76-.34,6.75-1.2,13.49-2.06,20.2-.41,3.13-1.55,5.79-4.63,7.71-3.94,2.46-7.61,5.31-12.2,6.52-.46-3.3,2.59-3.89,4.3-5.45,3.24-2.95,3.18-4.81-.84-6.58-4.71-2.07-9.53-3.91-14.41-5.56a14.3,14.3,0,0,0-13.73,2.06,19.13,19.13,0,0,1-10.55,4,14.06,14.06,0,0,0-5.26,1.46c-10.39,4.94-20.75,6.1-31.56.86-4.64-2.25-9.91-3.71-13.51,2.45-1,1.76-3,1.9-4.92,1.3-1.27-.39-2.49-1-3.74-1.38-2-.68-4.15-2.18-6.08-.38-2.12,2-1.4,4.62-.76,7a17.76,17.76,0,0,0,4.73,7.51,166.28,166.28,0,0,0,15.31,14.24,14.84,14.84,0,0,0,9.24,3.16c2.14.08,4.34-.3,6.36.79l.49.57A5.49,5.49,0,0,1,1136.94,1458.55Z" style="fill:#3f250e"/><path d="M1155.86,1358.61a17.17,17.17,0,0,0-16.78-3.22c-3.52,1.09-6.84-.85-10.32-.8-6.61.1-13.23.05-19.85,0-1.76,0-4.09.51-4.67-1.78-.71-2.84,2.19-2.45,3.61-3,8.5-3.18,9.91-5,10.11-14.22,1.09,2.49,3.11,4.16,5.69,3.86,8.67-1,17,1.57,25.42,2.2,11.7.87,23.15,4.82,35.21,2.17a28,28,0,0,1,14.8.64c4.91,1.67,9.88.77,14.68-.13,6.8-1.27,12.55,1.62,17.68,4.76,5.54,3.37,3.54,9.83,2.94,15.15s-4.42,9.74-3.51,15.34c-.59,4.31,1.1,8.8-1,13a249,249,0,0,0-1-27.31c-.46-5.7-2-7.17-7.63-7.72-4.18-.4-8.43-2.38-12.06,1.69-.81.9-2.08-.28-3.11-.85-6.75-3.82-13.65-4.59-20,.59-2.24,1.85-7.4-.08-6.89,4.81.31,2.87,2,5.6,2.93,8.42a29.1,29.1,0,0,1,.73,3.36c-2.84-.07-3-2.65-4-4.38-2.78-5.26-6.35-9.69-12-12C1163.34,1357.73,1159.64,1357,1155.86,1358.61Z" style="fill:#2b190a"/><path d="M1182.85,1440.54l0,1.09c-8.14,4.14-16.81,6.93-25.43,9.78-5.48,1.8-10.67,4.59-16.53,5.18l-.07-.09c1.16-3.89,3.5-6.59,7.66-7.28,4-.66,7.34-2.49,10.72-4.7C1166.42,1439.82,1174.59,1439.57,1182.85,1440.54Z" style="fill:#3f250e"/><path d="M1553.69,1419.59h-.46l-.46,0a69.23,69.23,0,0,0-11.65-3.71c-2.75-.56-4.38-2.08-4.58-5a19.25,19.25,0,0,0-.62-5.23,12.93,12.93,0,0,1-.37-2.24c-.11-2,0-4.07-.71-6a15.29,15.29,0,0,1-.41-3.16c-.14-3.28.38-6.6-.69-9.81a13.83,13.83,0,0,1-.37-3.51q0-14.25,0-28.5a15.67,15.67,0,0,1,.37-4.32c1.73-5.2,8.1-8.21,14.24-7.26,5.65.87,9.89,4.12,13.09,8.21,5.08,6.5,12.34,8.55,19.47,11,2.93,1,4.76,2.17,4.26,5.5a79.39,79.39,0,0,1-2.33,10.21,33.25,33.25,0,0,0,.23,12.26c2.33,17.62,27.37,27.59,44.13,16.9a4.76,4.76,0,0,0,3.22-3.18c5.15-7,7.76-15,9.75-23.29,1.86-7.12,2-7.37,8.27-2.85,3.43,2.48,6,3,9.54.33s7.18-2.92,10.66.71a17.17,17.17,0,0,0,6.82,4c3.39,1.19,4.39,3.56,2.61,6.62-1.61,2.78-1.15,5.36-.14,8.07.23,1.77-.76,3.14-1.51,4.61a129.06,129.06,0,0,1-33.58,41.21c-1.31,1.19-2.47,2.52-3.79,3.7-2.37,2.18-5,1.36-7.49.44a126.54,126.54,0,0,0-26.47-6.69c-4.58-.45-9.12-1.06-13-3.94a38.7,38.7,0,0,0-14-7.41C1569.73,1424.78,1562,1421.44,1553.69,1419.59Z" style="fill:#3f250e"/><path d="M1534.77,1381.6v3c1.37,3.23-.42,6.77,1,10v3c1.25,1.85-.31,4.16,1,6v2c1.18,1.5-.24,3.51,1,5-.17,2.67,1,3.76,3.75,4.09a21.85,21.85,0,0,1,11.25,4.91c-5.44-.28-10.63-2.42-16.16-2.12-1.72.09-2.62-1.15-2.79-2.87-1-9.66-2.75-19.24-3.07-29,0-11.43-.19-22.87.09-34.3a161.43,161.43,0,0,1,3.81-31.31c.84-3.77,2.74-5.56,6.46-5.31,4.07.27,7.68-1.86,11.65-2,.59,2-.81,3.13-2,4.22-3.46,3.24-3.29,7.12-1.77,11,1.67,4.22,3.77,8.09,9.27,8.51,7.71.59,15.32,2,23.17,1.11,3.93-.44,7.2-2.36,10.89-3.13.66,5,4.26,6.44,8.48,7.57,3.32.89,7,2,6.08,6.82-1.71,1.2-3.53.13-5.3.22-6.43.3-8.62,2.85-8.44,10-6.12,9.14-8.61,19.06-5.83,29.84,2.62,10.13,9.51,16.31,19.59,18.46,9.36,2,16-3,21.31-10,6.3-8.2,8.29-17.61,6.83-27.78-.14-1-.43-2-.55-3s-.23-2.3-.44-3.45c-1.46-7.95,5.06-13.93,13.15-12.4,13.22,2.49,25.16,7.91,36.43,15.07,6.15,3.9,8.14,9.59,4.57,16.26-3.27,6.13-5.88,12.6-9.47,18.56-4.25,9.25-10.51,17.19-16.76,25.09s-13.8,14.79-20.85,22c-1.66,1.7-3.13,2.56-5.6,1.67-10.25-3.7-20.55-7.24-30.84-10.84,9.68-.94,18.46,2.5,27.3,5.61,2.4.85,4.68,1.6,6.74-.63a8,8,0,0,0,3-3c6.07-5.82,12-11.72,17.71-18,7.37-8.09,12.22-17.56,17.28-27a12.82,12.82,0,0,1,1.37-10.23c1-1.85.32-3.19-1.65-3.82-4.2-1.34-7.43-4.12-10.76-6.85-2.5-2-5.65-3.11-8.81-1.7-5.35,2.39-10.2,2.32-14.37-2.17-2.3,2.46-.45,5.45-1.77,7.79a52.29,52.29,0,0,1-10,24,9.09,9.09,0,0,1-3,3c-13.93,9.28-31.65,5.26-42.27-6.94-2.43-2.79-3.06-6.48-3.72-10a41.08,41.08,0,0,1,0-14c.54-2.69.69-5.49,2-8,1.3-7.09,1.23-6.73-5.2-7.88s-12.16-3.44-16.86-8.63c-3.7-4.08-7.38-8.64-14-9.24-4.3-.38-7.66,1.74-11.51,2.38-1.88.31-.27,3.09-1.43,4.39v4A174.51,174.51,0,0,0,1534.77,1381.6Z" style="fill:#3e240e"/><path d="M1525.76,1303.65q2-2.48,4.07-5a8.26,8.26,0,0,0,4.31,1c13.28-.22,26.55-.25,39.7,2,2.28.39,4.73.54,6.75,1.53,5.13,2.51,10.42,2.7,16,2.51,17.66-.61,34.92,2.75,52.1,6.2a47,47,0,0,1,17.54,8.08c9.52,6.74,19.84,12.07,29.93,17.81,13.4,7.62,20,26.9,5.58,40.37-4.75,4.44-9.41,8.82-16,10.41-.36-.73,0-1.26.46-1.78,1.88-1.82,4-3.38,5.83-5.27,4.18-3.6,8.41-7.13,11-12.19.6-1,1.27-2,1.9-3,1.47-5.86,0-10.78-5.48-13.56-15.12-7.7-27.84-19.32-43.45-26.27-6.48-2.89-12.72-5-20-4.72-14.11.61-27.9-1.15-40.2-9.08-3.13-2-6.62-1.93-10.14-1.39-3-.62-6.55.42-8.81-2.69-1.29-2.8-4-3.6-6.55-3.81-10.64-.84-21.27-1.38-31.91.42-3.45.58-6.54.65-10,2.61C1524.61,1310,1526.49,1305.28,1525.76,1303.65Z" style="fill:#140c05"/><path d="M1686.69,1387.57l-.94,1c-2.52,3.89-3.34,8.78-7,12,2.46-5.76,4.29-11.79,7.53-17.21,4.74-8,2.48-14.49-6.2-17.82a4.61,4.61,0,0,1-1.39-.52c-8.82-7.77-20-9.69-30.79-12.89-4.44-1.32-7.77.33-11,2.85-2.86,2.24-2.47,5.12-1.49,8.15a15.08,15.08,0,0,1,.33,3.45c-2.56,0-2.47-2.35-3.2-3.79a24.37,24.37,0,0,0-16-13.16c-2.47-.68-4.56-.54-6.51,1.12-1.84.41-2.78-.53-3.26-2.16-1.14-5.67-6.31-5.73-10.27-6.77-4.52-1.17-6.07-2.93-3.72-7.19.93-2.11.67-5.32,4.46-4.76,1.11,1.85,2.14,3.76,4.35,4.6,11.2,4.24,22.51,8,34.55,9.07a6.44,6.44,0,0,0,3-.15c11.53-4.81,21.07,1,30.52,6.07,6.72,3.58,12.77,8.36,19.48,12.06,6.28,3.47,7.58,8.81,4.39,15.32a74.74,74.74,0,0,1-4.79,7.57C1687.92,1385.41,1687.43,1386.57,1686.69,1387.57Z" style="fill:#311d0b"/><path d="M1553.69,1419.59c8.37.41,15.9,4,23.79,6.22,5.67,1.62,11.11,3.25,14.26,8.81Z" style="fill:#3e250e"/><path d="M1596.75,1329.64c-1.83,1.28-1.68,4.11-4,5-6.44,4.6-13.67,4.88-21.22,4.18-4.43-.42-8.9-.95-13.32-1-7-.15-8.84-5.24-10.73-10-1.59-4.06-1.77-8.44,2.35-11.73a23.48,23.48,0,0,0,2.91-3.35c7.52-4.22,15.76-4.16,24-4l9.06,1.88c4.29-.46,7.14,1.86,9.6,4.94a14,14,0,0,1,1.78,5.84,18.73,18.73,0,0,1,.8,4.64C1598,1327.29,1597.91,1328.66,1596.75,1329.64Z" style="fill:#3e250e"/><path d="M1155.86,1358.61c.32-2.12,1.62-2.39,3.58-2.29,9.12.47,15.46,5,19.73,12.89,1.17,2.16,1.78,4.66,3.69,6.39,2.21,5.71,1.08,11.23-1.74,16.23a66.12,66.12,0,0,1-17.78,20.42c-16.37,12.38-33.28,2.24-38.08-14.09-3.26-11.06.68-20.75,6.56-29.9.59-.93,1.45-2.2,2.68-2s1.21,1.73,1.36,2.88c.74,5.59,4.6,9,8.7,12.2,2.08,1.6,4.6,1.49,7.15.8,7.06-1.93,13.13-15.3,5.66-21.6A11.34,11.34,0,0,1,1155.86,1358.61Z" style="fill:#221408"/><path d="M1182.85,1440.54c-3.42.56-6.87.84-10.33,1.13-5.42.46-10.84,1.48-15,5.63a6.23,6.23,0,0,1-3.4,1.93,17.27,17.27,0,0,0-13.25,7.27c-10.12,1.88-17.55-2.93-24.21-9.69-2.8-2.84-5.65-5.62-8.45-8.46a16.47,16.47,0,0,1-4.66-7.5c-.75-3-1.84-6.25.78-8.86s5.3-.62,7.76.53c3.92,1.84,7.33,3.18,9.33-2.57.66-1.89,3.27-2.15,5.25-1.9,2.28.29,4.8.49,6.7,1.61,7.18,4.2,14.72,4.32,22.58,2.95a20.47,20.47,0,0,0,6.12-1.85c.59-.3,1.06-1,1.66-1.07,8.47-1.48,16-5.42,23.77-8.79,3-1.28,6,.17,8.73,1,4.58,1.41,9,3.26,13.46,5.1,5.62,2.34,5.89,5.59,1,9.32-1.69,1.28-3.9,2-4.78,4.2h0a18.42,18.42,0,0,1-5,3h0c-2.41.9-4.93.38-7.4.56-1.56-2.6,1-2.48,2.13-2.86a36,36,0,0,0,11-5.71c1-.76,2.65-1.31,2.08-3-.43-1.23-1.85-1.34-3-1.44-5.63-.49-11.3,0-16.93-.79-2.2-.3-3.68,1.4-4.84,3.06-3,4.23-7.08,5.67-12.11,5.53a57.21,57.21,0,0,0-28.29,6.78c-1.33.69-2.64,1.74-4,1.89-6.18.66-7.91,6-10.9,10-1.65,2.2-.43,3.93,2,4.3,3.28.51,6.81,1,9.78-.74,6.87-4.12,15.23-4.87,21.69-9.92,1.66-1.3,4-1.54,6.19-1.76,6.86-.7,13.48-2.1,19.38-5.92a4,4,0,0,1,3.81-.53c1.73,2.16-.52,2.81-1.58,3.63a18,18,0,0,1-5,2.88Z" style="fill:#4a2d0e"/><path d="M1093.73,1350.39c-6.42.14-10.75-.1-14.68-2.21-3.71-2-6.22-4.9-6.28-9.43s2.12-7.56,5.79-9.76c10.07-6,24.56-5.26,33.92,1.77,6,4.52,4.68,13.18-2.76,16.48C1104,1349.76,1097.83,1350.16,1093.73,1350.39Z" style="fill:#fcfcfc"/><path d="M1137.56,1367c.09-5.75,4.19-10.18,9.45-10.21,5.63,0,11.8,6.17,11.94,12,.16,6.33-4.73,12.17-10.1,12.07S1137.47,1373.29,1137.56,1367Z" style="fill:#fbfbfb"/><path d="M1184.85,1439.54c2-2.38,5.54-3,7-6a.65.65,0,0,1,1,0h8C1195,1434.1,1190.34,1438,1184.85,1439.54Z" style="fill:#3f250e"/><path d="M1200.85,1433.55c1.48-1.31,2.86-2.78,5-3C1204.81,1432.59,1203.26,1433.79,1200.85,1433.55Z" style="fill:#3f250e"/><path d="M1629.28,1438.83c-8.9-4.92-19-2-28.25-4.4a13.08,13.08,0,0,1-7.1-4.41c-3-3.86-6.76-5.1-11.3-6.19-9.29-2.23-18.43-5.19-27.5-8.23-2.55-.85-6.77-1.67-5.74-5.58,1-3.63,5-4.11,8.31-4.19,14.25-.35,27.82,4.2,41.75,6.23a74.59,74.59,0,0,0,10.43.47c8.95.06,17.9-.17,26.74,1.78,2.94.65,5.47-.88,7.79-2.58a16.28,16.28,0,0,1,10.74-3.21c2.12.11,4.06.33,5.1,2.38s.78,4.75-.88,6c-7.33,5.73-12.5,13.88-20.71,18.56C1635.83,1437.13,1633,1439.25,1629.28,1438.83Z" style="fill:#4e2f0e"/><path d="M1640.74,1378.6v-9.85c1.69-.77,2.27.59,2.92,1.33,3.32,3.8,7.31,4.54,11.58,2.15,4.63-2.6,8.16-.71,11.68,2.06,3.21,2.54,6.08,5.58,10.29,6.65,1.21.3,3,1.14,2.23,2.65-2,3.81-2.22,7.91-2.71,12-2-2.86-2.3-5.69-.16-8.69,1.74-2.46,1.25-4.44-1.88-5.14-2.36-.54-4.21-2-6.11-3.26-6.17-4.22-7-4.39-13.15.1-1.79,1.32-3,1.71-4.76.37-1.3-1-2.65-2-4-2.9s-2.75-1.77-4.24-2.73C1640.81,1374.76,1642.74,1377.35,1640.74,1378.6Z" style="fill:#3e250e"/><path d="M1534.77,1347.63c.12-5.12,6.22-8.15,12.43-7.91,7.5.29,11,5.7,15.46,10a26.94,26.94,0,0,0,16.17,7.84c8,.83,8.31,1,4.93,9.09.54-3.38-.73-4.58-4.28-5.41a41.34,41.34,0,0,1-23.15-14.84c-3-3.76-7.34-4.55-10.9-4.3C1541.72,1342.32,1536.32,1342.08,1534.77,1347.63Z" style="fill:#3e250e"/><path d="M1534.77,1381.6c-2.14-3.52-1-7.39-.89-11,.16-6.31-1.29-12.72.89-18.94Z" style="fill:#3e250e"/><path d="M1581.76,1374.6v14A20.74,20.74,0,0,1,1581.76,1374.6Z" style="fill:#3e250e"/><path d="M1535.77,1394.58c-2-3.16-.55-6.67-1-10C1536.81,1387.75,1535.31,1391.27,1535.77,1394.58Z" style="fill:#3e250e"/><path d="M1536.77,1403.57c-1.82-1.75-.68-4-1-6C1537.58,1399.33,1536.44,1401.58,1536.77,1403.57Z" style="fill:#3e250e"/><path d="M1627.75,1405.57a6.29,6.29,0,0,1,3-3A2.8,2.8,0,0,1,1627.75,1405.57Z" style="fill:#3e250e"/><path d="M1641.74,1440.54a2.81,2.81,0,0,1-3,3A6.25,6.25,0,0,1,1641.74,1440.54Z" style="fill:#3e250e"/><path d="M1537.77,1410.57c-1.67-1.4-.76-3.31-1-5C1538.44,1407,1537.52,1408.89,1537.77,1410.57Z" style="fill:#3e250e"/><path d="M1609.77,1350.6c.59-3.77,3.19-3.16,5.7-2.57,9.42,2.23,15.94,7.77,19.26,17a9,9,0,0,0,1,1.63c3.86,14.78-3.39,32.82-15.06,39.63s-26.2-.35-32-10.24c-6.56-11.28-4-25.5,1.76-35.47.47-.8,1.49-1.27,2.25-1.9a5,5,0,0,1,2,2.69c3.19,6.65,6.79,8.6,11.72,6.36,4.24-1.92,6.22-8.41,4.16-13.81C1610.25,1352.79,1609.62,1351.81,1609.77,1350.6Z" style="fill:#221408"/><path d="M1609.77,1350.6c3.83,5,4.1,9.33,1.22,14.61-2.19,4-5.72,5-9.71,4.36-6-1-7.26-6.06-8.54-10.94-2.65-6.54,1.78-11.58,9.72-11a30.91,30.91,0,0,1,4.3.95Z" style="fill:#3e250e"/><path d="M1596.8,1325.64l-.87-4.05c1.25-2.2,2.88-.87,4.34-.42,10.48,3.21,20.89,6.64,31.89,7.69,1.49.14,3,.63,4.46.31,13-2.85,23.88,2.81,34.32,8.94,9.27,5.44,17.8,12.09,27.22,17.42,6.56,3.71,7.58,7.58,5.57,14.08-1.71,6-7.06,8.89-11,13a1.62,1.62,0,0,1-2.14.06c.15-3.3,3-5,4.55-7.44,3.31-5.35,3.2-10.32-2.11-13.43-12.42-7.28-23.41-17-37.41-21.61-4.36-1.43-8.64-2.47-13.15-1-4.82,1.54-9.61.33-14.31-.39-9.05-1.38-17.73-4.26-26.35-7.31C1599,1330.43,1597.86,1328.09,1596.8,1325.64Z" style="fill:#221408"/><path d="M1594.75,1315.66c-2.7-2.18-5.43-4.32-8.92-5.15,3.83-1.85,7.5-1,10.79,1.14,12.37,8.2,26.35,9.55,40.51,8.79,6.48-.35,12,1.37,17.56,3.86,16.53,7.43,30.39,19.3,46.22,28,5.79,3.17,7.17,8.9,4.81,15.35-.92-9-7.47-13.09-14.69-16.34s-12.79-8.84-19.36-13c-8.07-5.13-16.93-8.35-25.8-11.6a10.4,10.4,0,0,0-5.42-.43c-13.8,2.36-26.6-2.11-39.51-5.78A11.47,11.47,0,0,1,1594.75,1315.66Z" style="fill:#160d06"/><path d="M1594.75,1315.66c11.74,6.74,24.86,10.53,37.9,9.57,19-1.4,33.3,7.59,47.39,17.56a149.48,149.48,0,0,0,16.92,10.26c6.18,3.26,9.43,7.54,8.76,14.56l-2,2c1-6.46-1.72-11.24-7.41-13.81-11.29-5.09-20.09-14-31.13-19.49a99.13,99.13,0,0,0-16.74-6.22,9.68,9.68,0,0,0-4.42-.39c-12.2,2.47-23.51-1.6-35-4.37-4.42-1.06-8.42-3.48-13-3.74C1595.54,1319.61,1595.14,1317.64,1594.75,1315.66Z" style="fill:#1d1209"/><path d="M1690.73,1382.59h2l-6,5c.08-1.08-.12-2.27,1-3C1688.66,1383.81,1688.84,1381.91,1690.73,1382.59Z" style="fill:#160d06"/><path d="M1690.73,1382.59l-3,2c.62-3.23,3.26-5.31,4.63-8.15,3-6.25,1.78-11-4.4-14.12a89.73,89.73,0,0,1-14.82-9.15c-6.65-5.1-14.54-7.2-22.07-10.19a8.5,8.5,0,0,0-6.36.2c-7.17,3-14.17,1.89-21.25-.44s-14.56-3.33-21.39-6.48c-2.86-1.31-6.15-2.31-5.32-6.61,0-1.33,0-2.67,0-4,5.82,7.27,14.85,7.42,22.72,9.82,8.83,2.7,17.81,3.81,27.33,1.64,5.74-1.31,11.37,2.8,16.89,5,8.58,3.46,15.27,10,23.28,14.34,1.9,1,3.84,2,5.65,3.16,5.55,3.57,8.63,10.31,3.66,16C1694.38,1377.88,1692.59,1380.27,1690.73,1382.59Z" style="fill:#311d0b"/><path d="M1572.41,1310.31a48,48,0,0,1,14.73,2c4.54,1.5,7.13,4.38,7.41,9.42.3,5.49-.14,10.75-5.92,13a39.23,39.23,0,0,1-33.19-1.94c-4-2.11-6.06-6.13-5.55-10.9s3.48-7.77,7.83-9.4A41.15,41.15,0,0,1,1572.41,1310.31Z" style="fill:#fdfdfc"/><path d="M1192.85,1433.54h-1c-9.14,4.81-19.9,5.12-28.91,9.16-7.39,3.32-15.56,5.26-22.47,10.07-3.19,2.23-8.17,1.32-12.13.2-2.44-.69-3.54-3.35-1.56-5.65s4.23-4.61,5.14-7.76a2.67,2.67,0,0,1,2.14-1.89c9-1.7,16.3-7.88,25.57-9.16a81,81,0,0,1,13.33-.9c4.45.14,7.71-1.4,10-5.21,1.91-3.2,4.41-4.69,8.35-3.3,1.79.64,3.93.38,5.91.44a90.2,90.2,0,0,1,9.46.23c1.65.22,4.12.33,4.68,2.3.62,2.21-1.85,2.72-3.15,3.89C1203.79,1430,1198.28,1431.67,1192.85,1433.54Z" style="fill:#55330e"/><path d="M1603,1368.43c-4.64-.1-8.45-4.7-8.29-10,.15-4.91,3.88-8.66,8.48-8.53a8.68,8.68,0,0,1,8.31,9.28C1611.26,1364.36,1607.43,1368.53,1603,1368.43Z" style="fill:#f9f9f9"/></svg>