<svg id="Layer_1" data-name="Layer 1" xmlns="http://www.w3.org/2000/svg" viewBox="0 0 3000 3000"><title>eyes</title><path d="M1721.87,1547c-16.83-17.78-35.77-33.27-54.07-49.45-8.72-7.7-17.73-15.08-26.76-22.4-3.56-2.88-9-2.15-12.22-6-1.35-1.11-1.5-2.77-2-4.29a41.27,41.27,0,0,0-12.65-7.71c-4.72-3.36-10.38-5.18-14.86-9a2,2,0,0,1,1.15-2.54c1.9-.67,3.6,0,5.3.76a33.36,33.36,0,0,0,5.68,2.32c4.64,2.37,9.38,4.3,14.73,4.2,5.81-.11,8.24-2.58,7.7-8.41a149.63,149.63,0,0,0-2.32-15.31,172.51,172.51,0,0,1-3.29-26.71c-.29-6.91-3.68-9.22-10.26-7.06a69.17,69.17,0,0,0-8.58,4c-11.07,5.39-22.46,8-34.81,4.87-6.25-1.6-9.34,1.55-8.12,7.94a145.09,145.09,0,0,0,5.73,19.64c.62,1.8,2,3.63.44,5.63-8.46-3.24-16.79-6.87-25.83-8.33a6,6,0,0,1-3.54-5.09c-.69-5.94-2.43-11.69-3.07-17.63-.42-2.11-.42-4.26-.85-6.37-1-2.29-.34-4.84-1.1-7.17-.51-2.76-.62-5.57-1-8.34-1.44-16.84-2.18-33.7-.41-50.53a156.47,156.47,0,0,1,4.22-23.27c3.31-13,8.42-25,18.23-34.53,3.12-3,6.85-5.1,10.54-7.29,19.31-8,36-1.46,51.59,9.69,16.47,11.74,28.14,27.79,38.94,44.54,1.44,2.23,3,4.38,4.32,6.68,3.48,7.53,8.08,14.47,11.74,21.91q7.48,15.2,14.07,30.77c7,15.79,11.93,32.3,17,48.77,6.4,20.72,10.65,41.93,14.67,63.2.25,7,2.33,13.72,3,20.65.84,2.73.11,5.65,1.08,8.36,1.09,7.31,1.78,14.67,2.37,22,.15,1.85,1,4.45-1.1,5.43s-2.79-1.74-4.22-2.68A5.77,5.77,0,0,1,1721.87,1547Z"/><path d="M1215.83,1445.44l-3.51,1.12c-4.87.5-4-3.27-3.69-5.68,1-7.14.63-14.29.74-21.43a34,34,0,0,0-.07-3.5c-.69-8.33-6.33-11.63-14-8.21a6.76,6.76,0,0,0-1.77.92c-7,6.28-14.91,5.32-23,2.8-3.18-1-6.3-2.19-9.53-3-5.39-1.36-8.64.58-10.17,5.93a15.42,15.42,0,0,0-.52,6.43c1.85,12.68,3.23,25.42,5.22,38.07a15.58,15.58,0,0,0,1.07,3.33c.47,1.26,1.19,2.5.28,3.86-8.8,3.91-17.58,7.86-26.4,11.73-31.57,13.85-58.46,34.07-81.56,59.52-1.86,2.06-3.39,4.88-1.52,6.61,4,3.71.31,4.61-1.56,6.35-4.38-1.09-6.36-3.91-7-9.42-1.23-10.5.48-20.89,1.07-31.31.57-9.94,2.14-19.79,3.47-29.65,1.15-7.08,2.76-14.08,3.79-21.18,3.11-12.73,6.36-25.43,10.25-38,4-12.86,8.85-25.41,13.89-37.89a328.41,328.41,0,0,1,28-52.63c6.41-9.08,13-18.09,20.58-26.15a111.71,111.71,0,0,1,18.28-15.33c8.56-5.73,17.89-9.62,28.18-10.31,16.24-1.08,28.26,6.64,37.61,19.23,6,8.1,9.41,17.47,12.72,26.86l.16,3.79c2.68,5.55,2.94,11.7,4.44,17.55.8,6.62,1.9,13.21,2,19.9a245.4,245.4,0,0,1-.2,33.21c-.88,11.86-2.53,23.57-4.32,35.29h0c-.68.87-.49,2.19-1.52,2.88-1,1.45.09,2,1.09,2.59,1.35.83,3.07,1.25,3.55,3.17C1220.25,1444.73,1217.66,1444.22,1215.83,1445.44Z"/><path d="M1605.74,1447.44l-4.84-1.3c-.35-.17-.71-.33-1.08-.47-1.18-.25-2.38-.43-3.55-.75s-2.56-.55-3.83-.86a40,40,0,0,0-6.8-1c-2.67,0-4.94-1.66-8-.81-2.26.62-3.56-2.78-4.94-4.73-2.43-7.92-5.09-15.79-7.24-23.79-2.43-9,1.44-12.89,10.34-10.58,11.09,2.89,21.38.47,31.4-4.2,3.47-1.61,6.8-3.54,10.34-5,7.17-2.91,11.92-.34,12.09,7.17.32,14.37,3.79,28.25,5.69,42.37,1,7.48-1.56,10.75-8.9,10.85a27,27,0,0,1-15.8-5.09A25.62,25.62,0,0,0,1605.74,1447.44Z" style="fill:#007373"/><path d="M1155.73,1463.36c-3.32-6.22-2.56-13.24-3.82-19.86s-2-13.44-2.92-20.17a21.26,21.26,0,0,1,.09-8.41c2.13-8,5.77-10,13.62-7.46,3.16,1,6.36,1.91,9.52,2.91,7.26,2.31,13.63,2.26,20.54-2.67,9.6-6.85,17.66-2.13,18,9.58.22,7.63.45,15.25-.73,22.88-.32,2.13-1.91,5.54,2.29,6.4-5.67,7.88-15.39,6.17-22.93,9.64-7.72,3.56-15.62,6.68-24.08,8a23.61,23.61,0,0,1-3.47,0C1159.81,1463.87,1157.59,1464.83,1155.73,1463.36Z" style="fill:#007474"/><path d="M1226.5,1298.54a16.76,16.76,0,0,1-4.78-5.07,15.86,15.86,0,0,0-3.16-4,147.91,147.91,0,0,1-17.34-23.7,23.17,23.17,0,0,1-2.58-6.44c-.64-2.81-.1-5.81,3.38-6,2.84-.15,6.42,0,5.51,4.93-.18,1,1.08,2.34,1.78,3.44,5.08,8,10.47,15.8,14.64,24.34.87,2.15,2,4.2,2.93,6.31.28.74.57,1.47.85,2.21C1228.23,1296.17,1229.51,1298,1226.5,1298.54Z" style="fill:#030303"/><path d="M1524.89,1287.78c-4.51,10-10,19.42-15.55,28.87-.81,1.38-1.88,3.31-3.81,2.29-2.12-1.13-1.28-3.27-.42-4.83,5.69-10.31,11.39-20.62,17.27-30.82,2.94-5.08,6.26-9.94,9.4-14.9,1.3-.64,2.27-.7,2,1.21-.84,4-4.12,6.88-5.2,10.79A45.34,45.34,0,0,0,1524.89,1287.78Z" style="fill:#0b0b0b"/><path d="M1620.84,1461.09l-6.37-4.64a24.36,24.36,0,0,1,13.11,8,2,2,0,0,1-2.06,0,1.41,1.41,0,0,1-.78-.19C1623.44,1463.22,1621.79,1462.58,1620.84,1461.09Z" style="fill:#0d2020"/><path d="M1053.28,1542.55c1.9-2.66,3.1-4.56,5.56-5.68C1059.13,1540.52,1057.35,1541.94,1053.28,1542.55Z" style="fill:#494949"/><path d="M1538.87,1262.6l-3.16,4.72a3.18,3.18,0,0,1-1.33-2.13c.33-1.91,1.73-2.94,3.22-3.89C1538.66,1261.11,1539.25,1261.38,1538.87,1262.6Z" style="fill:#343434"/><path d="M1155.73,1463.36c2,.25,4.28-.86,6.1.9l-5,1.82Z" style="fill:#0b4f4f"/><path d="M1226.5,1298.54c1.71-.93,1-2.59,1.23-4,1.9,1.82,2,4.17,2.19,6.67A4.67,4.67,0,0,1,1226.5,1298.54Z" style="fill:#272727"/><path d="M1589.71,1444.21l-2,.1-2-1.2a6.82,6.82,0,0,1,7.16.11C1592.07,1444.49,1590.68,1443.7,1589.71,1444.21Z" style="fill:#0f4d4e"/><path d="M1524.89,1287.78a9.89,9.89,0,0,1,3.74-7.39A18,18,0,0,1,1524.89,1287.78Z" style="fill:#1a1a1a"/><path d="M1534.38,1265.19a2.17,2.17,0,0,1,1.33,2.13c-1,.41-.48,2.15-1.88,2.28a2.08,2.08,0,0,0-2-1.21C1532.07,1266.85,1533.31,1266.09,1534.38,1265.19Z" style="fill:#1a1a1a"/><path d="M1226.88,1292.36a8.6,8.6,0,0,1-2.93-6.31A9.57,9.57,0,0,1,1226.88,1292.36Z" style="fill:#272727"/><path d="M1625.52,1464.47h2.06c.41,1.56.82,3.12,1.24,4.67C1626.34,1468.56,1626.66,1466,1625.52,1464.47Z" style="fill:#646464"/><path d="M1218.56,1289.48c1.91.65,3.18,1.81,3.16,4A8.5,8.5,0,0,1,1218.56,1289.48Z" style="fill:#272727"/><path d="M1538.87,1262.6l-1.27-1.3c.67-.85,1.61-2.41,2.46-1.63C1541.06,1260.58,1539.69,1261.75,1538.87,1262.6Z" style="fill:#595959"/><path d="M1566.84,1318.42c2.31-5.35,6.61-9.28,10-13.86,9.18-10,17.58-6.23,21,1.61a8,8,0,0,1,.76,5.33c-2.06,7.09-.9,14.51-2.48,21.63-2.17,5.18-3.14,10.85-6.74,15.46a35.79,35.79,0,0,1-3.94,4.47c-7.71,7-18.69,4-21-6.16C1562.2,1337.25,1561.81,1327.55,1566.84,1318.42Z" style="fill:#fefefe"/><path d="M1667.64,1377.43c7.08,17,13.82,34.14,19,51.83.47,1.57.75,3.2,1.11,4.81a2.51,2.51,0,0,1,.11,2.28c-2.42.3-2.61-1.79-3-3.19a452.82,452.82,0,0,0-21.45-57.34,2.73,2.73,0,0,1,0-2.4C1667.55,1371.9,1666.33,1376,1667.64,1377.43Z" style="fill:#c1c1c1"/><path d="M1566.84,1318.42c-2.92,8.4-4.35,16.87-2.3,25.78,1.22,5.3,3,10.06,8.61,11.74,5.88,1.76,10.2-1.34,13.9-5.55,4.37-5,6.16-11.25,8.59-17.2a2.05,2.05,0,0,1,.26,2.4c-1.71,6.91-4.64,13.18-10,18.07-7.8,7.14-18.41,4.74-21.55-5.3-2.93-9.33-3.71-18.9.89-28.15C1565.63,1319.46,1565.93,1318.68,1566.84,1318.42Z" style="fill:#393939"/><path d="M1664.63,1419.36a316.82,316.82,0,0,0-7.94-55c-.87-1.72-.32-3.73-1.24-5.49-.49-1,.07-1.82,1.39-1.68v0c1.05,1.31,2.3,2.53,2.09,4.45-.13,3.35,1.13,6.44,1.93,9.61,3.16,11.68,4.59,23.65,6,35.61.48,4.05,1,8.22-.69,12.2A1.12,1.12,0,0,1,1664.63,1419.36Z" style="fill:#c1c1c1"/><path d="M1595.9,1335.59l-.26-2.4c1-6.71.23-13.53,1.84-20.23,1.16-4.85-.38-9.31-4.92-12s-8.59-1.38-12.48,1.46c-1,.77-2.17,1.46-3.25,2.18,3.05-7.31,14.45-9.37,19.12-3.23,2.81,3.69,5,7.88,3,12.9-2.38,6-.2,12.53-2.1,18.6C1596.58,1333.76,1596.23,1334.67,1595.9,1335.59Z" style="fill:#2f2f2f"/><path d="M1687.49,1436.6c.1-.84.21-1.69.31-2.53,5,14.33,8.18,29.13,11,44a6.52,6.52,0,0,1,.22,4.07c-2.79.59-2.34-1.79-2.64-3.13-2.74-12.47-5.44-24.94-9.12-37.19C1686.71,1440.11,1686.21,1438.29,1687.49,1436.6Z" style="fill:#b9b9b9"/><path d="M1675.61,1478.55l-14.83-12.29c-1.84-2.6-.55-5,.36-7.51,2.14.39,2.5.45,2.24,1.93-.55,3.17,1.35,4.72,3.34,6.54,3.36,3.08,7.13,5.82,9.33,10A1.66,1.66,0,0,1,1675.61,1478.55Z" style="fill:#bcbcbc"/><path d="M1675.61,1478.55c0-.44.07-.89.11-1.34,6.93,3.17,12.75,7.45,15.13,15.16a.81.81,0,0,1-1.24,0Z" style="fill:#c2c2c2"/><path d="M1664.63,1419.36h1c2.89,4.82,1.28,10,1.22,15.05-1.14,3.18-.69,6.53-1,9.8a5.27,5.27,0,0,1-.48,1.55,1.55,1.55,0,0,1-1.3.83l-.65-.47Q1664,1432.74,1664.63,1419.36Z" style="fill:#919191"/><path d="M1698.59,1482.5c.06-1.47.13-2.94.19-4.41a60.24,60.24,0,0,1,3,15.1c.8,1.49.32,3.08.39,4.63-.65,1.09-1.61.68-1.82-.07C1698.92,1492.78,1696.79,1487.85,1698.59,1482.5Z" style="fill:#b4b4b4"/><path d="M1661.85,1458.26a12.1,12.1,0,0,0-1.07,8c-1.82-.52-2.15-1.88-1.75-3.45,1.16-4.52,2.42-9,3.63-13.54,1.24,1,1.27,2.45,1.36,3.86C1663.92,1455.11,1664,1457.16,1661.85,1458.26Z" style="fill:#464646"/><path d="M1701.57,1498.46l.18-5.27c1.72,5,2,10.28,2.76,15.83-2.54-.41-3.32-2-4.14-3.58,3.29-1.27.07-3.43.68-5.07A2.36,2.36,0,0,1,1701.57,1498.46Z" style="fill:#a1a1a1"/><path d="M1667.64,1377.43c-1.81-.93-1.12-4.1-3.8-4.26a4,4,0,0,1-2.11-3.08,4,4,0,0,1,.83-3.66A19.16,19.16,0,0,1,1667.64,1377.43Z" style="fill:#343434"/><path d="M1689.61,1492.33l1.34-.16c4.2,1.16,6.36,4,6.84,8.26a1.07,1.07,0,0,1-1.31,0A36.61,36.61,0,0,1,1689.61,1492.33Z" style="fill:#bbb"/><path d="M1662.56,1366.43c-.22,1.31.93,2.57.17,3.91-2.07.44-2.56-1-3-2.5-.11-1.92-1.61-3.54-1.21-5.57a.85.85,0,0,1,1.23,0Q1661.19,1364.36,1662.56,1366.43Z" style="fill:#c1c1c1"/><path d="M1656.84,1357.2c-1.79,2.35.91,4.8-.15,7.17-1.44-2.1-1.5-4.6-2-7-.27-1.23-1.43-2.76,1-3.05C1656.2,1355.26,1657.19,1356,1656.84,1357.2Z" style="fill:#949494"/><path d="M1653.74,1348.31l1.09,2.88c-.18,1.19,0,2.5-1.26,3.3a7.6,7.6,0,0,1-1.91-6.13C1652.09,1346.78,1652.11,1346.78,1653.74,1348.31Z" style="fill:#3f3f3f"/><path d="M1599.72,1448.26c-1.78.48-2.94-.69-4.19-1.59.93-3.37,3.2-1.66,5.11-1.34a3.27,3.27,0,0,1,.26.82A2.17,2.17,0,0,0,1599.72,1448.26Z" style="fill:#121717"/><path d="M1701.75,1500.27c.37,1.94,3.46,4.61-1.38,5.17l-.77-1a2.21,2.21,0,0,1-.25-2C1701.19,1502.88,1700.77,1500.83,1701.75,1500.27Z" style="fill:#bbb"/><path d="M1653.57,1354.49c.25-1.17-.1-2.56,1.26-3.3a3.15,3.15,0,0,1,.87,3.17c-1.24.71-.72,2-1,3.05C1653.71,1356.65,1653.74,1355.53,1653.57,1354.49Z" style="fill:#686868"/><path d="M1653.74,1348.31c-.7-.08-1.41-1.06-2.08,0-1.43-1.12-.8-2.61-1.05-4.79C1652.37,1345.34,1653.62,1346.43,1653.74,1348.31Z" style="fill:#181818"/><path d="M1662.8,1453.4c0-1.37-.09-2.75-.14-4.13.28-1,.55-2.1.82-3.15l.53.45c1.24,1.71,1,3.58.58,5.47A1.82,1.82,0,0,1,1662.8,1453.4Z" style="fill:#919191"/><path d="M1659.79,1362.3l-1-.07c-.33-.07-.47-.2-.43-.39s.1-.33.19-.33l-1.72-4.33C1659.37,1358,1659.52,1360.18,1659.79,1362.3Z" style="fill:#949494"/><path d="M1605.74,1447.44a4.74,4.74,0,0,1,4.86,1.89A6.19,6.19,0,0,1,1605.74,1447.44Z" style="fill:#121717"/><path d="M1699.65,1502.42c0,.68,0,1.37-.05,2.06-1.35-1.12-2.67-2.27-3.12-4.08l1.27-.14A2.3,2.3,0,0,1,1699.65,1502.42Z" style="fill:#a1a1a1"/><path d="M1061.89,1484.44c.59-10.65,3.59-20.87,6-31.16a377,377,0,0,1,31.71-87.33c10-19.42,22-37.51,37.89-52.77a32.34,32.34,0,0,1,3-2.62,14.07,14.07,0,0,1,2.47-1.16c.29,3.67-1.89,6.18-3.07,9a246.3,246.3,0,0,0-16.05,57.34c-.16,1-.12,2-1.15,2.6-1.47-1.54-1.15-3.49-1.21-5.35a219.11,219.11,0,0,1,15.86-55.87,118.53,118.53,0,0,0-10.38,12.24,7.13,7.13,0,0,1-1.29,1.65c-3.14,2.33-5.15,5.54-6.89,9a16.43,16.43,0,0,1-2.32,3.49c-10.78,15.19-19,31.72-25.62,49a8.87,8.87,0,0,1-.53,1.41c-5.91,13.1-11,26.47-14.18,40.54a20.16,20.16,0,0,1-1.54,5.9c-2.28,3.88-2.64,8.37-3.86,12.58a27.32,27.32,0,0,0-1,5,9.22,9.22,0,0,1-.38,1.46c-1.64,6.72-2.81,13.53-4.2,20.29-.34,1.62-.59,3.24-1.8,4.51A1.34,1.34,0,0,1,1061.89,1484.44Z" style="fill:#121212"/><path d="M1122.78,1372.33l-.09,6c-4.53,27.7-6.42,55.31,2.74,82.57,1.45,4.3-.24,6.08-7.69,8.37a1.9,1.9,0,0,1,.35-2,5.48,5.48,0,0,1,1.06-.92c4.55-2.8,4.55-2.8,2-9.41a158.42,158.42,0,0,1-3.92-55.85c.51-5.11,1.27-10.21,1.48-15.36,1-3.34.83-6.87,1.76-10.22C1120.83,1374.17,1120.63,1372.4,1122.78,1372.33Z" style="fill:#666"/><path d="M1170.83,1363.3c-5-13.08-5.44-25.52,5-36.55a13.9,13.9,0,0,0,2.16-3.89,9.72,9.72,0,0,1,9.92-6.13c4.51.29,7.48,3.42,8.85,7.69,1.15,3.61,2,7.34,2.9,11a1.6,1.6,0,0,1-1.43.26c-2.38-1.57-2.42-4.26-3-6.61-1-4-2.14-8.07-6.82-8.95-4.84-.91-7.06,2.74-9.21,6.24-2.25,3.69-5.26,6.91-6.89,11a29.91,29.91,0,0,0-.6,20.56c.54,1.71,1.5,3.41.48,5.28A.81.81,0,0,1,1170.83,1363.3Z" style="fill:#3c3c3c"/><path d="M1198.54,1335.48l1.08,0c4.85,13.24,4.41,26.25-1.78,39-.95,1-1.72,2.32-3.17,2.81l-1.89,1.11a15,15,0,0,1-8,.06c-3.21-.46-5.3-2.49-7-5.06a1.6,1.6,0,0,1,0-2.15c2.11-.35,3.31,1.28,4.79,2.25,5.82,3.83,11.32,2.51,14.46-3.81,3.21-6.47,2.69-13.55,2.88-20.51C1200,1344.5,1197.4,1340.18,1198.54,1335.48Z" style="fill:#5e5e5e"/><path d="M1081.84,1493.38l-19.09,17.88c-1.92,1-2.4-.15-2.4-1.71a35.08,35.08,0,0,1,.18-7c4.18-.12,1.32,3.62,2.74,5,4.1-4,7.93-8.32,12.31-12,1.8-1.53,3.46-3.62,6.28-3.4a.79.79,0,0,1,.26.83C1082,1493.24,1081.93,1493.38,1081.84,1493.38Z" style="fill:#c9c9c9"/><path d="M1081.84,1493.38c0-.4-.09-.79-.13-1.19-.12-1.83,1.38-2.56,2.5-3.41,5-3.82,9.94-7.72,15.29-11,1.35-.83,2.6-2.19,4.49-1.46a1.14,1.14,0,0,1-.06,1.33Z" style="fill:#b1b1b1"/><path d="M1210,1400.86v-23.32h.5v23.74Z" style="fill:#060606"/><path d="M1061.78,1502.28c-.56,3.08-3,6.37,1,9a3.48,3.48,0,0,1-3.4,2.59c-.15-5.65.84-11.1,1.43-16.57l.69-.33a1.93,1.93,0,0,1,1.06,1C1063,1499.54,1063.1,1501,1061.78,1502.28Z" style="fill:#9b9b9b"/><path d="M1103.93,1477.6l-.12-1.21c2.52-4.33,7-5.89,11.16-7.87a2.31,2.31,0,0,1,2,.89A72.24,72.24,0,0,1,1103.93,1477.6Z" style="fill:#a3a3a3"/><path d="M1177.74,1371.43l0,1.91c-2.47-3.24-5.22-6.28-6.94-10l1.22-.08C1175.74,1364.72,1177.46,1367.57,1177.74,1371.43Z" style="fill:#242424"/><path d="M1184.76,1378.4l8-.06A7.48,7.48,0,0,1,1184.76,1378.4Z" style="fill:#242424"/><path d="M1061.74,1490.25c0-.3.06-.61.12-.91a1,1,0,0,1,1.3.06,3.67,3.67,0,0,1,.63,1.36,14.35,14.35,0,0,1,.08,4.53c-.25,1-.56,2-1.81,2.19l-.6-.48C1061.37,1494.75,1060.92,1492.47,1061.74,1490.25Z" style="fill:#9b9b9b"/><path d="M1061.74,1490.25l-.27,6.75a.83.83,0,0,1-.69.28C1060.68,1494.88,1060.27,1492.44,1061.74,1490.25Z" style="fill:#545454"/><path d="M1194.67,1377.23a7.55,7.55,0,0,1,3.17-2.81C1197.6,1376.28,1196.67,1377.36,1194.67,1377.23Z" style="fill:#242424"/><path d="M1117,1469.41l-2.24-.26c.64-2.33,2-3,4.15-1.76l-1.13,1.86A1.24,1.24,0,0,1,1117,1469.41Z" style="fill:#d1d1d1"/><path d="M1062.68,1489.17a2.08,2.08,0,0,1-.82.17l0-4.9a2.7,2.7,0,0,1,1-.09C1064.18,1486,1064.23,1487.62,1062.68,1489.17Z" style="fill:#545454"/><path d="M1600.64,1445.33c-1.76.23-3.84-.73-5.11,1.34l-2.84-1.36c.77-2.66,2.58-1.32,4.11-1.08C1598.13,1444.42,1599.67,1443.89,1600.64,1445.33Z" style="fill:#0d2020"/><path d="M1596.8,1444.23c-1.39.28-3-.39-4.11,1.08a4.11,4.11,0,0,1-3-1.1c.79-1.08,2-.83,3.08-1C1594.17,1443.4,1595.7,1443,1596.8,1444.23Z" style="fill:#0d3636"/><path d="M1699.65,1502.42l-1.9-2.16a29.09,29.09,0,0,0-6.81-8.09c-4.12-6-9.52-10.6-15.22-15-4.19-3.78-8.2-7.77-12.63-11.24-3.09-2.43,1-5.48-1.24-7.72,1.4-1.4.6-3.24,1-4.86l1-1c1.09-1.92-.27-4.19.88-6.1a5.64,5.64,0,0,0,.11-.92c1.22-3.28-.36-6.8.88-10.07q0-8,0-15.94c.58-14.32-2.15-28.26-4.85-42.19a46.05,46.05,0,0,1-1.18-6.8c-.18-1.16-1.46-2.71,1-2.95a2.86,2.86,0,0,0,2.07,2.92c.54.87,1.5,1.59,1.11,2.84,5.06,12.14,10.44,24.16,14.62,36.65,3,8.93,6,17.85,9,26.77l11.1,45.9c.55,5.4,1.12,10.8,3,16l.18,1.81C1701.56,1501.49,1702,1503.31,1699.65,1502.42Z" style="fill:#fefefe"/><path d="M1660.66,1367.42c-1.21.69-.85,1.91-1,2.95-.83-2.89-3-5.63-1.08-8.86a3,3,0,0,1,.24.72Q1659.72,1364.83,1660.66,1367.42Z" style="fill:#dedede"/><path d="M1665.67,1435.3c0,3.38.79,6.83-.88,10.07C1664.91,1442,1664.22,1438.55,1665.67,1435.3Z" style="fill:#c1c1c1"/><path d="M1664.68,1446.29c0,2.08.58,4.24-.88,6.1l.21-5.82A1,1,0,0,1,1664.68,1446.29Z" style="fill:#bcbcbc"/><path d="M1118.87,1467.39c-1.7-.17-2.95.74-4.15,1.76l-10.91,7.24a213.34,213.34,0,0,0-22.1,15.8c-7.12,4.94-12.71,11.6-19.93,18.1v-8c.1-1.6.19-3.2.28-4.8.23-.73.46-1.47.7-2.2,1.13-1.54.29-3.3.55-4.93a8.1,8.1,0,0,1,.2-2.25c.53-1.78.09-3.65.51-5.44,1.62-8.14,3.29-16.26,4.7-24.43v0c.87-.69.55-1.82,1-2.68,1.4-5.12,2.28-10.38,4-15.41-.73-2.16,1.45-3.75,1.16-5.82,3.86-11.31,7.36-22.73,11.88-33.81a73.51,73.51,0,0,0,2.87-7.43,1.11,1.11,0,0,1,.22-.75c7.54-17.2,15.9-34,26.06-49.79l2.08-3.11c2.49-2.86,4.42-6.15,6.84-9.06l1-1a29.74,29.74,0,0,1,4.68-5.14c1.3-1,2.2-3.89,4.13-2.55,1.65,1.15-.08,3.4-.71,5a174.87,174.87,0,0,0-8.09,26.62c-2.32,10.12-4.67,20.24-5.9,30.58-3.6,24.65-4.59,49.22,2.11,73.56,2,6.44,2,6.44-3.19,10Z" style="fill:#fefefe"/><path d="M1119.65,1383.14a244.19,244.19,0,0,1,12-52.69c1-2.76,2-5.5,3.17-8.77-4.21,1.93-5.44,6.18-9,7.69,2.77-6.14,8.17-9.95,13.06-14.46a269.31,269.31,0,0,0-16.1,57.42c-2.1,4.17-1.38,9-2.85,13.26A1.92,1.92,0,0,1,1119.65,1383.14Z" style="fill:#c4c4c4"/><path d="M1115.89,1342.56c-.59,4.29-3.62,7.33-5.67,10.83a299.22,299.22,0,0,0-17.82,35.53c-.55,1.32-.85,2.94-2.57,3.43-.54-1.45.37-2.58.88-3.75a285.87,285.87,0,0,1,22.09-42.36C1113.66,1344.91,1114.08,1343.13,1115.89,1342.56Z" style="fill:#b6b6b6"/><path d="M1089.61,1393.1c0,5.33-3.29,9.62-4.78,14.5-2.37,7.78-5.12,15.44-7.72,23.15-.46,1.37-.46,3-2.25,3.59C1078.29,1420.06,1082.78,1406.16,1089.61,1393.1Z" style="fill:#bababa"/><path d="M1068.72,1458.23c.14,6.27-1.4,12.3-2.84,18.31a28.37,28.37,0,0,0-1.08,6.76c-1.21,1.53.09,3.51-.92,5.07l-.13,1.9c-.19.43-.45.44-.75.1-.11-.4-.21-.8-.32-1.2.07-1.6.13-3.21.19-4.82C1064.8,1475.64,1065.7,1466.7,1068.72,1458.23Z" style="fill:#c1c1c1"/><path d="M1073.7,1440.16c-.16,5.73-2.12,11-3.75,16.43-1-1.11-.75-2.29-.23-3.49C1070.6,1448.65,1070.66,1444,1073.7,1440.16Z" style="fill:#c4c4c4"/><path d="M1124.81,1330.39a18.15,18.15,0,0,1-6.84,9.06A17.85,17.85,0,0,1,1124.81,1330.39Z" style="fill:#aeaeae"/><path d="M1069.72,1453.1c.08,1.16.15,2.32.23,3.49-.09.8-.3,1.5-1.24,1.66A7.12,7.12,0,0,1,1069.72,1453.1Z" style="fill:#c1c1c1"/><path d="M1119.65,1383.14c.09.81.18,1.63.28,2.45-.72,9.27-1.74,18.53-2.1,27.81a151.21,151.21,0,0,0,4.9,44.91c-.32.47-.65.47-1,0-3.26-8.62-4.23-17.73-4.82-26.75a235.65,235.65,0,0,1,2-47.1A4.54,4.54,0,0,1,1119.65,1383.14Z" style="fill:#cecece"/><path d="M1121.76,1458.31h1c2.92,6.25,2.78,6.59-3.88,9.09C1121.73,1465,1124,1462.38,1121.76,1458.31Z" style="fill:#d1d1d1"/><path d="M1177.74,1371.43l-5.69-8.21c-2.67-7.08-3.93-14.25-2.41-21.85,1.66-8.37,7.36-14.41,12.25-20.67,3.87-5,11.29-2.16,13.56,4.38,1.18,3.42,1.06,7.23,3.09,10.4,3.28,8.81,3.34,17.89,1.94,27-.89,5.83-2.18,11.66-8.66,14.06C1185.76,1378.79,1181.81,1374.86,1177.74,1371.43Z" style="fill:#fefefe"/><path d="M1063,1490.37a4.82,4.82,0,0,1,.75-.1c-.13,1.71.67,3.6-1,5Z" style="fill:#d6d6d6"/><path d="M1063.88,1488.37c.1-1.73-.61-3.6.92-5.07C1064.68,1485,1065.29,1486.88,1063.88,1488.37Z" style="fill:#d6d6d6"/></svg>