<svg id="Layer_4" data-name="Layer 4" xmlns="http://www.w3.org/2000/svg" viewBox="0 0 3000 3000"><title>eyes</title><path d="M1032.31,1438.23c-13.4-21.49-18.93-45.35-20.62-70.21-.44-6.46-1.6-12.08-6.22-16.74-.77-.79-1.64-1.73-1.19-3.27,2.56-.81,3.12,2.59,6.14,2.69-3.27-28.23-11.4-54.55-27.18-78.56,6.19,1.31,11.67.24,17.1.52,26.21,1.33,52.62.8,78.61,3.9,62.82,7.51,116.77,33.52,158.69,81.92,15.13,17.46,26.52,37.12,31,60.19,2.6,13.56,2.33,14.39-11.08,16.43-16,2.42-32.13,3.37-48.06,6.18-25.55,4.5-50.5,10.84-73.39,23.58-6.43,3.57-12.63,7.53-17.89,12.68-8.22,8-19.32,11.68-28.17,18.82-2.34,1.89-5.68-1.1-8.26-2.52-7.13-3.94-11.76-10.71-17.56-16.13-15.5-14.52-31.67-28.15-49.3-40a18.3,18.3,0,0,1-4.75-4.25c5-.51,12.39,2,20.13,6.77.84.88,2.23.36,3.07,1.24.33.35.76.61.84.8C1033.36,1441.23,1033.17,1439.58,1032.31,1438.23Z"/><path d="M1728.09,1450.24a33.28,33.28,0,0,1,19.5-6.69c1.1,0,2.62-.46,3,1a3.68,3.68,0,0,1-.89,2.7,17.39,17.39,0,0,1-3.9,3.81c-19.24,12.05-34.87,28.24-50.67,44.22-4.5,4.55-9.29,8.44-15.63,10.31-3.49,1-6.17.4-8.64-2-2.88-2.76-5.69-5.6-8.56-8.38-1.68-1.62-3.35-3.64-5.62-4-6.26-1.06-10-5.54-14.07-9.62-13-13-29-21.13-46-27.31-27.31-9.89-55.76-14.18-84.51-16.82-5.5-.51-10.84-1.78-16.26-2.52-4.76-.66-5.91-3-5.54-7.42,1.3-15.25,6.43-29.27,14-42.33,20.2-34.85,49.41-60.27,84.72-78.93,40.89-21.6,84.25-32.42,130.77-30.17,8.43.41,17-2.32,25.69-2,1.49.07,3,.09,4.48.13,7.29-.86,14.6-.13,21.89-.38,2.77-.1,3.17,1.1,2,3.36-2.09,4.16-3.77,8.58-6.33,12.44-9.31,14-12.62,30.07-15.88,46.13-1,4.82-2.61,9.61-2.09,14.63.94,9.21-2.19,18-2.59,27.09a150,150,0,0,1-4.43,27.93,193.73,193.73,0,0,1-8.39,26.57c-2,5-4.62,9.58-6.93,14.35-.75,1.52-1.7,3-1.66,4.8A3.29,3.29,0,0,0,1728.09,1450.24Z"/><path d="M1264.1,1345.42c-2.47-1.35-3.46-4-5-6.05-12.77-17.33-28.45-31.61-45.82-44.17-30.27-21.9-61.88-41.57-95.62-57.7-6.3-3-8.31-6-6.68-9.89s6-5,12.24-3.09a116,116,0,0,1,17.43,7.45,406.68,406.68,0,0,1,89.74,61.88c2.72,2.45,5.32,5,7.88,7.65,11.82,12.08,22.09,25.18,27,41.72C1265.78,1344.43,1266,1345.49,1264.1,1345.42Z" style="fill:#23232b"/><path d="M1470,1351.08a134.28,134.28,0,0,1,16.23-20c37.14-38.63,79.31-70.93,125.07-98.65a75.54,75.54,0,0,1,17.57-8.29c2.92-.86,6.23-1.6,8,1.69s-.74,5.67-3.16,7.47c-3.87,2.88-7.89,5.55-11.93,8.2-39.12,25.65-77.87,51.82-114.13,81.46-8.5,7-16.64,14.34-24.87,21.62a95.93,95.93,0,0,1-11.88,8.66C1469.09,1353.19,1469.71,1352.06,1470,1351.08Z" style="fill:#23232b"/><path d="M1726.27,1447.31a181,181,0,0,0,15.68-42.86,267.62,267.62,0,0,0,5-34.83c.35-3.95,0-7.85,2.07-11.59,1.48-2.72-1-5.56-.38-8.79,3-16.62,5.17-33.41,12.29-48.92,3.46-7.52,7.7-14.68,11.69-22,1.59-2.89,1.33-3.82-2.34-3.9-6.79-.15-13.6.77-20.39-.2,6-.3,11.92-.62,17.88-.91a5.26,5.26,0,0,1,2,.22c2.21.8,5-2.65,6.23-.18,1.06,2.07-1.64,4.42-2.67,6.64-4.26,9.2-10.59,17.41-13.67,27.13a245,245,0,0,0-10,44.54c2.61.44,2.77-2.06,4.3-2.55,1.64-.32,3.2-.56,2,2-6.24,6.35-7.13,14.28-7.69,22.75-1.6,24-7.33,47.12-18.15,68.79-.81,1.62-1.81,3.14-2.72,4.7A.64.64,0,0,1,1726.27,1447.31Z" style="fill:#323232"/><path d="M1032.31,1438.23c2.29,1.53,3.22,3.92,4.86,7.36-3.14-2-5.25-3.36-6.9-5.36C1032,1440.61,1032.51,1439.8,1032.31,1438.23Z" style="fill:#5a5a5a"/><path d="M1726.27,1447.31l1.11.07c.35.92-1.66,2.44.71,2.86-.8,1.91-2.28,3-4.7,3.91C1723.66,1451.29,1725.23,1449.4,1726.27,1447.31Z" style="fill:#424242"/><path d="M1470,1351.08l.94,2.14c-.72,1.87-2.49,2.21-5.16,3.63C1467.52,1354.13,1468.3,1352.31,1470,1351.08Z" style="fill:#4c4b52"/><path d="M1264.1,1345.42l1.2-2.2c1.24,1.38,1.4,3.08,1.63,4.92A5.21,5.21,0,0,1,1264.1,1345.42Z" style="fill:#6c6c72"/><path d="M1755.94,1351.14c0-1.34-1-1.61-2-2,.71-.94,1.64-1.2,2.47-.33S1757.14,1350.6,1755.94,1351.14Z" style="fill:#8f8f8f"/><path d="M1074.35,1477.17c-8.83-7.93-15.42-17.56-21.17-27.83a179.33,179.33,0,0,1-21.66-66.34c-1.57-12.78-3.26-25.69-1.78-38.69a53.94,53.94,0,0,1,4.35-14.72,6.1,6.1,0,0,1,5.36-3.82,149.25,149.25,0,0,1,15-.39c2.86,0,4.15,1.3,2.94,4.08-9.25,21.17-3,40.63,7.81,58.77,17.46,29.23,44.27,45.47,77.25,52.2,1.5.31,3.79,0,3.84,2.33,0,2.09-2.16,2.32-3.61,2.86a130.83,130.83,0,0,0-48.61,31.24c-2.11,2.13-3.22,5.64-6,6.46s-5-2.68-7.86-3.38A15.15,15.15,0,0,1,1074.35,1477.17Z" style="fill:#f2f2f2"/><path d="M1152.2,1412.72c20.32-.33,36-3.84,49.82-13.75a40.82,40.82,0,0,0,14-16.58c1.71-3.89,3.61-3.74,6.29-1.26.49.45,1,.83,1.53,1.28,2.11,1.87,5.29,3.4,6.05,5.72,1,3.15-4,2.28-5,4.8-.42,1-1.63,1.7-2.16,2.7-9.68,18.31-26.26,26.08-45.56,28.33-39.1,4.58-71.84-8.26-97.11-38.57-11.69-14-17.1-30.3-13.28-48.83a12.49,12.49,0,0,0,.2-4c-.75-6.13.43-7.69,6.42-7.17,7.13.61,14.23,1.54,21.31,2.5,1.5.21,3.84-.42,4.3,1.62s-1.53,3.2-2.88,4.36c-8.6,7.48-11.73,17.09-11,28.17a36.92,36.92,0,0,0,6.18,17.73C1106.41,1403.28,1128.85,1412.47,1152.2,1412.72Z" style="fill:#00adeb"/><path d="M1198.3,1364.24c4.26,4.43,1.3,8.9-.58,12.75-5,10.14-14,15.93-24.28,19.26-19.58,6.33-38.7,4.52-55.55-7.49-8.86-6.31-18.15-13.6-20.06-25.57-1.64-10.3-1.45-20.53,6.1-29.15,3.88-4.43,8.33-4.71,13.39-2.76-6.27,3.86-8,8.24-6.18,15.76a81,81,0,0,0,4.82,14.46c6,9.37,14.87,14.87,24.81,19,9.08,3.15,18.26,3,27.5.85,8.62-2,15.6-6.4,20.44-13.93,1.38-2.13,2.74-4.29,5.85-3.63C1195.79,1364.13,1197,1364.88,1198.3,1364.24Z" style="fill:#272727"/><path d="M1195.28,1365.26c-2.27-1.38-3.77-.3-4.84,1.67-6.89,12.71-18.86,16.15-32,17.31a33.88,33.88,0,0,1-18.26-3,7,7,0,0,0-3.49-2.67,53.81,53.81,0,0,1-18.69-14.55c-.73-.88-1.43-1.88-2.81-1.76-3.56-6.94-6.24-14.14-6-22.08.2-5.73,3-8.73,8-9,1.29.24,2.85-.42,3.74,1.14,2,11.53,4.88,22.57,15.27,29.84,1.48,1,2.66,2.51,4.44,3.14a45.3,45.3,0,0,0,11.28,5.09c7.45,1.29,14.72-.34,22-1.42,3.7-2.18,7.57-4.1,10.6-7.28,1.66-1.75,3.59-2.29,5.8-1,1.15.69,2.27,1.47,3.67.66,1.17.37,2.38.68,3,1.88C1196.85,1364.29,1196,1364.73,1195.28,1365.26Z" style="fill:#333"/><path d="M1175.45,1369.57c-4.6,3.36-10.14,1.51-15.17,2.58-2.82.6-6.21,1.15-9.06-.82,1.63-1.83,3.78-.91,5.63-1-5.15-.77-10.32-1.79-15-4.49-1-.57-1.38-.36-1.73.55-7.62-5.13-14-11.37-17.7-19.95a11,11,0,0,1-.74-4.8c.32-5.52.4-5.52-4.08-8.19.83-1.53,2.27-.85,3.43-1,1.55,1.4,3.5.91,5.23.86a19.17,19.17,0,0,1,14.06,5c.35,10.74,7.42,16.35,15.9,20.92,2.63,1.42,5.73,1.67,8.21,3.41,2.72,3,4.58,7.47,10,6.14A1.56,1.56,0,0,1,1175.45,1369.57Z" style="fill:#4e4e4e"/><path d="M1074.35,1477.17c2.33.84,5.13,1.13,6.89,2.64,5,4.28,7.68,1.88,11.3-2.17,13.58-15.21,30.64-25.37,49.58-32.56,1.34-.51,3-.7,3.78-2.81-3.36-.85-6.63-1.71-9.92-2.51-23.43-5.71-43.68-17-59.77-35.06-14.21-16-23.44-34.26-24-56.12-.16-6.4.81-12.63,4-18.32,1.76-3.17.65-4.19-2.63-4.06a73.92,73.92,0,0,1-10,.1c-5.81-.55-9,1.9-10.51,7.43-1.35,5-2.82,9.88-2.8,15.14a245.82,245.82,0,0,0,5.44,52.94,172.25,172.25,0,0,0,15.11,41.63c1,1.87,2.58,3.54,2.35,5.9-5.67-7.5-9-16.21-12.26-24.86-9.13-24-12.36-48.91-12.39-74.39,0-7.3,2-14.1,4.91-20.72,1.3-2.93,3.16-4.4,6.45-4.44,5-.06,10-.37,14.95-.68,3.5-.23,4.73,1.32,3.5,4.49-11.38,29.32.63,53.07,18.91,74.51s42.64,33,70.44,37.17c1,.14,2,.3,2.94.53a21.76,21.76,0,0,1,2.16.76c-1.94,2.22-4.49,2.59-6.74,3.41-22.29,8.16-41.94,20.13-56.81,39.06-.59.76-1.56,2.19-2.21,1.29C1083.82,1481,1077.71,1481.21,1074.35,1477.17Z" style="fill:#aaa"/><path d="M1217.91,1428.51c10-6.81,18.25-14.44,23.53-24.77,1.19-2.34,2.55-1.63,3.77-.09,2.16,2.73,4.37,5.44,6.31,8.33a55.54,55.54,0,0,1,5.26,9c1.19,2.82,5.6,5.12,3.7,8-1.36,2-5.54-.11-8.47-.29-9.15-.55-18.27,0-27.4.46C1222.69,1429.21,1220.72,1429.76,1217.91,1428.51Z" style="fill:#eee"/><path d="M1164.18,1363.32c-8.84-2.6-16.85-6.4-22.07-14.57-1.63-2.56-2.22-5.46-3.3-8.2-.63-1.61.24-2.07,1.54-2.31a2.38,2.38,0,0,1,.88.17c2.61,1.16,5.48-.28,8.09.85l30.85,15.2c1.47,4.27.21,7.87-2.71,11.06-1.94-1.41-1.41-3.56-1.57-5.48-.14-1.67-.27-3.32-1.36-4.7-1.31-1.66-3-2.75-5.16-2.33s-3.23,2.09-3.65,4.22S1166,1361.63,1164.18,1363.32Z" style="fill:#696969"/><path d="M1177.24,1365.32a52.53,52.53,0,0,0,2.93-10.86c3.23-.52,5.51,1,7.81,3.12,1.77,1.6,4.08,2.61,6.16,3.88-.68,3-2.29,1.74-3.58.66-2.17-1.8-3.79-1.28-5.41.74-2.55,3.19-6.32,4.69-9.7,6.71l-.38-.43A3.16,3.16,0,0,1,1177.24,1365.32Z" style="fill:#4e4e4e"/><path d="M1046.51,1459l-7.88-6.79C1043.61,1453.2,1045.51,1455.6,1046.51,1459Z" style="fill:#595959"/><path d="M1003.18,1277.59a1.77,1.77,0,0,1-1.61,1.46,1.56,1.56,0,0,1-1.82-1.68c0-1,1-1.08,1.78-1.07S1003.11,1276.53,1003.18,1277.59Z" style="fill:#555"/><path d="M1195.28,1365.26c0-1.28.64-1.87,1.88-1.91l1.14.89C1198,1366.76,1196.66,1366,1195.28,1365.26Z" style="fill:#4e4e4e"/><path d="M1149.32,1339.26c-2.69-.29-5.55.94-8.09-.85C1144,1338.5,1146.81,1337.2,1149.32,1339.26Z" style="fill:#4e4e4e"/><path d="M1701.93,1466.16l-9,12.84c-3.32,5-7.38,9-13.55,10.13a4.55,4.55,0,0,0-2.73,1.15c-3.47,4.27-5.18,1.49-7.29-1.51a107.76,107.76,0,0,0-44.73-37c-4.09-1.84-8.14-3.79-12.31-5.44-1.31-.52-3.39-.55-3.17-2.52s2.32-1.73,3.65-1.88a106.76,106.76,0,0,0,31.58-8.78c31.2-14.09,52.5-36.94,60.25-70.87,2.38-10.43,2.18-21.08-2.81-31.13-1.84-3.71-.51-5.64,3.73-5.73a90.93,90.93,0,0,1,14.92.68,7,7,0,0,1,5.93,4.48,54.32,54.32,0,0,1,5.09,26.15c-.53,12.72-1.11,25.42-3.38,38a224.39,224.39,0,0,1-13.88,47.65A141,141,0,0,1,1701.93,1466.16Z" style="fill:#f2f2f2"/><path d="M1597,1426.37a92.11,92.11,0,0,1-29.45-4.71c-12.93-4.42-23.33-11.92-29.93-24.16-1.36-2.52-3.09-4.84-5.88-5.9-3.17-1.21-2.25-2.59-.4-4.17.38-.32.73-.67,1.1-1,8.1-7.39,7.94-7.28,14,1.61,9.35,13.81,23.26,20.58,39,23.86,23.25,4.83,45.46,2.45,65.44-11.41a59.43,59.43,0,0,0,21-25.5c6.28-14.48,3.22-29.24-8.31-40.09-1.3-1.22-3.33-2.42-2.67-4.4.6-1.81,2.9-1.28,4.45-1.47,7.43-1,14.86-1.91,22.32-2.53,4.41-.37,6.19,2,5.59,6.42a15.42,15.42,0,0,0-.11,4.93c4,20.51-2.93,37.76-16.11,52.91A104.87,104.87,0,0,1,1597,1426.37Z" style="fill:#00adeb"/><path d="M1643.05,1332.29c6.9-2.35,11.75-.75,15.16,5.35,9,16.09,5.35,34.43-9.25,46.94-8.43,7.22-17.53,12.36-28.24,15-19.93,4.85-46-1.61-57.57-19.75-2.84-4.43-4.49-9.19-2-14.42,1.94,1.23,3.06-1.42,4.83-1a4.84,4.84,0,0,1,4.39,2.79c7.17,12.62,19.14,15.94,32.41,16.83a45.68,45.68,0,0,0,15.2-2c10.16-3.85,19.38-9,25.41-18.5,3.38-5.86,4.8-12.38,6.07-18.87C1650.57,1339.12,1647.67,1335.12,1643.05,1332.29Z" style="fill:#272727"/><path d="M1643.05,1332.29a9.13,9.13,0,0,1,7.92,10.3c-.83,7.6-2.47,15.15-6.83,21.73a1.85,1.85,0,0,0-1.82.53c-5.66,7.26-13.12,12.17-21.24,16.2a3.28,3.28,0,0,0-1.89,2.16c-12.41,3.42-24.57,3-36.32-2.57-5.66-2.69-10.45-6.44-13.18-12.28-.94-2-2.13-3.35-4.54-3,4.32-5.49,8-5.6,11.71-.39a15.84,15.84,0,0,1,2,4,18.66,18.66,0,0,0,1.36,3.38c3.63,4,5.23,4.4,9.17,1.31a9.15,9.15,0,0,1,7.41-1.89,31.37,31.37,0,0,0,11.9-.28,45.48,45.48,0,0,0,12.09-5.89,48.19,48.19,0,0,0,14-15.32c1.11-1.86,2.5-4,2-6-1.13-4.46.48-7.81,3.3-10.93C1640.8,1332.21,1642,1332.35,1643.05,1332.29Z" style="fill:#333"/><path d="M1609.15,1372.37c-3.92,2-8.17,1.2-12.12.71-3.1-.39-5.08-.13-7.42,2.06-3.94,3.68-8,2.39-10.49-2.81,9.11,1.78,9.21,1.83,13.77-7.71,1.65-3.46,4.78-3.64,7.75-4.42,7.35-1.39,12.1-6.07,15.69-12.28,1-1.71,1.87-3.46,2.74-5.22a8.54,8.54,0,0,0,.91-3.51c5.5-6,13.28-4.24,20-5.93.79.18,2,.12,2.28.59.88,1.53-.75,1.38-1.49,1.66-2.9,1.09-3.92,2.56-3,6,1.38,5-1.48,9.2-4.45,13-3.51,4.51-6.84,9.22-12.21,11.81-2.28-.81-3.6,1.2-5.34,1.89-4.46,1.77-8.95,3.16-13.59,3.07C1604.38,1371.83,1607.06,1370.19,1609.15,1372.37Z" style="fill:#4e4e4e"/><path d="M1701.93,1466.16c5.28-10.71,10.94-21.22,15.09-32.48,9.85-26.74,13.58-54.45,13.64-82.79,0-7-2-13.43-4.63-19.78-1.16-2.76-2.84-4.28-6-4.34-4.82-.09-9.65-.33-14.46-.65-3.74-.25-4.54,1.5-3.15,4.52,7.46,16.11,4.71,32-1.8,47.38-14,33-39.56,52.65-73.66,61.89-5.59,1.51-11.36,2.4-17.43,3.66,1.92,2.32,4.6,2.69,6.89,3.61,19.52,7.81,36.44,19.17,49.85,35.57,2.45,3,4.14,9.3,7.06,8.54,3.37-.88,7-3.06,10.71-4.49s5.53-5.63,8.89-7.8c-2,5.33-6,8.52-11.17,10.25-2.7.9-5.33,1.48-7,4.28-1.48,2.56-2.82,1.34-3.93-.63-6.17-10.9-15.2-19.22-24.66-27.12-10.6-8.86-23.17-14.15-35.82-19.25-2.29-.92-4.68-1.58-6.81-3.47,1.3-1.72,3.07-1.66,4.84-1.82,32.86-3,59.58-17.3,79.49-43.77,10.78-14.32,16.71-30.43,17.09-48.46.11-4.88-1.08-9.57-2.43-14.15-.66-2.22-1.07-5.46-5-4.91-.84.12-1.55-1.18-1.35-2.31s1.3-.62,1.83-.93c7.42-4.39,15.21-1.9,22.91-1.49a5.92,5.92,0,0,1,5.42,3.64,49.93,49.93,0,0,1,5.78,21.44,215.79,215.79,0,0,1-24,106.61C1706.53,1460.22,1705.22,1463.89,1701.93,1466.16Z" style="fill:#252626"/><path d="M1541.43,1429.45H1516.3a93.07,93.07,0,0,0-14.91,1.06c-.9.15-2.09.86-2.63-.31a2.9,2.9,0,0,1,.48-2.33c5.23-7.47,8.8-16.05,15-22.86,1.5-1.63,2.75-3,4.34,0,5,9.7,12.56,17.07,21.48,23.17A11,11,0,0,1,1541.43,1429.45Z" style="fill:#ededed"/><path d="M1620,1339.19c1.33,1,1.5,2,.24,3.2-2.94.45-2.29,3.37-3.27,5.07-4.34,7.55-10.6,12.14-19.15,13.67a5,5,0,0,1-5.12-2c-3.35-4-5.52-4.32-10.2-2.24-1.44.64-2.63,2.07-4.48,1.5-1.17-1.78.57-2.83,1-4.2.28-2.53,2.18-3.58,4.19-4.46,8-3.52,16.19-6.83,24.12-10.59C1611.73,1337.07,1615.78,1339.37,1620,1339.19Z" style="fill:#696969"/><path d="M1579,1354.2c-.27,1.43-.53,2.87-.8,4.3a10,10,0,0,1-.12,10.81c-1.8-2.45-3.14-5.88-5.56-7-2.2-1.06-4.72,2.31-7.41,3-3.49,2.56-3.49,2.56-4,.06Z" style="fill:#4b4b4b"/><path d="M1717,1464.08c4.7-1.9,7.28-6.9,13.24-9-3.66,4.58-7.6,7.16-11.08,10.22C1718.56,1464.62,1717.34,1465.13,1717,1464.08Z" style="fill:#3c3c3c"/><path d="M1717,1464.08c.9.07,1.84.07,2.16,1.19-1.85,1.45-3.19,3.54-6.13,4.71A16.56,16.56,0,0,1,1717,1464.08Z" style="fill:#787878"/><path d="M1758.26,1280.17a1.78,1.78,0,0,1-1.75-1.5c-.13-1.05.76-1.32,1.64-1.35s1.77.17,1.71,1.25A1.71,1.71,0,0,1,1758.26,1280.17Z" style="fill:#5a5a5a"/><path d="M1115.24,1362.31c.23-1.38,1-2.56,2.14-1,5.71,7.94,13.43,13.26,22,17.58.9.45,2.44,1,.85,2.44C1129.89,1377.61,1121.09,1371.9,1115.24,1362.31Z" style="fill:#4e4e4e"/><path d="M1140.15,1366.36l-1.77-2.89c6.89,3.94,14.71,4.75,22.09,7-3.1,1.34-6.21.64-9.25.83A29.72,29.72,0,0,1,1140.15,1366.36Z" style="fill:#8a8a8a"/><path d="M1177.24,1365.32l-2.17,3.82c-5.8,1.92-7.42,1-10.89-5.82-.08-1.49-.23-3-.23-4.47,0-4.91,2.1-7.59,5.88-7.66a7.65,7.65,0,0,1,7.56,7.17A64.79,64.79,0,0,1,1177.24,1365.32Z" style="fill:#fafafa"/><path d="M1619.19,1383.21c-1-1.55-.27-2.32,1.15-3,8.15-4.16,15.84-8.9,21.26-16.58,1.13-1.59,2.2-1.28,2.54.73-4.07,7.55-11,11.77-18.23,15.6C1623.7,1381.08,1621.43,1382.12,1619.19,1383.21Z" style="fill:#4e4e4e"/><path d="M1578.12,1369.31c-.2-3.61-.71-7.22.12-10.81,6.24-6.13,10.9-6,15.58.63,1.28,1.83,2.71,1.45,4.32,1.27,1.23-.51,2.63-1.58,2.95.89-4.52.38-7,2.37-8.42,7.16-2.36,8-7.21,9.12-13.55,3.88C1577.92,1371.61,1578.48,1370.31,1578.12,1369.31Z" style="fill:#f9f9f9"/><path d="M1609.15,1372.37H1599c.67-1.79,2-1.86,3.15-2,6-.65,11.68-2.06,16.86-5.26,1.16-.72,3.13-2.14,2.2,1.23A27.81,27.81,0,0,1,1609.15,1372.37Z" style="fill:#8a8a8a"/><path d="M1601.09,1361.29c-.73-1.12-2-.48-2.95-.89,2.77-2.12,6.58-1.72,9.34-4,4.56-3.78,8.81-7.62,9.89-14,.34-2,1.83-3,2.84,0C1616.58,1351.46,1611.58,1359.15,1601.09,1361.29Z" style="fill:#8b8b8b"/></svg>