<svg id="Layer_1" data-name="Layer 1" xmlns="http://www.w3.org/2000/svg" viewBox="0 0 3000 3000">
  <title>EYES</title>
  <g>
    <g>
      <path d="M1605.131,1328.71036c-28.50478-3.88828-39.28756-20.3825-40.7483-48.76855-1.91686-37.25234-6.00406-74.29011,5.51739-110.59381,15.48074-48.77866,55.446-62.06209,94.99-29.50683,55.66585,45.82777,79.64332,110.8144,100.59489,176.77483,14.82533,46.67405,22.85258,94.76841,26.60524,143.56473a24.0242,24.0242,0,0,1-.66759,5.02812,41.16451,41.16451,0,0,1-4.19116-2.90087c-33.21287-29.44258-65.68134-59.78076-99.90117-88.00642-16.27168-13.42122-35.87206-22.827-53.96442-34.05179-2.011-1.64151-6.81879-1.43888-5.98247-4.39454.79477-2.80877,4.95436-1.22655,7.6234-.871,8.08745,1.07747,15.28116,4.6748,22.46254,8.25719,3.598,1.79488,7.19224,3.47847,11.37136,3.50392,7.36406.0449,10.3879-3.08017,9.55789-10.31864-.75189-6.5572-1.85431-13.065-3.11812-19.546a207.7667,207.7667,0,0,1-3.5572-29.14339c-.50239-9.77595-4.61587-12.33957-13.86786-8.31146-7.70431,3.35427-15.01741,7.57626-23.27287,9.66637a54.5904,54.5904,0,0,1-26.1685.46689c-8.37117-1.94045-11.80781,1.43957-9.97392,9.98157a196.07492,196.07492,0,0,0,6.4198,21.86511C1605.65742,1323.75157,1607.305,1326.1994,1605.131,1328.71036Z"/>
      <path d="M1605.131,1328.71033c-.55716-1.70292-1.12885-3.4013-1.66956-5.1095-6.08175-19.21545-20.68768-43.2834,20.65023-34.96175,4.3317.872,9.33144-1.77968,14.057-2.58831,11.26857-1.92814,26.97986-18.57785,31.534-7.68961,8.37733,20.02834,8.40538,44.0344,9.04419,66.464.18386,6.45675-10.91568,4.84483-17.16161,2.61149-8.82773-3.15645-17.39451-7.03291-26.16659-10.355-2.174-.82328-4.70926-.69737-7.07843-1.00781C1630.01978,1337.46769,1614.54257,1332.55683,1605.131,1328.71033Z" style="fill: #007373"/>
      <path d="M1560.69842,1124.3523c-10.26351,19.26252-20.45448,38.56431-30.9039,57.726-1.02914,1.88721-3.64106,2.91552-5.51842,4.3425.044-2.342-.7723-5.1882.26448-6.94872,11.37445-19.31641,23.03776-38.4636,34.62279-57.6567C1561.301,1121.68213,1561.62388,1122.64142,1560.69842,1124.3523Z" style="fill: #0c0c0c"/>
      <path d="M1560.69842,1124.3523q-.76767-1.26843-1.535-2.53687,3.96942-4.00544,7.939-8.01087Q1563.90039,1119.0784,1560.69842,1124.3523Z" style="fill: #383838"/>
      <path d="M1762.66314,1409.35314c-.15449.99075-.26727,1.9458-.38005,2.90084a23.74039,23.74039,0,0,1-3.1701-2.27839c-15.138-15.08165-30.28316-30.15669-45.28237-45.375-1.49158-1.51322-3.26849-4.25446-2.85216-5.91047,10.64327-42.347,3.56675-83.757-6.20349-125.0595a21.71234,21.71234,0,0,1-.216-3.91964,10.6147,10.6147,0,0,1,1.95931,2.06928C1736.01546,1287.5782,1752.47247,1347.47231,1762.66314,1409.35314Z" style="fill: #fdfdfd"/>
      <path d="M1622.86807,1163.17512c7.92166-2.05818,15.36766,61.77132-13.68032,67.454C1593.11476,1233.77357,1602.47586,1168.47338,1622.86807,1163.17512Z" style="fill: #fefefe"/>
    </g>
    <g>
      <path d="M1139.27892,1347.26615c28.50478-3.88829,39.28756-20.3825,40.7483-48.76855,1.91686-37.25234,6.00406-74.29011-5.51739-110.59381-15.48074-48.77866-55.446-62.0621-94.99-29.50683-55.66585,45.82777-79.64332,110.81439-100.59489,176.77483-14.82533,46.674-22.85258,94.76841-26.60524,143.56473a24.0242,24.0242,0,0,0,.66759,5.02812,41.16562,41.16562,0,0,0,4.19116-2.90087c33.21287-29.44258,65.68134-59.78077,99.90116-88.00642,16.27169-13.42122,35.87207-22.827,53.96443-34.05179,2.011-1.64151,6.81879-1.43889,5.98247-4.39454-.79477-2.80877-4.95436-1.22656-7.6234-.871-8.08745,1.07747-15.28116,4.6748-22.46254,8.25719-3.598,1.79488-7.19224,3.47847-11.37136,3.50392-7.36406.04489-10.3879-3.08017-9.55789-10.31864.75189-6.5572,1.85431-13.065,3.11812-19.546a207.76638,207.76638,0,0,0,3.5572-29.14338c.50238-9.77595,4.61587-12.33957,13.86786-8.31147,7.70431,3.35428,15.01741,7.57626,23.27287,9.66638a54.59028,54.59028,0,0,0,26.1685.46688c8.37117-1.94044,11.80781,1.43958,9.97392,9.98158a196.07767,196.07767,0,0,1-6.4198,21.86511C1138.75245,1342.30735,1137.10492,1344.75519,1139.27892,1347.26615Z"/>
      <path d="M1139.27892,1347.26612c.55716-1.70292,1.12885-3.4013,1.66956-5.1095,6.08175-19.21546,20.68768-43.2834-20.65023-34.96175-4.3317.872-9.33144-1.77968-14.057-2.58831-11.26857-1.92814-26.97986-18.57785-31.534-7.68961-8.37734,20.02834-8.40538,44.0344-9.04419,66.464-.18386,6.45675,10.91568,4.84483,17.1616,2.61149,8.82774-3.15645,17.39452-7.03291,26.1666-10.355,2.174-.82328,4.70926-.69737,7.07843-1.00781C1114.39009,1356.02348,1129.8673,1351.11262,1139.27892,1347.26612Z" style="fill: #007373"/>
      <path d="M1183.71145,1142.90809c10.26351,19.26252,20.45448,38.56431,30.9039,57.726,1.02914,1.88722,3.64106,2.91553,5.51842,4.34251-.04406-2.342.7723-5.1882-.26448-6.94872-11.37445-19.31641-23.03776-38.4636-34.62279-57.6567C1183.10891,1140.23792,1182.786,1141.19721,1183.71145,1142.90809Z" style="fill: #0c0c0c"/>
      <path d="M1183.71145,1142.90809q.76767-1.26843,1.535-2.53687-3.96942-4.00544-7.939-8.01087Q1180.50949,1137.63419,1183.71145,1142.90809Z" style="fill: #383838"/>
      <path d="M981.74673,1427.90893c.15448.99075.26727,1.9458.38005,2.90084a23.74128,23.74128,0,0,0,3.1701-2.27839c15.138-15.08166,30.28316-30.15669,45.28237-45.375,1.49158-1.51322,3.26849-4.25446,2.85216-5.91047-10.64327-42.347-3.56675-83.757,6.20349-125.0595a21.71234,21.71234,0,0,0,.216-3.91964,10.6144,10.6144,0,0,0-1.95931,2.06928C1008.39441,1306.134,991.9374,1366.02809,981.74673,1427.90893Z" style="fill: #fdfdfd"/>
      <path d="M1121.5418,1181.73091c-7.92166-2.05818-15.36766,61.77132,13.68032,67.45405C1151.29511,1252.32936,1141.934,1187.02917,1121.5418,1181.73091Z" style="fill: #fefefe"/>
    </g>
    <path d="M1008.64525,1400.60823q-.62383.54591-1.24766,1.09175c-5.11046,3.61425-8.92268,8.5959-13.51637,12.75292-1.29039,1.16777-2.49957,3.5175-4.26944,2.70484-1.77985-.81731-.7869-3.18454-.60686-4.92888a476.31145,476.31145,0,0,1,16.77142-85.03014c10.70245-36.56906,24.55129-71.80357,44.62813-104.39379a274.62451,274.62451,0,0,1,23.68942-32.28522,6.00646,6.00646,0,0,1,1.27328-1.268c1.35993-.86393,2.19236-3.59417,4.27414-1.98542,1.50744,1.165.17277,2.92253-.432,4.37991a227.3119,227.3119,0,0,0-11.51491,36.53884c-6.51481,28.48911-10.8167,57.27716-9.72559,86.58468.51163,13.74367,1.87809,27.50363,6.91792,40.51363,1.59834,4.126.90175,6.46261-3.18523,8.62216-16.27748,8.601-31.18821,19.32345-45.939,30.26147C1013.1821,1396.08042,1011.19431,1398.65493,1008.64525,1400.60823Z" style="fill: #fefefe"/>
  </g>
</svg>
