<svg id="Layer_6" data-name="Layer 6" xmlns="http://www.w3.org/2000/svg" viewBox="0 0 3000 3000"><title>eyes</title><path d="M1662.63,1294.17c10,5.6,19.91,11.48,28.49,19.22,27.19,24.48,43.19,54.31,40.31,91.59-2.86,37.1-21.8,63.81-56.08,79.26-6.38,2.88-11.75,1.79-17.16-2.33-14.39-10.93-30.11-19.59-46.64-26.86-3-1.3-5.22-1.55-8.2.55-5.82,4.13-11,1.37-11.61-5.91a3.14,3.14,0,0,0-2.41-3.2c-17-5.89-34.33-10.8-52.56-11-3.78,0-7.69,0-11.08,2.23-7.06,3.06-10.08,1.9-13.63-4.79-6.73-12.71-11.87-26-13.38-40.34-2.86-27.16,3.84-51.67,21.06-73,19-23.6,44.43-35.2,74-38.43,22.81-2.5,44.61,1.76,65.38,11.42C1660.27,1293.06,1661.65,1293.21,1662.63,1294.17Z"/><path d="M1190.64,1448.72c-23.75,6.74-46.25,16.54-68,28-1.45.76-2.95,1.45-4.43,2.18a60.56,60.56,0,0,0-7.28,3.79l-1.71,1.21c-2.32.65-4.29-.88-6.48-1-21.56-6.65-37.74-20.31-48.79-39.54-17.67-30.77-17.46-62.48-2.36-94.17,11.63-24.39,30.23-42.26,53.7-55.28,1.59-.89,3.15-1.82,4.72-2.73,19.5-9.78,40.15-14.6,61.94-13.59,24.69,1.14,47.16,8.66,66.57,24.48,23.63,19.26,35,44.51,36.22,74.48.61,15.79-3.41,30.86-10.09,45.18-1.12,2.41-2.53,4.7-3.52,7.16-1.83,4.53-4.54,7.72-9.92,7.49-.65,0-.1-.38-.46,0-6.46,7.36-15.07,2.44-22.53,3.53-8.57,1.24-16.82,3.35-25.15,5.37C1198.87,1446.32,1194.84,1447.82,1190.64,1448.72Z"/><path d="M1110.89,1482.74a10.05,10.05,0,0,1,7.28-3.79A14.17,14.17,0,0,1,1110.89,1482.74Z" style="fill:#131313"/><path d="M1102.7,1482.9c2.31-.56,4.34.59,6.48,1C1106.69,1485.65,1104.79,1483.67,1102.7,1482.9Z" style="fill:#131313"/><path d="M1668.93,1314.84c44.29,25.82,65.09,82.25,40,126.28-9.91,17.39-24.83,29.23-41.78,39-1.45.84-2,.31-2.88-.54-13.58-12.89-29.87-21.61-46.42-29.84-3.84-1.91-3.62-2.76-.61-5.43,17.15-15.23,30.49-32.94,34.9-56.12a46.29,46.29,0,0,0,.19-16.39c-3.18-18.88-17.34-30.34-38-30.55a67.85,67.85,0,0,0-31.79,7.46c-26.57,13.53-46.23,33.33-55.69,62.2a46.66,46.66,0,0,0-2,9.09c-4.28-4.34-8.56-20.47-8.64-31.85-1.59-23.44,5.47-43.88,21.73-60.88,18.81-19.67,42.15-28.38,69.2-28.92C1629.52,1297.93,1649.73,1304.25,1668.93,1314.84Z" style="fill:#fefefe"/><path d="M1668.93,1314.84c-8-2.22-14.87-7-22.75-9.74-36.74-12.52-81.68-7-109.88,24.93-12,13.63-18.39,29.76-19.49,47.91-.2,3.31-.07,6.64-.09,10-.35.43-.7.45-1.06,0-2-22.07,4.81-41.41,18.95-58.07,15.93-18.76,36.79-28.79,61-31.57A113.87,113.87,0,0,1,1666.7,1313,16.14,16.14,0,0,1,1668.93,1314.84Z" style="fill:#cdcdcd"/><path d="M1515.66,1387.91h1.06c1.07,10.59,2.62,21.06,7.52,31.14,1.13-2.82.51-6,2.64-8.12l-1.23,9.9c-.47.76-.81,1.74-2,1.2C1519.19,1411.07,1515.55,1399.92,1515.66,1387.91Z" style="fill:#cdcdcd"/><path d="M1542.64,1427.66h-9.57l0-.43h9.4Z" style="fill:#080808"/><path d="M1523.61,1422l2-1.2c.18,1.16.82,2.68-.57,3.21C1524.24,1424.36,1523.79,1423,1523.61,1422Z" style="fill:#7e7e7e"/><path d="M1225.68,1362c-12.4-9-25.66-16-41.24-17.63a64,64,0,0,0-19.88.76c-20.1,4.18-33,20.1-32.88,40.63.08,22,17.64,47.87,38.07,56.13.71,2.61-2,1.92-2.88,2.93-17,7-33.58,14.86-48.74,25.41-3.48,2.42-7,4.85-9.24,8.64-1.47,1-2.24,0-3-1.06-4.12-3.93-9.44-6-14-9.33-25.3-18.21-40.07-42.34-38.8-74,1.47-36.56,19.9-63.58,50.6-82.69,12.66-6.66,25.57-12.65,39.88-14.85,23.55-3.62,46.44-1.93,67.79,9.57,25.11,13.53,40.6,34.2,44.78,62.69,1.43,9.75.38,19.51-1.33,29.17a3.22,3.22,0,0,1-2,2.89C1247.44,1385.67,1239,1372.12,1225.68,1362Z" style="fill:#fefefe"/><path d="M1225.68,1362c5.86,2.23,9.23,7.32,13,11.76,6.54,7.64,11,16.55,14.13,26.43,4-8.72,3.45-30.58.29-42.1-9.58-34.85-42.51-57.55-75.58-61.27A115.23,115.23,0,0,0,1108.7,1310c-1.56.84-3,2.21-5,1.82,11.91-8.43,25.42-13.09,39.58-15.46,30.41-5.09,58.79-.28,83.45,19.43a82.63,82.63,0,0,1,27.86,87.14,27.07,27.07,0,0,1-1.14,2.76c-1.72-1.9-1.6-4.21-2.26-6.23a78.45,78.45,0,0,0-22.07-33.94C1227.9,1364.44,1226.28,1363.72,1225.68,1362Z" style="fill:#cdcdcd"/><path d="M1172.89,1358.18h8.72v.44h-8.72Z" style="fill:#131313"/><path d="M1233.86,1424.89c2.32-.14,5.24.82,5.49-3.13,1.23,5.63-3,3.71-5.49,4.09-.33-.21-.45-.42-.33-.64S1233.75,1424.89,1233.86,1424.89Z" style="fill:#161616"/><path d="M1166.87,1444.85c.66-1.27,2.84-1,2.88-2.93,1.5-.14,2.59.31,1.18,1.75A4.15,4.15,0,0,1,1166.87,1444.85Z" style="fill:#393939"/><path d="M1233.86,1424.89q0,.48,0,1H1230l0-.79Z" style="fill:#0d0d0d"/><path d="M1105.88,1477.84l3,1.06c-.35.76-.84,1.56-1.74,1.31C1106.09,1479.9,1105.86,1478.87,1105.88,1477.84Z" style="fill:#131313"/></svg>