<svg id="Layer_5" data-name="Layer 5" xmlns="http://www.w3.org/2000/svg" viewBox="0 0 3000 3000"><title>orangeyes</title><path d="M1150.42,1116.48a1.74,1.74,0,0,0,.4-1.45c6-8.7,11.5-17.68,17.35-26.46a236.72,236.72,0,0,1,37.42-37.19c8.34-5.06,15.69-11.71,24.84-15.46,2.63-.85,5.41-1.35,7.63-3.18a21.58,21.58,0,0,1,2-1.25c2.5-1,4.64-3.33,7.75-2.28,1.94,2.38,5,.58,7.26,1.93,1.94,2.65-.5,3.55-1.92,4.86a13.39,13.39,0,0,1-2.25,1.1,43.43,43.43,0,0,0-6.82,2.71,18.9,18.9,0,0,1-2.22,1,12,12,0,0,0-5.85,4c-23.87,12.47-42.38,31-58.6,52-7.38,8.66-12.68,18.79-19.46,27.87-3.11,2.19-4,5.8-5.67,8.93a5.94,5.94,0,0,1-1.79,1.74,4.08,4.08,0,0,1-2.48-.37,4.82,4.82,0,0,1-2-5.65,24.68,24.68,0,0,0,2.6-9.55A7.58,7.58,0,0,1,1150.42,1116.48Z" style="fill:#414141"/><path d="M1627.32,1171.76c19-9.22,37.94-6.4,56.7.76,17.59,6.72,31.09,18,38.83,35.55,1,2.24,2.18,4.39,3.33,6.56a13.57,13.57,0,0,0,1.46,1.74c2.33-7.29-.4-13.27-3-19.27-12.18-28.74-35.23-45.35-63.11-56.59a34.8,34.8,0,0,1-3.2-1.67l.89-1.07c5.83-2.93,10.48,2.26,15.89,2.3,3.75.6,6.74,2.79,9.9,4.66,16.36,10.94,31.26,23.33,40.82,41,2.19,4,4.45,8,5.13,12.66,1.23,7.41,3.63,14.69,2.76,22.29-.3,2.62-1.14,5.61-4.07,6.6-3.54,1.2-4.55-1.89-5.91-4.16-7.87-21.38-20.85-38.06-42.82-46.44-16.24-6.55-32.85-6.56-49.68-3A6.07,6.07,0,0,1,1627.32,1171.76Z" style="fill:#dfdfdf"/><path d="M1220.55,1293.17c-8.73-4.45-11-13.57-14.12-21.42-16.92-42.41,15.78-90.87,60.4-96.71,27.86-3.64,51.08,3.43,70.91,22.83,2,1.91,4.18,3.68,4.45,6.72l-1.09.72c-6.68-1.67-9.59-8.57-15.57-11.22-20.93-15.53-43.7-19.63-68.49-11a11.45,11.45,0,0,1-2.27,1.13c-3,.86-6.28,1.19-8.62,3.7a11.15,11.15,0,0,1-2,1.46,17.75,17.75,0,0,1-3.46,1.28,42.19,42.19,0,0,0-20.5,18.94c-3.48,6.08-7,12.11-9.46,18.72-7.6,19-3.25,36.48,6.15,53.49C1218.87,1285.28,1223.18,1288.17,1220.55,1293.17Z" style="fill:#dfdfdf"/><path d="M1342.19,1204.59c9.07,8.85,14.73,19.19,14.54,32.25s-3.33,16.59-15.6,19.49c-21.32,5.05-41.52,12.93-60.09,24.79-5.87,3.74-12.12,6.87-18.2,10.28a3.06,3.06,0,0,1-1-2.22c1-4.51,5.82-6,7.78-9.83a17.8,17.8,0,0,1,8-4.59c11.35-3,20.86-10.11,31.61-14.48,11.66-4.28,23.62-7.61,35.53-11.07,8.52-3,5.24-10.38,5.94-16.27.49-6.63-1.27-12.45-6.23-17.1a12.69,12.69,0,0,1-3.88-6.91,4.64,4.64,0,0,1,1.16-3.78Z" style="fill:#dadada"/><path d="M1773,1096.12c22.12,36.31,33.1,75.21,27.59,118a2.06,2.06,0,0,1-2.87-.52c-3.29-7.85-1.17-16.09-1.71-24.15-.38-5.71.53-11.48-.71-17.14-2-7.9-4.73-15.6-6.73-23.51-4.12-17.58-13.37-33.3-18.34-50.57C1770.45,1096.65,1771.09,1095.56,1773,1096.12Z" style="fill:#959595"/><path d="M1522.35,1180.91c-6.77,3.68-10.94,1.4-13.14-5.65-6.25-20-4.44-40.43-2.12-60.61,1.38-11.94,4-24,9.89-34.91,1-1.44,1.81-3.12,4-1.82,1.49,2.61.22,5.18-.09,7.77a17.24,17.24,0,0,1-.65,2.64,16.37,16.37,0,0,1-1.08,2.51c-8.69,24.92-11.9,50.32-6.17,76.35.68,3.09.32,8.79,6.75,6.81,3.7-3.72,4.48-9.84,9.92-12.11a3.26,3.26,0,0,1,2.5.81C1532.58,1170.76,1528.63,1176.46,1522.35,1180.91Z" style="fill:#aeaeae"/><path d="M1411.4,1194.1c-11.09-10.2-14.73-24.92-22.49-37.14-3.06-4.81-5.56-10.07-11.18-14.18-.53,6.09,2.13,10.63,2.78,15.49.55,4,.45,8.21-3.7,10.49s-8.27,1.3-11.56-2.24c-5.51-5.93-12.42-9.77-19.57-13.28a1.45,1.45,0,0,1-.44-1.52c.17-.49.34-.74.5-.74,10-.94,15.76,6.58,22.75,11.59,2,1.14,3.9,3.27,6.3.93,1.91-1.86.57-3.87-.11-5.8a57.74,57.74,0,0,1-3.42-16.09c-.31-4.11.19-8.52,6.51-6.65a13.24,13.24,0,0,1,5.16,4.19,35.24,35.24,0,0,0,6,7.57c.89.82,1.74,1.68,2.56,2.56,3,3,4.34,6.85,5.58,10.76a24.41,24.41,0,0,0,3.54,7.49c2.48,4.15,3.67,9,6.87,12.77,1.84,4.06,6.69,6.72,5.67,12.11A2.78,2.78,0,0,1,1411.4,1194.1Z" style="fill:#cbcbcb"/><path d="M1589.07,1201.55c4-3.34,5.92-8.69,10.63-11.41,2.1-2.28,5.22-3.31,7.09-5.87,2.07-2,4.37-3.51,7.36-3.63a1.76,1.76,0,0,1,2.46.34c.49,2.06-.49,3.61-1.75,5.06-16.32,11.1-26.66,26.21-31.49,45.42-1.62,6.42-.57,9.7,6.25,10.91a136.76,136.76,0,0,1,15.12,3.46c2.56.76,7.16.66,5.23,5.85-11.35-.88-22.49-2.6-32.81-7.8-5.49-6.37.59-12.58.26-18.88a7.31,7.31,0,0,1,.33-1.61c1.38-3,1.94-6.35,3.64-9.24h0c1.2-2.47,1.52-5.37,3.68-7.35h0C1586.86,1205.4,1587,1202.71,1589.07,1201.55Z" style="fill:gray"/><path d="M1213.09,1190.1c-1.6,3.2-5,5.28-5.6,9.1-7.18,13.85-10.58,28.45-9.15,44.11.53,5.89-2.56,11.2-3.12,17-.54,5.57-4.77,6.08-10.6,2-.22-2.1,1.06-3.49,2.33-4.88,1.76-2,2.09-4.61,3-7,.48-1.23,1-2.41,1.55-3.63,1.49-7.3.47-14.65.59-22-1-11.81,5.47-21.14,10.25-31,2.2-2.92,3.77-6.39,7.17-8.26a4.3,4.3,0,0,1,4,.67A3.09,3.09,0,0,1,1213.09,1190.1Z" style="fill:#929292"/><path d="M1423.09,1107.28c5.69,17.82,8.52,36.12,6.93,54.72-.82,9.67,1.09,20.34-6.48,28.62a4,4,0,0,1-2-2.44c0-10.63,2.91-21,2.74-31.7-.21-13.44-1.27-26.69-4.26-39.77-.69-3-1.41-6,.25-8.86A2,2,0,0,1,1423.09,1107.28Z" style="fill:#bcbcbc"/><path d="M1220.55,1293.17c-7.21-12.59-14.45-25.07-15.77-40.11-.83-9.3.08-18,4.61-26.16,2.15,1.8,2.29,4.28,2.29,6.79-4.47,25,2,46.29,21.51,63.12,1.92,1.32,3.93,2.56,4.73,5a4.09,4.09,0,0,1-.52,2.71,1.92,1.92,0,0,1-2.55.1C1228.72,1302.49,1225.78,1296.4,1220.55,1293.17Z" style="fill:#a1a1a1"/><path d="M1185.18,1260.31c.69,2.93,2.57,4.12,5.44,3.39s3.7-2.87,4-5.51c1.08-8.18,2.29-16.28,2.11-24.63a54.37,54.37,0,0,1,10.72-34.36,11.16,11.16,0,0,1-1.5,7c-4.76,9.14-7.1,18.86-5.69,29.12,1.3,9.47-3.08,17.9-4.21,26.91-.34,2.69-2,5.13-5.48,5.18-5.07.07-8-2.32-8.81-7.33a2.12,2.12,0,0,1,1.74-1A2.37,2.37,0,0,1,1185.18,1260.31Z" style="fill:#dfdfdf"/><path d="M1616.26,1006.05c8.73-3.85,17.93-2.13,26.77-1.41,19.54,1.59,38,7.07,54.68,17.93,1.47,1,3.36,1.3,5.06,1.93,1.32,1,3.11,1.9,1.74,4.1-2.7,1.47-5,.08-7.43-.92-2.64-1.34-5.32-2.61-8-3.86a69.72,69.72,0,0,0-17.68-6.88,15.38,15.38,0,0,1-3.45-1.82c-4.1-3-9.11-2.91-13.77-4-3.75-1.17-7.75-.6-11.51-1.68-5.35-1.5-10.82-.56-16.23-.87C1622.89,1008.39,1619.1,1009.12,1616.26,1006.05Z" style="fill:#c6c6c6"/><path d="M1126.59,1230.63l-.18-8.7a80.1,80.1,0,0,1,0-23.14c-1.36-17.87,4.27-34.44,9.48-51.09.73-2.32,1.29-4.68,1.93-7,1.33-1.39,2.58-1,3.78.2,1.24,10.77-5,19.92-6.57,30.14-.72,4.76-2.23,9.48-3.09,14.29-1.78,6.62-.61,13.37-.9,20-.64,8.18,1.41,16.52-1.56,24.54A2,2,0,0,1,1126.59,1230.63Z" style="fill:#a4a4a4"/><path d="M1376.84,1041.12c10.25,7.66,18.57,17.11,25.8,27.59,1.76,2.64,4.06,5.11,2.67,8.71a3,3,0,0,1-2.36,1.09c-10.06-12.16-23-21.9-30.48-36.28C1373.51,1040.21,1374.87,1039.46,1376.84,1041.12Z" style="fill:#828282"/><path d="M1522.35,1180.91c4.06-5.6,9.26-10.62,9.3-18.26a3.16,3.16,0,0,1-1-3.37c1.92-3,4.14-5.87,5.13-9.4a102.22,102.22,0,0,0,6.92-12.45,14.91,14.91,0,0,1,1.32-2,25.4,25.4,0,0,0,4.59-7.09,6.45,6.45,0,0,1,1.8-1.88,11.36,11.36,0,0,1,3.84-1.27c7.78,1.3,8.34,4,2.89,13.61-3.87,1.58-1.14-5.93-5.35-3.9-6.4,4-8,11.13-11,17.32-3.68,7.63-7.27,15.32-11,22.91C1528.31,1178.17,1526.26,1180.81,1522.35,1180.91Z" style="fill:#ddd"/><path d="M1312.39,1145.38c-14-2.13-27.2,1.48-40.36,5.49-3.45,1.05-6.66,3.11-10.49,2.72a5.52,5.52,0,0,1-4.09.22c-1.42-3.21,1.37-4,3.08-5.51a26.1,26.1,0,0,1,5.3-2.4c13.05-3.85,26.49-5.62,39.9-7.59,5.24-.77,10.12,1.64,15.27,1.13a3.58,3.58,0,0,1,3.35,2.38,3.47,3.47,0,0,1-.73,2.69C1319.94,1145.68,1316.08,1144.41,1312.39,1145.38Z" style="fill:#afafaf"/><path d="M1671.44,1282.24l-11.32-7c-1.9-2.13-5.12-2-7-4.09h0c-2.06-2-4.94-2.37-7.35-3.69h0c-2.44-1.27-5.25-1.77-7.45-3.55h0c-2.83-1.82-6.21-2.27-9.19-3.71h0c-2.38-1.86-6.53-.33-7.92-4.11a2.48,2.48,0,0,1,1.17-2.35c5.83-1.88,10.86,1.14,15.77,3.16a199.86,199.86,0,0,1,37.71,20.58c2.83,2,6.84,3.56,5.32,8.43C1676.55,1288.3,1674.52,1283.86,1671.44,1282.24Z" style="fill:#989898"/><path d="M1752.41,1234.28c-1.29,6.45-6.63,10.75-8.9,16.76-.72,1.89-4,4.44-5.61,4.09-10.29-2.26-10.42,5.54-12.9,11.7-1.91,4.73-3.7,9.73-7.51,13.49a5.18,5.18,0,0,1-1.75-3.69c-.07-3.89,2-7,3.76-10.21,3.32-5.29,2.82-12,6.29-17.2,3.79-4.15,8.69,3.63,12.41-1.18,3.5-4.08,5.22-9.44,9.35-13.06C1749.08,1234.11,1750.62,1233.31,1752.41,1234.28Z" style="fill:#d9d9d9"/><path d="M1616.26,1006.05c9.32,1.06,18.85-1.67,28,1.56a6,6,0,0,1-4,2.47c-5.73.64-11.49.23-17.23.35-3.33.06-6.7-.33-9.93.92-9.44,3.1-19.6,3.91-28.47,8.87-2.8,1.6-5.5,3.42-8.8,3.91a5.64,5.64,0,0,1-4-1.11,2,2,0,0,1,0-2.57C1585.4,1011.78,1600.58,1008.14,1616.26,1006.05Z" style="fill:#989898"/><path d="M1752.41,1234.28l-3.68,1.84c-2.88-5.34,2.54-8.64,3.19-13.12a15.3,15.3,0,0,1,1.45-3.5,18.08,18.08,0,0,0,3.49-6.49c2.93-7.41,4.35-15.28,7.06-22.76,2.76-5.46,6-5.13,9.68-.87,2,3.16,3.82,6.35,4.3,10.15a4.41,4.41,0,0,1-1.63,3.67c-3.44-2.51-3.09-8-8.33-10.08C1765.74,1208.12,1759.56,1221.4,1752.41,1234.28Z" style="fill:#bebebe"/><path d="M1206,1052.56c-13.25,11.28-25,24-36.79,36.8-1.23-.28-1.4-1.47-2-2.29a169.6,169.6,0,0,1,38.43-37.15A1.81,1.81,0,0,1,1206,1052.56Z" style="fill:#bcbcbc"/><path d="M1773,1096.12l-2.12,1.43c-3.77,1.46-4.93-1.87-5.89-3.92-5.53-11.83-14.57-21-22.85-30.68-2.24-2.64-5.63-5-4.42-9.38a2.71,2.71,0,0,1,3.67.46c9.61,10.61,19.55,20.92,27.14,33.2C1770.24,1090.08,1772.31,1092.73,1773,1096.12Z" style="fill:#a2a2a2"/><path d="M1776.27,1203.2c0-1.28.07-2.56.11-3.84a2,2,0,0,1,2.35-.12c2.33,3.15,3.36,6.91,4.91,10.42a63.76,63.76,0,0,0,3.23,8,62.77,62.77,0,0,0,4,9.53c.79.86,1.47.71,2.07-.31.94-2.5,1.52-5.07,2.42-7.54.77-1.94,1.34-4,3.26-5.22l2,0a34.46,34.46,0,0,1-2.56,17c-1.11,2.62-2.81,4.89-6,4.88-2.89,0-4.27-2.27-5.16-4.58C1783.22,1222.05,1779.77,1212.61,1776.27,1203.2Z" style="fill:#9e9e9e"/><path d="M1658.38,1138.84c-7.92-.18-15.38-3-23.13-4.26-13.94-2.28-27-.48-40.08,3.84a19.76,19.76,0,0,1-4.52.4l-.39-1.56c4.1-6.12,11.06-5.71,17-7.07,15.8-3.61,31.3-1.16,46.54,3.48,2.23.68,4.73,1.56,5,4.61Z" style="fill:#dfdfdf"/><path d="M1248.24,1030.31c-3.53-1.7-4.88,2.43-7.62,2.85-1.86-2.64.21-3.68,2-4.85,13.43-5.83,27-11.21,42-11.41,2.72-1.24,5.58-.53,8.38-.62a1.85,1.85,0,0,1,1.73,1.87,3.23,3.23,0,0,1-1.72,2.1c-7.14,1.63-14.46,2.17-21.6,3.7a20.74,20.74,0,0,1-2.56.62,39.58,39.58,0,0,0-14.37,5C1252.4,1030.06,1250.5,1031.6,1248.24,1030.31Z" style="fill:#9a9a9a"/><path d="M1294.58,1017.43l-10-.53c16-4.47,31.73-1.46,47.38,1.7,3.93.8,8.48.83,11.69,4.08a10.57,10.57,0,0,1-5.78,3.15,8.86,8.86,0,0,1-6.43-1.21,33.17,33.17,0,0,0-18.89-2.76,8,8,0,0,1-2.62-.52C1305.34,1017.94,1299.06,1021.2,1294.58,1017.43Z" style="fill:#ababab"/><path d="M1551.82,1134.88c.77-.77,1.91-2.35,2.24-2.2,2.8,1.3.78,4,1.49,6a5.48,5.48,0,0,1,1.71,4.11c.08,3.21-1.6,7.43,2.58,8.86,3.56,1.22,6.07-2.11,8.65-4.21s5.2-4.34,8.86-4.41a3.79,3.79,0,0,1,2.22,1.22c-3.21,4.53-7.84,7.5-12.09,10.87-2.85,2.26-5.77,4.35-9.88,2.08s-5.55-5.61-6-10.32C1551.19,1142.77,1555.88,1138.87,1551.82,1134.88Z" style="fill:#e9e9e9"/><path d="M1242.6,1028.31l-2,4.85-1.76.65c-2.17,1.78-5,2.2-7.37,3.52-9.52,3.39-16.49,11-25.52,15.23l-.36-2.64C1216.69,1040.59,1228.85,1033.09,1242.6,1028.31Z" style="fill:#b2b2b2"/><path d="M1717.43,1276.49l.06,3.83c-3.41,4.26-6.74,8.6-10.27,12.78-8.28,9.8-12.1,9.84-21.26.39.28-.34.55-.67.82-1a5.71,5.71,0,0,1,3.76-.56c5,3,8.81,1.63,12.29-2.66a62.11,62.11,0,0,1,5.91-6.66C1711.82,1280.82,1712.63,1275.79,1717.43,1276.49Z" style="fill:#d6d6d6"/><path d="M1213.09,1190.1c0-1.29-.08-2.58-.13-3.87-.66-2.52,1.12-3.74,2.69-5.07a24,24,0,0,0,7.4-7.88c5.9-6.87,12.71-12.36,21.82-14.36a4.75,4.75,0,0,1,3.55,1.89C1234.61,1168.12,1224.68,1180.11,1213.09,1190.1Z" style="fill:#bbb"/><path d="M1404.87,1077.26q-1.11-4.27-2.23-8.55c9.42,11.48,17.47,23.68,20.45,38.57l-2.1,0C1414.22,1098,1408.43,1088.25,1404.87,1077.26Z" style="fill:silver"/><path d="M1621.86,1254.32l0,2a2.54,2.54,0,0,1-3.73.08c-13.21-4.79-27.68-4.92-40.56-11-.55-.52-.71-1-.47-1.45s.45-.64.65-.64a104.21,104.21,0,0,0,33.17,7.4C1615.72,1248.26,1619.54,1249,1621.86,1254.32Z" style="fill:#a7a7a7"/><path d="M1338.26,1023.49l5.38-.81a77.87,77.87,0,0,1,26,12.7c1.72,1.5,3.75,2.87,2.34,5.67-2.83,2.14-4.9.48-6.94-1.38a17.58,17.58,0,0,0-5.75-4.24,18,18,0,0,1-2-1.21,20.14,20.14,0,0,0-5.15-2.61,17.28,17.28,0,0,1-2.17-.93,32.11,32.11,0,0,0-6.66-2.61,14.84,14.84,0,0,1-2.35-.91C1339.7,1026.19,1337.54,1025.88,1338.26,1023.49Z" style="fill:#969696"/><path d="M1167.09,1230.64q-3.72-12.5-7.46-25c-.07-.24-.21-.63-.37-.65-1.34-.24-1.15.93-1.45,1.65-1,1.43-2,3.27-4.17,1.55-1.27-2.92.09-5.38,1.34-7.86,3.26-4.83,6.14-3.48,8.69.64,1.9,3.07,2.18,6.7,3.21,10.06a52,52,0,0,0,2.85,12.3,14.23,14.23,0,0,1,.68,2.48,6.27,6.27,0,0,1-1,5A1.74,1.74,0,0,1,1167.09,1230.64Z" style="fill:#c4c4c4"/><path d="M1520.61,1077.89l-3.63,1.85c5.43-11.29,11.64-22.09,20-31.5a4.23,4.23,0,0,1,1.52,3.51c-3.53,8.79-9.23,16.37-13.8,24.58a8.68,8.68,0,0,1-1.79,1.84A2,2,0,0,1,1520.61,1077.89Z" style="fill:#cdcdcd"/><path d="M1537.1,1052.06l-.09-3.82c6.69-7.51,12.57-15.91,22.14-20.28,1.13,1.67.42,3.25-.22,4.85-4,6.5-10.17,11-15.21,16.58C1541.74,1050.85,1540.18,1053.36,1537.1,1052.06Z" style="fill:#bbb"/><path d="M1167.18,1087.07c.66.77,1.33,1.53,2,2.29-5.87,8.73-9.46,19.1-18.36,25.67C1153.73,1104.22,1161.5,1096.26,1167.18,1087.07Z" style="fill:#b8b8b8"/><path d="M1167.09,1230.64l1.91,0a6,6,0,0,1,3.4,1.65c2.69,2.39,3.92,5.56,4.72,9,1.55,6.5,9.33,10.77,6.76,18.76l-2.08.11C1176.47,1250.49,1169.49,1241.7,1167.09,1230.64Z" style="fill:#d4d4d4"/><path d="M1704.51,1028.42l-1.74-3.92c9.82,4.38,18.72,10.09,26,18.06l-.83,1a5.68,5.68,0,0,1-3.86.54C1717.4,1039.15,1708.62,1036.7,1704.51,1028.42Z" style="fill:#d5d5d5"/><path d="M1126.59,1230.63h1.93c5.08,2.21,1.65,9.61,7.06,11.56,1.22-.71,2.06-1.88,3.2-2.67a3.51,3.51,0,0,1,2.11-.33l.89.65a62.45,62.45,0,0,1-2.3,6.8c-2.67,5.69-6.25,5.43-9.12.46A26.44,26.44,0,0,1,1126.59,1230.63Z" style="fill:#a8a8a8"/><path d="M1234.85,1304.57l2.27-.36c6.16-3.74,11.68-8.37,17.48-12.6,2.33-1.7,4.53-4.25,8-2.4.09.73.18,1.46.26,2.19-6.24,4.78-12.54,9.49-18.72,14.35C1240.52,1308.57,1237.51,1308.3,1234.85,1304.57Z" style="fill:#bababa"/><path d="M1312.39,1145.38c3.49-2.52,7.5-.63,11.21-1.29,8.71-2.34,17.61.49,22.19,7.05,0,.7-.07,1.4-.11,2.1C1335,1148.91,1324,1145.89,1312.39,1145.38Z" style="fill:#d4d4d4"/><path d="M1141.14,1140.3l-3.34.37c2.51-9,2.69-19.12,12.62-24.19l.12,3.72a9.92,9.92,0,0,0-1.65,2.92c-1,2-1.94,4-2.89,6.07a43.12,43.12,0,0,0-2.59,7.33,9,9,0,0,1-1.31,3.14Z" style="fill:#e5e5e5"/><path d="M1152.46,1217.77c-3.39,7.44-3.44,16.49-10.68,22.07l-.89,0c-.82-9.11,2.4-16.64,8.94-22.88A2.91,2.91,0,0,1,1152.46,1217.77Z" style="fill:#dedede"/><path d="M1616.26,1180.93l-2.11-.29c1.65-7,9.08-5.48,13.17-8.88l3.77.21a3.27,3.27,0,0,1,.32,3.83A21.86,21.86,0,0,1,1616.26,1180.93Z" style="fill:#b5b5b5"/><path d="M1557.5,1032.22l1.65-4.26c3.49-3.76,7.31-7,12.71-7.51l.21,2.14c-.31,2.32-1.9,3.72-3.59,5.05C1564.84,1029.21,1562.65,1034.29,1557.5,1032.22Z" style="fill:#b2b2b2"/><path d="M1671.44,1282.24c3.77-.54,5.58,4.39,9.51,3.41a2,2,0,0,1,2.15.08c1.74,2.06,3.73,4,3.45,7l-.59.71C1680.8,1290.15,1674.68,1288.06,1671.44,1282.24Z" style="fill:#d6d6d6"/><path d="M1248.42,1160.81l-4.52-.38c2.2-6.55,6.62-9,13.32-7.14l4.32.29Z" style="fill:#b5b5b5"/><path d="M1741.34,1054l-3.85.16a3.59,3.59,0,0,1-3.15-1.33c-2-3.23-6.37-5-6-9.7l.51-.6C1734.47,1044.77,1738.16,1049.13,1741.34,1054Z" style="fill:#d5d5d5"/><path d="M1577.7,1243.38l-.18,2.09c-7.27-6.79-2.1-13.64-.1-20.47C1580,1231.09,1572.4,1237.33,1577.7,1243.38Z" style="fill:#bcbcbc"/><path d="M1126.39,1198.79q0,11.57,0,23.14A37.78,37.78,0,0,1,1126.39,1198.79Z" style="fill:#a8a8a8"/><path d="M1423.54,1190.62c-2.72,5.79-5.69,10.7-12.14,3.48a13.3,13.3,0,0,1,1.12-.72c1.66-1.55,4-1.51,5.86-2.59,1.31-.67,2.6-1.38,4.15-1Z" style="fill:#bcbcbc"/><path d="M1152.46,1217.77l-2,0c-2.15-4.46-.09-7.19,3.77-9.18l3.61-1.87C1157.56,1211.11,1153.57,1213.74,1152.46,1217.77Z" style="fill:#d9d9d9"/><path d="M1579.57,1144.24l-2-.15c2.2-6.39,6.62-7.94,12.72-5.8l.38.52A27.12,27.12,0,0,1,1579.57,1144.24Z" style="fill:#dfdfdf"/><path d="M1371.6,1040.35l-1.95-5a8.28,8.28,0,0,1,7.19,5.74l-3.58.79c-.62.12-.79,1.54-1.89.49S1371.5,1041,1371.6,1040.35Z" style="fill:#b3b3b3"/><path d="M1618.08,1256.42l3.73-.08c2.22,1.68,5.55,1.22,7.29,3.81C1624.94,1260.36,1621,1259.82,1618.08,1256.42Z" style="fill:#c4c4c4"/><path d="M1606.79,1184.27a7.83,7.83,0,0,1-7.09,5.87C1600.18,1185.91,1603.63,1185.27,1606.79,1184.27Z" style="fill:#b0b0b0"/><path d="M1581.39,1214.15a10.87,10.87,0,0,1-3.64,9.24C1577.36,1219.68,1578.31,1216.49,1581.39,1214.15Z" style="fill:#c5c5c5"/><path d="M1629.1,1260.14c3.64-.2,6.84.7,9.19,3.71C1634.68,1264,1631.49,1263.06,1629.1,1260.14Z" style="fill:#c4c4c4"/><path d="M1585.08,1206.8c-.15,3-1,5.63-3.68,7.35C1581.08,1210.92,1581.63,1208.14,1585.08,1206.8Z" style="fill:#c5c5c5"/><path d="M1638.28,1263.85a9.1,9.1,0,0,1,7.45,3.55C1642.52,1267.74,1639.8,1267.05,1638.28,1263.85Z" style="fill:#c4c4c4"/><path d="M1645.74,1267.41c3.16-.18,5.86.55,7.35,3.69A8.71,8.71,0,0,1,1645.74,1267.41Z" style="fill:#c4c4c4"/><path d="M1653.1,1271.1c2.94.32,5.67,1,7,4.09C1657.19,1274.84,1654.31,1274.39,1653.1,1271.1Z" style="fill:#c4c4c4"/><path d="M1589.07,1201.55c-.15,2.66-.7,5-4,5.26C1585,1204,1586,1202,1589.07,1201.55Z" style="fill:#c5c5c5"/><path d="M1176.08,1095.86c6.82-11,16.18-19.77,25.46-28.62,10.12-9.64,20.75-18.5,33.76-24,1.91-2.44,4.9-2.77,7.53-3.79l-.16.12c2.76-2.12,6.27-2.42,9.31-3.86l-.12.09c6.06-3.52,11.83-7.65,19-8.81a21.29,21.29,0,0,1,2.64-.68,74.65,74.65,0,0,0,12.22-2.07c6.19-.81,12.47.22,18.64-1a12,12,0,0,1,2.87-.06c5.11,1.12,10.33.48,15.48.86a38.87,38.87,0,0,1,8.11,1.9,20.91,20.91,0,0,1,2.54.94c13.65,6.19,27.48,12.06,39,22,3,3,6.08,6,9,9.16,2.23,2.42,5.09,4.7,3.47,8.71a3.78,3.78,0,0,1-2.47,1.1c-6.47-1.52-9.52-7-13.47-11.51-22.71-19.36-48.06-29.15-78.63-25-19.24,2.61-36.78,8.8-53.64,17.79-20.34,11.35-37.31,26.75-52.8,43.94-2.11,2.34-3.46,6-7.75,5.23A1.94,1.94,0,0,1,1176.08,1095.86Z" style="fill:#d3d3d3"/><path d="M1176.08,1095.86c.15.79.29,1.57.44,2.36-.52,7.73-7,12.27-10,18.7-3.25,4.3-4.47,9.63-7.14,14.23-1.24,2.15-2.34,4.42-4.52,5.85-2,.72-3.19-.06-3.9-1.9a3.56,3.56,0,0,1-.25-1.51c3.18-2.43,2.33-7.27,5.73-9.57C1163.09,1114.69,1167.48,1103.8,1176.08,1095.86Z" style="fill:#bfbfbf"/><path d="M1151,1135.1l3.25,1.65c.12,11.22-3.67,21.07-10.48,29.86-3-1.57-2.85-4.6-3.46-7.29a14.46,14.46,0,0,1,2.66-8.74c2.38-3.73,4.5-7.58,4.84-12.14a7.31,7.31,0,0,1,.25-2.37l.79-.9Z" style="fill:silver"/><path d="M1248.24,1030.31l5.31-2.26c4.65-1,8.82-4.06,13.9-3.34,1.79.64,3.76,1.16,2.74,3.81-5.31-.65-9.3,4.56-14.74,3.34C1253.26,1030.37,1249.72,1035.15,1248.24,1030.31Z" style="fill:#181818"/><path d="M1255.45,1031.86c4.72-1.62,9-4.63,14.36-4.14a2,2,0,0,1,2.37.58l-20.32,7.45C1253.05,1034.45,1254.25,1033.16,1255.45,1031.86Z" style="fill:#454545"/><path d="M1141.57,1136.89c-.55-3.23,1.28-5.55,3-7.91a2.18,2.18,0,0,1,2-.41c.26.24.52.48.77.73-.68,2.27.48,4.06,1.55,5.87V1135C1146.72,1136.75,1144.74,1139.05,1141.57,1136.89Z" style="fill:#777"/><path d="M1156.47,1124c-1.27,3.57-1.52,7.75-5.73,9.57C1152.42,1130.26,1151.57,1125.42,1156.47,1124Z" style="fill:#535353"/><path d="M1252,1035.66a15.33,15.33,0,0,1-9.31,3.85C1244.85,1036,1248.23,1035.37,1252,1035.66Z" style="fill:#454545"/><path d="M1148.59,1122l2-1.76c.11,3.46.5,7-3.25,9.1l-.81,0C1145.12,1126.27,1147.52,1124.31,1148.59,1122Z" style="fill:#535353"/><path d="M1242.83,1039.4a12.79,12.79,0,0,1-7.53,3.79C1236.52,1039.36,1239.46,1039,1242.83,1039.4Z" style="fill:#454545"/><path d="M1231.49,1037.33c2.09-1.95,4.29-3.66,7.37-3.52C1237.39,1037.05,1234.6,1037.54,1231.49,1037.33Z" style="fill:#454545"/><path d="M1590.27,1138.29a22.32,22.32,0,0,0-12.72,5.8c-3.74,1.55-6.55,4.3-9.52,6.92s-6.35,5.58-10.48,2.86c-3.37-2.22-3.85-5.87-2.58-9.78a26.16,26.16,0,0,0,.58-5.42c2.36-2,1.66-5.08,2.67-7.58,2.48-6.13-2.4-3.35-4.69-3.69-.81-3.21,1.47-4.73,3.48-6.41,2-1.06,3.92-2.08,6.21-1a5.74,5.74,0,0,1,1.11,2.32c.25,3.45-1.1,6.63-1.73,9.93-.31,1.19-.68,2.37-1,3.56-.13.82-.32,1.62-.51,2.43.49,3.32-5.18,8.33,2.68,9.53,2.53-1.54,4.42-3.86,6.86-5.52,10.84-7.78,23.26-11.72,36-14.84,9.57-.94,19.15-.61,28.72-.28a16,16,0,0,1,2.82.55c3.45,1.39,7.13,1.12,10.73,1.4a22.82,22.82,0,0,1,7.44,2.25c3.25,1.65,6.8,2.54,10.25,3.69a16.86,16.86,0,0,1,2.25.92c2.28,1.92,6.62,1.77,6.36,6.27-6,.71-10.47-4.65-16.43-3.93C1636,1129.73,1613.11,1127.42,1590.27,1138.29Z" style="fill:#aaa"/><path d="M1739.58,1249.45c-4.56,8.72-8.54-1.6-12.87-.4-4.77-5.7-1-12.87-3.32-19a14.75,14.75,0,0,1-.5-3c0-2.12.25-4.12,2-5.61l3.87,5.53c6.38-10.4-.15-20-.06-29.56,3.28-.12,4.06,2.45,5.14,4.71,1.92,9.13,3.84,18.27.39,27.48a28.07,28.07,0,0,0-.88,15c1,1.9,2.94,2.4,4.73,3.14A3.12,3.12,0,0,1,1739.58,1249.45Z" style="fill:#adadad"/><path d="M1731.76,1201.56q-1.54-2.08-3.07-4.19c-7.22-19.57-21-33.73-37.51-45.7-2.41-1.74-5.67-2.49-7-5.58a3.94,3.94,0,0,1,2.3-1.22c12.14,4.06,20.9,12.54,28.87,22.07,8.34,9.63,16.46,19.4,18.15,32.72A3.34,3.34,0,0,1,1731.76,1201.56Z" style="fill:#686868"/><path d="M1724.88,1221.4c-.06,1.91-.11,3.82-.16,5.73-7.18-2.81-5-10.87-8.84-15.59-7-13.89-18.11-23.41-31.48-30.77-2.31-1.27-6.52-1.23-5.53-5.83a3.86,3.86,0,0,1,3.83.36C1704.53,1183.56,1718.05,1199.43,1724.88,1221.4Z" style="fill:#949494"/><path d="M1682.7,1175.3l-4.14.27c-2.44,2.13-5.14,1.37-7.83.71a72.18,72.18,0,0,0-33.58-.41c-2,.47-4.26.77-6.21-.61l.15-3.3C1648.67,1167.24,1665.94,1167.27,1682.7,1175.3Z" style="fill:#a2a2a2"/><path d="M1686.31,1145.6l-2.14.49-8.93-3.88-7.56-5.35C1675.86,1134.64,1682.44,1137.73,1686.31,1145.6Z" style="fill:#494949"/><path d="M1237.11,1302.33l-3.9-3.36q-28.47-25.73-22.83-63.67c-1.42-13.35,8.2-22,13.86-32.29,4.79-5.75,10.66-10.26,16.8-14.45l3.22-.38c2.25-1.62,4.59-2.06,7-.5,3.64-2.64-3.71,6.38,3.47,2.82,14.47-7.19,30-7,45.09-.09a3.74,3.74,0,0,1,2,2.9c-2.85,3.84-6.62,1.78-10.13,1.63-13.68-.6-27.15-1.94-40.43,4.41-32.22,15.4-41.48,55.12-18.78,82.65,4.2,5.1,7.6,6.52,13.69,2.11,13.84-10,27.48-20.45,43-28,3.59-1.75,6.81-4.27,11.13-2.72,5.12,2.48,9.35-.94,13.85-2.21,10.94-3.1,21.58-7.73,33.39-6.1.63,5.62-4.21,5-7.29,6.43-1.75.41-3.44,1.15-5.28,1.16-4.43-.06-8.43,1.51-12.36,3.34-3,1.63-6.41,2.19-9.49,3.61a19.84,19.84,0,0,0-9.06,3.46,76.81,76.81,0,0,1-7.53,3.92,15,15,0,0,0-7.35,3.47c-3.71,2.45-7.88,4-11.78,6l-7,4c-8.23,6.55-17,12.34-25,19.24C1243.29,1301.59,1240.45,1303.43,1237.11,1302.33Z" style="fill:#151111"/><path d="M1255.35,1182.6c.35-1.55.93-2.89,2.71-3.3,25.32-5.82,49-3.52,69.66,14a2.74,2.74,0,0,1-1.89,1.58c-7.32-1.41-12.82-6.9-19.91-8.82-3-1.18-6.37-1-9.39-2.22-9.82-3.56-19.8-2.48-29.81-1.2C1263,1183.09,1259.13,1185.55,1255.35,1182.6Z" style="fill:#a5a5a5"/><path d="M1255.35,1182.6a92.17,92.17,0,0,1,32.54-3.42c3.65.31,7.4.28,10.22,3.22l-.86,1.14c-10.55,1.26-21.37-1.81-31.76,1.94a22.31,22.31,0,0,1-2.55.69c-3.38.43-6.61,1.56-10,2.12l-1.27-.1h-7.45a3.17,3.17,0,0,1,.24-1.66c2.92-1.56,6.13-2.34,9.21-3.48C1254.25,1182.88,1254.8,1182.74,1255.35,1182.6Z" style="fill:#515151"/><path d="M1225.8,1202.93c-1.33,6.14-6.3,10.1-9.31,15.24s-5.16,10.18-5.3,16.08c-.57.89-1.17.9-1.78,0,0-2.47,0-4.93,0-7.4a64.54,64.54,0,0,1,9.26-18.35C1220.79,1206.36,1221.6,1202.49,1225.8,1202.93Z" style="fill:#606060"/><path d="M1225.8,1202.93l-7.15,5.62c5-9.46,11.86-16.76,22.39-20C1237.62,1195.11,1230.52,1197.75,1225.8,1202.93Z" style="fill:#939393"/><path d="M1341.71,1205.15c0,1.19,0,2.37,0,3.56-5,.49-6.71-4.07-9.88-6.39-2-2.48-5.19-4.22-5-8l.85-1C1333.73,1195.64,1336.65,1201.66,1341.71,1205.15Z" style="fill:#a5a5a5"/><path d="M1253.71,1183a12.41,12.41,0,0,1-9.21,3.48C1246.76,1183.21,1249.94,1182.35,1253.71,1183Z" style="fill:#888"/><path d="M1333.05,1200.79l8.71,7.92,3.6,5.62c4.64,5.17,6.37,11.57,7.64,18.16-1,6.7,3.36,15.5-7.2,18.48-2,1.07-4,1.34-6-.29,2-2.71,6.66-1.39,7.88-5.26,1.35-16.61-7.91-29.21-16-42.26A3.24,3.24,0,0,1,1333.05,1200.79Z" style="fill:#636363"/><path d="M1237.11,1302.33c9.39-3.52,15.84-11.2,23.78-16.77,2.92-2,5.75-4.47,9.5-5,0,5.27-5.84,5.21-7.81,8.67-5.71,2.43-10.07,6.74-14.79,10.56-3.09,2.5-6.3,4.93-10.67,4.44C1237.12,1303.58,1237.11,1303,1237.11,1302.33Z" style="fill:#727272"/><path d="M1339.85,1250.68l6,.29-36.61,11.39-.86-.81c-.07-2.92,3.16-1.78,4.17-3.37l9.33-3.5c4.13-1.73,8.62-2.24,12.84-3.68Z" style="fill:#7d7d7d"/><path d="M1295.94,1265.56l7.29-3.72a5.23,5.23,0,0,1,5.33-.29l.63.81c-10.61,4.66-19.92,12.26-31.77,14.15,2.23-4.52,7.31-4.94,10.86-7.56C1290.76,1267.66,1293.5,1266.94,1295.94,1265.56Z" style="fill:#7d7d7d"/><path d="M1353,1232.49q-3.82-9.08-7.64-18.16C1351.54,1218.85,1353.63,1225.1,1353,1232.49Z" style="fill:#a5a5a5"/><path d="M1735.66,1052.41l1.83,1.78c12.21,13.61,24.28,27.34,33.34,43.37,8.8,15.92,14.66,33,20.15,50.28-.7,1-1,2.4-2.7,2.28-2.73-1.2-3.11-3.92-4-6.27-1.74-8.36-6.4-15.5-9.7-23.19a16.79,16.79,0,0,1-1.13-2.14,26.78,26.78,0,0,0-3-6.28,13.06,13.06,0,0,1-1.06-2,11.74,11.74,0,0,0-3.8-5.5,14.44,14.44,0,0,1-3.6-6,7.14,7.14,0,0,0-4.07-5.19c-6.62-5.94-11.45-13.43-17.19-20.11-18.73-21.85-41.72-37.06-68.62-46.79-3.16-1.15-7.58-1-8.27-5.89a5.54,5.54,0,0,1,3.59-1.79,11.59,11.59,0,0,1,4,.34c17.6,6,34.67,12.93,49.06,25.18,2.28,2,4.8,3.85,8.21,3.12C1731.75,1048.13,1733.51,1050.55,1735.66,1052.41Z" style="fill:#4f4f4f"/><path d="M1789.27,1149.66l1.71-1.82q2.89,11,5.8,21.88a302,302,0,0,1-.13,49.87l-1.77,9.22c-1.87,2.7-3.73,2.91-5.59,0-2.13-3.35-3.82-6.86-3.93-10.93a5.17,5.17,0,0,1-.49-3.58c.8-1.48,2.2-2.36,3.44-3.4a13.25,13.25,0,0,0,3.57-4.75c.79-6.49,1-12.94-.48-19.36a26.84,26.84,0,0,1-.72-5.28c-.13-3.88.32-7.79-.56-11.64a19.24,19.24,0,0,1-.65-2.48c-.46-2.94-.67-5.93-1.68-8.78a14.88,14.88,0,0,1-.5-2.63C1787.13,1153.6,1787.43,1151.38,1789.27,1149.66Z" style="fill:#4d4d4d"/><path d="M1796.65,1219.59q.07-24.93.13-49.87c3.52,11,1.25,22.27,1.8,33.41.18,3.64,0,7.3,0,10.95C1798.26,1216,1798.67,1218.24,1796.65,1219.59Z" style="fill:#616161"/><path d="M1529.85,1162.55l-7.69,12.75c-6.14,3.88-8.31-.35-9.74-5.07-3.85-12.77-3.13-26-2.77-39,.32-11.54,3-22.8,5.7-34,1.67-2.25,3.43-1.53,5.2-.15,3.13,5.89-1.5,11.49-.68,17.3a30.32,30.32,0,0,0-.47,9c.57,3.62-.19,7.1-1.08,10.56a54.94,54.94,0,0,0-.22,19.6c.38,5.82,4.15,5.28,8.14,4.32C1528.75,1158.42,1529.63,1160.23,1529.85,1162.55Z" style="fill:#292929"/><path d="M1575.77,1022.52l6.94-3.92a4,4,0,0,1,2.4-.21c1.65.42,3.22,1,4.11,2.61a3.92,3.92,0,0,1-.34,2.45c-9.49,7.44-21.78,10.71-30,20.07-2.12,2-4.2,4-6.21,6.14-5.28,4.93-10.2,10.16-13.68,16.57a24,24,0,0,1-1.36,2.08c-3.91,5.17-6.15,11.34-9.94,16.58a25.56,25.56,0,0,1-2,2.95,4.35,4.35,0,0,1-3,1.71c-1.72-.12-2.76-1.3-3.82-2.46l-.2-1.89c2.13-2.07,2.55-4.94,3.53-7.55l0,.07c7.63-8.55,10.81-20.29,19.89-27.79,8.49-8.7,16.91-17.48,27.48-23.77C1571,1023.85,1573.89,1024.07,1575.77,1022.52Z" style="fill:#323232"/><path d="M1529.85,1162.55l-3.8-3.76c-2.81-5,2.43-7.68,3.4-11.6a99.58,99.58,0,0,1,5.8-9.66c2.9-4.43,6.07-8.69,9.24-12.94,2.85-4.14,6.57-7.48,10.11-11a9.88,9.88,0,0,1,3.29-2,6.65,6.65,0,0,1,5.06.45c2.36,2.39,5.38,4,7.75,6.38,0,4.08-1.75,7.55-3.7,11-1.5.74-2.48,0-3.25-1.2-1-1.94,1.18-4.42-1-6.16a1.31,1.31,0,0,1-.11-1.06c-2.91-2.31-4.63.46-6.73,1.58-1.64,2.17-4.41,3.25-5.59,5.85a.68.68,0,0,1-.18,1c-1.82,2.53-4.19,4.66-5.5,7.57l.07-.1c-3.4,4.11-5.46,9.07-8.55,13.37a27.92,27.92,0,0,1-4.3,8.86c-.06,1.19-.12,2.38-.19,3.57C1531.05,1162.61,1530.45,1162.57,1529.85,1162.55Z" style="fill:#535353"/><path d="M1516.94,1096.24c-7.33,22.38-6.45,45.42-5,68.39.33,5.07,1.32,12.38,10.17,10.67-5.53,5-8,4.55-10.32-2.82-4-12.4-4.47-25.31-3.8-38.17.69-13.47,3.31-26.69,6.66-39.76.61-2.38,1.13-4.83,3.77-5.91C1521.07,1091.8,1519.29,1094.08,1516.94,1096.24Z" style="fill:#4f4f4f"/><path d="M1516.94,1096.24l1.53-7.6a7.51,7.51,0,0,1,.4-1.55,3.6,3.6,0,0,1,3.54,1.85c2.58,3.81,1.43,6.74-2.16,9.08Z" style="fill:#1b1b1b"/><path d="M1522.2,1077.65c.52,3.31-.28,6-3.53,7.55.65-2.44,1.3-4.87,1.94-7.31A3.1,3.1,0,0,1,1522.2,1077.65Z" style="fill:#5a5a5a"/><path d="M1395.66,1160.59q-3-5.31-6.07-10.62c-1.33-3-.21-4.73,2.94-5.27,6.56,1.55,8.17,7.18,10.26,12.42,1.09,4.85,3.7,9,6.09,13.27.46.63.88,1.29,1.31,1.94,1.28,2.55,4.71,2.81,5.89,5.47-.67,3-3,3.88-5.68,4.25-1.93,0-3-1.41-4.34-2.48-4-3.3-3.27-9.25-7-12.69C1397.88,1164.8,1396.8,1162.68,1395.66,1160.59Z" style="fill:#2e2e2e"/><path d="M1345.79,1151.14c-6.74-4.42-14.51-5.61-22.19-7.05l-.12-1.65a6.18,6.18,0,0,1,2.2-1.73c9-2,16.08,3.43,23.78,6.4a150,150,0,0,1,14.53,8.4c2.35,1.89,4.66,3.81,4.8,7.18a3,3,0,0,1-1.35,2C1360.89,1159.12,1354.37,1153.49,1345.79,1151.14Z" style="fill:#828282"/><path d="M1378.66,1137.24c-4.05-2-6.53-1.42-5.5,3.78,1.18,5.92,2.61,11.79,3.93,17.68,1.09,2,1,3.61-1.58,4.26-2.29-1.28-2.85-3.67-3.76-5.84a79.38,79.38,0,0,1-2.38-8.2c.12-5.37-2.35-10.55-1.17-16,1.29-2.84,3.57-3.47,6.4-2.87C1377.47,1131.58,1380.16,1133.23,1378.66,1137.24Z" style="fill:#606060"/><path d="M1378.66,1137.24l-3.55-6a3.09,3.09,0,0,1,2.58-2.51c4.14.59,6.2,4,9,6.5,1.89,2,3.88,4,5.76,6,1,1.27,1.85,2.61,1.54,4.35-2.56.33-4.1,1.7-4.39,4.33-.62-.5-1.24-1-1.87-1.49-1-3.35-3.31-5.7-5.89-7.85Z" style="fill:#595959"/><path d="M1406.62,1179l3.65,2c4,2.2,5.63,6.88,9.59,9.12a2.82,2.82,0,0,1-.38,2.36c-2,3-4.64.63-7,1,.23-5.25-5.28-7.51-6.32-12.09A1.34,1.34,0,0,1,1406.62,1179Z" style="fill:#414141"/><path d="M1374.69,1162.17c1.9-.39,2-2,2.39-3.47,2.8,3.21,1,5.69-1.54,7.66-3.15,2.43-5.63.1-8.1-1.65l.79-.84C1370.07,1162.14,1372,1160.55,1374.69,1162.17Z" style="fill:#828282"/><path d="M1406.62,1179l-.42,2.33c-4.19-3.42-5-8.66-7.18-13.2-.9-.95-.77-1.72.41-2.3C1403.71,1169.14,1403.2,1175.12,1406.62,1179Z" style="fill:#565656"/><path d="M1381.83,1140.63c3.9,1.16,6.21,3.51,5.89,7.84Q1384.78,1144.55,1381.83,1140.63Z" style="fill:#606060"/><path d="M1399.43,1165.78c-.14.77-.27,1.53-.41,2.3-2.06-2.07-3.49-4.43-3.36-7.49C1398.05,1161.5,1398.86,1163.55,1399.43,1165.78Z" style="fill:#616161"/><path d="M1682.43,1286a4,4,0,0,0-1.48-.38c-1.4-5.1-6.35-6.24-10-8.56-15.34-9.73-30.91-19.1-49.08-22.77-3.29-2.34-7.07-3.17-11-3.54-7.75-4.7-16.83-4.62-25.27-6.86-4.8-1.27-6.91-3.18-5.75-8.16,5-21.47,14.33-40,34.47-51.27a3.27,3.27,0,0,1,3.76-.3c1,5.24-3.46,6.62-6.47,8.7-14.22,9.81-20.72,24.3-25,40.25-1.26,4.7,1.45,5.54,5.21,6.46,13.6,3.32,27.36,6.12,40.33,11.45.68,1.12,1.82-.88.8-.19-.26.18-.46,0-.83-.36-1.23-1.1-2-2.26-.92-3.9,4.22-2.27,7.68.27,11.25,1.83a249.59,249.59,0,0,1,43,24.54c9.06,6.35,12.72,5.64,18.19-4.17,9.32-16.72,11.78-34.31,2.83-51.78-10.08-19.65-26.91-29.14-49-30.14-8.19-.36-16.31,2.92-24.45.12-.94-4.94,3.08-5.41,6-6,26.15-5.46,48.79.38,66.87,21,1.67,1.91,2,6.51,6.52,4.61,3.69,1.54,4.39,5.24,6,8.28,2.72,8.71,7.32,17,6.19,26.56-1.23,8.52-1.59,17.23-5.33,25.21-2.26,5-4.29,10.09-8,14.25-1.23,1.31-2.88,2.12-4,3.54-9,11-9,11-21,5C1684.62,1288.72,1683.62,1287.27,1682.43,1286Z" style="fill:#171313"/><path d="M1717.41,1214.21l-5.41-7.55-1.06-.54c-2-1.88-3.77-4.1-6.25-5.47-5.69-4.92-10.86-10.47-17.52-14.18a11.57,11.57,0,0,0-5.93-4,22.38,22.38,0,0,1-2.31-1c-3.49-2-7.41-2.07-11.22-2.67-14.24-1.8-28.29-2-41.75,4.15-2.45,1.1-5,2.13-7.87,1.57l-3.78-.11,2-3.56,14.68-5.67c15.92-5.83,31.78-3.89,47.62.31,16.52,7.65,31.11,17.45,38.94,34.82A2.6,2.6,0,0,1,1717.41,1214.21Z" style="fill:#454545"/><path d="M1183.88,1260c-1.11-7.11-7.08-11.78-9.21-18.37,4.17-6.56-3.08-10.89-3.32-16.68-.11-2.69-3.38-5.32.17-8,4-.51,5.43,2.41,6.48,5.26,2,5.41,4.53,10.64,5.49,14.78-.81-13.08,2.07-27,8.25-40.17,1.18-2.53,2.64-4.89,5.8-5.32a2.44,2.44,0,0,1,1.85,1.89c-1,9.34-6.65,17.22-8.07,26.42-.13,2.24.19,4.51-.48,6.71a18.15,18.15,0,0,0-.21,11.38,12.76,12.76,0,0,1-1.53,8.7c-1.06,2.24-3.48,4.12-1.93,7.09.9,1.62,2.12,3.11,2.15,5.09l-4.14,1.51A6.5,6.5,0,0,0,1183.88,1260Z" style="fill:#797979"/><path d="M1209.62,1187c-1.74,2.37-2.22,5.67-5.3,7-1.63.8-2.49-.17-3.24-1.4-1.25-5.56,2.55-9.09,5.57-12.6a97.79,97.79,0,0,1,15.48-15,43.53,43.53,0,0,0,5.88-4.52,17.69,17.69,0,0,1,2-1.47c2.53-1.38,4.48-3.61,7.12-4.84a5.47,5.47,0,0,1,3.78.17,4.7,4.7,0,0,1,2.3,3c-6.23,7.14-16.27,9.87-21.34,18.38-1.32,1.54-2.83,2.9-4.24,4.35A44,44,0,0,0,1209.62,1187Z" style="fill:#2f2f2f"/><path d="M1202,1191.9l2.28,2.14c-2.93,6.85-6,13.65-8.74,20.56-1.09,2.71-2.2,5.58-1,8.63-1.25,1.13-.26,3.55-2.4,4.17-4-1.51-.75-5.59-2.75-7.81a72.32,72.32,0,0,1,9.33-25.58C1199.36,1192.53,1199.88,1191,1202,1191.9Z" style="fill:#353535"/><path d="M1189.45,1219.59c2.64,1.73.48,5.66,3.34,7.29,1.76,7.44,1.27,14.91.24,22.39l-1.84,1.82a5.52,5.52,0,0,1-4.33-1.8,1.68,1.68,0,0,1,.48-2.1c.6-3,1.2-6.09,1.79-9.13a16.75,16.75,0,0,1,0-11.2C1189.22,1224.44,1189.34,1222,1189.45,1219.59Z" style="fill:#474747"/><path d="M1193,1249.27l-.24-22.39c.6-1.22,1.2-2.43,1.81-3.65C1193.71,1231.89,1196.6,1240.77,1193,1249.27Z" style="fill:#585858"/><path d="M1187.45,1249.12a3.79,3.79,0,0,1,3.74,2c-.55,2.59.79,5.63-1.87,7.71l-3.92-4.17C1183.82,1252,1185.16,1250.35,1187.45,1249.12Z" style="fill:#373737"/><path d="M1209.62,1187c1.17-3.79,4-6,7.29-7.91.89,1.32,1.24,2.54-.65,3.32l-3.3,3.81Z" style="fill:#353535"/><path d="M1419.48,1192.41l-.45-2.73c-1.47-1.63-1.34-3.5-.81-5.43a17.45,17.45,0,0,0,2.14-11c.1-12,0-24,0-35.92-1.68-19.45-6.47-37.89-17.79-54.2-.48-1.83-1-3.67.25-5.43l2-.4a106,106,0,0,1,16.12,30c2.38,15.34,6.23,30.45,5.92,46.2-.24,12.29-1.22,24.38-4.38,36.26Z" style="fill:#454545"/><path d="M1209.41,1234.3c.59,0,1.19,0,1.79,0-.64,15.94-.65,31.84,8.35,45.94,4.16,6.51,9.08,12.53,13.66,18.78C1215.93,1291.06,1202.16,1253.53,1209.41,1234.3Z" style="fill:#403f3f"/><path d="M1704.51,1028.42l20.34,14.46a1.72,1.72,0,0,1-.21,2.36c-3.11,1.35-5.22-.72-7.28-2.37a108.31,108.31,0,0,0-17.39-11.29c-1.86-1-4.12-1.54-3.4-4.45l.87-1.05Z" style="fill:#4f4f4f"/><path d="M1671.46,1015.59c7-.07,12.87,3.13,18.51,6.84a1.64,1.64,0,0,1,.48,1.52c-.13.52-.26.78-.4.78-4.75,1.12-8-2.83-12.29-3.52-2.45-.73-5.45-.27-6.94-3.15A3,3,0,0,1,1671.46,1015.59Z" style="fill:#454545"/><path d="M1655.24,1009.33c5,.53,10.28.06,14,4.51-2.32,2.06-5.18,1.81-8,1.88a14,14,0,0,1-5.39-1,3.57,3.57,0,0,1-2-3.26A3.16,3.16,0,0,1,1655.24,1009.33Z" style="fill:#939393"/><path d="M1639.79,1008.11l4.51-.5c3.67.47,7.55-.47,10.94,1.73l-.68.78C1649.21,1012.63,1643.93,1014.57,1639.79,1008.11Z" style="fill:#939393"/><path d="M1660.53,1013.25l8.7.59,2.23,1.75-.12,1.85c-4,1.83-7.51.29-11-1.65A1.72,1.72,0,0,1,1660.53,1013.25Z" style="fill:#434343"/><path d="M1689.88,1024.46l.09-2a11.8,11.8,0,0,1,7.47,3.65l-.47.53C1693.8,1028.56,1691.5,1027.63,1689.88,1024.46Z" style="fill:#4f4f4f"/><path d="M1144.77,1151.2c-2.5,2-.88,5.45-2.82,7.61,0,8.56-2.9,16.66-3.92,25.06a18.65,18.65,0,0,1-.57,2.77c-1.22,3.16-1,6.48-1,9.78-.1,3,.08,6.11-2.2,8.57-5.7-.43-3-5.66-4.76-8.33.13-4.16-.61-8.36.51-12.47,1.25-15.27,7.34-29.29,11.18-43.89l.54.32c4.65.52,3,4.54,4,7.1C1145.86,1149,1146.15,1150.31,1144.77,1151.2Z" style="fill:#434343"/><path d="M1137.67,1243.53c-3.65,6.08-5.49,1.38-6.59-1.5-1.38-3.6-1.75-7.59-2.56-11.4l0-25.77a1.72,1.72,0,0,1,2.6.58c3.75,8.21.23,17.11,2.44,25.45C1134.39,1235.26,1134.92,1239.76,1137.67,1243.53Z" style="fill:#575757"/><path d="M1130.26,1204.86h-1.77c.28-6.9-1.12-13.93,1.47-20.67q.22,6.68.44,13.36C1131.49,1200,1131.71,1202.45,1130.26,1204.86Z" style="fill:#5a5a5a"/><path d="M1402.82,1077.67l1.68,3.91c-1.32,1.32-.61,4.48-3.77,4.13a6.77,6.77,0,0,1-3-2.29c-7.94-11.47-14.29-24.15-25.33-33.26-11.62-10.49-25.36-17.07-40.09-21.84l-.72.08-.6-.41c3.11-5.18,7.6-1.82,11.54-1.88a1.18,1.18,0,0,1,1.32.25c2.15,2,4.9,2.59,7.55,3.45l-.1-.1c1.93,2.37,5.12,2.25,7.48,3.77l-.11-.09c1.65,2.43,4.65,2.51,6.87,4,1.74,1.57,3.16,3.79,6.08,3,.31.78.38,1.82,1.66,1.56C1382.41,1054.42,1396.2,1063.08,1402.82,1077.67Z" style="fill:#292929"/><path d="M1535.31,1149.73c2.43-4.81,4.47-9.89,9.38-12.88a32.16,32.16,0,0,1-7.24,13.1A1.3,1.3,0,0,1,1535.31,1149.73Z" style="fill:#636363"/><path d="M1535.31,1149.73l2.13.22c-.3,4-.94,7.8-5.6,9.13C1531.27,1155.32,1534.53,1153,1535.31,1149.73Z" style="fill:#929292"/><path d="M1550.3,1128.39c.2-3.35,2.7-4.86,5.16-6.41a1,1,0,0,1,1.75,0l-3.68,5.42Z" style="fill:#636363"/><path d="M1544.62,1137c-.18-4,2.38-6,5.5-7.57C1549.59,1132.85,1547.54,1135.21,1544.62,1137Z" style="fill:#636363"/><path d="M1242.57,1157l-2.19-2.54a3,3,0,0,1,1-2.6c15.26-9.59,32.2-14.59,49.66-18.22,14-1.46,28.14-3.72,41.61,2.91.59,5.73-5.46,2.62-7.13,5.35l-2,.54-.9-1.55c-20-2.67-39.15.29-57.7,7.87a2.47,2.47,0,0,1-3.11,1.16C1254.72,1150.51,1249.62,1156.42,1242.57,1157Z" style="fill:#2d2d2d"/><path d="M1264.88,1148.76c2.57-4.94,7.76-4.06,11.95-5.24a128.59,128.59,0,0,1,36.08-5,19.15,19.15,0,0,1,9.67,2.34A181.53,181.53,0,0,0,1264.88,1148.76Z" style="fill:#353535"/><path d="M1242.57,1157c6.21-2.87,11.52-8.17,19.19-7.08l-4.54,3.37a27.09,27.09,0,0,0-13.32,7.14,59.37,59.37,0,0,0-20,14.59c-.93,1.61-2.13,1.46-3.44.52C1225.77,1166.88,1235.05,1163,1242.57,1157Z" style="fill:#353535"/><path d="M1754.2,1223.17q-2.73,6.46-5.47,12.95l-9.15,13.33a4,4,0,0,0,.06-1.2,3.63,3.63,0,0,1-1.37-3.28,8.13,8.13,0,0,1,.63-2.33c2.54-3,.77-6.77,1.58-10.09,1.3-2.86,4-5,4.43-8.28,1.34-4,2.23-8.22,6.26-10.61a2.32,2.32,0,0,1,2.19,1C1755.36,1217.3,1752,1220.51,1754.2,1223.17Z" style="fill:#777"/><path d="M1725,1228.76c3.86,6.48.8,13.56,1.76,20.29-1.14,6.32-1.62,12.84-5.58,18.3a4.77,4.77,0,0,1-1.43-4.09c.69-4.43,2.72-8.57,2.9-13.12C1724.15,1243.09,1723.1,1235.77,1725,1228.76Z" style="fill:#949494"/><path d="M1721,1263.53c.06,1.28.12,2.55.17,3.82q-1.85,4.58-3.7,9.14c-3.34,1.53-3.49,6.29-7.36,7.27a2.05,2.05,0,0,1,.14-3.29l7-13.29C1719.15,1266.68,1717.83,1262.82,1721,1263.53Z" style="fill:gray"/><path d="M1639.79,1008.11c4.67,2.56,9.86,1.32,14.78,2,.21,1,.43,2.07.65,3.1-10.81,2.17-21.73.61-32.58.81-6.77.13-13.34.61-19.68,3.05-6-.11-11.5,4.7-17.82,2l-2.43-.48c9.2-5.55,19.75-6.66,29.92-9,3-1.75,6.56.27,9.54-1.52Z" style="fill:#4a4a4a"/><path d="M1622.17,1008.06c-2.93,2.1-6.28,1.53-9.54,1.52C1615.44,1006.74,1618.93,1008.23,1622.17,1008.06Z" style="fill:#939393"/><path d="M1575.77,1022.52l-5.55,3.88a1.18,1.18,0,0,1-2-.17q1.92-1.83,3.86-3.64Z" style="fill:#3b3b3b"/><path d="M1765.38,1190.17c-1.49,8.37-3.27,16.66-7.14,24.33-.32-.22-.64-.44-1-.65-1.56-2.24-1-5.28-2.88-7.43a10.42,10.42,0,0,1-1.21-2.1,7.74,7.74,0,0,1-.28-3.73,8.92,8.92,0,0,1,3.34-5.41,4,4,0,0,1,3.63-.11,4,4,0,0,1,.85,1.65c-.1-2.6-2.53-5.25-2.85-8.51-.21-4.63-2-9.58,2.75-13.16,4.83,2.16,4.5,7,5.63,11C1766.25,1187.5,1766.42,1189,1765.38,1190.17Z" style="fill:#686868"/><path d="M1778,1199.59a14,14,0,0,0-1.6-.23l-3.72-9.07c-.88-1.79-2.46-3.27-2.44-5.46a4.37,4.37,0,0,1,2.5-2.65,5.51,5.51,0,0,1,4.61,1.73,12.13,12.13,0,0,1,2.71,4.29c.86,2.42,1.74,4.85,1.1,7.49C1780.56,1197.37,1779.75,1198.87,1778,1199.59Z" style="fill:#787878"/><path d="M1754.63,1204.83l1.64.08c1.84,2.66-.3,6,1.55,8.68a6.81,6.81,0,0,1,.41.91c0,2.6-.64,4.83-3.65,5.43-2.13-1.3-.42-3.85-1.76-5.42a5.47,5.47,0,0,0-.79-.73C1749.86,1209.92,1750.09,1206.75,1754.63,1204.83Z" style="fill:#737373"/><path d="M1770.89,1184.57l1.77,5.72c-2.39-2-4.79-4.07-7.28-.12l-.12-3.85c-.31-2.47.9-4,3.22-4.26C1770,1181.87,1771.32,1182.55,1770.89,1184.57Z" style="fill:#7c7c7c"/><path d="M1752.82,1214.51c2.12,1.31,1.32,3.57,1.76,5.42-.13,1.08-.25,2.16-.38,3.24C1751.27,1220.68,1752.79,1217.47,1752.82,1214.51Z" style="fill:#585858"/><path d="M1778,1199.59c.31-1.56.46-3.21,2.19-4,3.53,2.54,4.3,6.86,6.58,10.2.81,2.12,3.54,3.5,2.53,6.35-.73,1.54-2.11,1.87-3.62,1.95-1.88-.61-2.65-2.22-3.47-3.8C1780.09,1207,1778.25,1203.61,1778,1199.59Z" style="fill:#616161"/><path d="M1789.29,1228.79a5.11,5.11,0,0,0,5.59,0c-.2,2-.89,3.52-3.23,3.24C1789.81,1231.83,1789.48,1230.31,1789.29,1228.79Z" style="fill:#616161"/><path d="M1782.19,1210.3l3.47,3.8-.3,3.76A11,11,0,0,1,1782.19,1210.3Z" style="fill:#787878"/><path d="M1342.51,1026.11c-3.8.91-8.11-1.29-11.54,1.88l-7.4-1.9c-5.56-1.93-11.45.39-17-1.35l-.47.19-.47-.2c-6.31,1.36-12.7.28-19,.63-4.84.87-9.77,1.38-14.48,3h.09l-2.37-.58-3.41-1.55c-.85-2,.91-2.54,2-3.48a2.5,2.5,0,0,1,1.57-.24c8.07-1.07,16.26-1.33,24.17-3.56l-.1-.06c5.85-.83,11.77-2.47,17.11,1.72a1.31,1.31,0,0,1,.93-.14c7-.89,13.63,1.43,20.43,2.35,1.73,1.83,3.84.62,5.79.73Z" style="fill:#2b2b2b"/><path d="M1294.1,1018.89c-7.53,4.78-15.93,3.63-24.17,3.56A67.48,67.48,0,0,1,1294.1,1018.89Z" style="fill:#434343"/><path d="M1268.36,1022.69l-2,3.49c-4.65-1.92-8.08,4.59-12.85,1.87C1257.8,1024.39,1263,1023.27,1268.36,1022.69Z" style="fill:#454545"/><path d="M1311.11,1020.55c-5.53-2.24-11.42-1-17.11-1.72a3.82,3.82,0,0,1,.58-1.4C1300,1018.92,1306.59,1014.28,1311.11,1020.55Z" style="fill:#4b4b4b"/><path d="M1332.47,1022.76c-6.91.1-13.77-.28-20.43-2.35C1319.34,1016.88,1325.84,1020.37,1332.47,1022.76Z" style="fill:#4b4b4b"/><path d="M1710.21,1280.47c0,1.1-.1,2.19-.14,3.29-2.26,2.74-4.65,5.39-6.76,8.25-4.08,5.54-8.48,5.94-13.41,1.19-1.49-1.61-4.69-2-3.76-5.32C1697.7,1296.88,1703.3,1286.56,1710.21,1280.47Z" style="fill:#6b6b6b"/><path d="M1686.14,1287.88q1.89,2.65,3.76,5.32l-3.35-.41c-1.43-2.22-4.29-3.56-4.12-6.76Z" style="fill:#989898"/><path d="M1220.5,1175.54l3.44-.52c-1.45,3.62-3.75,6.35-7.68,7.4.22-1.11.43-2.21.65-3.32Z" style="fill:#929292"/><path d="M1358.76,1033.48c-3.33.4-6.26,0-7.48-3.77C1354.39,1029.74,1357,1030.78,1358.76,1033.48Z" style="fill:#2b2b2b"/><path d="M1351.38,1029.81c-3.24.43-6.05-.07-7.55-3.45A10.57,10.57,0,0,1,1351.38,1029.81Z" style="fill:#2b2b2b"/><path d="M1365.52,1037.36c-3.12.12-5.84-.47-6.87-4A8.64,8.64,0,0,1,1365.52,1037.36Z" style="fill:#2b2b2b"/><path d="M1171.19,1217.22c2.23,6.32,4.5,12.63,6.68,19,1,3,2.07,6.11-3.2,5.43.44-3.77-2.63-6.08-3.81-9.18-.13-2.58.17-5.29-2.08-7.27l.06.06c-1.56-4.26-1.07-9.12-3.79-13-1-3.48-2-7-3.18-10.42-1.46-4.1-3.52-3.22-5.6-.41-3.78.3-3.58-2.63-4.09-5,.89-5.8,2.12-11.41,8.37-14,1.89.91,2.35,2.63,2.42,4.56.29-2.22-1.09-3.66-2.25-5.21a4.58,4.58,0,0,1,1-4c4.43-4.22,6.83-2.56,7.61,2.8.6,4.16.25,8.38.31,12.57.11,4.63-.51,9.29.58,13.87a64.58,64.58,0,0,1,1.74,7.77A4.71,4.71,0,0,1,1171.19,1217.22Z" style="fill:#616161"/><path d="M1154,1195.33c.38,2.16-.07,4.63,2.3,6l-2.07,7.18q-1.89,4.59-3.77,9.18c-4.36,6.85-7,14.43-9.54,22.07h-.76l-.76-.07c-1.39-1.31-1.49-3-1.3-4.71,3.47-6.39-4-7.31-5.63-11.16a17.47,17.47,0,0,1-.28-2.79c.54-5.45-1.42-11.12,1.54-16.33.17-3,.35-5.92.52-8.89a1.6,1.6,0,0,1,2.48.4,11,11,0,0,1,1.5,5.53c.1,4.87.12,9.75,0,14.58,0,.45-.14,1.09.13,1.44s.75-.06.9-.76a27.11,27.11,0,0,1,.94-2.89,13.69,13.69,0,0,1,1.08-2c3.37-4.63,5.22-10.09,8.28-14.89C1150.71,1195.89,1152,1194.89,1154,1195.33Z" style="fill:#767676"/><path d="M1165.05,1212.19c4.53,3.4,4,8.28,3.79,13A22.4,22.4,0,0,1,1165.05,1212.19Z" style="fill:#6b6b6b"/><path d="M1168.78,1225.17c3.18,1.72,5.52,3.67,2.08,7.27l-1.86-1.82C1168.92,1228.8,1168.85,1227,1168.78,1225.17Z" style="fill:#6b6b6b"/><path d="M1542.74,1050.2a140.34,140.34,0,0,0-14.41,21.12c-1.49,2.72-3,5.37-6.16,6.4,3.85-9.21,9.76-17.22,14.93-25.66l5.35-3.91c.61.38.86.81.74,1.29S1542.92,1050.2,1542.74,1050.2Z" style="fill:#5a5a5a"/><path d="M1542.74,1050.2c-.1-.68-.19-1.37-.29-2l15-15.93,10.71-6,2,.17Z" style="fill:#333"/><path d="M1724.36,1044.77c.16-.63.33-1.26.49-1.89l3.46.28c1.9,3.52,6.49,4.9,7.35,9.24l-7.15-3.85C1725.52,1049.05,1724.34,1047.57,1724.36,1044.77Z" style="fill:#a2a2a2"/><path d="M1139.58,1234.48l-.21,5.25c-.56,1.27-1.13,2.53-1.7,3.8-7.34-.82-5.16-6.59-5.69-11-.39-3.31-2.92-7.07,2-9.28a5.72,5.72,0,0,1,.14,1.6C1135.34,1228.42,1143.4,1228,1139.58,1234.48Z" style="fill:#3b3b3b"/><path d="M1144.75,1147.73l-3.07-7.11-.11-3.73,7.26-1.94a10.45,10.45,0,0,1,.24,1.57C1150.08,1141.2,1147.11,1144.35,1144.75,1147.73Z" style="fill:#363636"/><path d="M1148.59,1122c.66,2.84-1.63,4.84-2.11,7.36l-1.9-.34C1145.05,1126.14,1145.49,1123.29,1148.59,1122Z" style="fill:#9e9e9e"/><path d="M1143.21,1166.26l11-29.51c1.2-1.85,2.41-3.69,3.62-5.54,3-3.23,6.64-5.47,11.05-5.67,5.06-.22,8.48-2.77,11.24-6.65,23.16-19,45.66-38.94,74.89-48.58,23.41-6.08,46.71-12.61,70.37-17.6,15.5-3.28,30.84-1.11,45.91,3.33q5.42,5.49,10.85,11c9.12,4.37,11.18,14.36,17,21.33,5.53,7.56,11.65,14.85,11.47,25-.47,6.8.95,13.3,3,19.72a21.79,21.79,0,0,1,.69,4.46c-.48,8.61,1.55,17.36-1.37,25.82a3.47,3.47,0,0,1-2.33,1.45c-5.87-4.39-7.87-11.49-11.87-17.2-5.83-8.33-12.12-16.14-20.1-22.52-2.91-2.32-5.77-4.6-9.8-4.29-11.16.48-11.81,1.47-8,11.87.92,2.51,3,5.32.8,7.7-2.61,2.8-5.69.84-8.42-.52-8.07-4-16.89-5.3-25.58-7.13-12.52-1.15-25-1.54-37.48.29-7.24,3-15.15,3.49-22.54,5.9-13.12,3.09-24.16,10.68-36,16.62-12.17,5.45-20,16-28.36,25.46-10,11.3-16.95,24.53-17.92,40.15-.15,2.57-.89,5.16-3.64,5.74-3.65.76-3.32-2.82-4.16-4.8-6.31-14.88-9.78-30.15-5.95-46.34.38-3.13,4.15-7.3.6-9.1-4-2-5.72,3.18-7.9,5.88-1.34,1.66-2.26,3.63-3.54,5.35-3.48,5.88-5.93,12.32-9.67,18.06s-6.33,12.22-9.82,18.14h0c-3.06.09-3.55-2.21-3.49-4.33.24-8-1.32-15.89-.26-23.84C1138.44,1179.06,1138.46,1172,1143.21,1166.26Z" style="fill:#fefefe"/><path d="M1371.32,1056c-32.67-5.77-63.6,2.63-94.6,11.16-7.55,2.08-15,5-23,5.16-18.69,5.53-34.69,15.81-49.46,28.18-8,6.66-16.64,12.35-24.65,19-3.41,2.81-7.58,4.26-11.33,0-1.06-5.93,3-9.79,6.16-13.64,17.76-21.78,37.54-41.48,60.79-57.49,12.5-9.94,27.52-14.76,42.59-17.67,16-3.09,33-5.7,49-.35C1343.16,1035.78,1359.53,1042.21,1371.32,1056Z" style="fill:#d8d8d8"/><path d="M1235.2,1048.32c-.45,5.7-6,6.47-9.31,9.2-21.63,17.82-41.88,36.88-57,60.81a1.59,1.59,0,0,1-1.83.66,3.31,3.31,0,0,1-1.87-2.51c2.29-7,7.44-12.23,11.29-18.26a251.69,251.69,0,0,1,51.28-47C1230.15,1049.56,1232.34,1048.3,1235.2,1048.32Z" style="fill:#ebebeb"/><path d="M1332.29,1028.32c16.14,2.5,29.55,10.16,41,21.57-.43,1.17-1.07,1.29-1.92.39C1359.37,1041.14,1345.64,1035.06,1332.29,1028.32Z" style="fill:#2b2b2b"/><path d="M1371.37,1050.28l1.92-.38c10.85,9.4,19.83,20.24,25.79,33.41a2.69,2.69,0,0,1-2.34.49c-5.11-4.93-8.55-11-12-17.17C1381.9,1059.88,1375,1056.41,1371.37,1050.28Z" style="fill:#5f5f5f"/><path d="M1384.78,1066.63c5.5,4.62,8.65,11,12.27,16.94,1.66,1.67,1.69,3.42.25,5.23l-15.12-21.8Z" style="fill:#d8d8d8"/><path d="M1285,1024.72h20.62c-6.8,1.7-13.76,1.43-20.69,1.57-.63-.38-.83-.74-.6-1.09S1284.76,1024.72,1285,1024.72Z" style="fill:#4b4b4b"/><path d="M1285,1024.72c0,.52-.07,1-.07,1.58a30.33,30.33,0,0,1-12.82,2C1275.91,1025.39,1280.43,1025,1285,1024.72Z" style="fill:#434343"/><path d="M1306.55,1024.74c5.74-.34,11.55-1.68,17,1.35C1317.85,1026.14,1312.13,1026.36,1306.55,1024.74Z" style="fill:#4b4b4b"/><path d="M1165.22,1116.48l1.88,1.87c1.79,4.92,5.39,4.11,9,2.7,1.87-.73,3.42-2.89,5.69-.9-4.93,10.29-16.41,6.4-23.94,11.06C1159.78,1126,1160.52,1120.27,1165.22,1116.48Z" style="fill:#f1f1f1"/><path d="M1143.21,1166.26q-1.89,9.15-3.79,18.31a2,2,0,0,1-3.2.18c-.07-9.08,2.51-17.58,5.73-25.94C1144.09,1161,1142.68,1163.79,1143.21,1166.26Z" style="fill:#9d9d9d"/><path d="M1144.75,1147.73l4.32-11.21c3,6.18-1.86,10.08-4.3,14.68C1144.76,1150,1144.76,1148.89,1144.75,1147.73Z" style="fill:#777"/><path d="M1686.31,1145.6c-5.31-4.84-11.24-8.36-18.63-8.74l.07,0c-3.42-2.37-7.49-2.67-11.37-3.58l-7-2c-3.37-2.51-7.66.39-11.08-1.87h0c-2.34-2-5.35-.3-7.86-1.4a77.74,77.74,0,0,0-19.34,0c-1.78.54-3.62.3-5.43.44a137.39,137.39,0,0,0-32.44,12.61,4.15,4.15,0,0,1-3.5-1.83,6,6,0,0,1-.7-2.62,5.92,5.92,0,0,1,1-2.49c4.24-3.92,9.33-6.4,14.62-8.53,3.72-1.16,7.36-2.61,11.16-3.53,3.06-.56,6.22-.48,9.2-1.58a16.37,16.37,0,0,1,2.75-.64c9.68-.56,19.34-.49,29-.11a15.85,15.85,0,0,1,2.64.54,42,42,0,0,0,8.59,1.92,12.3,12.3,0,0,1,2.29.76,28.16,28.16,0,0,0,8.8,2.92,13.24,13.24,0,0,1,2.19.77,48.44,48.44,0,0,0,7.45,3,12.81,12.81,0,0,1,2.08,1c2.23,1.63,4.88,2.18,7.48,2.87a11.34,11.34,0,0,1,2.19,1.06c5.17,3.46,10.15,7.23,16.17,9.19,6.46,2.49,10.19,8.28,15.21,12.52,2.11,2.21,4.66,4.15,5.82,7,1.35,3.36,1.36,6.17-3.71,4.59C1706.1,1158.79,1696.48,1151.86,1686.31,1145.6Z" style="fill:#323232"/><path d="M1571.87,1140.28c10.84-5,21.42-10.62,33.38-12.62.62.42.83.85.65,1.3s-.39.67-.59.67c-12.2,3.6-24.09,7.95-34.92,14.81a3.18,3.18,0,0,1-1.07-2.2C1569.64,1140.89,1570.22,1139.89,1571.87,1140.28Z" style="fill:#444"/><path d="M1605.31,1129.63l-.06-2,5.4-.21a53.64,53.64,0,0,1,20.4,0c2.51.31,5.43-.86,7.28,1.94Z" style="fill:#494949"/><path d="M1564.8,1149.7c-5.44,3.82-7.92,1.75-7.58-4.22.16-3,1.49-5.88,2.3-8.81,2.34-.09,2.69,1.61,3,3.34a11.34,11.34,0,0,1-.19,2.47C1561,1145.62,1563.16,1147.57,1564.8,1149.7Z" style="fill:#5f5f5f"/><path d="M1570.34,1135a6.32,6.32,0,0,0-.28,1.36c-4,3.35-7.13.28-10.49-1.26.26-.73.53-1.47.8-2.2,3.2-.36-.34-6.16,4.31-5.35l1.73,1.75A7.05,7.05,0,0,1,1570.34,1135Z" style="fill:#616161"/><path d="M1564.8,1149.7c-5.89-.17-7.28-2.7-4-7.66,3,2.59,6.14-.55,9.21.07.12.78.25,1.55.37,2.33Z" style="fill:#333"/><path d="M1559.57,1135.11l10.49,1.26c.06.73.12,1.45.17,2.18-2.66,2.41-5.44,4.25-9.11,1.94-.53-1.28-1.07-2.55-1.6-3.82A3.05,3.05,0,0,1,1559.57,1135.11Z" style="fill:#333"/><path d="M1656.38,1133.3c4.35-.59,8.43-.33,11.37,3.58A27.22,27.22,0,0,1,1656.38,1133.3Z" style="fill:#494949"/><path d="M1564.68,1127.56c-2.33,1.06-1.23,4.88-4.31,5.35q1.17-5.45,2.36-10.89C1565,1123.28,1564.62,1125.5,1564.68,1127.56Z" style="fill:#636363"/><path d="M1638.31,1129.42c3.75.28,7.85-1.51,11.08,1.87C1645.63,1131.06,1641.71,1131.82,1638.31,1129.42Z" style="fill:#494949"/><path d="M1557.21,1122l-.88,0-.87,0c2.23-1.44,4-5.76,7.16-1Z" style="fill:#616161"/><path d="M1725,1228.76c-.68,7.49,1.53,15.2-1.73,22.5-1.78-3.2-1.39-6.47-.28-9.75,0-9.47-2.75-18.39-5.53-27.3l.09-3.82c4.14,4.83,3.56,11.7,7.22,16.74A5.35,5.35,0,0,0,1725,1228.76Z" style="fill:#555454"/><path d="M1732.06,1230.65c2.76-9.73,1.16-19.41-.3-29.09l.64-.49c6.61,3.84,5,10.65,5.84,16.51.53,3.9-.77,7.7-1.7,11.47a9.51,9.51,0,0,1-1.25,2.75,2.79,2.79,0,0,1-2.58,1.2A1.43,1.43,0,0,1,1732.06,1230.65Z" style="fill:#686868"/><path d="M1732.06,1230.65c.07.61.15,1.22.22,1.83,2.33,2.6,2.46,5.77,2.32,9-.15,2.18-.59,4.25-2.42,5.73A17.42,17.42,0,0,1,1732.06,1230.65Z" style="fill:#9e9e9e"/><path d="M1732.18,1247.22c0-1.85.06-3.7.1-5.55a1.67,1.67,0,0,1,2.06-.37c1.14.93,2.06,2.14,3.46,2.74a6.23,6.23,0,0,1,1.73,1.24c0,1,.07,2,.11,3C1737,1249.17,1734.32,1250.06,1732.18,1247.22Z" style="fill:#686868"/><path d="M1739.53,1245.28a11.37,11.37,0,0,1-1.75.14c-3.85-4.25-1.39-10-3.57-14.69,2.39-10.07,2.55-20-1.81-29.66-2.62-13-10.57-23.06-18.46-33.14,2.84-.28,4-1.44,1.94-4-1.86-2.34-3.83-4.59-5.75-6.88a3.65,3.65,0,0,1,3.69-.91c3,1.32,5,3.76,6.91,6.22,4.83,7.07,10.54,13.56,14.08,21.49,6.51,14.64,8.53,30,6.89,45.81-3.11,4.29,2.2,9.77-2,13.9C1739.67,1244.12,1739.6,1244.7,1739.53,1245.28Z" style="fill:#494949"/><path d="M1301.48,1254.56c-11.14.78-19.37,8.24-28.39,13.31-10.53,5.92-19.81,14.1-29.44,21.55-3.58,2.77-6,1.56-8.72-1-26.43-24.88-22.65-69.75,10.65-88.88,15.88-9.12,32.43-8.76,49.52-6.22,2.11.31,4.25.36,6.38.53,11.67-1.08,17.76,8.08,25,14.38a41.15,41.15,0,0,1,11.78,17.1c.62,2,.63,4.18,1.19,6.24,1.86,6.86-.37,11.28-7.67,12.5-3.35.56-6.28,2.16-9.29,3.53a15.91,15.91,0,0,1-2.42,1c-6.3.51-11.39,4.59-17.39,6Z" style="fill:#221b1b"/><path d="M1336.45,1225.11c-8.48-14-19.37-25.27-35-31.3-18.64-10.49-37.21-5-56.54,1.27,1.5-4.28,7.42-2.22,6.77-6.89v0c3.44-2,7.93-.88,11.09-3.72l0,0c14.28-3,28.42-2,42.48,1.43,11,2.68,20.56,7.79,27.6,17,8.57,10.78,17.49,21.4,16.55,36.5-.13,2.11.14,4.32-1.65,6a258.36,258.36,0,0,0-42.79,11.23c-1.7.59-5.29,3.52-3.45-2.09,6.12-2.5,12.09-5.36,18.4-7.36,3.68-1.42,7.23-3.18,11.07-4.14,9.88-2.48,10.54-3.57,7.32-12.86C1337.68,1228.5,1337.74,1226.56,1336.45,1225.11Z" style="fill:#0d0c0c"/><path d="M1334.67,1251a20.28,20.28,0,0,1-12.84,3.68A16.84,16.84,0,0,1,1334.67,1251Z" style="fill:#4c4c4c"/><path d="M1308.56,1261.55l-5.33.29a11.39,11.39,0,0,1,9.27-3.66Z" style="fill:#575757"/><path d="M1295.94,1265.56c-2,2.37-4.43,3.79-7.66,3.39A7.83,7.83,0,0,1,1295.94,1265.56Z" style="fill:#575757"/><path d="M1332.82,1203c-8-5.89-15.26-13-25.6-14.76-1.18-1.44-5.26-.11-3.84-4a3.89,3.89,0,0,1,3.87.33c7.36,1.61,13.07,6.54,19.62,9.77l6.18,6.52C1333,1201.51,1332.9,1202.23,1332.82,1203Z" style="fill:#4b4b4b"/><path d="M1307.25,1184.5l-4.17.24c-2.41,1.49-4.47,1.71-5.64-1.49.22-.29.44-.57.67-.85C1301.16,1183.05,1304.63,1181.91,1307.25,1184.5Z" style="fill:#515151"/><path d="M1297.44,1183.25l5.64,1.49,4.14,3.45c-14.57-4.31-29.54-3.72-44.47-3.64C1274.14,1179.53,1285.76,1180.73,1297.44,1183.25Z" style="fill:#151111"/><path d="M1262.79,1184.51c-2.34,5.29-7.07,3.46-11.09,3.72C1254.7,1184.92,1258.64,1184.42,1262.79,1184.51Z" style="fill:#151111"/><path d="M1763.3,1098.77q1.46,2.52,2.92,5c3.34,1.28,3.11,4.83,4.59,7.28l0-.08c2.14,2,2.47,5,3.72,7.45l-.12,0a151.38,151.38,0,0,1,9.25,20.54c-.69,4.75,4,9.22.73,14.1-4.78,1.35-4.88-2.86-5.62-5.32-2.3-7.65-5.79-14.84-8.15-22.45-.77-3.37-1.89-6.91-5.54-7.81-15-3.71-24.82-15.31-37-23.38-4.08-2.72-7.93-5.73-12.53-7.57-18.28-12.41-38.43-20.09-60-24.37a230.25,230.25,0,0,1-28.41-7.52c-23.44-7.81-47.1-5.36-70.82-2.05-3.87-3.7-.32-5.91,1.7-8.42,10-11.69,24.92-15.71,37.23-23.84,13.56-5.55,27.78-6.31,42.17-5.77,1,0,2.06,0,3.08,0,8,1.47,16.45,1,23.39,6.32,24.66,8.81,47.66,20.36,66.92,38.68,10.68,10.16,19.3,22,28.85,33.06C1761.69,1094.18,1762.5,1096.47,1763.3,1098.77Z" style="fill:#d8d8d8"/><path d="M1724.36,1044.77l4.15,3.78c-1.1,4.74-3.88,1.79-5.16.67-15.19-13.36-33.57-20.79-51.92-28.29,1.9-2.25,4.94,0,7-1.78l11.49,5.31,7.09,2.15A160.86,160.86,0,0,0,1724.36,1044.77Z" style="fill:#434343"/><path d="M1663.87,1020.9l-23.53-4.32c.92-4.34,4.43-2.64,7.05-3,3.31.35,6.38,2.06,9.81,1.79,3.7,1.57,9.14-.54,10.86,5.17Z" style="fill:#434343"/><path d="M1781.88,1138.63q-3.75-10.11-7.51-20.21c5.77,7.65,10.43,15.8,11.38,25.6l-1.07.53C1781.59,1143.6,1784,1140.07,1781.88,1138.63Z" style="fill:#5a5a5a"/><path d="M1668.06,1020.51c-3.15-3-7.1-3.49-11.17-3.61,0-3.15,1.57-2.91,3.6-1.67,3.86-.46,7.32,1,10.85,2.21,2,2.25,4.68,1.25,7.05,1.71-1.76,2.79-4.63,1.22-7,1.78Z" style="fill:#1d1d1d"/><path d="M1789.27,1149.66q-.06,3.79-.14,7.59c-5.54-3.12-4.64-8.06-3.69-13l.3-.21Q1787.51,1146.84,1789.27,1149.66Z" style="fill:#5a5a5a"/><path d="M1763.3,1098.77c-1.7-1.76-3.41-3.51-3.66-6.13C1763.93,1092.85,1763.52,1095.86,1763.3,1098.77Z" style="fill:#505050"/><path d="M1774.49,1118.46a11.86,11.86,0,0,1-3.72-7.45C1774.3,1112.35,1774.76,1115.23,1774.49,1118.46Z" style="fill:#505050"/><path d="M1770.81,1111.09l-4.59-7.28C1770.56,1104.46,1771,1107.57,1770.81,1111.09Z" style="fill:#505050"/><path d="M1785.44,1144.23a25.47,25.47,0,0,0,3.69,13,3.58,3.58,0,0,0,.15,1.59c2.13,2.82-.27,6.48,1.73,9.32l0-.06c2.65,4.09-.36,9,1.84,13.13.06,1.74.13,3.48.2,5.22,1.81,5.65.44,11.45.81,17.16-1.54,4.21-3,8.75-8.28,3.21a23.94,23.94,0,0,1-5.37-11.22c-.61-2.47-1.23-4.93-1.84-7.39a3.5,3.5,0,0,1,3.63.63,9.23,9.23,0,0,1,1.71,1.92c1.28,1.92,1.9,4.29,4.32,6.64,1-4.57-1.21-8.14-1-11.81-.54-5,1.16-10.42-2.24-15.06a12.62,12.62,0,0,1-1-2.52c-.62-3.15-.65-6.38-1.53-9.48a5.75,5.75,0,0,1,1.51-5.21l-1.89-14.69Z" style="fill:#a1a1a1"/><path d="M1792.88,1204.77q.06-9.16.13-18.32a30.16,30.16,0,0,1,.09,22.19A2.73,2.73,0,0,1,1792.88,1204.77Z" style="fill:#616161"/><path d="M1792.88,1204.77c.07,1.29.14,2.58.22,3.87l-3.82,3.51c-1.13-1.86-3.91-2.56-3.74-5.34C1788.75,1208.88,1791,1207.47,1792.88,1204.77Z" style="fill:#787878"/><path d="M1792.81,1181.23c-2.58-4.1-1.34-8.74-1.84-13.13C1794.7,1172,1792.44,1176.82,1792.81,1181.23Z" style="fill:#5a5a5a"/><path d="M1791,1168.16c-2.4-2.77-1.58-6.13-1.73-9.32C1792.34,1161.49,1790.81,1165,1791,1168.16Z" style="fill:#5a5a5a"/><path d="M1520.25,1098l2.16-9.08,2.49-2.27c3,.92,3,3.49,3.22,5.93-5,18.67-6.49,37.73-6.92,57,4,1.18,5.13-2.89,7.87-2.79a3.06,3.06,0,0,1,2.49.93c-1.12,4-5.09,6.64-5.51,11-5.57,5-9.14,4.89-9.35-3.69a68.78,68.78,0,0,1,0-21.95c-.13-3.1,1.92-6.15.19-9.28,2.25-2.8-.22-6.49,1.76-9.33C1515.76,1108.69,1520.18,1103.58,1520.25,1098Z" style="fill:#5c5c5c"/><path d="M1516.65,1133.15q0,11,0,21.95A31.41,31.41,0,0,1,1516.65,1133.15Z" style="fill:#2c2c2c"/><path d="M1518.6,1114.54c-.34,3.15,1.22,6.67-1.76,9.33C1517.33,1120.74,1515.91,1117.25,1518.6,1114.54Z" style="fill:#4f4f4f"/><path d="M1638.39,1016.52c-14.93.31-29.84.81-44.05,6.25-1.93.92-3.84,1.34-5.7-.16,0-.57,0-1.13.11-1.7,4.37-2.2,8.61-4.76,13.73-4.82,11.4-4.33,23.27-3.83,35.13-3.42C1639.5,1013.62,1639.37,1015,1638.39,1016.52Z" style="fill:#4a4a4a"/><path d="M1588.64,1022.61l5.7.16c-11.82,7.22-25.23,11.94-35.08,22.28-1.5.53-1.84-.34-1.86-1.57C1564.83,1032.06,1577.71,1028.79,1588.64,1022.61Z" style="fill:#757575"/><path d="M1557.4,1043.48l1.86,1.57c-1.1,2.4-3.85,3.88-3.88,6.88-2.65,6.91-7.28,12.36-12.64,17.28a3.34,3.34,0,0,1-2.49-.57,5.09,5.09,0,0,1-.85-3.78c2.32-6.88,8.66-10.72,12.48-16.48Z" style="fill:#b8b8b8"/><path d="M1540.77,1064.94l0,3.72c-1.66,10-6.26,18.13-14.69,23.95-.5-2,.47-4.22-1.21-5.94l1.16-1.43c5.1-5.29,6.83-12.66,11.31-18.34l-.09.14C1538.06,1065.71,1538.55,1063.88,1540.77,1064.94Z" style="fill:#a1a1a1"/><path d="M1540.77,1064.94l-3.49,2.1c2-8.42,8.07-13.74,14.6-18.66C1549.77,1055,1542.86,1058.34,1540.77,1064.94Z" style="fill:#333"/><path d="M1537.37,1066.9c-2.68,6.79-4.82,13.91-11.31,18.34C1529.28,1078.79,1531.28,1071.59,1537.37,1066.9Z" style="fill:#333"/><path d="M1601.49,1017c-4.37.9-7.82,4.79-12.74,3.92-1.43-.16-2.87-.31-3.62-1.83,5.76-.05,10.38-4.94,16.4-3.83.63.4.83.79.61,1.17S1601.71,1017,1601.49,1017Z" style="fill:#1a1a1a"/><path d="M1557.5,1112.89l-2,1.78c-2.84,1.24-4.39,4.77-8,4.57a2.1,2.1,0,0,1-1.68-1.91c2.35-7.4,8.29-11.19,14.81-14.06,5.82-2.58,12-3.42,17.37,1.08,5.09,4.28,3.54,9.87,1.47,15.73,7.75-1.76,14.64-7,22.25-2,.36,4.26-3.17,3.31-5.45,4.11-4.19,1.47-8.62,2.23-12.61,4.26-4.46,1-8.5,7-13.24,2.79-4.58-4.1,1.58-8.22,1.82-12.54.1-1.78,1-3.53,0-5.3C1566.92,1107.9,1562.22,1110.52,1557.5,1112.89Z" style="fill:#e3e3e3"/><path d="M1574.1,1108.94c3.5,3.91.51,7.2-.95,10.7-1.21,2.9-4.52,6.12-1.68,9,2.62,2.62,5.33-1.22,8.06-2,1.15-.32,2.28-.73,3.42-1.1,1.85-.84,2.21.14,2.09,1.7l-14.7,7.79a6,6,0,0,1-3.93-5.7c-.69-4.35,1.85-7.65,3.63-11.2-.63-1.66.24-3,.9-4.39a25.07,25.07,0,0,1,2.18-4.13Z" style="fill:#787878"/><path d="M1572.16,1114.66c-.7,1.15-1.41,2.3-2.12,3.45-4.2.55-6.89-1-7.44-5.44.81-4.38,4.17-4.18,7.44-4.14C1572.16,1110.08,1572.66,1112.2,1572.16,1114.66Z" style="fill:#161616"/><path d="M1569.86,1109.39a13.47,13.47,0,0,0-7.25,3.28l-5.11.22c4.53-5.53,9.75-8.16,16.6-4l-.58.59A3,3,0,0,1,1569.86,1109.39Z" style="fill:#787878"/><path d="M1546.23,1125.63l-9.12,13a1.44,1.44,0,0,1-2.33,0c-.77-7,3.2-11,9-13.84A3.2,3.2,0,0,1,1546.23,1125.63Z" style="fill:#636363"/><path d="M1546.23,1125.63l-2.07-.07c-2-4.52,1.38-5.66,4.4-7,2.54-.87,3.74-4.18,7-3.85Z" style="fill:#787878"/><path d="M1535,1138.5l2.15.09-5.55,9.19-2.12-.08C1527.91,1142.61,1529.38,1139.32,1535,1138.5Z" style="fill:#626262"/><path d="M1397.3,1088.8c-.08-1.74-.16-3.49-.25-5.23l2-.26,1.93,1.88c4.31,1.38,5.22,5.36,6.81,8.83,1.16,2.77,2.65,5.4,3.73,8.21,1.33,4.8,2.32,9.68,3.88,14.44a15.77,15.77,0,0,1,.68,2.95,177.58,177.58,0,0,1,.82,51.42c-2.26,2.69-4.62,5-8.3,2.09a6.1,6.1,0,0,0-.37-1.41c-1.58-2.74-3.09-5.5-2.43-8.86,2.26-1.78,3.16.06,4.18,1.57v0c2.13.7,2.84-.64,2.77-2.3-.33-8.5,1.11-17.06-.78-25.51l-.11-3.58c-1.9-6.68-1.37-13.77-3.51-20.41C1408.5,1102.94,1401.52,1096.51,1397.3,1088.8Z" style="fill:#a8a8a8"/><path d="M1410,1164.43l-3.74-1.78a7.78,7.78,0,0,1-5.1-4.21c-.55-5.3-4.53-8.68-7.19-12.8l-2.19-3.35a37.87,37.87,0,0,0-6.09-7c-2.61-2.4-4.83-5.22-7.78-7.26-3.22-2.36-7.68-3.19-9.27-7.55a2.88,2.88,0,0,1,1-2.18c9.35,1.06,14.8,8.16,20.27,14.33C1398.23,1142.06,1406.34,1151.92,1410,1164.43Z" style="fill:#e1e1e1"/><path d="M1422.77,1135v40.3c-.91,3.2-1.14,6.64-3.35,9.38l-.39,5c-7,1.13-6.25-5.42-8.76-8.75,1.83-1.15,4.25-1.47,5.28-3.75a2.74,2.74,0,0,1-.58-2.42c.7-1.64,1.85-3.07,2.27-4.84,2.31-8.92.41-17.86.22-26.8C1418.39,1139.86,1415.2,1133.91,1422.77,1135Z" style="fill:#0b0b0b"/><path d="M1401.17,1158.44c2.94-.1,4,2,5.1,4.21-.06,3.18,3.07,5.66,2,9.07C1404.05,1168.28,1402.18,1163.59,1401.17,1158.44Z" style="fill:#616161"/><path d="M1415.83,1175.61c-.09.53-.18,1.05-.28,1.57-3.21.19-6.33.23-6.92-4l6.95-1.45A3.15,3.15,0,0,1,1415.83,1175.61Z" style="fill:#616161"/><path d="M1325.51,1141.9c.75-4.69,4.55-2.88,7.25-3.4,10-3.45,17.45,2.4,25.29,6.87,1.06.72,2.11,1.48,3.21,2.15.75.37,1.48.78,2.21,1.19,3.85,2.09,8.76,2.91,10,8.22,1.6,1.47,1.33,3.38,1.27,5.24l-6.46,1.7q-2.16-3.27-4.3-6.54c-4.18-3.91-8.6-7.38-14.58-8C1341.45,1146.72,1334.22,1142,1325.51,1141.9Z" style="fill:#171717"/><path d="M1349.35,1149.34c7-1.31,11.3,2.45,14.58,8Z" style="fill:#2d2d2d"/><path d="M1362.21,1149.69l-1.77-1c0-2.53,4.84-2.58,3.07-6a8.52,8.52,0,0,1,0-5.87c1.63-1.9,2.84-4.48,6.09-3.72.5,5.59,2.75,11,1.79,16.75C1368.29,1152.11,1365.25,1150.89,1362.21,1149.69Z" style="fill:#595959"/><path d="M1369.57,1133c-1.83,1.16-2.53,4-5.39,3.64l-.93-.87a5,5,0,0,1,.17-4.83c2.41-2.17,3.95-5.06,6-7.52,3.26-.14,5.22,2.39,7.76,3.75a1.53,1.53,0,0,1-.29,2.18l-1.8,1.86C1373.06,1131.23,1370.9,1130.85,1369.57,1133Z" style="fill:#3f3f3f"/><path d="M1362.21,1149.69l9.16.1c.68,2.38,1.37,4.76,2.05,7.14C1370.76,1152.85,1365.08,1153.44,1362.21,1149.69Z" style="fill:#2d2d2d"/><path d="M1376.91,1129.39c-.09-.49-.18-1-.28-1.46.54-1.11,1.25-1.23,2.12-.36a17.47,17.47,0,0,1,7.43,7.26c.57.46.74.91.53,1.34s-.4.64-.6.64Z" style="fill:#606060"/><path d="M1386.11,1136.81c0-.66.05-1.32.07-2,2.89,1.72,5.29,3.81,5.61,7.46A11.81,11.81,0,0,1,1386.11,1136.81Z" style="fill:#616161"/><path d="M1632.82,1186.45c15.16-1.89,30.32-4.22,45.18,1.75,40.16,16.12,45.84,59.56,22.86,89.16-4.07,5.24-9.08,3.28-13.77-.18a263.09,263.09,0,0,0-46.59-27.08c-3.06-1.41-5.93-3.28-9.52-2.9-2.27,2-4.55,1.39-6.83,0-5.94-4-12.73-5.6-19.61-7.06-12.57-2.68-15.16-7.89-9.86-19.56,1.51-3.32,3.26-6.55,4.58-10,3.79-5.54,6.86-11.83,14-14a28.16,28.16,0,0,0,3.22,2.2c1.06,3.33-1.49,5.43-2.69,8-.6,1-1.24,2-1.78,3.09-1.51,3.76-1.13,7.59-.43,11.42.25.73.45,1.47.65,2.21a9.64,9.64,0,0,0,4.31,6.43c12.31,8,20,7.77,29.71-.75,8.28-11.11,8.66-18.16,1.51-28.69-9.38-9.12-14-9.93-25.2-4.5-2.62,1.27-5.13,3.8-8.32,1.14C1617.2,1188.83,1623.19,1185.35,1632.82,1186.45Z" style="fill:#221b1b"/><path d="M1625.45,1245.36c1.34,2.15,3.51,1.77,5.53,1.84l8.37,6c-3.76,2.74-6.74.36-9.49-.6-13.76-4.8-27.65-9-42.13-10.88-5.83-.75-5-4.53-4-8,5.46-19,13.32-36.47,32.14-46.29,1-.5,1.51-1.84,2.24-2.79,16.07-10.22,33.41-11.6,51.54-7.38,3.42,2.07,7.59,1.88,11.1,3.67l0,0c2,2.06,5.17,1.84,7.23,3.76l18.51,14.74c1.67,2.58,3.79,4.82,5.56,7.32v6.65c-5-5.8-9-11-13.59-15.49-17.75-17.1-39.08-19.15-61.92-14-1.35.31-2.45,1.7-3.67,2.58-6.91,2.39-14.49,3.68-18.4,11.06h0c-5.79,2.8-8.88,8.3-12.9,12.88a58.37,58.37,0,0,0-7.66,14.52c-2.7,8-1.06,11.32,7.22,13.24S1617.58,1242.13,1625.45,1245.36Z" style="fill:#0f0d0d"/><path d="M1722.94,1241.51c.09,3.25.19,6.49.28,9.74q-1.12,6.15-2.26,12.29l-3.76,3.65Q1720.06,1254.35,1722.94,1241.51Z" style="fill:#4e4d4d"/><path d="M1680.73,1180.89c-4.18.23-8.19-.05-11.1-3.67C1673.78,1177.08,1677.74,1177.51,1680.73,1180.89Z" style="fill:#171313"/><path d="M1712,1206.69c-3-1.57-5.38-3.61-5.56-7.32C1709.49,1200.91,1711.7,1203.07,1712,1206.69Z" style="fill:#171313"/><path d="M1687.94,1184.63c-3.14.14-5.93-.38-7.23-3.76C1683.78,1180.86,1686.62,1181.29,1687.94,1184.63Z" style="fill:#171313"/><path d="M1174.43,1175.4c-4.16,12.95-1.06,35,7.85,51.58,1.26-6.49,1.92-11.81,3.34-16.92,6.64-23.85,22.83-40.64,41.62-55.4,1.1-.86,2.86-.9,4.31-1.32-.19,6.68-7.22,7.61-10.11,12a338.23,338.23,0,0,0-23.12,26.49c-9.71,11.37-11.42,25.3-12.47,39.4-.25,3.34,0,6.72,0,12.09-5.37-6.36-7.16-12.38-9.34-18.17-1.15-3.07-1.21-6.84-5.28-8a10.8,10.8,0,0,0,.46-1.11c-2.71-10.37-2.5-21.07-3.49-31.63-.34-3.61-.37-7.41,3.39-9.74A3.09,3.09,0,0,1,1174.43,1175.4Z" style="fill:#e7e7e7"/><path d="M1198.32,1191.85c5.25-10.89,14.29-18.73,22.15-27.53a3.08,3.08,0,0,1,3.7-.44,1.43,1.43,0,0,1,.45,1.51c-.18.49-.35.74-.52.74-8.49,7.62-17.78,14.56-22.06,25.78l-3.26,2.1C1198.62,1193.29,1198.47,1192.57,1198.32,1191.85Z" style="fill:#585858"/><path d="M1189.1,1226.86l0,11.2A9.83,9.83,0,0,1,1189.1,1226.86Z" style="fill:#585858"/><path d="M1187.45,1249.12q-1,2.75-2,5.51c-3.36-3.53-1.14-5.6,1.94-7.44C1187.38,1247.83,1187.42,1248.48,1187.45,1249.12Z" style="fill:#585858"/><path d="M1224.06,1164.12l-3.59.2c2-5.33,8.32-6.38,11.08-11,11.29-6.32,22.18-13.45,35-16.62,1.11,2.86-1.66,3.58-2.85,5.18-7.65,3.74-15.82,6.45-22.87,11.42a.92.92,0,0,0-.41,1.14l-3.32.77c-2.77,1.41-4.66,4.09-7.61,5.22l.07-.06A14.25,14.25,0,0,1,1224.06,1164.12Z" style="fill:#b9b9b9"/><path d="M1229.45,1160.45c1.75-2.88,4.12-4.87,7.61-5.22C1235.33,1158.16,1233.42,1160.8,1229.45,1160.45Z" style="fill:#474747"/><path d="M1224.06,1164.12c1.28-2,2.91-3.55,5.46-3.73-.79,2.88-2.84,4.56-5.42,5.74C1224.09,1165.46,1224.07,1164.79,1224.06,1164.12Z" style="fill:#474747"/><path d="M1422.77,1135c-5.79,1.25-2.56,6-3.48,9.08a1.63,1.63,0,0,1-2.54-.58c0-9.11-.28-18.2-3-27l0,0c-1.13-4.38-1.34-9-2.66-13.29-1.14-3.29-2.25-6.6-5.42-8.62l-4.62-9.46c1.16-1.2,2.32-2.41,3.49-3.61,3.71,6.83,7.64,13.56,11.1,20.52C1420.74,1112.43,1419.66,1124.2,1422.77,1135Z" style="fill:#1f1f1f"/><path d="M1419.42,1184.71c.52-3.34,1.19-6.63,3.35-9.38C1423,1178.93,1423.37,1182.59,1419.42,1184.71Z" style="fill:#262626"/><path d="M1601.49,1017c0-.58,0-1.16,0-1.74,17.68-6.23,35.68-4.18,53.69-2l5.31,0c0,.66,0,1.32,0,2-1.42.08-2.8.25-3.6,1.67a15.45,15.45,0,0,1-9.27-1.68c-2.81-2.21-6.49.37-9.33-1.68C1625.78,1012,1613.66,1014.81,1601.49,1017Z" style="fill:#252525"/><path d="M1136.22,1184.75l3.2-.18c1.33,9.79-2.53,19.91,1.91,29.49,0,1.23,0,2.46,0,3.68-1.44,1.61-2.61,4.07-5.31,1.68q0-9.09,0-18.17c2.07-4.25-.52-8.29-.59-12.44a2.26,2.26,0,0,1,.36-2.36A7.7,7.7,0,0,0,1136.22,1184.75Z" style="fill:#c2c2c2"/><path d="M1133.93,1223.3c-3,2.59-1.29,6.19-2,9.28-3.49-9.06-.8-18.5-1.72-27.72,0-2.44.09-4.87.14-7.31,2.81,1.61.66,5.51,3.3,7.19Q1133.82,1214,1133.93,1223.3Z" style="fill:#434343"/><path d="M1135.73,1186.45l.51,1.77c.41,2.49,1.28,5-.65,7.3a7.82,7.82,0,0,0-1.37.33C1134.28,1192.65,1133,1189.22,1135.73,1186.45Z" style="fill:#5a5a5a"/><path d="M1358.8,1147.65c-8.47-3.67-16.38-8.88-26-9.15-13.92-5-28.07-4.79-42.33-1.79a3.07,3.07,0,0,1-.54-3,3.82,3.82,0,0,1,2.84-2.07c20.09-1.09,40.08-1.21,59.07,7.06a27.75,27.75,0,0,1,6.87,4.43A3.81,3.81,0,0,1,1358.8,1147.65Z" style="fill:#343434"/><path d="M1290.35,1134.58c0,.71.05,1.42.08,2.13-17.84,1.68-33.37,10.26-49.64,16.61,5.91-6.75,15-8,22.09-12.65C1271.67,1137,1280.31,1132.64,1290.35,1134.58Z" style="fill:#353535"/><path d="M1739.71,1230.55a108,108,0,0,0-7.49-47.77,2.31,2.31,0,0,1,2.64-.25c5.39,4.6,6.82,11.16,8.64,17.53.78,8.35,1.31,16.73,3.38,24.9.09,3.9-2.49,5.86-5.46,7.53C1740.28,1232.34,1740.3,1231.18,1739.71,1230.55Z" style="fill:#898989"/><path d="M1746.88,1225c-5.66-1-3.3-5.53-3.75-8.66-.82-5.63-1.2-11.31-1.77-17,4.83,0,3.74,4.46,5.21,7a17.68,17.68,0,0,1,.33,6.43,2.94,2.94,0,0,1-.3,1.45c.89-.65.17-1.68.56-2.48a54.49,54.49,0,0,1,2.3-7c1.13-1.75,1.85-4.06,4.69-3.52l.48,3.66c-2.2,2.6-2.27,5.81-2.59,9C1749.94,1217.33,1747.65,1220.8,1746.88,1225Z" style="fill:#d6d6d6"/><path d="M1739.71,1230.55l1.71,1.94c.41,3.83,4.13,8.16-1.67,11Q1739.74,1237,1739.71,1230.55Z" style="fill:#686868"/><path d="M1776.46,1184.58l-3.71-1.83c-3.53-1.41-4.63-4.71-6-7.78-2-4.75-3.53-.46-5.24.27-2.79,4.78-1.15,10-1.53,15.06.86,1.78,1.24,3.53-.34,5.14l-3.31.17-1.1-1c-2.38-4.84.49-9.56.38-14.39-.15-6.61,1.32-13.11-.6-19.87-1.41-5,1.92-7.24,6.13-5.18C1767.08,1158,1777.21,1177.54,1776.46,1184.58Z" style="fill:#969696"/><path d="M1761.56,1175.24c.18-2.34-.27-5.51,2.57-6,2.63-.47,3.71,2.43,4.69,4.56,1.37,3,2.63,6,3.93,9l-1.86,1.82c-3.06-3.23-4.15-.1-5.63,1.76C1762.51,1183.14,1762,1179.2,1761.56,1175.24Z" style="fill:#575757"/><path d="M1754.15,1201.17c-1.15,1.26-2.3,2.51-3.44,3.77-3-4.18-1.27-7.23,2.33-9.85a2.56,2.56,0,0,1,2.64.72l.7-.2C1756.74,1197.9,1755.31,1199.48,1754.15,1201.17Z" style="fill:#eee"/><path d="M1759.69,1195.44c.11-1.71.22-3.43.34-5.15,2.66,2.8,1.64,6,1.12,9.25C1759.29,1198.5,1760.09,1196.78,1759.69,1195.44Z" style="fill:#585858"/><path d="M1757.82,1213.59c-3.13-2.43-1.06-5.78-1.55-8.68C1759.1,1207.39,1757.63,1210.64,1757.82,1213.59Z" style="fill:#565656"/><path d="M1755.68,1195.81a11.36,11.36,0,0,0-1.43-.15c-3.33-3.57-2.56-8.06-2.37-12.22.38-8.53,1.32-17-1.2-25.44a6.7,6.7,0,0,1,3.93-8.4,7.12,7.12,0,0,1,8.43,1.83c9.29,10,14.82,22.31,20.16,34.66.59,1.37-.15,3-1.36,4.14l-3.51-2-1.87-3.62c-2.81-9.85-8.92-17.87-14.53-26.15-1-1.48-2.45-3.06-4.48-2.28-.62.24-1.22,2.26-.88,3.06C1761.89,1171.58,1757,1183.65,1755.68,1195.81Z" style="fill:#e3e3e3"/><path d="M1172.34,1175.29c-6,9.73-.53,19.71-.5,29.56,0,3.76,2.3,7.53-.19,11.26a9.76,9.76,0,0,1-2.66-7.55c-2.44-4.82.43-10.24-1.69-15.1-.08-3.89-.53-7.83-.14-11.67.69-6.91-2.87-3.14-5.31-2.35a2.39,2.39,0,0,1-1.1-2.47c.48-2.5,2.43-4.15,3.73-6.14,1.9-2.89,3.84-7.36,8.19-4.82S1173.77,1172.2,1172.34,1175.29Z" style="fill:#a8a8a8"/><path d="M1161.42,1177.08c.14.79.28,1.57.43,2.35l-.33,3.27h0c-4.23,3.19-5.85,7.94-7.54,12.63l-3.21,2.68a1.6,1.6,0,0,1-.35-2.62l9.22-18.29C1160.22,1176.31,1160.82,1176.3,1161.42,1177.08Z" style="fill:#c1c1c1"/><path d="M1161.52,1182.7c1.6.91,3.07,2,3.45,3.91.43,2.13.38,4.28-1.47,5.78-.58.47-2,.8-2.4.46-2.13-1.79-.53-3.76,0-5.72a30.93,30.93,0,0,0,.46-4.43Z" style="fill:#2f2f2f"/><path d="M1167.3,1193.46c2.53,4.81,1.24,10,1.69,15.1C1165.33,1203.87,1167.72,1198.51,1167.3,1193.46Z" style="fill:#6b6b6b"/><path d="M1150.42,1195.39c.11.87.23,1.74.35,2.61-2.54,5.72-3.85,12.15-9.44,16.06C1142.16,1206.77,1147,1201.44,1150.42,1195.39Z" style="fill:#c2c2c2"/><path d="M1139.58,1234.48c1.72-5.24-5.78-5.18-5.51-9.58C1139.72,1225.9,1144.69,1227.3,1139.58,1234.48Z" style="fill:#434343"/><path d="M1135.59,1195.52c.22-2.43.43-4.86.65-7.3a12.88,12.88,0,0,1-.28,13C1135.84,1199.34,1135.71,1197.43,1135.59,1195.52Z" style="fill:#9d9d9d"/><path d="M1136,1219.42l5.31-1.68a3.89,3.89,0,0,1-3.81,4.27C1135.93,1222.17,1135.94,1220.63,1136,1219.42Z" style="fill:#9d9d9d"/><path d="M1290.35,1134.58c-9.65-.19-18.21,4.55-27.47,6.09l3.63-4,21.74-5.63a224.91,224.91,0,0,1,41.11,0c11.08.29,21,4.83,31.24,9.5.66-7.57-9-12.75-3-20.08,3.25-4,7.89-2.17,12-2.22l-.27,2.14c-9,4.21-9,4.21-5.33,16.33l.16-.11c-.21,2.08-.4,4.15,1.39,5.75-1.18,4.84-1.44,4.91-7.17,1.82C1337,1132.13,1314,1130.93,1290.35,1134.58Z" style="fill:#b7b7b7"/><path d="M1181.8,1120.15c-2.67,1.19-5.27,3-8,3.39-3.36.44-8.72,1.94-6.65-5.19l1.82,0c5.3,4.19,8.91.08,12.77-2.63,20-14,37.67-31.37,60.7-41a27.52,27.52,0,0,1,11.3-2.33c-15.15,7.74-30.86,14.46-44.09,25.58C1200.53,1105.58,1191.08,1112.77,1181.8,1120.15Z" style="fill:#dcdcdc"/><path d="M1161.42,1177.08l-.89.09-.89-.07c.67-4,3.49-6.92,5.8-9.94,1.89-2.48,4.18-5.86,8.11-3.85,3.75,1.92,3.08,5.33,1.8,8.64a30.71,30.71,0,0,0-.92,3.45l-2.09-.11c-.65-2.73,3.35-6.37-.6-8.09-3.56-1.57-4.85,2.49-6.6,4.77C1163.85,1173.64,1162.65,1175.38,1161.42,1177.08Z" style="fill:#e4e4e4"/><path d="M1329.36,1131.12l-41.11,0A97.56,97.56,0,0,1,1329.36,1131.12Z" style="fill:#b9b9b9"/><path d="M1412,1136.66c3.21,9.13,1.69,18.52,1.24,27.79-.13,2.63-2.09,4-3.23,0C1414.09,1155.44,1410.64,1145.88,1412,1136.66Z" style="fill:#e1e1e1"/><path d="M1408.39,1112.67c4.32,6.26,3.57,13.39,3.51,20.41C1408.09,1126.73,1407.9,1119.76,1408.39,1112.67Z" style="fill:#e1e1e1"/><path d="M1585,1127.22l-2.09-1.7c5.22-5,13-3.29,18.7-7.11-.31-2.17,1.31-2.62,2.76-2.59,17.51.34,35.28-2.53,52.33,4,15.27,6,30.72,11.68,44.13,21.56,5.17,3.81,10.21,7.67,13.47,13.38a2.64,2.64,0,0,1-.74,2.57l-3.47-.25c-5.31-3.09-7.94-9.63-14.44-11.18-4.88-4.78-11.25-7.25-16.87-10.88l0,0c-2.71-2-6.62-1.27-9-3.92l0,0c-3-1.36-6.39-2-9.31-3.65l0,0c-3.72-1.18-7.61-1.8-11.18-3.46l.07-.17c-2.76-2.18-6.46.35-9.22-1.83h0a134.6,134.6,0,0,0-35,0h0c-2.87,2.11-6.47-.07-9.41,1.6Z" style="fill:#9a9a9a"/><path d="M1605.18,1122a69.94,69.94,0,0,1,35,0Z" style="fill:#5a5a5a"/><path d="M1561.12,1140.49l9.11-1.94,1.65,1.73-1.86,1.83c-3.07-.68-6.22,12.18-9.21-.06C1560.9,1141.52,1561,1141,1561.12,1140.49Z" style="fill:#191919"/><path d="M1678.82,1135c6.57,2.16,13.08,4.4,16.87,10.88C1689.49,1143.11,1683.29,1140.39,1678.82,1135Z" style="fill:#434343"/><path d="M1631.05,1127.49l-20.4,0A26.48,26.48,0,0,1,1631.05,1127.49Z" style="fill:#444"/><path d="M1649.35,1124a18.34,18.34,0,0,1,11.18,3.46C1656.33,1127.84,1652.4,1127.36,1649.35,1124Z" style="fill:#444"/><path d="M1669.74,1131a11.73,11.73,0,0,1,9,3.92C1675.23,1134.89,1671.35,1135.56,1669.74,1131Z" style="fill:#434343"/><path d="M1660.48,1127.43a12.38,12.38,0,0,1,9.31,3.65C1666.06,1131.45,1662.83,1130.57,1660.48,1127.43Z" style="fill:#434343"/><path d="M1640.2,1122c3.2,0,6.5-.58,9.22,1.83C1646.26,1123.67,1642.84,1124.8,1640.2,1122Z" style="fill:#5a5a5a"/><path d="M1595.78,1123.58c2.86-2.14,6.16-1.72,9.41-1.6C1602.44,1124.82,1599,1123.66,1595.78,1123.58Z" style="fill:#5a5a5a"/><path d="M1734.21,1230.73c6.13,3.7,2.54,9.75,3.57,14.69-3.43,1.55-3.43,1.55-3.76-3.74a11.24,11.24,0,0,1,0-9.21A14.46,14.46,0,0,1,1734.21,1230.73Z" style="fill:#404040"/><path d="M1734,1232.47v9.21h-1.75c0-3.06,0-6.13,0-9.19Z" style="fill:#656565"/><path d="M1734.13,1182.73l-1.91,0q-6.62-10-13.22-20.09a2.7,2.7,0,0,1,2.52-.73C1728.23,1167.36,1735.42,1172.47,1734.13,1182.73Z" style="fill:#ababab"/><path d="M1721.17,1162.53l-2.17.16-5.4-5.41c.06-.69.11-1.38.16-2.07C1719,1154.87,1721.36,1157.4,1721.17,1162.53Z" style="fill:#bebebe"/><path d="M1306.85,1201.21a3.16,3.16,0,0,1,.48,1.43A5,5,0,0,1,1304,1205c-5.21.77-10.8-.11-15.38,3.45-7.18,4.75-7.07,11.52-4.84,18.58,2.33,7.41,7.73,11.37,15.43,12.17,2.45.26,4.82-.57,7.26-.64a5.8,5.8,0,0,1,2.52.87,1.88,1.88,0,0,1,0,2.42c-13.17,5.52-24.29,1.24-29.76-11.44-5.34-12.38-1.13-23.85,10.82-29.46C1295.64,1198.67,1301.29,1197.36,1306.85,1201.21Z" style="fill:#767272"/><path d="M1308.65,1239.48a7.31,7.31,0,0,1-1.68.23,3.45,3.45,0,0,1-1-2.4c.59-3.75,4.24-5.83,5.21-9.32,1.68-6.11,1.07-11.8-3.13-17-1.95-2.39-5.71-3.83-4.82-8l4-.42a5.2,5.2,0,0,1,1.38.56C1322.85,1214,1322.82,1231.7,1308.65,1239.48Z" style="fill:#b1afaf"/><path d="M1308.65,1239.48c12.58-12.63,12.59-21.11.06-36.28,8.34,2.24,10.88,8.62,11.28,16.25.5,9.45-1,18.1-11.07,22.38Z" style="fill:#6b6666"/><path d="M1336.45,1225.11c8.66,12.48,7.8,15.34-6,19.51-3.46,1-7,1.73-10.55,2.58a13.87,13.87,0,0,1,9.33-5.07c8.53-.44,10.73-3.93,7.6-11.64C1336.17,1228.91,1336.55,1226.91,1336.45,1225.11Z" style="fill:#151111"/><path d="M1319.88,1247.2a39.83,39.83,0,0,1-18.4,7.36C1306.91,1250.36,1312.65,1246.9,1319.88,1247.2Z" style="fill:#151111"/><path d="M1306.85,1201.21c-5.6-1.7-11.23-.83-16.87-.28C1295.67,1196.85,1301.31,1195.79,1306.85,1201.21Z" style="fill:#6b6666"/><path d="M1658.45,1122.13c-18.66-5.33-37.73-4.45-56.8-3.72-9.18-1.7-17,2.58-25,6-1.93-3.8.85-5.94,2-8.64,2.67-6.38-.68-11.73-7.63-12.14-11.45-.67-18.42,6.55-24.78,14.65-5,7.61-11.36,14.33-15.76,22.4-1.53,2.81-2.58,7.12-7,5.74-4.19-1.33-3-5.61-2.78-8.76,1.48-24.85,5.69-48.88,21.86-69.1,3.7-6,7.13-12.18,12.82-16.64,10.85-6.45,23.21-4.15,34.75-5,24.24-1.82,46.44,9.23,69.72,13.81,21,4.13,40.29,12,57.66,24.48,11.37,8.47,22.79,16.87,34,25.49,4,3.07,8.27,6.14,13.54,7.16,3.51.68,5.84,3.05,7.53,6.09q5.56,14.7,11.14,29.38l.15,5.33c1.8,2.92-.39,6.51,1.58,9.4a7.72,7.72,0,0,1,.22,1.72c3.4,5,2.5,10.63,2.62,16.14-.44,2.54,1.39,5.91-1.13,7.52-2.8,1.78-3.75-1.8-5.38-3.24v0c-4.07-13.81-11.85-25.66-20-37.25a5.23,5.23,0,0,0-6.52-1.86,4.51,4.51,0,0,0-2.68,6c5.39,12.69.35,25.72,1.63,38.5a10.5,10.5,0,0,0-3.54,9.28c-.65,2.42-1.29,4.85-1.93,7.27-1,.93-1.46,3-3.54,1.67l-.18-7.17c-5.46-21.29-15.31-39.8-32.13-54.62A137.2,137.2,0,0,0,1658.45,1122.13Z" style="fill:#fefefe"/><path d="M1693.36,1038.23a161.72,161.72,0,0,1,64.94,60.51C1738.12,1077,1717.77,1055.51,1693.36,1038.23Z" style="fill:#e5e5e5"/><path d="M1772.63,1123.94c-18.91-7.37-33.12-21.77-49.41-33.06-2.29-1.58-4.5-3.09-5.71-5.68,12.54,5.31,21.8,15.37,32.81,22.9,3.84,2.62,7.59,5.8,12.08,6.2C1768.85,1114.87,1771.35,1118.47,1772.63,1123.94Z" style="fill:#e8e8e8"/><path d="M1638.29,1013.54c3.17.21,6.64-1.21,9.32,1.68-2.45.3-5.15-.72-7.27,1.36l-1.95-.06Z" style="fill:#3f3f3f"/><path d="M1781.83,1190.19c5.59,4.33,6,.78,5.66-3.76.62-.84,1.24-.8,1.86,0,.49,3.56,1.09,7.12,1.43,10.7.18,1.79.06,4-2,4.57-2.23.58-2.88-1.66-3.58-3.25C1784,1195.74,1783,1193,1781.83,1190.19Z" style="fill:#e3e3e3"/><path d="M1789.35,1186.44h-1.86l-1.77-16.66C1792.45,1174.12,1788,1180.91,1789.35,1186.44Z" style="fill:#d8d8d8"/><path d="M1785.5,1168.05c-2.83-2.74-1.44-6.2-1.58-9.4C1787,1161.35,1785.31,1164.86,1785.5,1168.05Z" style="fill:#e3e3e3"/><path d="M1542.56,1068.57c-.21,4.17-2.29,7.76-4.65,10.77-11,14-12.72,30.48-13.74,47.28-.26,4.23-1.26,8.4-1.56,12.62-.14,1.92-1.17,4.78,1.49,5.61s3.34-2,4.29-3.78c4.63-8.62,9.76-16.83,17.8-22.78l2.37.23c-1.47,2.35-2.93,4.7-4.4,7a30.42,30.42,0,0,0-9.2,12.94,15.07,15.07,0,0,0-5.52,9.2c-3.66,1.68-3.57,9.18-7.53,7.71-4.78-1.76-2.94-8.05-2.73-12.37.83-17,1.29-34.08,6.93-50.43l14.69-23.95A17.14,17.14,0,0,1,1542.56,1068.57Z" style="fill:#ddd"/><path d="M1569.86,1109.39l3.66.14c.33,1.92.71,3.85-1.36,5.13C1571.4,1112.9,1570.63,1111.15,1569.86,1109.39Z" style="fill:#616161"/><path d="M1413.73,1116.52c5.29,8.59,3.18,18.28,4.08,27.51a68.86,68.86,0,0,1-.1,27.8c-.63,1.26-1.26,2.52-1.88,3.78-.08-1.31-.17-2.62-.25-3.93C1417.15,1153.22,1415.59,1134.87,1413.73,1116.52Z" style="fill:#414141"/><path d="M1411.9,1101.84c1.32,4.82,2.67,9.63,1.81,14.72a39.93,39.93,0,0,1-3.89-14.64A1.18,1.18,0,0,1,1411.9,1101.84Z" style="fill:#454545"/><path d="M1411.9,1101.84l-2.08.08-4.18-7.27C1409.91,1095.14,1410.29,1099,1411.9,1101.84Z" style="fill:#292929"/><path d="M1364,1136.79a47.84,47.84,0,0,1-3-4.59c-4.84-9.65-2.94-12.31,8.3-11.74,2.8,2.81,7.68,2.87,9.4,7.11l-2.12.35-7.17-3.87c-4.77.14-5.28,3.49-5.36,7.15C1364.08,1133.06,1364.05,1134.92,1364,1136.79Z" style="fill:#727272"/><path d="M1417.71,1171.83q0-13.89.1-27.79a14.66,14.66,0,0,0,1.48.07C1420.45,1153.45,1423,1162.87,1417.71,1171.83Z" style="fill:#262626"/><path d="M1358.4,1144.25c2.39-.61,5.81,2.82,7.17-1.82,2.26,4.35,2.26,4.35-5.13,6.23l-1.65-1C1358.67,1146.52,1358.53,1145.38,1358.4,1144.25Z" style="fill:#7d7d7d"/><path d="M1364.1,1131.2c-.9-2.5-5.08-4.35-2-7.62,2.33-2.46,5-.71,7.34.47C1369.86,1128.07,1368.71,1130.93,1364.1,1131.2Z" style="fill:#191919"/><path d="M1612.49,1206.64c-.17-3.18,3-4.63,3.81-7.29,14.34-10.59,22.43-10.12,33.7,2,4.91,9.13,4.39,18.06-1,26.79-2.45,1.94-3.8,5.53-7.75,5.27-4-4.67,2.09-6.47,2.76-9.82.4-.75.85-1.47,1.3-2.18,3.4-7.79,2.94-14.68-4.53-20-7.77-5.55-14.1-2.79-19.83,3.43-3.58,4.28-4.52,9.26-3.72,14.62.41,2.72,1.24,5.41-.76,7.89a4.15,4.15,0,0,1-2.85.38c-2.28-1.12-1.68-3.51-2.37-5.34C1610.63,1217,1609.91,1211.7,1612.49,1206.64Z" style="fill:#979494"/><path d="M1625.45,1245.36c-8.53-2.13-17-4.53-25.6-6.3-7.37-1.52-9.33-5.56-7.49-12.45,1.66-6.24,3.64-12.21,9.17-16.22-.66,5-3.85,8.85-5.73,13.3-3.56,8.45-1.71,12.16,7.74,14C1611.27,1239.14,1619,1240.4,1625.45,1245.36Z" style="fill:#171313"/><path d="M1614.32,1227.2l2.09-.41a51,51,0,0,0,23.76,5.66c3.34.41,4.75-2.7,7.18-4,1,.62,1.09,1.35.26,2.2-9.33,10.2-21,10.15-33.13-.15A2.13,2.13,0,0,1,1614.32,1227.2Z" style="fill:#5d5858"/><path d="M1649.21,1201.53c-10.26-11.47-21.44-9-32.91-2.18l-1.87-1.84h0c2.69.09,4.31-2,6.35-3.17,11.39-6.77,19.67-5.35,28.71,4.87A1.34,1.34,0,0,1,1649.21,1201.53Z" style="fill:#4f4a4a"/><path d="M1649.21,1201.53c.09-.78.18-1.55.26-2.32,8.42,11.28,7.83,21.15-1.86,31.49-.09-.73-.17-1.47-.26-2.2C1653,1219.86,1652.71,1210.8,1649.21,1201.53Z" style="fill:#474141"/><path d="M1612.49,1206.64l0,16.66c-.6.81-1.19.8-1.77,0h0a27.72,27.72,0,0,1-.13-14.82Z" style="fill:#5d5858"/><path d="M1610.61,1208.44q.08,7.41.13,14.82C1607.78,1218.35,1608,1213.4,1610.61,1208.44Z" style="fill:#474141"/><path d="M1610.74,1223.26c.59,0,1.18,0,1.77,0l1.81,3.9c0,1.12.11,2.24.16,3.35C1611.06,1229.24,1610.56,1226.42,1610.74,1223.26Z" style="fill:#474141"/><path d="M1658.45,1122.13c17,1.31,30.85,10.21,44.12,19.54,19,13.38,33.25,30.88,40.62,53.47a30.61,30.61,0,0,1,1.87,11.57c-2.86-1.65-.64-5.83-3.7-7.38l-7.23-16.6c-1.78-8.37-8.18-13.76-13-20.2a16.12,16.12,0,0,0-7.41-7.32,129.73,129.73,0,0,0-51.52-30.64C1660.86,1124.13,1659.71,1123,1658.45,1122.13Z" style="fill:#e3e3e3"/><path d="M1745.24,1213.88l3.54-1.67c-.28,2.28-.59,4.55-2.91,5.81Z" style="fill:#e3e3e3"/><path d="M1303.28,1203.06c3.64,4.25,9.13,7,10.68,12.93,2.29,8.7-.26,16-7.07,21.79-7,4.12-13.93,2.61-19.16-2.35-5.68-5.4-7.55-12.83-5.3-20.84.84-3,2.77-5.33,4.27-7.93C1291.6,1202.55,1297.32,1202.24,1303.28,1203.06Z" style="fill:#fbfbfb"/><path d="M1286.7,1206.66c-.87,5.33-4.41,9.86-3.72,15.77,1.45,12.36,7.5,16.46,23.92,15.35,0,.64,0,1.29.07,1.93-10.58,3.61-18.35,1.08-23.64-7.72C1277.91,1223,1279.21,1213.25,1286.7,1206.66Z" style="fill:#bbb9b9"/><path d="M1619.82,1202.88c6.32-8,13.75-8.82,22.15-3.45,6.3,7.17,8.82,15,3.86,23.94h0c-3.25,3.51-5.64,8.05-11,9-11.24,2-20.68-7-18.89-18.35C1616.52,1210.13,1617.45,1206.21,1619.82,1202.88Z" style="fill:#fafafa"/><path d="M1619.82,1202.88c-.89,3.8-2.37,7.58-2.53,11.41-.23,5.84,1,11.7,6.88,14.6,5.69,2.81,11.56,3.35,16.74-1.67a56.25,56.25,0,0,1,4.93-3.86c.19,4.33-4.4,5.68-5.67,9.09q-14.06,6.29-23.76-5.66C1614.92,1218.45,1611.7,1209.86,1619.82,1202.88Z" style="fill:#d8d7d7"/><path d="M1645.83,1223.37c3.08-8.68.23-16.41-3.86-23.94C1650.81,1206.53,1652.14,1214.77,1645.83,1223.37Z" style="fill:#d8d7d7"/></svg>