<svg id="Layer_2" data-name="Layer 2" xmlns="http://www.w3.org/2000/svg" viewBox="0 0 3000 3000"><title>purpleeyes</title><path d="M1582.55,1199.6c-2.51-8.62-1.52-9.23,14-8.73-7.75-6.09-7.84-9-.07-20.8,2.36-3.59,7.41-6.46.15-10.57-1.85-1-1.27-5.34,1.26-7.5,3-2.59,4.85-6.65,9.19-7.67,2,.83,3.64-.12,5.39-.83,10-4,13.59-1.73,14.41,9.16.9,12-1.87,23.7-2.58,35.57-1.66,5.66-1.34,12.76-9.74,13.57-5.4.45-10.2-2.15-15.32-3.1s-10.38-2-15.38.74Z" style="fill:#f8f8f8"/><path d="M1691.07,1255l-7.74-5.74c-4.43-4.83-10.56-7.32-15.62-11.3-5.77-3.29-10.81-8-17.81-8.9-14.61-6.16-29-12.78-44.65-16.17-2.13-.46-4.47-1-3.7-4.13,4.54-3.37,9.12-.79,13.49.25,7.6,1.82,14.91,4.7,22.32,7.16a35.79,35.79,0,0,0,8.15,2.17c3.33.52,6,2.34,8.56,4.34a430.65,430.65,0,0,1,37.15,23c3.24,2.69,6.54,5.31,10,7.74,2.72,2.43,5,5.31,8.2,7.24a31.29,31.29,0,0,1,4,3c2.39,2.52,5.39,4.64,5.52,8.61a3.89,3.89,0,0,1-1.3,2.26c-8.6-.76-11.23-9.19-17.18-13.35A16.18,16.18,0,0,0,1691.07,1255Z" style="fill:#959595"/><path d="M1201.59,1297c.54,5.16-2.57,8-6.94,8.52-5.17.56-3.42-4.94-5.19-7.41-8.08-11.3-.51-22.54,1.49-32.76,4.1-20.94,9.17-42,18.43-61.63a13.3,13.3,0,0,1,1.66-2.21c1.74,1.42,2.13,3.39,2.28,5.47.1,6.13-3.53,11.27-4.51,17.11a72.45,72.45,0,0,0-4.08,12.36c-5.79,16.16-8.62,33-11.66,49.82-.41,2.26.67,4.36.94,6.53C1193.65,1299.33,1199.29,1295.15,1201.59,1297Z" style="fill:#e5e5e5"/><path d="M1665.1,1128.85c12.21,3.85,20.84,12.49,28.72,21.93,18.82,22.55,30.62,48.63,38,76.88l-.83,1a3.32,3.32,0,0,1-2.49-.62,25.1,25.1,0,0,1-4.75-9.31,107.25,107.25,0,0,0-3.5-11.93,31,31,0,0,0-3-7.72,21.76,21.76,0,0,1-1.12-2.14,53.38,53.38,0,0,0-4.06-7.61c-6.23-10.67-11.29-22-19.41-31.55a111,111,0,0,0-26.47-23c-2.25-1.38-6.82-1.58-5.11-6.38A6.23,6.23,0,0,1,1665.1,1128.85Z" style="fill:#b7b7b7"/><path d="M1304.41,1136.79c18.57,9.49,28.76,26.19,37.76,43.91,4.63,9.4,5,18.89.71,28.51l-1.5.38a3.45,3.45,0,0,1-2.09-2c2.7-21.34-6.91-37.84-20.79-52.65-5.15-5.59-10.61-10.76-18.07-13.24-9-3-10-2.27-12.17,6.83-.79,3.41.45,7.93-4.36,9.57-5.3-5-1.2-11.09-2-16.69-2.84-1.66-5.38.74-8.06.47a6.26,6.26,0,0,1-6-2.6,2,2,0,0,1,.49-2.41l-.09,0a15.85,15.85,0,0,1,10.21-3h17.18A17.44,17.44,0,0,1,1304.41,1136.79Z" style="fill:#757575"/><path d="M1268.39,1136.88a4.36,4.36,0,0,0-.18,1.76c-3.86,5.91-10.78,8-15.74,12.58-3.87,3.57-7.84,7-10.79,11.45a17.76,17.76,0,0,1-1.5,2.06c-2.53,2.75-5.24,5.36-6.93,8.79-1.28,2.25-2.58,4.47-4,6.64-4.56,6.38-7.82,13.47-11.45,20.36-1.53,2.9-2.27,6.7-6.52,7.22-.08-2.09-.17-4.18-.25-6.28,8-21.49,21.42-39.27,37.94-54.78C1254.35,1141.64,1260,1136.39,1268.39,1136.88Z" style="fill:#e3e3e3"/><path d="M1601.52,1209.25c8.22,4.76,18,5.08,26.47,9,7.63,3.51,15.35,6.82,23,10.22.75.33,1,.69.79,1.07s-.46.59-.7.59c-5,.54-9.06-2.55-13.3-4.29-13.65-5.62-27.35-10.77-42-13.31-7-1.22-13.48-3.89-13.27-12.93l1.92-1.16C1590,1202.32,1595.39,1206.35,1601.52,1209.25Z" style="fill:#e7e7e7"/><path d="M1622.32,1187.72c-.55-11.66,3.08-23,2.13-34.76-.92-11.32-2.29-12.15-12-6.45-1.88,1.11-3.42,4.51-6.25,2.09-.54-.45.55-2.8.89-4.27l5.68-5.93,1.4,0c4.14-.09,8.47-2.86,12.36.87,4.73,7.6,5.09,16.12,4.05,24.48-1.14,9.22-3.2,18.35-5.07,27.48a2.64,2.64,0,0,1-2.87,1.1C1621.43,1190.92,1621.61,1189.34,1622.32,1187.72Z" style="fill:#bbb"/><path d="M1624.29,1191.74c-.3-10.16,3.14-19.88,3.67-29.92.42-7.85.09-15.75-3.61-23-1.15-1.67-4.33-.82-4.55-3.65a2.11,2.11,0,0,1,1.21-2c1.51-.2,3.14-.13,3.93-1.85a4.09,4.09,0,0,1,5.83-.15c4.88,23.34,1.44,46.4-2.34,69.45a8.12,8.12,0,0,1-2.76,4.84,4.55,4.55,0,0,1-4.49.49C1619.46,1200.6,1622.93,1196.4,1624.29,1191.74Z" style="fill:#1f1f1f"/><path d="M1313.86,1218.44c-1,2.68-3.55,1.87-5.52,2.36-10.58,3.65-20.41,9.12-31,12.74-8-3.13-2.93-8.94-2.83-13.73,1.53-2.23,3.47-1.85,4.23.23,2.67,7.25,6.35,3.44,10,1.18a27.24,27.24,0,0,1,6.3-2.65c5.14-.79,9.81-3.61,15.14-3.62C1312,1215.4,1314.16,1215.64,1313.86,1218.44Z" style="fill:#898989"/><path d="M1274,1237.76c-8.82,7.42-17.84,14.52-28.54,19.13a1.93,1.93,0,0,1-2.46-.08,5,5,0,0,1-.6-2.64c4.54-7.86,13.81-9.75,19.87-15.7a23.66,23.66,0,0,1,8-2.32A4.66,4.66,0,0,1,1274,1237.76Z" style="fill:#e2e2e2"/><path d="M1731.79,1227.66c5.48,10.71,6.92,22.47,9,34.08.9,5.17,1.57,10.38,2.35,15.57l-1.08,1.09a3.63,3.63,0,0,1-4.15-1.18,12.33,12.33,0,0,1-1.52-6c.4-10.75-3.29-20.79-5.48-31.08-.83-3.85-3.07-7.71,0-11.58Z" style="fill:#b7b7b7"/><path d="M1214.86,1283.41c-2.69,3.67-5.59,7.11-9.56,9.48-1.62-1.41-1.86-3.25-1.67-5.23,1.32-5.39,5.53-8.4,9.59-11.52,5-2.83,8-8.24,13.24-10.86a4.37,4.37,0,0,1,3.85.69C1228.19,1274.47,1220.3,1277.86,1214.86,1283.41Z" style="fill:#acacac"/><path d="M1274,1237.76l-3.85,0c-.51-6,5.32-3.49,7.62-5.72,10.49-2.92,19.27-10.51,30.57-11.2C1297.83,1228.34,1284.8,1230.81,1274,1237.76Z" style="fill:#cbcbcb"/><path d="M1341,1209.48c6.57-6.43,3.73-14.23,3-21.66-.23-2.41-1.18-4.75-1.79-7.12,8.82,8.09,3.51,18.37,3.68,27.55.1,5.52-6,6.41-11,6.52a3,3,0,0,1-.82-2.47C1335.4,1209.06,1338,1208.94,1341,1209.48Z" style="fill:#e0e0e0"/><path d="M1214.86,1283.41l15.1-17.19a2.06,2.06,0,0,1-.56-1.51c0-.55.1-.83.2-.83a9.43,9.43,0,0,1,3.92-3.35c2.07-1,4.16-1.7,6.35-.33a1.56,1.56,0,0,1-.24,2.27q-8.52,8-17,16.08C1220.33,1280.67,1218.49,1283.48,1214.86,1283.41Z" style="fill:#eee"/><path d="M1700.87,1260.44c6.33,3.66,9.6,11,16.75,13.72,3.41.34,4.88,2.58,5.52,5.64a4.39,4.39,0,0,1-1.53,3.8l-22.89-23A1.25,1.25,0,0,1,1700.87,1260.44Z" style="fill:#d7d7d7"/><path d="M1341,1209.48l-6.21,3.15c-4.58,3.35-10.89,2.11-15.34,5.79l-5.54,0c-.82-1.63-2.41-1.66-3.92-1.86,2.22-6.95,9.17-4.88,13.79-7.28,5.4-.59,10.66-4.26,16.26-.82Z" style="fill:#757575"/><path d="M1630.32,1131.31h-5.38c0-2.33,1.93-1.91,3.23-2.4,2.89-2.17,6.48-2.39,9.75-3.48l15.14-.06c1,2.43,7.32-1.51,5.41,4.47C1649.09,1130.33,1639.74,1131.41,1630.32,1131.31Z" style="fill:#7b7b7b"/><path d="M1205.31,1287.19c0,1.9,0,3.8,0,5.7q-1.86,2-3.71,4.06c-3.46.34-8.78,9.85-9.78-2,2.39-1.44,5.47-1.84,6.94-4.65C1200.59,1288.55,1202.07,1286,1205.31,1287.19Z" style="fill:#848484"/><path d="M1744.47,1289c.66,5.8-2.64,9.61-7.63,10.12-4.41.46-6.69-3.76-7.64-8,1.58-1.14,3.17-.47,4.75,0,3.56,1.92,5.76-.78,8.26-2.47A2.24,2.24,0,0,1,1744.47,1289Z" style="fill:#e6e6e6"/><path d="M1733.47,1292.78l-4.27-1.66-7.59-7.52c0-1.36.07-2.72.11-4.08C1729,1281,1734,1284.47,1733.47,1292.78Z" style="fill:#d2d2d2"/><path d="M1319.4,1218.42c3.47-6.28,9.79-5,15.34-5.79,0,.72.07,1.43.11,2.14C1330,1217.07,1324.9,1218.65,1319.4,1218.42Z" style="fill:#cbcbcb"/><path d="M1668.52,1237.55c5.4,3.32,12,5.07,14.81,11.72-6.33-2.86-12.23-6.35-17.06-11.44A1.41,1.41,0,0,1,1668.52,1237.55Z" style="fill:#d9d9d9"/><path d="M1668.52,1237.55l-2.25.28-15.16-7.7a7.71,7.71,0,0,0-.09-1.66C1658,1229.25,1663.21,1233.52,1668.52,1237.55Z" style="fill:#c7c7c7"/><path d="M1755.89,1312.3c2.77,3.18,2.56,5.82.68,8.23a2.07,2.07,0,0,1-3.3-.2C1751.29,1317.19,1753.49,1315.1,1755.89,1312.3Z" style="fill:#ededed"/><path d="M1296.74,1134.87l-19.09-.11c-.57-.5-.71-.91-.42-1.24a1,1,0,0,1,.76-.42l18.49.05C1297.77,1133.54,1297.85,1134.11,1296.74,1134.87Z" style="fill:#9e9e9e"/><path d="M1278,1133.1a8.74,8.74,0,0,0-.34,1.66l-9.35,2.15C1270.18,1132.19,1274.12,1132.74,1278,1133.1Z" style="fill:#e3e3e3"/><path d="M1658.77,1129.18c-.88-2.8-4.35-1.73-5.71-3.82,4.62-.92,8.5.68,12,3.49l-4.58.36A1.2,1.2,0,0,1,1658.77,1129.18Z" style="fill:#bbb"/><path d="M1700.87,1260.44l-2.15.19-7.65-5.62C1695.89,1254,1698.48,1257,1700.87,1260.44Z" style="fill:#c3c3c3"/><path d="M1239.63,1262.47l-.11-2.27c-.1-2.72.84-4.27,3.89-3.47l2,.16C1245.2,1260.51,1242.06,1261.11,1239.63,1262.47Z" style="fill:#eee"/><path d="M1637.92,1125.42a18.53,18.53,0,0,1-9.75,3.48C1630.47,1125.05,1634.05,1124.82,1637.92,1125.42Z" style="fill:#bbb"/><path d="M1621,1133.15a4,4,0,0,1-.33,1.67c-1.29,3-3.1,5.24-6.87,4.32-.34-.24-.67-.49-1-.74C1615.14,1136,1616.77,1132.55,1621,1133.15Z" style="fill:#bbb"/><path d="M1296.74,1134.87a5.34,5.34,0,0,0-.26-1.73c3.49-.62,6.4,0,7.93,3.65Z" style="fill:#e3e3e3"/><path d="M1744.47,1289c-.59.06-1.18.11-1.77.14-3.15-3.52-3-7.2-.55-11l.94-.84C1745.21,1281,1744.41,1285.07,1744.47,1289Z" style="fill:#b7b7b7"/><path d="M1601.52,1209.25c-7.91-.09-14-3.11-17-10.81,1.16-3.84,3.62-4.37,7.29-3.41,7,1.81,14,3.21,21.07,4.78l.94.88a3.19,3.19,0,0,1-1.52,2,10.1,10.1,0,0,1-3.83.8,14.78,14.78,0,0,1-5.11-.76c-2.21-.7-4.18-2.18-6.64-2.12-1.27,0-2,.72-.73.5,0,0,.17.5.33.76a13.57,13.57,0,0,0,1.8,1,28.32,28.32,0,0,0,9.28,2c10.67,2.4,21.72,3.74,30.65,11a2.44,2.44,0,0,1-.12,2.75C1625.64,1215.93,1614.44,1209.26,1601.52,1209.25Z" style="fill:#5b5b5b"/><path d="M1613.41,1201.11a2.65,2.65,0,0,1-.58-1.3c9.52,1,6.41-8,9.49-12.09.16,1.54.33,3.09.49,4.64C1623.58,1202.26,1621.74,1204,1613.41,1201.11Z" style="fill:#c4c4c4"/><path d="M1658.77,1129.18a1.5,1.5,0,0,0,1.74,0c26.61,12.5,42,35,53.76,60.61.93,2.75,1.41,5.71,3.7,7.82v0c1.06,1.54.87,3.46,1.54,5.12,2.09,5.28,3.15,11,6.17,15.88q1.82,4.77,3.65,9.54c2.61,14.08,7.84,27.64,8.54,42.1-1.48,4.31,3.61,10.83-1.88,12.86-4.53,1.68-7.61-4.61-11.21-7.56-4.36-3.56-6.68-9.41-12.6-11.2l-3.6-2.25c-2.2-2.4-4.31-4.88-6.65-7.14a55.63,55.63,0,0,0-12-9c-10.92-8.51-22.89-15.38-34.73-22.46-6.17-6.46-14.89-7.57-22.55-10.92-3.37-1.48-8.53-1.46-8.11-7.32,3.85-22.3,9.33-44.56,3.83-67.31-.81-3.36,2.62-4.14,2-6.67C1639.53,1126.94,1649.11,1127.53,1658.77,1129.18Z"/><path d="M1624.49,1205.29c4.73,7.27,13.45,6.08,20.13,9.19,4.61,2.15,9.23,3.7,12.26,8a4.28,4.28,0,0,1-3.77,1.77l-7.57-3.88c-2.23-1.86-5.55-1.54-7.6-3.78-10.54-4.11-21.11-8.13-32.42-9.7-2.61-2.91-6.55-2-9.69-3.39l-.08,0c1.42-5.32,4.94-2.89,8-2.15l5.47.49c2.52,1.47,5.31,1.6,8.12,1.67a4.93,4.93,0,0,1,3.19,1.63Z" style="fill:#0c0c0c"/><path d="M1712.17,1264.36c4.09-3.89,5.47.94,7.23,2.64,5.32,5.14,10.22,10.73,17,18,.33-6.52.5-9.84.66-13.17.67-.72,1.28-.64,1.85.13l.18,5.57a11.24,11.24,0,0,1,1.34,2.74c.32,3.65.65,7.31-4.21,8.34-8-3.53-12.64-10.63-18.08-16.89Z" style="fill:#181818"/><path d="M1653.11,1224.27c.77-1.64,2.27-1.71,3.77-1.77,11.65,7.3,23.85,13.75,34.35,22.76.56.53.72,1,.5,1.53s-.43.71-.64.71Z" style="fill:#313131"/><path d="M1718.14,1271.71c6.69,4,11.3,10.29,16.74,15.65,5.48.29,5.65,0,4-7.76l.24-2.08,3.07.64c.18,3.67.37,7.34.55,11-1.74,4.61-4.13,7.58-9.23,3.62-2.4-5.77-7-9.62-11.75-13.26-1.37-1.79-2.74-3.57-4.1-5.36C1717.79,1273.34,1718,1272.53,1718.14,1271.71Z" style="fill:#6c6c6c"/><path d="M1691.09,1247.5c.05-.75.09-1.49.14-2.24a25.39,25.39,0,0,1,11.66,9.36,1.45,1.45,0,0,1-2.49.42C1697,1252.92,1693.42,1251,1691.09,1247.5Z" style="fill:#272727"/><path d="M1700.4,1255l2.49-.41c2.62,1.93,5.52,3.67,5.68,7.48C1704.83,1260.92,1702.63,1258,1700.4,1255Z" style="fill:#393939"/><path d="M1637.94,1216.61c3.19-.06,6.1.44,7.6,3.78-2.87.78-5.24-.64-7.66-1.8Z" style="fill:#424242"/><path d="M1200.12,1291.47c-1.38,4.46-4,6-8.31,3.51-3.15-13.89,2.34-26.79,5-39.93,1.33-6.65,2.06-13.77,6.12-19.7a3.9,3.9,0,0,1,1.94,1.9c1.78,5.83-.72,11.19-2.07,16.62a245.7,245.7,0,0,0-5.59,26.83c-.39,3-1.66,6.25,1.37,8.77A4.54,4.54,0,0,1,1200.12,1291.47Z" style="fill:#404040"/><path d="M1211.29,1207.74c6.42-9.3,9.08-20.76,16.8-29.31a5,5,0,0,1,2.32,5.61c-2.88,3.11-3.34,7.5-5.7,10.9-5.28,6-7.76,13.44-10.75,20.64-1.3,3.12-2.09,6.59-4.9,8.91a1.9,1.9,0,0,1-2.31-.54C1206.36,1218,1211.42,1213.6,1211.29,1207.74Z" style="fill:#404040"/><path d="M1202.9,1235.35c.17-4.17,1.1-8.1,3.85-11.4l1,.79c2,4.89,1.13,8.84-3.82,11.41Z" style="fill:#404040"/><path d="M1738.91,1272l-.93,0-.92-.15a190.43,190.43,0,0,0-6.55-31.72,30.06,30.06,0,0,1-1.19-11.94,1.64,1.64,0,0,1,1.5.37C1733.22,1243.06,1739.48,1256.87,1738.91,1272Z" style="fill:#464646"/><path d="M1725.67,1218.62c-5.54-3.59-4.7-10.37-7.66-15.24,2.07-1,2.6.76,3.46,1.93C1723,1209.7,1725.9,1213.67,1725.67,1218.62Z" style="fill:#252525"/><path d="M1721.47,1205.31l-3.46-1.93c0-1.92,0-3.84,0-5.76A11.86,11.86,0,0,1,1721.47,1205.31Z" style="fill:#363636"/><path d="M1718,1197.64c-3.77-1.41-4.39-4.3-3.7-7.82C1716.35,1192,1718.3,1194.29,1718,1197.64Z" style="fill:#363636"/><path d="M1283.64,1157.94c3-4.37,2.38-9.64,3-14.45.78-6.21,3.39-6.87,8.77-5.74a39.67,39.67,0,0,1,24.46,15.69,149.25,149.25,0,0,1,18.09,29.76c5.55,11.73,3.29,20-6.38,24.19-.82.45-1.67.85-2.53,1.24-4,.78-8.16.42-12.06,1.87-.86.36-1.73.69-2.6,1-9.18,3.06-18.4,6-27.31,9.77-2.72,1.16-6.09,4.27-8.39-.84-2.81-8.54-1.28-17.35-1.68-26-.17-7.71,2.47-15.13,2.29-22.84C1281.23,1167.2,1279.71,1161.69,1283.64,1157.94Z" style="fill:#010101"/><path d="M1239.32,1163.17c6.89-11.4,17.24-18.72,28.89-24.53,1.67,1,3.22,2.44,5.43,2.09-.28,5.49-5.93,6.78-8.3,10.64-10.71,9-18.48,20.88-29.26,29.81a3.68,3.68,0,0,1-2.49-.45c-2.06-2.29,1-5.75-1.8-7.86a18.21,18.21,0,0,1,7.57-9.8,4.75,4.75,0,0,0,1.44,1A2.73,2.73,0,0,1,1239.32,1163.17Z" style="fill:#373737"/><path d="M1329.25,1207.31c11.4-7.94,12-12.64,6.07-26.27-4.28-9.77-12.2-17.36-15.47-27.6,13.66,15.2,26.33,30.77,20.31,53.44C1336.6,1209,1332.94,1208.53,1329.25,1207.31Z" style="fill:#0b0b0b"/><path d="M1264.34,1150c1.77-4.43,6.61-5.79,9.3-9.28,11.35-4.12,11.27-4.13,9.92,7.89-.34,3.06,0,6.21.08,9.32q-.9,6.58-1.78,13.17a2.18,2.18,0,0,1-2.69-.44,5.06,5.06,0,0,1-1.25-3.49c1-7.47.69-15.08,1.92-22.5C1274.31,1144.71,1271.31,1153.27,1264.34,1150Z" style="fill:#9e9e9e"/><path d="M1329.25,1207.31l10.91-.43a2.12,2.12,0,0,1-.17,1.6l-16.27,2.89c-.23-.36-.46-.71-.68-1.07.82-3.57,4.62-1,6.21-3Z" style="fill:#3e3e3e"/><path d="M1231.79,1172.87c1.63.23,6.39-4.58,3.83,2.38-.62,1.7-1.18,3.42-1.77,5.13,1.25,2.41-.39,3.38-2.14,4.28l-1.42-.16-2.2-6.07Z" style="fill:#242424"/><path d="M1620.53,1205.18l-3.53,0c-1.15-1.44-4.35-.17-4.29-3.23l.7-.88c7.83,2.12,9.67-2.19,9.4-8.75a5.34,5.34,0,0,1,1.48-.62A13.14,13.14,0,0,1,1620.53,1205.18Z" style="fill:#5b5b5b"/><path d="M1613.81,1139.14l6.87-4.32,3.67,4C1620.81,1138.19,1617.46,1143.14,1613.81,1139.14Z" style="fill:#7b7b7b"/><path d="M1277.77,1232l-7.62,5.72c-2.3,1-4.42,2.73-7.21,2-3.62,1.28-7.28,2.9-10.45-1,.56-3.71,3.52-5.4,6.44-6.32,9.6-3,13.8-9,12.67-19.21-.35-3.06-.71-7.33,4.24-8.22,2.24,2,1.74,4.68,1.86,7.21,0,2.08,0,4.19-1.53,5.87C1277.14,1222.69,1273.08,1227.84,1277.77,1232Z" style="fill:#8f8f8f"/><path d="M1279.83,1222.41c11.63-5.5,23.24-11,36.17-12.89-.82,6-6.58,4.59-10,6.43a73.72,73.72,0,0,1-11.15,4.42l-5.37,2.41C1286.26,1222.22,1282.78,1229.27,1279.83,1222.41Z" style="fill:#0b0b0b"/><path d="M1279.83,1222.41c3.07,3.73,6.49-1.72,9.62.36-9.58,7.65-9.93,7.53-13.28-4.66l-.09-4.59c2.6-5.65-1.75-11.18-.31-16.82a7.1,7.1,0,0,1,1.2-2.6,1.94,1.94,0,0,1,2.58-.32Z" style="fill:#3e3e3e"/><path d="M1294.82,1220.37c5.66-6.33,15.45-4.63,21.18-10.85l0-.11c2.67-1.16,5-.28,7.23,1.22l.53.73q-6.88,2.63-13.78,5.22C1304.77,1217.33,1300.35,1221.06,1294.82,1220.37Z" style="fill:#3e3e3e"/><path d="M1252.72,1239.46a22.2,22.2,0,0,1,10.22.26c-4.75,7.33-14,8.77-19.58,15.09-3.21,1.6-5.41,4.92-9.27,5.43a5.15,5.15,0,0,1-3.86-1c.16-7.58,6.74-10.31,11.24-14.53,2.46-2.31,5.79-3.54,8.68-5.33A2.9,2.9,0,0,1,1252.72,1239.46Z" style="fill:gray"/><path d="M1234,1258.72c3.56-.27,5.26-5,9.39-3.91,0,.64,0,1.28.05,1.92l-3.89,3.47-5.66,2A2.21,2.21,0,0,1,1234,1258.72Z" style="fill:#999"/><path d="M1226.33,1266.29c-3.53,4.14-6.5,8.86-11.81,11.09a177.26,177.26,0,0,1-2.34-24.66c.74-6.19-.49-13,5.88-17.32,3.26,2,2.79,5.21,2.51,8.32a38.38,38.38,0,0,1-1,4.11c.92,5.39-4.92,13,5.07,15.43C1225.94,1263.87,1226.93,1264.65,1226.33,1266.29Z" style="fill:#848484"/><path d="M1214.74,1252.88c-1.13,8.16,4.56,16.37-.22,24.5l-9.21,9.81-5.19,4.28-.9-.76c-1.82-4.57,1.63-7.07,4.16-9.59,5.39-5.38,8.73-11.14,7.44-19.24C1210.3,1258.66,1209.47,1254.12,1214.74,1252.88Z" style="fill:#404040"/><path d="M1226.33,1266.29l-1.9-1.87c-1.18-2,.07-3.18,1.45-4.33a3.86,3.86,0,0,1,2.51,0c1.5,1.14,1.79,2.83,2.07,4.53a5,5,0,0,1-.5,1.6Z" style="fill:#999"/><path d="M1230.46,1264.62c-1.85-1-2.31-2.78-2.63-4.64a1.2,1.2,0,0,1,.25-1.71,1,1,0,0,1,1.66.26l4.23.19c0,1.15-.07,2.31-.11,3.47Z" style="fill:#8c8c8c"/><path d="M1603.75,1201.39c-2.73.48-5.92-.76-8,2.15-2-.21-4.9.74-4.91-2.41,0-2.46,2.32-3.27,4.67-3.16A12.51,12.51,0,0,1,1603.75,1201.39Z" style="fill:#1b1b1b"/><path d="M1595.83,1203.52c3.44.55,8.06-2.31,9.69,3.39A15.79,15.79,0,0,1,1595.83,1203.52Z" style="fill:#1b1b1b"/><path d="M1612.71,1202l4.29,3.23c-3.26.45-6-.31-7.78-3.34Z" style="fill:#242424"/><path d="M1738.84,1279.6c2.87,2.39,2.48,5.62,1.2,8.27-1.59,3.32-3.87,4-5.16-.51C1740,1286.69,1738.63,1282.75,1738.84,1279.6Z" style="fill:#3a3a3a"/><path d="M1214.74,1252.88a5.11,5.11,0,0,0-1.64,5.2c3.58,12.63-3.1,20.89-11.64,28.54-1.09,1-1.51,2.71-2.24,4.09-9.92,3.87-5.36-4.8-5-6.91,2.16-12.59,5.17-25,7.85-37.55.71-3.35,1.23-6.73,1.84-10.1q1.9-5.7,3.82-11.42c3.51-8.06,6.87-16.19,10.61-24.14,1.2-2.56,1.39-6.57,5.87-6.23,1.57,4.52.34,9.05.06,13.58a19.51,19.51,0,0,1-.71,2.7c-2.3,5.27-2.68,10.83-2.4,16.48-.18,3,.07,6.14-2.75,8.25C1215.39,1240.83,1215.35,1246.91,1214.74,1252.88Z" style="fill:#090909"/><path d="M1222.67,1209.28c-.21-5-1.26-10.19,1.55-14.92,2.41-3-1.67-10.09,6.07-9.86l.09.08C1230.7,1193.71,1230,1202.54,1222.67,1209.28Z" style="fill:#242424"/><path d="M1279.55,1193.78l-.91.11h-.91c-3-3-2.38-6.65-1.88-10.29,1.38-3.73,1-7.9,2.66-11.57l1-1.07,2.32.16C1282.88,1178.85,1279.44,1186.14,1279.55,1193.78Z" style="fill:#898989"/><path d="M1323.19,1210.63a10.42,10.42,0,0,1-7.23-1.23c3.88-4.13,8.85-1.45,13.29-2.12Z" style="fill:#0b0b0b"/><path d="M1277.93,1182.44l-.2,11.44h0c-2.58,3.3.74,7.73-2.12,11-.48,1.47-1.59,3.05-1.35,4.38,2.68,14.92-3.58,23.68-18.06,27.2-1.33.33-2.33,2-3.48,3l-.9,0-.9.11c-8.76,5-16.84,10.89-23.1,19,0,.5,0,1,0,1.48a11.84,11.84,0,0,0-1.53.6c-5.83,4-8.52,2.21-8.56-4.6a61.61,61.61,0,0,0-.29-9.31l1.17-1.51c1.5-8.31,1-17,3.33-25.06,3.82-13.46,4.91-27.94,13.75-39.67a180.6,180.6,0,0,1,28.64-30.42c5.22-.23,7.58-5.27,11.92-7.06,3.93-1.62,6-1.4,5.47,3.59-.83,8.12-1.47,16.27-2.19,24.41h0C1277.35,1174.54,1279.86,1178.8,1277.93,1182.44Z" style="fill:#f9f9f9"/><path d="M1235.7,1180.43c-9,19.52-11.5,40.7-15.49,61.49a13.71,13.71,0,0,1-1.59,3.24l-.21-9.79.48-8.71c1.76-5.72,1.41-11.89,3.78-17.47v.09l7.71-24.7,3.47-4.2A3.63,3.63,0,0,1,1235.7,1180.43Z" style="fill:#9d9d9d"/><path d="M1251.14,1153.86c2-3.76,6.09-4.85,9.75-6.63-1.78,3.13-3.64,6.16-7.77,6.9A1.3,1.3,0,0,1,1251.14,1153.86Z" style="fill:#0c0c0c"/><path d="M1251.14,1153.86l2,.27c-.43,2.23-1,4.4-3.74,4.71a1.64,1.64,0,0,1-1.35-.9C1247.61,1155.54,1249.48,1154.76,1251.14,1153.86Z" style="fill:#242424"/><path d="M1239.32,1163.17c1.69.13,3.49-2.22,5-.29,1.15,1.52-.2,2.94-1.7,3.39-2.77.85-2.59-1.66-3.2-3.2Z" style="fill:#242424"/><path d="M1275.61,1204.86c.12-3.78-.64-7.72,2.12-11,.4,6.62.84,13.25-1.65,19.63Q1275.86,1209.19,1275.61,1204.86Z" style="fill:#898989"/><path d="M1227.82,1258.5c4.22-10.56,13.25-15.26,23.1-19-6.28,7.19-15.58,11-21.18,19Z" style="fill:#e5e5e5"/><path d="M1217.45,1246.67c2.28,2.33,1.5,5.24,1.31,7.92-.41,5.85,1.77,8.08,7.54,6-.63,1.28-1.25,2.56-1.87,3.84-4.48,2.5-7.29,1.2-7.51-3.89C1216.72,1255.93,1217.24,1251.29,1217.45,1246.67Z" style="fill:#acacac"/><path d="M1222.67,1209.19c.19,6.14-.73,12-3.78,17.46C1218.29,1220.43,1218.14,1214.31,1222.67,1209.19Z" style="fill:#212121"/><path d="M1277.93,1182.44c-.06-3.92-1.17-8,1.64-11.49C1279.34,1174.82,1280.79,1178.93,1277.93,1182.44Z" style="fill:#9e9e9e"/></svg>