<svg id="Layer_8" data-name="Layer 8" xmlns="http://www.w3.org/2000/svg" viewBox="0 0 3000 3000"><title>eyes 2</title><path d="M1674,1275.92c6.52,0,11.8,2.13,17,4.41,3.25,1.44,6.1,4.22,4.67,7.79-1.68,4.2.28,6.94,1.87,10.17,5,10,6.64,20.93,7.34,31.94,2.32,36.89-3.65,72.37-18.75,106.19-4.37,9.78-9.77,18.95-17,26.9a38.4,38.4,0,0,1-12.77,9.41c-2.54,1.13-5.93,2.36-7.48.2-5.12-7.12-13.85-7.07-20.61-10.61a120.92,120.92,0,0,0-35.5-12.5c-14.41-2.47-27.59-9-41.73-12.28-2.26-.53-4.73-2.09-6.71-1.59-8.67,2.17-11.3-3.94-13.57-9.78a50.52,50.52,0,0,1-.69-35.34c20.63-57.77,61.35-94.52,120-111.61C1658,1276.88,1666.39,1276.79,1674,1275.92Z"/><path d="M1062.41,1360.5c.78-16.21,1.14-33.27,9.89-48.66a4.83,4.83,0,0,0,.5-4.64c-2.38-5.84,1.17-8.75,5.89-10.65a41.59,41.59,0,0,1,18.46-3.28c38.61,2.39,69.7,20.64,97.16,46.17,18,16.75,32.15,36.4,40.68,59.73,3.7,10.1,5.75,20.5,5.09,31.33-.39,6.42-1.79,12.61-5.48,17.92-2.16,3.12-4.41,7-9.59,4.16-2.3-1.27-4.45.78-6.6,1.4-18.54,5.32-37,10.82-55.56,16.21a148.2,148.2,0,0,0-27.3,11.45,25,25,0,0,1-7.48,2.63c-1.93.33-3.8.58-5.51,2-6.9,5.53-8.23,5.63-15.24,1.16-9.29-5.93-15.27-14.78-20.48-24.13-10.46-18.82-16.75-39.12-20.46-60.24A241,241,0,0,1,1062.41,1360.5Z" style="fill:#010000"/><path d="M1642.63,1444.38c-1-34.54-11-65.09-22.65-95.19-4.33-11.18-9.17-22.21-17-31.52-2.71-3.25-2-5.14,1-7.17,15.89-10.67,32.71-19.26,51.84-22.26,6.57-1,13.14-.12,19.8.9,6.51,1,9,4.25,10.5,9.95,4.42,16.46,3.81,33,1,49.53-4.17,24.77-11.65,48.51-24.11,70.48C1658,1428.09,1652.21,1436.53,1642.63,1444.38Z" style="fill:#657488"/><path d="M1587,1439.57c6.09-13.17,6.8-26.34,5.93-39.74-1-15.25,0-30.69-4.4-45.61-1.58-5.42-2.84-11-5.17-16.12-2.48-5.44-1.86-9.56,2.7-13.24a9.28,9.28,0,0,0,.69-.71c8.93-8.8,9.54-8.79,14.91,2.14,15.85,32.2,26.62,66,31.36,101.63a86.55,86.55,0,0,1,.49,13.95c-.13,4.07-2.28,7.57-6.64,7.07C1613.38,1447.4,1600.38,1443.57,1587,1439.57Z" style="fill:#fff"/><path d="M1564.73,1395.65c-.43,5.17-1.36,10-4.52,14.12-3.85,5-8.48,5-12.33.24-5.07-6.26-5.58-19.69-1-26.34,2.83-4.11,6.78-5,11.21-2.38C1563.62,1384.58,1564.78,1389.93,1564.73,1395.65Z" style="fill:#f9f9f9"/><path d="M1167,1330c-25.18,40.08-37.64,83.34-42.45,130.54a60.77,60.77,0,0,1-13.25-14c-15.29-22.4-24-47.43-29.17-73.8-3-15.39-4.64-30.84-2.38-46.63,2.68-18.75,8.08-23.44,27.14-21.4a104.11,104.11,0,0,1,27,6.75A143.21,143.21,0,0,1,1167,1330Z" style="fill:#657488"/><path d="M1227.89,1439.59c1.08,5.31-2.06,5.88-5.47,6.69-16.16,3.82-32.28,7.81-48.41,11.75-9.65,2.35-19,5.76-29.11,6.43-8,.53-10.29-.65-10.21-8.64a121.92,121.92,0,0,1,1.84-18.85,332.77,332.77,0,0,1,31.11-95.42c3.63-7.19,3.76-7.14,10.81-2.88a43.56,43.56,0,0,1,5.86,3.8c3.41,2.9,5.94,6,3.26,11.06a23.4,23.4,0,0,0-2.15,9.66c-.82,20.63-3.62,41.16-3.13,61.85.14,6.08,1,11.92,4.86,17,4.3,5.66,6.72,5.18,14.07,2.44a68,68,0,0,1,15.11-3.18C1219.94,1440.84,1223.53,1440.24,1227.89,1439.59Z" style="fill:#fff"/><path d="M1224.4,1404.51c0,3.67-.12,7.33-1.88,10.67-2.2,4.16-6.22,4.77-8.42.86a34.38,34.38,0,0,1-4.08-20.12,6.19,6.19,0,0,1,5.94-5.75c3.36-.27,5.57,1.71,7,4.6C1224.46,1397.86,1224.42,1401.19,1224.4,1404.51Z" style="fill:#f6f6f6"/></svg>