<svg id="Layer_7" data-name="Layer 7" xmlns="http://www.w3.org/2000/svg" viewBox="0 0 3000 3000"><title>eyes</title><path d="M1168.35,1313.84c-4.81,3.16-10,2.58-15.22,2-2.15-.24-4-1.08-5.5,1.62-1.19,2.08-3.52.94-5.4.2-21.79-8.6-44.17-15.13-67.39-18.43-3.57-.51-7.3-.26-10.81-1.32-1.57-.47-2.43.28-3.6.95-5,2.88-9.57,1.87-13.08-2.56-10.91-13.77-16.17-29.88-19.87-46.74-3.53-16.11-5.52-32.42-4.88-48.85.72-18.34,1.91-36.74,9.73-53.88,1.32-2.89,3.05-5.19,6.29-5.85,1.48-.3,2.54-.74,2.46-2.47-.14-3.44,2.28-4.48,5-5.29a22.53,22.53,0,0,1,9.89-.46c4.89.74,5.76,2.67,4.78,7.63-1.58,8,.11,15.9,1.45,23.68,4.13,23.93,12.86,46.33,24.19,67.67,9.75,18.35,21.14,35.63,35.13,51.16,9.65,10.71,20.11,20.2,33,26.76A35.81,35.81,0,0,0,1168.35,1313.84Z" style="fill:#f1e4e5"/><path d="M1581.48,1310.92c14.27-2.25,24.51-11.14,34.06-20.54,17.07-16.81,29.83-36.78,40.65-58.07a253.92,253.92,0,0,0,22.87-64,135,135,0,0,0,3-31.06,11.37,11.37,0,0,0-.79-4.88c-1.74-3.53-.34-5.74,3.13-6.86a21.26,21.26,0,0,1,13.67.21c.31.1.8.28.84.49,1.17,6.48,8.95,6.59,11.43,12.14a101.43,101.43,0,0,1,6,16.31,191.81,191.81,0,0,1,6.15,53.66c-.86,24.29-3.84,48.23-15,70.39a89.47,89.47,0,0,1-6.66,10.49,8.9,8.9,0,0,1-11.24,2.34c-2.24-1.32-4.12-1.09-6.48-.83-22.46,2.5-43.36,10.63-64.55,17.7a45.48,45.48,0,0,0-7.84,3.18c-3.41,1.91-6.45,5.11-10.1.24-.62-.83-2.49.07-3.81.29C1591.64,1312.91,1586.44,1313.69,1581.48,1310.92Z" style="fill:#f1e4e5"/><path d="M1093.78,1322.77c30.33.5,56.7,6.45,80.19,22.1,21.53,14.35,36.35,33.63,41.17,59.54,2.73,14.7,1.19,29.18-3.67,43.32a4.68,4.68,0,0,1-4.22,3.55c-19.16,2.8-37.66,8.25-56.26,13.49-13.13,3.7-27,3.57-40.57,5.34-8.53,1.11-17.21,1-25.51,4.19-4.42,1.69-9.25,0-13.66-1.62a68.81,68.81,0,0,1-24.37-15.29c-22.64-21.66-37.82-47.47-44.11-78.37-1.43-7,.2-14.24-1.93-21.19-.62-2,1.46-3.24,2.78-4.41a93.85,93.85,0,0,1,18.17-12.28A158.66,158.66,0,0,1,1093.78,1322.77Z"/><path d="M1656.63,1318.39c29.07-.57,57.16,4.94,83.06,19.78,1.73,1,3.45,2,5.08,3.18,4.51,3.15,7.84,5.71,7.68,13-.31,14-1.9,27.58-6.65,40.66-8.2,22.55-20.38,42.65-38.06,59.11a60.37,60.37,0,0,1-27.1,15,16.27,16.27,0,0,1-9.78-.63c-5.87-2.13-12.18-1.58-18.3-2-19.43-1.45-38.89-2.61-58.33-3.86a7.88,7.88,0,0,1-3.83-.92c-12.62-7.81-26.82-11.63-40.82-15.88-3.71-1.12-5.44-2.95-6.36-6.59-9.3-36.76,2.26-66.68,30.3-90.74,20-17.12,43.89-25.43,69.69-28.8C1647.5,1319.16,1651.82,1318.86,1656.63,1318.39Z"/><path d="M1429.19,1249.26c-.31-2.73-3.32-3.41-5.48-3.51-10.39-.45-16.29-7.53-22-14.68-15-18.86-22.64-41.26-28.74-64.06a227.19,227.19,0,0,1-7.82-63.7,245.61,245.61,0,0,1,1.86-24.74c.62-5.11-1.36-7.58-6.39-6.59a25,25,0,0,1-7.28.1c-4.93-.46-6.72,1.92-5.84,6.74a216.22,216.22,0,0,1,3.28,37.37,237,237,0,0,1-7,58.48c-5.09,20.72-11.54,41-24.37,58.46-5.29,7.2-10.76,14.49-21,15.31-2.15.17-5.33,1-5.43,3.61a9.14,9.14,0,0,0,3.92,7.57c8.06,5.6,13.94,13.25,19.67,20.94a360.55,360.55,0,0,1,35.46,59.34,6.5,6.5,0,0,1,.2,6c-8.11,19.3-15.46,38.88-18.79,59.65-1.86,11.57-3.17,23.26.22,34.89.82,2.8,2.1,5.16,5,5.47,3.74.4,7.7,1.06,11-1.63a2.7,2.7,0,0,0,.79-3.2c-1.4-3.37-.76-6.9-1-9-.09-4-.55-6.77-.14-9.36a301.22,301.22,0,0,1,12.61-51c.32-.93.35-2.27,1.5-2.32,1.52-.06,1.49,1.5,1.86,2.55,2.66,7.67,5.64,15.25,7.91,23,4.36,14.92,9.32,29.81,6.5,45.78a3.12,3.12,0,0,0,1.22,3.08c4.61,3.92,14.28.79,15.66-5.07,3.21-13.65.53-27-2.62-40.15-4.41-18.5-11.91-35.87-20-53a7,7,0,0,1,0-6.49,359.45,359.45,0,0,1,20.26-40.52c9-15.27,17.79-30.75,31.74-42.39A8.46,8.46,0,0,0,1429.19,1249.26Zm-28.81,18.59c-13.73,14.24-24.13,30.74-33.49,48-1.23,2.26-2,5.87-4.46,5.92-1.91,0-3.06-3.51-4.31-5.64-11.16-19-24-36.62-40.65-51.26-1.49-1.31-3.29-2.27-4.72-3.63s-3.8-1.54-4.36-3.71c19.7-9.67,29.66-27.4,38-46.2a190.13,190.13,0,0,0,11.44-36c.25-1.12.05-2.72,1.47-2.79s1.36,1.53,1.67,2.63c4.17,14.89,9.4,29.39,16.82,43,6.89,12.62,15.43,24,27.2,32.56,2.74,2,6.1,2.54,9.51,4.47C1409.6,1259.52,1404.71,1263.36,1400.38,1267.85Z" style="fill:#f1e4e5"/><path d="M1093.55,1461.3c-10.51,1.41-20,1.92-28.82-3.79-30.4-19.55-47.73-48-55.74-82.52-3.63-15.65-2.71-16.8,11.51-24.28a162.49,162.49,0,0,1,47.51-16.23c3.39-.61,4.81-.58,3.44,3.7-6.24,19.54-4.83,39.45-2,59.32a162.87,162.87,0,0,0,4.3,21C1077.85,1433.57,1082.68,1448.4,1093.55,1461.3Z" style="fill:#f1e4e5"/><path d="M1184.23,1412.75c-1.75,14-6.45,26.68-16.72,36.84a5.68,5.68,0,0,1-3.54,1.48c-15.78,2.3-31.52,4.93-47.35,6.82-7.13.86-12.52-3.65-16.6-8.93-8.86-11.47-12.66-25.17-15.77-39-2.3-10.2-4.2-20.52-4-31.07.16-.05.39-.2.47-.14,8.19,6,15.93,1.09,23.7-1.11a13.55,13.55,0,0,1,12.15,3.48c2.4,2.59,4.53,5.32,5,9,1.21,4.31,2,8.74,3.26,13a22,22,0,0,0,1.48,4.22c1.46,2.63,3.17,6.05,6.4,5.26s1.78-4.49,1.86-7c.22-6.45-2.15-12.77-1.08-19.3.51-2,2-2.86,3.75-2.38,8.28,2.26,16.82,3.72,24.74,7.09,2.79,1.19,4.88,3.94,6.82,6.42s4.17,3.06,7,2.9c3.26-.18,5.33-1.5,5.52-5,.09-1.74.12-3.6,2.83-5.31C1184.1,1398.08,1184.83,1405.39,1184.23,1412.75Z" style="fill:#69899f"/><path d="M1184.23,1412.75l-.46-20.89c-1.57.23-1.06,1.2-1,1.77.09,3.33.73,7.25-3.85,7.82-4.15.52-8.36,1.68-11.67-3.59a16.67,16.67,0,0,0-10.31-7.22c-5.91-1.49-12.23-2.27-17.92-5-1.48-.69-3.88-2.37-4.57,1.18-2.19-.27-2.05-2.35-2.85-3.69-1.23-2.08-2.61-4.11-5.36-3.65s-3.42,2.84-4.13,5.1c-.58,1.81.37,4.12-1.8,5.39-1.27-6.89-6.7-9.62-12.24-12.23-1.14-.54-1.8.39-2.61.91a20.64,20.64,0,0,1-9.83,2.88c-.66,0-1.49-.21-2,.11-5.45,3.67-9.72,2-13.37-2.8-1.52-14.82-1-29.45,3.9-43.72,1-3,3.33-2.7,5.64-2.78,26.67-.92,50.93,6.72,74.59,18.73,14.76,7.5,17.81,20.42,19.91,33.88A80.33,80.33,0,0,1,1184.23,1412.75Z" style="fill:#427ba0"/><path d="M1674.37,1373.87c0,22.34-3.39,44-12.74,64.5-3.27,7.18-8.78,11.87-15.24,15.76-1.65,1-3.6.5-5.39.32-14.88-1.52-29.72-3.47-44.62-4.5-7.45-.51-10-6.41-13.87-10.63-6.9-7.5-8-17.63-10.53-27.08-1-7.89-.48-15.84-.89-23.76-.16-3,1.5-2.78,3.47-2a7.75,7.75,0,0,1,1.59,1.17c1.61,1.26,1.81,4.71,4.46,4a12.42,12.42,0,0,0,7.08-5.09,10,10,0,0,1,7.65-4.77c2.63-.41,5-1.62,7.53-2.49,3.58-1.25,6.84-.91,9.06,2.69-2.89,8.92-1.81,18-1.24,27.12.12,1.84.07,4.7,2.4,4.93,2.6.27,3.29-2.55,3.72-4.57,1.49-7,1.43-14.19,2.35-21.27-.09-3.76,1.7-5.15,5.48-5.22,5.51-.11,10.14-3.68,15.57-4.6,2.55-.43,3-3.69,4.06-5.91,3-6.51,3.89-6.71,9.76-3a24.8,24.8,0,0,0,16.1,3.88C1671.59,1373.17,1673.08,1372.67,1674.37,1373.87Z" style="fill:#69899f"/><path d="M1666.09,1456.64c21.69-40.74,26.68-83,14.94-127.66,3.15-.69,6.7.45,10.22,1,18.07,2.94,35,9.25,51.14,17.8,2.8,1.48,3.65,3.36,3.75,6.28.52,15.17-3.61,29.29-9.55,43-9,20.79-21.48,39-40.11,52.47C1686.28,1456.92,1677.25,1458.86,1666.09,1456.64Z" style="fill:#f1e4e5"/><path d="M1674.37,1373.87c-8.75,2.26-16.64.65-23.53-5.29-1.56-1.34-2.69-1-3.55.68a29.58,29.58,0,0,0-2.49,5.4c-1.19,4.29-3.67,6.51-8.25,6.06a5.82,5.82,0,0,0-4.1,1.41c-2.46,1.8-5.56,3.09-8.31,2.39-4.15-1-3.52,1.46-3.73,3.7-.51,0-1.12-.14-1.23-.56-1.06-4-4-5.35-7.75-5.59-3.21-2.24-6.37-3.1-10-.68a13.65,13.65,0,0,1-6.07,2c-3.2.29-5,.95-6.43,4.56-1.06,2.66-5.22,4.33-8.3,5.84-1.71.84-3.58-.22-3.92-2.59-.38-2.67-2.07-3.91-5.25-4.58.19,8.81.38,17.22.56,25.62-2.69-16.49-2-32.75,3.5-48.63,1-2.9,3.62-4.75,5.87-6.68,7.24-6.19,15.45-10.89,23.63-15.74,18-10.63,37.86-12.08,57.89-13.15,6-.32,9.2,4.91,11,10.23,2.9,8.35-2.2,16.7,1.65,25C1676.84,1366,1674.86,1370.27,1674.37,1373.87Z" style="fill:#407ba0"/><path d="M1364.76,1256.32c-.1,6.16.78,10.51-1,14.65-.57,1.32-.8,3.26-2.52,3.37-2,.14-3.26-1.64-4-3.26-2.44-5.49-2.72-11.47-3.81-17.29-.91-4.79-.87-9.08,1.57-13.33.78-1.36,1.49-2.55,3.3-2.55s1.77,1.64,2.44,2.68A25.3,25.3,0,0,1,1364.76,1256.32Z" style="fill:#f2e5e6"/><path d="M1120.27,1390c.24-3.11-.14-6.24,1.81-9.13,2.93-4.31,6.27-4.46,9.44-.3,1.46,1.92,1.69,4.3,2.89,6.28.56,7.08,1.16,14.16,1.67,21.25.18,2.5.3,5.62-2.16,6.64-2.72,1.14-4.77-1.48-6.62-3.31-2.85-2.83-3.41-6.71-4.38-10.36S1121.15,1393.71,1120.27,1390Z" style="fill:#020303"/><path d="M1611.43,1382.07c5.8-2.11,5.82-2.1,9,6.15-.51,6.29-1,12.58-1.57,18.86a13.14,13.14,0,0,1-4.18,8.8c-2.08,1.91-3.32,1.51-4.22-1.14-1.87-5.49-1.23-11.2-1.58-16.82C1608.52,1392.46,1607.82,1386.9,1611.43,1382.07Z" style="fill:#030405"/></svg>