<svg id="Layer_5" data-name="Layer 5" xmlns="http://www.w3.org/2000/svg" viewBox="0 0 3000 3000"><title>eyes</title><path d="M1716.47,1305.74a27.37,27.37,0,0,1-1.94,8.75c-8.16,19.89-17,39.59-27.89,58-14.35,24.42-31.52,47-55.25,63.64-8.45,5.93-17.76,9.66-27.57,12.36a7.21,7.21,0,0,1-3.92-.25,41.58,41.58,0,0,1-7.88-3.08c-22.46-12.66-47.16-18.09-72.2-22.16-9.17-1.49-18.6-.81-27.88.31-2.28.28-4.42.53-5.84-1.57s-.75-4.21.53-6.08c18.9-27.65,37.85-55.3,62.94-77.92,8.27-7.45,19.06-10.38,29.27-14.09,21.73-7.88,44.66-10.59,67.15-15.25a416.2,416.2,0,0,1,63.89-7.8C1713.57,1300.44,1716.65,1301,1716.47,1305.74Z"/><path d="M1058.24,1316.55c4.43.76,10-.41,15.69-.66,33-1.43,65,3.36,96.42,13.47a99.44,99.44,0,0,1,47.13,31.5c16.06,19.18,30.94,39.17,45,59.8,2,2.9,1.57,6.32,3,9.32.76,1.56-1.07,2.28-2.8,2.44-33.19,3-66,8.63-98.55,15.35a15.68,15.68,0,0,0-5.63,1.88c-7.92,5.43-16.08,4.45-24.32,1.19-12.77-5.07-23.3-13.51-33-22.91a204.93,204.93,0,0,1-37.09-48.69c-9.49-17.18-18.66-34.55-28.76-51.4-3.83-6.37-2.25-9.34,5.2-10.43a68,68,0,0,1,6.94-.82C1050.67,1316.45,1053.83,1316.55,1058.24,1316.55Z"/><path d="M1151.15,1201.05c-1.63-7.93,2.6-14.59-.79-21.54-1.15-2.38,1.33-3.79,3.84-3.84,2.88-.06,5.56,1,8.27,1.76,28.48,8.36,52.39,24.46,73.77,44.46,16.31,15.26,31.55,31.58,43.57,50.59,1.54,2.45,6,4,3.72,7.81-2.19,3.66-6,1.44-9.21,1.44-20.46,0-40.42,3.66-60.21,8.46-10.51,2.55-20.92,5.55-31.47,8-2.82.64-5.07,4-8.31,2.14-3.79-2.14-6.69-5.43-9.41-8.71-11.37-13.72-23-27.13-37.68-37.54a498.4,498.4,0,0,0-96-53,48.41,48.41,0,0,0-7.08-2.41c-2.66-.66-4.75-1.92-5.14-4.72-.43-3,1.86-4.35,4.13-5.57,8.25-4.42,17.25-6,26.38-7.08a177.5,177.5,0,0,1,84,10.38A90.71,90.71,0,0,1,1151.15,1201.05Z" style="fill:#111"/><path d="M1637.59,1193c12.37-8.11,25-12.7,38.12-15.74,24.12-5.55,48.39-7.09,72.86-2.52a58.3,58.3,0,0,1,17.87,6.15c2,1.11,3.63,2.61,3.23,5.12-.37,2.34-2,3.66-4.23,4.45-19,6.72-37.09,15.65-55,24.83-10.35,5.3-19.8,12.31-29.94,18-22.09,12.49-39.71,30.09-56.36,48.78-2.49,2.8-4.47,6.09-7.38,8.57-2.16,1.85-4,2.63-7.12,1-3.48-1.79-7.57-2.41-11.42-3.45-23.65-6.34-47.38-12.37-71.94-14.11-5.15-.36-10.3-.76-15.45,0-2.2.33-4.52.39-5.76-1.87s.3-3.89,1.83-5.62c2-2.22,3.44-4.87,5.21-7.27,19.6-26.6,42.15-50.19,69.66-68.81a164.9,164.9,0,0,1,46.88-21.85,23.11,23.11,0,0,1,6.37-1c2.31,0,4.37,1.69,3.31,3.82C1634.9,1178.48,1639.13,1185.15,1637.59,1193Z" style="fill:#111"/><path d="M1516.77,1292.63c1.16.21,1.88.81,1.84,2a1.62,1.62,0,0,1-2,1.67,1.84,1.84,0,0,1-1.78-2C1514.88,1293.07,1515.67,1292.6,1516.77,1292.63Z" style="fill:#626262"/><path d="M1271.84,1304.33c-1.19-.17-1.91-.76-1.76-2a1.84,1.84,0,0,1,2-1.73,1.56,1.56,0,0,1,1.69,1.91A1.92,1.92,0,0,1,1271.84,1304.33Z" style="fill:#626262"/><path d="M1599.75,1329.74a256.39,256.39,0,0,1,86.71-6.08c3.84.39,4.73,2.07,4.32,5.5a65.73,65.73,0,0,1-5.37,19.15c-13,29.09-32.05,53.52-56.57,73.8-7.77,6.43-17.27,9.88-25.48,15.55-3.74,2.58-8,.82-12.35.07-6.11-1-8.62-6.87-14.32-8.15s-11.28-4-16.89-6c-.26-2.11,1.8-2.15,2.8-3.16a41.59,41.59,0,0,0,17-22.57c6.83-20.68,12.87-41.57,17.67-62.82C1597.72,1333.05,1598,1331,1599.75,1329.74Z" style="fill:#bdfe00"/><path d="M1599.75,1329.74a574.54,574.54,0,0,1-20,71.4c-3.19,9.11-9,15.7-17,20.66-5.9.84-11.62-1-17.45-1.22-10.17.62-19.68-3.38-29.64-4.25-.27-1.85,1-3.08,1.8-4.48a125.64,125.64,0,0,0,11.33-24.73c2.18-6.62,1.75-7.46-4.82-9.48a186.15,186.15,0,0,1,27.84-31.83c4.09-3.76,9.9-5.78,15.78-7.33,9.62-2.54,19.12-5.63,28.74-8.28A25.36,25.36,0,0,1,1599.75,1329.74Z" style="fill:#00fe00"/><path d="M1524,1377.64c6.35-1.17,8.85,1.43,6.79,7.63a117.14,117.14,0,0,1-15.1,31.06c-4.58,1.49-9,2.55-14,1s-5.59-1.5-2.38-6c5.41-7.56,11-15,16.46-22.51Q1519.87,1383.25,1524,1377.64Z" style="fill:#eafde1"/><path d="M1545.33,1420.58c5.88-.5,11.67.26,17.45,1.22l-3,1.75Z" style="fill:#7ee001"/><path d="M1213.18,1432.13c-13.58,1.59-26.85,4.88-40.21,7.65-19.91,4.13-37.69.81-53.44-12.68-23.63-20.25-42.49-44-55.17-72.54a73.05,73.05,0,0,1-5.4-18.66c-.63-4.09.51-5.91,5-6.34a257.22,257.22,0,0,1,85.8,6.15c1.59,1.2,1.9,3,2.41,4.8,6.9,23.51,18.11,44.81,32.29,64.75,4.89,6.89,8.91,14.32,15.35,20,2.58,2.29,5,4.22,8.68,4.07C1210.49,1429.3,1212.62,1429.55,1213.18,1432.13Z" style="fill:#bdfe00"/><path d="M1213.18,1432.13c-1-.52-2.11-1.59-3.07-1.49-10.94,1.11-15.48-7.78-20.06-14.43-10.5-15.27-21.12-30.6-28.69-47.7-4.72-10.64-9.2-21.34-11.57-32.8a3.88,3.88,0,0,1,3.13.67c6.82,2.74,14,4.25,21,6.19l-.09,0c8.65,3.65,17.21,7.54,26,10.88a19.24,19.24,0,0,1,5.8,7.1c4.51,5,8.94,10.11,13.33,15.22l2.78,2.3c-3.92,3-3.18,6.63-2.37,10.85,2.37,12.26,8.84,22.43,15.52,32.56a7.9,7.9,0,0,0,6,4c1,.11,2.86-.17,2.5,2a20.88,20.88,0,0,1-7.34,1.3,84.07,84.07,0,0,0-15.27,2.77Z" style="fill:#00fe00"/><path d="M1243.42,1427.36c-7.11-.06-10-5.44-13.08-10.48-6.16-9.94-11.29-20.26-13.24-32-.69-4.07.28-6.51,4.68-6.88,9.7,12.85,19.72,25.47,29,38.62,5.94,8.43,4.89,9.87-5.35,10.63C1244.75,1427.33,1244.09,1427.33,1243.42,1427.36Z" style="fill:#ecfee4"/><path d="M1199.87,1353.41a9.56,9.56,0,0,1-6.14-1.49c-6.12-4.23-14.21-4.23-19.85-9.39A106.64,106.64,0,0,1,1199.87,1353.41Z" style="fill:#64d200"/><path d="M1219,1375.73c-5.15-4.45-9.86-9.29-13.32-15.22A46.7,46.7,0,0,1,1219,1375.73Z" style="fill:#60d201"/><path d="M1174,1342.57c-7.33-1-14.5-2.54-21-6.19A112,112,0,0,1,1174,1342.57Z" style="fill:#64d200"/><path d="M1220.81,1431.43a26.89,26.89,0,0,1,15.27-2.77C1231.15,1430.46,1226,1431,1220.81,1431.43Z" style="fill:#69d600"/><path d="M1263.09,1259.32c4.18,3.59,7,8.29,10.47,12.54-12.56,4.44-25.36,4.67-38,6a378.19,378.19,0,0,0-56.9,10.31c-3,.79-5,.21-7-2.09-29.59-34.31-67.09-57.78-107.1-77.69-10.4-5.17-21.33-9.28-32.14-13.94,1.84-2.61,4.68-3.11,7.46-3.75,20.3-4.72,40.66-3.58,61-.47,9.61,1.46,19.31,2.69,28.08,7.38-.19,2.91,1.93,4.61,3.77,6.09,6.2,5,12,10.5,18.57,15.07,7.36,5.14,14.53,10.61,19.89,17.94,4.31,5.89,10.61,8.93,16.63,12.39a120.29,120.29,0,0,0,17.71,8,10.58,10.58,0,0,0,4.83,1.09C1228,1256.11,1245.5,1260.64,1263.09,1259.32Z" style="fill:#e1e1e1"/><path d="M1263.09,1259.32c-1.29,1.91-3.28,1.29-5,1.31a283.74,283.74,0,0,1-34.23-1.85,27.92,27.92,0,0,0-10.4.49c-6.42,1.74-11.5-2.42-17-4.47-7.48-2.82-14.08-7.44-21-11.38-2.14-1.22-3.06-3.49-4.48-5.28-7.21-9.1-16.85-15.31-25.76-22.44-6-4.82-12.5-9.22-17.39-15.44-1.88-2.39-.93-2.52,1.19-2.62a68.49,68.49,0,0,1,19.51,8.69c3.29,2.08,5.18,1.71,5.53-2.62.45-5.63,1.28-11.24,1.69-16.87.19-2.72.92-3.36,3.64-2.48,11.11,3.59,22,7.57,32.26,13.33C1219.6,1213.45,1242.65,1234.87,1263.09,1259.32Z" style="fill:#fefefe"/><path d="M1662.71,1188.67c11.64-5.82,24.4-6.76,37-8.47,17.47-2.38,34.87-2.36,52.14,1.61,2,.45,4.42.31,3.78,3.68-.28,1.45,0,1.46-3.17,2.75-42.83,17.3-82,40.59-116.32,71.61-5,4.53-10.29,8.66-14.3,14.4-3.27,4.7-8.07,7.52-15,5.28-22.93-7.45-46.72-10.52-70.63-12.77-5-.47-10-.76-14.86.76a5.58,5.58,0,0,1-6.88-2.63c-1.75-2.82,1.36-3.66,2.65-5.07,3.46-3.79,7.11-7.41,10.68-11.1a6.9,6.9,0,0,0,5,1.67,295.92,295.92,0,0,0,34.33-1.81,14.74,14.74,0,0,1,4.48-.17c13.08,2.88,23.45-3.94,34.22-9.39a52.4,52.4,0,0,0,17.7-15c3.77-4.83,8.79-8.64,13.85-12.11,7.16-4.91,13.59-10.7,20.3-16.15C1660,1193.91,1662.56,1192.07,1662.71,1188.67Z" style="fill:#e1e1e1"/><path d="M1662.71,1188.67c2.31.07,3,.44,1.08,2.62-6.27,7.16-13.74,12.91-21.33,18.47-9,6.6-17.41,13.65-24.27,22.6-3.34,4.35-9,6.09-13.69,8.89-6.15,3.67-12.89,6.14-19.55,8.76a5.92,5.92,0,0,1-2.88.59c-17.1-2.43-34,2.24-51.13,1.09-2-.14-4.25.31-3.11-3,27.47-31.71,58.23-58.84,99.33-71.74,3.93-1.23,6-1.61,6,3.62s1,10.23,1.46,15.36c.34,4,2.21,4.44,5.28,2.51A76.4,76.4,0,0,1,1662.71,1188.67Z" style="fill:#fefefe"/><path d="M1542.84,1361.51q-2.74,3.43-5.5,6.85c.48-3.28,1.71-6,4.46-7.85C1542.38,1360.6,1542.49,1361.18,1542.84,1361.51Z" style="fill:#67fe20"/><path d="M1542.84,1361.51c-.35-.33-.7-.66-1-1,2.25-2.66,4.33-5.51,7.57-7.14C1548.14,1356.88,1545,1358.77,1542.84,1361.51Z" style="fill:#a4fe77"/></svg>