<svg id="Layer_6" data-name="Layer 6" xmlns="http://www.w3.org/2000/svg" viewBox="0 0 3000 3000"><title>expression</title><path d="M1274.36,1678.89c-19,1.26-37.91,2.23-56.84-.27-9.11-1.2-18.07-3-26.5-6.82a34.64,34.64,0,0,1-11.89-8.1c-2.53-2.8-4.22-6-4.11-9.89.07-2.7,1.14-4.89,3.8-5.9a5.14,5.14,0,0,1,6.25,1.88c4.75,6.42,11.72,8.49,19,9.94,23.12,4.6,46.41,4,69.66,1.6a335.32,335.32,0,0,0,74.9-16.8,119.28,119.28,0,0,0,29.47-14.54c1.32-.92,3.31-1.57,3.3-3.44,0-2.34-2.4-1.87-3.82-2.39-4.79-1.77-8.61-5-12.5-8.13-10.6-8.5-19.21-18.86-27.58-29.45a75.44,75.44,0,0,1-5-7,139.24,139.24,0,0,1-17.53-37.32c-2.25-7.56-1.47-15.5-3.65-23.06-.86-3,1-5.78,3.07-8.1a26.23,26.23,0,0,1,10.2-7c38.32-14.86,77.68-18.9,118.1-10.87a34.57,34.57,0,0,1,16,7.68c3.18,2.72,5.44,6.05,4.94,10.39-1.64,14.16-2.17,28.47-6.73,42.22-8,24.19-20,46-37.81,64.39-2.18,2.23-3,4-1.18,6.81a93.5,93.5,0,0,1,4.43,8.91c7.32,9.74,18,14.53,28.77,18.87,15.91,6.43,32.65,9.56,49.64,11.73a282.11,282.11,0,0,0,55.1,1.8c11.88-.82,23.76-2.25,35.21-5.88a197.2,197.2,0,0,0,23.86-8.6,18.6,18.6,0,0,1,5.8-1.37c4.48-.36,8.45,1.74,10,5.16a10.89,10.89,0,0,1-3.07,12.24,42,42,0,0,1-12.29,6.49c-21.13,7.59-43,11-65.37,12.1a280.2,280.2,0,0,1-66-4.12c-21.51-4.07-42.33-10.21-61.11-21.93-8.28-5.17-15.54-11.41-20.46-20-1.45-2.53-2.69-2.53-4.51-.62-13.52,14.22-31.61,19.71-49.4,25.69-19.44,6.54-39.59,9.89-59.85,12.49C1284,1678.28,1279.19,1679.11,1274.36,1678.89Z"/><path d="M1333,1620.41c-.15,8.64-1.75,11.34-6,11.69-4.88.4-9.53-3.56-10.62-9.23a20.1,20.1,0,0,1-.3-5.42c.42-4.56,3.43-7.72,7.49-7.85,4.55-.14,7.57,2.18,8.9,6.43A18.32,18.32,0,0,1,1333,1620.41Z" style="fill:#020202"/><path d="M1519.34,1630c0,6.12-4.86,12.08-9.77,12-3.86-.09-7.92-5.45-8-10.62-.13-5.49,4.15-10.28,9.31-10.42C1515.73,1620.79,1519.32,1624.63,1519.34,1630Z" style="fill:#040404"/><path d="M1289.6,1631.6a9.06,9.06,0,0,1-8.93,9.39c-5.24,0-10-4.87-10-10.36,0-4.86,3.81-8.5,9.07-8.6A9.41,9.41,0,0,1,1289.6,1631.6Z" style="fill:#050505"/><path d="M1452.11,1615.1c0-5.41,3.8-9.63,8.67-9.69s8.34,3.66,8.39,8.65c0,6-4.57,12.3-8.91,12.16C1456.24,1626.09,1452.08,1620.42,1452.11,1615.1Z" style="fill:#040404"/><path d="M1587.26,1660.55l4,0c-9.74,3.72-20,4.77-30.24,5.61-36.89,3-73.19,0-108.32-12.38-10.26-3.61-19.94-8.46-27.82-16.23-1.12-1.1-2.82-2-2.54-4,18.67,17.9,42.39,24,66.81,28.16C1521.9,1667.3,1554.64,1667.8,1587.26,1660.55Z" style="fill:#656565"/><path d="M1236.42,1637.29a7.9,7.9,0,0,1-7.85,8,8.21,8.21,0,0,1-7.78-8.19,7.51,7.51,0,0,1,7.84-7.86A7.83,7.83,0,0,1,1236.42,1637.29Z" style="fill:#080808"/><path d="M1578.91,1635.13c0,1.18,0,1.35,0,1.51-.75,4-2,7.76-6,9.74a3.61,3.61,0,0,1-4.88-1.19c-2.33-3.88-4.22-8.06-2.23-12.64a6.2,6.2,0,0,1,7.73-3.82A6.67,6.67,0,0,1,1578.91,1635.13Z" style="fill:#050505"/><path d="M1339.25,1560.68c-6.84-8.57-12.14-17.88-13.88-28.89a27,27,0,0,1,0-11.11,11.35,11.35,0,0,1,1.89-5c7.85-5.1,16.9-6.78,25.83-8.28a303,303,0,0,1,57.47-4.13,119.22,119.22,0,0,1,26.65,3.13c3.33.85,6,2.08,5.66,6.25a5.19,5.19,0,0,0,1.2,3.71c6.63,5.75,3.4,12.37,1.79,18.74a162.84,162.84,0,0,1-18.55,43.85c-5.92,9.2-12.39,17.94-20.86,25-3.84,3.22-7.82,6.11-12.63,7.7-1.79.59-3.66.93-5-.81-5.47-7-13.4-11.21-20-17a164.37,164.37,0,0,1-27.74-30.94A12.87,12.87,0,0,0,1339.25,1560.68Z" style="fill:#421d10"/><path d="M1426.34,1579.64a179.59,179.59,0,0,0,19-44.69,72.66,72.66,0,0,0,1.86-8.21c.42-3,.44-6-2.44-8.11a4.38,4.38,0,0,1-1.73-3.49c-.17-7.82-6.19-8.6-11.68-9.29-11.5-1.45-23.06-2.81-34.67-2-20.93,1.37-42,2.07-62.12,9-2.48.85-4.88,1.93-7.31,2.9a6.78,6.78,0,0,1,3.74-3.06c12.18-4.61,24.87-6.58,37.74-8a385.3,385.3,0,0,1,45.69-2,114,114,0,0,1,24,3.24c2.9.65,5.27,1.72,5,5.57-.16,2.08.42,4.61,2.2,5.87,4.08,2.89,3.5,6.51,2.66,10.58a165.33,165.33,0,0,1-20.49,51.48,6.72,6.72,0,0,1-1.47,1.32c-.3-.24-.41-.48-.32-.73S1426.24,1579.64,1426.34,1579.64Z" style="fill:#252b1f"/><path d="M1426.34,1579.64c0,.37,0,.74,0,1.1-6.87,13-16.38,23.56-29.45,30.6-4,2.14-7,2.48-10.9-2-5.22-6-12.41-10.35-18.51-15.67-11-9.62-21.24-20-28.27-33,5.13,4.26,8.36,10.13,12.56,15.16,9,10.78,19.83,19.4,30.58,28.19,1.53,1.25,3.18,2.38,4.6,3.75,4.6,4.45,6,4.68,11.49,1.11,10-6.49,17.93-15.09,24.67-24.86C1424.18,1582.54,1425.28,1581.11,1426.34,1579.64Z" style="fill:#252b1f"/><path d="M1325.4,1520.68l0,11.11A13.2,13.2,0,0,1,1325.4,1520.68Z" style="fill:#202c20"/></svg>