<svg id="Layer_1" data-name="Layer 1" xmlns="http://www.w3.org/2000/svg" viewBox="0 0 3000 3000">
  <title>NOSE</title>
  <g>
    <path d="M1568.35109,1639.19641a244.33991,244.33991,0,0,0,98.237-18.81093c10.71095-4.54218,21.33291,5.38666,16.45282,14.96463a4.41029,4.41029,0,0,1-.50876.773c-7.99175,9.82675-21.91748,14.262-33.99462,16.5667a3.86171,3.86171,0,0,0-.72.21215c-15.01875,6.04132-31.88058,6.66075-47.81268,8.66112-17.79753,1.22776-35.58516,3.50932-53.18431,1.003a3.56656,3.56656,0,0,0-.40236-.03457c-44.98718-1.29214-119.22652-16.08407-144.63013-56.62157-2.18408-3.24165-2.1213-3.24968-4.73373-.853-12.91424,12.99939-29.89491,21.29088-47.29147,26.68379a3.6173,3.6173,0,0,0-.36736.13608c-32.47057,14.06816-68.96125,18.37477-103.71008,22.0323a4.09077,4.09077,0,0,1-.683.00948c-4.34155-.27114-8.3353,1.787-12.72062,1.395-10.18767-1.34223-20.06207,1.53179-30.1098,1.19666-.12626-.00421-.25252-.01426-.378-.02909-14.45-1.70727-29.19409-1.07108-43.37111-5.03186-15.2082-3.96687-39.37051-11.48837-36.43406-31.38652.4-3.10565,4.62791-5.00508,7.8383-4.02766a3.66853,3.66853,0,0,1,.9395.46409c6.9629,4.59163,11.76389,12.20658,20.81738,12.79665a3.63089,3.63089,0,0,1,1.692.56247c1.75686,1.0987,4.09288.29428,5.91505,1.53546,2.02336,1.37818,4.58733-.02412,7.03937.95775a4.62456,4.62456,0,0,0,1.02125.31137c11.43043,1.72751,23.50247,1.9132,35.11939,1.53431,14.97329-.055,30.64809,1.24013,44.97459-2.33961a3.62454,3.62454,0,0,1,.47569-.08636c39.10083-4.40106,95.22678-16.45149,126.79973-40.02818,1.82467-1.8907-12.50225-10.148-17.89944-14.14406-.083-.06148-.159-.12208-.238-.18866-22.56194-19.01333-41.74651-43.07188-54.43668-69.72237-8.35809-16.11017-10.30644-34.37313-12.547-51.89056a4.24827,4.24827,0,0,1,.22111-1.99612c6.52578-17.903,63.80148-28.16909,67.51436-29.28934.0852-.0257.1706-.05332.25714-.074,5.78379-1.38323,11.489-1.76855,17.11011-2.364a4.34788,4.34788,0,0,0,.51754-.08934c10.11091-2.30957,75.96833-2.35863,95.81264,11.99018,2.39095,1.77209,6.47757,15.58405,5.13078,19.96757a3.87422,3.87422,0,0,0-.15031,1.358c1.14682,20.761-5.83381,41.06172-12.41689,60.353a4.35694,4.35694,0,0,1-.16476.41282c-9.19234,20.00238-19.86025,39.80056-34.68362,56.32351-3.00929,3.2037-5.41527,6.97922-8.79526,9.87722-1.15755.99247-.729,1.68811-.117,2.77179a4.035,4.035,0,0,1,.24673.52688c6.43329,16.68407,15.749,24.09108,31.75925,31.54582,15.227,7.93041,32.009,11.203,48.27068,15.91986m-50.15912-188.30174c-9.41543-9.44439-64.9459-5.97387-75.71941-5.31279-15.895,1.24411-32.52526,3.08-48.14776,7.041a4.32186,4.32186,0,0,0-.82584.31048c-4.878,2.36969-11.657,1.91232-15.286,6.42878m130.76807,62.746"/>
    <path d="M1369.72985,1554.915c-22.80141-18.98208-71.70872-71.376-57.0304-103.6403,3.65152-4.72389,10.59937-4.09136,15.40233-6.73958,15.46134-4.10293,31.95732-5.99167,47.70834-7.26638,11.40075-.71608,66.23611-.54756,75.60615,7.602,4.79413,4.16969,9.84885,10.51711,6.50184,17.8722-3.12589,18.12061-9.55193,35.51122-16.79123,52.296-11.772,21.15275-26.21054,49.25674-50.29,56.417" style="fill: #f8e068"/>
  </g>
</svg>
