<svg id="Layer_8" data-name="Layer 8" xmlns="http://www.w3.org/2000/svg" viewBox="0 0 3000 3000"><title>expression</title><path d="M1375.38,1499.15c15.52,0,31,.89,46,5.25,8.85,2.57,16.28,11,14.43,21.58-3.75,21.33-12.27,40.68-22.84,59.27-9.56,16.81-20,33-34.17,46.48-3.62,3.45-15.45,6.56-18.44,4.07-5.66-4.72-12.63-7.64-17.45-13.54-17.82-21.79-35.32-43.77-47.36-69.5-3-6.34-5.77-12.76-7-19.7-.72-4.14.44-7.18,3.47-11,14.64-18.35,36.07-17.85,56-21.43C1357,1499,1366.22,1499,1375.38,1499.15Z"/><path d="M1434.19,1705.33a199.85,199.85,0,0,1-71.5,7.4c-23.79-1.78-46.64-6.9-67.9-18.1a91.08,91.08,0,0,1-25.57-19.65,21.61,21.61,0,0,1-3.94-5.72c-2.16-4.88-1.31-9.64,2.27-12.77s8.42-3.12,12.93-.12a10.75,10.75,0,0,1,2.27,1.93c9.36,10.88,21.41,17.74,34.44,23.15a.87.87,0,0,1-.4,1.31,5.08,5.08,0,0,1-4.32-.47c-10.09-4.78-20.09-9.7-27.8-18.15a24.86,24.86,0,0,0-5.52-5c-3.08-1.83-6.42-2.26-9.37,0-2.78,2.11-2.36,5.3-1.62,8.28s2.7,4.89,4.61,7c13.34,14.68,30.65,22.54,49.07,28.35,17.58,5.54,35.82,7.52,54.09,8,17.66.44,35.12-2.27,52.3-6.45,1.91-.46,3.79-1.44,5.8-.34A1,1,0,0,1,1434.19,1705.33Z" style="fill:#979797"/><path d="M1317.14,1682.49c0-.35,0-.69,0-1,23.19,8.36,47.16,11.16,71.68,9.76,25.94-1.47,50.64-7.2,72.77-21.6,6.59-4.3,13.41-3.07,17.07,2.72,3.37,5.35,1.28,12-5.32,16.06-12.26,7.48-25.14,13.58-39.2,16.94,0-.34,0-.68,0-1,.9-2.41,3.23-2.74,5.22-3.36a137.58,137.58,0,0,0,28.7-12.65,23,23,0,0,0,7-5.58,7.39,7.39,0,0,0,.59-8.86c-1.91-3.16-5-4.27-8.63-3.44a11.42,11.42,0,0,0-3.68,1.52c-22.07,13.93-46.34,20.1-72.22,22a191.3,191.3,0,0,1-59.32-5.11,104.42,104.42,0,0,1-10.94-3.46C1319.35,1684.81,1317.51,1684.55,1317.14,1682.49Z" style="fill:#a7a7a7"/><path d="M1371.86,1520.36c5.79-1.73,11.5.57,17.33,1.68a7.41,7.41,0,0,1,3.1,1.44c1.72,1.35,3.58,3.09,3.08,5.34s-3.11,2.57-4.95,2.59c-13.65.1-27.05,3.32-40.71,3.32-1.16,0-2.33-.08-3.49,0-4,.11-7.49-1.79-7.76-5.49s3.53-5.15,6.88-5.82a149.81,149.81,0,0,1,23.21-3C1369.55,1520.32,1370.55,1520.36,1371.86,1520.36Z" style="fill:#fafafa"/><path d="M1317.14,1682.49c16.32,6.85,33.51,9.68,51,10.43,25.34,1.09,50.14-1.87,73.9-11.36a137.93,137.93,0,0,0,21.58-11.36c5-3.09,10.38-1.83,13.33,2.36,2.84,4,1.8,9.62-2.62,13.29a37.22,37.22,0,0,1-4.58,3c-11.16,6.79-23.28,11.36-35.6,15.45-15.23,3.67-30.58,6.77-46.26,7.3-34.51,1.18-67.79-3.62-98.14-21.52a82.72,82.72,0,0,1-18.87-15.45,26.56,26.56,0,0,1-2.52-3.09c-3.54-5.31-3.3-11,.54-14,3.68-2.86,9.08-2.08,13.38,2.51A82.51,82.51,0,0,0,1317.14,1682.49Z"/></svg>