<svg id="Layer_2" data-name="Layer 2" xmlns="http://www.w3.org/2000/svg" viewBox="0 0 3000 3000"><title>expression-01</title><path d="M1354.83,1657.52c-8.63,4.59-17,9.38-26.29,12.16a28.09,28.09,0,0,1-12.8,1.15c-5.17-.85-7.87-3.89-8-8.67-.1-2.69-.08-5.9,3.12-6.59,3.6-.77,3,2.53,3.33,4.68.51,3.67,3,4,5.88,3.41a55.19,55.19,0,0,0,9.59-2.68c15.23-6.33,28.45-15.82,40.81-26.58.36-.31.24-1.17.46-2.46-10.49-1-21-1.91-31.18-4.55a108,108,0,0,1-26-10.11,61.45,61.45,0,0,1-17-13.74c-12.76-15-12.76-34.24.06-49.19a68.61,68.61,0,0,1,22.82-17.54c37.79-17.89,76.33-19,115.37-4.53a63.56,63.56,0,0,1,24.09,15.69c15,15.7,15.11,36.11.27,51.9-11.08,11.77-25.21,18.3-40.36,22.86a134.44,134.44,0,0,1-23.46,4.77c-5.53.65-6.14,1.94-4,7.25,4.14,10.53,12.17,17.36,22.06,22.06,17.07,8.1,35.18,9.68,53.69,7.52a93.83,93.83,0,0,0,21.38-4.86,29,29,0,0,1,4.77-1.42,4.73,4.73,0,0,1,5.67,3c1,2.6-.35,4.56-2.58,5.77a21,21,0,0,1-4.67,1.71c-21.59,5.68-43.33,7.37-65.15,1.64-4.7-1.23-7.75-1.24-11.06,3.12-3.71,4.89-10,5-15.67,4.74C1382.3,1677.13,1366.76,1671.41,1354.83,1657.52Z" style="fill:#010101"/><path d="M1419.75,1615a7.17,7.17,0,0,1-1.84.32c-1.18,1.08-2.89.75-4.18,1.54-22.8,6.93-45.31,2.49-67.84-1.69-1-3.61,2.63-4.93,3.78-7.48,2.44-5.38,1.34-9.86-3.92-12.43s-9.32-.48-12.32,4.52c-1.93,3.24.62,9.18-5.77,9.73a51.67,51.67,0,0,1-20.61-13.66c-9.8-10.25-10.67-23-2.22-34.45a55.84,55.84,0,0,1,24.41-18.51c34-13.89,68.41-15.61,103-2a62.76,62.76,0,0,1,21.45,14.31c10.51,10.47,11.53,24.13,2.39,36.11-5.31,7-11.78,12.67-20,16.19a6.91,6.91,0,0,0-2.4,1.54,6.76,6.76,0,0,1-1.59.47,7.94,7.94,0,0,0-2.43,1.47,6.6,6.6,0,0,1-1.69.4,25.57,25.57,0,0,1-2.36,1.39,9.45,9.45,0,0,1-1.9.4C1422.74,1614.43,1420.93,1614,1419.75,1615Z" style="fill:#666464"/><path d="M1406,1662.75c-16.52,2.29-29.62-1-41.88-10.19,5.11-6.3,11.65-9.75,17-14.54,1.54-1.36,3.46-.89,4.1.87C1388.89,1648.83,1396.87,1655.23,1406,1662.75Z" style="fill:#c91827"/><path d="M1327.66,1609.47c2.25-1.56,1.92-4,2.16-6.26.7-6.68,4.36-11.06,9.71-11.94,5.68-.93,11.88,2.4,13.8,7.39s.16,10-5.29,14.47c-.76.62-1.43,1.33-2.15,2C1339,1615.77,1333.46,1612.26,1327.66,1609.47Z" style="fill:#403e3e"/><path d="M1419.75,1615a4.16,4.16,0,0,1,4-1.79A3.74,3.74,0,0,1,1419.75,1615Z" style="fill:#424040"/><path d="M1413.73,1616.82a4.22,4.22,0,0,1,4.18-1.54A3.81,3.81,0,0,1,1413.73,1616.82Z" style="fill:#424040"/><path d="M1433.76,1609a2.64,2.64,0,0,1,2.4-1.54Z" style="fill:#424040"/><path d="M1429.74,1611a2.66,2.66,0,0,1,2.43-1.47Z" style="fill:#424040"/><path d="M1425.69,1612.77a2.55,2.55,0,0,1,2.36-1.39A2.25,2.25,0,0,1,1425.69,1612.77Z" style="fill:#424040"/><path d="M1423.43,1589.15c6.52-.19,10.41,3.16,10.46,9,0,6.17-7.83,13.06-14.93,13-4.86,0-8.77-3.31-8.79-7.4C1410.15,1596.55,1416.66,1589.34,1423.43,1589.15Z" style="fill:#424040"/></svg>