<svg id="Layer_1" data-name="Layer 1" xmlns="http://www.w3.org/2000/svg" viewBox="0 0 3000 3000"><title>elemental expression</title><path d="M1172.34,1659.55c-1.76-2.17-3.77-4.19-4.7-6.91-1.22-3.61-1.78-7.28,1.75-9.9s6.14-.16,8.67,2.07c5.79,6.64,13.91,8,21.91,9.38,22.26,3.75,44.62,3,67,.66s43.83-7.48,65.19-13.79a33.11,33.11,0,0,0,12.31-4.13c2.5-1.36,5.32-2,7.77-3.53a70.31,70.31,0,0,0,15-8.1c.69-.46,1.46-.78,2.13-1.28,3.93-3,3.71-3.28-.82-5.59-10-5.11-18.32-12.58-25.79-20.8a197.58,197.58,0,0,1-22-28.76,123.76,123.76,0,0,1-16.47-41c-.71-3.55.49-7.31-.76-10.87-2.49-4.69-1-8.62,2.27-12.25,4.78-5.22,11-7.94,17.5-10.15a208.6,208.6,0,0,1,65.42-11.69c14.75-.16,29.51-.5,44,3,6.54,1.58,12.65,4,17.94,8.25,3.9,3.15,6.27,7,5.35,12.12-1.52,8.5-.9,17.15-2.7,25.68a159.37,159.37,0,0,1-10.67,33.54c-3.19,4.21-4.94,9.21-7.47,13.79a9,9,0,0,1-.7,1.2c-3.38,5.37-6.9,10.66-10.36,16a8.6,8.6,0,0,1-.79,1.11c-2.62,2.83-4.92,5.91-7.25,9a10.85,10.85,0,0,1-.81,1.11c-8.21,8.45-8.21,8.45-2,18.56a20,20,0,0,0,1.82,2.36,11.8,11.8,0,0,1,.79,1.07,8.12,8.12,0,0,0,3,3.17,8.47,8.47,0,0,1,1,.76,21,21,0,0,0,4.55,3.58c1.82.95,3.36,2.33,5.23,3.2,3.33,2.08,6.68,4.11,10.71,4.62,20.68,8.55,42.45,12.28,64.55,14.16,21.91,1.86,43.82,1.52,65.53-2.62a140.77,140.77,0,0,0,31.28-9c.75-.25,1.51-.49,2.28-.68,1.94-.41,3.79-1.12,5.73-1.55,4.81-1.06,8.84.19,11,3.5,2.32,3.58,1.8,8-1.43,11.83a17.86,17.86,0,0,1-1.73,1.75,6.74,6.74,0,0,1-1.19.94,17.84,17.84,0,0,0-4.25,2.79c-6.76,3.29-13.93,5.33-21.18,7.15-49,11.51-97.55,10.1-145.66-4.77-13.29-4.45-25.95-10.14-37.19-18.7-3.6-2.74-6.49-6.17-9.72-9.28-1.87-1.93-3.1-4.3-4.59-6.49-1.21-1.77-2.44-2-4-.42-20.66,19.84-47.47,26-73.93,32.27-27,6.41-54.67,8.93-82.47,8.8-14.27-.06-28.5-1.07-42.3-5.26C1184.24,1667.26,1177.71,1664.52,1172.34,1659.55Z"/><path d="M1333.27,1557.62c-4.54-7.34-9.61-14.37-12.79-22.48s-5.18-16.54-1.21-25.12c1.43-2.32,3.91-2.91,6.23-3.7,11.8-4,24-5.78,36.38-7.06a322,322,0,0,1,41.76-1.84c9.28.25,18.55.95,27.54,3.7,2.22.68,3.53,1.47,3.47,4s.66,5.44,2.49,6.86c4,3.14,3.15,6.8,2.28,10.71a163.33,163.33,0,0,1-28.36,62.44,70.3,70.3,0,0,1-20.83,19c-5.82,3.44-7.22,2.94-12.13-1.72s-11-8.52-16.22-13.11C1351.07,1579.82,1341,1569.76,1333.27,1557.62Z" style="fill:#f8e068"/><path d="M1333.27,1557.62c3.14,2.55,4.91,6.21,7.44,9.27a192.87,192.87,0,0,0,31.49,29.82c2.24,1.72,5,3.13,6.52,5.36,3.36,5,7,3.92,11.07,1.47a73.16,73.16,0,0,0,20.52-18.78,158.07,158.07,0,0,0,28.82-64.15c.61-3,.72-5.43-2-7.54a6.94,6.94,0,0,1-2.7-5.72c.27-4.52-2.56-5.52-6-6.31-13.11-3-26.42-3.38-39.76-2.94-19,.63-37.93,1.91-56.41,6.85-4.49,1.2-9,2.47-13,5.07.37-3.29,3.34-3.4,5.49-4.15,11.49-4,23.41-5.81,35.47-7.2,15.74-1.83,31.48-2.05,47.26-1.82a81.19,81.19,0,0,1,23.52,3.43c1,.3,2.64.61,2.68,1,.7,6.84,8.2,11.38,6.82,18.67a152.83,152.83,0,0,1-32.93,70.48c-6.14,7.39-13.44,13.74-23,16.71-2.11.65-3.65.3-4.8-1.36-4.78-6.85-12.43-10.33-18.38-15.83-9.88-9.16-19.69-18.33-27.2-29.64A3.51,3.51,0,0,1,1333.27,1557.62Z" style="fill:#262311"/><path d="M1603.93,1647.64c1.45-1.53,3.48-1.76,5.35-2.27,6.22-1.7,11,.1,13,4.77s-.35,9.57-6.11,12.72c.36-1.78,2-2.52,3-3.82,2.3-3.09,2.74-6.38.63-9.66s-5.14-3.79-8.66-3.17C1608.72,1646.64,1606.48,1647.94,1603.93,1647.64Z" style="fill:#262626"/><path d="M1415.31,1606.87a6.17,6.17,0,0,1-.53,1.32c-1.8,2.7-6.35,4.31-5.93,7.35.54,4,3.3,7.71,5.12,11.54.41.87.88,1.7,1.32,2.55-5.13-3.22-5.82-9.19-8.45-13.94-.8-1.44,1.22-2.52,2.26-3.44C1411.15,1610.45,1412.52,1607.83,1415.31,1606.87Z" style="fill:#292929"/><path d="M1434.29,1579.88a57.78,57.78,0,0,1-11,17A66.36,66.36,0,0,1,1434.29,1579.88Z" style="fill:#292929"/><path d="M1441.3,1565.87a39.45,39.45,0,0,1-7,14.05A37.81,37.81,0,0,1,1441.3,1565.87Z" style="fill:#292929"/><path d="M1423.29,1596.87a28.07,28.07,0,0,1-8,10A20.24,20.24,0,0,1,1423.29,1596.87Z" style="fill:#292929"/><path d="M1336.23,1639.91l8.86-2.35a21,21,0,0,1-12.65,4.38C1333.7,1641.26,1335,1640.58,1336.23,1639.91Z" style="fill:#2b2b2b"/><path d="M1429.11,1640.86c3,0,5,2.75,8,3l2.23,1.76C1435.22,1645.51,1432,1643.58,1429.11,1640.86Z" style="fill:#292929"/><path d="M1423,1635.83l1,1.92a6.08,6.08,0,0,1-4.8-4.2C1421,1633.5,1421.53,1635.44,1423,1635.83Z" style="fill:#292929"/><path d="M1415.26,1629.59a8.59,8.59,0,0,1,4,4C1416.7,1633.52,1415.37,1632.17,1415.26,1629.59Z" style="fill:#292929"/><path d="M1616.19,1662.83a5,5,0,0,1-3.91,2.34C1612.86,1663.17,1614.43,1662.84,1616.19,1662.83Z" style="fill:#262626"/></svg>