<svg id="Layer_4" data-name="Layer 4" xmlns="http://www.w3.org/2000/svg" viewBox="0 0 3000 3000"><title>expression</title><path d="M1382.41,1625.73a5.11,5.11,0,0,1-.86.13,4.29,4.29,0,0,1-3.26,1.09c-1.35-.32-3.12-.13-3-2.36,1.37-2.25,2-4.14-1.34-5.41-5.59-2.13-10-6-13.77-10.51-18.51-22.13-36.25-44.8-48.33-71.29-2.64-5.78-5-11.64-6.12-17.91-.68-4,.2-7.08,3.13-10.73,14.06-17.58,34.51-18.53,54-21.25a207.59,207.59,0,0,1,72.52,2.31c6.47,1.39,11,5.13,15.21,9.45,3.21,3.31,2.87,8,2.31,12.37-2.25,17.25-8.71,33.12-16.51,48.45-8.93,17.55-19.18,34.29-32.05,49.3-5,5.83-10.31,11.34-17,15.33C1385.91,1626,1383.88,1624.51,1382.41,1625.73Z"/><path d="M1375.33,1624.59c.74,1.31,2.09,1,3.24,1.25,2,1.64,4.65,1.07,6.91,1.84,38.6,6.23,74.89,18.51,107.27,41,2.86,2,5.93,3.76,8.49,6.09,4,3.63,4,8.87.48,12.39s-9,3.76-12.4-.37c-13.59-16.65-32.32-25.32-51.4-33.29a263.75,263.75,0,0,0-88.12-20.33c-19.1-1-37.81.57-55.49,8.68a15.36,15.36,0,0,0-1.64,1c-2.67-.3-1.61-1.73-.78-2.87,1.25-1.73,3-2.92,4.49-4.48,10.87-7.83,23.62-9.42,36.38-10.63a183.45,183.45,0,0,1,36.37.55C1371.29,1625.67,1373.42,1626,1375.33,1624.59Z" style="fill:#23232b"/><path d="M1296.38,1635.52c-.47,1.9-2.19,2.79-3.34,4.14-.87,1-2,1.93-.37,3.21-3.1.69-2.76-1.17-1.66-2.67C1292.41,1638.29,1293.91,1636.29,1296.38,1635.52Z" style="fill:#515057"/><path d="M1385.48,1627.68c-2.46,0-5.23,1.12-6.91-1.84l3,0Z" style="fill:#737377"/><path d="M1382.41,1625.73c1.47-1.21,3.24-1,5-1C1386,1626.3,1384.19,1626,1382.41,1625.73Z" style="fill:#737377"/><path d="M1389.39,1506.83c6-1.78,11.47.78,17.16,1.64a6.13,6.13,0,0,1,3.45,1.85c1.42,1.42,3.14,3,2.57,5.09s-2.92,2.38-4.6,2.4c-14.64.16-29,3.78-43.69,3.33-.49,0-1-.05-1.49-.05-3.86,0-6.91-2.14-7.18-5.59-.24-3.15,3.16-4.84,6.12-5.49a148.48,148.48,0,0,1,23.19-3.17C1386.41,1506.75,1387.9,1506.83,1389.39,1506.83Z" style="fill:#fafafa"/></svg>