<svg id="Layer_7" data-name="Layer 7" xmlns="http://www.w3.org/2000/svg" viewBox="0 0 3000 3000"><title>expression</title><path d="M1367.58,1621c-17.17-7.9-25.69-24.15-36.78-37.81-11.26-13.87-20.27-29.27-27.88-45.46-2.77-5.89-5.2-11.92-6.26-18.37-.65-4,.57-6.94,3.43-10.57,13.77-17.48,34-18.22,53.05-21a207.61,207.61,0,0,1,72.53,2c6.61,1.38,11.46,4.92,15.79,9.42,3.24,3.37,3,8,2.47,12.33a108.92,108.92,0,0,1-8.09,29.79c-12,28.8-27.31,55.53-49.65,77.76a14.72,14.72,0,0,0-1.12,1.65c1.94,0,3.51,0,5.07,0,34.14-.8,67.94,1.13,100.61,12.32,13.66,4.68,26.62,10.58,36.86,21.23a31.55,31.55,0,0,1,7.51,12.23c1.72,5.33-.15,10.32-4.45,12.5a9.16,9.16,0,0,1-12.25-3.58c-8.74-14.32-22.63-21.3-37.5-26.65-25.62-9.21-52.32-13-79.41-13.9-32.84-1.15-65.21,2.15-96.69,12-17.31,5.45-33.63,12.78-46.31,26.45-1.71,1.84-4,3.73-6.52,1.88-2.32-1.72-1.76-4.5-.69-6.89,2.65-6,7.23-10.33,12.25-14.24,10.78-8.4,23.1-13.83,35.91-18.23,19.78-6.8,40.19-10.68,60.94-13,2.29-.25,4.57-.52,6.86-.78Z"/><path d="M1438.37,1514.78c-.81,5.87-2.24,11.63-6.53,16.16a21.29,21.29,0,0,0-3.84,5.77c-8,17.14-16.24,34.13-27.26,49.61-5.19,7.3-10.4,14.55-16.92,20.79-2.23,2.14-5,3.3-7.33,5.1a2.26,2.26,0,0,1-3.51-.42c-5.76-8-14.38-13.2-20.72-20.51a342.32,342.32,0,0,1-34.79-48.27c-4.11-6.83-8-13.8-10.67-21.36-2.1-6-.83-9.26,4.77-12.7a63.77,63.77,0,0,1,20.34-7.67c4.79-1,10.41-.84,12.26-7.19.33-1.15,2-.82,3.12-1.13,7.88-2.2,16.15-1.18,24.08-2.93,3.59-.79,6.32-3.92,10.65-3.14,4.11.74,8.4-.45,12.25,2.71,1.62,1.33,4.61,1.67,7.18,1.44,8.34-.75,16.19,1.93,24.18,3.62,1.12.24,3.08.71,3.12,1.21C1429.47,1503.45,1440.07,1506,1438.37,1514.78Z"/><path d="M1365.51,1614.42c-8-3.81-11.29-7.06-16.78-16.42C1352.68,1598.94,1363.89,1609.9,1365.51,1614.42Z"/><path d="M1380.43,1507c6-1.75,11.56.79,17.25,1.68a6.32,6.32,0,0,1,3.76,2.28c1.2,1.35,2.75,2.8,2.07,4.76-.61,1.76-2.73,2.18-4.21,2.2-15.14.23-30,4-45.2,3.36-.16,0-.33,0-.5,0-3.65,0-6.5-2-7-5.26-.48-3.38,2.87-5,5.73-5.69A137.62,137.62,0,0,1,1376,1507C1377.53,1506.92,1379,1507,1380.43,1507Z" style="fill:#fafafa"/></svg>