<svg id="Layer_5" data-name="Layer 5" xmlns="http://www.w3.org/2000/svg" viewBox="0 0 3000 3000"><title>expression</title><path d="M1372,1619.89c4.35-.12,5-2.76,5.49-4.83s-2.17-2.09-3.51-2.83a42.14,42.14,0,0,1-11.9-9.8c-17.9-21.54-35.24-43.47-47.24-69.06-3-6.5-5.93-13.06-7.15-20.17-.69-4,.31-7,3.21-10.68,14-17.67,34.56-18.48,54-21.21a206.88,206.88,0,0,1,72.52,2.32c6.5,1.39,11,5.2,15.19,9.5,3.19,3.28,2.83,8,2.26,12.37-2.09,16.06-7.9,30.91-15,45.3-9.22,18.73-20,36.51-33.62,52.4a110.16,110.16,0,0,1-10.51,10.66c-5.81,5.16-5.2,11.19,1.91,14.79,12,6.07,25,9.3,38.09,11.56,19,3.27,38.23,5.41,57.62,4.56,11.51-.5,22.94-1.48,34-5.09,3.72-1.22,6.79-2.94,8.57-6.93,2-4.35,6.45-5.64,10-3.6s4.54,6.52,2.5,10.55a13.11,13.11,0,0,1-4.89,4.86c-9.62,6.34-20.53,8.57-31.68,9.77a224.74,224.74,0,0,1-56.3-1c-9.57-1.39-13.87.51-18.88,9.94a100.13,100.13,0,0,0-12,40.41c-.6,8.84-1.51,17.78-3.85,26.12a80.39,80.39,0,0,0-3.42,18.79c-.29,7.15-3.73,13.74-8,19.65-11.09,15.36-29.94,15.47-41.2.17a46.1,46.1,0,0,1-9-24.53c-.49-6.79-.93-13.62-2-20.32a144,144,0,0,0-26-62.59c-3.17-4.32-6.69-8.37-12.67-8.87-.92-.08-2.3-.6-2.6-1.29-2.2-5.11-6.65-4-10.64-4-22.4-.15-44.56-2.23-66.21-8.28-5.14-1.44-10.23-3.08-14.64-6.24-3.23-2.31-5.7-5.19-5.41-9.51a4.78,4.78,0,0,1,3.76-4.73c2.21-.55,4.27.27,5,2.31,1.84,5.36,6.47,6.87,11,8.44,11.74,4,24,5.39,36.29,6.42,28.51,2.37,56.9,1.94,85.08-3.49a66,66,0,0,0,12.94-3.72c1.77-.73,4.05-1.15,4-3.81C1377,1621.73,1375.07,1620.94,1372,1619.89Z"/><path d="M1334.86,1646.32c7.45-1,14-1.69,20.48-2.69,10.4-1.59,20.6-4,30-8.92a4.66,4.66,0,0,1,5.09.11c10.71,6.32,22.45,10,34.42,13,5.36,1.35,5.17,1.25,2.26,6.19-12.63,21.49-20.86,44.46-22.73,69.48-.31,4.16,1.06,8.25,1.23,12.2.15,3.3-4.51,6.09-5,10.37a19,19,0,0,1-5.92,11.81c-4.94,4.66-10.69,4.72-15.41-.23-5.45-5.72-7.17-13-7.82-20.58-2.06-24.11-8.39-46.94-20.08-68.22A103.52,103.52,0,0,0,1334.86,1646.32Z" style="fill:#c75559"/><path d="M1371.13,1514.94c-2,0-4,0-6,0-4,0-7.4-2-7.56-5.73-.14-3.27,3.52-4.9,6.73-5.54a186.72,186.72,0,0,1,23.7-3.1c6.33-.44,12.57-.72,18.7,1.3,1.56.52,3.29.52,4.62,1.7,1.66,1.45,3.6,3.07,3.24,5.31-.41,2.59-3.25,2.79-5.22,2.82C1396.52,1511.89,1383.92,1514.52,1371.13,1514.94Z" style="fill:#fafafa"/><path d="M1383.58,1704.17A30.78,30.78,0,0,1,1379,1689c-.39-8.74-2.18-17.61.89-26.2,1.86-5.2,6.68-6.17,10.9-2.48a9.25,9.25,0,0,1,3.52,7.92A88.52,88.52,0,0,1,1383.58,1704.17Z" style="fill:#020101"/></svg>