<svg id="Layer_3" data-name="Layer 3" xmlns="http://www.w3.org/2000/svg" viewBox="0 0 3000 3000"><title>expressions</title><path d="M1520.23,1667.9a67.77,67.77,0,0,1,12.31,13c3.72,5.45,3.38,11.08-.66,14.43s-9.87,2.77-14.23-2.16a136.82,136.82,0,0,0-38.16-30.17c-3.42-1.84-5.91-2.08-9.45.28-18.52,12.36-39.41,16.46-61.29,16.16-13.87-.19-27.54-2.09-40.55-7.34-6.38-2.58-12.34-5.85-17-11-3.58-3.93-6.08-8.48-5.69-13.93.25-3.56-.74-4.11-4.12-3.49a211.93,211.93,0,0,0-68.18,24.66c-2.59,1.49-5.15,3.06-7.79,4.46-1.71.91-3.85,2.6-5.41.68s.55-3.68,2-4.94a111.69,111.69,0,0,1,9.6-7.94c22.84-16.11,48.41-25.54,75.71-30.68,9.57-1.38,19.33-2,28.75-3.76,15.23-2.82,29.94.09,44.83,1.3a188.51,188.51,0,0,1,60.66,15.64,135.45,135.45,0,0,1,36,22.67A14.54,14.54,0,0,0,1520.23,1667.9Z"/><path d="M1381.26,1621c-14-6.12-21.62-18.86-30.69-30a252.72,252.72,0,0,1-33.21-52.08c-1.35-2.86-2.54-5.79-3.79-8.7-7.47-17.45-1.55-22.6,12.38-31.75,10.08-6.62,22.44-8.18,34.32-9.88,26.71-3.84,53.36-4.17,80,1.44,6.47,1.36,11,5.12,15.23,9.42,3.09,3.16,2.82,7.68,2.39,11.87a104.61,104.61,0,0,1-6.76,26.53,251.52,251.52,0,0,1-41.85,71.67c-4.15,5-8.61,9.73-14.06,13.39-3.47,4.22-7.94,1.87-12,1.68C1381.15,1624.48,1382.25,1622,1381.26,1621Z"/><path d="M1381.26,1621c2.41,3.63,8.4,4.46,13.92,1.93-.82,4,2.39,1.86,3.43,1.89a243.1,243.1,0,0,1,56.15,8.09c21.73,5.88,41.93,15,59.57,29.21,2.14,1.73,4.73,3.06,5.9,5.81-3.08-.38-4.59-3.06-6.73-4.75-24.57-19.37-53-29.24-83.49-34.1a233.77,233.77,0,0,0-78.85.83,22.28,22.28,0,0,1-3.92,0c9.22-3,18.84-3.4,28.38-4.24C1378.81,1625.39,1381.16,1624.68,1381.26,1621Z" style="fill:#606060"/><path d="M1452,1651.8c-1.78,2.23-4.06,2.93-6.17,3.72-21.39,8-43.3,10-65.7,5.35a43.54,43.54,0,0,1-14.78-5.82,18.26,18.26,0,0,1-5.42-5.08c-4-5.9-2.54-8.72,4.4-9.2,27.62-1.91,54.81.37,81.41,8.35C1447.74,1649.73,1449.94,1650,1452,1651.8Z" style="fill:#fd7276"/><path d="M1452.54,1514.74c-1.06,5.89-2.5,11.37-6.35,15.69a27.89,27.89,0,0,0-5.07,7.92,254.68,254.68,0,0,1-35.36,60.29,57.39,57.39,0,0,1-13.75,12.93c-2.74,1.79-4.54,1.36-6.7-1.29-4.25-5.22-8.54-10.44-14.67-13.87-2.77-1.55-5-4.45-6.86-7-11.3-15.31-23.11-30.29-32.94-46.63a135.69,135.69,0,0,1-10.08-19.91c-2.49-6.32-1.53-9.85,4.06-13.56,6.73-4.48,14.33-6.67,22.17-8.38,4.16-.91,9.18-.28,11-6.38.78-2.68,5-2,7.62-2.41,5.13-.88,10.29-2,15.62-1.22a6.53,6.53,0,0,0,4.74-1c4.9-4.3,10.71-2.35,16.17-2.9,2.75-.27,4,2.15,6.14,2.83,3.82,1.21,8.21,0,11.59.82,5.43,1.34,11,1.44,16.4,3.1,4.28,1.33,9.24,1.19,8.19,7.86a2.35,2.35,0,0,0,1.29,1.9C1452.89,1504.55,1450.58,1510.89,1452.54,1514.74Z"/><path d="M1379.9,1614.13c-8.39-2.6-13.77-8.37-17-16.42C1369.59,1602.13,1374.74,1608.14,1379.9,1614.13Z"/><path d="M1389,1619.51a3.9,3.9,0,0,1,4.37-1.28C1391.64,1620.15,1391.64,1620.15,1389,1619.51Z"/><path d="M1394.35,1507c6-1.77,11.47.84,17.17,1.68a5.93,5.93,0,0,1,3.42,1.91c1.37,1.43,3.15,3,2.45,5.1-.63,1.9-3,2.3-4.66,2.32-14.32.12-28.37,3.63-42.71,3.33-.66,0-1.33,0-2,0-4,.05-7.4-2-7.57-5.72-.16-3.28,3.51-4.9,6.71-5.54a153.59,153.59,0,0,1,23.21-3C1391.71,1507,1393,1507,1394.35,1507Z" style="fill:#fafafa"/></svg>