<svg id="Layer_20" data-name="Layer 20" xmlns="http://www.w3.org/2000/svg" viewBox="0 0 3000 3000">
  <title>1</title>
  <g>
    <path d="M979.823,1382.95287c1.45209-57.62415,13.08566-112.92494,38.12535-165.11,9.73737-20.29382,21.60711-39.23834,36.97091-55.8036,11.72551-12.64252,24.86305-23.51722,41.18657-29.74119,26.20456-9.99106,49.95671-5.66051,70.87309,13.10194,11.78351,10.56967,20.06294,23.68941,26.6733,37.93341,13.1598,28.35641,18.43907,58.53045,20.0863,89.43623.86792,16.2843,1.53013,32.63549-.92522,48.87514-.62159,4.11079-1.85378,8.12546-2.64979,12.21455-1.30925,6.725-5.5893,9.562-12.13568,9.535-7.29927-.03018-14.30659,1.6948-21.2477,3.64664-32.22546,9.06167-63.67814,20.07281-92.80163,36.94894-16.4163,9.51273-33.02565,18.69972-49.30049,28.44682a230.62534,230.62534,0,0,0-33.96213,24.83273c-8.08582,7.12-13.03364,5.62115-16.83272-4.53251a34.65056,34.65056,0,0,1-1.8371-8.8426C980.77172,1410.28753,979.45607,1396.6757,979.823,1382.95287Z"/>
    <path d="M1767.52536,1363.21387c.33868,12.94462-.93106,25.79606-1.98953,38.6589a37.805,37.805,0,0,1-2.81893,12.146c-3.4992,8.02-7.80763,9.097-15.00578,3.751-1.21328-.90116-2.25548-2.02959-3.40672-3.01782-2.01526-1.73027-3.93873-3.596-6.09948-5.12391-51.75458-36.60093-106.47718-67.218-168.37957-83.315-6.98311-1.816-13.97486-3.45623-21.27621-3.47918-6.07639-.01906-9.71108-3.09182-11.32229-9.13719-1.76782-6.63234-3.34162-13.30849-3.6593-20.12178-1.56322-33.52441.101-66.817,8.86472-99.40434,5.3555-19.91314,13.05812-38.85863,25.54027-55.524,9.50718-12.69329,20.99122-23.00356,36.22526-28.34571,19.94582-6.99466,38.95488-3.77279,57.04817,6.15067,16.234,8.90366,29.246,21.579,40.59141,36.05668,17.73917,22.6365,30.54721,47.98177,40.44772,74.81822A406.38591,406.38591,0,0,1,1767.52536,1363.21387Z"/>
    <path d="M1086.72717,1358.86663c-28.66867,15.49928-57.63152,30.53094-81.887,52.123-3.19711-.91006-2.73255-3.06344-2.77539-4.80678-1.46169-59.25191,8.17219-116.43319,32.43271-170.77218,9.955-22.29727,22.396-43.0875,39.53418-60.76492,8.25773-8.51769,17.428-15.77134,28.341-20.6613,18.242-8.17428,34.75383-5.28275,49.63263,7.76744,8.10807,7.1115,14.11645,15.86453,18.87525,25.44876,3.8614,7.77731,7.35643,15.7367,11.01392,23.61527a168.34548,168.34548,0,0,1,4.93823,32.9479c.45649,7.54865-3.04286,11.95013-9.84029,14.60006-18.15713,7.07825-35.21769-3.064-39.09439-23.38147,1.2283-9.536-4.53514-19.60366,3.19085-29.00234-36.503,8.27011-64.116,38.26527-69.62908,73.72359-3.7134,23.8833.86291,45.87054,12.60831,66.69179C1086.22074,1350.21152,1089.76112,1353.881,1086.72717,1358.86663Z" style="fill: #fff"/>
    <path d="M1138.76966,1233.55663c1.96533,5.7761,4.34278,11.29933,8.7177,15.77036,8.95053,9.14693,21.29958,10.80919,32.2989,4.46922,4.55489-2.62573,6.16764-6.55236,5.68374-11.43134-.63452-6.3988-1.62192-12.762-2.37008-19.15065-.48292-4.1233-.80922-8.2651-1.20549-12.39842,1.863.9938,2.40889,2.65633,2.67469,4.65,1.68924,12.67284,5.51656,25.08044,4.5823,38.08154-.16079,2.2378-.15926,4.57464,1.51009,6.45972.74914.8458,2.20665,1.888,2.06464,2.5776-2.70918,13.14923,6.14928,25.27114,3.25428,38.46251-1.30536,5.94815-6.14108,11.11184-3.45637,18.12486.69071,1.80483-1.73709,5.03963-4.9246,5.28136-6.11311.463-11.68865,2.05046-16.34744,6.33511-1.15236,1.06-2.87081.31921-4.32777-.12908a23.30241,23.30241,0,0,0-21.30709,4.32095c-8.26176,6.99327-15.84143,5.47859-24.29556,3.07415-8.17038-2.32376-13.3299-8.128-17.49229-15.23751-3.45317-5.89836-3.45053-13.12906-7.659-18.73269-.72327-.96305-.59377-3.13479-.047-4.39689,6.53107-15.076,9.44583-31.73378,20.62068-44.81332,4.30607-5.04,9.90719-8.12212,14.65974-12.40663,2.87956-2.5961,6.01171-4.6179,5.33977-9.11647C1137.51883,1232.43543,1138.199,1232.456,1138.76966,1233.55663Z" style="fill: #050506"/>
    <path d="M1138.76966,1233.55663a6.34461,6.34461,0,0,1-2.0264-.20474c-.28944-3.36221-.5793-6.72372-.91395-10.60542-6.85919.6565-11.42229,4.94907-15.87357,8.62854-19.74692,16.32324-29.20124,37.92771-31.24168,63.13542-1.46475,18.09552,2.1232,34.6388,14.81969,48.32783,3.67487,3.96224,2.27494,7.0841-1.504,9.17934-4.87174,2.70111-9.43957,6.29462-15.303,6.84931.38361-5.09943-3.51339-8.23228-5.74077-12.0525-28.96577-49.67672-11.1252-112.12476,39.35879-137.23177a78.00876,78.00876,0,0,1,25.22914-7.97288C1138.695,1212.14021,1138.15711,1222.75453,1138.76966,1233.55663Z" style="fill: #4b4b4b"/>
    <path d="M1565.48563,1190.30778c3.827-8.21823,7.44573-16.54189,11.53537-24.62729,4.82848-9.54667,10.955-18.23224,19.21-25.18685,14.37252-12.10758,30.21367-14.97491,47.72224-7.44948,10.63727,4.572,19.65192,11.37639,27.79435,19.47208,14.97463,14.88882,26.42127,32.30224,35.71215,51.10211,28.53751,57.74459,39.49052,119.18076,37.78792,183.19174-.0274,1.02648-.47193,2.042-1.14943,4.80971-25.61761-22.33482-54.53121-37.8-83.44607-53.26342-3.30045-5.99836,1.382-10.00052,3.82871-14.37877,31.15809-55.75172,4.41887-121.13788-58.12264-138.99667,7.25,9.69675,2.11972,19.67919,3.12729,29.30375-3.82705,20.45447-20.81694,30.65473-39.02276,23.60054-6.79632-2.63338-10.37634-6.99828-9.91289-14.57782A167.2055,167.2055,0,0,1,1565.48563,1190.30778Z" style="fill: #fff"/>
    <path d="M1565.48549,1190.30778c.55844,8.8152-2.63686,17.16014-3.15761,25.8816-.91479,15.31415,8.48278,23.609,23.9509,20.3471,9.70454-2.04656,15.8011-8.484,19.87128-17.13135.96541-2.05088,1.6482-4.23486,2.4609-6.35764q.85852-1.62192,2.026-.206c-.95082,6.84834,5.02335,9.04136,8.89657,11.93776,13.60794,10.17647,21.78222,23.578,26.258,39.72265,1.17976,4.25558,1.116,9.03677,4.59982,12.62528,1.63027,1.67922,2.04211,4.68369.8031,6.44067-4.23832,6.00991-4.5745,13.47427-8.1242,19.77126-6.50423,11.53788-17.10354,15.26032-29.17829,16.65108a9.22016,9.22016,0,0,1-6.47586-1.72638c-8.75248-6.31563-17.95073-10.954-29.13963-7.51235-3.64553,1.12148-1.93418-4.72806-5.77888-3.7568-4.4944,1.135-7.759-4.046-12.74754-3.19141-3.0142.5163-5.30333-2.96-4.95019-5.20736,1.66268-10.58331-5.9953-19.94123-3.48877-30.61509.84107-3.58155-.24883-7.58718,2.52489-10.78526.72451-.83579,1.8229-2.20164,1.57157-2.89973-3.27987-9.113,3.39-16.99574,2.96357-25.81414-.60629-12.532,3.16275-24.55247,5.4587-36.72848C1563.93645,1191.18724,1564.91383,1190.78569,1565.48549,1190.30778Z" style="fill: #050506"/>
    <path d="M1610.63694,1212.8415a6.38377,6.38377,0,0,1-2.02612.206c.18277-10.6299.98476-21.37969-6.49839-30.38489,4.43528-2.80557,7.895-.01516,11.20212,1.01785,36.08226,11.27222,66.33947,43.63274,67.11684,91.69185.304,18.7911-5.07662,36.69245-15.21261,52.88231-1.95907,3.12923-5.06341,5.82923-4.56616,10.102-5.86415-.55538-10.4324-4.14806-15.30372-6.84959-3.77961-2.09607-5.20667-5.24478-1.49521-9.17475,13.52782-14.32341,16.56957-31.874,14.65278-50.59345-2.8875-28.20147-15.03764-51.15079-39.36353-66.81364a29.13181,29.13181,0,0,0-4.01717-2.09816,15.92421,15.92421,0,0,0-3.02673-.52367C1610.32705,1205.508,1611.10052,1209.31308,1610.63694,1212.8415Z" style="fill: #4b4b4b"/>
    <path d="M1092.49075,1349.61789c-.4067.44147-.78418,1.219-1.22482,1.25639a1.3348,1.3348,0,0,1-1.48353-1.90357,1.87288,1.87288,0,0,1,1.64181-.734C1091.84774,1348.31128,1092.14038,1349.128,1092.49075,1349.61789Z" style="fill: #646464"/>
    <path d="M1654.82408,1328.96786c.4512-.39029.90909-1.11258,1.35111-1.103a1.31033,1.31033,0,0,1,1.2596,1.99885,1.82624,1.82624,0,0,1-1.67228.63008C1655.33356,1330.36125,1655.12785,1329.50641,1654.82408,1328.96786Z" style="fill: #646464"/>
  </g>
</svg>
