<svg id="Layer_9" data-name="Layer 9" xmlns="http://www.w3.org/2000/svg" viewBox="0 0 3000 3000">
  <title>eyes new 1</title>
  <g>
    <g>
      <path d="M1032.87468,1387.67945c-19.367-9.48739-.53578-83.26444,6.969-112.66673,16.21876-63.542,36.30542-90.34511,51.10682-105.69824,17.86747-18.53347,31.05556-23.51693,38.33007-25.55315,29.31607-8.20516,55.43322,5.47455,62.72175,9.29215,23.80979,12.47109,37.16772,36.96494,63.88339,85.95194,21.459,39.34818,22.50671,51.04215,17.42282,58.07584-3.08149,4.26348-7.33813,4.87164-27.87645,8.13085-44.3283,7.034-54.87114,8.91428-63.88339,11.03428a232.73943,232.73943,0,0,0-43.55679,15.09969c-17.9027,8.00256-23.5795,12.98987-60.3988,34.84565C1039.4625,1388.826,1035.94092,1389.18147,1032.87468,1387.67945Z" style="fill: #fff"/>
      <path d="M1727.83774,1387.67945c19.367-9.48739.53578-83.26444-6.969-112.66673-16.21876-63.542-36.30542-90.34511-51.10682-105.69824-17.86747-18.53347-31.05556-23.51693-38.33007-25.55315-29.31606-8.20516-55.43321,5.47455-62.72174,9.29215-23.8098,12.47109-37.16772,36.96494-63.88339,85.95194-21.459,39.34818-22.50671,51.04215-17.42283,58.07584,3.0815,4.26348,7.33813,4.87164,27.87645,8.13085,44.32831,7.034,54.87114,8.91428,63.88339,11.03428a232.73986,232.73986,0,0,1,43.5568,15.09969c17.90269,8.00256,23.5795,12.98987,60.39879,34.84565C1721.24991,1388.826,1724.77149,1389.18147,1727.83774,1387.67945Z" style="fill: #fff"/>
    </g>
    <g>
      <path d="M1651.02314,1165.47227c-3.92926,2.73657-1.39368,12.46008,0,18.337,0,.00012,4.70679,19.84729,7.01123,52.31457.9303,13.10706,2.58624,36.43738-8.08985,60.40454-4.605,10.338-10.72137,19.0365-9.16857,31.82019.28936,2.38221,1.86676,15.36853,10.313,18.42847,4.21833,1.52832,8.35975-.068,9.64209-.63074,8.928-3.9176,11.693-15.83862,12.94379-21.573a478.64166,478.64166,0,0,0,9.70789-66.87646c1.70941-29.86133,3.02563-52.10437-4.31458-70.1123-1.20141-2.94739-5.24414-12.18323-14.56183-18.337C1662.64136,1168.01585,1654.80347,1162.83934,1651.02314,1165.47227Z" style="fill: #1694a5"/>
      <path d="M1536.6861,1193.51719a80.02367,80.02367,0,0,0-9.16858,24.809c-1.06347,5.722-1.083,13.78015-1.07861,29.663.00305,11.00171.21094,16.76367.53931,22.1123,1.16424,18.96594,3.32678,24.338,7.01123,27.50562.76733.65966,3.20819,2.23754,8.0899,5.39331,4.69666,3.03613,6.00739,3.7207,7.01123,3.236,2.28974-1.10559,1.32562-7.494,1.07862-9.16858-2.63154-17.84192-2.62079-35.97742-4.31458-53.93262-1.68762-17.88989-2.53143-26.83471-2.15729-33.97754.47272-9.02478,1.82434-18.31884-1.07867-19.41565C1540.93958,1189.10752,1538.4817,1191.45909,1536.6861,1193.51719Z" style="fill: #1694a5"/>
      <path d="M1114.56531,1165.47227c3.92926,2.73657,1.39368,12.46008,0,18.337,0,.00012-4.70678,19.84729-7.01123,52.31457-.9303,13.10706-2.58624,36.43738,8.08985,60.40454,4.605,10.338,10.72137,19.0365,9.16857,31.82019-.28936,2.38221-1.86676,15.36853-10.313,18.42847-4.21833,1.52832-8.35974-.068-9.64209-.63074-8.928-3.9176-11.693-15.83862-12.94379-21.573a478.64166,478.64166,0,0,1-9.70789-66.87646c-1.70941-29.86133-3.02563-52.10437,4.31458-70.1123,1.20142-2.94739,5.24414-12.18323,14.56183-18.337C1102.94709,1168.01585,1110.785,1162.83934,1114.56531,1165.47227Z" style="fill: #1694a5"/>
      <path d="M1228.90235,1193.51719a80.02367,80.02367,0,0,1,9.16858,24.809c1.06347,5.722,1.083,13.78015,1.07861,29.663-.003,11.00171-.21094,16.76367-.53931,22.1123-1.16424,18.96594-3.32678,24.338-7.01123,27.50562-.76733.65966-3.20819,2.23754-8.0899,5.39331-4.69666,3.03613-6.00739,3.7207-7.01123,3.236-2.28974-1.10559-1.32562-7.494-1.07861-9.16858,2.63153-17.84192,2.62078-35.97742,4.31457-53.93262,1.68762-17.88989,2.53143-26.83471,2.15729-33.97754-.47272-9.02478-1.82434-18.31884,1.07867-19.41565C1224.64887,1189.10752,1227.10676,1191.45909,1228.90235,1193.51719Z" style="fill: #1694a5"/>
    </g>
    <g>
      <path d="M1018.71811,1362.05185c2.84111-65.63913,13.2048-124.6165,46.18193-177.32609,47.1853-75.41951,121.37966-77.11406,172.29037-4.18307,22.403,32.09283,36.39158,67.99646,43.9978,106.10478,3.078,15.42072-4.10044,19.85091-21.80318,21.52515-50.193,4.74721-99.85023,14.73018-144.13993,41.50271-25.8292,15.61335-52.45729,29.98956-74.91606,50.668-11.32292,10.42525-17.76354,6.28242-19.17261-7.98038C1020.0081,1380.73766,1019.2719,1369.07148,1018.71811,1362.05185Zm152.11312-118.58473c-1.43064-14.946-2.171-30.00483-4.59027-44.78913-1.16813-7.13809-6.25518-13.79038-14.64428-13.58791-8.68845.20978-10.4689,8.1672-11.77567,14.752-3.92207,19.76361-2.3408,39.5126,1.54519,59.14073-7.32693,3.04673-21.21647-3.05076-21.65382,8.06869-.80205,20.40066,1.93435,43.30284,14.14826,58.52828,8.44032,10.52113,23.02228-7.23673,35.37394-10.7598,1.31383-.37478,2.52321-1.14441,3.846-1.45373,21.45034-5.01918,37.38246-32.62983,32.5322-60.031C1201.21021,1228.46332,1183.7985,1242.16338,1170.83123,1243.46712Zm-101.1406,12.35544c.45767-10.42689.9229-17.98241,1.05776-25.54385a80.45816,80.45816,0,0,0-.91256-9.52254c-1.63879,2.843-3.6265,5.54245-4.86376,8.5507-16.82954,40.92256-23.87781,83.83636-25.61853,127.78269-.43143,10.89087-.35132,21.80192-.50636,32.70376q13.66676-9.58012,27.33881-19.15243c4.50525-3.13932,9.44811-5.7796,13.465-9.4437,2.5521-2.32755,9.416-2.7644,6.40151-8.5353C1069.5993,1321.16448,1071.19583,1286.85524,1069.69063,1255.82256Zm37.04439-91.26913c-7.18312,9.87853-12.8594,14.34379-13.98452,19.755-9.90489,47.6378-10.96416,95.42975.993,142.92109,1.78853,7.104,2.44386,18.58489,14.03763,16.01979,14.55143-3.21942,6.7136-11.7073,3.567-19.99863-18.18361-47.91066-16.33479-96.8831-6.29226-146.12336C1105.53586,1174.77319,1105.70654,1172.35581,1106.735,1164.55343Zm125.41843,76.17009c-2.00639-13.13794.5804-26.97664-6.06684-39.37674-1.17646-2.1946-3.3592-3.84991-5.07721-5.75424-.1105,2.26927-.58406,4.58889-.277,6.80013,4.36712,31.448,1.05081,62.3285-6.46862,92.9512-.52566,2.14.26125,4.60226.438,6.91468,2.0803-1.471,4.89542-2.489,6.12587-4.48406C1231.661,1280.20887,1229.74036,1260.07388,1232.15345,1240.72352Zm19.18056,58.79206c3.71594-.05437,15.78226-1.15236,7.2911-19.10272-2.16407-4.57489-2.59335-9.93858-4.35778-14.74217-2.25515-6.14-5.05576-12.07956-7.62136-18.10553-.5191,5.986-.69722,12.02595-1.63438,17.9457-1.54985,9.79035-3.63357,19.4953-5.39207,29.25411C1239.15845,1297.32338,1236.53709,1301.29326,1251.334,1299.51558Z"/>
      <path d="M1742.2667,1358.98885c-2.62186,14.55319,5.81985,36.96441-9.07181,44.56975-13.10211,6.69127-23.89686-14.13136-35.93529-22.39053-62.20664-42.67753-128.90491-71.99093-206.0085-72.69295-10.61725-.09675-13.63471-11.22112-11.97107-19.05378,10.056-47.34942,26.37516-92.26823,60.56444-128.06514,46.27376-48.44968,102.92043-45.97188,144.296,6.89513C1727.53248,1223.69492,1738.57877,1289.64361,1742.2667,1358.98885Zm-122.704-100.045c3.97468-19.62018,5.48215-39.365,1.56828-59.12812-1.30614-6.59552-3.08811-14.532-11.7845-14.71958-8.38771-.181-13.45735,6.48035-14.62523,13.61213-2.42028,14.7814-3.16241,29.8378-4.59469,44.781-11.60108-.668-27.29554-14.23518-33.18287,5.01022-6.13168,20.0443-1.7329,44.13883,12.16332,57.14142,13.68379,12.804,36.69029,15.76775,55.84865,22.34195,1.38952.477,6.13-4.43057,6.95555-7.474,3.04534-11.22894,4.189-23.01861,7.72808-34.05884C1645.77832,1267.29926,1640.78336,1257.51988,1619.56273,1258.94384Zm102.453,107.71342c-1.96577-51.69724-8.79971-93.95117-24.76514-134.40773-1.58139-4.00672-4.00873-7.67952-6.04337-11.50736-.28106,4.16756-.99342,8.35769-.77493,12.499,1.78323,33.80264,3.11094,68.30792-8.29335,100.10808-7.10454,19.81067-4.565,29.35453,13.24088,38.10971,9.57312,4.707,17.801,12.14957,26.63591,18.35782Zm-46.122-112.28578c-2.30245-24.685,1.43973-53.00817-13.0017-78.3715-1.4946-2.625-5.15529-4.01681-7.81083-5.98081.40531,2.98176.66189,5.99241,1.23814,8.94087,9.70684,49.661,11.898,99.16487-8.18133,146.83244-4.07749,9.67959-4.93328,14.50324,4.87007,17.53256,9.86717,3.049,10.98636-6.14442,13.09-11.94837C1674.79452,1307.38256,1674.32474,1282.09681,1675.89377,1254.37148Zm-146.7266-13.935c1.73038,19.37862.19238,39.36577,10.79437,57.00379,1.3074,2.17492,4.57438,3.172,6.93322,4.71491-.10748-2.4913-.02106-5.00858-.35321-7.4696-2.7026-20.02626-6.23437-39.97721-7.97016-60.08433-1.11162-12.87669.3927-25.97906.72434-38.98025C1526.79155,1208.52789,1531.27637,1225.1537,1529.16717,1240.43653Zm-9.82151,46.98663c-.67791-6.09409-2.40816-21.72724-4.179-37.3556a14.22245,14.22245,0,0,0-.81163-2.60962c-.85718.80835-2.20633,1.47013-2.49723,2.44714-4.30594,14.45972-10.57726,28.78485-11.81175,43.52462-.65017,7.76151,12.20306,3.7114,18.31834,6.94621C1521.32947,1301.94431,1522.77538,1300.04957,1519.34566,1287.42316Z"/>
      <path d="M956.46757,1461.02434c3.5-6.51517,5.8534-14.08216,10.69849-19.36335,21.06825-22.96513,28.94594-50.12165,28.07148-80.57266-.1018-3.546-.71046-9.02993,4.41481-8.91577,5.79574.12918,4.442,5.84558,4.634,9.75819,2.05256,41.84861-14.66357,74.58416-48.23309,99.10709Z" style="fill: #0a0a0a"/>
      <path d="M1804.79351,1461.09952c-32.76595-24.4948-50.259-56.48683-47.98786-98.09387.22126-4.05137-2.02708-10.4911,4.5026-10.63226,5.74188-.124,4.49554,6.07138,4.434,9.81394-.47974,29.2362,6.40845,55.63029,26.87143,77.8268,5.3044,5.75361,7.927,13.9796,11.78135,21.07Z" style="fill: #090909"/>
      <path d="M1068.47734,1152.79378c-13.54653,18.02126-26.923,35.81621-40.29938,53.61116-.37328-.93312-1.22314-1.96715-1.04994-2.78459,4.51674-21.33076,16.76407-38.08246,31.94385-52.96226,1.38939-1.36215,4.32044-1.431,6.55314-1.49536C1066.36033,1149.14167,1067.15052,1151.03174,1068.47734,1152.79378Z" style="fill: #0a0909"/>
      <path d="M1696.39145,1148.604c10.752.00013,42.36493,49.42229,37.81174,57.21837a5.47027,5.47027,0,0,1-3.00446-1.30765c-12.03958-16.26087-23.9202-32.63955-35.97844-48.88641C1692.302,1151.69616,1693.17782,1149.64865,1696.39145,1148.604Z" style="fill: #0a0909"/>
      <path d="M956.0533,1461.03784l.42146-.51948s.01438.47684.00354.49147S956.0533,1461.03784,956.0533,1461.03784Z" style="fill: #0a0a0a"/>
      <path d="M1804.395,1461.08413l-.02536-.45552s.40178.47129.41276.471S1804.395,1461.08413,1804.395,1461.08413Z" style="fill: #090909"/>
      <path d="M1170.83111,1243.46712c12.96739-1.30374,30.3791-15.0038,34.78167,9.86818,4.85026,27.40113-11.08186,55.01178-32.5322,60.031-1.32279.30932-2.53217,1.079-3.846,1.45373-12.35166,3.52307-26.93362,21.28093-35.37394,10.7598-12.21391-15.22544-14.95031-38.12762-14.14826-58.52828.43735-11.11945,14.32689-5.022,21.65357-8.06831,1.98431,3.69639,5.26075,8.63988,9.01265,5.64349C1157.98949,1258.5485,1171.23049,1257.34038,1170.83111,1243.46712Z" style="fill: #81e6fa"/>
      <path d="M1619.56273,1258.94384c21.22063-1.424,26.21559,8.35542,20.07659,27.50621-3.53908,11.04023-4.68274,22.8299-7.72808,34.05884-.82551,3.04345-5.566,7.951-6.95555,7.474-19.15836-6.5742-42.16486-9.53793-55.84865-22.34195-13.89622-13.00259-18.295-37.09712-12.16332-57.14142,5.88733-19.2454,21.58179-5.67818,33.18362-5.01275-.40493,13.86923,12.83343,15.078,20.44583,21.14532C1614.26653,1267.5759,1617.628,1262.70507,1619.56273,1258.94384Z" style="fill: #81e6fa"/>
    </g>
  </g>
</svg>
