<svg id="Layer_3" data-name="Layer 3" xmlns="http://www.w3.org/2000/svg" viewBox="0 0 3000 3000">
  <title>Eyes</title>
  <g>
    <path d="M1408.82059,1178.38793c-.255-112.69255,55.99852-189.33686,144.12746-200.63123,75.9586-9.73453,134.40906,26.35008,182.53572,80.31032,53.31713,59.77989,80.78863,130.24365,76.30462,211.37783-.48785,8.82462,9.02954,23.12408-2.744,25.28651-9.29732,1.70777-6.60543-15.39624-10.88439-23.53479-7.72173-14.68674-13.64659-30.31268-20.53726-45.44833-1.02-2.24042-3.21526-3.94576-4.86677-5.89862a48.15085,48.15085,0,0,0-1.7826,7.12428c-2.85337,29.33247-11.28826,56.81411-27.8772,81.337-2.98739,4.41616-6.71907,11.91026-13.99054,7.908-6.81036-3.74827-.94812-9.439.19968-14.149,8.65007-35.49276-4.18327-64.99976-26.43722-91.22864-43.73956-51.55237-131.33366-70.266-187.33622-41.90658-9.55839,4.84029-16.88663,22.96541-28.60281,13.16119-10.04466-8.40524,7.14881-19.92505,5.8349-31.51967-.38776-3.42276,1.16256-7.06521,1.8247-10.607-3.32828,2.01987-7.04213,3.60071-9.92321,6.13-21.38065,18.76956-38.35162,40.6493-46.88343,68.2591-1.74976,5.66232-2.27716,13.48731-10.09543,12.57264-7.64716-.8949-14.64133-5.659-15.73139-14.30666C1410.16672,1198.43564,1409.32113,1184.12776,1408.82059,1178.38793Zm173.8915-36.81522c29.654.6619,64.88514,10.3913,95.8685,31.34074,38.80724,26.2395,70.30676,57.96959,65.64053,110.56149a22.55308,22.55308,0,0,0,.1168,2.97079,20.18276,20.18276,0,0,0,2.12361-1.87975c10.58939-12.32011,18.35494-71.77424,10.61783-82.82756-1.90355-2.71948-5.68343-5.4718-2.11446-8.166,2.08724-1.57572,6.9877-1.04454,9.83107.26192,19.63015,9.01844,26.58868,27.85757,34.7077,45.7669.864,1.90587,2.48685,3.46767,3.75767,5.18911a49.48914,49.48914,0,0,0,.005-5.917c-8.63262-74.89346-38.18246-139.80657-94.18123-191.02353-44.76554-40.943-97.13956-63.79522-158.92538-54.15919-85.50637,13.33548-133.61607,105.34283-124.62254,197.3226a16.00224,16.00224,0,0,0,1.17623,3.47963c1.21944-1.36029,2.741-2.55129,3.61267-4.1065,11.33465-20.22224,24.96049-38.70778,43.16945-53.1863,9.14586-7.27221,20.19942-18.765,31.42739-11.75818,8.45589,5.27688-4.54492,16.49985-3.72618,25.81988.22421,2.553-.56389,5.195-.88733,7.79607,2.61122-.94641,5.38294-1.59219,7.80827-2.8867C1528.99244,1145.02989,1551.59338,1141.95377,1582.71209,1141.57271Z" style="fill: #010101"/>
    <path d="M1325.42441,1177.3661c-4.90144,16.14809,5.15677,36.55012-11.12411,51.444-10.00731,9.15514-14.95061,3.92611-18.04248-6.78009-8.736-30.24933-27.44855-53.61227-51.37549-73.23218-1.59451-1.30732-3.91463-1.72987-5.89727-2.56386a36.91489,36.91489,0,0,0,.92407,5.78608c2.832,8.77946,5.57468,17.60151,8.84694,26.21949,1.59134,4.19108,2.12289,7.94021-1.564,10.83093-4.47962,3.5121-8.70817,1.59781-12.66235-1.5391-74.78114-59.32182-211.48969-10.07273-231.15573,83.25756-2.94955,13.99774-2.74657,27.81326,2.5242,41.27653,1.5319,3.9128,3.19219,7.86369-1.47771,10.487-4.57848,2.572-7.67816-.87806-10.13742-3.95015-20.09127-25.09781-28.06712-54.68891-31.6173-85.9126-.26535-2.33391-1.34-4.57592-2.03854-6.86064-1.4345,1.75452-3.17316,3.33988-4.25675,5.28944a277.73044,277.73044,0,0,0-25.927,63.64595c-.97308,3.65674-1.40521,8.03066-6.28114,6.96244-1.83379-.40168-4.06457-4.34548-4.12419-6.72419-2.94357-117.58837,36.48224-215.19189,137.5512-281.27391,56.17489-36.72893,117.11208-45.60493,177.95492-11.772C1303.18425,1039.56964,1322.77633,1103.81914,1325.42441,1177.3661Zm-15.77338-.65214c-.71316-9.60722-1.09848-17.26182-1.87438-24.87664-10.60293-104.05614-84.86034-167.30737-178.20952-151.60124-104.54078,17.5893-189.41443,128.1348-199.318,246.93859a16.95031,16.95031,0,0,0,.46295,3.58875c1.09482-1.49382,2.50356-2.84874,3.23631-4.50294,8.10584-18.2988,15.22274-37.38179,35.17121-46.61529,2.638-1.2209,6.17519-.85352,9.22263-.53032.59672.06322,1.80774,3.895,1.12936,5.02288-17.07923,28.39949-.39069,54.48264,5.48522,81.25637.533,2.42862,2.44693,4.55419,3.71959,6.82061.0188-2.66322.20908-5.338.02795-7.98757a85.91547,85.91547,0,0,1,7.44565-40.8563c31.82589-72.79864,143.4774-116.74193,218.784-86.06516,6.16457,2.51125,12.34818,4.9754,18.523,7.46151-1.51969-7.46359-2.86949-14.96758-4.62926-22.37417-.9082-3.82273-6.58358-8.06215-1.03648-11.12973,3.35843-1.85717,9.26523-1.3526,13.1037.27218,23.728,10.04455,38.86192,29.57377,53.21447,49.79724,4.473,6.30286,8.76884,12.73168,13.14581,19.10276C1308.11742,1191.89832,1308.97961,1183.36114,1309.651,1176.714Z" style="fill: #010101"/>
    <path d="M1012.68657,1318.77767c.04345-60.27531,48.49759-106.37907,108.956-111.178,51.43591-4.08295,97.8659,28.68448,105.42909,74.94874,2.09627,12.82249,5.61154,25.61434-17.84695,20.71656-11.68092-2.43875-26.20288,5.69406-38.71192,10.82032-39.2525,16.08584-76.62806,35.66389-109.14624,63.41966-4.112,3.5099-7.49032,2.74768-11.66554.26046C1024.45952,1362.72828,1013.52423,1339.83281,1012.68657,1318.77767Zm18.68363,6.43846c4.35622,8.76212,9.89393,20.73963,16.21094,32.29117,3.7772,6.90727,7.35118,9.01075,15.697,2.34515,39.02646-31.17,82.79629-54.456,131.01828-67.26582,15.65474-4.15862,14.97966-8.92824,9.64494-19.99938-17.13526-35.56112-59.56323-54.2406-99.90823-43.78535C1061.36,1239.86035,1030.03359,1279.75743,1031.3702,1325.21613Z" style="fill: #010101"/>
    <path d="M1618.91837,1200.80361c35.17981,1.29133,67.33086,19.75234,86.95418,57.17844,17.162,32.73166,15.48911,65.39558-5.39673,96.43241-8.13623,12.09041-15.66146,13.77121-27.96643,2.63587-41.64927-37.69022-90.40635-61.02191-146.88247-66.64749-9.05224-.90173-6.79522-7.872-6.53524-12.89157C1521.33612,1234.17691,1561.82844,1200.87684,1618.91837,1200.80361Zm78.83491,103.70426c.37276-24.44909-9.25094-41.46206-23.34144-57.04979-43.30591-47.90772-119.48761-35.12734-139.99973,23.74532-1.224,3.51284-3.7562,6.88958,3.00094,7.36486,46.71243,3.28556,85.98519,25.44444,124.033,50.01936,25.47519,16.45433,29.29121,15.09037,35.62287-17.04176A46.868,46.868,0,0,0,1697.75328,1304.50787Z" style="fill: #010101"/>
    <path d="M1582.71209,1141.57271c-31.11871.38106-53.71965,3.45718-74.59439,14.59837-2.42533,1.29451-5.197,1.94029-7.80827,2.8867.32344-2.60109,1.11154-5.24307.88733-7.79607-.81874-9.32,12.18207-20.543,3.72618-25.81988-11.228-7.00686-22.28153,4.486-31.42739,11.75818-18.209,14.47852-31.8348,32.96406-43.16945,53.1863-.87171,1.55521-2.39323,2.74621-3.61267,4.1065a16.00224,16.00224,0,0,1-1.17623-3.47963c-8.99353-91.97977,39.11617-183.98712,124.62254-197.3226,61.78582-9.636,114.15984,13.21623,158.92538,54.15919,55.99877,51.217,85.54861,116.13007,94.18123,191.02353a49.48914,49.48914,0,0,1-.005,5.917c-1.27082-1.72144-2.89365-3.28324-3.75767-5.18911-8.119-17.90933-15.07755-36.74846-34.7077-45.7669-2.84337-1.30646-7.74383-1.83764-9.83107-.26192-3.569,2.69421.21091,5.44653,2.11446,8.166,7.73711,11.05332-.02844,70.50745-10.61783,82.82756a20.18276,20.18276,0,0,1-2.12361,1.87975,22.55308,22.55308,0,0,1-.1168-2.97079c4.66623-52.5919-26.83329-84.322-65.64053-110.56149C1647.59723,1151.964,1612.366,1142.23461,1582.71209,1141.57271Z" style="fill: #fff"/>
    <path d="M1309.651,1176.714c-.67142,6.64718-1.53361,15.18436-2.39579,23.72153-4.377-6.37108-8.67278-12.7999-13.14581-19.10276-14.35255-20.22347-29.48648-39.75269-53.21447-49.79724-3.83847-1.62478-9.74527-2.12935-13.1037-.27218-5.5471,3.06758.12828,7.307,1.03648,11.12973,1.75977,7.40659,3.10957,14.91058,4.62926,22.37417-6.17483-2.48611-12.35844-4.95026-18.523-7.46151-75.30658-30.67677-186.95809,13.26652-218.784,86.06516a85.91547,85.91547,0,0,0-7.44565,40.8563c.18113,2.64954-.00915,5.32435-.02795,7.98757-1.27266-2.26642-3.18658-4.392-3.71959-6.82061-5.87591-26.77373-22.56445-52.85688-5.48522-81.25637.67838-1.1279-.53264-4.95966-1.12936-5.02288-3.04744-.3232-6.58468-.69058-9.22263.53032-19.94847,9.2335-27.06537,28.31649-35.17121,46.61529-.73275,1.6542-2.14149,3.00912-3.23631,4.50294a16.95031,16.95031,0,0,1-.46295-3.58875c9.90356-118.80379,94.77721-229.34929,199.318-246.93859,93.34918-15.70613,167.60659,47.5451,178.20952,151.60124C1308.55255,1159.45214,1308.93787,1167.10674,1309.651,1176.714Z" style="fill: #fff"/>
    <path d="M1029.71232,1325.63186c-1.3568-46.14523,30.44274-86.64483,73.76025-97.87028,40.9543-10.61315,84.023,8.34843,101.41705,44.44659,5.41529,11.23834,6.10057,16.08-9.79059,20.30141-48.95024,13.00325-93.38109,36.641-132.99692,68.28168-8.47184,6.76626-12.09979,4.631-15.934-2.38056C1039.75566,1346.6847,1034.13433,1334.52631,1029.71232,1325.63186Zm137.56278-52.94259c-1.59134-9.915-3.57493-20.71671-16.87751-20.6622-12.57283.05154-21.46863,6.80232-21.48809,20.3449-.01734,12.13411,6.93737,19.786,19.3448,20.02586C1160.597,1292.63658,1166.01023,1284.68721,1167.2751,1272.68927Z" style="fill: #221b1b"/>
    <path d="M1697.75328,1304.50787a46.868,46.868,0,0,1-.68435,7.038c-6.33166,32.13213-10.14768,33.49609-35.62287,17.04176-38.04782-24.57492-77.32058-46.7338-124.033-50.01936-6.75714-.47528-4.22489-3.852-3.00094-7.36486,20.51212-58.87266,96.69382-71.653,139.99973-23.74532C1688.50234,1263.04581,1698.126,1280.05878,1697.75328,1304.50787Zm-91.99182-44.35522c-1.27924-9.84291-6.52511-17.38376-17.4366-17.29588-9.18577.074-16.852,4.77084-16.99111,15.54587-.15525,12.01364,7.38828,17.22985,18.34847,17.59431C1599.63473,1276.32759,1604.71839,1270.50208,1605.76146,1260.15265Z" style="fill: #221b1b"/>
    <path d="M1167.88641,1273.06119c-1.246,11.81945-6.5787,19.65054-18.73783,19.41534-12.22283-.23629-19.07407-7.77434-19.057-19.72792.01917-13.3411,8.78263-19.99145,21.1684-20.04222C1164.36466,1252.65269,1166.31875,1263.29371,1167.88641,1273.06119Z" style="fill: #fdfdfd"/>
    <path d="M1605.76146,1260.15265c-1.04307,10.34943-6.12673,16.17494-16.07924,15.8443-10.96019-.36446-18.50372-5.58067-18.34847-17.59431.13914-10.775,7.80534-15.47191,16.99111-15.54587C1599.23635,1242.76889,1604.48222,1250.30974,1605.76146,1260.15265Z" style="fill: #fbfbfb"/>
  </g>
</svg>
