<svg id="Layer_4" data-name="Layer 4" xmlns="http://www.w3.org/2000/svg" viewBox="0 0 3000 3000">
  <title>Eyes</title>
  <g>
    <g>
      <g>
        <g>
          <path d="M1233.9424,1271.91978c-.99124,15.7517-2.02557,29.68724-2.67769,43.64048-.31191,6.67636-4.64055,9.31769-9.96287,10.84111-37.75023,10.80634-75.50852,21.589-113.37127,31.98946-3.37827.928-8.94672.49715-11.08993-1.67657-37.62491-38.1655-67.40258-80.43351-64.51121-137.39743.96684-19.04834,8.05042-32.053,31.89342-33.36181,42.165-2.31453,84.107-8.59906,126.16534-13.00091,15.68289-1.64142,23.57357,9.12513,29.73716,20.86011C1233.28381,1218.86678,1233.7668,1246.31,1233.9424,1271.91978Zm-129.87-56.45384c.10043-5.21531-2.93347-6.44671-7.41708-5.83558-13.64011-4.58038-26.515-5.64082-36.22047,7.87518-3.22183,4.39673-14.64637-7.00572-13.2163,8.31815,3.18278,34.10667,16.36759,64.14024,37.74535,89.51069,9.5631,11.34925,14.58108,35.05411,39.08817,25.986q41.58513-15.38763,83.22885-30.61553c5.71916-2.08634,8.3716-6.071,9.00432-11.90985q2.93713-27.09954,6.03632-54.1814c.92511-8.16647-.64358-15.37146-10.17617-16.19309-14.09516-1.21505-28.30075-1.08118-42.432-1.9604-22.19792-1.38126-44.932.23295-65.5398-10.84222Z" style="fill: #020201"/>
          <path d="M1104.17352,1215.61786c20.60776,11.07517,43.34188,9.461,65.5398,10.84222,14.13128.87922,28.33687.74535,42.432,1.9604,9.53259.82163,11.10128,8.02662,10.17617,16.19309q-3.068,27.0849-6.03632,54.1814c-.63272,5.83888-3.28516,9.82351-9.00432,11.90985q-41.65524,15.19562-83.22885,30.61553c-24.50709,9.06814-29.52507-14.63672-39.08817-25.986-21.37776-25.37045-34.56257-55.404-37.74535-89.51069-1.43007-15.32387,9.99447-3.92142,13.21691-8.31986.7733,14.83966,11.484,15.268,22.06674,14.39523C1092.7247,1231.05583,1105.08545,1231.80741,1104.17352,1215.61786Zm42.85632,35.68721c-.72424-6.91433-4.34864-11.83346-11.55315-12.436-6.47428-.54133-9.854,3.89994-9.6822,9.9631.19256,6.7973,3.57022,12.74441,10.66539,13.542C1143.27829,1263.14048,1145.89875,1257.57849,1147.02984,1251.30507Z" style="fill: #3e250e"/>
          <path d="M1104.07236,1215.46594q-3.71269-2.92011-7.42123-5.8379C1101.13889,1209.01923,1104.17279,1210.25063,1104.07236,1215.46594Z" style="fill: #3e250e"/>
        </g>
        <ellipse cx="1082.80646" cy="1219.33606" rx="25.88764" ry="16.17978" style="fill: #fff"/>
        <ellipse cx="1135.47314" cy="1251.40726" rx="11.20011" ry="13.31905" style="fill: #fff"/>
      </g>
      <g>
        <g>
          <path d="M1516.831,1193.81422c6.1636-11.735,14.05428-22.50153,29.73716-20.86011,42.05837,4.40185,84.00032,10.68638,126.16534,13.00091,23.843,1.30877,30.92658,14.31347,31.89342,33.36181,2.89137,56.96392-26.8863,99.23193-64.51121,137.39743-2.1432,2.17372-7.71166,2.60461-11.08993,1.67657-37.86274-10.40046-75.621-21.18312-113.37127-31.98946-5.32232-1.52342-9.651-4.16475-9.96286-10.84111-.65213-13.95324-1.68645-27.88878-2.6777-43.64048C1503.18954,1246.31,1503.67254,1218.86678,1516.831,1193.81422Zm115.95183,21.80364c-20.60776,11.07517-43.34188,9.461-65.5398,10.84222-14.13128.87922-28.33687.74535-42.432,1.9604-9.53259.82163-11.10128,8.02662-10.17618,16.19309q3.068,27.0849,6.03632,54.1814c.63273,5.83888,3.28516,9.82351,9.00432,11.90985q41.65526,15.19562,83.22885,30.61553c24.50709,9.06814,29.52507-14.63672,39.08817-25.986,21.37776-25.37045,34.56258-55.404,37.74535-89.51069,1.43007-15.32387-9.99447-3.92142-13.21629-8.31815-9.70551-13.516-22.58037-12.45556-36.22047-7.87518-4.48362-.61113-7.51752.62027-7.41709,5.83558Z" style="fill: #020201"/>
          <path d="M1654.45418,1231.89906c10.58278.87275,21.29344.44443,22.06675-14.39523,3.22243,4.39844,14.647-7.004,13.2169,8.31986-3.18277,34.10667-16.36759,64.14024-37.74535,89.51069-9.5631,11.34925-14.58108,35.05411-39.08817,25.986q-41.58513-15.38763-83.22885-30.61553c-5.71916-2.08634-8.37159-6.071-9.00432-11.90985q-2.93713-27.09954-6.03632-54.1814c-.9251-8.16647.64359-15.37146,10.17618-16.19309,14.09515-1.21505,28.30074-1.08118,42.432-1.9604,22.19792-1.38126,44.932.23295,65.5398-10.84222C1631.87089,1231.80741,1644.23164,1231.05583,1654.45418,1231.89906Zm-53.95772,30.47507c7.09517-.79759,10.47283-6.7447,10.66539-13.542.17182-6.06316-3.20791-10.50443-9.68219-9.9631-7.20451.60258-10.82891,5.52171-11.55316,12.436C1591.05759,1257.57849,1593.67806,1263.14048,1600.49646,1262.37413Z" style="fill: #3e250e"/>
          <path d="M1632.884,1215.46594q3.7127-2.92011,7.42123-5.8379C1635.81745,1209.01923,1632.78355,1210.25063,1632.884,1215.46594Z" style="fill: #3e250e"/>
        </g>
        <ellipse cx="1654.14989" cy="1219.33606" rx="25.88764" ry="16.17978" style="fill: #fff"/>
        <ellipse cx="1601.4832" cy="1251.40726" rx="11.20011" ry="13.31905" style="fill: #fff"/>
      </g>
    </g>
    <path d="M1702.49134,1014.63887c-12.80579-26.43646-190.66711,3.88281-203.86511,74.427-2.9187,15.60071,1.35828,37.7511,16.17981,46.92139C1564.364,1166.64961,1715.92091,1042.363,1702.49134,1014.63887Z" style="opacity: 0.2"/>
    <path d="M1034.465,1014.63887c12.80579-26.43646,190.66712,3.88281,203.86511,74.427,2.91871,15.60071-1.35827,37.7511-16.1798,46.92139C1172.59232,1166.64961,1021.03544,1042.363,1034.465,1014.63887Z" style="opacity: 0.2"/>
  </g>
</svg>
