<svg id="Layer_5" data-name="Layer 5" xmlns="http://www.w3.org/2000/svg" viewBox="0 0 3000 3000">
  <title>Eyes</title>
  <g>
    <path d="M1024.846,1342.726c1.1097-53.27427,8.28728-105.2453,37.38817-151.37559,33.27641-52.74906,81.05683-51.37265,112.07535,2.59525,18.21067,31.684,24.71474,66.60574,27.81722,102.44618.4719,5.45126-3.61274,6.54892-6.89342,8.39339-48.08258,27.03006-96.37949,53.68572-144.22155,81.13436-17.61045,10.10371-24.7928,5.58871-24.89388-14.00023C1026.0676,1362.1904,1025.26933,1352.46519,1024.846,1342.726Zm150.78595-84.3506c-4.20609-12.793,4.563-34.57014-19.08793-34.20474-16.07172.24846-12.47869,17.8765-12.85269,28.21358-.52773,14.58828-1.37628,35.39024,17.42934,36.59254C1178.08086,1290.0613,1172.04353,1270.01753,1175.63193,1258.37535Z"/>
    <path d="M1724.11037,1327.00747c-.09737,60.88248.098,60.51272-45.3098,36.5215-39.19679-20.70935-78.81322-40.63432-118.45638-60.48189-9.33679-4.67442-13.16424-10.86534-12.29281-21.32241,3.16346-37.96009,11.82-74.20589,34.226-105.69432,27.85016-39.13924,67.58566-40.27249,96.7273-1.98854C1715.30408,1221.72949,1722.35162,1278.1966,1724.11037,1327.00747Zm-106.209-93.18851c.47322-9.40254.67881-16.46516-6.0196-19.99945-2.928-1.54495-8.12139-1.61414-10.98017-.01654-18.78577,10.49729-26.021,51.0906-12.536,68.13787,5.70672,7.2141,10.26127,8.1448,16.82977-.31169C1617.06306,1266.35055,1615.119,1248.21528,1617.90142,1233.819Z"/>
    <ellipse cx="1159.56179" cy="1256.59254" rx="21.69973" ry="38.13892" style="fill: #fff"/>
    <ellipse cx="1603.0174" cy="1250.08993" rx="21.69973" ry="38.13892" style="fill: #fff"/>
  </g>
</svg>
