<svg id="Layer_11" data-name="Layer 11" xmlns="http://www.w3.org/2000/svg" viewBox="0 0 3000 3000">
  <title>eyes new 2</title>
  <g>
    <path d="M1631.62863,1019.44468c35.54514.73764,69.38428,6.76611,96.46724,32.36314a69.57064,69.57064,0,0,1,13.20561,17.29017c5.32816,9.88415,10.74806,22.54728,2.66621,30.87241-3.36123,3.46257-8.46125-11.34473-13.63733-17.252-42.98167-49.05217-152.866-38.2-190.37172,19.13465-2.46966,3.77528-3.45277,10.79675-9.90387,8.49745-6.86534-2.447-6.36729-9.42477-5.55356-15.32513,3.11726-22.60242,14.03977-40.42423,33.10864-53.22152C1580.02,1026.76411,1605.14533,1020.94534,1631.62863,1019.44468Z" style="fill: #010101"/>
    <path d="M1165.77843,1159.82751c-40.02283.27442-102.79592-47.70931-112.54178-84.79623-2.0778-7.90654-3.295-17.01393,4.84068-21.74819,9.69483-5.64162,9.78057,6.04854,13.38535,10.09314,25.0248,28.07784,52.71707,52.47378,87.8722,67.17956,4.13944,1.73168,9.43561,1.65463,12.71649,4.27076,5.72036,4.5613,16.94773-10.18241,16.81824,2.85619C1188.74244,1150.47717,1179.81026,1160.9918,1165.77843,1159.82751Z" style="fill: #010101"/>
    <path d="M1011.70165,1407.00583c-6.40085-15.01223-17.28385-46.51735-11.7788-85.92707,2.15687-15.44069,6.99591-46.97119,32.21387-75.06705,7.94635-8.8532,24.94483-27.29452,53.53965-34.80052,54.67142-14.351,97.919,25.398,100.00805,27.38343,18.99024,18.04826,37.97621,50.295,28.24847,63.88447-3.25988,4.55406-8.77315,5.73-10.89562,6.20022-22.98234,5.09132-48.14762,19.336-98.69332,46.89854-28.13677,15.343-47.381,30.238-63.63611,38.85878a247.08474,247.08474,0,0,0-22.19572,13.25908c-2.07095,1.38582-3.74356,2.54989-4.80623,3.29736Z" style="fill: #fff"/>
    <path d="M1204.68255,1300.48093c1.25993,14.33449-11.871,11.53452-18.80582,14.30349-10.688,4.26766-20.14124,13.17725-33.00563,11.06894l-.53654-.40982c-2.94326-.70567-5.95873-1.18388-8.85643-2.03695-1.47443-.68873-3.0099-1.3001-4.44631-2.05721-1.27789-.878-2.68114-1.61449-3.876-2.60111-.745-.7006-1.51283-1.40824-2.24612-2.11248-.72482-.7092-1.48373-1.41245-2.18513-2.13733-25.68146-23.67685-5.10535-118.67236,34.846-81.67846-18.23348,21.04882,3.202,55.31109,29.65961,41.16044Zm-50.74062-44.23025c-1.31646-4.43306-2.83871-9.55866-4.36082-14.68413-2.457,7.70581-14.23709,25.35468.29529,26.73862C1158.756,1267.49385,1151.19817,1260.77559,1153.94193,1256.25068Z" style="fill: #ff5ceb"/>
    <path d="M1130.09756,1196.16025c-104.7189-16.868-174.92036,126.83749-124.61931,214.767,2.36518,4.73825,7.3117,6.72666,11.6353.83045q58.83423-35.54219,117.67059-71.08511c1.40765-.66935,2.81416-1.34693,4.22006-2.01866,1.93036-.92727,3.88121-1.82408,5.82018-2.74051,1.45965-.66772,2.90077-1.38183,4.35228-2.06643,1.42318-.68041,2.845-1.36911,4.26891-2.05313l.13681-.06348q27.825-11.09823,55.65278-22.19653c2.06947-.70684,4.0953-1.55389,6.15081-2.31067C1241.98137,1272.335,1173.808,1201.71236,1130.09756,1196.16025Zm-113.01869,207.42242c-35.68071-76.13471,9.58291-191.71138,102.36-187.51913-23.80214,32.96146-38.69431,101.727,8.92675,120.3324Q1072.723,1369.99,1017.07887,1403.58267Zm167.6823-90.67653c-107.64033,60.05407-58.9472-180.361,7.35622-43.847C1197.636,1286.09324,1213.501,1313.22624,1184.76117,1312.90614Z" style="fill: #010101"/>
    <path d="M1736.03931,1390.04546c5.69119-15.29536,15.08769-47.27532,7.74413-86.3842-2.8772-15.3228-9.1867-46.59227-35.692-73.477-8.352-8.47157-26.195-26.09707-55.10979-32.25649-55.28319-11.77641-96.6229,29.95321-98.61678,32.03424-18.1247,18.9173-35.58057,52.01731-25.22745,65.13659,3.46946,4.3965,9.03173,5.31313,11.17388,5.68347,23.19545,4.01006,48.99987,17.06128,100.78021,42.22787,28.824,14.00921,48.74437,27.9872,65.38514,35.83775a247.08961,247.08961,0,0,1,22.792,12.20569c2.13354,1.28737,3.85879,2.37189,4.95528,3.06879Z" style="fill: #fff"/>
    <path d="M1544.13042,1265.811c27.0909,12.89681,46.89929-22.33119,27.70062-42.50354,38.17607-38.82325,63.17583,55.1051,38.63069,79.958-.6667.75691-1.39186,1.49491-2.08269,2.23726-.69953.73779-1.43345,1.48059-2.14479,2.21529-1.14739,1.04147-2.51464,1.84282-3.75,2.77968-1.39941.8235-2.90458,1.50607-4.34516,2.26306-2.8546.98776-5.84438,1.60658-8.75139,2.44924l-.51677.43448c-12.75161,2.70811-22.61144-5.74927-33.48753-9.512-7.05682-2.44136-20.04231.97013-19.45467-13.40762Zm45.03841-7.79181c14.45168-2.06261,1.85851-19.14077-.95652-26.72314-1.28055,5.1911-2.56123,10.38233-3.66876,14.87214C1587.49609,1250.55967,1580.261,1257.62431,1589.16883,1258.01914Z" style="fill: #ff5ceb"/>
    <path d="M1525.55259,1299.9606c2.08867.65974,4.15192,1.411,6.25221,2.02025q28.31711,9.78368,56.63069,19.56742l.13963.057c1.45438.61662,2.90685,1.238,4.36032,1.85108,1.482.6159,2.95493,1.26178,4.44423,1.86045,1.97974.82467,3.97042,1.6292,5.94206,2.4651,1.43581.60519,2.87249,1.2162,4.30993,1.81892q60.43543,32.75055,120.86872,65.49972c4.59483,5.68739,9.44286,3.46964,11.58367-1.37412,46.13046-90.18743-30.72011-230.44967-134.53475-208.69888C1562.14662,1192.61941,1497.35341,1266.35542,1525.55259,1299.9606Zm88.29039,25.06789c46.69806-20.81386,28.60368-88.807,3.28488-120.61834,92.4792-8.53,143.10271,104.80146,111.02454,182.52274Q1670.99734,1355.98105,1613.843,1325.02849Zm-66.83356-64.27916c59.84131-139.46771,119.73355,98.40488,9.40039,43.45466C1527.7165,1305.86888,1542.29412,1278.02307,1547.00942,1260.74933Z" style="fill: #010101"/>
  </g>
</svg>
