<svg id="Layer_17" data-name="Layer 17" xmlns="http://www.w3.org/2000/svg" viewBox="0 0 3000 3000">
  <title>2</title>
  <g>
    <path d="M1539.78443,1261.65469c.37265-31.98045,3.10307-56.8626,12.21362-80.46928a136.121,136.121,0,0,1,15.76782-30.14205c16.38754-22.87988,42.3891-29.77695,68.56761-19.36613,12.11772,4.81914,23.32224,11.52969,31.81428,21.36773,11.50461,13.3279,23.41557,26.67361,32.57359,41.59432,38.42652,62.60707,57.4838,130.94312,57.21082,204.50723a68.65227,68.65227,0,0,1-1.76018,16.38418c-1.68276,6.68007-7.275,7.77966-11.08017,2.07415-10.98509-16.4713-26.96844-26.96479-43.32712-36.90114-38.7328-23.52618-78.68724-44.7009-121.27325-60.512a203.39308,203.39308,0,0,0-24.23356-7.27107c-8.34773-1.96113-12.62214-6.58768-13.27059-15.16671C1541.9066,1283.45871,1540.465,1269.19077,1539.78443,1261.65469Zm202.8993,134.15867q1.03418-.66639,2.06849-1.33291c-.37386-5.11047-.4042-10.27407-1.1851-15.32155-2.53068-16.35356-4.66418-32.81029-8.16619-48.96357-9.56613-44.12258-23.82827-86.53516-48.07343-125.06728-9.66459-15.36-20.69931-29.53445-35.00933-40.89759-2.76091-2.19243-5.72817-4.1251-8.6002-6.17754,10.46382,28.79982,18.88869,57.56081,22.127,87.63393,3.24158,30.10415,3.85254,60.10067-6.344,89.94559A337.85992,337.85992,0,0,1,1742.68373,1395.81336Zm-175.71238-187.827c1.507,7.18933,3.00192,15.46261,5.03615,23.60116,1.235,4.94174,4.43976,8.66952,9.90884,9.03839,5.81852.3926,10.12112-2.8773,12.133-7.89578,2.15089-5.36442,4.56735-11.35356,4.13657-16.85609-.70415-8.99456-3.23416-17.92748-5.7554-26.66673-1.42827-4.95118-4.36558-9.97169-10.74246-9.20954-5.95569.71184-10.08174,4.66148-11.60738,10.43469C1568.68568,1195.711,1568.13109,1201.21172,1566.97135,1207.98634Zm53.05955,38.847c.07768-5.58587-2.68322-9.65339-6.68385-9.84693-4.35519-.21066-8.19181,4.87-8.39021,11.11147-.19178,6.02474,2.74338,10.89149,6.69936,11.1085C1616.13992,1259.45241,1619.93325,1253.84805,1620.0309,1246.83337Zm16.238,22.12178c-1.80832,1.88966-3.74194,3.02161-3.73493,4.14116a4.59422,4.59422,0,0,0,2.8568,3.45427c.96526.2015,3.13841-1.54789,3.36323-2.70561C1638.982,1272.67161,1637.477,1271.16161,1636.26887,1268.95515Z"/>
    <path d="M1211.25992,1276.33074c-.74326,7.88189-2.09465,22.15739-3.43323,36.43423-.67057,7.1536-4.69156,11.12158-11.52673,12.98116-56.37314,15.33611-106.65627,43.6233-155.92087,73.92125-13.16241,8.095-25.48352,17.49172-34.17813,30.81666-1.1824,1.81223-4.5084,3.93858-6.004,3.434a9.80127,9.80127,0,0,1-5.43172-5.788,48.6381,48.6381,0,0,1-1.57932-13.07934c-.73517-76.72855,19.29722-147.69117,60.48855-212.36242,8.62312-13.53857,19.42924-25.92185,30.55919-37.56646,12.40674-12.98088,27.77832-21.77,46.08681-24.10718,19.22977-2.45476,35.6041,3.17617,48.694,17.70076,9.0071,9.99421,15.177,21.6492,19.74862,34.19622C1207.81968,1217.76651,1211.07434,1243.57426,1211.25992,1276.33074Zm-104.19505-104.94156c-2.91681,2.13889-5.91617,4.17447-8.73641,6.43394-15.15431,12.14025-26.76222,27.2994-36.58313,43.855-32.947,55.54033-48.68492,116.38817-55.08379,180.06179-.22415,2.23047.42592,4.54887.82742,8.31711a338.07423,338.07423,0,0,1,83.41333-60.88641C1074.7861,1287.343,1085.46841,1229.32857,1107.06487,1171.38918Zm77.17928,48.97572c-1.44472-6.52632-2.36075-13.0842-4.43437-19.25325-1.60926-4.78772-5.959-7.63966-11.047-7.95121-5.21391-.31924-7.977,3.66682-9.54712,7.85963a128.382,128.382,0,0,0-6.11,19.945,37.0674,37.0674,0,0,0,3.55974,24.66622c2.52583,4.86432,6.28517,8.454,12.03437,8.293,5.99062-.16765,9.27806-4.32755,10.59343-9.67376C1181.21161,1236.45452,1182.582,1228.52381,1184.24415,1220.3649Zm-37.144,40.67316c-1.8767-3.00515-3.76069-6.82586-6.48248-9.90614-.85224-.96458-4.51286-.69727-5.934.32814-4.06455,2.93354-4.28075,7.47486-3.0676,11.94307a18.79892,18.79892,0,0,0,3.12829,6.85149c2.76293,3.40652,6.79929,3.078,9.11594-.65978C1145.1623,1267.494,1145.67858,1264.90611,1147.1001,1261.03806Zm-27.13378,25.63513c-1.99943-1.45362-3.369-3.21407-4.53443-3.088a4.58258,4.58258,0,0,0-3.16592,3.21339c-.0611,1.04861,1.9614,3.06855,3.11628,3.1082C1116.63357,1289.94943,1117.946,1288.1968,1119.96632,1286.67319Z"/>
    <path d="M1742.68373,1395.81336a337.85992,337.85992,0,0,0-83.1827-60.18092c10.19651-29.84492,9.58555-59.84144,6.344-89.94559-3.23834-30.07312-11.66321-58.83411-22.127-87.63393,2.872,2.05244,5.83929,3.98511,8.6002,6.17754,14.31,11.36314,25.34474,25.53761,35.00933,40.89759,24.24516,38.53212,38.5073,80.9447,48.07343,125.06728,3.502,16.15328,5.63551,32.61,8.16619,48.96357.7809,5.04748.81124,10.21108,1.1851,15.32155Q1743.718,1395.14683,1742.68373,1395.81336Z" style="fill: #fff"/>
    <path d="M1566.97135,1207.98634c1.15974-6.77462,1.71433-12.27539,3.10928-17.5539,1.52564-5.77321,5.65169-9.72285,11.60738-10.43469,6.37688-.76215,9.31419,4.25836,10.74246,9.20954,2.52124,8.73925,5.05125,17.67217,5.7554,26.66673.43078,5.50253-1.98568,11.49167-4.13657,16.85609-2.01184,5.01848-6.31444,8.28838-12.133,7.89578-5.46908-.36887-8.67384-4.09665-9.90884-9.03839C1569.97327,1223.449,1568.47838,1215.17567,1566.97135,1207.98634Z" style="fill: #fff"/>
    <path d="M1620.0309,1246.83337c-.09765,7.01468-3.891,12.619-8.3747,12.373-3.956-.217-6.89114-5.08376-6.69936-11.1085.1984-6.24148,4.035-11.32213,8.39021-11.11147C1617.34768,1237.18,1620.10858,1241.2475,1620.0309,1246.83337Z" style="fill: #fff"/>
    <path d="M1636.26887,1268.95515c1.20816,2.20646,2.71317,3.71646,2.4851,4.88982-.22482,1.15772-2.398,2.90711-3.36323,2.70561a4.59422,4.59422,0,0,1-2.8568-3.45427C1632.52693,1271.97676,1634.46055,1270.84481,1636.26887,1268.95515Z" style="fill: #fff"/>
    <path d="M1107.06487,1171.38918c-21.59646,57.93939-32.27877,115.95377-16.16258,177.78143A338.07423,338.07423,0,0,0,1007.489,1410.057c-.4015-3.76824-1.05157-6.08664-.82742-8.31711,6.39887-63.67362,22.13675-124.52146,55.08379-180.06179,9.82091-16.5556,21.42882-31.71475,36.58313-43.855C1101.1487,1175.56365,1104.14806,1173.52807,1107.06487,1171.38918Z" style="fill: #fff"/>
    <path d="M1184.24415,1220.3649c-1.66213,8.15891-3.03254,16.08962-4.95092,23.8856-1.31537,5.34621-4.60281,9.50611-10.59343,9.67376-5.7492.161-9.50854-3.42865-12.03437-8.293a37.0674,37.0674,0,0,1-3.55974-24.66622,128.382,128.382,0,0,1,6.11-19.945c1.57015-4.19281,4.33321-8.17887,9.54712-7.85963,5.08794.31155,9.43773,3.16349,11.047,7.95121C1181.8834,1207.2807,1182.79943,1213.83858,1184.24415,1220.3649Z" style="fill: #fff"/>
    <path d="M1147.1001,1261.03806c-1.42152,3.868-1.9378,6.45592-3.23982,8.55678-2.31665,3.73776-6.353,4.0663-9.11594.65978a18.79892,18.79892,0,0,1-3.12829-6.85149c-1.21315-4.46821-.997-9.00953,3.0676-11.94307,1.42111-1.02541,5.08173-1.29272,5.934-.32814C1143.33941,1254.2122,1145.2234,1258.03291,1147.1001,1261.03806Z" style="fill: #fff"/>
    <path d="M1119.96632,1286.67319c-2.02034,1.52361-3.33275,3.27624-4.58407,3.23362-1.15488-.03965-3.17738-2.05959-3.11628-3.1082a4.58258,4.58258,0,0,1,3.16592-3.21339C1116.59729,1283.45912,1117.96689,1285.21957,1119.96632,1286.67319Z" style="fill: #fff"/>
  </g>
</svg>
