<svg id="Layer_11" data-name="Layer 11" xmlns="http://www.w3.org/2000/svg" viewBox="0 0 3000 3000">
  <title>eyes new 3</title>
  <g>
    <path d="M1743.08486,1223.63689c-9.09619-10.519-28.52742-32.40622-59.93575-40.13594-60.05077-14.779-104.77485,36.74134-106.93173,39.3109-19.60627,23.35784-38.43577,64.27867-27.1508,80.55953,3.78181,5.456,9.8228,6.61082,12.14934,7.077,25.19245,5.04818,51.1175,25.48275,107.414,56.82842,31.33794,17.44871,39.82716,36.623,57.91845,46.40289,1.13455.6133,21.01-39.92525,28.457-84.56888C1762.12559,1286.42648,1757.19459,1239.95366,1743.08486,1223.63689Z" style="fill: #fff"/>
    <path d="M999.3976,1223.63689c9.09619-10.519,28.52742-32.40622,59.93575-40.13594,60.05077-14.779,104.77486,36.74134,106.93174,39.3109,19.60627,23.35784,38.43576,64.27867,27.15079,80.55953-3.78181,5.456-9.82279,6.61082-12.14933,7.077-25.19246,5.04818-51.11751,25.48275-107.414,56.82842-31.33793,17.44871-39.82716,36.623-57.91844,46.40289-1.13456.6133-21.01-39.92525-28.457-84.56888C980.35687,1286.42648,985.28788,1239.95366,999.3976,1223.63689Z" style="fill: #fff"/>
    <path d="M1084.37512,990.68623c67.40508.60614,112.30675,29.85994,123.33842,77.70984,1.67464,7.26456,3.71416,15.86926-4.00752,19.97853-9.26562,4.93127-10.04362-5.82919-13.401-10.33143-45.45814-60.95912-163.94732-69.68445-209.75642-15.22977a26.31062,26.31062,0,0,1-2.98115,3.54939c-5.9687,4.9351-7.3114,20.73823-13.03642,16.78578-8.49045-5.86169-4.26013-19.67553.03832-29.05469,18.55906-40.49636,54.89874-54.13976,95.2116-60.971C1069.26044,991.51646,1078.95877,991.19984,1084.37512,990.68623Z" style="fill: #010101"/>
    <path d="M1604.69,1134.73889c-15.02952,1.64215-20.86467-10.17191-25.1837-23.17824-.58428-1.75937,2.36168-6.77664,3.73787-6.80219,62.41961-1.16246,94.94394-46.98249,131.21408-87.27192,2.07841-2.30889,5.36143-5.52662,7.60474-5.18417,2.7416.41852,6.445,3.79066,7.12122,6.53013,1.34426,5.44586,2.15448,11.60118.99869,16.995C1721.31922,1077.19151,1649.11074,1134.73137,1604.69,1134.73889Z" style="fill: #010101"/>
    <path d="M1207.7126,1289.78157c-6.8207-38.80732-24.856-71.64733-54.02692-97.87327-46.99486-42.24765-110.666-35.957-148.86607,14.0397-43.32344,56.7022-42.61755,149.35269,1.56716,205.65265q1.41375,2.07862,2.82828,4.158l.08518.14512h0c2.95291,2.29671.01262,15.32765,8.59213,6.65587,31.75238-32.09232,67.74483-58.58169,105.26894-83.24679,23.23992-11.2958,44.82671-27.062,70.78213-31.19319C1206.87894,1306.06119,1209.66306,1300.88335,1207.7126,1289.78157ZM1107.687,1342.81394c-28.65752,18.52269-55.59172,39.26951-79.991,63.10569-5.78277,5.64869-7.02025,3.03808-8.79246-2.24307-27.14951-50.518-34.97029-103.04086-14.16195-157.58991,17.01153-44.59719,52.168-66.057,88.98618-56.06256a69.08211,69.08211,0,0,1,7.387,2.9182c-1.687,1.874-3.24867,3.8812-5.08,5.60215-32.48272,30.51807-27.28044,109.36152,8.84136,133.57785q2.14133,1.09077,4.28344,2.18076a1.76,1.76,0,0,0,1.99858.6073C1116.3895,1340.30114,1110.21475,1341.17975,1107.687,1342.81394Zm78.166-40.14812c-14.18719,21.44562-60.17723,22.38969-74.19564.933-5.155-7.8894-9.29722-17.34515-10.74449-26.58165-4.12965-26.349-3.23368-57.207,23.04589-66.84729,18.18039-6.66927,29.63945,21.64753,40.96522,37.19995,10.9953,15.09814,17.75449,32.53005,21.7193,52.10171A7.56125,7.56125,0,0,1,1185.85292,1302.66582Z" style="fill: #010101"/>
    <path d="M1006.38641,1411.60052q1.41458,2.0794,2.829,4.15823Q1007.80063,1413.67893,1006.38641,1411.60052Z" style="fill: #2f2d2d"/>
    <path d="M1186.64308,1299.47131a7.55054,7.55054,0,0,1-.79035,3.19474c-14.187,21.44555-60.17686,22.38931-74.19549.93283-5.15465-7.88971-9.29684-17.34536-10.74428-26.58146-4.12971-26.34957-3.23363-57.20748,23.04583-66.84763,18.18028-6.66935,29.63954,21.6475,40.96526,37.20014C1175.91881,1262.468,1182.67871,1279.89994,1186.64308,1299.47131Zm-44.99136-54.322c.55575,6.76316.54184,13.41449,6.80119,17.64638,2.2084-5.59985,5.40215-11.04174,6.33329-16.84666.84328-5.25754-1.0793-12.1849-7.46779-12.23471C1140.3286,1233.65941,1142.76635,1241.0111,1141.65172,1245.14932Z" style="fill: #eeec1f"/>
    <path d="M1109.15918,1334.30324q-2.14263-1.09122-4.2844-2.18172Q1107.018,1333.213,1109.15918,1334.30324Z" style="fill: #2f2d2d"/>
    <path d="M1551.6685,1308.1197c25.95542,4.13123,47.54221,19.89739,70.78213,31.19319,37.52411,24.6651,73.51655,51.15447,105.26894,83.24679,8.5795,8.67178,5.63922-4.35916,8.59212-6.65587h0l.08518-.14512q1.41375-2.07862,2.82829-4.158c44.18471-56.3,44.89059-148.95045,1.56715-205.65265-38.2-49.99666-101.87121-56.28735-148.86606-14.0397-29.171,26.22594-47.20622,59.06595-54.02692,97.87327C1535.94887,1300.88335,1538.733,1306.06119,1551.6685,1308.1197Zm82.78539,26.79065a1.76,1.76,0,0,0,1.99858-.6073q2.14251-1.09077,4.28344-2.18076c36.1218-24.21633,41.32408-103.05978,8.84136-133.57785-1.83137-1.72095-3.393-3.72819-5.08-5.60215a69.08211,69.08211,0,0,1,7.387-2.9182c36.81822-9.99444,71.97465,11.46537,88.98618,56.06256,20.80834,54.54905,12.98756,107.07192-14.16195,157.58991-1.77222,5.28115-3.00969,7.89176-8.79246,2.24307-24.39931-23.83618-51.3335-44.583-79.991-63.10569C1635.39718,1341.17975,1629.22243,1340.30114,1634.45389,1334.91035Zm-75.48516-35.43877c3.96481-19.57166,10.724-37.00357,21.7193-52.10171,11.32577-15.55242,22.78483-43.86922,40.96522-37.19995,26.27957,9.64031,27.17554,40.49831,23.04589,66.84729-1.44727,9.2365-5.58954,18.69225-10.7445,26.58165-14.0184,21.45665-60.00844,20.51258-74.19563-.933A7.56125,7.56125,0,0,1,1558.96873,1299.47158Z" style="fill: #010101"/>
    <path d="M1739.22552,1411.60052q-1.41457,2.0794-2.829,4.15823Q1737.8113,1413.67893,1739.22552,1411.60052Z" style="fill: #2f2d2d"/>
    <path d="M1580.68788,1247.36993c11.32572-15.55264,22.785-43.86949,40.96526-37.20014,26.27946,9.64015,27.17553,40.49806,23.04583,66.84763-1.44744,9.2361-5.58963,18.69175-10.74428,26.58146-14.01863,21.45648-60.00854,20.51272-74.19549-.93283a7.55054,7.55054,0,0,1-.79035-3.19474C1562.93322,1279.89994,1569.69311,1262.468,1580.68788,1247.36993Zm17.60564-13.6556c-6.38849.04981-8.31107,6.97717-7.46779,12.23471.93114,5.80492,4.12488,11.24681,6.33329,16.84666,6.25934-4.23189,6.24544-10.88322,6.80119-17.64638C1602.84558,1241.0111,1605.28333,1233.65941,1598.29352,1233.71433Z" style="fill: #eeec1f"/>
    <path d="M1636.45275,1334.30324q2.14263-1.09122,4.2844-2.18172Q1638.59389,1333.213,1636.45275,1334.30324Z" style="fill: #2f2d2d"/>
  </g>
</svg>
