<svg id="Layer_21" data-name="Layer 21" xmlns="http://www.w3.org/2000/svg" viewBox="0 0 3000 3000">
  <title>5</title>
  <g>
    <g>
      <path d="M721.00929,2362.32432c2.04826-21.13165,3.836-43.5718,6.63359-65.88566a43.3087,43.3087,0,0,1,7.09093-18.22277c25.78071-37.9111,52.03472-75.50034,78.10307-113.21617q44.70657-64.68079,89.36882-129.3921c1.09968-1.59157,2.0866-3.71337,3.65451-4.42748,2.61426-1.19076,6.43554-2.81824,8.325-1.74779,2.4696,1.39857,4.89116,5.22626,4.92779,8.0405.059,4.515-1.595,9.13662-2.97674,13.57236-12.2509,39.32934-24.29356,78.72739-36.98119,117.91618q-52.25454,161.40119-104.90164,322.67522c-2.51264,7.74118-4.13421,15.77056-6.20591,23.65627a38.533,38.533,0,0,1-1.73082,5.54069c-1.93715,4.47338-4.66474,8.21241-10.11748,8.39628-5.08985.17162-7.89947-3.25069-9.49139-7.3415-2.9431-7.56244-6.28709-15.14654-7.8334-23.04109-4.32806-22.09748-8.55057-44.26368-11.44578-66.58067C724.4847,2409.57415,723.17236,2386.67047,721.00929,2362.32432Z" style="opacity: 0.2"/>
      <path d="M983.91961,2192.69644c-2.55227,31.72671-4.98552,64.70347-7.91208,97.63632q-5.0101,56.37576-10.74158,112.68679c-5.00062,49.92924-10.26921,99.83139-15.37231,149.75065q-6.34938,62.11086-12.58729,124.23312c-2.08147,20.51191-4.1377,41.02667-6.3208,61.528-.90967,8.54423-3.325,11.73563-8.40212,11.86249-5.22625.13085-13.19406-6.38765-14.059-12.21284-4.04947-27.26987-8.559-54.49612-11.62816-81.88058-4.25729-37.98323-12.23408-75.16682-21.1241-112.25205-5.34171-22.28308-9.94465-44.76342-14.05634-67.30534-.904-4.95572,1.03218-10.76951,2.76051-15.81133,14.12875-41.21367,28.65368-82.29165,42.79391-123.50162,17.04555-49.67723,33.818-99.44825,50.75267-149.1634,1.62863-4.78125,3.41632-9.52146,5.409-14.161,1.81421-4.22394,4.89757-7.183,9.87324-6.70209,5.31848.51428,8.59526,3.95911,9.47557,8.9268C983.65506,2181.2647,983.52791,2186.37664,983.91961,2192.69644Z" style="opacity: 0.2"/>
      <path d="M1056.38454,2277.35468c.09408-1.32815-.4775-4.09223.59224-5.8671,1.67909-2.78631,4.05689-5.79754,6.88182-7.08978,3.85691-1.76461,7.87331.05559,10.00025,3.78863a64.52629,64.52629,0,0,1,5.026,11.72708q39.62517,120.19362,79.11551,240.4323c10.31667,31.39375,20.44149,62.85106,30.89771,94.19776,3.91663,11.74162,4.72524,23.18933,1.63519,35.4016q-14.1537,55.937-27.18164,112.15769c-5.74139,24.59359-10.75241,49.358-16.07231,74.0496-.32713,1.51831-.41008,3.08992-.74989,4.60452-1.64516,7.3281-5.23239,11.39838-10.062,10.89694-6.637-.68931-7.20538-5.88136-7.89811-11.09963q-15.11775-113.877-30.33527-227.74083c-8.24447-62.04772-16.67638-124.07234-24.52261-186.1708-6.04285-47.8254-11.30673-95.74914-16.90586-143.6304C1056.62514,2281.4683,1056.57084,2279.9098,1056.38454,2277.35468Z" style="opacity: 0.2"/>
      <path d="M1239.49907,2336.00461c-1.68051,9.327-3.19268,16.56763-4.26513,23.87264q-7.11672,48.47822-14.0279,96.98635c-1.16681,8.08213-2.21431,16.18478-3.58481,24.23241-.64825,3.806-1.5917,8.84926-6.43582,8.15254-3.07423-.44244-6.26378-3.88983-8.28153-6.77307-1.92325-2.74811-2.63808-6.45321-3.46693-9.83989q-25.38082-103.70881-50.57364-207.463a44.64314,44.64314,0,0,1-1.329-13.8446c.56744-7.03648,6.68256-9.78288,12.69833-6.03986a29.42488,29.42488,0,0,1,5.97529,5.49907c21.602,24.01775,43.24539,47.99986,64.63447,72.20632C1234.54948,2327.189,1237.12683,2332.38218,1239.49907,2336.00461Z" style="opacity: 0.2"/>
      <path d="M727.54279,2393.70407c-1.482-15.75342-2.8922-31.5142-4.47053-47.258-1.11372-11.11023.378-20.37051,8.77594-29.6322,11.61285-12.80675,20.71665-27.92489,30.5983-42.258,26.79494-38.86439,53.4044-77.857,80.17757-116.737a95.42212,95.42212,0,0,1,9.49779-11.686c3.7923-3.97671,8.659-5.6358,13.60234-2.35392,5.22287,3.46707,4.07831,8.38989,2.20971,13.47975q-29.60061,80.63135-59.05183,161.3177-25.624,69.73283-51.57947,139.34369a106.3994,106.3994,0,0,1-7.77035,16.834c-3.49537,5.94124-7.74887,5.85786-11.61555.09387C736.23855,2472.34662,726.99118,2393.75256,727.54279,2393.70407Z" style="opacity: 0.2"/>
      <path d="M898.61493,2578.0275c-1.32572-6.9055-2.594-15.70577-4.75025-24.28255-4.33278-17.235-8.81047-34.45008-13.92827-51.463a33.02533,33.02533,0,0,1,.46015-20.37816q14.5683-45.86279,29.061-91.74966,18.35826-58.03113,36.65894-116.0807c1.47588-4.6982,3.30542-9.04331,8.87287-9.298,6.56475-.30062,8.73177,5.03172,9.32054,9.92419a70.48578,70.48578,0,0,1-.25042,19.51544c-7.644,46.92586-15.60353,93.8004-23.52008,140.68174-7.53,44.59236-15.17061,89.166-22.63609,133.76915-.82274,4.91516-5.10177,26.82394-11.01479,26.77657C900.89043,2595.39462,898.0619,2581.0893,898.61493,2578.0275Z" style="opacity: 0.2"/>
      <path d="M1148.09526,2747.86438c-1.1-4.31137-2.47034-8.57424-3.2599-12.94175q-21.89786-121.12036-43.6783-242.26228-6.79887-37.70516-13.71841-75.38848c-.27751-1.52324-.71482-3.0272-.86868-4.56122-.63712-6.35644,1.36343-10.41766,5.77009-11.06145,5.83319-.85251,8.05325,2.94071,9.74949,7.76993,6.40692,18.24035,13.15063,36.36215,19.54082,54.60816q27.05761,77.25913,53.79364,154.63029c1.55955,4.53428,2.41036,10.02374,1.42966,14.60708-7.44762,34.80828-15.41011,69.50679-23.28937,104.222-.80487,3.54563-2.11952,6.97583-3.19765,10.45964Q1149.231,2747.9055,1148.09526,2747.86438Z" style="opacity: 0.2"/>
      <path d="M1211.88,2431.103c-1.88555-4.51669-4.1534-8.91484-5.593-13.56937-7.86692-25.436-15.44882-50.95986-23.3217-76.39385-1.93518-6.25208-4.86439-12.195-6.82736-18.44029-1.48425-4.72259-3.073-9.73871-2.87065-14.55064.13442-3.19964,2.6612-7.19535,5.34255-9.17037,3.55641-2.61938,7.46888-.33409,10.12754,2.836,3.9648,4.72741,7.81388,9.56713,11.45963,14.54412,8.44108,11.52372,16.67569,23.19861,25.11323,34.72489,2.62618,3.5876,4.10079,7.07566,3.077,11.76309-4.9265,22.55766-9.58656,45.17347-14.3412,67.76857Q1212.96292,2430.85894,1211.88,2431.103Z" style="opacity: 0.2"/>
      <path d="M2037.33008,2362.32432c-2.04825-21.13165-3.83595-43.5718-6.63359-65.88566a43.3087,43.3087,0,0,0-7.09093-18.22277c-25.78071-37.9111-52.03471-75.50034-78.10307-113.21617q-44.70657-64.68079-89.36882-129.3921c-1.09967-1.59157-2.0866-3.71337-3.6545-4.42748-2.61427-1.19076-6.43554-2.81824-8.325-1.74779-2.4696,1.39857-4.89115,5.22626-4.92779,8.0405-.059,4.515,1.595,9.13662,2.97674,13.57236,12.2509,39.32934,24.29356,78.72739,36.98119,117.91618q52.25454,161.40119,104.90164,322.67522c2.51264,7.74118,4.13421,15.77056,6.20591,23.65627a38.53175,38.53175,0,0,0,1.73083,5.54069c1.93714,4.47338,4.66473,8.21241,10.11747,8.39628,5.08985.17162,7.89947-3.25069,9.49139-7.3415,2.9431-7.56244,6.28709-15.14654,7.8334-23.04109,4.32806-22.09748,8.55057-44.26368,11.44578-66.58067C2033.85468,2409.57415,2035.167,2386.67047,2037.33008,2362.32432Z" style="opacity: 0.2"/>
      <path d="M1807.24431,2177.53308c3.74658,31.60793,7.42137,64.4695,11.58747,97.26861q7.132,56.14679,14.98238,112.2017c6.87946,49.70521,14.02568,99.37325,21.00718,149.06462q8.68652,61.82733,17.26209,123.67025c2.85331,20.41885,5.68152,40.84151,8.636,61.246,1.23115,8.50385,3.765,11.60193,8.84338,11.53728,5.22747-.06628,12.94386-6.88054,13.58854-12.7342,3.01848-27.40315,6.49839-54.78006,8.53288-82.26077,2.82225-38.11672,9.3915-75.57461,16.877-112.96865,4.49781-22.46862,8.25-45.10652,11.50885-67.78742.71656-4.98629-1.43747-10.72295-3.35465-15.696-15.67252-40.6517-31.73582-81.15287-47.41966-121.80044-18.90634-48.99927-37.5433-98.10256-56.34025-147.1439-1.80773-4.71646-3.77286-9.38589-5.939-13.947-1.97217-4.15254-5.16489-6.99325-10.1189-6.32509-5.29531.71442-8.43988,4.28035-9.13228,9.2777C1807.07767,2166.09949,1807.39745,2171.203,1807.24431,2177.53308Z" style="opacity: 0.2"/>
      <path d="M1775.64488,2277.35468c-.09408-1.32815.47749-4.09223-.59224-5.8671-1.67909-2.78631-4.05689-5.79754-6.88183-7.08978-3.8569-1.76461-7.8733.05559-10.00024,3.78863a64.52629,64.52629,0,0,0-5.026,11.72708q-39.62517,120.19362-79.11551,240.4323c-10.31668,31.39375-20.4415,62.85106-30.89771,94.19776-3.91663,11.74162-4.72524,23.18933-1.63519,35.4016q14.1537,55.937,27.18164,112.15769c5.74138,24.59359,10.75241,49.358,16.07231,74.0496.32712,1.51831.41008,3.08992.74989,4.60452,1.64516,7.3281,5.23238,11.39838,10.062,10.89694,6.63694-.68931,7.20538-5.88136,7.89811-11.09963q15.11775-113.877,30.33526-227.74083c8.24448-62.04772,16.67639-124.07234,24.52261-186.1708,6.04285-47.8254,11.30674-95.74914,16.90587-143.6304C1775.40427,2281.4683,1775.45858,2279.9098,1775.64488,2277.35468Z" style="opacity: 0.2"/>
      <path d="M1582.92816,2336.00461c1.68051,9.327,3.19268,16.56763,4.26513,23.87264q7.11672,48.47822,14.02791,96.98635c1.16681,8.08213,2.21431,16.18478,3.5848,24.23241.64826,3.806,1.59171,8.84926,6.43582,8.15254,3.07424-.44244,6.26379-3.88983,8.28154-6.77307,1.92325-2.74811,2.63807-6.45321,3.46692-9.83989q25.38083-103.70881,50.57365-207.463a44.64313,44.64313,0,0,0,1.329-13.8446c-.56744-7.03648-6.68256-9.78288-12.69832-6.03986a29.42435,29.42435,0,0,0-5.97529,5.49907c-21.602,24.01775-43.2454,47.99986-64.63448,72.20632C1587.87775,2327.189,1585.3004,2332.38218,1582.92816,2336.00461Z" style="opacity: 0.2"/>
      <path d="M2030.79658,2393.70407c1.48205-15.75342,2.8922-31.5142,4.47054-47.258,1.11371-11.11023-.378-20.37051-8.77595-29.6322-11.61285-12.80675-20.71664-27.92489-30.5983-42.258-26.79493-38.86439-53.4044-77.857-80.17757-116.737a95.42119,95.42119,0,0,0-9.49779-11.686c-3.7923-3.97671-8.659-5.6358-13.60234-2.35392-5.22287,3.46707-4.07831,8.38989-2.20971,13.47975q29.60061,80.63135,59.05183,161.3177,25.624,69.73283,51.57947,139.34369a106.39856,106.39856,0,0,0,7.77036,16.834c3.49536,5.94124,7.74887,5.85786,11.61554.09387C2022.10082,2472.34662,2031.34819,2393.75256,2030.79658,2393.70407Z" style="opacity: 0.2"/>
      <path d="M1907.01582,2559.37409c1.06443-6.95058,2-15.7924,3.83139-24.44438,3.67991-17.38607,7.5054-34.75775,11.97814-51.95151a33.02527,33.02527,0,0,0-1.2281-20.34632q-16.287-45.28093-32.49944-90.58879-20.533-57.29774-41.00926-114.61608c-1.652-4.63922-3.644-8.91227-9.21711-8.95686-6.57142-.05291-8.53587,5.35734-8.93976,10.26853a70.48559,70.48559,0,0,0,.986,19.49212c9.40774,46.60431,19.12883,93.14544,28.80725,139.695,9.20583,44.27677,18.52149,88.53067,27.66326,132.82064,1.00746,4.88065,6.10944,26.61252,12.01648,26.34227C1905.3967,2576.81465,1907.6839,2562.41286,1907.01582,2559.37409Z" style="opacity: 0.2"/>
      <path d="M1683.93416,2747.86438c1.1-4.31137,2.47034-8.57424,3.2599-12.94175q21.89785-121.12036,43.6783-242.26228,6.79887-37.70516,13.71841-75.38848c.2775-1.52324.71482-3.0272.86868-4.56122.63712-6.35644-1.36343-10.41766-5.77009-11.06145-5.83319-.85251-8.05325,2.94071-9.74949,7.76993-6.40692,18.24035-13.15063,36.36215-19.54082,54.60816q-27.05763,77.25913-53.79365,154.63029c-1.55954,4.53428-2.41036,10.02374-1.42965,14.60708,7.44761,34.80828,15.41011,69.50679,23.28937,104.222.80487,3.54563,2.11952,6.97583,3.19765,10.45964Q1682.79839,2747.9055,1683.93416,2747.86438Z" style="opacity: 0.2"/>
      <path d="M1610.54726,2431.103c1.88555-4.51669,4.15339-8.91484,5.593-13.56937,7.86692-25.436,15.44882-50.95986,23.3217-76.39385,1.93518-6.25208,4.86439-12.195,6.82737-18.44029,1.48424-4.72259,3.073-9.73871,2.87065-14.55064-.13443-3.19964-2.66121-7.19535-5.34255-9.17037-3.55641-2.61938-7.46889-.33409-10.12754,2.836-3.9648,4.72741-7.81389,9.56713-11.45963,14.54412-8.44108,11.52372-16.6757,23.19861-25.11323,34.72489-2.62619,3.5876-4.10079,7.07566-3.077,11.76309,4.92651,22.55766,9.58656,45.17347,14.3412,67.76857Q1609.46431,2430.85894,1610.54726,2431.103Z" style="opacity: 0.2"/>
    </g>
    <g>
      <path d="M964.27323,1002.99837q-2.57849,78.63951-5.18264,157.278c-.529,15.53281-.90126,31.09613-2.27631,46.5628-.566,6.36769-2.90233,12.84685-5.69962,18.66677-2.46289,5.12463-8.32843,4.531-10.855-.63286a32.92634,32.92634,0,0,1-2.19449-7.82585q-11.41036-55.31313-22.75858-110.6391c-5.42509-26.23833-10.77764-52.494-16.52358-78.66281-3.34078-15.21481-.11289-28.65618,9.9676-40.20865,7.64325-8.75946,15.86606-17.03757,24.17482-25.179a41.06373,41.06373,0,0,1,10.57524-7.15165c12.70345-6.25694,22.63613-.11545,22.87032,14.044.09621,5.82191-.231,11.65609-.51242,17.47758-.2627,5.43308-.72024,10.8566-1.092,16.28441Z" style="opacity: 0.2"/>
      <path d="M774.477,1184.98373c.78082-21.282,8.504-38.81606,23.95781-53.072,4.97625-4.591,9.85422-9.24551,17.3813-6.52961,7.323,2.64206,8.96365,9.22242,10.07023,15.85052q6.13888,36.77044,12.05342,73.5781,12.44229,77.637,24.76043,155.294c1.03781,6.51779,2.11118,13.03243,2.97653,19.574a51.52809,51.52809,0,0,1,.4564,9.29454c-.27,5.36423-3.49885,8.735-8.578,9.49139-4.96563.73934-6.30982-3.3948-7.68609-7.16376q-29.76737-81.5199-59.57834-163.02382c-3.86161-10.57752-7.89191-21.11285-11.202-31.8654C776.9471,1199.45521,775.97378,1192.13879,774.477,1184.98373Z" style="opacity: 0.2"/>
      <path d="M1120.89544,872.64486c-2.465,17.413-4.694,33.94629-7.16305,50.44365-6.08689,40.672-12.18733,81.3425-18.556,121.97064a55.7488,55.7488,0,0,1-5.16952,15.29263c-.90426,1.87123-4.16892,3.41675-6.42371,3.50869-1.31462.05374-3.2725-2.8657-4.01569-4.80249-.95172-2.48057-1.01586-5.31221-1.38817-8.00288q-9.24879-66.84879-18.4598-133.7027c-.52825-3.84151-.43118-7.80033-1.26388-11.56316-3.61188-16.323,2.9756-28.04627,16.49223-36.36515a222.47636,222.47636,0,0,1,21.55685-11.32825c5.1872-2.45477,10.58393-1.85056,15.755.68417C1119.25783,862.20973,1121.25036,865.583,1120.89544,872.64486Z" style="opacity: 0.2"/>
      <path d="M952.64117,980.28893a29.56724,29.56724,0,0,1-.0256,3.47325q-2.63277,60.795-5.28632,121.58862c-.40368,9.18909-2.70911,13.02428-7.88806,13.414-5.18122.38964-7.92657-3.26536-9.95612-12.08908-6.31844-27.47112-12.81628-54.901-19.23251-82.34959-1.05508-4.51332-2.36927-8.9963-3.00618-13.571C905.92578,1001.26986,952.26133,975.22272,952.64117,980.28893Z" style="opacity: 0.2"/>
      <path d="M832.514,1285.19842c-.89,1.44188-2.01554,5.67895-4.25954,6.39093-4.46872,1.4178-6.63716-2.57993-7.98457-6.44971q-18.84087-54.10928-37.63738-108.234c-1.94323-5.62346,27.28775-40.846,27.81087-37.83033,1.64609,9.48852,2.19795,19.16159,3.67819,28.68483,5.69259,36.62388,11.58417,73.217,17.39108,109.82308C831.81454,1279.48661,832.01873,1281.40578,832.514,1285.19842Z" style="opacity: 0.2"/>
      <path d="M1108.14476,872.75957c-.79569,6.90575-2.2676,13.74595-3.66892,20.56757-4.35956,21.22449-8.831,42.426-13.25666,63.637-.23724,1.13667-.45555,2.27756-.67725,3.41752-.85141,4.37989-2.144,8.502-7.58272,8.77406-4.26166.2133-7.07272-3.42338-7.48272-9.92185-1.29176-20.46978-2.39976-40.95088-3.67092-61.42194C1071.4461,892.02149,1108.18744,872.38909,1108.14476,872.75957Z" style="opacity: 0.2"/>
      <path d="M1742.99672,1006.99837q2.5785,78.63951,5.18264,157.278c.529,15.53281.90127,31.09613,2.27632,46.5628.566,6.36769,2.90233,12.84685,5.69962,18.66677,2.46289,5.12463,8.32843,4.531,10.855-.63286a32.92634,32.92634,0,0,0,2.19449-7.82585q11.41037-55.31313,22.75858-110.6391c5.42509-26.23833,10.77764-52.494,16.52358-78.66281,3.34078-15.21481.11289-28.65618-9.9676-40.20865-7.64325-8.75946-15.86606-17.03757-24.17482-25.179a41.06373,41.06373,0,0,0-10.57524-7.15165c-12.70345-6.25694-22.63613-.11545-22.87032,14.044-.09621,5.82191.231,11.65609.51242,17.47758.26269,5.43308.72024,10.8566,1.092,16.28441Z" style="opacity: 0.2"/>
      <path d="M1932.793,1180.98373c-.78082-21.282-8.504-38.81606-23.95781-53.072-4.97625-4.591-9.85422-9.24551-17.3813-6.52961-7.32305,2.64206-8.96365,9.22242-10.07023,15.85052q-6.13888,36.77044-12.05342,73.5781-12.44229,77.637-24.76043,155.294c-1.03781,6.51779-2.11118,13.03243-2.97653,19.574a51.52809,51.52809,0,0,0-.4564,9.29454c.27,5.36423,3.49885,8.735,8.578,9.49139,4.96563.73934,6.30982-3.3948,7.68609-7.16376q29.76737-81.5199,59.57834-163.02382c3.8616-10.57752,7.89191-21.11285,11.202-31.8654C1930.32286,1195.45521,1931.29618,1188.13879,1932.793,1180.98373Z" style="opacity: 0.2"/>
      <path d="M1586.37452,876.64486c2.465,17.413,4.694,33.94629,7.163,50.44365,6.08689,40.672,12.18733,81.3425,18.556,121.97064a55.74846,55.74846,0,0,0,5.16952,15.29263c.90426,1.87123,4.16892,3.41675,6.42371,3.50869,1.31462.05374,3.2725-2.8657,4.01569-4.80249.95172-2.48057,1.01586-5.31221,1.38817-8.00288q9.24879-66.84879,18.4598-133.7027c.52824-3.84151.43118-7.80033,1.26388-11.56316,3.61188-16.323-2.9756-28.04627-16.49223-36.36515a222.47636,222.47636,0,0,0-21.55685-11.32825c-5.1872-2.45477-10.58393-1.85056-15.755.68417C1588.01213,866.20973,1586.0196,869.583,1586.37452,876.64486Z" style="opacity: 0.2"/>
      <path d="M1755.62878,969.28893a29.56942,29.56942,0,0,0,.02561,3.47325q2.63277,60.795,5.28632,121.58862c.40368,9.18909,2.70911,13.02428,7.88805,13.414,5.18123.38964,7.92658-3.26536,9.95613-12.08908,6.31844-27.47112,12.81628-54.901,19.23251-82.34959,1.05507-4.51332,2.36927-8.9963,3.00618-13.571C1802.34418,990.26986,1756.00863,964.22272,1755.62878,969.28893Z" style="opacity: 0.2"/>
      <path d="M1875.756,1275.19842c.89,1.44188,2.01554,5.67895,4.25954,6.39093,4.46872,1.4178,6.63716-2.57993,7.98457-6.44971q18.84087-54.10928,37.63738-108.234c1.94323-5.62346-27.28775-40.846-27.81087-37.83033-1.6461,9.48852-2.19795,19.16159-3.67819,28.68483-5.69259,36.62388-11.58417,73.217-17.39108,109.82308C1876.45542,1269.48661,1876.25123,1271.40578,1875.756,1275.19842Z" style="opacity: 0.2"/>
      <path d="M1597.1252,868.75957c.79569,6.90575,2.2676,13.74595,3.66892,20.56757,4.35956,21.22449,8.831,42.426,13.25666,63.637.23724,1.13667.45555,2.27756.67725,3.41752.85141,4.37989,2.14395,8.502,7.58272,8.77406,4.26165.2133,7.07272-3.42338,7.48272-9.92185,1.29176-20.46978,2.39976-40.95088,3.67092-61.42194C1633.82386,888.02149,1597.08252,868.38909,1597.1252,868.75957Z" style="opacity: 0.2"/>
    </g>
  </g>
</svg>
