<svg xmlns="http://www.w3.org/2000/svg" viewBox="0 0 3000 3000">
  <title>Pattern 2</title>
  <g id="Pattern_2" data-name="Pattern 2" style="opacity: 0.5">
    <path d="M1138.556,2638.008c-36.5935-2.25907-78.33364-6.38121-107.27048-41.36273-23.13688-27.96983-16.17586-63.48986,14.1409-84.425,43.37724-29.95383,91.62136-39.2121,143.35556-32.37812,9.31888,1.23088,13.90543,4.9959,11.63231,16.40367-8.13328,40.81627-16.14477,81.722-21.96263,122.9101C1174.96013,2643.87512,1158.00348,2636.62185,1138.556,2638.008Z" style="opacity: 0.2"/>
    <path d="M1655.02643,2473.95165c44.13206-.438,75.87756,5.66385,105.32822,22.30739,24.47008,13.82864,43.08527,32.49592,40.45958,62.16985-2.73726,30.93489-26.64145,46.99563-52.0909,58.81558-28.45227,13.21463-59.707,14.65926-90.49792,17.21612-7.95089.66-11.02255-4.04436-12.55206-10.7611q-14.914-65.48635-29.90841-130.95453c-2.19931-9.52653.96886-14.8151,10.80269-15.8396C1639.59333,2475.54844,1652.62,2474.20146,1655.02643,2473.95165Z" style="opacity: 0.2"/>
    <path d="M731.07,2343.20164c2.18487-52.25748,3.6972-90.69636,5.49673-129.122.28288-6.04015,2.442-12.42241,10.07063-11.63211,51.80229,5.36653,98.733,21.89961,134.3842,62.01213,15.96722,17.96505,25.16424,39.02113,14.71089,62.772-11.92485,27.09518-36.52183,38.11182-63.81332,42.12743-20.912,3.07647-42.11,2.50606-63.43591-.25241C743.97643,2365.93687,726.4214,2359.26873,731.07,2343.20164Z" style="opacity: 0.2"/>
    <path d="M2027.74556,2238.35738c-1.40546,23.19195-2.15148,39.75884-3.63841,56.2593-.28005,3.10871-2.934,7.86331-5.46856,8.62892-35.6499,10.77331-71.79005,15.31927-108.14183,3.86694-22.26836-7.01567-39.97586-20.47982-43.827-44.78512-5.23777-33.05628,13.67762-56.40407,37.05039-75.35125,29.21022-23.67907,63.012-38.04764,100.58141-44.357,13.21193-2.21876,13.87761,4.85964,14.77863,12.58158C2022.55833,2185.01346,2025.35165,2214.90654,2027.74556,2238.35738Z" style="opacity: 0.2"/>
    <path d="M1338.244,941.91811c.7805,24.26509-4.7266,46.972-29.8216,54.74352-34.74267,10.75936-56.73686-13.41045-76.674-36.146-23.98948-27.35656-39.82783-59.60446-49.37028-94.87052-2.73041-10.09075-1.1475-16.08353,10.56832-17.89994q49.07535-7.60905,97.949-16.47932c6.43533-1.17792,9.65775,1.441,12.46777,5.6808C1324.47309,868.79785,1337.92043,903.22373,1338.244,941.91811Z" style="opacity: 0.2"/>
    <path d="M831.20655,2173.73123c-25.87058-.0863-50.36593-7.088-71.06653-21.60367-18.22287-12.778-4.1821-31.88218-1.6652-47.04957,4.26641-25.70934,13.285-50.62923,20.29416-75.88466,2.85428-10.28476,8.53418-12.44191,19.12126-9.57053,35.3353,9.58444,64.70725,28.01043,85.206,58.22286,13.67848,20.15989,20.99121,43.10742,7.30068,66.53015C877.38882,2166.63069,855.99345,2174.09913,831.20655,2173.73123Z" style="opacity: 0.2"/>
    <path d="M1931.82618,2124.40552c-20.28479-2.00841-44.66248-6.08938-55.46559-31.85237-12.33518-29.41645-1.89074-55.64756,18.26446-77.639,20.14214-21.97725,45.11795-36.90391,74.37387-44.75331,9.7938-2.62783,14.30428.58,16.11639,8.82791,8.25562,37.575,16.10574,75.23969,24.04938,112.8831,1.75832,8.3317-2.914,12.96964-9.73077,16.27479C1979.43016,2117.84519,1958.63085,2124.40041,1931.82618,2124.40552Z" style="opacity: 0.2"/>
    <path d="M1162.65794,904.87842c0,9.647,1.66733,19.653-.31837,28.87226-5.5547,25.78939-15.23949,50.67593-44.60584,56.22737-27.55367,5.2088-45.71977-13.51425-60.75587-33.08808-28.5742-37.1973-28.21808-37.88371,11.05661-61.726,25.93431-15.74366,54.67685-25.07687,83.33905-34.48275,6.57679-2.15816,8.79782,1.055,9.40688,6.21244C1162.26818,879.49085,1163.25847,904.84492,1162.65794,904.87842Z" style="opacity: 0.2"/>
    <path d="M753.47438,2443.19594c32.75091,3.38549,57.1513,11.31551,73.48641,33.88407,11.787,16.28528,14.1546,34.85292,1.65619,51.96372-14.31371,19.59639-34.73923,28.97275-58.97576,28.81208-2.99416-.01987-7.68248-4.30779-8.66455-7.513a426.47826,426.47826,0,0,1-17.62219-90.53682C742.3045,2446.91782,746.43111,2441.4328,753.47438,2443.19594Z" style="opacity: 0.2"/>
    <path d="M2020.52547,2415.574c-2.86658,28.64386-5.3677,57.347-8.81872,85.936-1.08454,8.98392-6.08192,12.96622-17.12446,11.70228-18.187-2.08286-34.546-7.50663-49.53731-17.5434-4.49132-3.00675-8.75916-6.2773-5.18275-13.18722,12.39007-23.93857,23.96813-48.3073,36.76342-72.022,8.37216-15.51642,24.18878-14.19152,38.113-12.07918C2023.58266,2399.72236,2016.84826,2409.8767,2020.52547,2415.574Z" style="opacity: 0.2"/>
    <path d="M1762.1223,2873.62429c.17927,18.67437-5.70218,22.91062-19.36192,15.70164-38.0942-20.10538-59.164-51.70369-63.74009-94.24677-.4173-3.88,2.243-10.94533,4.86773-11.7027,5.41774-1.56358,12.90548-1.85143,17.56911.80222C1737.55527,2804.72208,1755.71342,2837.36874,1762.1223,2873.62429Z" style="opacity: 0.2"/>
    <path d="M883.57271,2834.20378a104.10537,104.10537,0,0,1-39.30073,63.44894c-5.78277,4.35892-12.529,9.15969-21.13484,3.44875-10.74437-7.13005-14.88843-17.3618-12.75577-28.9654,5.09318-27.71176,20.965-48.46252,44.8039-63.17565,7.48143-4.61756,15.83927-5.13276,23.15562-.75151C884.99685,2812.19482,885.34026,2819.75689,883.57271,2834.20378Z" style="opacity: 0.2"/>
    <path d="M761.262,2693.49766c-17.49041-2.50008-44.96694-5.76094-44.902-25.89982.05387-16.70514,30.2245-20.38074,47.71973-24.08161,4.78307-1.01172,19.04746,24.18182,21.95213,38.74711C788.39472,2694.11225,772.953,2692.52113,761.262,2693.49766Z" style="opacity: 0.2"/>
    <path d="M1971.40038,2726.68283c-7.65892-3.27109-21.46216-.643-19.80079-3.56489,11.18606-19.673,21.74518-45.8945,39.52819-53.43277,11.717-4.96752,23.99432,26.9124,20.80627,43.42422C2007.59276,2735.59335,1983.64174,2718.876,1971.40038,2726.68283Z" style="opacity: 0.2"/>
  </g>
</svg>
