<svg xmlns="http://www.w3.org/2000/svg" viewBox="0 0 3000 3000">
  <title>2</title>
  <g id="Pattern_1" data-name="Pattern 1" style="opacity: 0.2">
    <g style="opacity: 0.6000000000000001">
      <g>
        <path d="M1977.70908,2030.61354c21.35476-1.8837,29.253,3.0305,31.48562,18.73517,6.24441,43.92576,13.23538,87.70757,19.71527,131.58951,1.44329,9.77446-3.75589,9.886-10.28765,9.08982-75.85045-9.24961-144.47922,8.71935-200.46732,73.115-6.64957,7.64805-14.39045,7.89851-21.86035,4.477-6.57958-3.01432-7.18052-10.86666-4.74156-17.79838,34.40351-97.777,88.00626-174.70252,174.262-215.83812,3.9634-1.8901,8.41152-2.47193,12.67285-3.42727C1981.19051,2029.95013,1983.96537,2029.78192,1977.70908,2030.61354Z"/>
        <path d="M766.22048,2078.1713c39.14527,5.50878,65.79771,25.46652,90.79926,47.78419,48.811,43.57129,84.652,99.22116,107.86083,165.71849,2.60616,7.46716,4.69091,15.93607-2.76567,20.9871-7.30882,4.95117-15.38975,4.68773-21.887-2.64655-56.71887-64.02848-125.83829-80.57-202.14666-69.63661-5.637.8075-11.59275,1.05826-10.02007-8.058,7.85787-45.54651,16.37408-90.94614,24.30384-136.477C754.73362,2082.24325,761.08414,2076.91445,766.22048,2078.1713Z"/>
        <path d="M1658.79505,2625.56977c-8.21487,1.26681-13.78009-6.03134-16.14689-17.72726-6.87852-33.99319-13.79255-67.97863-20.34982-102.05677-3.00874-15.63658.21476-20.85248,16.40845-19.791,61.72924,4.04752,117.36839-15.24993,161.87291-67.743,7.1708-8.4581,14.20062-15.12823,23.37725-9.36758,9.35169,5.87088,4.30423,16.47763,1.565,24.722-23.75228,71.48579-61.13323,130.54147-117.37521,172.04788C1694.02874,2616.07307,1679.21545,2624.71422,1658.79505,2625.56977Z"/>
        <path d="M1158.47934,2629.29637c-32.3077-5.14106-59.50359-26.27131-84.92246-50.77253-37.46934-36.11656-65.76031-80.49571-84.82812-132.66787-2.55112-6.97993-4.7107-14.91486,2.43693-19.60152,6.1421-4.02662,12.928-3.55873,18.61092,2.63206,50.595,55.11535,111.17441,69.58085,177.86474,58.95151,10.9267-1.74144,12.38129,6.27843,10.95061,15.27555-6.10153,38.37175-12.60793,76.65854-19.21041,114.91938C1177.16937,2630.85275,1167.73524,2627.84382,1158.47934,2629.29637Z"/>
      </g>
    </g>
  </g>
</svg>
