<svg xmlns="http://www.w3.org/2000/svg" viewBox="0 0 3000 3000">
  <title>3</title>
  <g id="Layer_15" data-name="Layer 15" style="opacity: 0.2">
    <g>
      <path d="M1972.09429,2075.85616c52.04149-.1102,58.04777,5.58607,60.29648,49.14224q.29928,5.79652.67994,11.5885c3.49754,52.5479,3.43335,52.84072-47.84981,41.286-40.95143-9.22633-79.95138-23.47239-116.27375-45.15433-13.16509-7.8585-9.68217-14.49941-1.87395-22.033C1898.93237,2079.948,1939.58487,2077.29244,1972.09429,2075.85616Z"/>
      <path d="M798.33586,2075.6707c39.519.70607,75.70538,4.95782,107.28677,27.35918,7.84,5.56079,9.04839,9.49671.36426,16.06747-48.98922,37.06749-104.49872,59.62279-163.39967,74.94187-5.63023,1.4644-9.59477.97844-7.83308-6.1808,7.90615-32.12983,3.45629-66.1694,20.49851-97.36425C767.62306,2067.85083,785.86725,2081.06335,798.33586,2075.6707Z"/>
      <path d="M762.45677,2546.23332c-4.92331,1.3809-7.34563-2.92709-10.72175-7.76449-10.61759-15.21286-6.10788-36.671-22.59215-50.07807-5.85723-4.76384,1.39112-13.84134,7.50113-18.28935,28.01668-20.39761,59.69755-30.82959,94.11884-32.71491,7.81313-.42773,17.93553,1.538,18.22069,10.72822.71239,22.96428,44.27153,42.7061,6.04085,68.22143C827.71561,2534.56188,796.62749,2542.56835,762.45677,2546.23332Z"/>
      <path d="M1350.46514,815.70247c54.47808.29808,55.14993.49292,39.86705,53.20739-9.03447,31.163-20.53521,61.61417-31.105,92.32434-1.20338,3.49612-3.56116,6.595-5.38356,9.87829-2.32909-3.29929-5.09614-6.37407-6.92024-9.93225-19.65676-38.34159-33.91191-78.78066-47.49564-119.58923-6.45914-19.40526.20847-25.93355,18.52707-25.89294C1328.79158,815.72207,1339.62843,815.70247,1350.46514,815.70247Z"/>
      <path d="M1958.21738,2442.93783c23.54566,1.4805,46.66692,9.24227,68.86,20.26437,3.79477,1.88462,5.34647,4.05647,4.17779,8.62669-5.35037,20.92375-10.56653,41.88807-15.34176,62.94858-1.59457,7.0336-6.07128,5.07778-10.085,4.2717-29.20342-5.86586-58.34195-13.36377-83.80932-28.614-15.0869-9.03377-1.92868-23.53868,3.77005-32.18741C1934.29635,2465.3367,1931.53189,2441.09324,1958.21738,2442.93783Z"/>
      <path d="M1172.87742,938.16994c.79866,8.10872-3.84177,8.21793-9.56715,7.12062-40.275-7.71734-77.47673-23.76876-113.89055-41.952-7.37254-3.68173-6.77511-8.65886-1.71433-13.80655,35.80361-36.41807,54.31676-37.02673,91.97443-2.63966C1155.19673,901.06156,1169.71091,916.08115,1172.87742,938.16994Z"/>
      <path d="M734.5527,2254.28884c-12.23727.66034-18.23005-4.84195-15.57938-7.95507,8.46963-9.94688,6.374-27.56651,22.2727-31.63109,55.12883-14.09412,106.953-35.84877,155.1892-66.097,2.121-1.33006,4.64611-2.016,6.983-3.00179-.3634,1.33829-.36809,2.94527-1.14147,3.976C858.48422,2207.9598,801.18584,2244.03039,734.5527,2254.28884Z"/>
      <path d="M1528.86572,938.3926c1.43037-24.17494,50.34969-78.75434,73.58758-79.295,18.74783-.43629,32.714,14.22532,47.45009,24.3989,3.14641,2.17212,2.62223,8.98871-2.91227,13.01177-33.11344,24.07074-69.76854,40.58067-108.83225,52.16484C1526.21947,952.2135,1530.38821,942.5852,1528.86572,938.3926Z"/>
      <g>
        <path d="M1831.545,1111.15712c-40.74905,3.81329-72.45163,3.04263-103.09969-9.13167-8.42628-3.34715-11.18179-7.43746-6.475-15.85379,22.76983-40.71563,58.42153-62.87306,103.22709-71.59455,12.02357-2.34026,13.43794,8.72233,18.16207,15.8426q16.79307,25.312,34.62088,49.93074c6.83068,9.38586,3.92294,14.70655-5.88486,17.91818C1855.95515,1103.55393,1839.72557,1108.56656,1831.545,1111.15712Z"/>
        <path d="M1732.96492,1121.84524c52.86661,14.26866,104.19252,12.41057,155.31152-9.75625,14.15052-6.136,14.51118,15.76071,23.31171,23.10054,6.58742,5.49427-4.37072,7.77892-8.23136,8.87482-56.06431,15.91322-110.4162,11.28526-162.62876-14.96908-3.03431-1.52578-5.10518-4.96767-7.62443-7.51772Z"/>
      </g>
      <g>
        <path d="M875.645,1111.15712c40.749,3.81329,72.45162,3.04263,103.09968-9.13167,8.42628-3.34715,11.18179-7.43746,6.475-15.85379-22.76984-40.71563-58.42153-62.87306-103.2271-71.59455-12.02356-2.34026-13.43794,8.72233-18.16207,15.8426q-16.79305,25.312-34.62088,49.93074c-6.83068,9.38586-3.92294,14.70655,5.88487,17.91818C851.23479,1103.55393,867.46436,1108.56656,875.645,1111.15712Z"/>
        <path d="M974.225,1121.84524c-52.86662,14.26866-104.19252,12.41057-155.31152-9.75625-14.15053-6.136-14.51118,15.76071-23.31172,23.10054-6.58741,5.49427,4.37072,7.77892,8.23137,8.87482,56.0643,15.91322,110.4162,11.28526,162.62875-14.96908,3.03431-1.52578,5.10519-4.96767,7.62443-7.51772Z"/>
      </g>
      <path d="M2042.31635,2235.365c2.47579,11.74614-1.748,12.50759-8.41091,10.69811-54.20216-14.72094-100.42682-43.89272-143.35-79.04394-1.01834-.83388-1.54321-2.27044-2.29813-3.42611a18.35593,18.35593,0,0,1,4.29393.79951c44.04326,19.75119,90.07251,32.54109,137.31906,42.28859C2043.5514,2209.50372,2036.41772,2228.73544,2042.31635,2235.365Z"/>
      <path d="M1371.60759,984.00947c.39152-3.62094-.01321-7.5617,1.294-10.8147,19.71781-49.07151,40.17834-97.89067,45.75773-151.24347.615-5.88159,4.97557-6.82354,10.01306-7.44994,6.51069-.80959,11.39551.36241,14.0268,7.03854,3.53347,8.965,1.2014,17.459-1.55244,26.01392-15.87832,49.32586-41.35844,93.74785-69.72872,136.6982Z"/>
      <path d="M1258.2385,830.52112c.34025-9.26283,1.8366-14.73145,8.23113-15.94691,6.97861-1.32608,10.18943,3.13442,12.28208,9.4419,17.90222,53.95833,36.3874,107.696,63.159,158.12111.78715,1.48258.76741,3.39374,1.12386,5.10509a11.15674,11.15674,0,0,1-2.73993-1.78889A431.78506,431.78506,0,0,1,1258.2385,830.52112Z"/>
      <path d="M778.04681,2590.24079c-11.73932-.58025-21.31577-2.55276-22.43317-14.41278-1.27183-13.49882,10.55837-8.62819,16.78434-9.59584,36.15933-5.621,70.04958-16.53269,99.52633-39.05448,1.69942-1.29824,4.41165-1.27126,6.65256-1.86117-.66674,6.31316,1.10227,15.675-2.38348,18.45976C846.78629,2567.27225,814.15332,2584.599,778.04681,2590.24079Z"/>
      <path d="M1905.803,2540.79892c-1.41929-11.29367.42142-13.57275,8.47313-9.602,26.80764,13.21944,55.05578,22.57915,84.12226,29.47026,4.61149,1.09333,11.3187,1.26862,7.08419,8.44223-3.87518,6.56542,1.76127,21.75273-12.6375,18.84494-31.57582-6.37645-59.03268-22.2611-84.35717-41.7703C1906.25513,2544.46421,1905.69726,2540.57058,1905.803,2540.79892Z"/>
      <path d="M1562.97627,961.693c-1.12925-.29256-3.218-.83393-5.30657-1.37514a39.79958,39.79958,0,0,1,5.34142-2.75629,417.93059,417.93059,0,0,0,109.79-56.49387c14.71711-10.58828,22.72778,8.94667,32.35043,15.17743,5.48785,3.55384-7.37459,7.91735-12.29144,10.13855C1651.84038,944.9162,1608.48616,955.25368,1562.97627,961.693Z"/>
      <path d="M1136.84163,961.45886c-44.59169-2.42253-84.39768-10.96764-121.88239-28.84559-5.27266-2.51469-15.74568-4.43466-9.53009-12.81064,3.82771-5.15805,11.70836-12.096,21.07372-6.846,35.61956,19.968,73.62715,33.74391,113.07144,43.86518,2.6577.68221,5.02854,2.48289,7.53287,3.76324Z"/>
      <path d="M900.72843,1197.45064q1.1243.31548,2.24843.63109-1.16412-.24006-2.32909-.48368Z"/>
      <path d="M1371.418,984.252q-.07242-.331-.14471-.6619c.111.12667.22225.2532.33387.39961A2.93078,2.93078,0,0,1,1371.418,984.252Z"/>
      <path d="M1780.44441,1211.9039q-.37427.35274-.74838.7055a5.5085,5.5085,0,0,0,.52387-.37931C1780.256,1212.17286,1780.44441,1211.9039,1780.44441,1211.9039Z"/>
    </g>
  </g>
</svg>
