<svg xmlns="http://www.w3.org/2000/svg" viewBox="0 0 3000 3000">
  <title>4</title>
  <g id="Layer_16" data-name="Layer 16" style="opacity: 0.2">
    <g>
      <path d="M1439.87507,814.04979c-17.55266,268.62919-177.78744,206.91131-172.37932,2.27814,12.41714,24.21986,49.74-9.25268,70.812-5.11759,29.20657,4.28341,61.35609-5.01244,89.16231-1.86246C1451.41589,813.86379,1419.53711,788.38216,1439.87507,814.04979Z"/>
      <path d="M889.1527,2097.47884c109.75372,70.51632-134.56517,194.04933-178.72419,142.80043C738.93516,2109.499,719.12373,2042.65744,889.1527,2097.47884Z"/>
      <path d="M824.48492,1189.038c-101.64223,2.77886,9.89069-96.569,23.803-140.907,2.44962-3.95094,12.69081-7.57553,16.25448-5.65853C1055.15294,1119.59434,960.63413,1198.69862,824.48492,1189.038Z"/>
      <path d="M1890.75359,1189.038c101.64223,2.77886-9.89069-96.569-23.803-140.907-2.44962-3.95094-12.69081-7.57553-16.25448-5.65853C1660.08557,1119.59434,1754.60438,1198.69862,1890.75359,1189.038Z"/>
      <path d="M873.50636,2532.02129c-21.69889,31.91846-65.41658,39.63134-98.75556,55.78415-26.18443-3.6063-38.39225-76.63845-54.28712-98.836,6.17-38.17782,70.3422-37.23418,100.73829-50.98244C852.82592,2449.36927,860.24836,2501.97376,873.50636,2532.02129Z"/>
      <path d="M1095.728,965.32791c-107.45436-34.74443-131.67015-36.0108-16.31232-102.65241a19.273,19.273,0,0,1,17.05562-1.127c51.36547,21.45051,117.7449,105.54705,5.12868,104.7215A19.57965,19.57965,0,0,1,1095.728,965.32791Z"/>
      <path d="M1878.04751,2091.24608c-115.41724,60.80535,117.359,204.91409,165.76631,157.65731C2026.67243,2116.15443,2052.165,2051.26672,1878.04751,2091.24608Z"/>
      <path d="M1905.36621,2528.29271c19.71905,29.00617,59.44787,36.01531,89.745,50.69431,23.79532-3.27725,34.88928-69.64584,49.33387-89.818-5.607-34.69442-63.92406-33.83688-91.54676-46.33072C1924.15974,2453.182,1917.41453,2500.98676,1905.36621,2528.29271Z"/>
      <path d="M1603.57733,958.844c110.02934-35.64094,134.27961-36.20428,13.54083-105.58807a8.99272,8.99272,0,0,0-7.3413-.73067c-52.08966,17.45843-127.98094,108.52848-8.83957,106.75987A9.053,9.053,0,0,0,1603.57733,958.844Z"/>
    </g>
  </g>
</svg>
