<svg id="Pattern_1" data-name="Pattern 1" xmlns="http://www.w3.org/2000/svg" viewBox="0 0 3000 3000">
  <title>Pattern 1</title>
  <g style="opacity: 0.6000000000000001">
    <g>
      <path d="M1971.23739,2032.07931c21.12414-1.86335,28.93709,2.99777,31.14558,18.53283,6.177,43.45136,13.09245,86.76033,19.50235,130.16834,1.4277,9.6689-3.71533,9.77927-10.17655,8.99165-75.03126-9.14971-142.91884,8.62518-198.30227,72.32534-6.57775,7.56546-14.235,7.81321-21.62426,4.42863-6.50852-2.98176-7.103-10.7493-4.69035-17.60616,34.032-96.721,87.0558-172.81573,172.38-213.50707,3.92059-1.86969,8.32067-2.44523,12.536-3.39025C1974.68123,2031.42307,1977.42612,2031.25667,1971.23739,2032.07931Z" style="fill: #de7f3f"/>
      <path d="M772.83287,2079.12344c38.72249,5.44929,65.08709,25.19148,89.81862,47.26813,48.28388,43.10072,83.73776,98.14956,106.69593,163.92873,2.578,7.38651,4.64026,15.764-2.7358,20.76044-7.22988,4.8977-15.22353,4.6371-21.65057-2.618-56.1063-63.337-124.47923-79.69979-199.96347-68.88453-5.57615.79877-11.46755,1.04682-9.91186-7.97094,7.773-45.0546,16.19725-89.96392,24.04136-135.00308C761.47006,2083.15141,767.752,2077.88017,772.83287,2079.12344Z" style="fill: #de7f3f"/>
      <path d="M1655.76764,2620.61c-8.12616,1.25313-13.63127-5.9662-15.9725-17.5358-6.80424-33.62606-13.6436-67.24446-20.13-100.95456-2.97624-15.4677.21244-20.62727,16.23124-19.57722,61.06256,4.00381,116.10081-15.08523,160.12468-67.01138,7.09336-8.36675,14.04725-14.96485,23.12478-9.26642,9.25069,5.80748,4.25774,16.29968,1.54811,24.455-23.49575,70.71375-60.473,129.13162-116.10755,170.18977C1690.6208,2611.21588,1675.96749,2619.7637,1655.76764,2620.61Z" style="fill: #de7f3f"/>
      <path d="M1160.85533,2624.29637c-31.95877-5.08554-58.86095-25.98758-84.0053-50.22418-37.06467-35.72651-65.05009-79.62637-83.912-131.23507-2.52356-6.90454-4.65981-14.75377,2.41062-19.38982,6.07576-3.98313,12.78841-3.52029,18.40992,2.60363,50.0486,54.52011,109.97372,68.82938,175.9438,58.31484,10.80869-1.72263,12.24757,6.21062,10.83234,15.11057-6.03563,37.95733-12.47176,75.83063-19.00293,113.67826C1179.34351,2625.83594,1170.01126,2622.85951,1160.85533,2624.29637Z" style="fill: #de7f3f"/>
    </g>
  </g>
</svg>
