<svg id="Layer_8" data-name="Layer 8" xmlns="http://www.w3.org/2000/svg" viewBox="0 0 3000 3000"><title>body</title><path d="M1971.41,2294.57a9.21,9.21,0,0,1,.83,1.81c2.87,13,5.71,15.9,19.36,18.22,13,2.22,25.89.82,38.58-2.6a175.61,175.61,0,0,0,45.8-19.55c75.74-46.22,132.54-109.54,169.78-190.16a184.11,184.11,0,0,0,16.26-58.5c1.17-11.4.62-22.67-3.12-33.58-5.35-15.58-16.31-24.69-32.53-27.51-13.14-2.28-25.88-.16-38.46,3.48-25.55,7.4-48.64,19.79-70.33,35-2.45,1.72-4.82,3.58-7.39,5.1a7.61,7.61,0,0,1-7.64.36c-13.92-7-21.48-17.83-21.6-34-.13-18.38,4.32-35.67,11-52.46,10.64-26.67,21.45-42.72,46.58-70.4a78.28,78.28,0,0,1-24.83-17.31,79.73,79.73,0,0,1-14.89-21.15c-11.86-24.93-5.83-50,16.17-66.74a84.84,84.84,0,0,1,38.25-16.28c53-8.57,99.54,4.86,139.14,41.44,5.6,5.17,9.6,11.75,15.25,18.8,1.19-6.26,2-11.28,3.12-16.25a82.69,82.69,0,0,1,13.26-31c12.63-17.68,31.57-24.68,52.67-19.47,17.65,4.36,32.22,14.06,45.09,26.54,27.63,26.77,45.61,59.55,58.92,95.21,7.11,19,11.87,38.72,15.36,59.19,3.78-.16,5.63-2.76,7.9-4.36,8.2-5.76,16.47-11.33,26.27-14.08,15.47-4.35,25.42,2.67,26.59,18.85.71,9.76-.87,19.24-3.43,28.63-7.62,27.91-20.75,53.35-35.54,77.93-20,33.22-42.79,64.34-70.68,91.51a256.28,256.28,0,0,1-26.84,22.74c5.51,1.11,9.58,1.75,13.55,2.78,15.13,3.91,23.53,14.73,23.84,30.44.22,11-3.25,21-7.95,30.65-11.26,23.17-27.88,42.15-46.82,59.21a282.31,282.31,0,0,1-74,48.6c-2.4,1.07-4.73,2.32-8.12,4l8.22,3.86c7.89,3.67,15.36,8,21.75,14,11.7,11,13.18,23.27,4.32,36.71-5.43,8.22-12.77,14.47-21.12,19.51a145.4,145.4,0,0,1-70,21c-30.7,1.29-61.19-2-91.7-4.81-1.83-.17-3.72-1-5.75.28,3,3.12,6,6.1,8.78,9.24,11,12.23,9.34,24.76-4.54,33.55-11.51,7.29-24.56,10.12-37.81,11.95-31.64,4.38-63.15,2.47-94.48-2.9-24.36-4.18-48.1-10.63-70.83-20.52-1.81-.78-3.59-1.76-6.39-1.36-2.49,15.84-4.94,31.89-7.58,47.92-.69,4.18,1.16,6.07,4.8,7.36,30.75,10.9,61.15,22.86,92.51,31.92,6.35,1.83,12.74,3.46,19,5.59,21.85,7.39,51.14,44.26,42.11,77.11-4,14.44-11.34,26-25,33.12-11.44,6-23.41,9.49-36.41,8.93a11.81,11.81,0,0,1-3-.16c-21.1-6.95-42.92-3-64.38-4-22.61-1.14-45.28-1.09-67.92-1.52-4.83-.09-9.67,0-14.5,0-.16.76-.31,1.53-.47,2.29,6.63,4.09,13.4,8,19.85,12.31,17.9,12.09,33,26.62,42.15,46.77,12.2,26.81,5.71,56.69-16.5,76.23-19.22,16.9-41.92,25.77-66.65,29.53-19.72,3-39.59,5.17-59.69,3.94-50.08-3.06-97-15.78-139.36-43.61-11-7.25-19.58-17-28.39-26.5a168.55,168.55,0,0,1-12.15-14.54c-2.38-3.22-4.84-3.71-8.56-3-10.77,2.09-21.72,3.33-32.43,5.71-11.74,2.6-23.68,3.73-35.53,5.23-90.41,11.39-181.18,13.94-272.15,9.78-24.25-1.11-48.43-3.77-72.66-5.57-8.38-.62-8.5-.45-10.63,7.37a22.21,22.21,0,0,1-6.92,10.69c-12.44,11.46-27.4,19-42.36,26.1-20.73,9.83-42.09,18-64.54,23.66-29.43,7.36-59.14,8.72-89.19,8.07-21.92-.47-42.93-4.46-63.1-13.28a114.15,114.15,0,0,1-24.08-14.1c-21.61-16.69-32.91-45.51-20.41-71.94,4.48-9.49,8.6-19.61,17-26.8.76-.66,1.08-1.63.32-3.54-2.46-1.37-5.81-.8-9-.77-39.63.33-79.26-.3-118.88,1-3,.1-6,.25-9,.64-6.59.88-12.17-1.21-18-4.27-18.57-9.7-29.87-25-35.87-44.61-6.4-20.84-1.88-39.44,12.4-55.79a32.16,32.16,0,0,1,13.14-8.85c16-5.9,30.44-14.86,46.21-21.28,19.16-7.81,38.61-14.49,58.19-21,12-4,12-4.16,7.28-16-12.4-31.42-20.17-64-26-97.23-5.33-30.21-9.52-60.54-11.5-91.1A766,766,0,0,1,826,2197.16c3.71-33.36,8.56-66.58,15.09-99.61,7.77-39.33,19.44-77.48,31.09-115.66a240.86,240.86,0,0,1,17-42.62c2.09-4,2-6.92,0-11a430.13,430.13,0,0,1-34.68-96.58c-1-4.52-2.22-9-3.3-13.35-3.43-.77-4.31,1.86-5.8,3.46-8.38,9-15.58,19-23.11,28.7a116.06,116.06,0,0,1-7.76,9.1c-5.94,6.2-12.93,6.2-17.58-.91-7.3-11.18-13.06-23.21-15.39-36.57a299.66,299.66,0,0,1-1.12-96.51c1.47-9.85,4-19.55,6.35-29.26,2.5-10.47,3.62-20.94,1.86-31.68-4.87-29.65-7.39-59.49-6.47-89.54.26-8.39-1.09-16.61-1.43-24.92-.52-12.8,3.16-25.08,4.29-37.68.83-9.26,2.45-18.23,6.58-27,4.55-9.59,6.1-20.36,8.32-30.78.85-4,.57-7.62-2.32-11.2-14.69-18.17-30.1-35.64-48.15-50.58a144.74,144.74,0,0,0-20.75-13.86c-7.13-4.08-14.86-5.15-22.83-6.4-45.87-7.21-88.5-22-122.53-55.43a83.33,83.33,0,0,1-24-45.12,44.56,44.56,0,0,1,1.49-22.61c8.47-25.93,21.66-49.39,37.52-71.38,29.47-40.87,65.2-75.69,104.74-106.59C773,1017,849.45,974.35,934.35,947.68a237.21,237.21,0,0,1,32.92-8.23c4.66-.76,6-2.54,5.9-7.09a218.38,218.38,0,0,1,2.67-40.85,69,69,0,0,1,5.23-18.19c8.86-18.64,25.31-21.86,40.39-7.92,7.69,7.1,13.27,15.79,18.25,24.87,8.54,15.55,14.68,32.08,19.85,49,1.13,3.7,2.25,7.41,3.67,12.08,3.31-2.83,3.84-6.19,5.12-9,5.11-11.31,11.22-21.93,20.32-30.61,20.06-19.12,44.88-18.06,63.07,2.92,6.83,7.87,11.73,17,15.93,26.45,9.29,21,13.65,43.12,16,65.76,1,9,1.11,9.56,9.43,6.79,21.21-7,43.07-11.36,64.71-16.58a410.8,410.8,0,0,1,72.05-10.43c46.65-2.78,93.23-2.27,139.47,5.41,24,4,47.59,9.72,71.05,16.08,21.54,5.83,42.82,12.48,63.09,22,3.89,1.82,5.39.35,5.85-3.61a238.1,238.1,0,0,1,9.59-45.91c4.32-13.37,9.8-26.21,17.64-38a77.68,77.68,0,0,1,10.1-12.36c17.47-17.21,39.94-17.71,58.1-1.25,10.11,9.16,16.67,20.65,21.83,33.09,1.24,3,1.67,6.35,4.43,9.28,2.67-3,3.06-6.66,4.17-10,6.38-19,13.87-37.51,24.66-54.5,5.2-8.18,10.93-16,18.83-21.82,13.75-10.16,27.83-7,35.91,8.07,4.17,7.76,5.81,16.28,6.7,25a239.11,239.11,0,0,1,1.23,37.93c-.23,4.07,1,5.84,5.12,6.8,44.46,10.3,85.91,28.49,126,49.77,67.5,35.83,129.14,79.8,182.52,134.83,29.82,30.76,56.41,64,75.29,102.77a260.82,260.82,0,0,1,13.52,34.37c4.16,12.91,1.56,25.07-3.36,36.94-8.18,19.77-22.56,34.31-40.08,46-20.73,13.87-43.53,23-67.52,29.26-14.16,3.69-28.32,7.6-43.16,7.61-5.42,0-10.36,1.81-15.27,4.11a130.9,130.9,0,0,0-31.53,20.93c-7.7,6.86-15.21,14-22.37,21.41-12.94,13.42-25.57,27.13-38.29,40.76-6,6.46-6.78,13.78-.93,20.33,3.45,3.87,4.36,7.82,4.76,12.55a607.18,607.18,0,0,1-.46,111.83,585.26,585.26,0,0,1-11.37,67.89,80.72,80.72,0,0,0-1.09,28.71c4.4,32.53,4.05,65.07,1,97.71-1.48,15.62-4.08,31-7,46.37a37.33,37.33,0,0,1-4.51,12.11c-4,6.7-13.2,6.53-17.5.85-12-15.9-23.44-32.31-36.78-47.19-2.56-2.86-4.6-6.38-9.4-7.72-1.32,6.46-1.59,11.82,1.05,17.75,14.24,32,27.61,64.28,37.56,97.86,6.71,22.66,12.94,45.48,18.48,68.44a750.18,750.18,0,0,1,14.91,78.48c3.29,25.06,7.53,50,10.8,75,.85,6.5-.35,13.28-.67,19.93-.69,14.38-.21,28.63,4.88,42.34a474.5,474.5,0,0,1,3.09,49.14C1970.23,2287.55,1968.9,2291.32,1971.41,2294.57Z" style="fill:#010101"/><path d="M1737,1900.76a19.57,19.57,0,0,0-1.27,13.67c5.06,20,7.46,40.41,10.81,60.69,1.16,7-.77,11.64-6.39,15.22-10.09,6.43-20,13.08-30.35,19.16-38,22.41-78.64,38.85-120.78,51.67-31.14,9.47-62.7,17.12-95,21.78-25,3.59-50,6.17-75.1,8.31-29.29,2.49-58.56,1.92-87.76,1-17.79-.57-35.65-3-53.45-5a676.85,676.85,0,0,1-91.94-16.61,542.64,542.64,0,0,1-101.19-36.27c-31.21-15-61.21-31.93-88.54-53.34-.26-.2-.6-.29-.87-.49-12.32-9-14.49-13.44-10.63-28.41,5.39-20.93,8.91-42.26,12.23-63.48,1.58-10.1,1.45-20.85,2.82-31.26a14.27,14.27,0,0,0-.07-3c-.28-3-1.76-5.08-5-5.19-2.81-.11-4.21,1.77-4.66,4.29-1.38,7.85-2.86,15.68-4,23.57-3.15,23-6.21,46-11.18,68.67-.05.27-.45.46-.69.69-3.94-3.41-3-7.91-2.3-12.08,4.43-24.58,8-49.28,11.58-74a41.36,41.36,0,0,1,1.81-7.77c2.92-8.3,6-9.74,16.27-6.66-1.52-58.25-6.7-115.12-35.83-167a75.56,75.56,0,0,0-17.42-20.41c-13-11.08-27.68-11-40.76-.07-9.7,8.1-15.94,18.63-20.94,30-9.87,22.51-14.13,46.41-17.61,70.52-.47,3.23-.19,6.75-2.88,9.31-5.11-1.62-7.19,2.36-9.47,5.43-13.65,18.39-27.17,36.87-40.73,55.33a37.13,37.13,0,0,1-2.4,3.17c-2.67,2.92-5.37,2.83-7.09-.76s-3.63-7.36-4-11.2c-1.77-16.48-5.7-32.75-4.39-49.54a583.34,583.34,0,0,1,8.69-67c1.72-8.78,3.73-17.53,5-26.39,1.48-10.33-1.48-20.5-2.43-30.72-1.07-11.53-3.55-23-3.24-34.62.27-10-2.29-19.75-2.12-29.81a154.42,154.42,0,0,1,3.26-31.63c1-4.3.75-8.61.78-12.92.14-21.31,3.07-42.34,6.29-63.33.44-2.87,1.7-5.62,2.53-8.24,3.79-.71,5.18,2,6.89,3.83,16.39,17.21,43.75,19.66,64.66,8.5,22.85-12.19,35.8-31.72,40-57.52,1.84-11.14,1.09-21.75-.88-32.6-5-27.72-13.55-54.73-16.87-82.77-1.8-15.15-4.82-30.17-4.85-45.54a20.25,20.25,0,0,1,4.14-12.94c11.62-15.35,23.41-30.54,35.85-45.26,11.43-13.52,24.07-25.78,36.59-38.18,21-20.85,44.55-38.59,68.61-55.87,13-9.3,25.87-18.51,39.63-26.48,18.14-10.51,37-19.6,56.14-28.26,5.14-2.33,10.45-4.27,15.64-6.48,4.2-1.78,8.06-4.56,12.7-.31,1.89,1.74,4.77.09,5.82-2.14,2.63-5.53,7.6-6.73,12.82-8.25,24.85-7.22,49.47-15.17,75.06-19.63,17-3,34-5.38,51.1-7.4,31.53-3.73,63.17-2.23,94.7-1.43,20.78.52,41.44,4.44,62,8.09a562.67,562.67,0,0,1,78,19.88c17.32,5.7,34,13.22,51,19.94a9.47,9.47,0,0,1,5.12,4.57c2.32,4.72,6.57,6.16,10.85,5,5.21-1.42,9,.69,13.16,2.79a543.9,543.9,0,0,1,84.38,52.81c11.25,8.63,22,18.21,32.47,27.89,11.48,10.6,23.42,20.68,34.2,32,31.91,33.64,60.32,69.89,83.36,110.21,3.42,6,8.69,11.3,7.92,19-.63,6.26-1.49,12.52-2.67,18.7-4.62,24.14-10.51,47.94-17.32,71.6-7.28,25.34-8.81,51.09,5.28,75.33,10.35,17.79,24.85,30.21,45.23,34.86a61.68,61.68,0,0,0,24.77.12c9.16-1.64,9.76-1.32,10.94,7.3,3.53,25.76,5.06,51.69,3.53,77.58-1.39,23.47-3,47-6.92,70.27-2.3,13.73-5.67,27.28-7.24,41.16a49.53,49.53,0,0,0,0,12.7c3.43,25.06,5.89,50.26,4.18,75.55-1.22,18.19-3.82,36.28-5.79,54.42-.23,2.07-.7,4.1-2.75,4.94-2.25.92-3.93-.69-5.07-2.26-8.66-11.92-20.42-21-29.58-32.39-5.67-7-12.15-13.25-18.63-19.44-5.72-5.46-7.91-4.08-10.11,3.63-2.35,8.28-.66,17.29-5,25.11-5.84-6.41-3.44-13.71-1.74-20.61,1.3-5.26,2.62-10.29,1.07-15.65-7.47-26-18.9-49.81-38.4-68.94-23.11-22.68-50.14-19.66-68.15,7.4-15.83,23.79-21,51-22.39,78.71C1728.7,1840.13,1729.47,1870.76,1737,1900.76Z" style="fill:#38414c"/><path d="M1209.72,2593c-.6,12.69-4.9,24.7-6.89,37.15-4.09,25.52-8.79,51-13,76.46a39.34,39.34,0,0,1-2.69,9.51c-2.54,5.84-4.36,11.88-3.53,18.39.7,5.51-1.57,9-6,12.62-26.46,21.55-57.42,32.7-90.07,40.29-4.4,1-7.29.9-7.8-4.24-1.28-12.88-2-25.73,2.16-38.32a43.7,43.7,0,0,1,11.36-18.48,41,41,0,0,0,4.83-5,8.71,8.71,0,0,0,.33-10.29c-1.87-3.11-4.84-4.35-8.52-4-5.42.45-9.36,3.5-12.43,7.54-12.3,16.2-18.07,34.59-17.61,54.91.11,5.08,2,9.72,4.3,14.21,3,6,2,8.51-4.45,9-5,.39-9.83,1.84-14.78,2-31.37,1.26-62.45.08-92.35-11.2A72.62,72.62,0,0,1,922,2761.88c-7.82-9.3-8-20.31-4.92-31.22,4.19-15,14.79-25.74,26.32-35.49,12.74-10.76,28.3-17.26,41.52-27.45,7.15-5.52,11.52-10.85,11.08-20.48-.71-15.3-.17-30.65,0-46,.14-18.67-3.69-36.94-5.45-55.42a470.67,470.67,0,0,0-8.67-56c-6-27.33-13.72-54.07-25.28-79.63-4.52-10-8.68-20.14-14.61-29.46-2.3-3.63-3.36-7.93-4.23-12.2-.92-4.58-3.49-8.19-8.22-8.76-3.42-.41-6.23,7-4.76,12.55,2.4,9,6.18,17.55,9.92,26.09,15,34.19,26.24,69.38,31.57,106.56,3.62,25.29,5.47,50.75,9.21,76,3.26,22.07.9,44.4.34,66.62-.1,4.11-1.8,7.18-5.52,8.68-4.1,1.66-7-.76-9.51-3.67-18.48-21.82-36.15-44.13-49.83-69.48a528.6,528.6,0,0,1-37.83-87.77,539.18,539.18,0,0,1-21.55-93c-3.41-24.65-6.36-49.26-8.17-74.12-2.25-31-2-61.94-.86-92.8a546.86,546.86,0,0,1,6.64-66.26c2.47-15.36,4.06-30.88,6.44-46.29A607.21,607.21,0,0,1,871.39,2052c6.09-21.75,12.78-43.35,19.51-64.92,3-9.51,6.62-18.81,10.07-28.17.67-1.81,1.26-4.22,3.43-4.6,2.76-.48,4.05,2,5.05,4,6.28,12.53,14,24.12,22.28,35.41,6.29,8.59,12.69,17.07,20.46,24.41a52.93,52.93,0,0,0,5.3,4.52c9.49,6.83,15.28,4.58,19.06-6.88,1.73-5.26,1-10.55,1.27-15.84.14-2.4.31-4.9,2.73-6,2.69-1.23,4.14,1.24,5.94,2.61a518.46,518.46,0,0,0,65.2,42.15c29,15.8,59.42,28.29,90.74,38.6a598.77,598.77,0,0,0,99.57,23.8c23.28,3.45,46.67,8.91,70.08,7.4,40.54-2.63,81.08-.07,121.57-2.1,5.31-.27,10.47-2.11,15.86-1.47a2.48,2.48,0,0,1-.42,3.13c-12,6.15-25.23,4.81-37.92,5.44-24.16,1.21-48.39,1.14-72.6.35-13.81-.44-14.59.17-17.52,13.48-12.79,58.12-28.46,115.55-42,173.5-1.12,4.8-1.62,9.9-4.94,14-12.68-4.1-14.44-3.11-17.63,10.6-6.86,29.44-11.2,59.33-16.15,89.12-5,30.1-10.61,60.1-15.87,90.16C1219.36,2534.08,1214.19,2563.46,1209.72,2593Z" style="fill:#38414c"/><path d="M1449.51,2107v-2l5.32-.33c2.06-1.14,4.65,0,6.61-1.58,10.77-2.65,21.69-2.91,32.71-2.29,10.09.57,19.69-2.79,29.44-4.51a615.46,615.46,0,0,0,95.25-24.9c41-14.24,80.23-32,116.89-55.37,3.23-2,6.8-5.68,10.76-3.9,4.48,2,2.47,7.07,2.65,10.87.26,5.32-.08,10.68.32,16,.31,4.07,1.72,8.19,6.06,9.51a11.46,11.46,0,0,0,12-2.73c11.84-11.29,22-24,31.75-37,28.25-37.87,49.48-79.45,64.48-124.27,1-3.14.58-8.46,5.34-8.58s4.38,5.25,5.51,8.35a883.88,883.88,0,0,1,27.73,91.53c9.86,39.61,19.32,79.35,26.24,119.57,4,23.17,6.51,46.62,9.11,70,2,17.8,2.4,35.75,5.3,53.44a19,19,0,0,1,.1,2c2.63,46.23,3.28,92.53,1.54,138.76-.57,15.12.23,30.59-3.18,45.65-.67,2.94-1.2,5.82-2.65,8.48a8.94,8.94,0,0,0-1.38,5.73c3.36,19.85-2.87,38.77-6.17,57.84a390.82,390.82,0,0,1-26,86.69c-9.25,21.69-21.73,41.12-39.12,57.21-5.33,4.93-6.76,4.32-9.38-2.62s-1.91-14.51-2.66-21.69a158.64,158.64,0,0,1,.39-38.82c2.35-16.74,3.58-33.6,6.53-50.3,4.58-25.86,11.17-51.14,18.78-76.23,5.7-18.79,12.41-37.2,19.52-55.47,2.89-7.43,6.14-14.73,9.41-22,1.53-3.39,2.86-6.71,2.6-10.53-.16-2.47-.72-4.68-3.08-5.84s-4.46,0-6.28,1.65a31.39,31.39,0,0,0-5.41,7.1c-17.82,30-29.49,62.45-38.61,95.87-5.59,20.46-11.34,41-13.85,62.09-1.76,14.8-4.55,29.48-5.09,44.49-.43,12.26-1.64,24.5-1.83,36.81-.24,17,1.87,33.8,4.17,50.57,1,7.36,10.26,16.9,17.53,18.65,23.37,5.61,43.77,16.76,62,32.4,9.22,7.91,16.94,16.62,22.38,27.54a37.46,37.46,0,0,1-7.49,43c-18.06,18-40.31,26.28-64.51,31a243.74,243.74,0,0,1-54.53,4c-6.66-.21-13.08-2.1-19.8-2.09-5.43,0-5.8-4.37-5.69-8.68.28-10.31,0-20.55-1.85-30.8-2.73-15-8.91-28.48-16.81-41.27-1.54-2.5-3.93-4.5-6-6.63-2.9-2.92-5.85-2.66-8.74.12s-3.18,5.8-.22,8.66c13.38,12.89,15.12,29.67,15.63,46.82.19,6.33.09,12.67,0,19-.14,8.13-.7,8.78-8.52,7.24a210.68,210.68,0,0,1-64.11-24,152.38,152.38,0,0,1-35.38-27.33c-3.9-4.1-6.58-8.15-6-14s-.79-11.2-2.73-16.6c-5-13.84-6-28.54-9-42.82-7.83-37.33-14.69-74.87-22.84-112.13-8.3-37.92-15.21-76.11-23.19-114.08q-8.49-40.41-16.85-80.85c-2.54-12.34-4.8-24.74-7.37-37.07-.74-3.54-1.42-7.24-3.83-10.17-1.79-2.18-4.07-3.56-7-2.83-3.19.8-2.27,3.58-2.48,5.77-.12,1.33-.24,2.66-.37,4a2.07,2.07,0,0,1-2.87-.31c-14.25-49.19-32.79-97-47.32-146.1-5.28-17.89-12.47-35.09-18.76-52.62-2.17-6.05-5.64-8.46-12.08-7.15-5.85,1.19-11.87,1.45-17.8,2.23C1459.62,2109.7,1454.14,2110.91,1449.51,2107Z" style="fill:#38414c"/><path d="M1807.13,939.23c1.2,7-1.74,14.79-1.84,22.77-.14,10.76,3.38,13.34,13.13,8.79,2.95-1.37,5.08-.71,7.52.09,44.62,14.74,87.83,32.62,129,55.59a791.35,791.35,0,0,1,97.49,64c16.34,12.58,32,25.94,47.39,39.71a546.46,546.46,0,0,1,42.16,42.45c24.56,27.37,46.35,56.63,62,90.13,2.53,5.41,4.63,11,6.87,16.59,9.45,23.41,1.36,42.94-13.93,60.54-16.38,18.87-37.72,30.38-60.76,38.82-20,7.33-40.58,12.16-62.21,12.59-10.92.22-21.33,4.74-31,9.91-18.62,9.94-35.12,22.94-50.11,37.64-9,8.81-16.58,19-24.72,28.7a17.27,17.27,0,0,0-2.44,4.34c-16.27,38.4-59,37.53-80.58,16.34-16-15.68-24.4-34.17-23.3-56.18.59-11.82,5.08-23.39,6.25-35.23,1.59-16.09,10.12-30.09,12.33-45.93,2.69-19.37,6-38.65,9-58,1.48-9.84,3.23-19.64,4.65-29.49s2.06-19.9,2.74-29.73c1.82-26.2,3.95-52.51,2.25-78.8-1.47-22.51-2.78-45.11-8-67.18-3.28-13.93-8.84-26.32-21.77-34.44-7.09-4.46-13.76-5.55-21.68-2.89-28.3,9.54-54.55,22.81-78.11,41.29-7.06,5.54-14.33,10.8-21.53,16.16-7.47,5.56-9.84,5.85-17.58.94-5.6-3.55-10.74-7.82-16.28-11.49-13.58-9-28-16.83-41.11-26.31a111.32,111.32,0,0,0-31-16,44.36,44.36,0,0,1-7.15-3.53c-10.37-5.66-11.85-9.5-10.22-21,2.54-17.81,5.89-35.32,12.7-52.12,5.23-12.92,12.58-24.11,23-33.35,12.91-11.43,26.86-10.28,36.88,3.55a92.6,92.6,0,0,1,16.36,39.27,93.74,93.74,0,0,0,2.54,11.68c1.33,4.38,3.77,7.64,9.14,7.69s8.6-2.32,10.33-7.47c4.56-13.55,9.07-27.13,14.13-40.49,6.14-16.22,13.52-31.87,23.62-46.09a57.06,57.06,0,0,1,13.14-13.57c6.7-4.8,11.81-3.15,15,4.48A85.2,85.2,0,0,1,1807.13,939.23Z" style="fill:#38414c"/><path d="M889.78,1177.72c-1.43,19.19,2,43,2.51,67,.29,14.8,3.11,29.7,6.26,44.24,2.68,12.41,2.52,25.06,5.09,37.41a190.06,190.06,0,0,0,6.46,23.87c3.22,9.27,3.94,19.42,5.62,29.21,1,5.89,1.32,11.92,2.71,17.71,6.5,27.19-11,63.46-38.47,75-19.4,8.17-36.3,4-52.55-7.26-2.69-1.86-4.93-4.33-5.38-8-.84-6.89-4.71-12.47-9-17.46-11.78-13.53-22.23-28.25-35.8-40.2-17.06-15-35.14-28.27-56.78-36.3-8.09-3-16.37-2.3-24.49-3.6-31.73-5.06-61.21-15.66-87.29-34.38-14.07-10.1-26.16-22.4-33.34-38.92-6.1-14-5.58-27.46-.06-41.47,8.24-20.92,19.56-40.06,32.71-58.11a450.22,450.22,0,0,1,52.94-60.92,772.38,772.38,0,0,1,79.58-66.36A752.38,752.38,0,0,1,848,994.33c34-16.87,68.9-31.49,105.5-41.79,3.19-.9,6.29-2.14,9.47-3.11,5.3-1.63,10.12-3.92,15.9.37,4.35,3.23,9.95-.47,10.79-6.27.47-3.26,0-6.65.07-10,.29-13.6-1.65-27.33,2.09-40.73a60.74,60.74,0,0,1,4.31-12.18c3.7-7,9.46-7.94,15.59-2.74,8.51,7.24,14.47,16.5,19.6,26.25,10.73,20.41,17.74,42.26,24.37,64.25,1.25,4.13,2.4,8.31,4,12.31s4.51,6.47,9.19,6.3,7.48-2.71,8.77-6.85c1.59-5.06,2.76-10.25,4.11-15.39,3.68-14,8.79-27.27,19-37.9,9.93-10.28,19.34-11,31.13-3.29,9.88,6.5,15.9,16.07,21,26.15,8.51,16.78,12.47,35,14.66,53.54.5,4.29,1.1,8.55,1.7,12.82,1.22,8.62-1.15,13.43-9.24,16.51-21.8,8.29-42.35,19.17-63.1,29.66-3,1.49-5.68,2.46-9.42,1.77a11.7,11.7,0,0,0-13.12,6.77c-2,4.82-5.45,7.32-9.35,9.8-5,3.21-10.46,5.93-15.13,9.61-4,3.14-6.33,1.8-9.29-1.13-6.59-6.53-12-14.09-19.33-20-23.6-19-49.81-33-78-43.62-6.64-2.5-12.32-1.26-18,1.88-12.41,6.8-19.74,17.54-23.27,31-5.75,21.9-8.73,44.18-10.48,66.77C890.26,1141,890,1157,889.78,1177.72Z" style="fill:#38414c"/><path d="M2410.77,2148.78c2.51,3.28,6.11,1.88,9.27,2,4.32.19,8.54.29,12.77,1.7,13.8,4.6,20.11,15.06,17.3,29.37-3,15.32-9.88,29-19,41.39-26.13,35.59-59.67,62.26-99.45,81.12-10.23,4.85-21.19,7.71-32.15,10.48-6.79,1.72-9,4.44-7.76,9.2.35,1.32.7,3.74,3.07,2.69,13-5.69,23.84,1.22,34.94,5.91a60.52,60.52,0,0,1,16.53,11.06c7.36,6.61,8.67,13.71,4.08,22.4-5,9.45-13,15.95-22.12,21-18.47,10.34-37.93,17.28-59.45,18a460.36,460.36,0,0,1-78.28-3.79c-10.83-1.46-21.81-1.76-32.49-4.39-3.22-.79-6.41-1.72-9.58-2.68-7.06-2.15-10.77-1.17-12.7,3.44s0,8.12,6.63,11.22c9.07,4.26,17.72,9.1,24.63,16.62,7.39,8,6.36,14.5-3.34,19.93-8,4.49-16.88,6.23-25.76,7.11-17.15,1.7-34.23,2.37-51.63.81-25.55-2.3-50.72-6-75.44-12.64-15.1-4.07-29.88-9.14-43.57-16.94-7.74-4.42-9.27-6.64-7.73-15.27a108.32,108.32,0,0,0,1.58-17.84c0-2.74,1.29-5,2.23-7.49,3.56-9.34,6.66-18.88,1-28.64-1.23-2.12-1-4.51-1-6.83-.11-10,2.47-19.7,1.78-29.84,1.81,0,3-.36,3.68.06,20.74,12.28,42.58,10.8,64.65,5,33-8.72,61.49-26.39,88.6-46.48a395,395,0,0,0,44.3-38.68,452.82,452.82,0,0,0,51.93-61.78c20.75-29.93,38.14-61.51,49.55-96.33a146.47,146.47,0,0,0,6.89-61c-2.12-20.89-12.72-36.79-32.12-46.09-2.4-5.14.91-9.11,3.16-12.92,31.11-52.7,90.45-60.21,134.39-21.84,36.69,32,54.75,73.29,55,121.68.16,28.34-8.19,54.45-28.08,75.9C2400.64,2142.51,2401.32,2144.33,2410.77,2148.78Z" style="fill:#38414c"/><path d="M2410.77,2148.78c-1.24.46-2.45,1-3.72,1.35-3.43,1-5.9-.6-7.52-3.4s-1.07-5.78,1.33-8.16a95.47,95.47,0,0,0,11.79-13.52c16.14-23.51,22-49.81,19.61-77.79-4-45.29-23.22-82.92-59-111.44-21.55-17.2-46-23.38-73.08-16.76-21.11,5.16-36.56,18.39-48.51,36-3.71,5.47-7.5,11-9.08,17.59-.95,1.34-1.93,2.66-2.83,4-1.09,1.66-2,4-4.31,3.58-2.56-.43-1.83-3-2.19-4.86-.71-3.84-7.43-8.27-12.55-8.53-18.28-.93-35.74,2.82-52.62,9.51-22.1,8.77-42.26,21-61.59,34.74-6.94,4.91-9.68,4.18-13.1-3.75-3.72-8.6-3.46-17.82-1.91-26.58,6.74-38.06,23.06-71.35,50.94-98.55a67.52,67.52,0,0,1,14.35-10.73,35.32,35.32,0,0,0,4.31-2.5c2.24-1.73,3.63-3.85,2.27-6.88-1.55-3.47-4.52-4-7.51-2.93a29.29,29.29,0,0,0-8.82,4.54c-3.8,3-6.23,2-9.15-1.21-5.79-6.42-12-12.47-17.83-18.85a64.3,64.3,0,0,1-6.55-8.81c-16.84-26.43-10-52.61,17.79-67.14,18.24-9.54,38.06-12,58.2-10.56,22.42,1.62,44,7.18,63.82,18.2,16.8,9.35,31.66,20.9,40.76,38.49,2,3.87,4.93,7.06,9.38,5.25,4.07-1.65,4.09,2.27,6.71,3.43,2-3.79,2.37-7.91,3.13-12,2.35-12.45,5.22-24.72,11.29-36,13-24.29,35.87-32,60.73-19.83,21.85,10.66,38.12,27.79,51.75,47.37A261.59,261.59,0,0,1,2484,1935c.41,5.81,1.63,6.63,6.28,3.54a70.07,70.07,0,0,0,7.61-6.42,123.73,123.73,0,0,1,24.4-17.24c4.12-2.2,8.4-4.08,13.13-4.55,8.18-.82,12.86,2.59,13.73,10.74a62.48,62.48,0,0,1-1.3,20.82c-6,26.24-17.38,50.27-30.63,73.47-20.91,36.61-45.93,70.14-76,99.79a44,44,0,0,0-7.62,9.19c-.82,1.43-1.7,3.24-3,3.87C2421.4,2132.64,2417.38,2142,2410.77,2148.78Z" style="fill:#e5e5e5"/><path d="M866.06,1768.31c2.32-33.82,8.62-66.54,26.05-96.27a65.46,65.46,0,0,1,11.31-13.87c14.92-14.36,32.56-14.56,48.07-.68,11.39,10.2,19.45,22.76,25.48,36.57,12.31,28.24,19.37,57.9,23.07,88.44,2.73,22.47,4.92,45,3.49,67.61-.65.08-1.39.41-1.68.18-9-7.17-12.3-6.38-14.38,4.73-2.94,15.65-5,31.46-7.51,47.19-1.68,10.49-3.47,21-5.28,31.42-.73,4.27-1.46,8.51-.55,12.84-4.17,15.09-5.94,30.6-7.9,46.07-.17,1.32-.15,2.67-.42,4-1,4.78-3.26,5.75-6.59,2.24a143.42,143.42,0,0,1-12.74-15.31c-30.08-42-53.11-87.43-67.55-137.12-5.78-19.86-8.77-40.19-10.11-60.78-.18-2.92.66-5.92,1.18-8.86C870.67,1772.9,869.21,1770.23,866.06,1768.31Z" style="fill:#ed792a"/><path d="M1737,1900.76c-4.65-2.89-4.49-8-5.33-12.41a211,211,0,0,1-3.81-26.64c-2-33.32-2.26-66.56,7.42-99,3.53-11.86,8.07-23.27,15.11-33.52a69.86,69.86,0,0,1,6.79-8.61c18.06-19.07,41.43-20.22,61.35-3a115.17,115.17,0,0,1,21.87,25.82,186.93,186.93,0,0,1,21.51,48.14c1.25,4.28,2.1,8.7.27,12.72-3.65,8-3.17,16.16-2.33,24.45-2,2.79-2.64,6-3.1,9.35-4.39,32-16,61.75-29.44,90.82-12.62,27.32-29.52,52-47.66,75.9a80.58,80.58,0,0,1-6,6.68,23.12,23.12,0,0,1-2.87,2.23c-3.54-.74-3.28-3.41-3.5-5.57-3.42-33.49-10.49-66.34-17-99.29-.26-1.3-.37-2.64-.69-3.93C1747.6,1896.85,1744.31,1895.79,1737,1900.76Z" style="fill:#ed792a"/><path d="M879.85,2668.71c-18.65,0-37.3.06-56,0-9,0-10-.84-10-9.55,0-4.69-1.42-9.05-1.33-13.79.24-12.27,6.84-20.44,15.76-27.45,1.82-1.43,4.06-2.36,5.22-4.53,1.25-2.34,2.8-4.71,1.42-7.49s-4.08-3.2-6.85-3c-1.64.09-3.52,0-4.86.76-10.28,5.82-24,16.87-23.28,33.41.3,7-.06,13.89,1.49,20.85,1.63,7.38,0,8.92-7.35,9.07-5,.11-10.08-.65-15,0-12.69,1.79-20.78-5-27.87-14-10.17-12.83-13.17-27.37-9.07-43.09,2.43-9.32,8.94-16.58,18-18.39,14.3-2.86,27-9.37,40-15.07,23.21-10.2,47.62-16.9,71.08-26.27,3.25-1.3,5.14,0,6.47,2.65,5.67,11.29,11.24,22.63,16.9,33.92,1.76,3.51.48,5.64-2.81,7.13-18.26,8.26-24.28,24.15-26,42.49-.48,4.95,0,10,0,15a14.39,14.39,0,0,0,3.25,9.24,5.29,5.29,0,0,0,6.23,1.92c2.32-.82,2.53-2.88,2.58-4.9a101.57,101.57,0,0,1,5.39-30.26,50.76,50.76,0,0,1,14.38-21.23c4.22-3.86,4.79-3.76,8.36,1.23,8.71,12.17,16,25.29,25.4,37,4.36,5.44,8.74,10.86,13.07,16.32,2.71,3.43,2.13,6.26-1.87,7.44a28.41,28.41,0,0,1-7.9.65q-27.48.08-55,0Z" style="fill:#38414c"/><path d="M2056.22,2625c-1.33,0-2.66,0-4,0-8.06-.28-9.43-1.62-11.15-9.58-2.82-13-6.27-25.76-13.29-37.31-3.36-5.54-8.07-9.69-12.76-13.89a12.82,12.82,0,0,0-7.22-3.14c-3.37-.35-5.8,1.28-7.48,4a5.14,5.14,0,0,0,1.31,7.16c14.24,11.5,19.33,28.19,25.38,44.35.35.93.93,1.78,1.22,2.73,1.38,4.59-.58,8-5,7.13-9.92-2-19.87-1.14-29.8-1.62-4-.2-5.6-2.37-6.38-6.23-5-24.34-20-42.29-37.84-58.24a23.79,23.79,0,0,0-12.61-5.61c-4.71-.65-5.95-3.39-4.5-7.88,3.06-9.46,5.76-19,8.92-28.46,1.87-5.57,4.29-6.72,9.89-4.45,12.64,5.12,25.73,8.91,38.58,13.39,25.38,8.85,50.9,17.35,76,26.92,20.14,7.67,29.42,30.13,24.6,47.92C2086.68,2614.86,2071.48,2626.44,2056.22,2625Z" style="fill:#38414c"/><path d="M1561.58,2312.93l2,0c.21,9.34,2.54,18.37,4.21,27.46,6.34,34.54,13.06,69,19.62,103.51,5.87,30.91,12,61.78,17.48,92.76q10.32,58.25,22,116.23c2.78,14,4.67,28.1,8,42,1.83,7.53-1.3,10.88-9.17,12-17.37,2.4-34.65,6-52.09,7.26-15.57,1.12-30.85,4.24-46.47,5-11.19.53-22.51,1-33.59,3.29a24.92,24.92,0,0,1-4,.33c-65.51,3.11-131.07,2.91-196.6,1.62-20.72-.41-41.72-1.47-62.35-5.11-4.22-.75-8.64-.23-13-.49-6.87-.4-8.6-1.68-7.85-8.49,1-9.2,3.27-18.25,4.78-27.4,3.11-18.95,6.09-37.92,9.09-56.89s5.9-37.95,8.89-56.92c3.67-23.22,7.28-46.45,11.12-69.65,4.06-24.5,8.5-48.94,12.5-73.45,3.94-24.18,8.9-48.19,11.56-72.57.93-8.56,2.56-17,3.7-25.56a36.28,36.28,0,0,0,0-7c-.22-3.68-2.06-6.76-5.72-7.06-3.3-.27-5.06,2.77-6,5.71-3.89,11.69-5.71,23.88-8,35.92-4.75,25.4-9.62,50.82-13.22,76.4-3.93,27.92-9.91,55.44-14.7,83.19-4.33,25.14-8.32,50.34-12.53,75.5-.15.88-1,1.64-1.6,2.45-.57-13.38,3-26.27,4.75-39.37,3.07-22.94,8.7-45.44,11.45-68.47,1.85-15.41,5.87-30.54,8.54-45.85,3.91-22.47,7.3-45,11.27-67.49,3.11-17.6,6.41-35.17,10.32-52.6,1.94-8.65,10.13-10.28,17.68-4.32,8,4.21,4.77,11.64,4.32,17.59-1.21,16.27-4.12,32.37-6.48,48.52-7.5,51.42-17.36,102.46-25.77,153.73-8.2,50-15,100.14-23.22,150.09-.38,2.31-.67,4.62-1.13,6.91-3.16,15.87-3.26,16.89,12.46,18.52,24.79,2.58,49.68,4.92,74.59,5.49,36,.82,72,1.24,107.88-.07,37.2-1.36,74.42-2.57,111.52-6.8,28.43-3.24,56.77-7.08,85.13-10.82,12.49-1.65,13.44-2.82,10.89-15.45-13.41-66.28-26.21-132.68-37.74-199.32-8-46.26-18.12-92.12-26.66-138.28-1.39-7.53-2-15.18-3.2-22.76C1555.69,2318.11,1554.74,2313.11,1561.58,2312.93Z" style="fill:#2a3038"/><path d="M1865.61,1064.39c4.55,0,7.05,2.21,8.82,6.53a155.65,155.65,0,0,1,10.65,43.46c3.83,37.21,3.33,74.47.75,111.73-.74,10.62-1.4,21.25-2.33,31.85-.33,3.89.28,8.09-2.52,11.54-3.17.65-3.88-2.17-4.87-3.91-11.35-20-25.46-38.1-39.35-56.33-2-2.6-3.72-5.51-7.24-6.58-1.17-.35-2.73-1.33-3-2.35-3.53-11.43-13.22-18-20.46-26.55a8.94,8.94,0,0,1-1-2.74c6.27-1.55,8.54,4,12,7.06,7.13,6.29,8.21,6.38,11-2.92,9.44-31.18,19.84-62.06,28.84-93.38C1858.7,1075.52,1859.7,1068.68,1865.61,1064.39Z" style="fill:#bc6566"/><path d="M1865.61,1064.39q-17.2,54.9-34.43,109.8c-1.47,4.67-2.42,9.63-6.23,14-8.18-4.11-12-13.15-20-17.14-15.61-15.37-31.36-30.58-48-44.89-5-4.36-4.82-5.65.55-10a166.71,166.71,0,0,1,22.42-14.84c19-10.93,38-21.91,57-32.77,6.08-3.46,12.64-5.84,19.21-8.24C1861.15,1058.49,1863.71,1060.23,1865.61,1064.39Z" style="fill:#ff8d8e"/><path d="M937.85,1036.88c8.78,2.41,16.5,7.06,24.14,11.74q28.93,17.73,57.56,36c4.9,3.12,10.26,6,13.44,11.27-27.76,21.23-54.64,42.7-79,67.17-8.32,1.94-8.4-4.49-9-9.48-2.68-21.42-5.47-42.83-8.14-64.26-1.78-14.17-3.86-28.32-5.15-42.54C931.34,1042.74,928.94,1035.8,937.85,1036.88Z" style="fill:#ff8d8e"/><path d="M937.85,1036.88c-5,.69-4.26,4.51-3.85,7.65,2.35,18,5,36,7.33,54,1.69,13.1,3.11,26.25,4.51,39.39.7,6.57,2.52,13,2.28,19.7-.13,3.62,2.55,5.12,5.9,5.42-2.63,7.26-9.64,10.61-14.42,15.94-10,11.11-19.66,22.43-28.84,34.2-1.8,2.3-3.59,4.79-6.59,5.61-2.86-.81-2.16-3.17-2.21-5-1-38.2-1.77-76.42,2.28-114.51a193.06,193.06,0,0,1,7.52-38c2.63-8.3,6.06-16,12.67-22.21C930,1033.86,929.7,1033.55,937.85,1036.88Z" style="fill:#bc6566"/><path d="M1961.85,2624.68c-18.85-2.78-37.83-1.37-56.75-1.89-7.92-.22-8.82-2.15-4.4-8.91a228.24,228.24,0,0,0,22.38-43.3c2.94-7.67,3.69-7.71,10.1-3,12,8.73,21.93,19.19,28.73,32.58,3,5.9,7.09,11.23,10.57,16.89,3.11,5,2.13,7.08-3.65,7.64C1966.53,2624.87,1964.18,2624.68,1961.85,2624.68Z" style="fill:#363f49"/><path d="M1461.44,2103c-1.76,2.38-4.24,1.74-6.61,1.58A9,9,0,0,1,1461.44,2103Z" style="fill:#38414c"/><path d="M1290,1393.07c.2-43,2.67-85.84,13.46-127.75a219,219,0,0,1,12.65-36.79c4.45-9.74,9.82-18.93,17.74-26.35,12.59-11.8,27.94-12.55,41.63-2a70.83,70.83,0,0,1,15.83,17.85c9.87,15.21,16.7,31.81,22.42,48.91,12.52,37.44,19.48,76.06,23.86,115.19,1.85,16.53,3.09,33.15,4.31,49.75.75,10.1-3.81,14.3-13,11-6.75-2.44-12.52-1.11-18.25,1.46a227.67,227.67,0,0,0-23,11.79,48.75,48.75,0,0,0-15.36,14c-3.58,5.1-6,5.33-10.64,1.37s-8.56-8.38-12.94-12.47c-12.33-11.49-26-20.8-42.58-25-3.18-.8-6-2.36-8.86,1.38-2.3,3-4.7,1.26-6-1.6S1290,1428,1290,1425C1290,1414.39,1290,1403.73,1290,1393.07Z" style="fill:#e5e5e5"/><path d="M1554,1208.47c34.2,2.27,68.43,2.56,102.66,3a60,60,0,0,1,9.91,1,8.07,8.07,0,0,1,6.7,8.52c-.37,4-3,5.53-6.73,6-49.69,6.7-98.68,17.6-148.3,24.65a89.81,89.81,0,0,1-11.89,1.08c-4.71,0-6.58-2.42-4.34-6.15a371.25,371.25,0,0,1,23.93-35.55c2.1-2.72,5.06-2.7,8.14-2.64C1540.67,1208.55,1547.31,1208.47,1554,1208.47Z" style="fill:#ea782b"/><path d="M1188.46,1264.6c-41-1.07-81.9-1.76-122.87-1.31a6.56,6.56,0,0,1-1,0c-2.75-.31-6.64,1.13-6.93-3.44-.26-3.94,2.17-6.16,6.08-6.43,16-1.08,31.45-5.32,47.14-8.2,31.39-5.77,62.85-11.21,94.14-17.48,7.85-1.57,12.44.15,16.44,6.83,3.57,6,8,11.46,12.36,16.93,2.59,3.27,3.08,6.76,1.54,10.25-1.46,3.29-5,2.82-7.94,2.83C1214.44,1264.63,1201.45,1264.6,1188.46,1264.6Z" style="fill:#eb782b"/><path d="M1000.52,1872c.59.72,1.07,1,1.15,1.44a1.69,1.69,0,0,1-1,2.08c-.1,0-.58-.41-.57-.61C1000.16,1874.11,1000.33,1873.29,1000.52,1872Z" style="fill:#ed792a"/><path d="M1561.58,2312.93c-4.18,1.14-3.34,4.1-2.8,7.19,2.59,14.72,5,29.49,7.6,44.21,3.11,17.31,6.77,34.54,9.56,51.9,1.59,9.89,5.14,19.21,6.79,29.1,6.77,40.66,13.36,81.37,21.57,121.75,5,24.73,8.45,49.77,14.82,74.27,4.25,16.35,6.38,33.26,9.42,49.93,1,5.62,1.1,7.67-5.89,8.53-16.16,2-32.25,4.45-48.33,7-23.32,3.69-46.88,5.09-70.3,7.77-13.51,1.54-27.21,1.62-40.83,2.07-33.24,1.1-66.42,3.71-99.73,2.95-41.57-.94-83.12-2-124.58-5.28-6-.47-11.8-2-17.74-2.66-5-.53-6-3.31-5.3-7.57,1.42-8.52,3.12-17,4.39-25.53,3.77-25.32,8.85-50.45,12.08-75.83,3.91-30.68,9.27-61.13,14.17-91.64,3-18.67,6.75-37.28,9.85-56,5.89-35.4,12.38-70.71,17-106.32q1.59-12.37,2.81-24.78c.32-3.25.92-6.75-2.36-9.16-.55-4.77,1-9.23,2.16-13.72,11.76-47.47,23.65-94.92,35.37-142.4,3.1-12.58,4.42-25.54,8.21-38,3-10,2.77-10.06,13.6-9.85,23.28.45,46.53,1.56,69.83.34,15.6-.81,31.19-1.58,46.61-4.27,11.74.8,23.14-2.13,34.69-3.34,9.28-1,9.48-.82,12.79,8.2,22.15,60.35,40.06,122.12,61.51,182.69C1560.6,2300.43,1563.2,2306.35,1561.58,2312.93Z" style="fill:#e5e5e5"/><path d="M967.69,2756.41c1.14-18.45,9.46-33.37,23.19-45.42,3.91-3.42,10.77-3.06,13.7,0,3.31,3.47,3.29,7.08-.41,12.54-2.6,3.82-5.49,7.46-8.23,11.19-7.37,10-9.15,21.75-9.94,33.73a62.21,62.21,0,0,0-.08,8c.25,4.3-1.59,7.21-5.69,8.08-4.45,1-6.77-2.2-8.11-5.72C969.4,2771.63,966.91,2764.39,967.69,2756.41Z" style="fill:#020203"/><path d="M1857.21,2757.6c2.72-19.82-5.77-35.55-18.13-49.89-1.29-1.49-2.85-3-3.42-4.81-.91-2.84-1.21-6.05,1.34-8.38,2.87-2.61,5.28-.71,8,.85,8.48,4.84,13.77,12.59,18.21,20.7,9.4,17.2,15.58,35.25,10.31,55.3-1.66,6.33-5.49,11.14-8.65,10.82-3.64-.36-7.45-6.51-7.65-12.61C1857.1,2765.59,1857.21,2761.6,1857.21,2757.6Z" style="fill:#030304"/></svg>