<svg id="Layer_1" data-name="Layer 1" xmlns="http://www.w3.org/2000/svg" viewBox="0 0 3000 3000"><title>BODY ELEMENTAL</title><path d="M2332.57,1907.24c-38.19-18-54.84-59.82-48.7-99.61,2.87-18.6,7.44-36.92,9.11-55.72a160.26,160.26,0,0,0,.84-21.46c-.31-6.74-1.64-13.25-5.22-19.08-1.86-3-4.06-5.35-8.07-5.94-6-.9-9.67-6.6-8.75-12.53.87-5.56,6.3-9.89,12.16-8.34,14.12,3.75,28.74,6.09,41.78,13.28,1.31.72,2.53,1.62,3.89,2.25,2.51,1.16,4.46,5,6.84,4,2-.9,2.71-4.67,4-7.14,7.66-14.28,17.24-26.93,30.92-36,1.51-1,2.34-2,2.21-4-1-14.83-2.29-29.55-7.7-43.62-3.77-9.82-8.93-18.58-16.94-25.55-2.88-2.51-5.81-5-7.46-8.64-1.26-2.75-1.62-5.48.66-7.9a5.51,5.51,0,0,1,7.34-1.05c13.13,9.33,28.42,8.29,43.26,9.51,20.81,1.71,35.95,12,45.66,30.39a130,130,0,0,1,8.38,19.76c.5,1.51.55,3.3,2.43,4.64,1.66-3.23,3.26-6.29,4.83-9.38,9.05-17.87,22.64-30.69,41.69-37.41,4.9-1.73,9.89-3.08,15.14-2.85,7.78.34,11.05,4.94,8.94,12.33a22.72,22.72,0,0,0-1,5.38c-.72,20.37-.62,40.68,5.61,60.41q8.79,27.88,17.59,55.77a5.29,5.29,0,0,0,2.66,3.68,61,61,0,0,1,4.43-5.54c9.12-9.24,19.5-16.63,31.8-21.11a37.38,37.38,0,0,1,16.19-2.28c10.23.88,14.7,6.49,12.67,16.53-2,9.82-3.32,19.71-4.48,29.64-1.85,15.78-1.91,31.59-1.37,47.42.22,6.66.36,13.32.59,20,.86,25.16-11.12,42.59-32.92,53.68-4.55,2.32-5.35,4.61-4.48,9.26,2.69,14.41,6.67,28.62,7.89,43.25,2.09,25.18-3.7,47.81-23.82,64.72-8.39,7.06-17.81,12.87-26.36,19.82-3.31,2.69-6.5,5.07-5.85,10.1a7.17,7.17,0,0,1-2.21,5.45c-1.91,2.06-2.1,4.39-1.91,7,2.57,33.75-4.62,66-15.57,97.54-19.05,54.86-47.05,105.14-79.76,152.88-54.23,79.17-118,149.54-193.77,208.7a569.31,569.31,0,0,1-48.21,33.94c-15.41,9.53-31,18.76-47.47,26.4-15.68,7.28-31.61,14-48.63,17.58-9.5,2-10,2.23-5.81,10.62,5.08,10.29,6.08,21,5.2,32.11-1.58,19.71-16.74,36.74-36.71,42a83.38,83.38,0,0,1-24.7,2.73c-2.69-.11-5.44-.27-7.78-1.5-4.47-2.37-9.16-2.54-14-2.53-37,.08-74-.53-110.94-.49-9.8,0-19.6-1.16-30.44,1.08,10.3,6,20.57,10.44,29.82,16.58,5,3.83,10.3,7.41,15.23,11.41a11.17,11.17,0,0,1,1.12.83q8.14,7.93,16.08,16.06a8.51,8.51,0,0,1,.83,1.07,19.7,19.7,0,0,0,2.36,3.18,8.45,8.45,0,0,1,.79,1.07,58.06,58.06,0,0,0,3.32,5,10.41,10.41,0,0,1,.72,1.14c1.09,2.22,2.16,4.45,3.32,6.64.23.4.43.81.63,1.22.65,1.5,1.36,3,2,4.48.14.49.26,1,.37,1.47.55,3.8,2.19,7.29,3,11,2.19,9.8.16,19.09-2.92,28.3a11.37,11.37,0,0,1-.5,1.38,22.3,22.3,0,0,0-1.94,4.45,6.14,6.14,0,0,1-.58,1.28c-1.18,1.29-1.37,3.07-2.19,4.55-11.49,17.06-27.61,28-46.54,35.26a175.32,175.32,0,0,1-51.43,11.4,390.29,390.29,0,0,1-44.35.56,274.85,274.85,0,0,1-51.19-7.67c-27.46-6.65-53.54-16.84-77.45-32.14-.43-.23-.86-.48-1.28-.73q-3.66-3-7.59-5.77a10.19,10.19,0,0,1-1.08-.78,15.44,15.44,0,0,0-4.64-3.45,6.12,6.12,0,0,1-1.57-1.3c-5-5.49-10.25-10.76-15.78-15.73a38.22,38.22,0,0,1-4.24-6.38,95.89,95.89,0,0,0-12.4-14.29,20.86,20.86,0,0,0-2.85-.05,52.21,52.21,0,0,0-8.89,1.85l-1.7.2c-14.85,2.85-29.7,5.71-44.68,7.73-14.65,2-29.31,3.79-44,5.33-13.2,1.38-26.44,2.39-39.64,3.91-9.21,1.05-18.53,1.84-27.79,2.16-22.44.77-44.85,2.34-67.33,2.31-12.8,0-25.59,1.72-38.41.44a101.78,101.78,0,0,0-14-.53c-16,.64-32-.6-47.9-1.23-19.9-.77-39.78-2.35-59.63-4.06-9.25-.8-18.58-1.08-27.78-2.56-2.18-.35-4.39-.23-5.67,2.1a6,6,0,0,0-.47,1.41c-1.17,11.3-8.78,17.94-17.48,23.51A311,311,0,0,1,1040.4,2810a310,310,0,0,1-34.64,3.73c-7.47.44-14.94,1.08-22.4.79-22.69-.89-45-4.08-66.33-12.24-6.4-2.45-12-6.5-18.37-8.93-18.48-9.48-29-24.93-32.74-45-2.2-11.67.53-22.75,6.14-33.14,4.68-10.25,11.48-19,19.21-27.08,2.92-3.06,2.55-4.23-1.51-5.17a28.42,28.42,0,0,0-6.45-.35c-35.25,0-70.51-.4-105.74.24-9.88.17-19.91-.11-29.76,1.59-6.22,1.08-11.8-1-17.14-3.9a6.33,6.33,0,0,1-1.52-.69c-10.31-6.69-19.67-14.4-25.52-25.46-10-18.93-13.21-38.37-2.71-58.22,4.85-9.17,12.58-15.42,22.37-18.87a57.55,57.55,0,0,0,9.12-4c27-15.21,56-25.45,85.37-34.68,4.92-1.55,9.85-3.12,14.67-4.95,6-2.26,6.91-4,4.69-9.78-4.47-11.64-8.3-23.5-11.95-35.42-4.24-13.83-7.65-27.87-11.25-41.87a434.62,434.62,0,0,1-9.69-50.89c-2-14.78-5.52-29.45-4.93-44.52a24.72,24.72,0,0,0-.87-5.41c-2.37-28.69-4-57.41-3.08-86.19.43-14.1,2.21-28.18,2.5-42.23.29-14.37,3.15-28.39,3.64-42.69.36-10.57,2.39-21.12,4.13-31.59,2.89-17.36,5.86-34.71,9.62-51.91,6.19-28.27,13.22-56.32,21.44-84.08,5.81-19.63,12.84-38.83,20.24-57.9,2-5.25,4.82-10.21,6.7-15.55.68-1.92,1.35-3.77.69-5.81-.21-.48-.41-1-.6-1.46-4.92-12.14-10.84-23.85-15.65-36.05-10.21-25.86-18.73-52.18-23.55-79.61a11.77,11.77,0,0,0-2.14-5.81c-13.8,13.86-24.64,29.89-36.53,45a13.21,13.21,0,0,1-.88,1.2,28.67,28.67,0,0,1-2.44,2.49c-4.3,3.95-7.89,3.86-12.09-.36-4.44-4.46-6.81-10.13-9.22-15.78-.21-.45-.39-.91-.57-1.38-.64-1.65-1.7-3.13-2-4.92-4.69-12-4.82-24.75-6.31-37.26-1-8.76-2.46-17.56-2-26.36.87-16.6,1.61-33.23,4.82-49.63,2.45-12.54,4.45-25.16,6.79-37.73,1.35-7.27.21-13.43-6.94-18.6-8.42-6.09-15.12-14.42-21-23.16-1.39-2.06-2.61-4.27-4.48-6-1.32-2-2.64-4-4-6.07-1.79-3.46-4-6.7-5.89-10.08h0c-8.67-17.94-17.67-35.73-24.57-54.47-12.46-33.8-21.8-68.5-29.4-103.67-5.09-23.6-9.42-47.33-12.69-71.26q-4-29.09-6.92-58.27c-2.86-28.28-4.23-56.61-5-85-.69-26.29-.31-52.52,1-78.78,1.11-22.4,3-44.71,6.08-66.91,4.53-32.34,11.42-64.1,23.51-94.56A152.42,152.42,0,0,1,685,977.72c1.44-2.18,3.11-3.71-1.46-4.84-7.19-1.78-8.89-11-3.67-17.14,3.71-4.35,8.79-5.89,14.14-6.63,14.53-2,29-.86,43.18,2.22,79.43,17.22,156.21,41.93,227.79,81.14,15.63,8.56,30.73,18,44.55,29.37,4.9,4,9.66,8.19,13.21,13.52,1.63,3.26,3.65,3.69,6.73,1.51,5-3.54,10.84-6,14.07-11.62,4.54-2.94,9.06-5.91,14.16-7.83,3.59-.06,6.61-1.74,9.68-3.33,39-20.15,79.24-37,121.71-48.26A736.54,736.54,0,0,1,1261.23,991c38.28-6.1,76.81-7,115.37-5.7a446.19,446.19,0,0,1,53,5.34c22.51,3.46,44.83,7.64,66.91,13.25a567.36,567.36,0,0,1,80.67,27.16c11,4.65,22,9.35,32.84,14.53,4.31,2.07,7.84,5.62,12.65,6.78,3.53.47,6.08,3.31,9.71,4.13,3.72-27.5,20.28-47,40.27-64,37.44-31.87,81-52.29,127.79-66,42.23-12.34,85.27-18.22,129.34-14.21a185,185,0,0,1,22.21,3.42c3.87.83,7.59,2,11.72.62,2.9-1,5.45,1,7.66,2.8,3.35,2.81,6.81,5,11.34,5.86,5,.91,5.91,3.82,3.13,8.32-.66,1.08-1.27,2-.29,3.1,14.52,23.46,22.94,49.3,29.49,75.84,6.94,28.14,10.7,56.76,13.08,85.61,2,24.55,3.14,49.12,2.88,73.74-.22,21.93-1.3,43.83-2.79,65.74a975.51,975.51,0,0,1-12.12,98.81c-8.7,50.87-21.42,100.68-40.27,148.78-8.61,22-18.56,43.37-31.29,63.34h0a89.64,89.64,0,0,0-6.48,13.33A9.12,9.12,0,0,0,1937,1566c.53,11.32-.91,22.59-1,33.89-.15,15.31-2,30.46-3.71,45.64-1.75,15.7-4.51,31.22-7.41,46.73-.76,4.08-2,8.07-2.83,12.13-1.7,8-.76,15.84.08,23.8,1.11,10.55,2.41,21.08,3,31.71.5,8.64,1.12,17.27.78,25.9-1.12,28.57-2.89,57.08-9.29,85.07-1,4.54-2.28,9.1-5.23,12.84-4.17,5.29-9.21,4.68-13-.78-9.52-13.8-19.44-27.34-30.63-39.85-5-5.58-9-12-14.79-16.87-1.22-1-2.25-3.07-4-2.52s-1.7,2.83-1.77,4.36c-.18,4.17-.74,8.29-1.16,12.43a13.29,13.29,0,0,0,2.47,9.34c6.08,8.85,8.93,19.25,13.07,29,5.19,12.23,9.88,24.68,14.36,37.19,6.82,19.08,13,38.36,18.18,58,6.1,23.3,12.52,46.55,16.91,70.25s9,47.31,11.78,71.28c1.83,15.64,4.32,31.24,6.57,46.84.55,3.79,2.34,6.86,4.06,10.07-.49,14.64-2.67,29.29.14,43.92,3.5,15.79,3.37,31.87,4,47.91.78,19.11.21,38.21.45,57.32.07,5.15-.55,10.27-.6,15.43,0,3.31,1,5.37,4,6.42h0c1.63.76,3.47,1,5,2h0c2.42.81,4.69,2,7,2.94h0c26.32,10.33,53.72,14.39,81.86,13.43,39.79-1.35,77.8-10.83,114.52-25.87a478.81,478.81,0,0,0,87.29-46.62,533.37,533.37,0,0,0,50.58-38.55c13.44-11.65,26.81-23.39,39-36.29,28-29.57,53.44-61.19,74.21-96.41a422.45,422.45,0,0,0,40.51-91.29c1.69-5.52,3.36-6-4.16-9.52a133.56,133.56,0,0,1-30.39-19.68,124.75,124.75,0,0,1-26-30.48c-6-10-10.85-20.65-11.26-32.66a36.28,36.28,0,0,1,1.94-13.71c1.47-4.06,1-4.46-3.12-4.89C2356.16,1914.5,2343.91,1912.78,2332.57,1907.24Z"/><path d="M1536.57,2269.31c-13.46-30.77-32.59-57.3-59.86-77.23-47.43-34.64-106.87-36.41-156.45-4.77-37.17,23.72-61.39,57.92-77.77,98.18-2.63,6.46-4.58,13.2-6.84,19.81-.67.77-.56,1.93-1.29,2.66-8.33,8.4-8.67,19.61-10.92,30.24-1.69,8-3.25,16-4.46,24-2.57,17.05-6,33.94-8.64,51-2.28,14.71-4.8,29.42-7.76,44-2.77,13.68-5,27.44-7.1,41.25-2,13.58-4.83,27.05-7.25,40.57-2.23,12.42-4.1,24.91-5.87,37.42-2,13.92-5.45,27.6-8.35,41.37-3.22,15.28-5.75,30.69-8.21,46.11-2.22,13.88-5,27.66-6.44,41.69-.53,5.14-2.94,10.17-4.85,15a23.49,23.49,0,0,0-1.6,12.09c.6,4.55-.73,8.25-4.46,10.94-8.47,6.11-16.11,13.44-25.87,17.67-5.26,2-9.88,5.35-15.12,7.45a5.38,5.38,0,0,1-1.54.4c-13.32,4.59-26.3,10.17-40.06,13.43-.65.15-1.27.44-1.92.57-8.13,1.7-12.62,3.66-13-9.22-.31-10.23-1-20.41,2.68-30,3.3-8.64,6.92-17.3,15.16-23,4-2.71,4.68-6.75,3.1-11.09a10,10,0,0,0-9.43-6.17,15.11,15.11,0,0,0-10.92,4.16,68.33,68.33,0,0,0-20,36,112.94,112.94,0,0,0-2.49,17.73,39.51,39.51,0,0,0,4.26,20.24c2.23,4.39.68,7.28-4.41,8.19-13.63,2.44-27.41,2.78-41.22,2.46a158.33,158.33,0,0,1-22.79-1.94,58.84,58.84,0,0,1-7.76-1.87c-2.83-.89-4-2.76-2.28-5.28,3.28-4.87,3.12-10.35,3.4-15.79.24-4.49-.15-9,.49-13.47,1.91-13.29,9.51-23.5,17.89-33.27,4.36-5.08,3.09-12.92-2.79-14.82a14.24,14.24,0,0,0-9.34.06,23.18,23.18,0,0,0-10.31,7.51,92.65,92.65,0,0,0-17.69,37c-1.36,5.9.61,11.27,2.07,16.63a124.19,124.19,0,0,0,3.85,12.31c1.56,4-.17,6-4.44,5.53-4.86-.54-9.39-2.36-13.73-4.33-8.62-3.92-17.08-8.12-24.35-14.47-12-10.48-15.68-24-10.6-39.23,4.11-12.29,12.63-21.22,21.56-30,10.44-10.33,23.67-16.47,35.7-24.4,5.55-3.66,10.91-7.59,16.19-11.62a13.59,13.59,0,0,0,5.4-11.3c-.22-19.32,1.76-38.68-.17-57.92-1-9.7-2-19.45-3.05-29.16-1.4-13.39-3.23-26.72-4.92-40.06a388.2,388.2,0,0,0-7.87-43.06c-2.76-11.31-5.55-22.6-9.13-33.67-2.8-8.69-6.41-17.08-9.56-25.62-5.72-15.5-13.52-30-20.58-44.84a69.35,69.35,0,0,1-3.67-9.82c-.24-.8-.41-1.62-.7-2.4-1.62-4.32-6-7.8-9.1-7.34-3.42.51-6.21,4.6-6.21,9.7,0,6.44,2.13,12.49,5,18,8.9,17.18,14.74,35.57,21.62,53.54,4.09,10.67,6.19,22,9,33.13,3.18,12.4,5,25,7.18,37.64,3.75,22.14,4.74,44.58,7.7,66.8s3.06,44.78,1.39,67.24a43.25,43.25,0,0,1-.76,5.43c-.56,2.77-1.89,5-4.85,5.77-2.79.72-4.8-.63-6.51-2.67-6.52-7.79-12.84-15.75-19.52-23.39-16.71-19.11-27.23-42-39.87-63.68-7-12-11.54-25-17-37.6-4.42-10.12-7.45-20.94-11.2-31.42-6-16.7-10.45-33.85-14.49-51.08-2.19-9.32-4-18.79-5.47-28.31-1.82-11.62-3-23.33-5.21-34.9-1.52-8-1.73-16.2-3-24.24-3.75-24.11-3-48.47-3.63-72.7-.59-22.06-.25-44.21,2.13-66.32,2-18.65,3.25-37.43,5.68-56,2.23-17.07,4-34.2,7.56-51.13,2.89-13.77,5.86-27.53,9.36-41.15q7.49-29.15,16.31-58c3.26-10.6,6.37-21.25,10.06-31.7,2.31-6.56,4.34-13.25,7.39-19.53,2.22-4.58,5-4.86,7.46-.33,8.35,15.65,19,29.69,29.75,43.68,5.75,7.51,12,14.68,20,20,8.36,5.6,15.36,3.17,18.52-6.35,1.89-5.66,1.81-11.45,1.9-17.27,0-1.75-.61-3.89,1.35-5,2.13-1.21,3.74.3,5.38,1.47,11.5,8.24,22.79,16.8,34.89,24.11,24.5,14.82,49.41,28.82,76.15,39.42,15.89,6.3,31.86,12.41,48,17.87a538.18,538.18,0,0,0,63.11,16.71c13,2.7,26.16,4.45,39.19,6.86,14.08,2.6,28.42,2.53,42.41,5,16,2.85,32.1,3.69,48.17,3.83,20,.19,39.92,1.46,59.87.41,18.26-1,36.53-1.93,54.69-4.05,11.86-1.38,23.63-3.65,35.48-5.08,17.5-2.11,34.76-5.5,52-9,25.86-5.26,51.42-11.63,76.41-20.46a751.86,751.86,0,0,0,72.55-29.41c12-5.71,23.45-12.56,35-19.2q8.21-4.74,16.55-9.25c5.3-2.87,7.81-1.19,7.76,4.75-.05,5.66-.14,11.31.31,17a20.29,20.29,0,0,0,3.06,8.84c2.53,4.26,10.68,4.8,15.72,1.51,4.83-3.16,8.45-7.54,12.08-11.85,14.66-17.42,29.34-34.82,41-54.57,10.11-17.17,19.75-34.54,28.3-52.59,6.71-14.16,11.18-29.1,17.4-43.39.94-2.15,1.47-4.75,4.38-4.78,2.67,0,3.32,2.24,4,4.39,5.51,17.19,12.06,34,17,51.43q7.6,27,14.3,54.29c2,8.19,3.39,16.65,5.66,24.77,4.12,14.77,6.48,29.88,9.91,44.78,3.62,15.67,6.54,31.5,9.14,47.38,2.74,16.71,4.12,33.6,6.25,50.39,2,16,2.8,32.09,5.22,48,.82,5.42.21,11,.64,16.45,2.21,28.2,1.75,56.52,3.54,84.75a193.79,193.79,0,0,1-.91,30.36c-1.09,11.62-.18,23.31-1.07,34.92-.87,11.42-1,22.91-3.15,34.22-.52,2.81-.28,5.65-.53,8.47-1.22,14.07-3.89,27.95-5.59,41.95-2.55,21-8,41.34-13.71,61.57-5.87,20.62-12.72,41-22.8,60a175.41,175.41,0,0,1-29.53,40.69c-1.8,1.83-3.64,4.56-6.62,3.68-3.22-1-3.29-4.46-3.78-7.1-3.37-18.11-3-36.49-1.81-54.65a375.58,375.58,0,0,1,4.87-41c1.68-9.45,2.59-19.1,4.84-28.43,6-25,12.29-49.95,20.38-74.44,7.61-23,16.52-45.5,26.33-67.65a14.91,14.91,0,0,0,1.71-5.7c.05-3.16.56-6.51-3.23-8.11-3.32-1.41-7.86,0-10.15,3.36a253.32,253.32,0,0,0-14.21,24,298.82,298.82,0,0,0-17.75,42.21c-7.76,22.79-14.55,45.89-20,69.34-3.33,14.22-4.82,28.76-7.15,43.15-4.35,26.85-5.44,53.9-5,81a203.23,203.23,0,0,0,4,37.63c1.79,8.71,10.86,17,19.6,19,9.6,2.16,18.38,6.68,27.31,10.72,17.75,8,32.65,19.79,45.6,34.19,14.1,15.67,18.42,37.26,4.93,55.12-5.07,6.72-12.27,10.71-19.08,15.09-11.55,7.43-24.34,12.17-37.63,15.51-2.27.57-4.36,1.54-6.6,2.12-6.7,0-13.12,1.92-19.73,2.65a205.52,205.52,0,0,1-50.73-.3c-2.83-.39-5.65-.15-8.48-.27-3.15-.14-4.53-1.62-4-4.82,4.47-28.52-3-54.18-18.7-77.83-5.2-7.86-11-9.26-17.45-4.62-2.71,1.94-3.66,4.05-1.11,7s5.07,5.74,7.62,8.59c6.13,6.84,7.12,15.62,8.89,24,2,9.53,1.09,19.24.48,28.87a36.66,36.66,0,0,0,.12,5.45c.57,6.32-2.09,8.73-8.29,7.07-5.62-1.5-11.24-3-16.8-4.73-20.46-6.24-39.92-14.78-57.66-26.75-10.23-6.9-18.85-15.79-27-25.1a7.56,7.56,0,0,1-1.76-5.53c.19-7.16-.33-14-3-21-2.47-6.42-2.81-13.62-4.26-20.45-2.75-12.94-5-26-7.38-39-3.18-17.33-6.33-34.67-10.32-51.85-3.49-15-5.45-30.38-9.38-45.26-2.51-9.47-5.11-18.94-6.58-28.56-1.21-7.88-3.05-15.58-4.56-23.37q-3-15.6-6.14-31.2c-1.74-8.76-3.68-17.5-5.09-26.36-1.77-11.13-4.15-22.19-6.69-33.21-3.16-13.75-5.45-27.7-8.7-41.42-2.48-10.47-5.06-21-6.72-31.52-1.73-11-5.84-21.37-7-32.52C1544.27,2285.45,1540.22,2277.32,1536.57,2269.31Z" style="fill:#fe6d00"/><path d="M1245.66,2308.32c11.21-28.45,25.82-54.85,47.11-77.11,21.53-22.52,46.58-39.52,77.56-45.68,41.88-8.34,77.5,5.15,108.17,33.5,17.13,15.83,29.39,35.19,39.13,56.24,1.65,4,3.51,7.93,5,12h0c2.21,5.86,3.73,12,7.64,17.14a7,7,0,0,1,1.3,3.21c3.3,21.83,7.93,43.42,11.67,65.16,2.78,16.18,5.69,32.36,9.26,48.34,3.73,16.66,6.29,33.53,9.77,50.23,3.76,18,6.75,36.21,9.79,54.38,2.47,14.74,4.81,29.51,8,44.1,3.81,17.19,5.85,34.71,10,51.85,4.88,20.17,8,40.72,11.58,61.16.61,3.43,1.37,6.84,1.94,10.28,1,5.78-.89,8.33-6.75,9.42-11.11,2.06-22.36,3.22-33.52,5.09-20.13,3.37-40.45,5.18-60.75,7.21-17.53,1.76-35.09,2.86-52.66,4.08-43.71,3.06-87.45,3.91-131.22,3.22-27.26-.43-54.53-1.11-81.74-3.29-15.24-1.22-30.5-2.11-45.71-3.62-7.73-.77-9.74-3.63-8.16-11.34,3.75-18.38,6.82-36.88,9.83-55.39,2.74-16.87,5.48-33.75,7.84-50.66,1.62-11.67,3.48-23.33,5.13-35,1.53-10.81,3.67-21.58,5.47-32.37,2.18-13.1,4.14-26.22,6.36-39.31,4.11-24.23,8.63-48.4,12.21-72.74,1.8-12.27,4.66-24.45,6.46-36.76,1.27-8.67,2.43-17.41,3.61-26.09,1.35-10,2.41-20.08,3.92-30.08C1244.8,2319.82,1243.2,2313.86,1245.66,2308.32Z" style="fill:#f8e068"/><path d="M742.69,1616.34c-18.47-28.56-29.68-60.3-39.76-92.43-18.06-57.57-28.46-116.73-35.33-176.56a1102.24,1102.24,0,0,1-6.74-165.08c1.84-51.86,7-103.33,20.83-153.59a282.61,282.61,0,0,1,17.36-46.26c2-4.11,3.86-4.36,7.65-2.64a142.92,142.92,0,0,1,37.65,25.2Q831,1085,860.67,1199.39c1.89,6.64,2.24,13.54,3.38,20.31,1.28,7.56-1.08,14.2-5.68,20.44-7.58,10.29-15,20.72-21.2,31.94-8.69,15.83-17.95,31.39-24.45,48.34-8.63,24.45-14.57,49.71-22.46,74.39-9,28.15-19.33,55.87-26.56,84.58-6.13,17.27-6,35.54-8.58,53.38-1.31,9-1.47,17.85.8,26.7a17.28,17.28,0,0,1,.2,5c-.4,11.45-.73,22.87-.12,34.35.5,9.62,1,19.24,1.78,28.84.15,1.85.44,4-1.51,4.87-2.12.89-3.27-1.25-4.32-2.61A141,141,0,0,1,742.69,1616.34Z" style="fill:#fe6d00"/><path d="M1786.53,1171.43c-4.69-12.67-3.87-25.57-1.27-38.43,4.88-24.13,16.31-45.37,29.86-65.52,31.86-47.38,72-85.88,122.63-112.88a236.23,236.23,0,0,1,23.6-10.87c6.25-2.49,7.63-2,10.72,3.9,12.47,23.65,20,49,25.47,75,8.45,39.89,12.38,80.27,13.23,121,2,92.68-8.58,183.85-33.2,273.28-9.22,33.47-20.75,66.11-36.43,97.17-1.12,2.22-2.49,4.32-3.7,6.51a11.32,11.32,0,0,0-.68,1.73c-1.12-.77-1.6-.94-1.61-1.12-.15-6.31-3.05-11.51-5.71-17.08-3.28-6.88-2.49-15-3.77-22.52-4-23.29-7.47-46.65-10.26-70.11-5.25-17.51-11.2-34.79-17.42-52-1.31-3.6-2.76-7.14-4.3-10.65-8.17-18.56-16.57-37-26-55-5-9.59-11.14-18.53-16.58-27.88a412.81,412.81,0,0,0-30-44.74c-8.94-11.6-17.28-23.71-27.47-34.28C1789.38,1182.46,1788.42,1176.84,1786.53,1171.43Z" style="fill:#fe6d00"/><path d="M1936.39,2379.17c.69-5.28,1.67-10.53,2-15.83.23-3.88,1-4.46,4.53-2.54,21.89,12,45.62,17.4,70.27,19.48,31.77,2.68,62.84-1.63,93.51-9.48,62.84-16.1,118.62-46.41,169.8-85.54,67.46-51.57,121.51-114.53,159.75-190.64a367,367,0,0,0,25.16-65.71c.92-3.27,8.59-5.51,11.07-3.25,1.22,1.12.37,2.52.24,3.76a203.52,203.52,0,0,1-19.12,67.47c-10.51,21.94-21.41,43.76-34,64.54-10.85,17.92-23.81,34.55-35.64,51.88-15.17,22.24-33.2,42.1-51.2,62-18.33,20.26-36.61,40.63-56.44,59.42-25.72,24.38-49.24,51.28-78.57,71.63-33.14,23-67.48,44.07-102.46,64.19-23.14,13.31-47.93,22.41-72.7,31.75-4.75,2.41-9.82,2.59-15,2.5-7.36-.11-10.16,2-12,9.25-.78,3.18-2.5,3.57-5.12,2.78-14.6-4.38-28.63-10.35-43-15.34-6.58-2.28-13.22-4.37-19.68-7-6.79-2.76-7.43-4.6-6.24-11.71,1.8-10.76,3.88-21.46,5.42-32.29,1.88-13.27,3.53-26.58,5.26-39.87,1-7.88,1.47-15.85,2.24-23.77A33.63,33.63,0,0,1,1936.39,2379.17Z" style="fill:#fe6d00"/><path d="M2444.13,1826.13c2.89-6.65,5.5-11.82,6.4-17.59,3-19.18-2.81-36.2-12.63-52.26-5.59-9.13-11.79-17.78-19.92-24.87-1.45-1.26-2.53-2.59-2.18-4.71,2.55-15.36-1.74-29.34-8.59-42.83-2.87-5.67-5.33-11.46-4.94-18.09a16.16,16.16,0,0,1,2.78-8.86c3.21-4.54,2.9-8.09-.41-11.19-3.16-3-8-3.07-11.84.12-2.43,2-4.44,4.5-6.75,6.66-1.06,1-2.36,2.32-3.92,1.55s-.75-2.41-.59-3.63c2.39-18.52-.89-36.17-8.24-53.17-1.32-3-.75-3.87,2.58-3.36,4.77.72,9.59,1.14,14.4,1.59,16.91,1.6,28,10.83,35.12,25.92,8,17,10.64,34.92,10.87,53.42a78.82,78.82,0,0,0,.31,8c.57,5.07,3.52,7.85,8,7.83s7.62-2.87,7.87-7.93c.31-6.48.22-13,0-19.49a19,19,0,0,1,2.67-10.46c5.87-10.07,11.36-20.38,18.57-29.61,7.5-9.61,16.92-16.39,28.94-19.33,3.71-.91,5.11-.7,4,3.87-4.95,20.69-3.53,41.27,1.33,61.84,4.33,18.34,8.94,36.57,15.1,54.38a213.88,213.88,0,0,1,10.51,50.24c.35,3.66.09,8.52,5.52,9.4,4,.65,8.22-2.55,10.61-7.69,3-6.38,1.93-13.08,1.52-19.7-.17-2.64-.33-5.47-1.35-7.85-3.37-7.93,0-13,6.07-17.84,8.75-7,17.37-14.08,28.1-17.87,4.87-1.72,5.2-1.46,4.4,3.46a346.61,346.61,0,0,0-4.18,72.17c.45,9.64.34,19.32.14,29-.26,12.64-8.26,21-16.7,29-1.41,1.34-2.44,1-2.47-1,0-2.67,0-5.34.16-8,.19-3-.83-5.42-3.51-6.59a7.46,7.46,0,0,0-8,1.13c-3.44,2.78-4.88,6.66-5.71,10.82-2.78,14-.85,27.85,1.72,41.65,2.25,12.1,5.89,24,5.84,36.44-.07,17.63-4.39,33.69-20.07,44.39a284.56,284.56,0,0,0-25,19c-2.59,2.22-4.09,1.87-6.14-.41-2.66-3-6.47-5.28-8.15-8.69-2-4,2.66-7,4-10.62,6.67-18.48,8.52-36.58.2-55.37-6.6-14.9-12-30.35-18.31-45.41-3-7.06-5.39-14.32-6.14-22.07a19.84,19.84,0,0,1,1-9.3c1.47-3.84,1.45-7.47-1.86-10.54s-7.27-3.21-11.15-1.53C2458,1822.8,2451.24,1822.62,2444.13,1826.13Z" style="fill:#e74007"/><path d="M2413.54,1744.3a11.7,11.7,0,0,1,2.12,1.6c11.56,16.36,20.21,33.72,18.94,54.57a34.15,34.15,0,0,1-6.35,18.13c-2.42,3.39-5,6.69-7.42,10.05a36.5,36.5,0,0,0-5.91,10.94c-1.37,4.57-1.49,9.08,2.79,12.25s8.6,2.23,12.52-.63c6.77-4.91,14.13-8.81,21.33-13,3-1.74,4.91-2.47,5,2.5.12,11.19,3.84,21.62,8.15,31.75,6.72,15.79,12.72,31.86,19,47.81a40,40,0,0,1,2.27,22,222.55,222.55,0,0,0-3.59,32.25c-.08,3.16.47,5.62,3.4,8.09,4,3.37,6.79,8.15,10.07,12.35a3,3,0,0,1-.11,4.1c-1.67,2.08-3.27,4.21-4.91,6.3a3.28,3.28,0,0,1-2.42,1.51c-43,3.88-71.43-18.31-93.06-52.35a40.82,40.82,0,0,1-5.82-18.44c-.6-6.56,1-11.88,6.8-16,6.49-4.63,6.81-11.5,1.59-16.09a9.51,9.51,0,0,0-9.83-1.77,16,16,0,0,1-8.34.25c-6.37-1.25-12.78-2.32-19.17-3.47-47.88-8.6-64.34-51.57-59.58-85.72,2.53-18.15,7.95-35.78,9.95-54,1.51-13.89,3.47-27.81.7-41.78-.48-2.44-1.31-4.82-2-7.22-.22-.8-.59-1.71.18-2.32s1.57,0,2.29.33c6,3,11.65,6.66,15.72,12.08,6.29,8.4,12.34,17,14.76,27.52,1,4.34,3.72,7,8.57,6.68,4.16-.29,7.43-3.69,7.84-8.31a20.35,20.35,0,0,0-1.93-9.71,100.72,100.72,0,0,0-10.47-18.72c-1.34-1.92-2.13-3.71-1-6,7.95-16.07,18-30.37,33.45-40.18,4.87-3.1,5-3,6.06,2.91,1.34,7.13,4.33,13.65,7.51,20.07,5.26,10.65,6.62,21.68,5.26,33.5a175.13,175.13,0,0,0,1.37,46.29c.31,2,.2,4.67,3.13,5s4.58-1.66,5.79-3.94c2.15-4,2.78-8.51,3.27-13C2412.13,1756.64,2412.81,1750.76,2413.54,1744.3Z" style="fill:#fed000"/><path d="M1647.48,1053.32a50.59,50.59,0,0,1,7-16.28c8.8-14.2,20.52-25.75,33.66-35.88,30.07-23.17,64.13-38.55,99.94-50.26,38.84-12.69,78.5-20.92,119.62-20.4a207.42,207.42,0,0,1,25.88,2c1.46.21,3,.11,4.12,1.19-73.13,37.9-129.56,91.83-162.11,168.73-5.38,14.24-9.74,28.71-11.17,44-.5,5.34-2.13,5.87-6.38,2.36-4.49-3.7-8.85-7.6-13-11.68-13.75-13.66-29.21-25.19-44.62-36.79-14.49-10.9-29.27-21.4-45.09-30.35-1.59-.9-3.29-1.58-4.87-2.5-3.55-2.08-5.45-4.79-3.94-9h0C1647.81,1056.87,1646.51,1054.88,1647.48,1053.32Z" style="fill:#f8e068"/><path d="M871.58,1180.44c-20-63.1-53.73-118-98.73-166.2-15.89-17-33.66-31.79-54.25-42.94a2.79,2.79,0,0,1-1.35-2c2.15.21,4.31.34,6.44.64,31.62,4.48,62.33,12.78,92.68,22.45,55.48,17.67,109.53,39.06,162.59,63a204.34,204.34,0,0,1,22.46,12c5.54,3.39,11,6.94,15.22,12,1.36,2.26,0,3.57-1.62,4.9a37.33,37.33,0,0,1-9.35,5.12h0c-11.9,11.24-25.81,19.94-38.32,30.37-7.27,6.06-14.77,11.91-21.49,18.62-9.41,9.4-19.39,18.23-28.5,27.9-10.37,11-20.64,22.15-30.11,34a32.55,32.55,0,0,1-5,5.53c-1.65,1.31-3.25,1.73-4.61-.41h0A207.49,207.49,0,0,0,871.58,1180.44Z" style="fill:#f8e068"/><path d="M2029.66,2522.13c1.52-1.17,2.68-2.67,4.71-3.32,45.38-14.58,85.12-40.08,125.19-64.91,28.77-17.83,57.36-35.91,81.93-59.52,1.8-1.73,3.7-3.36,5.49-5.1,47.22-45.86,94.13-92.08,135.49-143.4a628.31,628.31,0,0,0,89.07-149.29,191.61,191.61,0,0,0,14.63-62.5c.5-7.5,2-14.19,7.92-19.58a153.5,153.5,0,0,1-.15,42.92c-5.47,37.85-18.84,73.15-35.35,107.33-31.16,64.47-71.72,122.73-118.17,177-44,51.45-92.52,98.19-147.6,137.81-29,20.88-59.54,39.22-93.26,51.71-10.83,4.16-22.26,6.54-33,11h0c-4.59,2.73-8.23,1.62-11.82-2.2-6.41-6.81-15.76-7.33-23.88-10.48-2-.78-4.15-1.25-6.11-2.19-1.38-.65-2.77-1.48-2.6-3.27s2.06-1.34,3.14-1.93A5.12,5.12,0,0,1,2029.66,2522.13Z" style="fill:#f8e068"/><path d="M1121.59,2761c8.37-4.41,15.5-10.59,23.13-16.06,4.85-3.49,7.86-7.13,6.94-13.57-1.16-8,3.71-14.83,5.66-22.23a24.38,24.38,0,0,0,1.24-5.29c.52-12.91,3.59-25.43,5.71-38.1,1.83-10.95,3.32-22,5.43-32.86,1.62-8.4,3.67-16.8,5.12-25.18,1.48-8.54,4.39-16.7,5.31-25.47,1.15-11,2.86-22,4.94-32.9,1.87-9.75,3.06-19.67,5.62-29.23,1.44-5.41,1.06-10.86,2.24-16.07,1.93-8.57,2.52-17.3,4.22-25.88,2.3-11.7,3.87-23.57,6.62-35.16,2.28-9.61,3.51-19.42,5.2-29.09s2.9-19.33,4.8-28.87c3-15.25,4-30.85,8.33-45.86,1.12-3.95,1.19-8.09,2-12.11,1.67-8.69,5.07-15.91,11.58-21.77a5.69,5.69,0,0,1-1.41,4.67c-7.66,8.34-7.32,19.26-9.59,29.3-1.72,7.6-3.1,15.27-4.34,23-3.24,20.14-7.4,40.15-10.39,60.32-3.54,24-8.36,47.7-12.46,71.55-5,28.94-9.7,57.92-14.88,86.82-5.32,29.71-11.18,59.32-16.58,89-2.11,11.59-3.34,23.33-5.51,34.9a85.64,85.64,0,0,1-5.27,17c-1.51,3.61-2.14,6.88-1,10.57,1.31,4.46.13,8.13-3.43,11.18-11.69,10-24.74,17.89-38.57,24.54a4.44,4.44,0,0,1-1.48.15l-.27-.64C1113.46,2764.3,1117.93,2763.33,1121.59,2761Z" style="fill:#803700"/><path d="M729.72,2679.2c-5.4-.68-9.33-4.17-12.9-7.64-4.82-4.69-9.74-9.45-12.9-15.57-4.1-8.9-8.37-17.74-9.69-27.6-2.42-18,5.52-41,23.47-49,18.56-8.32,36.32-18.26,55.49-25.43,18.33-6.86,36.58-13.76,55.46-19a21.43,21.43,0,0,0,3.08-1.59c6.59-3.1,6.9-4.31,4.49-11.12-6.47-18.28-13.38-36.43-17.83-55.37-3.86-16.47-8.87-32.69-11.12-49.49-3.16-23.67-8.24-47.12-8.57-71.14.36-.45.72-.45,1.09,0,1.63,6.19.74,12.57,1.59,18.86,3.25,24.37,6.08,48.84,11.64,72.8,5.74,24.76,12.11,49.39,21.06,73.26,1.74,4.65,3.07,9.46,4.83,14.12s0,7.19-4.3,8.93c-9.58,3.9-19.62,6.37-29.39,9.66-18.12,6.09-35.72,13.48-53.38,20.74-10.64,4.37-20,11-30.82,15.18-20.32,7.87-27.75,31.5-24.65,49.74,3.51,20.68,13.72,37.23,32.11,48.16C729,2678,729.31,2678.7,729.72,2679.2Z" style="fill:#676767"/><path d="M799.79,2346.27H798.7c0-1-.07-1.89-.11-2.84-1-1.94.27-4.21-.87-6.14,0-1.28-.09-2.56-.14-3.84-1.12-2.63.39-5.56-.9-8.17l-.07-2.88c-1.16-4,.31-8.12-.85-12.09l-.21-20.81a356.4,356.4,0,0,1,0-36.4l.15-9.83c1.27-3.29-.3-6.82.88-10.12l.06-1.86c1.3-2.28-.16-4.9.9-7.2l.21-8.84c1.18-4.31-.35-8.79.83-13.11,1.72-15.49,3.3-31,5.2-46.49a804.2,804.2,0,0,1,16-86.57c6.64-28.09,14.1-56,23.23-83.39,5.13-15.37,9.87-31,17.89-45.34a16.52,16.52,0,0,0,1.07-3.8c2.92-2.87,2.39-6.64,2.66-10.21,2.27,3,1.16,6.19-.1,9a503,503,0,0,0-19,48.7c-5.32,15.75-10.08,31.71-14.43,47.76q-8.24,30.31-14.73,61.08c-5.5,26-10.31,52.21-13.15,78.62-1.8,16.82-3.6,33.7-4.48,50.66-1.26,24.11-2.66,48.21-1.9,72.36.45,14.29.93,28.59,2.67,42.81C799.86,2340.25,799.7,2343.28,799.79,2346.27Z" style="fill:#606060"/><path d="M1646.56,1058.38c-.46,4.73,2.31,7,6.16,9,14.7,7.49,28.08,17,41.33,26.77,11.36,8.38,22.87,16.58,33.61,25.74,9.86,8.42,19.34,17.28,29,26,1.82,1.65,3.77,4.5,5.92,3.88s1.35-4.13,1.58-6.3c1.34-12.69,4.93-24.79,9.17-36.74.54-1.52.65-3.31,2.29-4.26.38,1.78-.62,3.24-1.17,4.77a157.68,157.68,0,0,0-9.73,44.24c-.08,1.25.32,2.9-1.11,3.6s-2.4-.72-3.31-1.6a551.83,551.83,0,0,0-53.9-46.73c-15.41-11.6-31-22.87-47.61-32.8-2.84-1.71-5.66-3.48-8.56-5.1C1645.87,1066.37,1644.57,1063,1646.56,1058.38Z" style="fill:#8f7733"/><path d="M812.72,1320.42c1.8-10,6.75-18.65,11.33-27.43,4.68-9,9.6-17.83,15-26.4,6.85-10.95,14-21.75,21.51-32.24,3.65-5.09,3.19-10.3,2.64-15.73-.66-6.43-1.64-12.82-2.48-19.23,3.42,10.34,5,21,3.58,31.75-.86,6.42-5.61,11.5-9.31,16.8-13.69,19.62-25.38,40.4-36,61.82A59.58,59.58,0,0,1,812.72,1320.42Z" style="fill:#813700"/><path d="M1901.51,2670.3a51.67,51.67,0,0,1,17,17Z" style="fill:#585858"/><path d="M871.58,1180.44a73.32,73.32,0,0,1,6,25A230.6,230.6,0,0,1,871.58,1180.44Z" style="fill:#998138"/><path d="M1886.43,2659.34c6.46,1.69,10.9,6.17,15.1,11A142.53,142.53,0,0,1,1886.43,2659.34Z" style="fill:#585858"/><path d="M1522.62,2287.28a29.61,29.61,0,0,1-5-12A25.19,25.19,0,0,1,1522.62,2287.28Z" style="fill:#7c7035"/><path d="M1925.5,2697.28c2.75,2,3.85,4.75,4,8A22.16,22.16,0,0,1,1925.5,2697.28Z" style="fill:#585858"/><path d="M1921.47,2691.31a7,7,0,0,1,4,6A11.34,11.34,0,0,1,1921.47,2691.31Z" style="fill:#585858"/><path d="M1104.67,2770.4l2-2.18a1.16,1.16,0,0,1,.78,0,3,3,0,0,1,3.18,0l.08.12A12.49,12.49,0,0,1,1104.67,2770.4Z" style="fill:#803700"/><path d="M1918.48,2687.3c1.75.79,3,1.92,3,4A5.37,5.37,0,0,1,1918.48,2687.3Z" style="fill:#585858"/><path d="M1647.48,1053.32c.32,1.8.4,3.56-.92,5.07A5.71,5.71,0,0,1,1647.48,1053.32Z" style="fill:#8f7733"/><path d="M1929.53,2705.27c1.9.82,2.16,2.38,1.9,4.18A6.72,6.72,0,0,1,1929.53,2705.27Z" style="fill:#585858"/><path d="M1931.56,2752.25c.19,1.75-.23,3.21-2,4A5.66,5.66,0,0,1,1931.56,2752.25Z" style="fill:#585858"/><path d="M1929.4,2759.19l-2,2a5.46,5.46,0,0,1,2-4.17Z" style="fill:#585858"/><path d="M795.57,2253.11q0,18.19,0,36.39c-1.67-8.5-.55-17.1-.72-25.65C794.76,2260.29,794,2256.59,795.57,2253.11Z" style="fill:#676767"/><path d="M798.6,2202.15c-.35,4.37,1.07,8.85-.83,13.11C798,2210.89,797,2206.44,798.6,2202.15Z" style="fill:#676767"/><path d="M795.76,2310.32c1.84,3.92.53,8.06.85,12.09C795,2318.47,796,2314.35,795.76,2310.32Z" style="fill:#676767"/><path d="M796.6,2233.16c-.29,3.38,1,6.89-.88,10.12C795.94,2239.9,795,2236.42,796.6,2233.16Z" style="fill:#676767"/><path d="M796.68,2325.29c1.92,2.55.64,5.44.9,8.17C796,2330.87,796.88,2328,796.68,2325.29Z" style="fill:#676767"/><path d="M797.56,2224.1c-.2,2.41,1,5-.9,7.2C796.85,2228.88,796.12,2226.35,797.56,2224.1Z" style="fill:#676767"/><path d="M797.72,2337.3c1.69,1.85.7,4.08.87,6.14C797.23,2341.55,797.84,2339.38,797.72,2337.3Z" style="fill:#676767"/><path d="M1110.61,2768.2l-3.18,0c4.54-2.74,8.77-6.09,14.16-7.17C1118.56,2764.36,1113.62,2764.81,1110.61,2768.2Z" style="fill:#803700"/><path d="M969,2706.32c3.44-.19,6.09,1,7.63,3.93,1.65,3.15,1.92,6.41-.53,9.32-5.14,6.08-10.13,12.24-13.63,19.48-2.77,5.72-4.9,11.53-4.94,18,0,6.13-.55,12.26-.89,18.38-.2,3.65-1.84,6.69-5.39,7.55-4,1-6.67-1.56-8.15-5.05-6.57-15.51-7-31.08,1-46.13,4.47-8.41,8.88-17.14,17.22-22.71C963.65,2707.56,966.08,2706.05,969,2706.32Z" style="fill:#010100"/><path d="M1344.86,2087.2c-21.56,1.17-44.79-1-68-2.27-16.52-.91-33.2-2.16-49.49-5.07-12.19-2.17-24.3-5.17-36.6-7-19.53-2.84-38-9.53-57-14.49-15.43-4-29.86-10.61-44.89-15.61-16.27-5.42-31.52-13.31-46.82-21.09-15.86-8-31.52-16.48-46.32-26.21-12.85-8.46-26-16.79-37.34-27.28-4-3.7-2.38-9.51-1.26-13.78,3.76-14.32,5.7-29,8.08-43.47,3-18.42,8.6-36.27,11-54.78.49-3.7.62-7.29-.69-10.82-2.63-7.1-11.3-8.64-16-2.68a17.36,17.36,0,0,0-3.64,7c-2.54,13-3.68,26.12-6.16,39.12-2.33,12.2-3.37,24.64-5.27,36.93-1.76,11.43-3.44,22.91-6,34.17-2.05,8.91-2.93,17.9-4,26.9a18,18,0,0,1-.89,3.37c-1.09,3.39-2.39,4-4.92.86-9.86-12.13-18.39-25.18-27.19-38.06-10.7-15.66-18.74-32.8-26.77-49.77-6.94-14.66-13.79-29.56-18.06-45.46-4.12-15.32-8.55-30.49-11.45-46.16-2.16-11.68-1.28-23.17-1.34-34.75,0-3.17,2.3-6.12,1.83-9.62-.27-2-.9-3.31-2.92-4.1-5.65-2.23-13.22-1-16.17,4.13-4.72,8.13-11.78,14.29-17,22-7.63,11.27-15.91,22.1-23.92,33.11-.69.94-1.39,1.87-2.15,2.75-2.45,2.83-4.5,2.62-5.62-.84-1.52-4.69-3.49-9.44-3.86-14.28-1.53-20-3.72-39.84-.95-60.08,1.8-13.08,3.25-26.32,4.89-39.45,1.53-12.25,3.13-24.6,6.44-36.56,1.4-5.05.85-9.91-.41-14.68a50.94,50.94,0,0,1-2-10.74c-.34-7.65-1.69-15.23-2-22.81-.71-18.44-2.73-36.82-2.39-55.32.25-13.79,3.62-27.23,3.47-41.09-.14-12.76,1.85-25.47,3.59-38.12,1.51-11,3.61-21.89,5.28-32.84,3.12-20.36,11.39-39.24,16-59.15,1.73-7.43,5.7-14.39,7.93-21.83,4.41-14.75,10.81-28.73,17.38-42.56,7.5-15.8,15.66-31.32,24.27-46.55,6.17-10.93,13.62-21.13,20.38-31.73,14.4-22.6,31.3-43.23,49.18-63.12a543.3,543.3,0,0,1,70.5-66.15,570.79,570.79,0,0,1,62.49-42.47c14.15-8.26,28.35-16.4,43.2-23.11,14.12-6.39,28.37-12.6,42.91-18.09,11.4-4.3,22.53-9.77,34.31-12.48,12.62-2.89,24.89-6.92,37.48-9.87,16.45-3.84,33.17-6.22,49.74-9.32,13.81-2.58,28-3.11,42-4.44,20.43-1.93,40.94-1.27,61.4-.85,15.07.31,30.07,2.3,45,4.48,6.56,1,13.26,1.14,19.73,2.51,10,2.12,20.19,3.18,30.21,5.33,12.63,2.71,24.95,6.57,37.55,9.29,10.84,2.33,21,6.51,31.41,10.23a610.46,610.46,0,0,1,70.55,30c12.56,6.39,24.7,13.61,36.89,20.7,22.29,13,42.81,28.56,63.21,44.24,10.36,8,20.06,16.83,29.75,25.64,18.47,16.79,35.28,35.22,51.38,54.26a461.16,461.16,0,0,1,40.48,54.89c10.42,16.86,20.61,34,29.33,51.86,7.9,16.22,14.18,33.1,21.37,49.59,5.28,12.11,8.59,24.88,13.91,37,3.63,8.26,3.84,18,6.15,26.87,2.82,10.88,6.3,21.59,8.18,32.7,2.07,12.24,4.1,24.47,5.6,36.83,2.23,18.31,3.5,36.65,4.44,55a334.52,334.52,0,0,1-.26,38.39c-.11,1.82-.41,3.64-.4,5.45.09,15.79-2.17,31.36-3.77,47-1.92,18.83-6.79,37.11-9.21,55.82-.85,6.54.57,12.95,1.13,19.38.91,10.4,3.17,20.73,3.4,31.13.37,16.53.42,33.07-1.17,49.66-1.16,12.05-2.79,24.07-3.54,36.16-.14,2.2-.11,4.87-2.27,5.7-2.55,1-3.44-1.87-4.77-3.43a323,323,0,0,0-23-24.85c-6.48-6.18-12.23-13.14-18.35-19.71-3.87-4.15-7.75-8.21-14.1-8.38a6.72,6.72,0,0,0-7,4.66c-1.81,5.43-3.48,10.83-3.75,16.81-1,21.18-3.14,42.19-11.29,62.16-3.66,9-5.93,18.51-9.45,27.56a324.56,324.56,0,0,1-32.51,63.11c-5.52,8.26-11.15,16.49-16.41,25-3.38,5.43-8.26,9.93-12.57,14.77-2.21,2.48-3.21,1.43-3.59-1.4-1.24-9.2-2.75-18.38-3.77-27.61a156.17,156.17,0,0,0-3.51-18c-1.2-5.14-.69-10.51-2.43-15.69-2-5.91-2-12.37-4.2-18.29-2.77-7.6-2.29-15.75-4.12-23.5a10.86,10.86,0,0,0-7.69-8.39c-3.85-1.1-7,.55-9.67,3.64-1.48,1.74-1.45,3.59-1.61,5.57-.83,10.1,1.74,19.8,3.21,29.65,1.87,12.62,5.33,25,5.94,37.8a1.32,1.32,0,0,0,0,.49c4.94,10.11-1.41,14.71-8.69,20-13.09,9.51-27.45,16.82-41.41,24.7-18.11,10.24-36.89,19.74-56.63,26.2-18.48,6-36.29,14.17-55.49,18.23-8,1.7-15.5,5.78-23.65,7.48s-15.86,4.31-24.1,5.25c-7.72.89-15.38,2.43-23,4.07-21.46,4.61-43.16,7.1-65,9.09C1392.72,2085.73,1369.75,2087.76,1344.86,2087.2Z" style="fill:#fe6d00"/><path d="M817.82,2664.29c-10.09-.19-18.58.28-27-.93-1.94-.28-4.08-.46-4-2.8.38-9.72-1.85-19.53,1.57-29.15,2.15-6,6.89-9.59,11.34-13.52,2-1.76,4.09-3.39,6-5.2,2.92-2.73,5.29-5.7,2.88-10-2.84-5.06-6.49-7.3-11.52-5.2-13.31,5.57-24.34,13.89-28.17,28.76-2.1,8.16-.72,16.51.15,24.74,1.39,13.17,1.84,12.67-11.44,11.74-5.8-.4-11.61-.49-17.42-.83-6.6-.38-11-4.62-14.59-9.41-9-11.87-14.6-25-11.86-40.22,1.86-10.32,8.09-18.33,17.87-21.55,11.73-3.87,23.26-7.83,34.72-12.61,16.67-7,33.48-14,50.82-19.25,8.11-2.46,15.91-5.57,23.7-8.77,3.16-1.29,4.74-.21,5.74,2.58,3.85,10.76,9.88,20.49,14.54,30.87,1.29,2.87,2,5.55-1.87,6.78-10.77,3.4-15.45,12.7-20.26,21.49-7.1,13-6.59,27.11-4.54,41.28a13.6,13.6,0,0,0,2.69,6.31c2.29,3.12,1.48,4.75-2.53,4.84C828.52,2664.4,822.35,2664.29,817.82,2664.29Z" style="fill:#fe6d00"/><path d="M881.37,2665.09c-8.65,0-17.3-.08-25.94,0-4,.05-5.13-1.1-4.18-5.39,1.5-6.79-.16-13.89,1.3-20.8,2.51-11.93,6.46-23,15.56-31.79,3.11-3,5.38-2.61,7.55.7,3.92,5.95,8.09,11.78,11.55,18,5.21,9.34,11.8,17.57,18.94,25.41a42.44,42.44,0,0,1,5.5,7.05c.86,1.46,2.77,2.7,1.45,4.84s-3.27,2-5.3,2Q894.59,2665.07,881.37,2665.09Z" style="fill:#fe6d00"/><path d="M1989.38,2621.2c-6.85-1-15.17-.9-23.47-.9-2.4,0-3.77-1-4.22-3.3-3-15.42-9.88-28.9-19.88-41-4.35-5.25-8.58-10.56-13.37-15.45-5.43-5.55-12-8.68-19.35-10.36-3.38-.77-3.83-2.57-2.88-5.47,2.51-7.66,5.37-15.19,7.45-23,2.65-9.92,3.1-10.38,12.66-6.19,15,6.58,30.74,11.21,46.26,16.2,17.75,5.7,35.06,12.45,52.45,19,2.91,1.1,5.92,2.47,9,2.68,17.66,1.23,31.11,33.59,25.06,47.28-4.95,11.22-14.69,19.12-27,19.53-3.45.11-6.87.4-10.36.22-4-.2-5.56-2.4-5.79-5.49-.88-11.82-5.9-22.16-10.37-32.87-3.54-8.49-9.11-14.91-15.51-21-3.38-3.18-7.57-4.59-12.22-5-4.46-.4-7.1,2.34-8.63,5.57s-1.32,6.91,1.9,9.56c8.83,7.24,15.17,16.19,18.26,27.22,1.53,5.44,4.83,10,6.47,15.44C1998,2621.23,1998.17,2621.28,1989.38,2621.2Z" style="fill:#fe6d00"/><path d="M1889.8,2618.3c-4.67,0-9.33-.05-14,0-3.28,0-3.82-1.37-2.27-4a41.14,41.14,0,0,1,2.87-4.67c9.51-12.16,14.06-26.9,20.89-40.45,1.94-3.83,3.33-4.06,6.61-1.79,11.76,8.13,19.9,19.19,26.79,31.46,3,5.34,6.81,10.21,10.18,15.34.89,1.35,2.15,2.81,1.25,4.57s-2.87,1.36-4.49,1.36C1921.67,2620.17,1905.78,2618,1889.8,2618.3Z" style="fill:#fe6d00"/><path d="M1828.68,2752.19c2.14-17.69-6.18-33.42-19-47.46a21.94,21.94,0,0,1-3.11-4.47c-1.45-2.73-1.61-5.38,1.06-7.65,2.48-2.12,5-1.53,7.37-.07,10.15,6.17,17,15.43,22.16,25.71,4.07,8.08,7.84,16.47,8.81,25.73s1.79,18.64-1.6,27.61c-1.43,3.77-3.11,8-8.49,7.71-3.67-.23-6.9-4.36-7.16-9.54S1828.68,2759.43,1828.68,2752.19Z" style="fill:#010100"/></svg>