<svg id="Layer_4" data-name="Layer 4" xmlns="http://www.w3.org/2000/svg" viewBox="0 0 3000 3000"><title>body</title><path d="M1060.37,1061a92.44,92.44,0,0,1,14.14-7.92c4-.22,7.15-2.31,10.54-4.06,23.54-12.14,47.49-23.41,72.41-32.49a576.78,576.78,0,0,1,86.43-24.13q32.79-6.45,66-9.9a566.77,566.77,0,0,1,70.74-2.58c12.43.25,24.85,1.64,37.26,2.53,18.46,1.33,36.65,4.4,54.77,7.66a544,544,0,0,1,65.42,15.78,578.16,578.16,0,0,1,60.36,22.29c.92.41,2,.53,2.82,1,3.19,1.74,4.38.08,5.32-2.74,1.38-4.13,1.18-8.51,2.33-12.65,9.19-34,27.06-62.17,55.87-82.92a87.82,87.82,0,0,1,27.08-13.37,67.64,67.64,0,0,1,31.52-1.21c1.75.33,3.61.68,5,2.06,5.49,4.92,9.69,11,14.46,16.52.43.49,1.12,1.18,1,1.65-1.53,8.09,5,12.15,9,17.1,17.06,21.17,38,38.24,59.82,54.16,81.65,59.61,169.1,108.76,263.51,145.23a484,484,0,0,0,54.71,17.47c6.59,1.68,13.33,2.83,20,4.1,3.84.73,7,2.06,8,6.34a7.36,7.36,0,0,0,3,3.91c24.32,19.33,29.09,44.81,22,73.28-7.81,31.22-25.76,56.84-47.34,80-42.21,45.26-93,78.32-149.09,103.75a378.76,378.76,0,0,1-43.71,17.1c-2.34.74-3.83,1.58-3.39,4.45,1.73,11.35,3.27,22.72,5,34.06.3,1.92,1.38,3.71,2.1,5.57,1.2,1.7,1.3,3.66,1.54,5.67,1.33,11.21,2.21,22.45,3,33.72a393.71,393.71,0,0,1,.54,41.92c-.56,17.08-1.55,34.14-3.41,51.19-2.64,24-7.45,47.59-12,71.23a20,20,0,0,0,0,8.44c2.5,10.41,2.31,21.12,3.58,31.66,1.72,14.26,1.44,28.62,1,42.91-.79,23.08-2.31,46.13-7.38,68.79-1.09,4.86-2,9.76-3.49,14.54a17.18,17.18,0,0,1-2.42,4.89c-3.92,5.63-9,5.63-12.88,0-6.28-9-12.52-18.06-19.51-26.51-8.8-10.62-17.25-21.56-27-31.42-1.12-1.13-2.22-3.13-4-2.46s-1.2,2.9-1.24,4.5a77.13,77.13,0,0,1-1.48,12.36c-.82,4.47-.22,8.06,2.68,11.57,5,6,6.86,13.64,9.75,20.67,10.94,26.64,21.22,53.55,29.34,81.18,8,27.28,15.25,54.77,21,82.65q6.13,29.56,11,59.31c2.13,13.1,3.66,26.32,5.5,39.47,1.8,12.9,2.27,26.19,7.71,38.44,1.58,3.56-.23,7.59.95,11.3,9.12,52.77,10.5,105.82,6.21,159.15-1,12.24-1.41,24.52-3.22,36.69-3.19,9.77-2.67,20-3.79,30.06-2.25,20-4.66,40-8.23,59.78-1.13,6.21-.53,7.13,5.91,6.73a284.22,284.22,0,0,0,62.68-10.79,291.4,291.4,0,0,0,70.69-31.8,334.45,334.45,0,0,0,54.44-41.8,396.8,396.8,0,0,0,57.94-68.24,447.21,447.21,0,0,0,41.24-77.7,454.83,454.83,0,0,0,24.5-78.34c5.33-24.7,8.94-49.67,9.7-75a9.85,9.85,0,0,1,.73-4.39c.89-14,1.56-28.06-.54-42a28.93,28.93,0,0,1-.19-4.36c.41-8-.7-15.84-1.58-23.72a9.8,9.8,0,0,1-.34-1.59c-.42-6.26-1.34-12.46-2.35-18.65a6.39,6.39,0,0,1-.59-1.4c-.21-3.21-.34-6.43-1.59-9.47a5.48,5.48,0,0,1-.52-2.14,30.65,30.65,0,0,0-1.66-9.34,5,5,0,0,1-.31-1.48c-1.88-13.19-6.08-25.79-10.08-38.42a346.13,346.13,0,0,0-22.41-54.25,332.48,332.48,0,0,0-38.92-59.49c-14.67-17.79-30.85-33.92-49.48-47.56-6.07-4.45-5.7-6.44-1.87-13.07,3.63-6.28,9.25-7.8,15.35-8.69,12.35-1.82,24.42.65,36.5,2.87a270.46,270.46,0,0,1,30.35,7.62,318.83,318.83,0,0,1,59,24.89,160.45,160.45,0,0,1,17.85,11.78c1.69,1.23,3.29,3.46,5.7.32,1.27-1.66,2.85.17,3.17,1.59,1.34,5.9,4.53,11.06,6.47,16.68,2,5.78-2.54,12.79-8.58,14.3-2.38.59-4.67.6-6.53-1.27s-2.09-4.45-1.34-7c2.54-8.55,2.24-9.94-4.82-15.46-2.14-1.68-3.91-4.26-7.14-4.18-3.9-1.09-7-3.71-10.32-5.79a234.74,234.74,0,0,0-39.43-19.44,41.26,41.26,0,0,1-6.15-3.2c-6-3.82-12.72-5.59-19.64-6.8a4.28,4.28,0,0,1-1.41-.43c-9.44-3.64-19.09-6.35-29.29-6.56a4.1,4.1,0,0,1-1.51-.29c-8.13-2.26-16.26-3.57-24.41-.17a31.3,31.3,0,0,1-3.05,2.41c7.51,4.1,13.4,10.24,19.5,16,15.29,14.37,29.6,29.68,41.67,46.92,9.44,13.48,18.4,27.22,25.62,42.1,6.1,12.56,12.34,25,17.4,38.07,1.65,4.25,2.36,8.82,4.5,12.9-.27,2.13-.55,4.27,1.28,6a3.24,3.24,0,0,1,.45,1.25,45,45,0,0,0,4.53,14.57,3.37,3.37,0,0,1,.44,1.27c-.5,3.84,1.18,6.91,3.48,9.76,2.62,3.52,2.2,7.75,2.78,11.75,2.67,17.26,5.28,34.54,7.14,51.89a447,447,0,0,1,2.61,49.82c-.16,29.25-3.41,58.09-8.68,86.8a477.84,477.84,0,0,1-30.37,100.5,432.91,432.91,0,0,1-66.81,109.67c-25,29.85-53.56,55.64-86.67,76.25a320.87,320.87,0,0,1-78.22,34.93c-12.14,3.62-24.63,5.19-37,7.61-9.27,1.82-18.51,1.67-27.82,1.73-.83,0-1.66,0-2.49,0-2.27.07-3.86.92-4.12,3.42s1.38,3.35,3.53,3.92c6.82,1.8,13.84,2.07,20.78,2.69q24.35,2.17,48.67,4.49c13,1.25,26.1,2.82,39.16,4,10.41.9,20.91,1.78,31.23,2.94,10.84,1.22,21.84,2,32.6,4.18a13,13,0,0,0,7.35-.48,30.2,30.2,0,0,1,9.31-1.74,250.3,250.3,0,0,0,45.78-6.27,266.38,266.38,0,0,0,58.74-20.33,337.37,337.37,0,0,0,85.59-59.81,398.34,398.34,0,0,0,68.58-87.22c9.27-16,18-32.22,25.08-49.28,6-14.56,12-29.16,16.55-44.27,8.18-27.23,15-54.81,17.93-83.14,1.17-11.22,2.58-22.44,2.63-33.83.05-10.29,1.08-20.61.75-30.93-.81-24.95-2.69-49.76-7.45-74.38-6.23-32.21-15.68-63.32-29.5-93.06-3-6.39-5.78-13-10.72-18.32-1.72-1.86-2.5-4.31-3.65-6.51-5.08-6-8.26-13.23-12.54-19.77a304.53,304.53,0,0,0-34.78-43.49c-10.9-11.44-22.9-21.57-35.27-31.34-3-2.38-4.9-5.85-7.51-8.64a14.32,14.32,0,0,0-3.23-3.74c-2.64-2.14-4.07-4.48-1.25-7.48s5.2-.66,7.13,1.23c2.91,2.83,5.87,5.2,10.22,4.84a1.58,1.58,0,0,1,.81.14c7.11,5.93,14.52,11.52,21.37,17.75a322.84,322.84,0,0,1,50.24,57.87,358.76,358.76,0,0,1,30.11,54.38c11.56,25.71,19.87,52.5,25.94,80,8.54,38.76,10.55,78,9.35,117.51a372.1,372.1,0,0,1-4,40.61A489.63,489.63,0,0,1,2446.1,2208a508.19,508.19,0,0,1-24.89,74.09,469.28,469.28,0,0,1-36.69,68.86,383.88,383.88,0,0,1-30.05,40.32,372,372,0,0,1-46.09,46.22c-26.59,22.2-55.61,40.43-87.72,53.5a272.28,272.28,0,0,1-82,19.75c-12.89,1-25.86-.05-38.75-1.68-6.91-.88-14-.4-20.89-1.17-14.86-1.64-29.81-1.92-44.68-3.42-10.56-1.07-21.17-1.68-31.75-2.52a19.58,19.58,0,0,1-4.94-.58c-9.15-2-18.57-.23-27.79-1.82q29.67,11.38,60,20.91c10.44,3.28,20.4,8.11,31.38,9.73,2.64.39,4.93,2.06,7,3.75,14.65,12,25.92,26.34,29,45.65,4.4,27.91-11.28,52.51-39.38,58.5-9,1.91-18,3.39-27.15,1.22a20,20,0,0,1-4.7-1.65c-2-1.61-4.37-1.38-6.69-1.39-12.81,0-25.63-.08-38.45,0q-28.45.23-56.91-.56c-15.64-.43-31.27-.19-46.9-.43-1.93,0-4-.44-6.13.88,3.93,3.78,9.09,5,13.53,7.31,16.71,8.84,32.53,18.87,45.62,32.66,11.08,11.68,19.55,25.11,22.17,41.13,2.88,17.55-1.45,33.64-13.21,47.42-14.25,16.7-32.75,26.29-53.51,32.07-3.52,1-6.6,3.23-10.36,3.4-3.35-.13-6.57.74-9.81,1.39a9.3,9.3,0,0,1-1.47.37c-4,.41-7.9,1.18-11.86,1.74a10,10,0,0,1-1.53.36c-4,.59-8-.37-11.93.83a8.41,8.41,0,0,1-1.65.3c-12,.22-24,.77-36-.08a312.56,312.56,0,0,1-55.9-9.65,276.8,276.8,0,0,1-50.42-18.76,168.38,168.38,0,0,1-38.16-25.27c-10.64-9.29-18.32-21-27.39-31.54-2.57-3-5-4.07-8.53-3.28-19.8,4.37-39.81,7.59-59.87,10.31-16,2.17-31.93,4.2-48,5.55-17.35,1.46-34.69,3.25-52.05,4.7-6,.5-12,.65-17.91.84-10.13.34-20.26,1-30.38,1.46-21.3.88-42.6.75-63.9.86-14.47.07-28.92-.93-43.39-1.25-18.08-.4-36.18-1.31-54.21-2.88-14-1.22-28.17-1.72-42.15-3.76a19.89,19.89,0,0,0-3-.11c-12,.1-11-1.46-13.88,10.5-1.07,4.51-3.94,7.54-7.46,10.25-14.17,10.95-29.74,19.49-45.92,27-1.81.85-3.6,1.74-5.34,2.73a298.74,298.74,0,0,1-79.24,23.16,308.19,308.19,0,0,1-63.67,3.2c-26.36-1.44-51.65-7.28-74.68-20.85-11.56-6.81-21.05-15.71-26.75-28.09-6.89-15-7-30.17-1.07-45.52a77.48,77.48,0,0,1,18.7-28c2-1.92,5-4.16,3.82-6.95s-4.8-1.37-7.34-1.38q-60-.24-119.92,0a124,124,0,0,0-18.83,1.57,20.45,20.45,0,0,1-13.09-2.19c-19.77-10.55-33.06-26-38-48.51a52.9,52.9,0,0,1,4.42-35.78c5-10.31,13.45-17.2,24.44-20.75a23.18,23.18,0,0,0,5-2.16c1.92-.88,4-1.39,5.7-2.75a9.2,9.2,0,0,1,1.15-.72,18,18,0,0,0,5-3.26,20.91,20.91,0,0,1,7.29-3.37c17-7.18,34-14.34,51.51-20.35,10.38-3.57,21.07-6.21,31.33-10.18,7.38-2.86,8.14-4,5.35-11.36a617.85,617.85,0,0,1-24.95-85.13c-4-18.16-7.53-36.42-9.23-55-.9-9.89-3-19.7-3.77-29.64-.18-4.06.44-8.15-.45-12.18a9.25,9.25,0,0,1-.34-1.58c-.42-3.13.26-6.34-.62-9.45a9.63,9.63,0,0,1-.36-1.59c-.59-4.11.42-8.33-1-12.39a12.16,12.16,0,0,1-.24-1.8c-.15-22.45-.46-44.91.1-67.35.32-12.74,2.15-25.44,1.86-38.23a13.74,13.74,0,0,1,.26-2.57c1.09-2.71.67-5.61,1-8.4a8.82,8.82,0,0,1,.32-1.46c.71-1.88.52-3.89.87-5.83a10.28,10.28,0,0,1,.37-1.55c.19-18,3.85-35.62,6.52-53.35,3.07-20.38,7.46-40.49,11.85-60.6,2.38-10.86,4.86-21.72,7.86-32.45a15,15,0,0,0,.9-4.88c.58-6.54,3.06-12.52,5.23-18.64,3.29-9.24,5.63-18.79,8.77-28.09,6.11-18.14,12.44-36.2,20.49-53.59a16.29,16.29,0,0,0-.15-14.44c-11.77-25-22.07-50.62-29.8-77.19a330.76,330.76,0,0,1-8.39-37c-.23-1.31-.17-3-1.48-3.53-1.71-.71-2.68,1-3.61,2-7,8-13.62,16.35-20.05,24.83-5.12,6.77-10.11,13.66-15.86,19.89-5.33,5.78-10.28,5.17-14.79-1.14-9.32-13-12.66-28-14.29-43.57-1-9.41-1.58-18.86-2.68-28.26a89.83,89.83,0,0,1-.2-18.47c.95-10.24,1.24-20.54,2.7-30.75,2.26-16,4.47-31.93,8.14-47.65,2.09-9,.75-17.87-.3-26.78-1.49-12.7-3-25.36-4-38.14-.85-11.62.35-23.31-1.59-34.85-.52-3,.65-5.94.73-8.92a84.86,84.86,0,0,0-.78-16.92c-2.54-14.83.48-29.45,2-44.13.21-2,1.82-4.39-.73-5.92-2.89-1.74-6.55-3.65-9.41-2-5.38,3.18-10.5,2.27-15.87,1-10.72-2.37-21.06-6-31.5-9.34a410.59,410.59,0,0,1-39.49-15.2,542.09,542.09,0,0,1-63.25-32.62A472.89,472.89,0,0,1,555.28,1401a312.91,312.91,0,0,1-27.16-25.62c-7.94-8.93-16.2-17.62-23.05-27.44-10.38-14.86-20.07-30.15-26-47.49-5.44-16-8-32.3-4-49a59.16,59.16,0,0,1,21-33c2.29-1.82,4.29-3.57,5.2-6.43s3.19-4.3,6.22-5c12-2.83,24.11-4.85,35.89-8.46a667.42,667.42,0,0,0,65.66-23.43q32.79-14,64.74-29.77,31.25-15.46,61.55-32.73c19.2-10.9,38.19-22.18,56.4-34.67,16.53-11.34,33.51-22,49.68-33.92,20.11-14.82,39.5-30.36,57-48.26a151,151,0,0,0,13-15.69l.93-1.1c2.75-3.53,5.37-6.47,2-11.74-2.16-3.4,1.26-7.17,4.39-9.62,10.72-8.4,23-11.62,36.43-10.19,20.49,2.18,37.41,12,52.17,25.7,24.35,22.67,39.82,50.26,45.12,83.3.31,2,.85,3.89,1,5.89.13,1.34.44,2.79,1.93,3.18s1.84-1.09,2.45-2S1059.66,1061.87,1060.37,1061Z"/><path d="M1950.37,2179c0-10.09-5.91-18.69-7.13-28.54-2.4-19.42-4.86-38.84-8-58.16q-4.77-29.72-10.86-59.23c-5.81-28-13-55.61-21-83-6.7-23-15-45.42-23.78-67.69-4-10-8.15-20-12.25-30-.37-.92-.54-2.11-1.23-2.69-6.73-5.74-6-13.1-4.54-20.58a50.81,50.81,0,0,0,.88-9.91c0-1.7,0-3.74,1.53-4.52,1.89-1,2.91,1.15,4,2.27a474.47,474.47,0,0,1,38.34,45.85c3.64,4.94,7.12,10,10.66,15,3.06,4.33,7,4.39,10,0s4-9.48,5-14.48a395.38,395.38,0,0,0,7.67-61.68c.56-12.82,1-25.63.56-38.4-.6-16.07-1.62-32.15-4.52-48-1.37-7.57,1.23-14.84,2.71-22.12,3.79-18.7,6.91-37.47,9.17-56.44a570,570,0,0,0,3.56-84.62c-.5-16.38-.85-32.85-3.69-49.09,3.85,4.48,2.32,10.25,3.57,15.36.92,3.79,1,7.78,1.45,11.68,3.28,22.8,2.71,45.66,1.56,68.58-.5,10-1.06,19.93-2.22,29.82-1.62,13.82-3.44,27.62-5.76,41.36-1.9,11.27-4.39,22.4-6.62,33.6-1.71,8.6,0,17.21,1.16,25.75,3.76,28.16,3.45,56.3,1.09,84.6-1.53,18.37-4.15,36.49-7.43,54.57a32.86,32.86,0,0,1-4.15,10.65c-3.88,6.63-9.66,7.21-14.92,1.56-11.39-14.9-21.87-30.51-34.61-44.37-3.48-3.78-6.44-8-10.17-11.62-1-1-1.94-2.75-3.59-2.19-1.46.48-.9,2.31-1.23,3.55-1.08,4.05-.56,8.31-1.6,12.37a3.88,3.88,0,0,0,.74,3.32c6,8,8.53,17.6,12.33,26.57a735.68,735.68,0,0,1,26.4,71.4c3.84,12.54,6.89,25.23,10.27,37.87,1.83,6.85,4.39,13.6,6.14,20.51,5,19.82,9.16,39.83,13,59.91,2.24,11.75,4,23.56,6,35.36.58,3.46.36,7,1,10.42,1.4,7.77,1.63,15.67,2.44,23.52.39,2.29-.63,4.82,1.09,6.9,1.2,1.5-.2,3.51,1,5h0c1.72,8.36,2.2,17,4.83,25.14C1950.92,2169,1950.6,2174,1950.37,2179Z" style="fill:#454545"/><path d="M2260.38,1970.06l-1.91-3.07c-18.31-78.57-54.84-146-119.52-196.39a39.56,39.56,0,0,1-4.77-4.37c-1.71-1.86-2.5-4.44-1.09-6.47,4-5.72,8-11.2,15.85-12.51,10.74-1.79,21.33-.83,31.81,1a313.26,313.26,0,0,1,94.95,32.68,137.84,137.84,0,0,1,20.52,13.24c2.52,2,4.15,2.91,4.38-1.63a26.49,26.49,0,0,1,3-10.47c1.81-3.58,4.59-4.33,7.73-1.78,3.42,2.78,6.85,5.43,11.12,6.76-4.21,1.66-7.25-.12-9.91-3.28a16.73,16.73,0,0,0-3.29-3c-1.56-1.06-2.88-.2-3.84,1.07-1.07,1.42-1.55,2.91.18,4.31,2,1.61,4.54,2.82,4.84,5.86-1.12,1.09-2.12.21-2.71,0-1.06,6.58,1.77,12.32,4.43,18.27a14.33,14.33,0,0,1-6.84,19c-3.84,1.91-8.43,1.4-11.12-1.23-3.17-3.1-3.61-6.15-1-10.76a5.47,5.47,0,0,0-.43-6.81,43.12,43.12,0,0,0-6.32-6.28c-1.6-1.41-4.26-2.2-3.95-5.14,5.34-.74,17,11.14,15.75,16.13-.35,1.39-1.49,2.56-2.19,3.88a5.64,5.64,0,0,0,.1,6.15c1.44,2,3.61,2.06,5.86,1.52,6.23-1.48,10.07-8.55,7.3-14.42-2.54-5.4-5-10.78-6.42-18-2.35,6.49-4.74,3.73-7.33,1.62-12.87-10.47-27.77-17.53-42.74-24.23a289.93,289.93,0,0,0-49.19-16.87c-15.48-3.83-31.07-6.91-47.14-6.59a46,46,0,0,0-11.75,2.08c-5.53,1.58-7.56,6.75-10,11-1.67,2.92,1.3,5.29,3.6,6.9,9.87,6.86,18.69,15,27.35,23.23a297.58,297.58,0,0,1,34.53,39.9c20.53,28.07,35.88,58.84,47.44,91.53a379,379,0,0,1,12.72,44.78A10.25,10.25,0,0,1,2260.38,1970.06Z" style="fill:#3f3e3f"/><path d="M1369.1,1000.08c23.75-.85,50.19,2.64,76.62,6.78,15.86,2.48,31.73,5,47.37,8.53,13.9,3.13,27.65,7,41.24,11.3,18.2,5.7,35.85,13,53.38,20.41,38.31,16.32,74.54,36.46,108,61.28,17.47,13,35,25.9,51,40.89,14.44,13.5,28.6,27.25,41.92,41.78a460.1,460.1,0,0,1,36.74,45.78,121.86,121.86,0,0,0,7.39,10c6.46,7.42,6.17,15.92,5.14,24.94-1.22,10.71-1.84,21.51-2.34,32.29-.9,19.41-3.06,38.71-4.72,58.06-1,12.11-.18,24.27,1,36.37a137.76,137.76,0,0,0,9.7,40.52c6,14.34,13.93,27,30.81,30.5a26,26,0,0,0,8.44.24c12.83-1.5,25.67-3.06,38.51-4.51,3.24-.37,4.78,1.24,5.23,4.53,1.83,13.44,4.18,26.82,5.65,40.3.85,7.89,1.7,15.84,2.15,23.76,1,17.1,2,34.25,1,51.37-1,18.86-2.28,37.69-4.46,56.5-2.36,20.25-6.91,40-10.2,60.08-.7,4.27.53,8.27.93,12.36,1.09,11.37,2.87,22.68,4,34a198.39,198.39,0,0,1,0,37.83c-.81,8.92-1.49,17.84-2.2,26.77-.8,9.92-2.32,19.73-3.86,29.55-.69,4.46-2.67,4.24-5,1.33-13.52-16.91-29.49-31.57-43.84-47.72a47.31,47.31,0,0,0-8.67-7.47c-4.43-3.06-8.47-1.44-10.83,3.45-3,6.3-3.94,12.81-3.91,19.78.08,17.54-3.5,34.6-8.44,51.32-4.76,16.14-11.24,31.69-17.48,47.33-8.4,21.05-20.4,39.93-32.55,58.82a294.81,294.81,0,0,1-22.75,31.32c-1.33,1.57-2.33,4.17-4.8,3.71-2.73-.51-2.32-3.53-2.6-5.42-1.54-10.31-2.09-20.75-4.16-31-2.44-12.14-4.59-24.34-6.88-36.51-2.18-11.56-5.06-23-6.27-34.72-.46-4.39-4.79-7.79-9.49-7.59s-7.18,3.14-7.56,8.08c-.89,11.48,2.5,22.42,4.66,33.4,2.66,13.52,4.3,27.14,6.4,40.72.86,5.51-2.59,8.77-6.46,11.5-15.71,11.09-32.62,20.19-49.43,29.48a424.74,424.74,0,0,1-50.09,23.11c-12.91,5.09-26.21,9.21-39.31,13.85-15.76,5.58-31.84,10.13-48,14.39-7.93,2.09-16.09,3.38-24.18,4.88-10.4,1.92-20.77,4.05-31.21,5.78-18.8,3.12-37.71,5.23-56.68,7.13-24.83,2.5-49.67,4.12-74.58,3.54-17.6-.42-35.23-1-52.78-2.08-20.64-1.32-41.25-3.82-61.72-6.84-17.35-2.56-34.45-6.74-51.72-9.92-14.06-2.59-27.3-8-41.06-11.58-12.52-3.26-24.28-8.57-36.45-12.76-19.63-6.76-38.23-15.76-56.54-25.44-16.73-8.84-33.5-17.63-48.84-28.77-10.06-7.3-20.59-14-30.07-22.1-3.82-3.28-3.17-7.27-2.5-11,2-11.09,4.82-22,6.6-33.15,1.44-9,4.28-17.78,4.11-27,0-3.07,1.81-5.53,2.3-8.53,1.68-10.24,4-20.39,6.22-30.54a40.48,40.48,0,0,0,.5-9.44c-.1-5.44-2.92-9.31-6.76-9.64s-9.36,3.74-10,8.1c-1.5,9.81-3.79,19.46-4.49,29.45-.58,8.33-2.69,16.6-4.07,24.9-2.24,13.56-4.61,27.1-6.52,40.7-1.87,13.41-6.28,26.39-6.38,40.11,0,3.38-2,6.65-1.89,10.23a2.21,2.21,0,0,1-1.68,2.24c-2,.58-3.12-1-4.09-2.25-4.79-6.16-9.71-12.23-14.12-18.65-9.51-13.83-19.08-27.68-26.91-42.51-9.82-18.61-19.34-37.48-26.62-57.23-5.87-15.93-11.1-32.21-14.54-48.92-3-14.46-5.9-29-4.94-43.89.28-4.39,2-8.36,2.7-12.63.73-4.68-.62-6.1-5.39-6.77-5.81-.8-9.9,1.79-12.6,6.22-6.6,10.81-15.64,19.73-22.64,30.23-6.08,9.1-12.68,17.85-19.07,26.75-1.14,1.59-2.11,3.73-4.41,3.56-2.46-.18-2.64-2.7-3.46-4.43-3.62-7.66-3.76-16.07-4.95-24.22-1.59-10.84-3-21.76-2.06-32.75s2-22.12,3.44-33.12c1.94-14.77,4.37-29.48,6.45-44.23.46-3.29,1.66-6.34,2.2-9.64,3.5-21.56-3.27-42.41-3.85-63.62-.67-24.68-3.89-49.46,1.23-74.09.7-3.37.35-7,.41-10.45.12-7.81-.2-15.65,1.08-23.4.59-3.57.79-7.35,3.86-10,13.5-11.51,19.24-27.19,23.08-43.72a184.59,184.59,0,0,0,4.07-61.36c-1.09-10.36,1.22-20,4.89-29.65,10-26.19,22.82-51,36.44-75.41a491.47,491.47,0,0,1,41.16-62.09,552.61,552.61,0,0,1,43-49.72,632.61,632.61,0,0,1,61.42-55.22c21.67-16.88,44.88-31.35,68.48-45.32,19.46-11.51,40-20.69,60.79-29.32,17.35-7.22,34.65-15,53.18-19.09,10.86-2.4,21.17-6.71,32-9.23s21.69-4.64,32.63-6.34c9.65-1.51,19.16-3.79,29-4.47,11-.77,22-2.49,33.07-3.62C1338.39,999.77,1352.21,1000.15,1369.1,1000.08Z" style="fill:#434251"/><path d="M1562.66,2296.84c-7.57-2.57-10.73-1.91-13.23,2.76-1.52,2.84-1.13,5.89-.56,8.78,3.15,15.91,5.74,31.94,8.9,47.84,3.68,18.48,6.5,37.12,11,55.47,3.51,14.46,5.22,29.32,8.08,43.92,1.94,9.87,4.12,19.74,5.81,29.65q4.5,26.43,9.19,52.82c3.22,17.9,6.84,35.75,10.14,53.65,2.06,11.19,4.16,22.39,6.7,33.47,4.47,19.51,7.38,39.29,10.93,59,.47,2.6,1.37,5.13,1.86,7.73.65,3.46-1.09,5.43-4.42,5.94-9.32,1.43-18.81,2.14-28,4.32-12.27,2.92-24.82,3.38-37.19,5.34-10.79,1.72-21.74,2.35-32.62,3.44-20.64,2.07-41.34,3.21-62.06,4.27-13.43.69-27,.63-40.26,2.1-23,2.54-45.88,1.56-68.8,1.33-21.25-.22-42.5-1.48-63.78-2-19.71-.45-39.39-2.36-59.08-3.85-7.58-.58-15.11-1.86-22.69-2.61-4-.4-4.52-2.82-3.9-5.95,1.53-7.64,3.46-15.2,4.72-22.88,1.75-10.61,3.69-21.18,5.37-31.8q2.45-15.39,4.92-30.81c2.18-13.56,3.59-27.26,6-40.79,1.8-10.26,2.82-20.64,5.14-30.84,2.16-9.48,3.13-19.23,4.7-28.84,1.6-9.79,2.73-19.64,4.32-29.44,1.49-9.13,3.66-18.14,4.86-27.33,1.1-8.35,3.14-16.56,4.44-24.89,3.34-21.42,7.33-42.74,10.72-64.17,1.75-11.11,3.16-22.28,5-33.39,1.33-8.13,1.61-16.46,2.59-24.69a8.71,8.71,0,0,0-4.46-8.89c-2.75-1.47-5.83-.71-8.26,1.54a3.72,3.72,0,0,1-1.85-1.62c-9.86-17.17-26.45-24.88-44.11-30.55-18-5.77-36.56-8.43-55.46-9.66-47.89-3.12-94.31,4-139.61,19.13-21.73,7.25-42.41,16.93-60.52,31.29-9.46,7.5-17.72,16.12-22.6,27.52-1.35,3.16-.81,7.07-3.75,9.58-7.3-1.8-9.75.27-10.3,7.56-.58,7.56,2.26,14.29,5.39,20.52,7.91,15.75,14,32.23,19.71,48.79a361.4,361.4,0,0,1,14.27,54.16c1.82,10.39,3.31,20.86,5.19,31.24,1.57,8.73,1.44,17.84,2.49,26.74,1.17,9.87,2.46,19.74,3.29,29.64,1.19,14.17,3.67,28.23,2,42.62-1.09,9.37.05,18.93-1.1,28.39-.44,3.67-2.14,6.06-5.11,7.29-3.21,1.33-5.1-1.21-6.94-3.51-9.53-11.92-19.77-23.25-28.93-35.48-10.22-13.65-17-29.27-26.05-43.58-8.43-13.37-14.07-28.09-20.18-42.46-5.28-12.43-9.58-25.43-13.66-38.4-6.1-19.35-11.37-38.89-15.52-58.79-3.89-18.65-6.25-37.54-9.18-56.3-2-12.64-3-25.66-3.82-38.59-2.29-33.76-1.92-67.53-1.5-101.3.16-13.37,2.15-26.74,3.55-40.08q2.42-23,5.27-45.9c1.94-15.75,3.89-31.53,7.41-47,5.09-22.38,10.48-44.68,17-66.72,4.63-15.71,9.25-31.43,14-47.1,3.27-10.77,7.47-21.25,11.3-31.85.51-1.42,1.36-2.92,2.93-3.17,1.93-.3,2.26,1.65,3,2.88,11.25,19.45,23.77,38,38.69,54.87,4,4.58,8.75,8.1,13.37,11.8,6,4.79,14.15,2,16.94-5.59,2.27-6.16,2.45-12.67,2.37-19.18,0-2-.91-4.69,1.65-5.8,2.36-1,3.36,1.56,4.92,2.63,17.52,12,34.64,24.52,53.2,35,24.82,14,50.34,26.49,77.09,36.2,20.48,7.43,41,15,62.24,20,20.93,5,41.91,9.54,63.17,13.07,17.55,2.92,35.28,3.59,52.82,6,23.47,3.17,47,3.39,70.58,3.84,21.25.41,42.41-.38,63.6-1.91,14.56-1.05,29.06-2.74,43.5-4.53,18.37-2.27,36.69-5.08,54.84-9.11,10.12-2.25,20.55-3.54,30.7-5.82,12.91-2.89,25.72-6.37,38.37-10.25a701.06,701.06,0,0,0,79.88-30,427.17,427.17,0,0,0,43.6-22.94c7.28-4.31,14.8-8.17,21.87-12.85,5-3.32,7.72-1.54,7.76,4.48s.09,12,0,18c-.06,5.11,1.1,10.32,5.82,12.27,5.27,2.18,10.73.58,15.12-3.69,10.28-10,18.9-21.4,28-32.4,17-20.58,30.18-43.66,42.31-67.23,8.35-16.21,16.49-32.66,21.33-50.49,1.36-5,4.25-9.72,5.74-14.86.36-1.24.92-2.58,2.6-2.66,2-.1,2.51,1.39,3,2.8q4,11.44,7.94,22.92c3.64,10.62,7.93,21.07,10.67,31.91,2.64,10.42,5.27,20.85,8.08,31.21,4.37,16.13,7.41,32.57,11.72,48.69,3.61,13.47,5.71,27.23,9,40.74,5.39,22.32,9.25,44.91,12.56,67.59,2.27,15.56,3.26,31.31,5.26,46.92,2,16,2.8,32,4.08,48,3.63,45.52,3.32,91.1,2.65,136.68-.21,13.59-.7,27.3-2.2,40.77-1.56,13.93-2.83,27.93-5.09,41.84-2.48,15.19-4.09,30.54-7.45,45.59-2.94,13.2-5.81,26.44-10.11,39.28-4.68,13.95-9.12,28-14.93,41.55A191.69,191.69,0,0,1,1857,2612a16.38,16.38,0,0,1-2.51,2.42c-1.84,1.26-3.31,3.74-5.89,3-3.1-.88-1.63-3.89-2.22-6-4-14.12-2.76-28.72-3.48-43.07-.51-10.31,1.87-20.75,2.69-31.15.93-11.88,2.86-23.62,4.88-35.34,2.26-13.05,4.42-26.08,8.25-38.85,3-10.11,5.72-20.37,8.38-30.61,2.79-10.76,6.83-21.11,10.13-31.7,6-19.15,14.19-37.45,22.16-55.82,2.07-4.76,6.36-8.74,5-14.66-3.35-10.51-9.29-19.47-16.68-27.5-13.26-14.42-30.06-23.66-47.76-31.18-28.27-12-58-18.26-88.51-21.37a348.76,348.76,0,0,0-48.34-1.72c-35.83,1.35-71,6.55-104,21.43-11.75,5.29-22.7,11.91-32,21A18.73,18.73,0,0,0,1562.66,2296.84Z" style="fill:#434251"/><path d="M1562.66,2296.84c-2.16-2.23-.13-3.45,1.18-4.82,12.18-12.63,27.27-20.64,43.31-27,26.07-10.33,53.35-15.16,81.21-17.16,41.71-3,82.77.68,123,12.17,24.33,6.95,47.37,16.71,67.5,32.52,11.11,8.73,19.22,19.73,25.24,32.37.72,1.51,2.5,3.43.28,5.3-5.69-6.53-10-6.83-16.8-1.16-3.91,9-10.07,16.76-14.68,25.38a271.27,271.27,0,0,0-16.3,37.87q-11.32,32.11-20.09,65c-2.32,8.72-3.63,17.82-5.3,26.76-1.55,8.3-2.21,16.7-4,25-3.16,14.62-4,29.65-4.63,44.57-.6,14.14,0,28.33-.17,42.49-.15,12.21.47,24.41,4.58,35.91,3.2,8.94,9.3,16.08,18.94,19,29.92,9,56.54,23.27,76.42,48,11.32,14.1,13,34.69,1.32,49.32-4.66,5.85-11.13,9.44-17.36,13.24-3.68,2.24-7.46,4.35-11.26,6.4a5.91,5.91,0,0,1-2.08.89,10.37,10.37,0,0,0-4.68,1.88c-5.38,2.79-11.16,4.49-17,6.13a26,26,0,0,0-4.73.72c-2.52.45-4-.43-4.13-3.17a5,5,0,0,1,.29-1.47,9.61,9.61,0,0,0,1.54-4.72,7.66,7.66,0,0,1,1.31-3.51c3.59-8.33,3.27-16.77.76-25.28a19.15,19.15,0,0,1-2.25-9.86c0-2.09.4-4.3-1.54-5.91-1.5-1.92-2.16-4.27-3.21-6.41-5.42-9.25-9.7-19.23-18.15-26.42a43.56,43.56,0,0,0-9.34-6.52c-4.28-2-8.92-1.11-11.39,2s-2.31,7.12.11,11.1c2.51,4.14,6,7.51,8.9,11.32,2.74,3.56,5.44,7.12,6.92,11.44a64.94,64.94,0,0,1,3.13,10.29c3,7.9,2,16,1.29,24.09a27.66,27.66,0,0,0,.16,6,7.55,7.55,0,0,1,.41,1.48c.49,3.77.15,7.74,2.6,11.06,1.26,1.81,3.3,3,4,5.26a3.15,3.15,0,0,1-1.84,3.29,8,8,0,0,1-2.48.31,96.74,96.74,0,0,1-12.85.37,13.68,13.68,0,0,0-5.68,1.48c-5.12.29-10.24.17-15.35.08-6.52-.75-13-1.61-19.58-1.88-6.87-.27-7.74-1.1-6.85-7.84a18.33,18.33,0,0,0,.06-2.46,131.34,131.34,0,0,0-7.26-45.79c-4.16-12.21-10.14-23.78-20.17-32.58-4.57-2-14-.14-16.89,3.53-2,2.47-1.62,4.92.43,7.18,2.46,2.71,5.24,5.11,7.6,7.92,7.46,8.87,9.22,19.68,10.19,30.61.8,9.13-.35,18.29-.61,27.44-.12,4.4-1.93,5.71-6.14,4.75a240.92,240.92,0,0,1-65-25.54c-12.85-7.27-22.56-17.87-32.81-28a7.32,7.32,0,0,1-2.53-4.75c-.48-8.94-2.74-17.57-4.2-26.34-2-12.11-4.76-24-7.08-36.09-3.07-15.89-5.62-31.9-8.66-47.81-1.8-9.41-3.7-18.83-6-28.17a225.81,225.81,0,0,1-4.92-24.33c-1.13-8.55-2.6-17.17-5.49-25.26-3.45-9.66-4.44-19.69-6.42-29.58q-3.32-16.49-6.57-33c-3.74-18.84-8-37.6-11.08-56.56-2-12.46-5.33-24.59-7.88-36.89-1.88-9.07-3.23-18.3-5.52-27.27-3.53-13.79-5.52-27.89-9.14-41.64-.65-2.48-.72-5.46-3.87-6.51Z" style="fill:#dedee0"/><path d="M920.77,2352.73c2-16.51,12.51-27.63,24.59-37.39,21.34-17.23,46.17-27.68,72.11-35.66a367.7,367.7,0,0,1,118.67-16.52c27.07.73,53.78,4.19,79,14.86,9.42,4,18.13,9.15,25.32,16.59a35.84,35.84,0,0,1,8.17,12.43l-6.78,9.94a3.62,3.62,0,0,1-.23,1.69c-3.53,14.86-5.7,30-8.15,45-1.5,9.26-3.65,18.54-5.19,27.83-2,11.79-4.43,23.48-6.36,35.28-1.87,11.47-4.33,22.85-6.14,34.32-1.27,8-2.18,16.1-3.22,24.14-1.34,10.32-3.82,20.53-5.94,30.76-3.1,14.93-5.32,30-7,45.24-1.1,9.82-2.61,19.68-5.77,29.27-3.7,11.19-4.92,23-6.91,34.64-2.39,13.9-6,27.66-7.37,41.64-1.13,11.43-4.93,22.44-4.66,34,.08,3.12-1.31,5.81-2.16,8.66-.13.52-.25,1-.35,1.57-3.17,6.81-5.51,13.76-4.77,21.51.27,2.91-2,4.89-4.27,6.33-6.82,4.21-12.81,9.49-19.09,14.41a6.77,6.77,0,0,1-1.42.72,93.43,93.43,0,0,0-14,6.29c-10.91,6.3-23.44,8.14-34.92,12.88-4.9,2-10.16,3-15.31,4.27-5.9,1.42-8.66-.34-9.17-6.31-1.13-13.38-.41-26.52,6.33-38.67,1.35-2.45,3-4.77,3.71-7.57a5.78,5.78,0,0,1,.75-1.38,10.35,10.35,0,0,1,2.86-2.63c6.65-3.27,8.06-8.86,7.07-15.57-.55-5.07-4.28-6.28-8.43-6.93-7.29-1.15-12.69,2.54-18.07,6.76-5.07,4-7.59,9.65-10.3,15a88.58,88.58,0,0,0-9.43,38.88,35.17,35.17,0,0,0,3.52,15.9c2.5,5.27.38,8.24-5.42,9.4-14.69,2.94-29.51,1.81-44.29,1.86-6.29,0-12.38-2.16-18.72-2.45-2.89-.13-5.9-1.85-4.62-5.59,3.65-10.68,2.51-21.73,3-32.66a6,6,0,0,1,.42-1.49c4.64-7.16,8.53-14.77,12.58-22.29a8.31,8.31,0,0,1,1.7-2.13,10.23,10.23,0,0,0,3.61-3.55,11.41,11.41,0,0,1,.72-1.09,8.64,8.64,0,0,0,2-6.09c.24-2.88-.41-5.23-3.59-6.1a9.74,9.74,0,0,1-1.21-.7c-5.59-3.39-14.92-2.85-19.83,2-6.71,6.65-12.37,14.19-15.26,23.43a7.49,7.49,0,0,1-.62,1.35c-8.38,13.36-9.24,27.06-1.93,41.15a6.73,6.73,0,0,1,.58,1.42c1.29,8.08.41,8.78-7.12,6a188.15,188.15,0,0,1-21.43-9.31c-9.15-4.8-16.56-11.9-20.38-21.71-2.58-6.62-2-13.82-.45-20.63,2.77-12.15,10.77-21,19.54-29.31,4.47-4.22,8.71-8.68,13.62-12.41a6.58,6.58,0,0,1,1.25-.82A76.28,76.28,0,0,0,959,2671.83c7.17-4.26,13.44-9.76,20.22-14.55a13.29,13.29,0,0,0,6-11.9c-.37-13.32.23-26.64.48-40,.33-17-2.46-33.78-4-50.64-1.13-12.59-2.79-25.1-4.48-37.62a531.66,531.66,0,0,0-11-55.19c-5.75-23.52-15.31-45.62-24.62-67.81-3.72-8.87-9-17-12.59-26a34.39,34.39,0,0,1-2-5.64,14.3,14.3,0,0,0-6.33-9.73Z" style="fill:#dedee0"/><path d="M485.57,1267.14c-.64-20.84,10-35.51,26.95-46.11,6.2-3.87,14-4,21-5.76,23.32-5.65,45.83-13.64,68.21-22.15q32.84-12.46,64.53-27.56c26.27-12.5,51.92-26.22,77.22-40.63,22.7-12.92,44.92-26.61,66.77-40.87,16-10.44,31-22.31,46-34.22a447.1,447.1,0,0,0,46.79-42.68c10.67-11.3,20.52-23.17,25.37-38.31.75-2.35,2.44-3.44,4.41-4.41,12-5.93,24.21-4.92,36.26-.48,26.12,9.63,43.85,28.74,57.85,51.92a142,142,0,0,1,18.42,50.18c.68,4-.31,6.93-4,9.22-20,12.23-38.49,26.61-56.71,41.32-7.22,5.84-14.18,12-21.1,18.22-1.86,1.67-3,2-4.83.07-14.36-15.23-32.81-16.87-52-15a111.84,111.84,0,0,0-55.71,21.1c-6.34,4.61-12,10.08-15.84,17.06a14.71,14.71,0,0,1-3.77,4.59c-12,9.43-18.75,22.13-20.52,36.95-2.31,19.26-4.31,38.64-4.85,58a328,328,0,0,0,2.3,47.25c1.35,11.53,2.34,23.11,3.27,34.69,1.29,16.2,3.23,32.34,4.6,48.51a222.66,222.66,0,0,1-.15,40.41c-1.13,11.41-2.58,22.75-6.31,33.66-4.63,13.5-12.5,23.58-27.18,27.23-6.78,1.69-13.26.43-19.76-.57-34.32-5.29-66-18.41-97.18-33.08A470,470,0,0,1,587.42,1409c-23.55-17.29-45.06-36.72-63.86-59.19-11.48-13.72-21.73-28.14-29.06-44.46C489.09,1293.29,485.18,1280.79,485.57,1267.14Z" style="fill:#444352"/><path d="M1843.36,1376c-.25-15.89,2.3-33,3.91-50.19.84-9.09,1.39-18.21,2.13-27.31,1.26-15.56,3-31.09,3.71-46.67.7-15.38,1.48-30.77-.29-46.23-1.41-12.18-1.84-24.49-3.39-36.68-2-15.46-8.48-28.52-20.84-38.38a10.77,10.77,0,0,1-2.7-2.9c-8.07-14.35-21-22.93-35.45-29.5-15.42-7-31.56-11.31-48.64-10.9a73.11,73.11,0,0,0-23.47,4.06,10,10,0,0,1-10.27-1.41c-25.5-19-53.38-34.09-81.37-49-.14-.08-.27-.2-.41-.27-12.16-6-12.26-6-8.8-19.42,5.72-22.09,16.38-41.55,31.18-58.92,11.58-13.59,25.32-24,42-30.22,12.22-4.54,24.55-5.61,36.71.48,1.82.91,3.47,1.91,4.12,4.06,4,13.22,12,24.07,21.18,34a413.82,413.82,0,0,0,42,39.78c16.74,13.68,33.73,27,51.55,39.23,17.27,11.85,35.16,22.75,53.17,33.46,30.45,18.11,61.62,34.92,93.58,50.19,27.28,13,55.27,24.41,83.65,34.84,21.4,7.86,43.45,13.36,65.48,19.12,12.85,3.36,21.48,13.17,27.2,24.78,8.8,17.84,5.78,35.93-.77,53.72-8.12,22-21.84,40.47-37.13,58-22.74,26-49.16,47.63-77.84,66.62a491.51,491.51,0,0,1-95,49.1,412.39,412.39,0,0,1-51.33,15.73,168.56,168.56,0,0,1-27.56,3.76c-12.84.9-19.47-7.66-24.43-17.86C1845.58,1420.94,1843.29,1399.4,1843.36,1376Z" style="fill:#444352"/><path d="M2400.34,1894.09c2.17,5.73,7.07,9.65,9.81,15a355.33,355.33,0,0,1,26.57,68.47,415.69,415.69,0,0,1,13.12,69.09c1.8,18.58,3.15,37.15,2.58,55.78-.68,22.42-2,44.81-5.75,67-2.19,12.75-4.28,25.57-7.67,38-1.95,7.18-4.77,14.56-6.45,21.58-2.83,11.86-7.24,23-11.28,34.34-5.91,16.51-13.49,32.37-21.61,47.95a414,414,0,0,1-54.18,79.7c-6.07,7-12.89,13.52-19.52,20.06-7.1,7-14.19,14.06-21.74,20.58-12.26,10.6-25.6,19.68-39.28,28.48A297.74,297.74,0,0,1,2200.4,2491c-5,1.73-10,3.56-15.66,3.87-1.88.11-5.11,2.19-7.81,2.71-9.21,1.79-18.74,2.68-27.75,4.57-10.19,2.14-20.91-.23-30.67,4.51-3.5,1.71-7.62-.32-11.23-1.07a194.94,194.94,0,0,0-26.89-3.49c-20.2-1.27-40.25-4-60.42-5.34-20.79-1.4-41.47-4.29-62.21-6.36a170.57,170.57,0,0,1-18.29-2.33c-2.59-.54-5-.67-4.44-4.42.52-3.26.63-6.06,5.47-5.69,17.68,1.33,35.09-1.66,52.19-5.42,29-6.39,56.42-17.51,82.29-32.28,33.58-19.17,62.69-43.71,88.48-72.44,26.73-29.77,48.41-62.85,65.89-98.72a469.73,469.73,0,0,0,32.48-88.85c2.1-8.14,2.16-17,7.17-24.34-.4-14.51,3.86-28.44,5.5-42.72a455,455,0,0,0,2.42-77.73,442.41,442.41,0,0,0-6-52.44c-1.32-7.41-2.76-15-2.56-22.71,1.94-1.35,3.47.15,5,.83,7.75,3.31,13.48,9.19,18.53,15.6a181,181,0,0,1,18,27.55c.84,1.58,1.29,3.83,3.57,3.64s2.5-2.45,2.9-4.18c2.78-12.17,5.67-24.3,10-36.06a80,80,0,0,1,5.35-11.81c2.3-4.12,4-4.43,8-2.14,7.09,4,12.54,9.81,18.21,15.44,2.65,2.63,5.12,6.49,9.56,5s4.76-6.13,5.36-10c2.12-13.49,4.21-27,9.24-39.78,3.48-8.85,9-16.66,12.78-25.4C2395.88,1896.65,2398,1895.17,2400.34,1894.09Z" style="fill:#444352"/><path d="M2400.34,1894.09c-3.37,3.83-5.23,8.58-7.9,12.81-11,17.38-15.4,36.67-18.05,56.64-.62,4.69-.86,10.31-6.21,12.23s-8.43-2.82-11.65-6c-5.32-5.28-10.47-10.66-16.88-14.76-3.63-2.32-5.53-1.73-7.35,2-6.07,12.36-9.55,25.54-12.71,38.84-.81,3.4-1.53,6.82-2.42,10.2-.44,1.71-.59,3.82-2.93,4.19s-3.77-1.27-4.55-3.14c-3.3-7.93-8.54-14.67-13.16-21.78-7.08-10.9-15.34-20.56-28.19-25-1.26-4-.61-8.46-3.07-12.15a27.2,27.2,0,0,1-2.88-10.06h0a82.66,82.66,0,0,1-4.94-16h0c-1.61-1.67-1.4-4-2-6-3.47-8.92-6.6-18-10.49-26.73a374.64,374.64,0,0,0-34.65-62.16,311.21,311.21,0,0,0-64-67.64,6.51,6.51,0,0,1,3.16-2.47c5.78-2.44,11.67-3.6,17.82-1.56,2.67.88,5.69-.16,8.2,1.52l1-.11a118.34,118.34,0,0,1,30,7.11,1.41,1.41,0,0,0,1,0,107.36,107.36,0,0,1,20,7c11.48,4.5,22.74,9.46,33.74,15.07,7.44,3.79,14.25,8.57,21.36,12.88,3.6,4.1,8.59,6.71,11.86,11.21,1.74,2.4,2.69,4.3.29,7-2.58,2.87-3,6.3-.42,9.52,2.92,3.63,6.86,3.1,10.39,1.55,7.52-3.3,9.68-11.69,5.49-19.9s-4.46-9.94-3.31-18.39c1.22.69,1.86,2.41,3.62,2,6.28,7.21,13.83,13,21.16,19.07,17.24,14.27,32.06,30.8,45.83,48.4C2386.05,1870.4,2392.31,1882.81,2400.34,1894.09Z" style="fill:#dedee0"/><path d="M829.6,1316.11l-4.54,12.52-.95-.09c-.45-5.51-.94-11-1.34-16.53-2-26.9-3.68-53.77-.35-80.72,1.63-13.18,1.32-26.58,5.07-39.5,2.66-9.22,7.72-17.12,12.41-25.39a60.89,60.89,0,0,1,25-24c21.59-11.57,44.35-16.85,68.82-11.26a24.11,24.11,0,0,1,2.81,1c5.22,2.35,9.93,5.1,12.3,10.86,1.08,2.62.77,4.31-1.08,6.16-3.3,3.28-6.58,6.59-9.88,9.88a533.32,533.32,0,0,0-55.92,66.2c-16.1,22.41-31,45.63-43.32,70.43C835.33,1302.33,832.74,1309.34,829.6,1316.11Z" style="fill:#737180"/><path d="M1786.48,1106.1c11,4.52,20.87,10.93,28.45,20.14,3.66,4.43,5.79,10.09,8.54,15.21,2.41,4.48,4.47,9.19,7,13.61,5.15,11.15,5.06,23.27,6.36,35.1.61,5.59.68,11.26,1.28,16.87.17,1.68.75,3.57-1.22,4.36-1.78.71-3.16-.69-4.31-1.89-4.17-4.33-7.46-9.38-11-14.19-8.53-11.56-18.86-21.51-28.5-32.07-19.22-21-40.65-39.73-62.93-57.46a15.56,15.56,0,0,1-1.88-1.64c-1-1.1-2.29-2.18-1.92-3.84.43-1.89,2.31-1.73,3.68-2,13-2.45,25.82-1.18,38.55,1.69A104.81,104.81,0,0,1,1786.48,1106.1Z" style="fill:#727180"/><path d="M992.77,2720.09l-1.3,1.74c-5.36,6.75-8.66,14.71-13,22.09h0c-1.55,5.87-.78,11.87-1,17.81-.22,6.81-.89,13.53-4.5,19.61a12.1,12.1,0,0,0,7.05,2.32c8.75.63,17.29,2.81,26.2,2.41,12.41-.55,24.87.31,37.21-2.06,5.1-1,6.54-2.63,4.1-7.38-6-11.59-4.13-23.43-1.89-35.42a80.86,80.86,0,0,1,11.33-27.92c4.74-7.61,10.58-14.24,20.15-15.7,6.69-1,11.87,2.19,13.55,7.94,1.47,6.64-.78,11.68-6.65,15a17.11,17.11,0,0,0-3.6,3.34h0c-3.21,7.26-7.85,13.87-9.63,21.79-2.23,9.91-1.63,19.8-.19,29.69.5,3.39,3.38,2.74,5.58,2.28a147.66,147.66,0,0,0,19.58-5.36c7.62-2.76,15.23-5.53,23-7.84,7-2.09,13-6.55,19.72-9.37,1.66-.69,3.37-1.32,5-2.12h0c7.31-4.86,14-10.58,21.08-15.7,1.29-.93,2.93-2.12,2.78-3.93a45.75,45.75,0,0,1,4.06-22.43h0c4.37-13.27,4.71-27.24,7.08-40.85,1.41-8.13,2.58-16.31,4.19-24.4,2.44-12.19,4-24.54,6.79-36.65,1.84-7.89,3.72-15.8,5.55-23.67,2.14-9.27,3.31-18.9,4.51-28.43,1.14-9,2.61-18,4.09-27,2-12.42,5.27-24.58,7-37.06,2.16-15.2,4.41-30.39,7.34-45.5q5.33-27.53,9.68-55.27c1.43-9,3.34-17.9,5-26.83,1.73-9.57,3.23-19.23,4.85-28.85a149.22,149.22,0,0,1,3.89-18.44l.43-1c2.74,6.05.48,12.23-.78,17.85-3.16,14.08-4.72,28.4-7.65,42.47-3.3,15.88-5.73,31.91-8.41,47.87-1.58,9.39-2.73,18.92-4.44,28.33-2,11.23-4.3,22.42-6.26,33.66q-2.73,15.65-5,31.36c-1.16,7.78-2.88,15.54-4.21,23.33-2.93,17.12-5.55,34.3-8.64,51.4-1.89,10.49-4.66,20.83-6.59,31.32-3,16.27-5.21,32.69-8.47,48.9-3.18,15.8-3.34,32.36-11.16,47.06-1.64,3.08-.09,5.95.49,8.73a8.59,8.59,0,0,1-2.85,8.89,126.1,126.1,0,0,1-25.35,18.32c-20.19,10.72-41.67,18-63.59,24.14-1.42.4-3,.19-4.44.54-7,1.68-6.88,1.71-7-5.37-.15-9.43-1.77-18.8,0-28.28,2-11.25,6.27-21.33,14.93-29,6.55-5.77,8.11-9.61,4.11-14.53-2.81-3.46-6.28-4.86-11-3.15-6.87,2.48-11.33,7.44-15,13.27-5.27,8.45-9.39,17.22-11.39,27.28-1.54,7.76-1.45,15.34-1.63,23.05-.15,6.18,2.43,11.38,6.18,15.89,2.72,3.27,1.76,4.51-1.72,5.31a159.24,159.24,0,0,1-24.58,3.15c-7.79.55-15.66,0-23.49.16-14.51.25-28.51-2.77-42.65-5.67-14.9-3.07-28.62-8.2-41-17-9.18-6.53-15.57-15.19-17.36-26.34-1.61-10.09,1.87-19.47,7.25-27.86a100.86,100.86,0,0,1,39.63-36.23c10.31-5.23,18.92-12.86,28.44-19.21,3.94-2.63,5.64-6.49,5.47-11.57-.53-15.47,1.51-30.9.9-46.39-.49-12.59-2.17-25-3.74-37.54-1.3-10.34-1.88-20.78-3.37-31.09-1.72-11.94-2.8-24-5.49-35.78-3-13.35-5.79-26.76-9.4-40-3.52-12.92-8.28-25.39-13.07-37.9-6.31-16.47-14.59-31.95-22.1-47.82-2.45-5.17-2.64-11.32-6.7-15.82,4.25.93,6,3.88,7.28,7.85a134.84,134.84,0,0,0,12.06,27.2,48.79,48.79,0,0,1,3.6,7.1c9.66,25.23,20.57,49.92,26.39,76.6s9.45,53.59,12.9,80.6c3.89,30.46,4.28,61,3.72,91.61-.13,7-2.62,12.16-8.33,15.9C971.68,2664,966,2669.79,958.6,2673c-5.28,4.28-11.31,7.38-17.1,10.84h0c-12.36,10.12-25,20.13-31.66,35.2-4.73,10.71-5.76,21.91.6,32.49A42.55,42.55,0,0,0,929,2768.42c7.19,3.35,14.26,7.09,21.9,9.46,2.05.64,4.32,2.06,6.13.42,1.64-1.47-.77-3.27-.73-5.06a4.12,4.12,0,0,0-.67-2.36h0c-6.69-14.63-6.2-28.93,2-42.88h0c3.16-8.69,8.46-16.14,14.44-22.94s16.44-7.65,22.42-3l0,0c1.13.67,2.43,1.14,3,2.46,1.54,4,1.57,7.85-.89,11.52v0A36.13,36.13,0,0,1,992.77,2720.09Z" style="fill:#2b2a31"/><path d="M1563.44,2297c1-.08,1.82-2.21,2.88.82a154.82,154.82,0,0,1,4.73,18.22c3.66,16.6,7.23,33.21,11,49.78,2.56,11.38,5.9,22.61,7.81,34.09,1.82,10.93,3.34,21.9,5.61,32.76,2.84,13.6,5.21,27.3,8.26,40.84,3.26,14.47,4.57,29.32,8.27,43.65,2.48,9.59,5.88,19,7.13,28.84s3.57,19.54,5.88,29.1c2.13,8.82,4.16,17.65,5.63,26.57,2.31,14.05,5,28.06,7.46,42.07,2.18,12.26,6.12,24.36,7.55,36.74,1.39,12,5.32,23.53,6,35.61,0,1,.16,2.29.78,2.78,5.61,4.43,8.55,11.52,15.08,15a10.32,10.32,0,0,1,2.33,1.85c13.18,13.24,30,20,46.87,26.84,11.21,4.52,22.46,8.6,34.31,11,2.62.52,4.72.63,4.6-3-.39-11.26,1.71-22.42.17-33.81-1.51-11.22-5.54-20.61-13.51-28.51-9-8.88-8.35-10.91,3.42-15.75,4-1.65,7.52-2.39,11.18.3a1.48,1.48,0,0,1-2.27.12,18,18,0,0,0-11,2.18c-4.93,2.55-5.52,5.63-1.72,9.84,2.46,2.71,5.15,5.22,7.45,8.06,7,8.57,8.32,19.13,9.12,29.48s.11,21,.14,31.44c0,3.11-1.14,4.17-4.31,3.37-26.71-6.74-52.38-16.1-75.57-31.18-10.91-7.09-19.76-16.72-28.37-26.46a5.24,5.24,0,0,1-1.51-4.08c1.17-12.39-3-24.06-5.5-35.81-5.39-25.5-9.41-51.25-14.65-76.77-4.78-23.27-9-46.72-15-69.66-4.55-17.23-6.56-34.83-10.35-52.14-3.48-15.89-7.27-31.73-10.12-47.74-1.48-8.33-2.67-16.73-4.37-25-3.26-15.95-6.78-31.84-10-47.79-2.18-10.73-5.26-21.25-7.06-32.07-1.44-8.66-3.56-17.22-5.32-25.83A13.8,13.8,0,0,0,1563.44,2297Z" style="fill:#9f9ea3"/><path d="M832,2660.74c-7.32,0-14.65.09-22,0-6.15-.1-7.33-1.34-7.42-7.35-.08-5.49-.15-11-.1-16.48.08-8.71,3.66-15.7,10.47-21.11,3-2.38,5.89-4.89,8.81-7.36,3.56-3,4.16-6.86,2.14-10.74s-6-4.87-9.94-3.46c-12.68,4.51-28.67,17.05-28.19,36.1a215.86,215.86,0,0,0,1.6,22.87c.73,5.49.38,6-5.33,5.91-7.16-.07-14.32-.38-21.47-.21a19.75,19.75,0,0,1-16.22-7.47c-9.4-11.37-16.16-23.74-14.83-39.47,1.12-13.27,10-25.3,23.18-27.67,9.19-1.66,17.31-5.56,25.78-9,15.69-6.32,31.14-13.29,47.27-18.53,10.73-3.49,21.59-6.72,31.79-11.67,3.68-1.78,5.41-.35,6.74,3,4.38,11.16,10.18,21.67,15.34,32.47,1.17,2.43,1.95,4.51-1.39,5.46-12.26,3.49-17.37,13.77-22.45,23.87-6,11.94-5.9,24.73-4,37.59a16,16,0,0,0,5.45,9.85c.71.63,2,1.08,1.7,2.24-.37,1.48-1.83,1.2-2.93,1.2-8,0-16,0-24,0Z" style="fill:#89898e"/><path d="M1894.22,2767.81c4.77-4.24,10.72-6.56,16.08-9.84,5.84-3.58,11.77-7.43,15-13.55a41.27,41.27,0,0,0,4.37-26.27c-2-13.13-10.73-21-19-29.76-14.4-15.28-32.57-24.13-51.48-31.93a37.93,37.93,0,0,0-8.49-2.56c-11.09-1.79-17.63-9.72-23.28-18.07-2.83-4.19-4.2-9.9-4.69-15.06-2.37-25.07-2-50.27-.83-75.35a288.18,288.18,0,0,1,5.77-46.33c2-9.4,3.18-19.09,4.93-28.59a281.22,281.22,0,0,1,11.89-43.95c3.4-9.44,5.94-19.2,9.1-28.73,2.34-7,5.06-13.94,7.6-20.9,6.16-16.9,16.25-31.68,25.29-47,.23-.38.78-.57,1.17-.84-.93,6.7-5.18,11.85-8.57,17.27-10.77,17.18-17.83,36-24.41,55-6.47,18.68-11.63,37.76-16.95,56.78a182.34,182.34,0,0,0-5.21,26.92c-1.07,8.72-2.6,17.4-4.2,26.05a305,305,0,0,0-4.74,47.61c-.65,24.1-1.92,48.37,4.11,72.08,2.27,9,8.19,16.22,17,18.62,13.46,3.67,25.95,9.37,38.18,15.62,16.18,8.25,30.37,19.59,40.89,34.36,13.2,18.53,13.36,37.28-2.83,53.25a73.91,73.91,0,0,1-24.11,15.48A2,2,0,0,1,1894.22,2767.81Z" style="fill:#9e9ea3"/><path d="M1961.44,2576c-5.87-5.85-10.21-13-16.3-18.76-5.78-5.48-12.25-9.39-19.85-10.74-5.15-.92-4.43-3.57-3.28-6.58,2.25-5.9,4.78-11.69,6.34-17.83.9-3.55,2-7,2.81-10.61.76-3.42,2.63-4.4,5.81-3.21,6.06,2.28,12.06,4.72,18.19,6.81,18.39,6.29,36.87,12.32,55.23,18.7,13.31,4.64,26.21,10.73,39.8,14.21,9.94,2.54,15.85,8.45,20.89,16.21a39.94,39.94,0,0,1,6.67,26.54c-1.45,13.77-11.73,23.94-26.74,26-4.58.63-9.3.3-14,.29-3,0-4.32-1.6-4.65-4.66-1.71-15.63-7.63-29.91-15.48-43.26-3.93-6.67-9.51-12.45-17.19-15.39-5.49-2.09-9.94-1-12.37,3s-1.46,8.65,3.36,12.13c8.9,6.43,12.68,15.95,16.47,25.57,1.4,3.54,2.85,7.06,4.27,10.59a3.11,3.11,0,0,1,.22,3c-3.38.42-4.06-2.44-5.06-4.52a43.67,43.67,0,0,1-3.72-9.25c-2.13-9.8-8.37-16.8-15.12-23.55-2.23-2.23-4.56-4.42-5.26-7.71a11.79,11.79,0,0,1,13.32-13.85,26.83,26.83,0,0,1,16.65,9.09,96.15,96.15,0,0,1,23.29,51.36c.31,2.28,1.2,3.58,3.6,4a29.62,29.62,0,0,0,31.25-13.84c6.94-11.53,3.27-22.49-2.43-33.05-4.36-8.07-10.75-13-20.31-15.23-9.06-2.16-17.86-6.13-26.57-9.94-9.41-4.13-19.37-7-29.17-10.28-17.36-5.74-35-10.83-52-17.61-4.19-1.67-6-.89-6.79,3.54a108.39,108.39,0,0,1-5.8,20.11c-1.21,3.08-.4,5.1,2.59,6.44,8.59,3.83,16.29,8.86,22.53,16.09,5.88,6.81,11.27,14,16.56,21.24,1.14,1.57,2.22,3.38,1.6,5.56-3.42,1.27-2.75-2.74-4.56-3.54l0,0C1965.31,2580.3,1963.22,2578.24,1961.44,2576Z" style="fill:#8b8b8f"/><path d="M1786.48,1106.1c-7.78-1.65-15-5.29-22.91-6.49-11-1.68-22.08-2.57-33.18-.54-1.12.2-2.63-.11-3.08,1.16-.57,1.59,1,2.37,2,3.09,9.89,7.56,19.38,15.57,28.57,24,14,12.75,28,25.36,40.44,39.73,8.35,9.65,17.64,18.49,25.34,28.74,3.19,4.23,6.38,8.48,9.71,12.6.83,1,1.76,3,3.48,2,1.24-.68.74-2.47.59-3.72-2-16.73-1.15-33.86-6.89-50.09a4.88,4.88,0,0,1,0-1.48c3.36,3.4,4.14,8,4.64,12.28,1.74,15.16,3,30.38,4.26,45.59.14,1.63,1.09,4.12-1.19,4.83-1.89.58-2.6-1.82-3.51-3a589.82,589.82,0,0,0-61.08-69c-15.19-14.65-31.25-28.3-47.78-41.42-1.15-.91-3.1-1.55-2.83-3.11.33-1.89,2.31-2.61,4.11-3.08a61.86,61.86,0,0,1,19.76-2c12.32.76,24.38,2.82,35.85,7.62C1784.09,1104.35,1785.66,1104.66,1786.48,1106.1Z" style="fill:#3f3e47"/><path d="M829.6,1316.11c2-10.25,7.08-19.22,11.8-28.35,10.37-20.08,22.77-38.89,35.57-57.48,10.08-14.64,21.38-28.27,32.66-42,11.64-14.16,24.43-27.17,37.32-40.13,2.65-2.66,1.69-7-2.45-10.37-2.52-2.06-5.29-3.81-8-5.7,6.63,1.23,13.76,7.94,14.85,13.93.34,1.84-1,2.7-2,3.76-10,10.66-20.34,21-30,32-16.4,18.69-31.87,38-45.62,58.9-9,13.73-18,27.51-26,41.79-5.88,10.38-11.14,21.1-16.71,31.65A15,15,0,0,1,829.6,1316.11Z" style="fill:#3c3b44"/><path d="M765.47,2560.72c7.06-5.28,15.78-6.82,23.56-10.47,19-8.95,39.39-14,59.07-21.08,7.19-2.58,7.52-4.25,4.95-11.21A580.19,580.19,0,0,1,831.17,2446q-4-17.51-7.56-35.06c-1.72-12.4-3.23-24.84-5.25-37.2a147.76,147.76,0,0,1-1.94-24.66l.53-.46.62.33c2,18.45,4.24,36.88,7.28,55.19a596.42,596.42,0,0,0,13.63,61.12c4.86,17.56,10,35.06,16.68,52.05.3.77.52,1.57.76,2.37,2.18,7.08,1.58,8.68-5.37,11.09-12.55,4.34-25.21,8.35-37.79,12.6-14.78,5-29.12,11.14-43.47,17.26-1.2.51-2.49.79-3.74,1.18C765.52,2561.46,765.49,2561.09,765.47,2560.72Z" style="fill:#474747"/><path d="M1943.14,2616.09c-15.82-1.13-32.8-1.33-49.78-1.34-1.82,0-4.15.43-5.18-1.12-1.24-1.87,1.06-3.22,2-4.58,9.39-13.21,15.91-27.92,22.52-42.6.41-.91.91-1.78,1.27-2.71,1.44-3.77,3.11-4,6.59-1.59,12.2,8.47,20.88,19.72,27.91,32.59,3.18,5.82,7.26,11.14,10.93,16.68,2.19,3.31,1.41,4.82-2.65,4.69S1948.45,2616.09,1943.14,2616.09Z" style="fill:#9a9a9e"/><path d="M863,2659.92c5.59-3,5.08-7.4,4.89-12-.64-15.5,3.95-29.47,13-42,.19-.27.38-.55.59-.81,6-7.39,8.28-7.3,13.33.55,7.92,12.28,15.38,24.87,24.66,36.23,3.88,4.74,8.41,8.94,11.63,14.24,1.76,2.89,1.76,4.81-2.18,4.81q-31.73,0-63.43-.15A12.85,12.85,0,0,1,863,2659.92Z" style="fill:#89898e"/><path d="M1894.22,2767.81l2.54.24c-12.82,6.89-26.55,10.95-40.83,13.4-18.71,3.21-37.48,4.79-56.43,2.54-1.46-.18-3,.06-4.32-.89,4.82-1.24,9.66-.72,14.51-.25h15.6c5.36-1.85,11-.35,16.42-1.39.93-.18,2,.21,2.78-.56l1.78-.06c2-1.36,4.27-.85,6.48-.53.65-.17,0-.54,0-.49-2.36,1.16-3.81-.74-5.53-1.76a10.63,10.63,0,0,1-3.73-4.06c-2.16-3.73-2.13-8-3-12.05l0,0a46.87,46.87,0,0,1,.23-14.23,28.79,28.79,0,0,0-2.44-17.75l-2.88-9.79a2.58,2.58,0,0,1,0-2.37c2.66-.08,3.17,2.16,3.9,3.88,3.86,9.13,6.47,18.43,4.9,28.6a45.64,45.64,0,0,0,1.06,17.85c1.13,4.66,4.21,7.84,7.79,8.07,4.45.29,6.47-2.87,8.22-6.17,4.41-8.32,4.47-17.27,3.5-26.31-.92-8.48-2.59-16.77-6.77-24.36a5.78,5.78,0,0,1-1-3.81c2.06-1.91,2.52.37,3.47,1.34l3,6.11c1.87,1.56,1,4.07,2,5.91a22.13,22.13,0,0,0,2,9.88c1.89,9.11,2.36,18.17-1,27.07-1,.8-.74,2-1,3-.8,1.29-1,2.86-2,4.07l0,0c-1,1.17-1.9,2.71-1,3.93.71,1,2.63,1,3.73.28,1.66-1,3.64-.16,5.18-1.27l16.89-6a17.47,17.47,0,0,1,4.06-1.84Z" style="fill:#9a9a9f"/><path d="M844.5,2036l2.13-3c-1.24,5.48-2.34,11-3.74,16.43q-9.63,37.31-16,75.28c-3.27,19.56-7.35,39.09-7.45,59.08a7.69,7.69,0,0,1-.82,2.27c-1.1-3.43-.59-6.87-.15-10.32-.5-13.24,2.64-26.09,4.43-39.07s4.22-25.9,6.79-38.76c2.8-14,5.95-27.95,9.19-41.87C840.46,2049.29,842.61,2042.68,844.5,2036Z" style="fill:#424242"/><path d="M818.47,2175.74l.15,10.32v0c-1.4,1.84.16,4.17-1,6l0,0c-1.52,2.92.24,6.2-1,9.15,0,.61,0,1.21,0,1.82-1.09,1.68-.51,3.56-.54,5.34-.23,18.37-2.9,36.65-2.33,55,.5,15.89-.5,31.8.88,47.67a1.75,1.75,0,0,1,0,.85c1.25,4.3-.48,8.83,1,13.11l0,0c1.27,3.26-.44,6.81,1,10.06a1.79,1.79,0,0,1,0,.86,43.45,43.45,0,0,1,0,13l-.25.22c-.94-8.56-2-17.12-2.8-25.7-1.73-18.73-1.74-37.56-1.69-56.33a710.65,710.65,0,0,1,5.87-89.49A9.12,9.12,0,0,1,818.47,2175.74Z" style="fill:#474747"/><path d="M1754.53,2692.93l2.27-.12c8.28,7.28,13.57,16.58,17.8,26.56,4.35,10.24,6.35,21,8.41,31.93,1.27,6.64,1.19,13.08,1.49,19.64-1.2,1.59-.15,3.53-.89,5.26-1.52,3.58.68,4.85,3.71,5.22,1.8.21,3.64,0,5.46.06,1,0,2.1,0,1.73,1.59-3.49,0-7-.19-10.48,0s-4.15-1.51-3.35-4.32c4.3-15.1-.34-29.64-3-44.22-2-11.1-7.65-20.81-13.45-30.36A37.76,37.76,0,0,0,1754.53,2692.93Z" style="fill:#9a9a9f"/><path d="M2011.38,2608.09c0-1.05,0-2.09.08-3.14.22.25.54.46.65.74,5,13.34,6.37,12.62-8,12.15-7.13-.24-14.27-.61-21.4-.88-2.46-.09-4.87-.31-5.16-3.43-1-10.51-5.73-19.59-10.64-28.64a10.31,10.31,0,0,1-.62-1.85c2.25.39,2,3.38,4.15,3.92,1.87.39,2.57,1.92,3.31,3.41,3,5.93,5.82,11.91,7.06,18.48.59,3.1,2.2,4.65,5.37,4.68,6.79,0,13.59-.23,20.35.1C2011.06,2613.86,2010,2610.14,2011.38,2608.09Z" style="fill:#77767c"/><path d="M814.63,2311c-1.68-1.44-1-3.41-1-5.15-.07-9.64.65-19.34-.23-28.9-1.09-11.79.31-23.45.39-35.17.07-12.21,2.2-24.37,1.88-36.65,0-.71.63-1.44,1-2.16-.39,27.21-3.18,54.35-2.19,81.61C814.75,2293.38,814.58,2302.2,814.63,2311Z" style="fill:#424242"/><path d="M2206.47,1764c-10.09-2-20.14-4.21-30-7.11,1.2-1.91,3.09-1,4.45-.71,7.84,1.72,15.63,3.69,23.44,5.56C2205.58,1762,2206.48,1762.57,2206.47,1764Z" style="fill:#5f5f60"/><path d="M2269.5,2084l0-43a106.42,106.42,0,0,1,1.45,30.42C2270.49,2075.61,2271.63,2080,2269.5,2084Z" style="fill:#3f3e3f"/><path d="M2175.47,1757a33.53,33.53,0,0,1-10.6-1.16,14.4,14.4,0,0,0-10.08.63c-1.56.69-3.55.41-5.34.57.16-2.32,2.09-2.41,3.61-2.57a81.37,81.37,0,0,1,20.62.55A1.93,1.93,0,0,1,2175.47,1757Z" style="fill:#5f5f60"/><path d="M2227.45,1771a76.84,76.84,0,0,1-20-7c2.92-2.5,5.41.46,7.53,1.27C2219.2,1766.92,2224.52,1766.56,2227.45,1771Z" style="fill:#5f5f60"/><path d="M1794.51,2783.07c-1.55-1.89-3.69-1-5.57-1.09-6.3-.19-7-.91-5.63-6.93.31-1.39-.29-3.06,1.19-4.11.07,9.15.14,8.7,9.62,10.24,5.2.84,10.55-.34,15.57,1.67l-14.51.25-.34.13Z" style="fill:#9e9ea3"/><path d="M2257.45,1922a43.12,43.12,0,0,1,4.94,16c-.57-.25-1.58-.4-1.65-.75C2259.69,1932.2,2255.89,1927.67,2257.45,1922Z" style="fill:#58585a"/><path d="M2269.35,2037.1c-.67-8.35-2.49-16.62-1.95-25.06A79.72,79.72,0,0,1,2269.35,2037.1Z" style="fill:#3f3e3f"/><path d="M2267.4,2012c-2.12-6.49-2.28-13.28-3-20C2267.26,1998.44,2267,2005.29,2267.4,2012Z" style="fill:#3f3e3f"/><path d="M2262.39,1938.06c2.07,3,2.56,6.53,2.88,10.06C2262.42,1945.31,2260.45,1942.25,2262.39,1938.06Z" style="fill:#58585a"/><path d="M1864.46,2800.88c-4.11,2.17-8.57,2.15-13,2A45.1,45.1,0,0,1,1864.46,2800.88Z" style="fill:#3f3f3f"/><path d="M816.67,2348.89q0-6.51,0-13c1.77,4.27.67,8.75,1,13.12A4.58,4.58,0,0,1,816.67,2348.89Z" style="fill:#424242"/><path d="M2255.41,1916.05a7,7,0,0,1,2,6C2254.12,1920.93,2254,1918.77,2255.41,1916.05Z" style="fill:#58585a"/><path d="M815.63,2325c-2.27-4.22-.56-8.75-1-13.11C816.42,2316.12,815.3,2320.6,815.63,2325Z" style="fill:#424242"/><path d="M2264.36,1992.07a34.63,34.63,0,0,1-1.84-10.08C2265.36,1984.94,2264.42,1988.59,2264.36,1992.07Z" style="fill:#3f3e3f"/><path d="M2262.32,1980.13a21.21,21.21,0,0,1-1.94-10.08A15.37,15.37,0,0,1,2262.32,1980.13Z" style="fill:#3f3e3f"/><path d="M1961.44,2576c2.7,1.64,4.66,3.78,4.92,7.11A20.15,20.15,0,0,1,1961.44,2576Z" style="fill:#77767c"/><path d="M816.6,2335c-2.08-3.18-.61-6.71-1-10.06C817.37,2328.15,816.31,2331.64,816.6,2335Z" style="fill:#424242"/><path d="M816.64,2201.16c.33-3-1.09-6.29,1-9.15C817.34,2195.07,818.27,2198.25,816.64,2201.16Z" style="fill:#424242"/><path d="M753.6,2568c1.1-2.1,3-2.85,5.22-2.91A8.46,8.46,0,0,1,753.6,2568Z" style="fill:#474747"/><path d="M748.58,2571c1.09-2,2.93-2.71,5-3A6.6,6.6,0,0,1,748.58,2571Z" style="fill:#474747"/><path d="M817.62,2192.05c.25-2-.88-4.28,1-6C818.43,2188.05,819.19,2190.25,817.62,2192.05Z" style="fill:#424242"/><path d="M1962.35,2636.06l45.2,0c-1.45,1.16-3.16.73-4.77.74q-17.82,0-35.63,0C1965.53,2636.73,1963.83,2637.11,1962.35,2636.06Z" style="fill:#595959"/><path d="M1835.56,2717.76l-.21,2.46c-2.87-6.43-7.58-11.57-11.94-16.95-2.29-2.83-5-5.51-5.71-9.16-.77-3.91-.15-7.79,3.49-10.24a10.86,10.86,0,0,1,12.26-.26c7.8,4.87,14.62,10.88,19.08,19.17,2.56,4.76,5.27,9.44,7.91,14.16l-3.07-2c-2.56-.18-2.92-2.47-3.74-4.14a63.75,63.75,0,0,0-19.16-22.69,13,13,0,0,0-5.31-2.65c-5.2-1-8.87,2.73-7.63,7.93a18.45,18.45,0,0,0,4.74,8.1c3.15,3.43,6.32,6.89,8.38,11.13C1835.42,2714.23,1836.76,2715.8,1835.56,2717.76Z" style="fill:#9e9ea3"/><path d="M1838.23,2730c4,5,3.78,11.09,3,16.78-.67,5.1-.55,10.14-.81,15.2-2-3.38-1.37-7.24-.77-10.57C1841,2744.05,1839.94,2737.06,1838.23,2730Z" style="fill:#9e9ea3"/><path d="M1844.49,2780.91c-6.2,2.58-12.72,2-19.2,2,1.15-1.81,3-1.83,4.82-1.83C1834.9,2781,1839.7,2781,1844.49,2780.91Z" style="fill:#9e9ea3"/><path d="M1866.47,2765.91c2.45-8.94,2.22-18,1-27.06C1870.42,2748,1870.74,2757,1866.47,2765.91Z" style="fill:#9e9ea3"/><path d="M1871.48,2775.92c-3.56,2-7.52,2.2-12.1,2.87,1.35-2.55,2-4.7,4.18-5.81-.25,2.69,0,4.6,3.62,3.29C1868.48,2775.79,1870,2776,1871.48,2775.92Z" style="fill:#9e9ea3"/><path d="M1840.41,2762q1.53,6,3,12.05C1840,2770.61,1840.54,2766.2,1840.41,2762Z" style="fill:#9e9ea3"/><path d="M1847.18,2778.07c2.45-.17,4.09,1.7,6.2,2.78h-7.11C1846.87,2780,1847.57,2779.22,1847.18,2778.07Z" style="fill:#9e9ea3"/><path d="M1865.52,2729c-1.56-1.66-1.29-4-2-5.91C1866.21,2724.31,1865.3,2726.83,1865.52,2729Z" style="fill:#9e9ea3"/><path d="M1863.53,2773a5.1,5.1,0,0,1,2-4.07A3.71,3.71,0,0,1,1863.53,2773Z" style="fill:#9e9ea3"/><path d="M1892.43,2768.06a5.43,5.43,0,0,1-4.06,1.84A3.64,3.64,0,0,1,1892.43,2768.06Z" style="fill:#9e9ea3"/><path d="M1241.46,2318c.43,5.59-1.65,10.81-2.55,16.19-3.74,22.46-7.9,44.84-11.8,67.28-5.62,32.26-11.28,64.51-16.68,96.81-4.39,26.19-9.78,52.21-13.28,78.55-2.47,18.62-8.23,36.54-11.11,55.08-3.19,20.53-6.88,41-10.1,61.52-.94,6-.38,12.33-4.45,17.53,2.5-9,2.31-18.31,4-27.4,2.24-11.87,3.88-23.85,6-35.75,2.7-15.51,5.65-31,8.37-46.46,2.09-11.9,6.54-23.24,7.74-35.35,1.75-17.66,4-35.32,8.13-52.54,3.38-14.06,5.3-28.31,7.38-42.51,3.61-24.78,8.71-49.26,13.11-73.88,4.24-23.76,8.16-47.58,12.25-71.36C1238.93,2322.9,1239.24,2320.05,1241.46,2318Z" style="fill:#97979b"/><path d="M1090.16,2706.1c-3.14-7.76-11.56-10.22-19.41-5.7-4.44,2.55-7.69,6.31-10.61,10.38-11.41,15.87-16.16,33.7-15.33,53.09a28.84,28.84,0,0,0,4.72,14.57c2.59,4,.9,5.27-2.76,5.86-5.08.82-10.17,2-15.28,2.21-18.63.72-37.27,1.38-55.68-2.68-5.31-1.18-5.27-1.06-2.23-5.35s2.36-9.24,2.86-14c.62-5.94-.28-12,1-17.9.2-1,.13-2,1.06-2.69.06,11.62,1.07,23.34-2.89,34.6-1.1,3.11,1,3.48,2.93,3.77,6.38.95,12.77,2.3,19.18,2.43,15,.29,29.94,1,44.8-1.75,4.54-.84,6.18-2.86,4-6.69-4.18-7.32-4.35-15.21-3.74-23.21a91.06,91.06,0,0,1,8.52-32c4.14-8.8,9.23-16.65,17.94-21.76,5.33-3.12,10.73-3.29,16.28-1.5,3.72,1.19,6.28,3.71,6,8.1A.81.81,0,0,1,1090.16,2706.1Z" style="fill:#9b9a9f"/><path d="M955.65,2770.88c1.8,2.65,4.79,6,3.09,8.52-1.52,2.24-5.65.29-8.36-.77-13-5.08-26-9.82-36-20.37-9.18-9.73-10.72-20.92-7.67-33.28,2.79-11.28,10.34-19.55,17.92-27.7a151.75,151.75,0,0,1,12.14-11.07c1.32-1.14,2.58-2.73,4.73-2.34-4.86,4.72-9.67,9.5-14.59,14.15-8.66,8.18-16.72,17.08-18.87,29-1.93,10.76-.77,21,7.77,30.05,10.49,11.08,24.61,14.43,37.48,20.54,1.7.81,3.38.46,2.61-2.35A19.59,19.59,0,0,1,955.65,2770.88Z" style="fill:#949499"/><path d="M1143.57,2753a141.71,141.71,0,0,1-29.53,13.88c-12.45,4-24.53,9.21-37.47,11.64-6.66,1.25-6.7,1-7.3-5.78-1-11.15-1.69-22.26,2.37-33,2.16-5.68,4.77-11.19,8.87-15.83a6.48,6.48,0,0,1-1.07,4.69c-8.11,12.9-10.15,27.09-8.75,42,.56,6,1.75,6.85,7.54,5.57,9.87-2.17,19.17-6.2,28.85-8.86,11.72-3.23,22.27-8.86,33.09-14C1141.13,2752.81,1142.43,2753.06,1143.57,2753Z" style="fill:#97979b"/><path d="M957.61,2728c-1.45,4.88-2.8,9.8-4.38,14.64-2.28,7-1.25,13.76,1.16,20.45a19.39,19.39,0,0,1,1.26,7.79,31.68,31.68,0,0,1-5.67-25.13C951.19,2739.48,952.13,2732.62,957.61,2728Z" style="fill:#949499"/><path d="M1171.48,2710.92c0,.49.28,1.06.11,1.46a40.82,40.82,0,0,0-3.09,20.68c.16,1.52-.93,2.83-2.13,3.77-6.64,5.21-13.28,10.41-20,15.51-.69.53-1.86.44-2.81.64,5.44-6.12,12.24-10.55,18.93-15.09,2.49-1.68,4.54-3.54,4.11-6.8C1165.63,2723.71,1167.84,2717.16,1171.48,2710.92Z" style="fill:#97979b"/><path d="M994.47,2702.05c-9.3-4.36-18-1.91-24.29,6.49-4.64,6.21-8.39,13-12.57,19.45-.69-4.81,2.46-8.23,4.84-11.61,4.67-6.62,8.11-15,17.2-16.81C984.6,2698.6,990.39,2696.23,994.47,2702.05Z" style="fill:#949499"/><path d="M978.52,2743.92c2.76-8.27,6.75-15.83,13-22.09C987.56,2729.43,984.39,2737.47,978.52,2743.92Z" style="fill:#9b9a9f"/><path d="M1090.16,2706.1l1.35-.15c2.16,9.56-3.6,14.26-11,18,0-2.66,2.26-3.46,4-4.62C1089.29,2716.12,1091.61,2711.93,1090.16,2706.1Z" style="fill:#97979b"/><path d="M941.5,2683.87A88.1,88.1,0,0,1,958.6,2673,35,35,0,0,1,941.5,2683.87Z" style="fill:#949499"/><path d="M996.63,2716a14.31,14.31,0,0,0-.5-12c4-.39,2,3.53,3.46,4.93C999.78,2711.8,999.5,2714.45,996.63,2716Z" style="fill:#949499"/><path d="M999.59,2709c-1.73-1.23-.92-4.26-3.46-4.93a2.46,2.46,0,0,1-1.64-2C999.58,2701.84,999.72,2705.3,999.59,2709Z" style="fill:#9b9a9f"/><path d="M992.77,2720.09a7.1,7.1,0,0,1,3.85-4.07C996.46,2718.44,995,2719.66,992.77,2720.09Z" style="fill:#949499"/><path d="M986.25,2701.94c4.41-.7,6.78,2.25,8.62,5.8,2.06,4-.72,6.62-2.91,9.27-6.17,7.45-11.84,15.19-15.09,24.43a44.19,44.19,0,0,0-2.31,17.15,76.79,76.79,0,0,1-1,14.37c-.46,3.48-2.71,5.14-5.66,6.29-2.78,1.09-4.35-.9-6-2.49a10.74,10.74,0,0,1-2.64-3.56c-5.95-15.16-6.58-30.38,1-45.14,4.06-8,8.65-15.73,15.48-21.84C978.7,2703.57,981.86,2701.67,986.25,2701.94Z"/><path d="M830.06,2658c-6.36-.61-13.86.67-21.32-.8-2.13-.42-3.54-1-3.62-3.17-.4-10.87-2.67-22.13,4.32-31.84,3.75-5.22,9.76-8.22,14.4-12.68,3.32-3.2,5.82-6.56,4.22-10.77a11.66,11.66,0,0,0-10.65-7.7,11.44,11.44,0,0,0-5.83,1.11c-11.12,5.73-21.3,12.77-25.75,25.07a47.1,47.1,0,0,0-1.81,23.17c.68,4.44.15,9,1.44,13.36.7,2.36-.82,3.21-3.1,3.18-8-.09-16,.15-24-.22-5.41-.26-9.83-3.11-13-7.48-8-11-14.81-22.25-14.07-36.81.37-7.25,9.15-22.46,17.22-24.42,22.52-5.45,43.11-16.18,64.72-24.12,14.39-5.29,29.33-9.12,43.21-15.83,2.6-1.26,5.13-1.71,6.24,2,3,10.05,8.82,18.82,13.12,28.29,1.6,3.51,2.15,5.72-2.55,7.44-10.2,3.73-15,13.17-19.16,21.93a59.83,59.83,0,0,0-3.54,42.77c0,.16,0,.33,0,.49,1.75,7,1.75,7-6,7Z" style="fill:#dedee0"/><path d="M2011.38,2608.09c.29,1.29.59,2.58.88,3.87.48,2.14-.41,3.17-2.57,3.15-8.64-.09-17.28-.19-25.92-.24-3.15,0-3.76-2.2-4.15-4.61-1.35-8.44-5.42-15.8-9.15-23.3-1.62-7-7.14-11.49-11.14-16.89-5.92-8-12.23-15.8-21.12-20.86-3.14-1.78-6.24-4-9.65-4.84-4.47-1.12-3.67-4.21-2.72-6.48a122.14,122.14,0,0,0,6.64-22.82c.84-4,3.28-5.07,7-3.42,9.88,4.36,20.33,7.08,30.44,10.7,14.8,5.29,30,9.41,44.63,15.07,13.49,5.21,26.62,11.35,40.81,14.76,8.42,2,11.6,10.1,15.63,16.61,2.3,3.7,3.45,8.31,4.27,12.67,2.29,12.25-2.66,22.32-12.3,29-7.46,5.19-17,5.11-26,4.08-1.66-.19-2.34-1.44-2.5-3.21a81.23,81.23,0,0,0-10.26-32.85c-4-7.1-7.73-14-13.25-20.12-4.77-5.31-10.49-7.44-17-8.13-4.32-.46-7.64,2.09-9.43,6.07-1.87,4.17-1.47,8,2,11.39,2.75,2.64,5.29,5.57,8,8.14,7.4,6.92,8.46,16.69,12.3,25.2C2008.12,2603.65,2009.22,2606.17,2011.38,2608.09Z" style="fill:#dedee0"/><path d="M1952.83,2612.88c-18.62,0-37.24,0-55.86,0-4.61,0-5.83-1.88-3.08-5.41,9.58-12.31,14.53-27,21.25-40.74,1.31-2.69,2.58-3.11,5.39-1.44,11.81,7,18.54,18.33,25.14,29.6,3,5.17,7.35,9.42,9.78,15C1956.78,2612.86,1955.71,2613.82,1952.83,2612.88Z" style="fill:#dedee0"/><path d="M899.33,2658.94c-8.66,0-17.32,0-26,0-1.56,0-4.17.25-3.47-2.19,1.61-5.64-.57-11.15.27-16.84a84,84,0,0,1,9.61-28.51c.24-.44.47-.88.73-1.3,5.58-9.19,8.59-9.4,14.19-.51,7,11.06,13.38,22.48,22,32.45,3.13,3.64,6.35,7.21,9.49,10.85,1.2,1.39,2.75,3,2.08,4.81-.81,2.18-3.21,1.14-4.9,1.16-8,.1-16,0-24,0Z" style="fill:#dedee0"/><path d="M1835.56,2717.76c-1.57-6.25-6.37-10.35-10.11-15.15-.61-.78-1.47-1.37-2.1-2.14-4.07-5-4.54-11-1.17-14.57,2.88-3.06,8.38-2.47,13.55,1.56,8.66,6.75,15.59,14.9,20,25.08a15,15,0,0,0,1.66,2.44,75.42,75.42,0,0,1,9.24,39.2c-.18,7.2-1.68,14.23-6.38,20.05s-11.61,5-14.88-1.58c-3.61-7.29-3.38-15.21-2.52-23C1844.12,2738.1,1841,2727.7,1835.56,2717.76Z" style="fill:#040405"/></svg>