<svg id="Layer_7" data-name="Layer 7" xmlns="http://www.w3.org/2000/svg" viewBox="0 0 3000 3000"><title>body</title><path d="M894.29,2781.47a68.58,68.58,0,0,1-18.39-25.76c-5.53-12.93-6-26-1-38.93,4.09-10.52,8.56-21,16.81-29.26,1.77-1.76,4.1-3.53,3.66-6.86-2.05-2.25-4.89-1.5-7.38-1.48-40.65.3-81.31-1.32-122,.56-1.33.06-2.68,0-4,.17-24.46,3.43-39.29-10.48-51.17-28.94a65.18,65.18,0,0,1-10.75-32.88c-.8-18.8,9.5-42.86,32.78-49.6a28.35,28.35,0,0,0,5.44-2.49,451,451,0,0,1,85-34.64c5.11-1.51,10.05-3.55,15.1-5.26,4.85-1.64,5.76-4.58,4-9.3-5.07-13.75-10.29-27.45-14.22-41.6a721.58,721.58,0,0,1-18.8-90.89,783.07,783.07,0,0,1-7.8-142.5c1.5-37.94,5.66-75.66,11.41-113.24,7.73-50.54,20.74-99.74,35.93-148.41,5.15-16.51,10.91-32.91,19-48.32,2.69-5.16,2.78-9.55.05-15a414.36,414.36,0,0,1-36.07-103.48c-.63-3.14-.86-6.49-2.72-9.1-2.38-.43-3.34,1.1-4.36,2.33-8.92,10.76-18.13,21.28-26.12,32.79a72.73,72.73,0,0,1-6.4,7.64c-7.43,8.07-12.9,7.77-18.74-1.84a93.69,93.69,0,0,1-12.89-34.45c-4.61-30.11-6.28-60.32-1.18-90.56,2.26-13.45,4.85-26.85,7.57-40.22a77.58,77.58,0,0,0,.36-26.84c-4.28-29.75-4.91-59.69-5.91-89.68a422.11,422.11,0,0,1,4.06-72.61c1.39-10,5.85-19.07,7.8-28.88,1.43-7.13,1.62-7.29-5.38-8.15-15.21-1.88-27.71-9-38.62-19.37-14.77-14-25-31.08-33.38-49.38-13.41-29.26-21.7-60.09-27.77-91.57-10.92-56.53-14-113.71-13.15-171.12,1.31-84.24,11-167.49,31-249.41,8-32.71,18.52-64.61,29.48-96.44,4.4-12.79,12-16.17,23.22-17.24,11.42-1.09,22.6.35,33.65,3.25,22.08,5.79,42.63,15.22,62.4,26.43,52.39,29.67,97.73,68.12,138.82,111.83,23.57,25.08,45,51.88,62.86,81.32,12,19.72,22.33,40.17,26.43,63.24,1.12,6.28,2.37,6.8,8.08,3.73,12-6.47,24.39-12.26,36.7-18.18,31.7-15.22,64.85-26,98.83-34.65,54.94-13.92,110.64-20.48,167.34-18.47a600.59,600.59,0,0,1,194,39.55c19.85,7.58,39.88,15.2,58.1,26.55a9.69,9.69,0,0,0,2.73.75c2-2.42.2-4.52-.2-6.64a54,54,0,0,1,.76-22.8c4.21-17.73,12.37-33.73,21.68-49.18,16.93-28.1,37.31-53.56,59.66-77.49,37.21-39.84,77.69-75.89,123.47-105.74,19.86-13,40.65-24.18,62.89-32.58,11.1-4.19,11.12-4.15,16.28,6.26.89,1.78,2.1,3.48,2.59,5.37.66,2.55-1.36,3.4-3.38,4-49.79,16.79-92.41,45.71-131.85,79.47-48.25,41.31-92.68,86.26-126.23,140.84a128.26,128.26,0,0,0-11.12,22.35c-2.85,7.65-7.35,15.34-1.49,23.61a1.33,1.33,0,0,1,.22,1c-4.34,16.85,7.48,22,19.51,27.2,6.14,2.64,11.51,6.69,17.13,10.27,3.45,2.2,6.56,2.71,6.76-2.69,1.84-50.37,28.32-90.17,56.28-128.95,19-26.29,41.56-49.48,68.94-67.42a154.73,154.73,0,0,1,36.7-18c13.87-4.53,24.85-.25,33.66,10.71,14.63,18.2,23.82,39.32,31.43,61.06,13.72,39.16,22.09,79.55,26.62,120.79a594.92,594.92,0,0,1,4,70.74c-.28,31.08-3.76,61.69-11.91,92.17,7.21.46,13.16-2,18.66-6,3.5-2.57,6.92-5.51,11.55-1.8,4.44,3.57,5.94,8,4.15,13.33-4.08,12-11.19,21.86-22,28.78-1.35.86-3,1.42-3.75,3.62,9.42,8.47,13.43,20,16.14,32.09a22,22,0,0,1,.51,8.92c-.66,3.56-2.39,6.33-6.21,6.91-3.54.53-5.46-1.74-6.9-4.62-3-5.94-5.7-12-10.08-17.17,6.22,7.79,10.16,16.94,14.79,25.59,6.49,12.11.48,35.44-10.26,44.24-4.12,3.38-7.93,2.61-9.3-2.39-3.18-11.62-11.93-18-22.45-25.58,2.13,6.86,1.44,11.57-3.7,15.08-3,2-1.88,5.43-.55,8.21,8.69,18.08,15.09,37,20.83,56.17.67,2.22,1.8,5.85,3.78,5.31,9.24-2.49,10.41,3.53,13.36,9.89,2.25,4.82,7.91,2,11.38-.51a57.23,57.23,0,0,0,19-24c11.54-26.65,16.29-54.87,19.28-83.44,4.48-42.86,3.33-86,1.7-128.82-1.92-50.56-8.72-100.8-17.36-150.73-13.38-77.4-32.9-153.09-61.75-226.25-2.44-6.19-6.25-11.94-7.11-18.62-.65-5-1.22-11.16,7.44-7.63,11.47,19.64,19.06,41,27.91,61.83,6.24,14.68,12.1,29.76,16.29,44.89,14.52,52.52,28.41,105.25,37,159.21,11.55,72.88,19.2,146,16.75,219.93-1.19,35.69-4.56,71.15-13.61,105.86a176.87,176.87,0,0,1-10.39,30.2,125.91,125.91,0,0,1-8.53,15.81c-11.75,17.94-27.13,28.34-49.53,22.63-2.69,2.49-1.31,5.21-.88,7.67,3,17.06,6.24,34.06,8.11,51.3.61,5.6,1.2,11.32,5.42,15.78,2,2.08,1.8,4.89,2,7.54a575.88,575.88,0,0,1-5.36,150.41c-2.15,12.82-4.23,25.63-7.45,38.23-1.34,5.25-1,10.53-.27,15.87,7.28,49.65,4.87,99-4.67,148.13a40.38,40.38,0,0,1-4.16,12.24c-4.61,8.28-10.26,8.42-16,.9-13.05-17.24-26-34.59-40.27-50.86-1.9-2.16-3.75-4.61-7.64-5.89-2.08,8.32-3.22,15.3.67,23.77,11.68,25.41,22.44,51.28,31,78,15.31,47.62,28.1,95.91,36.4,145.26,4.52,26.93,7.34,54.15,11.85,81.08,2.32,13.81,4.17,27.38,2.75,41.43a66.56,66.56,0,0,0,1.21,19.9c4.4,21,4.4,42.4,4.59,63.68.07,7.58,2.82,11.14,9.48,14.11,38.1,17,78,22.68,119.17,18.43,73.4-7.58,136.09-38.19,187.55-91,32.83-33.72,55.64-73.24,63.31-120.17,8.83-54-5.71-100.9-45.72-139.12-3.42-3.26-8.31-6.83-6.18-11.52,2.69-5.92,4.27-13.18,12.08-15.87,17.56-6,35.26-6.44,53.21-2.52,31.6,6.91,56.66,24.45,77.18,48.72,31.69,37.5,46.94,81.62,50.54,130.06a206.43,206.43,0,0,1-3.4,55.72c-.38,1.94-.49,3.93-.75,6.13,4,0,4.79-3.4,6.67-5.34,5.74-5.93,9.58-6.07,14.67.51,8.93,11.54,14.3,24.74,17,39,4.56,24.27,1.12,47.77-7,70.78-6.93,19.65-17.26,37.5-29.73,54.11-35.27,47-80,82.58-132.08,109.29a427.1,427.1,0,0,1-104,37.77c-2.5.54-5.46.12-7.2,3,7.38,3,14.77,5.9,22,9.07,3.66,1.6,7.19,3.64,9.64,7,3.26,4.4,1.91,8.47-3.43,9.65-2.24.49-4.41.12-6.15,2.3-7.34,9.24-17.8,13.79-28.3,18.1-21.72,8.92-44.53,13.67-67.67,17a375.82,375.82,0,0,1-65.76,4c-1.94-.06-4-.43-6,.8-.55,3.67,2.65,5.74,4.19,8.44,6.17,10.84,10.77,21.9,10.91,34.81.2,18.7-11.08,41-32.48,48.07-13.82,4.56-27.57,8.07-41.86,2.13a20.4,20.4,0,0,0-7.85-1.17q-63.48-.45-127-.87c-2.87,0-5.87-.41-9.29,1.18,1.69,3.05,4.71,3.74,7.14,5,17.87,9.35,34,20.89,47.3,36.25a79.73,79.73,0,0,1,17.86,35.35c4.37,19.8-1.08,37.59-14.15,53-2.79,3.29-6.12,6.12-9.2,9.17-24.53,19-52.77,26.88-83.3,29.18a326.53,326.53,0,0,1-71.47-2A267.73,267.73,0,0,1,1662.35,2765c-17.31-10.66-29.9-26.25-42.39-41.76-3.72-4.6-7-6-12.64-4.89-27.72,5.42-55.66,9.17-83.73,12.63-49.56,6.12-99.19,8.68-149,9.62-53.22,1-106.34,0-159.29-5.92-5-.55-9.93-.12-14.93-.83-8.18-1.15-14.59-1-17.8,10.08-3.11,10.73-14.48,16.2-23.93,21.59-38.17,21.77-78.64,37.2-122.63,42.22-32.88,3.76-65.63,4.71-97.89-4.81a147.83,147.83,0,0,1-37.86-17.38C898.39,2784,896.14,2783,894.29,2781.47Z" style="fill:#010101"/><path d="M1912.21,769.52c-4.65-.88-7.63.52-5.86,5.67,2.28,6.59,5.35,12.91,7.94,19.4,22.63,56.75,39.36,115.26,51.92,175,9.88,46.91,17.26,94.2,22.53,141.87a1076.51,1076.51,0,0,1,4.94,168.58c-1.5,32.25-5.59,64.34-16.81,95-4.49,12.29-9.77,24-19.68,33.16-3.8,3.5-8,6-13,6.84-6,.94-9.71-2.22-9.53-8.23.06-1.86,1.92-3.93-.1-5.51-2.67-2.07-4,1-5.91,2-1.17.6-2.34,1.18-3.5,1.75-4-3-4.58-7.44-5.78-11.51-5.56-18.85-11.77-37.46-20.46-55.15-.58-1.2-1.18-2.39-1.7-3.62-1.72-4.1-1.36-7.06,3.92-7.78,1.56-.21,3-1.29,5-2.19-1.22-4.16-4-7.93-2.42-12.54,4.42-1.74,6.39,2.46,9,4.38,8.6,6.25,17.59,12.34,18.12,24.71.12,2.77,3,3.08,4.28,1.19,8.5-12.48,16.83-25,11.33-41.5-3.78-11.32-10.82-20.55-17.87-29.84-1.11-1.47-2.31-2.88-4.69-5.82,10.07,2.78,14.11,9,17.25,16,1.22,2.73,2,5.67,3.07,8.44s3.17,4.34,6.25,3.73c3.24-.65,4.32-3.26,3.88-6-2.51-15.86-4.72-31.94-21.24-41.12,13-6.26,22.63-15.54,28.53-28.42,3.84-8.38,3.14-10.8-4.77-17.65-7.46,9.83-18.48,11.69-30.37,12.49,7.48-20,10-40.83,12.12-61.76a406,406,0,0,0,1.31-59.88c-2.91-63.57-13.27-125.7-37.72-184.9-5.61-13.58-12.44-26.56-21.58-38.16-2.66-3.38-5.45-7-8.93-9.34-5.54-3.79-11.6-5.71-18.83-3.89-22.58,5.67-41.74,17.64-59,32.48-41.86,36-73.72,79.46-94.82,130.57-7.15,17.33-12.37,35.17-11.13,54.32.33,5.19-1.62,6.45-5.68,3.63-11.53-8-23.91-14.46-36.38-20.81-6.31-3.22-8.46-8.51-6.92-15.63.89-4.07,3.75-8.12-3-10.31-2.49-.81-1-4-.36-6.25,5.93-22.28,17.49-41.77,30.91-60.09C1716,895.13,1776,838.56,1846.9,793.67c19.22-12.18,39.56-22,61.66-27.77a17.13,17.13,0,0,1,3.93-.1C1912.4,767,1912.3,768.28,1912.21,769.52Z" style="fill:#646f76"/><path d="M900.24,2785.52c2.22-.59,3.87.78,5.51,1.78,30.32,18.23,63.75,22.4,98.18,21.41a310.93,310.93,0,0,0,88.36-15c25.43-8.33,49.69-19.21,72.18-33.8,9-5.82,17.93-11.78,19.53-23.82.47-3.56,3.15-4.84,6.6-4.6s6.65.4,10,.71a1564,1564,0,0,0,215.58,6c47-2,93.66-6.53,140.24-12.57,17.51-2.27,34.87-5.49,52.11-9.26,4.83-1.06,7.91-.48,11,3.86a245.16,245.16,0,0,0,16.46,20c23.89,26.94,55.48,40.87,88.73,51.64,42,13.6,85,15.6,128.4,9.57,22.29-3.09,43.48-10,61.8-23.87,1.54-1.16,3.06-2.68,5.33-2.09-6.87,9.09-16.77,13.92-26.87,17.93-34.47,13.69-70.43,16-107,13.1-24-1.92-47.49-6.19-70.21-14.18a272,272,0,0,1-57.34-27.89c-11.34-7.31-20.46-17.07-29.08-27.19-3.87-4.54-8.34-8.67-11.53-13.72-2.4-3.8-5.36-4.51-9.31-3.67-31,6.56-62.35,10-93.72,13.92-39.72,4.92-79.61,6.22-119.5,8.09-41,1.92-81.91.43-122.82-.88-25.24-.81-50.42-3.72-75.63-5.67-1.66-.13-3.33-.13-5-.28-3.44-.32-5.89.71-6.36,4.53-1.18,9.69-8.53,14.75-15.39,19.92-11.47,8.65-24.37,15.05-37.25,21.19-28.38,13.52-58.07,23.8-89.29,27.66-38.43,4.74-77,6.91-114.56-6.67a118.13,118.13,0,0,1-26-12.62C902,2788.14,900.39,2787.49,900.24,2785.52Z" style="fill:#858585"/><path d="M894.29,2781.47a5.63,5.63,0,0,1,6,4.05C897.22,2785.7,894.8,2785,894.29,2781.47Z" style="fill:#858585"/><path d="M1725.24,2023.24a12.3,12.3,0,0,0-.64,2.9c.26,7,1.74,13.94,8.93,16.44,6.51,2.27,12.34-1,16.8-6.15,12.91-14.76,26.12-29.24,37.15-45.59a497,497,0,0,0,42.34-75.53c5.67-12.73,9.9-26.11,14.77-39.19.46-1.26.76-2.75,2.2-3.11,2.09-.51,2.76,1.26,3.52,2.7a17.5,17.5,0,0,1,1.24,2.72c6.73,21.27,14.82,42.11,20.3,63.76,6,23.53,11.91,47.08,17.11,70.79,8.62,39.28,17.76,78.42,22,118.6,4.47,42.7,8.61,85.34,10,128.29.67,21,1.55,42,.94,62.89-1,33.89-3.14,67.7-7.19,101.44-4.83,40.2-14.35,79-27.7,117.15-8.72,24.87-23,46.31-38.72,67a5.25,5.25,0,0,1-.68.73c-2.22,1.85-3.74,5.81-6.86,5-3.58-1-3.68-5.16-4.2-8.43-4-24.57-1.93-49.08.57-73.62,4.82-47.33,18.14-92.63,32.91-137.54a377,377,0,0,1,18.87-46.17c2.36-4.88,4.42-9.76,3.68-15.29-.91-6.81-4.36-8.38-10.37-4.9a20,20,0,0,0-7.34,6.59c-12.51,20.15-22.84,41.33-29.84,64-5.78,18.73-11.32,37.54-16.83,56.36-3.76,12.79-5.72,26-7.44,39.15s-3.89,26.25-5.19,39.51c-2.49,25.3-1.8,50.51-1,75.77.14,4.95,1.24,9.9,2.14,14.8,2.46,13.3,9.86,21.29,23.33,25.3,27.91,8.31,52.73,22.36,71.78,44.94,10.83,12.84,14.59,27.7,7.91,43.76a47.26,47.26,0,0,1-16.91,20.48c-18.06,12.56-38.43,19.15-60,22.64-7.56,1.23-15.19,1.49-22.72,2.73-13.27,1.13-26.58-.24-39.89,1-8.43.81-11.42-3.39-10.91-12.29,1.41-24.6-4.16-47.43-17.42-68.29-1.61-2.53-3.08-5.19-5.51-7-3.37-2.57-7.11-2.58-10.06.18s-.56,5.73,1.46,7.82c18.12,18.75,13.12,42.18,12.85,64.49-.1,8.32-6.82,7.44-12.7,6.41-20.6-3.59-39-12.92-57.38-22.18-14.79-7.44-27.29-17.79-38.34-30-2.69-3-5.48-5.89-5.7-10.24-1-19-6.78-37.21-10.13-55.82q-10.86-60.46-24.28-120.44c-13.85-62-24.36-124.75-38.13-186.8-3-13.64-5.73-27.35-8.65-41-1.12-5.25-1.71-13.17-9-12.13-8,1.14-5.33,9.17-4.34,14.07,7.4,36.56,13.39,73.37,21,109.91q11.25,54.27,20,109.06c2.57,16.13,7.72,31.69,9.94,47.79,2,14.76,6.32,29,8.35,43.75.55,4,2.73,8.41-2.16,11.44-4.53-2.22-5.06-6.7-6.14-10.85a293.1,293.1,0,0,1-7.14-39.26c-.92-7.69-4-11.38-12-11.08-36.53,1.37-73.11,1.45-109.63,3.4-4,.22-8,.68-12,.56-38.26-1.19-76.47,1.58-114.69,2.52-40.17,1-80.41,1.8-120.56,4.25a15.48,15.48,0,0,1-4.94-.39c-5-2.4-3.33-6.77-2.77-10.5,4.46-29.26,9-58.51,14-87.68,8.17-47.56,16.4-95.11,23.84-142.79,1.18-7.55,2.45-15,2.28-22.68-.11-5,.94-11.73-5-12.66-6.72-1.06-7.65,6.16-9,11.09a233.86,233.86,0,0,0-5.45,26.41c-8.48,54-18.65,107.63-27.44,161.55-8,49.27-17.83,98.28-26.8,147.41-4.65,25.47-8.7,51-14.87,76.2-1.18,4.82-3.89,8.3-7.29,11.61-15.17,14.78-33.62,23.87-53.49,30-9.48,2.94-18.51,7.31-28.51,8.72-10.47,1.46-14.51-.86-15.55-10.95-1.93-18.68,2-35.8,14.67-50.28,3.94-4.51,9.24-8.83,4.18-15.42-3.22-4.2-11.47-2.49-17.88,3.16a33.65,33.65,0,0,0-7.87,10.25c-9.32,18.68-15,37.86-7.12,58.6,2.77,7.33-.19,10.89-7.36,11.26-17.37.89-34.64,6.72-52.21.78-4.28-1.45-9.12.53-13.8-.69-5.83-1.52-9.11-4.2-7.09-10.52,2.17-6.81,2.31-13.79,2.11-20.78-.41-14.76,7.76-25.81,15.62-37,3-4.22,8.52-8.71,2.46-13.59-5.18-4.16-12.16-3.13-16.4,1.81-13.83,16.14-24.36,33.62-17.37,56.33a40.8,40.8,0,0,1,1.32,4.81c.75,4.08,3.81,8.48-.4,12.12s-9.08,1.88-13.14-.31c-8.49-4.58-17.27-8.8-25.18-14.25-19-13.09-22.83-38.19-9-57.12,9.5-13,20.53-24.47,34.94-32.29,8.78-4.77,16.82-10.76,25.31-16,8.74-5.36,11.54-12.53,12-22.36,2.09-41.83-3.54-83-8.93-124.3-6.34-48.44-21.69-94-43.56-137.49-2.55-5.07-4.75-10.28-6.82-15.55-1.14-2.91-2.78-5.72-6.61-4.37-3.17,1.13-4.58,3.84-4.27,7.14a44.94,44.94,0,0,0,4.14,14.3c3,6.66,5.56,13.53,8.69,20.13,1.36,2.86,2.45,5.49.36,8.39-5,.7-6.08-3.52-7.39-6.61-3.26-7.67-7-15.12-10.22-22.81-4-9.47-5.08-18.57,1.55-27.42,3.6-4.79,1.28-9.52-.57-14.19-9.58-24.17-20.57-47.74-31.27-71.41-10.84-24-22-47.82-32.85-71.8-1-2.11-1.86-4.26-3.59-5.87-3.52.6-2.87,3.44-3,5.47a1330,1330,0,0,0-1.68,134.83c.93,24.52,5.27,49,8.44,73.39.64,4.92,2,9.91-1.42,14.44-5.62,0-4.66-4.68-5.26-7.87-4.17-22.14-7.59-44.56-8.93-66.89-2.06-34.67-5.88-69.63-2.24-104.24,4.23-40.15,6.48-80.58,14.14-120.34a991.75,991.75,0,0,1,43.13-155.72c1.25-3.39,2.5-7.42,6.92-7.62,4.63-.21,6.94,3.52,9,7,9.77,16.74,21.54,32,33.91,46.88a44.45,44.45,0,0,0,11.1,10c8.22,5,13.9,2.83,16.63-6.45,1-3.5,1.35-7.2,2.13-10.78,2.21-10.06,4.76-11.34,13.5-5.62,16.72,10.93,32.92,22.59,50.42,32.38,50.08,28,103.19,47.78,159.1,60.43a713.64,713.64,0,0,0,78.62,13.3,782.2,782.2,0,0,0,138.17,3.2A899.42,899.42,0,0,0,1529,2081.86c63.22-13.88,123-36.94,178.64-70.31.57-.35,1.15-.7,1.74-1,4.64-2.29,9.43-7.21,14.56-3.16S1726.7,2017.76,1725.24,2023.24Z" style="fill:#646f76"/><path d="M792.27,1817.6c.62,2.32-.89,3.71-2.26,5.17-2.18,2.33-4.1,2-5.4-.8a67.28,67.28,0,0,1-4.8-16.19c-7-36.81-.8-73,4.85-109.19,1.54-9.86,3.46-19.66,5-29.52a64.08,64.08,0,0,0,.37-17.93c-3.69-29.42-7.34-59.08-5.13-88.59s4-59,8.28-88.33c3.92-26.9,11.56-52.68,19.62-78.33,7.76-24.72,16.59-49.23,29.21-72.1,5.14-9.31,9.31-19.11,14.28-28.54,11-21,24.74-40.13,38.22-59.48,22.39-32.16,49.18-60.38,77.8-86.89,11.67-10.82,24.4-20.5,36.82-30.5,21.92-17.65,46-31.7,70-45.9,19.52-11.54,40.5-20.24,61.49-28.72,15.12-6.11,30.19-12.37,45.95-16.76,36.57-10.21,73.45-18.57,111.41-21.86,20.23-1.75,40.42-3.59,60.74-3.33,29,.37,57.69,4,86.32,8.35,20.41,3.12,40.42,8,60.41,13.12,25.27,6.48,49.3,16.27,73.19,26.41,36.58,15.53,70.81,35.19,103.34,58.09,33.39,23.51,63.5,50.56,91.44,80.19,19,20.14,35.83,42,51.4,64.84,27.72,40.61,49.2,84.38,65.25,130.85,3.47,10.06,8,19.8,10.1,30.29,4.81,23.74,12.43,46.88,15.35,71,1.84,15.18,3.09,30.44,4.75,45.64,2,18.26,2,36.57,1.64,54.88a408.73,408.73,0,0,1-3.24,44.75,67.57,67.57,0,0,0-.62,12c.72,15.48-1.69,30.66-5.82,45.38-3.53,12.61-3.29,25-1.26,37.51,5.07,31.23,3.36,62.41.08,93.62-1,9.17-1.51,18.43-4.54,28-4.76-1.83-7.59-4.46-8.26-9.14,3.83-1.69,5-4.91,5.55-8.78,4.73-31.14,5.09-62.45,2.21-93.67-2.12-23.09-2.82-45.75,3.89-68.25,3.09-10.38,1.41-20.21-4.6-29.59-20.44-31.86-45.56-59-77.94-79-6.18-3.82-8.82-3.11-9.82,4.64-2.47,19-13.28,33.89-23.13,49.3-2.34,3.65-5.15,7.48-10.29,6.54s-6.07-5.59-7.2-9.81c-3.55-13.22-7-26.5-15.74-37.52-5.1-6.44-10.56-12.57-21.18-15.34,8,13.18.09,21.3-6.36,29.6-22.59,29.11-18.22,23.93-49.5,24.87-48.58,1.45-97.17,2.69-145.74,4.26-42.24,1.37-84.5,2.44-126.75,3.85-46.57,1.56-93.16,2.69-139.74,4.14-41.25,1.28-82.51,2.44-123.73,4-49.22,1.86-98.51,1.7-147.66,5.42-8.64.65-17.32.18-26,.24-5,0-10.1.06-14.66,2.45-6.44,3.38-11,1.09-14.14-4.66-6.88-12.79-11.74-26.12-9.13-41.07.43-2.49,2.07-5.41-1-7.2-2.5-1.44-5.21-.59-7.65.67-4.86,2.54-8.2,6.7-11.48,10.94-9.12,11.76-14.26,25.54-20,39-1.25,3-2,7.09-5.87,7.34-4.72.31-5.62-4.24-6.65-7.54-4-13.06-10.5-25.25-13.69-38.6-1.65-6.92-5.17-7-9.91-3-5.69,4.72-9.87,10.84-14.6,16.41-12.53,14.76-26.31,28.3-40.06,41.87a37.91,37.91,0,0,0-11.41,22.63c-5,34.93-11.61,69.66-11.28,105.18.1,10,2.13,19.86,2.53,29.86A16.67,16.67,0,0,0,792.27,1817.6Z" style="fill:#646f76"/><path d="M792.27,1817.6c-2.89,1-5.81,2.12-7-2.27-.85-3.21-2.08-6.37-2.55-9.63-3.68-25.56-2.93-51.08.06-76.7,2.66-22.81,7.51-45.26,10.2-68,.6-5.08,3.84-8.34,7-11.72,15.36-16.19,31.44-31.71,45.91-48.75,4.31-5.08,8.77-10,13.12-15.08,2.56-3,5.56-5.09,9.58-3.58s5.21,4.68,4.54,8.89a9.53,9.53,0,0,0,.85,4.83c5.59,13.2,10,26.81,14.74,40.33.15.44,1,.65,2.12,1.37,3-7.36,6-14.61,8.89-21.87a129.28,129.28,0,0,1,14.52-26.15,45.84,45.84,0,0,1,9.66-10c3.88-3,8.3-4.39,13.14-3.31,3.79.84,6,3.07,4.25,7.24-6.65,16,.13,29.93,6.81,43.78,2.07,4.3,4.67,7.82,10.37,2.81,2.29-2,7-1.57,10.64-1.71q40-1.5,79.92-2.75,71.42-2.19,142.86-4.27,61.44-1.86,122.87-3.79,70.42-2.13,140.86-4.2,61.93-1.89,123.87-3.86c41.29-1.25,82.58-2.52,123.88-3.51,5.78-.14,9.93-1.83,13.71-6.26,8.22-9.65,16.38-19.31,23.21-30,2.05-3.21,4-6.09-1.41-8.62-4.28-2-3.45-6.31-1.32-9.46s5.33-2,8-.18c11.25,7.6,20.46,17,25.86,29.71a147.11,147.11,0,0,1,9,28.54c.56,2.76,1.3,5.35,4.42,6,2.84.54,4-1.86,5.34-3.74,8.56-12.35,16.21-25.21,22-39.12a23.3,23.3,0,0,0,1.74-9.74,18.46,18.46,0,0,1,3-10.44c3.06-4.83,6.36-5.09,10-.38a20.83,20.83,0,0,0,5.94,5.08c33.47,20.53,58,49.58,78.44,82.51,5.06,8.15,4.17,17,1.73,25.21-6.47,21.78-7.2,43.66-4.47,66,3.73,30.58,2.17,61.19-1.12,91.73-.57,5.25-1.4,10.47-2.1,15.67-3.46,1.63-4.35-2.92-7.08-2.57-13.54-16.53-29.24-31-43.71-46.68a14.11,14.11,0,0,0-7.8-4.2c-3.69-.72-6.72.25-8.19,3.94-2.1,5.23-4.29,10.36-4.27,16.28.14,33.69-10.75,64.74-22.76,95.62-11.58,29.78-28.94,56.17-46.67,82.38a80.81,80.81,0,0,1-14,16.42c-3.55-.93-2.89-3.71-3.1-5.81-3.34-32.88-11.48-64.9-17.2-97.36a16.1,16.1,0,0,0-2-5.6c-2.24-3.66-5.46-5.85-10-4.84s-6.69,4.12-7,8.54a76.32,76.32,0,0,0,1.17,17.92c2.74,16.77,5.18,33.6,8.58,50.23,1.89,9.27-1,14.68-8.8,19.75-36.43,23.8-74.76,43.55-116.14,57.25-13,4.29-25.75,9.05-38.88,12.93-71.22,21-144.06,29.65-218.15,28.95-33.36-.31-66.71-2-99.64-7.1-30.88-4.79-61.78-9.92-91.78-19.46-27.34-8.69-54.53-17.61-80.55-29.74A585.61,585.61,0,0,1,972,1968.53c-9.46-6.83-9.28-14.61-7.31-24.29,6-29.66,11.63-59.41,17.44-89.12.83-4.28,1.47-8.59.7-12.9-.82-4.57-3.13-8.27-8.09-9s-8.28,2.45-10,6.7c-3,7.49-3.42,15.56-4.72,23.45-5.29,32.17-8.75,64.63-15.78,96.52-1.36,6.16-1.49,12.57-2.46,18.82-.44,2.8-.14,6-3.35,8.6-6.88-5.28-11.4-12.7-16.22-19.57a467.7,467.7,0,0,1-46.91-84.6,363.88,363.88,0,0,1-24-81.21c-2-11.5-2.58-23.16.3-34.74.89-3.54,1.75-7.48-2.06-10-4.12-2.7-8.36-1.72-12.21.77a17,17,0,0,0-4.29,4.14Q812.63,1789.81,792.27,1817.6Z" style="fill:#f2e5e6"/><path d="M1934.32,2449.56c0-11.59.5-23.1,4.59-34.17a21,21,0,0,0,1.08-6.84c.29-16,3.28-31.72,5.4-47.53.92-6.89,2.19-13.85-.35-20.74a10.06,10.06,0,0,1-.41-4c.68-12.57,1.76-25.12,1.46-37.42,4.21-1.59,6.58.78,9.18,2,41.66,19.38,85.45,24.46,130.69,19.22,58-6.73,109.95-28.47,155.85-64.38,41.3-32.29,72.81-72.14,90.29-122,15.89-45.33,16.49-90.72-2.16-135.58-7-16.77-17.22-31.55-29.42-44.92-3.56-3.92-8-7-13.61-11.81,16-4.71,29.61-5.2,43.3-2.69,20.9,3.84,38.8,13.85,54.4,28,32.93,29.8,51.09,67.7,59.29,110.71,5.54,29.1,5.44,58.24-1.61,87.18a143.74,143.74,0,0,1-9.7,28.3,23.54,23.54,0,0,0-2.52,12.55c.29,3.19,2.31,2.55,4.29,2.26,2,9.61,1,19.16-1.58,28.42-10.38,37.27-30.07,68.67-59.93,93.49-2.27,1.89-4.57,4.75-7.73,3.68-3.88-1.31-3.29-5.4-3.43-8.59-.27-6-.9-12-3-17.65-1.18-3.22-3.12-6.12-6.84-6.56s-5.21,2.56-6.6,5.19c-17.62,33.27-46.78,53.93-78.6,71.46-36.48,20.1-75.59,33-116.39,41-13.12,2.55-13.27,2.57-18.13-9.76-1.87-4.77-4.12-6.7-8.78-3.28-25.82,19-56.38,23-86.79,26.79-20.77,2.57-41.76,3.1-62.67.24-8.62-1.18-17.12-2.8-25.17-6.09-5.85-2.38-7.54-.48-8,5.45C1940.31,2437.9,1942.39,2445.65,1934.32,2449.56Z" style="fill:#646f76"/><path d="M771.32,876.3c2.86.4,2.38-5.32,6-3.4a2.26,2.26,0,0,1,.11,2.82c-16.1,24.7-24.07,52.56-31,80.74-7.91,32.06-12.25,64.67-14.69,97.62a607.45,607.45,0,0,0-1.1,72.9c1.07,23,4.06,45.75,10.43,68a133.68,133.68,0,0,0,12.67,29.54c-5.62,3.66-11.08,3.29-16.63,1.85-2.84-.73-5.61-.64-6.86,2.29s.91,4.8,3.26,6.42c9.54,6.59,17.57,15.45,29.13,18.81-3.36,10.84-13.34,16-24,12.67a28.26,28.26,0,0,1-3.62-1.69c-3.83-1.85-7.13-1.33-9.59,2.32a8.58,8.58,0,0,0,1.73,11.61c3.15,2.53,7,3.84,10.74,5.19,11.21,4,22.78,4.35,35,3.11-.33,5.35-4.08,7.92-6.57,11.15-6.75,8.75-13.1,17.61-15,28.94-1.24,7.4.67,13.95,4.65,19.89,4.45,6.63,10.27,5.84,13.45-1.63,1.89-4.44,2.16-9.7,7.16-13.39,5.84,13.55,10.23,28,26.47,32.6-3.86,12.59-6.72,25.72-12,37.81-3.8,8.72-5.67,17.5-7.18,26.6a4.59,4.59,0,0,1-2.54,3.41c-3.15-2.6-6.24-5.61-9.78-7.94-2.79-1.84-5.26-.9-5.48,2.85a29.59,29.59,0,0,0,3.63,16.21c-13-1.16-22.75-7-31.54-14.74-11.94-10.49-20.69-23.41-28.05-37.36-15.87-30.06-25.09-62.36-31.6-95.45a788.44,788.44,0,0,1-12.9-104,919.05,919.05,0,0,1-.89-101.9c5-102.19,21.15-202.49,54.18-299.67,4.07-12,10-16.36,23.18-17.21,12.13-.79,23.86,1.12,35.42,4.8,22.72,7.21,43.86,17.85,63.9,30.47,65.49,41.27,122.14,92.38,168.61,154.39,17.22,23,32.2,47.43,41.42,74.92,5.79,17.29,5.26,19.25-10.19,28.89-10.44,6.51-21,12.87-31,20-5.4,3.82-6.52,3.58-9.42-1.54-21.06-37.12-49-68.94-77.91-99.83-31.68-33.82-64.59-66.4-101.09-95.13a256.7,256.7,0,0,0-30.52-20.83,28.75,28.75,0,0,0-14.1-4.24C769,865.07,767.39,868.28,771.32,876.3Z" style="fill:#646f76"/><path d="M1694,1059.42c3.43-22.06,12-42.25,23-61.45,22.65-39.83,51.63-74.28,87.77-102.67,18.09-14.23,37.9-24.44,60.5-29.23,3.22-.69,4.2,1.19,5.56,2.88,7.16,8.87,12.7,18.73,17.61,29,11.71,24.48,19.53,50.27,25.53,76.63A592.8,592.8,0,0,1,1928,1143.29c-1.21,19.66-3.67,39.27-10.41,57.85-2.24,6.18,1.13,11.32.09,17.07-.47,2.61,3.2,2.62,5.57,2.28,10.39-1.51,21.14-1.74,30.25-8.67-3.31,9.22-9.29,16-17,21.23a95,95,0,0,1-9.61,5.28c-9.52,5-9.89,8.35-1.62,16.33-1,.4-1.86.79-2.77,1.13-9.1,3.42-10.87,8.54-5.61,16.81,2,3.09,4.31,5.93,6.38,9,4.34,6.32,8.45,12.77,11.37,19.92,3.47,8.5,3.7,16.78-1.27,25.38-5.57-6-10.59-12.25-17.27-16.69-3.88-2.57-7.65-5.29-12.39-6.27-6.39-1.32-12.49-1.5-17.75,5.16-9.06-19.94-20.09-37-30.29-54.49-9.42-16.17-20.46-31.17-31.69-46a577.32,577.32,0,0,0-79-84.57c-13.77-12.15-28.29-23.27-43-34.14-3.23-2.38-8.28-4.17-5.5-10,.33-.91,1.13-1.54,1.45-2.45l0-.1c1.58-.72,1-2.76,2.3-3.68h0c.36-4.25,3.35-7.64,4.23-11.95-3.57-2.09-5.3,1.77-8,2C1692.83,1064,1693,1062,1694,1059.42Z" style="fill:#f2e5e6"/><path d="M792.66,1339.26c-4.12-8.07-6-15.86,1-23.65,2.32-2.58,2.06-6.31-.79-8.92s-6.14-2.25-9-.15-5.44,4.74-8.27,7c-2.47,2-3.86,5.33-7.47,5.83l.23.22c1.25-7,6.59-11.37,10.6-16.51,4.76-6.11,8.95-12.45,11.4-19.81,2.59-7.77-.09-11-8-9.48s-15.69,3-23.69,3.28c-1.89.06-4.08.44-5.93-2.45,8.7-2.64,14.06-8.28,15.32-17.37.46-3.37,5.51-2,6.6-6.39-7.49-5.11-16.77-7.71-23.93-14.8,5.34-2.6,9.92-3.85,15.22-1,3,1.62,6.68,1.89,8.59-2s-.43-6.29-3.51-8.17c-8.52-5.21-12.45-13.67-15.78-22.46-6.06-16-8.88-32.83-10.48-49.75A608.54,608.54,0,0,1,764.72,928.9c5-18,11.8-35.33,21.54-51.2,3.46-.82,5.34,1.46,7.43,2.8a291.26,291.26,0,0,1,31.17,23.39A1013,1013,0,0,1,970,1056.43c7.94,10.29,15.45,20.92,21.33,32.57,4.24,8.41,4.08,9.06-3.55,14.76-44.95,33.56-83.08,73.89-115.87,119.14-23.47,32.39-44.69,66.32-57.6,104.66-2.41,1.82-1.33,10.78-8,3.91l0,0c-4.84-3-7.2-.69-8.57,3.91C797,1337.86,797.56,1342.14,792.66,1339.26Z" style="fill:#f2e5e6"/><path d="M1934.32,2449.56c3.27-4.93,3.28-10.63,3.91-16.2.44-3.94,0-8,1.41-11.66a3,3,0,0,1,3.76-.54c21.65,9.54,44.67,10.31,67.67,9.65,22.63-.64,45.17-3.09,67.17-9,16.43-4.41,32.74-9,45.6-21.32,4.58-4.4,8.31-2.83,10.34,3.29.11.31.08.68.21,1,1.83,4.06-.55,10.53,4.24,12.23,3.54,1.25,8.38-1,12.6-1.85,48-9.88,93.61-26,135.09-52.67a198.2,198.2,0,0,0,43-37,99.57,99.57,0,0,0,13.54-20.91c2-4,3.09-9.33,9.27-8.92,3.24.21,9.83,8,10.55,12.24a96.86,96.86,0,0,1,1.4,24.09c1.35-.22,2.52-.06,3.14-.57,26.63-22.21,46.66-49.21,58.61-81.9,3.78-10.33,7-20.91,6.66-32.1-.09-3.45,1.62-6.41,1.83-9.72,5.92-4,5.92-4,13.49-.31,5.54-5.81,5.5-14.86,11.47-20.55,5.57-5.31,9.41-12.62,18.17-15,12.05,23.85,14.11,48.77,7.68,74.51-8.7,34.84-27.16,64.33-51.3,90.32-41.87,45.07-93.18,76.09-149.93,98.58a398.55,398.55,0,0,1-88.53,24.11c-4.46.66-8.39,2-11.68,5-5.16,4.82-4.9,9.13.82,13.06,2.8,1.92,6,2.78,9.24,3.7,10.89,3.09,21.81,6.14,32.24,10.65,3.56,1.54,7.45,2.68,10.58,6.31-7.36,6.59-15.56,10.79-24.22,14.11-37.28,14.25-76,19.21-115.74,18.31-19.49-.44-38.51-3-56.55-10.87-36.27-6.88-69.89-21.94-104.51-33.92-4-1.38-7.11-3.6-5.7-8.87,2.39-8.93,2.76-18.22,4.43-27.29Z" style="fill:#f2e5e6"/><path d="M1725.24,2023.24c-1.63-3.84-.56-7.91-1-11.86-.37-3.74-2.57-4.59-5.52-3.05-5.61,2.92-11.16,6-16.53,9.31-29.86,18.48-61.92,32.3-94.75,44.41a616.66,616.66,0,0,1-101,27.37c-31.08,5.78-62.32,10.72-93.77,13.5a703.56,703.56,0,0,1-112.73,1.08c-34.2-2.45-68.25-6.12-101.93-12.41-29.43-5.49-58.41-12.78-86.66-23.11-25.36-9.27-50.55-18.78-74.48-31.38-19.14-10.08-38-20.56-55.61-33.23q-8.5-6.13-17.24-11.94c-4.59-3-5.54-2.57-6.16,2.56-.53,4.29-.74,8.62-1.39,12.9-2,13.54-10.82,17.22-21.93,9.73-8.79-5.92-15.09-14.17-21.17-22.38-9.09-12.27-19-24.1-25.78-37.94-1-2.06-2.23-4.73-4.73-4.72-3.36,0-3.58,3.49-4.48,5.84-10.2,26.78-18.11,54.29-25.84,81.85-6.66,23.7-12.62,47.59-17.08,71.79-3.07,16.65-4.84,33.56-6.92,50.39-.64,5.24,0,10.62-3.41,15.3-.87,1.2-.73,3.2-.84,4.85-2.49,37.55-5.14,75.09-3.63,112.78,1.22,30.3,3,60.52,8.41,90.42,1.7,9.4,1.27,19.19,5.17,28.2,7.53,10.41,7.52,23.19,10.65,34.91,17,63.66,41.87,123.46,83.47,175.37,4,4.94,8.26,9.59,12.53,14.24,3.44,3.74,5.94,2.54,6.33-2.26.94-11.6,3.27-23.12,2.22-34.82-4.79-53.66-8.37-107.49-23.54-159.64-2.24-7.7-5.36-15-8-22.55-1.54-4.3-3.94-8.6-1.51-13.38.23-6.69-3.9-11.85-6.35-17.56-3-7-6.43-13.9-8.53-21.31-1.13-4-1.28-7.91,1-11.55,3.59-5.62,10.9-5.56,13.37.44,16.34,39.59,36.56,77.68,45,120.31,3.67,18.62,6.79,37.29,9.2,56.08,2.16,16.82,3.88,33.69,5.66,50.56a119.3,119.3,0,0,1,.58,13c0,15-.53,30-.14,45,.23,8.62-3.09,14.44-9.95,19.29-11.41,8.09-23.64,14.87-35.17,22.7-13.87,9.44-25.91,21-32.55,36.84-7.1,17-2.16,33.73,13.16,43.91,8,5.3,16.72,9.46,25.22,14a20.58,20.58,0,0,0,6.63,2c4.71.68,6-.91,4.63-5.56a73.35,73.35,0,0,0-2.62-8.58c-7-16.56-1.08-31.28,6.47-45.72,2-3.81,4.75-7.22,7.1-10.85,4.65-7.18,11.16-9.81,19.63-9,4.22.42,6.88,2.13,8.33,5.9s1.48,7.33-1.76,10.09c-5.2,4.44-7.95,10.6-11.77,16-5.22,7.4-7.1,15.55-7.12,24.47,0,7.59.74,15.35-3.2,22.49-1.41,2.56-.31,4.5,2.77,4.91,16.44,2.17,32.79,5.53,49.54,2.94,8.18-1.26,16.63-.66,24.74-3.64,1.18-1.82.09-3.73-.58-5.43-10-25.18-2.51-47.57,11.22-68.79a22.36,22.36,0,0,1,16.26-10.57c4.85-.6,9.44-.31,12.15,4.63,2.16,3.94,1.18,10.14-2.64,13.64a62.2,62.2,0,0,0-11,14c-7.91,13.11-7.91,27.27-6.57,41.62.6,6.33,2.88,7.71,9.46,6,23.14-6,46-12.95,66.69-25.27,7.31-4.37,13.34-10.9,19.91-16.49,2.09-1.78,3.81-4,3.35-6.89-1.09-6.95,1.56-13.11,3.83-19.31,5-13.59,5.14-28,7.74-42,4.85-26.14,8.7-52.45,14.93-78.36,3.41-14.18,4.91-28.83,7.14-43.3,1.82-11.82,4.13-23.54,6.48-35.28,3.06-15.3,4.93-30.84,7.54-46.24,4.16-24.57,8.48-49.13,12.79-73.68q5.58-31.91,11.33-63.79c1-5.22,2.46-10.34,3.69-15.52a11.1,11.1,0,0,1,2.71-5.24c2.33-2.46,4.65-5.12,8.47-4.18,4,1,6,4.27,6.81,7.88a26.28,26.28,0,0,1,.21,8.94c-2.13,16.83-4.14,33.67-6.77,50.42-4.88,31.19-9.55,62.44-15.45,93.44-4.72,24.84-8.62,49.78-12.58,74.72-2.34,14.76-4.59,29.53-6.88,44.3,3.48,7.18.83,14.43-.18,21.49-4.2,29.33-9,58.58-14.57,87.69-2.21,11.45-1.49,12.7,10.19,13.87,27.14,2.71,54.31,5.07,81.6,5.74,20.94.51,41.86-.35,62.84,1.61,23.21,2.17,46.53-1.29,69.77-2.24,27.21-1.12,54.47-2,81.63-5.12,31.42-3.62,62.85-7.08,94.1-12,10.08-1.59,10.91-3,9.25-13.42-1.78-11.18-4-22.29-6-33.43-.74-4.16-2.32-8.52,1.12-12.36,1.51-5.84-1.3-11.16-2.41-16.59-2.42-11.74-4.87-23.45-6.6-35.33-1.91-13.1-7.17-25.38-9.33-38.52-6.29-38.39-12.89-76.73-20.34-114.91-3.18-16.29-7.06-32.48-10.2-48.8q-6.51-33.78-12.73-67.61c-.6-3.24-.36-6.64-.43-10-.09-4.51,1.36-7.81,6.5-8.35,4.78-.5,8.47.63,10.42,5.57,3.69,9.38,4.46,19.44,6.74,29.13,5,21.34,9.26,42.88,13.67,64.36,4.89,23.77,9.62,47.57,14.39,71.36,5,24.74,9.16,49.63,14.9,74.24,8.84,37.89,16.36,76.08,23.18,114.4,2.73,15.36,6.45,30.55,9.61,45.83a31.78,31.78,0,0,1,1,8.91c-.58,6.86,2.3,11.65,6.83,16.7,16.49,18.33,37.49,29.23,59.5,39.18,12.19,5.51,25,8.15,37.6,11.68,3.83,1.07,6,.06,5.87-4-.41-14.27,1.64-28.57-1.68-42.82-1.8-7.75-4.68-14.46-10.47-19.94A26.18,26.18,0,0,1,1731,2702c-1.61-2.94-1-5.83,2.2-7.68,7.12-4.16,13.47-3.09,18,3.95,5.06,7.8,10.16,15.65,13.18,24.59,5.92,17.51,9.45,35.33,6.58,53.89-.56,3.59,1.17,4.59,4.14,5.35,6.23,1.59,12.59,1.12,18.89,1.41,8.63.39,17.29.45,25.93.66-3.31,2.4-7.1,1.08-10.68,1.33-9.24.64-18.56-1.1-27.78,1.67-5,1.5-9.74-1.29-14.28-3.32-3-1.36-3.47-4.08-2.47-6.77,2.19-5.85,1.79-11.82,1-17.74a12.23,12.23,0,0,1,.84-6.72c.5-1.19,1.35-2.9.89-3.73-8.22-14.69-10.4-32.36-22.26-45.22a17.21,17.21,0,0,0-3.15-2c-.8,3.31.9,5.15,2.39,7.06,7.6,9.75,11.28,20.4,10,33.13-.8,8.13-1,16.48,1,24.8,3,12.83-1.21,16.94-15.4,14.22a197.07,197.07,0,0,1-38-11.63c-23-9.48-43.94-21.88-61.25-40-4.4-4.61-7.24-9.49-6.59-16,1-10.06-5.06-18.47-6.48-28-1.18-7.84-3.63-15.49-3.52-23.51.1-6.81-3.61-12.6-4.87-19.15-7.14-37-16-73.76-22.27-110.92-2.15-12.66-6.54-24.61-8.41-37.25-1.94-13.08-4.88-26-7.51-39-2.56-12.65-5.34-25.26-7.93-37.91-5-24.3-10.91-48.48-14.31-73-1.32-9.49-5.47-18.33-5.17-28.19.13-4.57-2-9.6-6.22-14.07-3.54,9.36-.11,17.7,1.39,25.63,3.92,20.79,7.84,41.57,11.53,62.41,3.86,21.82,8.63,43.47,12.73,65.25,4.54,24,8.71,48.16,13.14,72.22,2.22,12,5.13,24,6.83,36.07,1,7.38,4.2,14.71,1.87,22.43a4.18,4.18,0,0,0,.35,2.86c6.49,12,5.87,25.45,8.2,38.31.81,4.45,2.87,8.62,3.37,13.23,1.68,15.56,6.31,30.54,9.06,45.89,1.62,9.07-3.21,14.44-12.6,14.4a18.79,18.79,0,0,0-4.66.8c-11.93,2.8-23.9,5.65-36.33,4.14a6.48,6.48,0,0,0-4.68,1.21c-1.09.75-2.54,2.2-3.36,1.93-8.85-3-17.05,2-25.74,2.1A172.16,172.16,0,0,0,1505,2713c-6.92,1.05-13.24,3.09-20.23.77-2.53-.83-5.12.15-7.53,1.71-5,3.28-10.53,3.43-16.17,1.49a25.3,25.3,0,0,0-19.39.77c-7.3,3.31-15.1,2.44-22.55,1-7.08-1.4-13.79-2-20.33,1.52-3.12,1.69-6.48,1.32-9.79,1.32-18.33,0-36.66,0-55,0-8.32,0-16.37-.5-24.58-3-8.88-2.65-18.55-1.76-27.75-.4-8.62,1.28-16.79,2.87-25-1.91-3.34-1.93-7.8-1-11.74,0-6.55,1.69-12.94,2.7-19.12-1.61-2.89-2-6.38-1.3-9.63-.11-4,1.44-7.79,1.54-11.32-1.3-2.62-2.1-5.53-2-8.48-.76-3.77,1.58-7.19,1.32-9.94-2a8.75,8.75,0,0,1-.73-11.09c3.36-5.18,2.15-11.23,2.76-16.63,1.52-13.47,4.35-26.7,6.92-39.9,1-5,1.22-10.24,2.15-15.25,3.42-18.51,4.78-37.4,8.13-55.93,1.93-10.74,3.5-21.57,5.24-32.3,2.38-14.66,6.85-29,7.28-43.94a26.16,26.16,0,0,1,2.14-9.66c3.89-8.82.67-18.22,3.08-27.18a178.9,178.9,0,0,0,4.66-26.36c.45-4,1.65-7.77,2.27-11.69,4.26-27,8.74-54.07,13.16-81.09a1.87,1.87,0,0,1,.28-1c6.7-6.81.92-14.87,2.2-22.24a2.92,2.92,0,0,0-2.79-3.47c-1.37-.06-2.31,1.24-2.62,2.6-2.08,9-4.43,18-6.08,27.11-4,21.8-8.37,43.56-11.65,65.43-4.52,30.09-9.34,60.13-14.92,90-4.55,24.38-8,48.94-13.07,73.23-6.17,29.42-11.39,59.07-16.1,88.76-2,12.42-4.45,24.74-6.27,37.16-.55,3.73-1.93,7-3.09,10.42-2.17,6.45-5.18,12.51-3.46,20.09s-5.09,11.62-10,16c-15.64,14-34.51,22.13-53.72,29.62-22.08,8.61-45.29,13.21-68.61,15.53-12.8,1.28-25.64,4.92-38.8,2.82-4.18-.67-8.71.7-12.37-2.62-1-.91-2.39-.72-3.77-.62-20.32,1.49-39.61-3.51-57.57-12-10.63-5-19.81-13.55-27.36-22.83s-7.29-20.48-3.69-31.3c5.7-17.08,18.36-29,31.57-40.28,11.93-10.18,26.54-16.33,39.3-25.36,5.27-3.74,7.78-7.48,7.41-13.87-.68-12,.13-23.86,3.53-35.51a16.1,16.1,0,0,0-.39-10.84c-4.79-11-2.94-22.9-5.09-34.27-2.76-14.6-3.47-29.51-5.42-44.25-3.1-23.42-9-46.13-14.55-69-3.48-14.25-9.43-27.62-15-41.1-6.26-15-15.48-28.62-20.27-44.29-.35-1.15-1.45-2.07-2.64-3.69-3.5,4.08-1.85,7.64-.6,11.29,4.09,11.93,9.58,23.27,14.56,34.83,8.17,19,14.82,38.51,18.88,58.69,1.5,7.47,2.45,15.1,4.48,22.52a8.11,8.11,0,0,1-.07,4.88c-1.39,3.39-1.63,6.36,1,9.23a4.25,4.25,0,0,1,1,4.65c-1.81,3.77.63,6.77,1.06,10.09,1.15,8.81,2,17.61,3.51,26.4.48,2.83-.91,6.25.9,9.3a7.52,7.52,0,0,1,.88,5.81c-1.25,4.36-1,8.2,1.72,12.05,1,1.46,1.8,4.37,1,5.64-4,6.71-.33,12.48.76,18.93a79.48,79.48,0,0,1-.31,28.8c-.88,4.35-1.67,8.49,0,12.7,2.4,6.12.05,10.56-8.72,15.68-4.78,2.8-7.72,2.43-12.94-3.52-17-19.47-34.15-38.94-46.32-62.06-6.2-11.78-12.68-23.41-18.62-35.31a443.28,443.28,0,0,1-37.78-110.89c-4.17-20.69-9.65-41.21-11.86-62.3-.06-.65-.65-1.38-.47-1.91,4.14-12.36-4.19-23.32-3.93-35.24,0-1.32-.76-2.88-.29-3.93,5.38-12.19-1.16-23.68-1.91-35.49-.17-2.66-.61-5.41-.15-8,2.78-15.52-.09-31-.11-46.49,0-9.05,1-17.85,4.75-26.21.4-.91,1.19-2,.94-2.78-3.51-10.3,3-19.9,2.18-29.79-2-24.64,3.1-48.25,7.43-72.27,4.22-23.47,8.8-46.8,14.86-69.82,6-22.75,12.64-45.31,20.43-67.55,3.28-9.37,6.91-18.66,9.77-28.19,1-3.42,2.21-7.3,6.71-7.84,4.79-.57,7.22,2.59,9.17,6.3a287.27,287.27,0,0,0,29.87,45.81,148.67,148.67,0,0,0,15.27,15.76c2.57,2.4,5.94,5.1,9.81,2.94,3.41-1.9,4.55-5.63,4.76-9.4a106.21,106.21,0,0,0,.05-11c-.2-4.39,1.06-8,5.22-9.89s8,.27,11,2.8a270.63,270.63,0,0,0,29.23,20.73c22,13.68,44.4,26.64,68.33,37,15.58,6.71,31,13.85,47.12,19,26.81,8.54,53.53,17.66,81.52,22,7.84,1.21,15.64,2.89,23.33,4.82a184.28,184.28,0,0,0,32.32,5c2,.14,4.16-.12,5.73,1.27,3.19,2.82,6.44,2.75,10.16,1.16,1.43-.61,3.88-.94,4.84-.15,7.33,5.95,15.31,1.07,22.9,1.78,21.21,2,42.46,2.28,63.74,1.94,4.63-.08,9.32.6,13.81-1.39a5.52,5.52,0,0,1,3.9-.3c8.59,3.52,17.15,1.38,25.46-.59a58,58,0,0,1,16.78-1.66c17.91,1,35.24-3,52.78-5.57a758.89,758.89,0,0,0,79.68-16.53c30.23-7.88,60-17.26,88.55-30.08,27-12.13,53.7-24.88,78.58-41.14,3.43-2.24,7.39-6,11.8-3.87,5.33,2.57,2.67,8.28,3.21,12.68C1730.84,2016,1729.77,2020.35,1725.24,2023.24Z" style="fill:#010101"/><path d="M845.89,2657.71c-16.42,0-31.37,0-46.32,0-4.72,0-6.54-2.33-6.49-6.8.06-5-.07-10-.1-15a25.43,25.43,0,0,1,9.32-20.17c3.52-3,7.11-6,10.5-9.22s3.73-6.94,1.46-10.89-6.08-4.84-10.36-3.87c-13.16,3-27.07,19.41-28,33.3a120.86,120.86,0,0,0,1,24.93c.65,4.62-.26,7-5.47,6.73-8-.41-16-.54-24-.76a15.6,15.6,0,0,1-8.33-3.07c-12.89-8.73-22.35-33.12-18.22-48,2.73-9.82,8.56-18,18.78-20.32,19.72-4.44,37.37-14,55.93-21.23,17.09-6.64,34.93-11.12,51.62-18.77,3.44-1.59,5.54-.7,7.11,2.76,4.53,10,9.21,20,13.92,29.88,1.46,3.08,1.9,5.28-2,7.15-15.34,7.36-21.2,21.53-24.64,36.74C838.9,2633,839.93,2645,845.89,2657.71Z" style="fill:#ede1e2"/><path d="M2003.79,2614.29h-30c-3.67,0-4.92-2.1-5.77-5.5-5.49-22.09-18.5-39.55-34.49-55.14-4.69-4.58-10.37-7.31-16.39-9.23-4.86-1.55-5.34-4.2-3.55-8.28,3.23-7.35,5.27-15.08,7.32-22.82,1.75-6.61,2.77-7.38,9-4.88,27.88,11.1,57,18.72,84.92,29.6,9.93,3.87,19.76,8,30.15,10.57,6.37,1.56,9.95,6.41,13.55,11.18a44.41,44.41,0,0,1,5.12,8.55c5.11,11.64,6.23,23.19-2,34-8.39,11-20.27,13.05-33.1,12.45-4.27-.19-5.52-2.87-6-6.55-1.54-11.71-6.24-22.37-10.9-33.07-3.28-7.54-8.34-13.57-14.22-19.08a21.86,21.86,0,0,0-10.55-5.37c-3.85-.84-7.5-.33-9.63,3.39a9.27,9.27,0,0,0,.93,11.17,13.65,13.65,0,0,0,2.09,2.14c14.37,11.27,17.11,28.81,23.8,44.2C2004.43,2612.42,2003.89,2613.57,2003.79,2614.29Z" style="fill:#ede0e1"/><path d="M1949.9,2611.69c-3.45,2.82-6.53,1.92-9.37,1.88-17.33-.23-34.66-.59-52-.92a48.76,48.76,0,0,1-5-.28c-3.07-.36-4-2-2.65-4.83a11,11,0,0,1,1-1.75c9.18-12.84,15-27.41,21.66-41.56,2.72-5.78,3.08-5.52,8.71-1.73a66.61,66.61,0,0,1,19.4,19.88C1937.78,2592.13,1943.83,2601.93,1949.9,2611.69Z" style="fill:#e3d7d8"/><path d="M889.1,2658.16c-8,0-15.94-.1-23.9,0-4.7.08-6.83-.92-7-6.64-.28-13.56,1.56-26.45,8-38.5a51.1,51.1,0,0,1,4.71-7.61c6.72-8.54,8.9-8.42,14.88.91,9.47,14.8,18.42,30,30.78,42.69a13.17,13.17,0,0,1,1.74,2.42c3,4.86,2.35,6.46-3.33,6.61-8.63.22-17.26.05-25.89.05Z" style="fill:#ede1e2"/><path d="M1934.32,2449.6c2,8.77-2,17-2.54,25.49-.45,7.37-.88,7.47,6.09,10,29.5,10.93,59,21.74,89.09,31.1,4.36,1.36,9.45-.21,13.14,3.44-6,1.15-11.76-.07-17.56-1.84-28.83-8.78-57-19.47-85.34-29.62-9.54-3.41-10.19-4.43-8-14.58C1930.87,2465.63,1930.73,2457.21,1934.32,2449.6Z" style="fill:#646f76"/><path d="M806.31,1331.47c4.58,2.61,5.24-2.8,8-3.91-1.4,10-5.12,19.3-8.44,28.65-3.68-.78-5.22-3.09-6.88-5-3.82-4.44-3.69-5.58,2.25-7.78C807.58,1341,807.18,1336.52,806.31,1331.47Z" style="fill:#938a8b"/><path d="M1694,1059.42c.32.91.63,1.82,1.14,3.31,2.68-.53,3.59-3.13,5.31-4.64s3.3-3.52,5.88-1.73,2.57,4.56,1.11,6.94c-2.18,3.54-3.31,7.85-7.11,10.28-2.1-2.64-1.07-8.19-7.3-7.34C1692.17,1066.36,1692,1061.6,1694,1059.42Z" style="fill:#5c5a5a"/><path d="M792.66,1339.26c4.12-.18,2.82-3.33,3.16-5.65.32-2.14.08-4.92,2.75-5.6,3.24-.83,6.43-.56,7.72,3.44-3.86.59-6.23,2.07-6.49,6.71S797.76,1343.05,792.66,1339.26Z" style="fill:#938a8b"/><path d="M1700.32,1073.58c.34,1.92-.73,3-2.3,3.68C1697.59,1075.28,1698.55,1074.18,1700.32,1073.58Z" style="fill:#5c5a5a"/><path d="M1890,1311.21l2.42-1.08c-.23,2.33-1.68.88-2.67.86Z" style="fill:#f2e5e6"/><path d="M1698,1077.36a1.89,1.89,0,0,1-1.45,2.45A1.86,1.86,0,0,1,1698,1077.36Z" style="fill:#5c5a5a"/><path d="M1889.71,1311c0,.51.09,1,.13,1.54-1.47-.61.24-.84.13-1.31Z" style="fill:#f2e5e6"/><path d="M768.11,1319.35l-.47,1.46c-1.32-1.28.16-1,.7-1.24Z" style="fill:#f2e5e6"/><path d="M1600.18,2633.53q4.41,25.57,8.8,51.15c1.45,8.55,1.27,9-7.26,10.38-32.21,5.06-64.5,9.49-97,12.5-78,7.25-156.14,8.6-234.36,5.19-23.58-1-47.11-3.44-70.65-5.4-9-.75-10-1.88-8.22-10.47,4.8-22.81,8.14-45.86,11.88-68.84,2.51-15.42,4.71-30.89,7-46.34a89.18,89.18,0,0,1,17.78-2q78.29-2.25,156.56-4.65c49.2-1.43,98.41-2.57,147.6-4.28,15-.52,29.91-1,44.87-1.15,9.61-.08,9.68.19,10.82,10,1.85,15.86,5.11,31.48,8.57,47C1597.19,2629.2,1597.5,2632,1600.18,2633.53Z" style="fill:#f2e5e6"/><path d="M916.35,2405.37c6.67,20.21,14.3,40.09,18.79,61a589,589,0,0,1,11.15,72c1.31,14.92,2.94,29.81,4.36,44.72,1.62,17,.8,33.94.19,50.91,0,.67-.07,1.33-.12,2-.23,3.35-.25,7.08-3.92,8.52-4.09,1.61-5.9-2.17-8-4.52a384.26,384.26,0,0,1-52.32-75.14c-20.38-38.16-34.43-78.51-45.09-120.21-2.63-10.31-4.78-20.74-7.15-31.11.16-14-2.81-27.65-4.33-41.46-2-18.16-5.12-36.23-5.55-54.52-.53-22.61-.31-45.24-.73-67.86-.4-21.34,3.67-42.4,3.45-63.72,0-2.57,1.06-5.14,1.69-8,5,.39,5.79,4.41,7.22,7.44q11.67,24.82,23,49.81c15.2,33.63,31,67,44.87,101.21,2.35,5.79,4.45,10.57-2.42,15.42-5.16,3.65-4.51,10.38-2.61,15.76C903.47,2380.72,908.58,2393.68,916.35,2405.37Z" style="fill:#f2e5e6"/><path d="M1832.69,2745.13c1.21-15.44-4.34-30.53-16.62-43.18a26.91,26.91,0,0,1-3.21-3.8c-3.09-4.73-3.36-10.48-.73-13s9.86-2.32,13.77,1.07a76,76,0,0,1,10.62,10.52c13.43,17.34,21.37,36.62,19.77,59a32.56,32.56,0,0,1-3.75,13.36c-2,3.7-4.37,8.23-9.48,7.43-4.93-.76-7.78-4.4-9-9.48C1832.37,2760.53,1832.34,2753.94,1832.69,2745.13Z" style="fill:#030303"/><path d="M1042.09,2756.89c2.29-14.63,3.25-29.7,12.65-42.26a33.1,33.1,0,0,1,9.28-9c2.2-1.3,4.4-1.51,6.46.27,2.52,2.16,2.09,4.8.66,7.2a21.54,21.54,0,0,1-4,4.44c-8.79,8.15-12.8,18.18-13,30.17-.14,7.92-2.57,15.7-2,23.74a3,3,0,0,1-2.72,3.52c-1.45.16-2.42-.73-3.2-1.92A24,24,0,0,1,1042.09,2756.89Z" style="fill:#010101"/><path d="M884.85,2651.5c-5.66,0-11.33-.05-17,0-3.65,0-5.35-1.53-5.63-5.31-1-12.83,2.93-24.39,9.64-34.95,4-6.35,6.72-6.13,11.23-.15,7.8,10.33,14,21.76,22.5,31.65,4.28,5,2.18,8.35-4.75,8.7C895.53,2651.72,890.19,2651.51,884.85,2651.5Z" style="fill:#efe2e3"/></svg>