<svg id="Layer_5" data-name="Layer 5" xmlns="http://www.w3.org/2000/svg" viewBox="0 0 3000 3000"><title>UD 3 BODY</title><path d="M1946.5,1502.27c.07.25.13.5.19.75,3.38,7,2.4,14.71,3.1,22.06,1.81,19.23,1.55,38.57,1,57.85-.44,16.91-1.52,33.79-3.46,50.66-2.12,18.35-5.35,36.47-8.53,54.62-.58,3.28-1.7,6.42-2.31,9.7a52.61,52.61,0,0,0-.72,17.76,393.68,393.68,0,0,1,4,76.08c-1.07,23.89-3.25,47.71-8.33,71.16-1.1,5.06-2.61,10-5.53,14.35-3.83,5.71-9.89,5.53-13.82-.08a521.26,521.26,0,0,0-36.14-46.34c-3.3-3.74-6.37-7.67-9.58-11.49-.81-1-1.79-2.28-3.3-1.72s-1,2.26-1.11,3.51a35.81,35.81,0,0,1-.6,6.44c-1.51,6.1-1.48,11.39,2.79,17.16,5.4,7.31,7.62,16.57,11,25,6.39,15.88,12.68,31.81,18.2,48,6.32,18.57,12.35,37.23,16.89,56.35a10.14,10.14,0,0,1,.43,1.64c2.42,12.07,6.51,23.71,9.13,35.74,6.73,30.86,12.78,61.84,17,93.15q3.46,25.67,6.87,51.33a20.93,20.93,0,0,0,3.68,9.09c.72,9.52-1.47,18.9-1.23,28.43.4,15.7,4.85,30.93,4.85,46.67,0,11.66,1.21,23.32,1,35-.11,6,2.14,8.76,7.35,11.15,34.48,15.84,70.75,22.86,108.42,20.39,89.58-5.86,163.1-43.75,219.33-113.85,26.64-33.21,43.37-71.22,46.39-114.08,3.44-48.89-12.37-90.79-48.82-124.26-6.52-6-5.65-9.54-2.38-16.25,7.55-15.48,22-13.67,34.62-14.78,21.94-1.93,42.62,4.15,61.78,14.88,34.2,19.16,57.39,48.32,73.24,83.45,20.9,46.34,26.56,94.62,15.94,144.57-.14.65-.29,1.3-.37,1.95a5.41,5.41,0,0,0,.11,1.1c2.78-1.83,4.34-4.65,6.3-7.08,6.64-8.23,10.8-8.17,17,.59a94.9,94.9,0,0,1,17.13,47.38c2.92,32.42-5.89,62.14-21.8,89.89-24.5,42.73-58.87,76.43-98.81,104.49a422.61,422.61,0,0,1-157.48,68.43c-1.7.35-3.37.81-6.41,1.55,5.92,2.07,10.57,3.65,15.19,5.32a71.32,71.32,0,0,1,15.69,7.61,13.74,13.74,0,0,1,5.16,5.32c1.92,4-.4,8.67-4.61,8.15-3.76-.47-5.19,1.37-7.19,3.7-5.2,6.08-12.14,9.82-19.24,13.17-21.15,10-43.65,15.2-66.54,19.06-13.81,2.32-27.73,3.59-41.65,4.93-7.71,1.3-15.48.24-23.21.55-2.81.11-5.63,0-8.44,0a17.19,17.19,0,0,0-9.48.4c1.46,3.86,4.36,6.48,6.17,9.81,5.38,9.88,9.77,20,10.07,31.47.53,19.7-8.28,39.44-29.11,48.68-11.53,5.12-23.72,6.15-36.16,5.41a12.68,12.68,0,0,1-3.9-.81c-14.34-5.64-29.2-2.89-43.86-2.47-9.82.28-19.62.66-29.41-.09-2.48-.18-5-.55-7.44-.55-18,0-35.94.27-53.89-.19a108.66,108.66,0,0,0-18.57.8,53.62,53.62,0,0,0,9.36,5.24,158.87,158.87,0,0,1,45.42,32.85c11.43,12,19.63,25.91,22.28,42.19,2.91,17.88-1.75,34.14-13.74,48.26-12.6,14.85-28.68,23.95-46.8,30-2.52.84-4.74,2.47-7.46,2.75a14.88,14.88,0,0,0-6.82,1.64,8.31,8.31,0,0,1-1.62.39c-9.33,1.53-18.51,4.14-28,4.54-14.57.63-29,2.1-43.76,1a354.44,354.44,0,0,1-37.55-4.43,283,283,0,0,1-81.68-28.33,145.77,145.77,0,0,1-35.55-26.3c-7.82-7.9-14.67-16.75-21.4-25.6-3-4-6.4-4.18-10.48-3.33q-31,6.45-62.31,10.6-25.41,3.38-50.93,5.72c-13,1.19-26.1,2.46-39.18,3.33-13.59.9-27.23,1.1-40.79,2.14-10.49.8-21,.07-31.39.85a328.12,328.12,0,0,1-40.87.76c-15.47-.78-30.93-.36-46.38-1-22.55-.88-45.07-2.6-67.59-4.11-12.72-.86-25.49-1.76-38.14-3.56-3.21-.46-5.07.7-5.91,3.82-.48,1.77-1,3.53-1.4,5.31a19.49,19.49,0,0,1-7.58,11.37c-20.26,15.81-43,26.93-66.81,36.28-10.72,4.21-21.78,7.16-32.72,10.57a312.25,312.25,0,0,1-49.46,8.6c-13.09,1.27-26.15,2.27-39.27,1.76-25.6-1-50.52-5.23-73.67-16.94-10.73-5.43-20.74-11.82-28.35-21.48-2.18-2.77-3.81-5.83-5.8-8.69a8.91,8.91,0,0,1-.7-1.5c-2.84-7.82-5.88-15.57-6.27-24s2-16.13,4.72-23.83a16.71,16.71,0,0,0,1.38-4.24,8.19,8.19,0,0,1,.45-1.61,28.72,28.72,0,0,1,2.64-4.34c3.91-7.23,9.71-13.05,14.67-19.49.78-1,2.31-1.8,1.72-3.33-.68-1.81-2.5-1.37-3.91-1.37-16-.08-32,.43-48-.17-16.13-.61-32.26-1.19-48.38-.76-13.76.36-27.56.42-41.29,1.79-5.87.59-11.65.28-17-2.57-12.28-6.79-22.34-15.91-29.38-28.19-1.65-2.89-2.25-6.26-4.32-8.94-6.9-15.71-6.65-31.42,0-47.13,5.45-11.52,13.8-19.79,26.23-23.57,7.89-2.39,14.12-8.12,21.77-11,6.37-2.41,12-6.59,18.76-8a291.49,291.49,0,0,1,50.71-19.15,88.79,88.79,0,0,0,17.74-6.43c2.63-1.35,3.57-3,2.47-6-6.37-17.33-12.26-34.85-17.09-52.66-4.13-15.21-7.78-30.58-10.81-46.07-2.53-12.88-3.87-25.94-6.11-38.85-3.22-18.54-3.72-37.31-5.69-56-.84-8-1.14-16.22-1.44-24.37-.4-11-.82-21.92-.84-32.9,0-17.62,2.1-35.15,2.62-52.71.42-14.18,2.73-28.08,3.6-42.17.92-14.72,3.45-29.32,5.9-43.89,3.41-20.31,7.11-40.57,11.89-60.6,2.67-11.15,5.51-22.25,8.22-33.38,4.81-18.13,9.66-36.26,15.81-54,5.43-15.66,10.38-31.54,18-46.39,3.35-6.57,3.88-12.77.16-19.84a308.58,308.58,0,0,1-17.51-40.67,18.67,18.67,0,0,0-2.7-5.32,6.34,6.34,0,0,1-.71-2.11c-.6-4.38-1.35-8.71-4-12.45a3.26,3.26,0,0,1-.9-1.88c-.07-.78.24-1.73-.88-2.07-1.39-5.59-3.64-11-4.37-16.72a12,12,0,0,0-2.36-8.23,12.2,12.2,0,0,1-.48-3c-.41-2-.06-4.07-.79-6a110.83,110.83,0,0,0-2.68-13.79c-2.48-3-2.66.33-3.68,1.35a7.32,7.32,0,0,1-1.37,1.62c-9.33,9.92-17.31,20.94-25.65,31.65-2.65,3.4-5.24,6.85-7.92,10.22-4.69,5.89-11.12,5.81-15.91-.12-3.58-4.43-5.26-10-8.59-14.57a81.64,81.64,0,0,1-7.47-27.82c-1.78-17.35-4.54-34.67-3.24-52.2,1.12-15.05,2.43-30,5.4-44.93,2.55-12.81,5.58-25.63,6.51-38.72.57-8-1.34-15.87-2.19-23.79-1-9.24-2.06-18.46-2.8-27.74-1.76-21.91-.87-43.9-2.25-65.76-1.22-19.51,2-38.38,4-57.49.4-4,.62-8,2.14-11.72,4-10.56,5.37-21.85,8.8-32.59a70.72,70.72,0,0,1,2.45-7.22c.34-.3-.78-.3-.19,0-4.63,4.15-8.41.83-12.32-1.4v0c-2.35-1.27-3.91-3.47-6-5.09-27.43-26.37-43.72-59.71-58.34-94-24.2-56.78-38.43-116.33-48.47-177-9.94-60-14.53-120.42-12.11-181.23,1.76-44.42,7.32-88.31,20.75-130.92,5.46-17.31,13.72-33.19,23.56-48.35a12.94,12.94,0,0,1,6.07-4.9c1.64-.7,3.69-1,4.52.64,1.66,3.23,4.64,3.41,7.47,4.17,110.45,29.82,209.71,80.83,295.71,156.75a268.83,268.83,0,0,1,47.77,54.88,133.62,133.62,0,0,1,9.69,17.23c1,1.57.38,2.21-1.25,1.87s-2.48-1.6-3.44-2.76c-22-26.6-46.13-51.2-70.76-75.32A371.09,371.09,0,0,0,899,891.41C877,880,853.73,871.29,831,861.5a971.84,971.84,0,0,0-98.85-36.36c-10.16-3.11-20.71-5-31-7.64-3.72-1-5,1.41-6.39,4-8.82,16.61-14.57,34.32-18.75,52.57-4.93,21.47-7.5,43.25-9.38,65.19-2.84,33.1-2.75,66.29-1.47,99.34,2.49,64.16,10.77,127.67,25.84,190.21,9.42,39.1,20.93,77.51,36.82,114.51,9.56,22.27,21,43.49,36.34,62.41a142.25,142.25,0,0,0,24.88,23.7c1.47-1.7,1.15-3.94,2.19-5.63,1.63-3.14.34-6.64,1.19-9.87a5.1,5.1,0,0,1,.6-1.42c5-4.72,6.33-11.27,8.08-17.44,3.65-12.82,8.15-25.37,11.77-38.19.51-1.78,2-3.72-.11-5.5a9.9,9.9,0,0,0-4.49-2.28c-17.06-5.07-27.36-17.17-35.24-32.48-12.34-24-18.62-49.86-24.7-75.81-6.21-26.47-10.08-53.35-13-80.35-2.09-19.51-3.22-39.12-4.56-58.7-1-14.47-1.21-29-1.22-43.37,0-17.75-.17-35.59,1.17-53.37.86-11.44,1.28-22.91,2.26-34.35,1.8-20.92,4.3-41.73,8.74-62.27a129.31,129.31,0,0,0,2.54-13.74c.65-6,4.19-10.83,8.13-15.16,2.28-2.5,5.56-1.75,8.51-1.1,11.47,2.49,22.24,7,32.79,11.92,25.1,11.84,48.41,26.62,70.65,43.15a713.42,713.42,0,0,1,58,48.16c26.13,24.07,50.73,49.54,72.44,77.73a259.9,259.9,0,0,1,17.09,24.59c1.08,3.66,3.12,3.67,5.93,1.72,10.5-7.31,21.26-14.22,32.15-20.94,2.71-1.67,4.56-4.35,6.94-6.43,5.12-3.18,9.79-7.25,16-8.24a8.26,8.26,0,0,0,5.74-.81,567.56,567.56,0,0,1,105-44.53,642.12,642.12,0,0,1,88.36-20c19.53-3.07,39.16-4.92,58.89-6.25a478.87,478.87,0,0,1,52.35-.5,594.57,594.57,0,0,1,82.56,9.33c31.78,5.85,63,13.47,93.47,24.38,24.28,8.7,48.13,18.41,71,30.35,1.92,1,4.32,3.34,6.46,0,.55-.91.32-2.12,1.13-2.93,4.21-18.9,13.44-35.39,24.66-50.89,17.11-23.65,37.64-44.07,60.25-62.34q122.81-99.19,275.34-140c19.3-5.15,14.64-5.56,25.87,10,13.43,18.61,19.2,40.52,24.49,62.4,10.38,43,14.45,86.72,14.5,130.83.12,97.67-14,193.22-43.43,286.41a536.49,536.49,0,0,1-29.18,72.76c-12.43,25.61-26.88,49.85-47.88,69.56-1.37,1.21-2.5,2.87-4.06,3.65-5.27,2.64-5.38,6.92-4.45,11.84,3,15.79,6.18,31.53,7.83,47.58C1942.56,1488.15,1943.27,1495.56,1946.5,1502.27Z" style="fill:#0d0d0d"/><path d="M795.81,1428.19c-2,2.57-.43,6.31-3.2,8.93-3.31-6-9.66-8.71-14.39-13.19-14.82-14-26-30.61-35.86-48.16-18.17-32.38-30.3-67.1-40.85-102.39-15.71-52.59-25.78-106.25-32.06-160.68a969.77,969.77,0,0,1-5.78-146.64c1.32-36.08,5.05-71.91,15.19-106.83A206.52,206.52,0,0,1,694.69,820c2-3.83,4.13-4.69,8.43-3.74,43.52,9.62,85.25,24.41,126.15,41.61,24.8,10.43,50.29,19.15,74.31,31.52,34,17.52,65.13,38.66,92.81,64.81a1014.38,1014.38,0,0,1,75.49,78.74c1.89,2.21,1.88,2.21,2.9.73,3.22,2.48,3.37,6.65,5.58,9.69,2,2.71,3.18,6.4,7.67,6.09l.42.59c-.71,3-3.65,1.67-5.42,2.62-5.45,2.09-10.29,5.28-15.31,8.14-9.08,7.12-19.9,11.52-29.36,18-4.17,2.87-8.49,5.54-12.71,8.35-1.77,1.18-3.56,2.33-5.14-.26-34.49-51.41-78.79-93.8-126.91-132.65-29.52-23.84-60.78-45.15-95.37-61.42A187.58,187.58,0,0,0,762.71,880c-4.32-1.05-7.12-.09-9.43,3.64-3.2,5.15-4.88,10.52-6.17,16.54-3.8,17.75-7,35.53-9.08,53.54-2.46,21.51-4,43.08-4.74,64.7a981,981,0,0,0,6.12,151.14c5,42.39,12.78,84.24,26.72,124.79a149.42,149.42,0,0,0,20.13,39.45,42.07,42.07,0,0,0,21.47,15.59,50.05,50.05,0,0,1,5.43,2.5c2.13,2.88.22,5.54-.81,8-4.17,9.89-7.35,20.11-10.64,30.29a62,62,0,0,0-3.45,22.13,7.8,7.8,0,0,1-1.51,4.82h0C795.47,1420.7,797.11,1424.56,795.81,1428.19Z" style="fill:#9eb4a1"/><path d="M1083.05,2796.94c5.22-2.67,11.07-3.34,16.57-5.16a315.62,315.62,0,0,0,64.76-29.38c6.55-4,12.65-8.49,18.76-13.06,4.49-3.36,5.78-8.29,7-13.39,1.62-7,2.47-7.09,9.69-6.34,13.21,1.37,26.45,2.4,39.7,3.31q49,3.36,98.11,4.49c27.8.68,55.51-.23,83.24-1.27,8.47-.32,16.94-.77,25.41-1.09,19.75-.74,39.38-3,59-4.76q24.07-2.11,48-5.33c16-2.11,31.88-4.33,47.62-7.77,6.15-1.34,12.39-2.27,18.59-3.32a5.9,5.9,0,0,1,6.06,2.5c6.07,7.67,12.15,15.33,18.58,22.73,11.53,13.25,25.5,23.28,40.83,31.45a272.65,272.65,0,0,0,82.74,28.09c34.34,5.88,68.74,6.26,103-1.39a27.49,27.49,0,0,1,4-.28c.3,2.17-1.79,2.27-2.84,3.28-7.8,2.48-16,2.43-24,3.52-17.59,2.38-35.19,1.84-52.79,1.12-16.73-.68-33.27-3.64-49.46-7.61a236.7,236.7,0,0,1-46.32-16.55c-14.37-6.91-28.66-13.91-41.08-24.07a146.18,146.18,0,0,1-22.68-23.1c-3.69-4.72-7.87-9-11.62-13.64,0-.81,0-1.66-.91-2.07-5.59-1.69-10.84.77-16.06,1.82-17.57,3.56-35.24,6.24-53,8.44-30.62,3.78-61.27,7.39-92,9.62-10.57.77-21.24,1.18-31.88,1.38-28.77.53-57.51,2.82-86.29,1.82-30.89-1.08-61.81-.91-92.66-3.71-17.67-1.6-35.34-3.4-53.06-4.52-3.06-.2-4.84,1.16-5.1,3.5-1.54,14.13-12.56,19.76-22.83,26.12a7.86,7.86,0,0,0-.8.59,246.62,246.62,0,0,1-37.66,19.71c-13.07,5.53-26.06,11.3-39.93,14.68a44.41,44.41,0,0,1-4.86,1C1085.39,2798.25,1084,2798.16,1083.05,2796.94Z" style="fill:#525252"/><path d="M899.29,2573l-5.09-8.92c-2.83-5.64-6.73-10.64-9.45-16.36-6-12.59-11.77-25.33-16.22-38.53-4.67-13.85-10-27.5-14.11-41.54a485.45,485.45,0,0,1-14.29-61.36c-2.06-13.11-4.34-26.21-5.79-39.38-1.61-14.68-3.68-29.31-4.28-44.15-.68-16.78-.82-33.53-.77-50.3.06-15.64-.74-31.31.7-46.89,1.73-18.69,2.59-37.46,5.23-56.09,1.4-9.81,2.41-19.74,3.1-29.66.53-7.62,2.12-15.1,3.32-22.62,2.92-18.19,7.11-36.15,11.67-54,3.53-13.82,7.12-27.65,11.28-41.3,2.94-9.67,5.73-19.38,8.63-29.06,3.87-12.88,8.68-25.44,13.43-38,.67-1.77,1.3-3.59,3.45-3.83,2.48-.28,3.28,1.8,4.36,3.47,9.39,14.52,18.52,29.23,29.33,42.78,6,7.58,12.62,14.6,20.47,20.33,4.73,3.45,13.93,3.47,17.65-4.59,2.26-4.9,2.27-9.93,2.41-15.1.08-3-1.69-6.78,1.93-8.65s5.84,1.46,8.27,3.24a548.41,548.41,0,0,0,59.71,38c26.56,14.72,54.47,26,83,36.1,12.23,4.34,24.6,8.09,36.91,12.1,12.83,4.18,26.27,5.79,39.25,9.29,11.74,3.17,23.89,3.95,35.77,6.22,20.41,3.89,41.23,4.32,61.67,7.85a107.1,107.1,0,0,0,18.88,1.4c18.81-.15,37.59,1.75,56.37,1.07,20.4-.73,40.82-1.5,61.18-3.52,16.21-1.61,32.22-4.51,48.34-6.67a707.59,707.59,0,0,0,73.87-13.86c17.21-4.21,34.4-8.56,51.15-14.65,20-7.26,39.86-14.83,59.36-23.29,17.1-7.41,33.14-16.91,49.34-26.08,4.76-2.71,9.56-5.36,14.37-8,2-1.07,4-2.07,6.07-.57s2.39,3.94,1.88,6.33c-1.23,5.72-.1,11.41,1.09,16.82,3,13.91,14.21,13.12,21.81,6.61a107.29,107.29,0,0,0,13.8-15.06c6.81-8.58,14.48-16.52,20.76-25.49a498.1,498.1,0,0,0,30.86-49.42c8-14.81,15-30,21.46-45.47,3.3-8,6.06-16.15,9.43-24.1.82-1.95,1.27-4.63,4-4.35,2.42.24,3.32,2.59,3.93,4.7,4.26,14.67,10.19,28.78,14.44,43.44,6.19,21.34,11.89,42.82,16.92,64.46,6.32,27.17,12.62,54.34,18,81.72,3.6,18.22,7.23,36.46,9.14,54.9,1.39,13.38,2.9,26.76,4,40.19,1,13.06,3,26.07,4,39.16.76,10,1.36,19.9,1.71,29.87.88,24.77,2.2,49.53,2,74.33-.14,23.63-.89,47.26-2.65,70.8-1.79,24-4.62,48-8.31,71.78a426,426,0,0,1-12.17,54.46c-6.25,21.34-12.52,42.75-23.26,62.45l0,0c-7.43,10-12.32,21.64-20.15,31.42a100.76,100.76,0,0,1-11.1,12.15c-3.89,3.52-6.62,2.73-7.7-2.45a143.12,143.12,0,0,1-3-24.21c-.79-23,2.15-45.78,5.21-68.56,1.57-11.7,3-23.47,5.93-34.82,6.11-23.44,11.81-47,19.4-70.06,7.38-22.45,16.17-44.27,25.57-65.89,1.59-3.66,3-7.34,2.81-11.5a6.44,6.44,0,0,0-4.26-6.18c-2.53-.87-5.61-1.29-8,.89a24.45,24.45,0,0,0-4.42,5.37,314.46,314.46,0,0,0-32.43,70.46c-6.16,19-11.91,38.09-16.53,57.49-3.42,14.35-5.13,29.06-7.64,43.6-2.43,14.13-3.64,28.34-4.93,42.53-1.43,15.57-1,31.28-.58,46.93a185,185,0,0,0,3.61,32.16c1.16,5.75-.22,6.6-6.09,5.3-11.71-2.58-23.49-5.27-35.46-5.73-9.43-.37-18.92,1.18-28.29,2.6-18.93,2.85-38,5.29-55.62,13.52-19.4,9.05-37.17,20.17-49.28,38.57-1.61,2.44-3.32,6-6.61,5.25s-2.54-4.64-3.19-7.3c-2.14-8.7-4.07-17.5-5.51-26.29-2.73-16.73-5.92-33.38-9.26-50-4.63-23-8.53-46.12-14.52-68.74-4.56-17.23-6.84-34.81-10.67-52.13q-5.61-25.29-10.28-50.8-2.61-14.19-5.21-28.39c-1.15-6.37-2.89-12.62-4.22-19-2.51-12-4.67-24.11-7.5-36-3-12.56-5.51-25.2-7.92-37.87a49,49,0,0,0-3.57-11.4c-1.94-4.2-6.25-6.49-10.21-5.27s-5.65,4.4-5.7,8.45a39,39,0,0,0,.48,9c4.25,19.49,7.26,39.21,11.1,58.78,3.71,18.89,7.37,37.78,11.39,56.62,3.45,16.16,5.84,32.64,8.94,48.92,3.45,18.11,6.61,36.29,9.83,54.44,2.29,12.91,4.59,25.82,7.14,38.69,3.65,18.4,6.24,37,10.66,55.26,5,20.8,8,42,11.75,63,1.16,6.47-.67,8.63-7.28,9.65-12.81,2-25.61,4.08-38.45,5.77q-22.22,2.94-44.52,5.31c-12.54,1.33-25.12,2.07-37.62,3.9-10.5,1.53-21.17,1.71-31.79,1.86-27.61.41-55.13,3.06-82.74,3-23.29-.06-46.61-.32-69.88-1.09-21.4-.72-42.81-1.67-64.18-3.55-11.58-1-23.19-1.67-34.71-3.27-6.38-.88-8.28-3.5-7.38-10,1.37-9.88,4-19.55,5.7-29.37,2.8-15.86,5.26-31.78,7.78-47.69,2.7-17.08,5.24-34.18,7.47-51.31,1.39-10.7,3.64-21.22,5.25-31.86,3.45-22.79,7-45.59,11.33-68.25,3.32-17.28,5.76-34.73,8.67-52.08,1.75-10.44,3.68-20.89,5.65-31.32,2.64-14,3.85-28.23,6.12-42.3,1.35-8.34,1.51-16.82,3.29-25.11a17,17,0,0,0-.21-7.44c-1.22-5.13-3.74-8.05-7.33-8.33-4-.31-8.21,3-9.81,7.7-3.08,9-4.51,18.39-6.22,27.68-3.18,17.31-5.91,34.7-8.92,52-4.13,23.88-8.11,47.78-12.67,71.59-2.52,13.19-4.52,26.48-6.37,39.79-1.54,11-4.51,21.79-6.24,32.78-2.32,14.76-4.36,29.56-6.82,44.28-2.55,15.22-6.87,30.12-9.46,45.36-2.93,17.18-6.11,34.32-8.86,51.53-1,6.11-2.16,6.95-7.72,4.19-13.3-6.59-26.68-13-40.73-17.79a330.76,330.76,0,0,0-83.35-17.37c-17.87-1.28-35.57,1.33-53.37.31-7.77-.44-8.58-.78-8.46-8.7.19-11.83.27-23.65.48-35.47.28-16.19-2.36-32.11-3.85-48.14q-2.62-28.27-7.47-56.26c-2.36-13.74-5.65-27.3-9.31-40.77-3.44-12.67-7.8-25-12.45-37.26-6.94-18.33-16.26-35.56-23.93-53.55-1.24-2.9-2-6-3.3-8.87-1.35-3-3.47-6.2-7.27-6-3.59.18-5.78,3-7,6.23-2.35,6.09-.33,11.86,1.82,17.44,3.64,9.46,8.78,18.31,12.29,27.76,7,18.82,14.19,37.57,19,57.18,3.22,13.26,6.09,26.6,8.22,40,2.36,14.91,3.89,30,5.31,45,1.73,18.36,4.51,36.64,5.16,55.08a349.08,349.08,0,0,1-1.28,40.89,7.25,7.25,0,0,1-4.62,6.58c-2.66,1.07-4.88,0-6.64-2.11-12.91-15.4-26.5-30.28-37-47.57-2.76-4.55-4.69-9.57-7.66-14h0A41.24,41.24,0,0,0,899.29,2573Z" style="fill:#9eb4a1"/><path d="M1956.39,2297.21c38,19.13,78.45,26.13,120.57,23.55,58.12-3.56,110.9-22.94,158.5-56.25,40.45-28.31,72.62-64,94-108.88,20.74-43.58,27.13-88.93,15-136.18-7.41-28.84-22.89-53-43.55-74.11-.7-.71-1.46-1.38-2.1-2.14-.82-1-2.5-1.66-2.15-3.11s2.19-1.26,3.38-1.51c17.33-3.56,34.46-3,51.19,3.06,13.06,4.69,25.14,11.43,37.16,18.27a10.77,10.77,0,0,1,3.44,2.82c10.7,15.09,23.75,28.34,33.85,43.9a122.25,122.25,0,0,1,13.23,27.32c9.28,27.16,15.34,54.84,15.21,83.67-.11,26.47-4.75,52-15.83,76.24-1.33,2.9-2.42,5.83-2.16,9.12a9,9,0,0,0,5.72,8.1c3.51,1.48,6.82.8,9.78-1.66,3.79-3.15,5.48-7.62,6.89-12,3.36-10.35,11.9-16.76,18.39-24.63,4-4.9,4.84-4.24,7.88-10.29-.83,6.85,2.2,12.67,4.43,18.78,10.15,27.76,8.41,55.39-2.31,82.47-21.45,54.21-60.77,93.13-108,125.11a447.18,447.18,0,0,1-89.25,46.68c-15.81,6.12-31.06,13.65-47.62,17.93-13,3.37-26.37,3.45-39.51,5.45a26,26,0,0,0-12.22,5.25c-2.45,1.88-3.57,4.41-2.71,7.49s3.44,3.15,6,3.27a290.07,290.07,0,0,1,40.59,4.95,24.56,24.56,0,0,1,10.09,4.07c5,3.62,5.58,8.15,1.66,12.86-3.59,4.33-8.34,7.12-13.37,9.42-29.76,13.55-61.17,20.32-93.63,22.9a302.52,302.52,0,0,1-62.31-1.15c-3.32-.76-6.74-1-10-2h0c-5.38-1.53-10.82-2.85-16-5h0c-3.71-2.07-7.52-2.51-11.87-2.28-6.35.34-12.23-2.81-18.16-4.8-16.85-5.65-33.84-10.89-50.39-17.43-8.65-3.41-17.46-6.4-26.29-9.32-6.74-2.24-8.75-6.05-7.13-13.81,3.12-14.94,5.12-30.05,7.28-45.14,2.24-15.62,3.52-31.34,4.66-47.07a41.21,41.21,0,0,1,1.94-8.21c1.59-9.25,2.25-18.61,3.08-27.95-1.35-14.65-.38-29.32-.41-44C1953.21,2299.27,1953,2296.53,1956.39,2297.21Z" style="fill:#9eb4a1"/><path d="M903.29,2581c2.16,1,2.91,3.21,3.83,5,9,17.69,22.07,32.28,34.8,47.17,2.16,2.52,4.32,5.06,6.25,7.75,1.48,2.06,3.13,3.75,5.75,2.85a6.25,6.25,0,0,0,4.17-5.71c.52-16.11,1.4-32.17.56-48.35-1.07-20.6-4.4-40.94-5.73-61.52-1-15-4-29.83-6.65-44.67s-7.16-29.34-10.4-44.09c-1.68-7.67-5.87-14.76-8-22.37-4.53-15.86-12.94-30-18.86-45.25-2.25-5.78-4.2-11.93-1.18-18.38,1.58-3.37,4.33-6.24,7.16-6.87,3.33-.74,6.5,2.3,8.07,5.64a128.88,128.88,0,0,1,5.91,14.23c4.06,12.16,11.78,22.54,16.11,34.67,5.52,15.49,12.89,30.35,17.28,46.26,5,18,9.34,36.16,12,54.73,1.68,11.8,3.51,23.58,5,35.41q1.5,11.85,2.73,23.73a448.62,448.62,0,0,1,2.26,60.78c-.17,5.16.13,10.34-.13,15.5-.18,3.51,1.06,4.65,4.54,4.55,12-.34,23.95-.3,35.93-.75,19-.71,37.8,1.49,56.49,5.08a318.61,318.61,0,0,1,88.68,31c4.83,2.54,4.64,2.25,5.45-3.19,1.53-10.3,3.65-20.52,5.43-30.79,1.85-10.62,3.36-21.31,5.42-31.9,1.71-8.75,3.07-17.61,6-26.08,2.46-7.15,2.63-14.72,3.67-22.06,2-14.46,3.61-29,6.91-43.23,4.8-20.68,6.52-41.82,10.41-62.62,3.43-18.43,7-36.83,10.32-55.27,1.74-9.61,3-19.3,4.62-28.92,3-17.31,5.58-34.7,9.38-51.83,1.38-6.19,1.85-13.06,6.77-18.38,5.52-6,12.78-3.86,15.53,3.63a23.14,23.14,0,0,1,.75,11.78c-2.23,14.25-3.86,28.6-5.75,42.89-1.37,10.3-2.22,20.73-4.77,30.9-1.4,5.61-1.73,11.47-3,17.13-4,18.29-5.89,36.91-9.07,55.32-1.89,10.93-4.56,21.74-6.48,32.67-1.73,9.79-2.69,19.72-4.41,29.51s-3.08,19.87-5.21,29.75c-1.83,8.49-2.43,17.38-3.72,26.08-2.46,16.56-4.78,33.15-7.4,49.7-3.3,21-6.51,41.94-11.33,62.64-1.6,6.88,0,9,7,10.06a210.46,210.46,0,0,0,23.71,2.65c21.75.75,43.4,2.9,65.18,3.5,32.09.89,64.19,2.2,96.27,1.39,27.07-.68,54.11-2.46,81.2-3.13,17-.42,33.91-3.93,50.93-5.17,13.92-1,27.62-3.54,41.52-4.67,11.52-.94,22.92-3.4,34.38-5.16,3.77-.58,7.52-1.3,11.31-1.59s5.47-2.33,4.85-5.93c-2.34-13.56-5.16-27.05-7.17-40.67-3.65-24.58-11.22-48.35-14.2-73.13-1.29-10.68-4.58-21.32-6.53-32.06-3.54-19.58-6.51-39.26-10.08-58.83-3.44-18.91-6.6-37.88-10.36-56.7-2.43-12.15-5.65-24.2-8-36.42-3.84-20.34-8-40.65-11.15-61.1-1.44-9.32-5.08-18.32-4.34-28,.31-4,1.64-7.54,5.51-9.39s7.19-.41,10.27,1.81c2.62,1.89,3.22,5.06,4,7.86,3.14,11.16,4.78,22.67,7.32,34,2,8.84,4.12,17.66,6,26.53,4.07,19.29,8.76,38.47,12,57.89,4,23.88,9.9,47.38,13.83,71.27,1.39,8.45,2.74,16.92,4.33,25.35,1.68,8.93,5.48,17.26,7,26.35,1.71,10.44,3.65,20.9,6,31.21,2.46,10.64,5.2,21.24,7,32,2.52,15.21,5.42,30.37,8.08,45.54a297.64,297.64,0,0,0,7.56,33.86c2.35-.5,3.5-2.23,4.5-3.83,13.7-21.76,34.44-34.22,57.51-43.47,18.56-7.45,38.38-9,57.88-12.19,18.52-3,36.34.28,54.29,3.79a16.66,16.66,0,0,1,5.91,2.3c1.74-3.75,0-6.79-.57-9.74a134.19,134.19,0,0,1-2.77-26.2c-.13-23.13-.81-46.29,2.17-69.3,1.79-13.8,4.13-27.52,6.2-41.29a366.3,366.3,0,0,1,12.5-53.7c6.69-21.67,13.22-43.35,22.44-64.18,5.67-12.8,13.13-24.48,19.83-36.63,2-3.68,5-6.41,10-6.17,3.51.17,6,1.8,7.19,4.49,1.92,4.47,1,9.37-.94,13.58-5.53,11.68-10,23.79-15.06,35.65-4.62,10.8-8.8,21.76-11.47,33.27-2,8.55-6.1,16.43-8.06,25-2.62,11.43-5.38,22.85-8.66,34.1-6.35,21.76-8.92,44.11-11.13,66.54-1.39,14-3.35,28-2.94,42.21.28,9.5,2.11,18.78,3.18,28.17.16,1.36.21,3.23,1.84,3.85s2.69-.93,3.73-1.94a122.3,122.3,0,0,0,22.35-29.15,56.55,56.55,0,0,1,9.86-13.6c0,2.56-1.84,4.24-3,6.17-8.54,14.33-15.92,29.53-29.16,40.47-1.62,1.34-3.09,3.64-5.44,2.7-2-.8-2-3.35-2.29-5.25a251,251,0,0,1-1.43-69.52c2.31-20.47,5-40.84,9.25-61,6.64-31.77,16.34-62.7,27.21-93.23,5.84-16.41,13.2-32.28,19.81-48.42,1.29-3.16,1.89-6.37-.8-9.31-2-2.2-4.61-2.08-7-1.41-2.64.75-4.18,3.13-5.61,5.41a313.44,313.44,0,0,0-30.26,63.76,690.31,690.31,0,0,0-19.43,67.95c-5,21.32-7.84,43.06-10,64.87-1.9,19.21-3.58,38.42-2.79,57.73.56,13.78,1.6,27.56,4.27,41.08,1.93,9.8,8,16.47,18,19.26a157.25,157.25,0,0,1,54.37,26.72c10.81,8.3,21,17.45,27.2,30,10.15,20.36,3.49,37.6-13,49.85-16.23,12.07-34.64,19-54.41,23.38-24.06,5.29-48.29,3.55-72.48,3.46-8.19,0-9.69-3.11-7-11a6.79,6.79,0,0,0,.72-2.85c-2.36-16.88-2.72-34.19-10.37-49.94-3.63-7.46-7.54-14.77-12.64-21.38-4.73-6.13-9.31-7.14-15.49-3.2-4.35,2.77-4.83,6.46-1.11,10.29,4.87,5,9.86,9.94,11.82,16.91,3,10.85,5.6,21.74,4.33,33.23-.63,5.76-.36,11.64-.25,17.47.08,4.25-1.91,5.33-5.64,4.33-26.06-6.95-51.38-15.81-74.18-30.61-11.1-7.2-19.9-17.09-29.08-26.49a4.79,4.79,0,0,1-1.14-3.71c.27-9.74-2-18.74-5.42-28-3.61-9.66-4.41-20.38-6.32-30.66-4.37-23.49-8.75-47-13.91-70.31-3.62-16.36-6.23-32.94-10.23-49.23-6.08-24.67-9.78-49.81-15.1-74.63-6.15-28.71-11.16-57.65-17.72-86.29-4.07-17.77-7.53-35.68-11.2-53.55-1.36-6.66-2.19-13.43-4.15-20a13,13,0,0,0-3.93-6.75,6.86,6.86,0,0,0-7.06-1c-2.44.85-3.68,2.93-4,5.78-1,8.86,2.26,17.1,3.66,25.57,3.84,23.24,7.65,46.52,12.76,69.49,3.76,16.87,6.83,33.84,10.06,50.78,6.19,32.59,11.36,65.39,17.84,97.92,4.68,23.44,8.39,47,13.5,70.41,4.72,21.55,8.21,43.37,12.25,65.07.67,3.58,1.48,7.15,2,10.75.47,3.28-.83,5.42-4.4,6-14.41,2.23-28.77,4.81-43.22,6.76-15.45,2.08-31,3.67-46.46,5.33-12.53,1.35-25.06,2.81-37.63,3.65-23.7,1.6-47.47,2.26-71.19,3.41-13.94.69-28,1.57-41.82,1.31-23.13-.43-46.27.09-69.38-.79-24.72-.95-49.43-2.45-74.13-4-9.92-.61-19.8-2-29.72-2.84-3.53-.31-5.26-2-4.83-5.49a160.41,160.41,0,0,1,2.55-17.23c5.55-23.78,8.67-48,12.48-72.05,2.67-16.88,5.2-33.77,7.81-50.66,3.7-23.94,7.2-47.91,11.18-71.8s8.79-47.62,12.62-71.52c4.84-30.14,10.45-60.16,14.08-90.48.63-5.28,1-10.59,1.2-15.9.13-4.32-.76-8.53-5.75-9.84-3.66-1-8.19,2.64-9.45,7.81-2.1,8.53-4,17.13-5.55,25.77-5.09,28.25-10.6,56.44-14.77,84.83-4,26.94-10,53.47-14.06,80.38-4.36,29.22-10,58.21-14.63,87.38-2.09,13.22-5.64,26.27-8,39.49-2.93,16.16-4.9,32.55-8.76,48.48-3.2,13.18-3.56,27.14-10.11,39.47-1.4,2.63-1,5.63-.6,8.37.69,5.09-1.47,8.5-5.18,11.59-15.09,12.53-32.07,21.37-50.62,27.72-12.67,4.34-25.23,8.84-38.27,12-4,1-5.5-.61-5.86-3.78-1.41-12.44-2.27-25.06,3-36.78,3.4-7.58,6.4-15.73,14.13-20.67,4.28-2.74,5.2-9.92,2.56-14.32-2.82-4.72-9.68-6.52-15.56-3.83-6.28,2.87-10.36,8.08-14.05,13.7-10.57,16.13-14.56,33.9-13.15,53,.3,4,1.94,7.63,3.71,11.21,1.66,3.34,1.82,5.72-3.1,6.55a209.86,209.86,0,0,1-50.57,2,194.48,194.48,0,0,1-20.73-2.35c-2.36-.43-4.34-1.5-2.64-3.85,5-7,4.05-15.23,3.93-22.68-.26-15.29,7.06-26.74,16.09-37.5,5.89-7,6.73-10,1.66-16.38-3.24-4.08-10.69-4.69-16.27-1.22-8.13,5.06-12.12,13.49-16.83,21.26-4.61,7.6-6.52,16.18-8.12,24.82-.66,3.55.16,7.18,1.13,10.31,1.63,5.2,1.5,10.8,4,15.76.74,1.46,2.73,3.28,1,4.89-1.52,1.38-3.84.77-5.75.21a118.09,118.09,0,0,1-26.51-11.34,49.36,49.36,0,0,1-17-15.8c-6.94-10.75-5.69-22.12-.91-33.22,4.92-11.4,13.74-19.77,22.62-28.11,5-4.71,11.2-7.67,16.54-11.85,2.28-1.78,4.74-1.36,7.15-1.3,4,.09,6.88-1,7.64-5.33.42-2.36,2.35-3.6,4-4.93a61.64,61.64,0,0,1,7.69-5.51c8.23-4.72,12.35-10.8,9.71-20.94-1.48-5.7.17-11.9.46-17.88,1-21.82-.67-43.48-3.57-65.14-2.51-18.74-3.89-37.64-7.19-56.28a440.81,440.81,0,0,0-13.16-55.69A397.79,397.79,0,0,0,929.27,2374a89.07,89.07,0,0,1-7-17.6c-1-3.59-3.07-6.82-7.13-6.28-3.81.51-5.63,3.75-5.91,7.62a30.12,30.12,0,0,0,2.72,14.57c7.7,17.48,15.45,35,21.69,53a362.34,362.34,0,0,1,15.57,59.72c3.08,18.85,5.17,37.81,7.07,56.81,1.27,12.7,3.66,25.32,4.47,38,.61,9.74,2,19.48.8,29.36-1.2,9.72.29,19.62-1.19,29.4-.58,3.86-2,6.62-5.68,8s-5.59-1.05-7.6-3.31c-15.8-17.78-31.52-35.62-41.91-57.35C904.44,2584.42,903.1,2583,903.29,2581Z" style="fill:#515c53"/><path d="M1702.57,1081a318,318,0,0,1,31-42.72c47-55.24,101.3-102,164.19-138.41,15-8.69,30.61-16.23,47.65-20.24,7.09-1.67,7-1.63,8.33,5.36,11,59.49,12,119.46,9.21,179.69a1060,1060,0,0,1-14.35,133.5c-5.29,30.25-12.29,60-24.87,88.25-3.35,7.51-7.41,14.54-14,19.79-2.48,1.54-5.41,1.88-8.07,2.92h0c-6.33,2.47-7.16,2.25-10.1-4.19-8.2-17.9-19-34.3-28.91-51.24a420.28,420.28,0,0,0-29.44-43.28c-10.89-14.24-22.2-28.14-34.36-41.43a582.85,582.85,0,0,0-69.16-64.71c-7-5.55-14-11.21-21.54-16.21C1705.64,1086.43,1702.61,1084.81,1702.57,1081Z" style="fill:#aac3ad"/><path d="M826.34,1315.16c-1.78,5.37-3.6,10.73-5.33,16.12-.73,2.27-1.76,3-3.84,1.32-4.31-3.43-9.19-5.59-14.36-7.6s-8.28-7.09-11-11.89c-7.91-13.85-12.94-28.87-17.39-44.06-10.07-34.33-15.41-69.58-19.74-105a1113.8,1113.8,0,0,1-7.93-146.62,681.76,681.76,0,0,1,10.6-115.81c.83-4.53,2.62-5.33,6.68-4.39a140.15,140.15,0,0,1,28.24,9.88c35.22,16.54,66.83,38.73,96.91,63.11,41,33.27,78.49,70.12,109.19,113.41,2,2.84,3.79,5.84,5.67,8.77,1.48,2.32-.61,3.23-1.86,4.23-5.7,4.57-11.77,8.65-17.32,13.45-7.77,6.74-15.93,13-23.47,20-8.89,8.29-17.64,16.7-26.19,25.33a529.93,529.93,0,0,0-57.65,68.75c-11.14,15.91-22,32-31.43,49.13A382.24,382.24,0,0,0,826.34,1315.16Z" style="fill:#aac3ad"/><path d="M1657.81,1057.13c-5.54-2.11-10-5.85-12.21-11.13-1.86-4.38.21-9.12,1.84-13.36,13.56-35.32,38.71-61.9,66.29-86.34,56.75-50.3,122.09-86.42,191.93-114.94a712.09,712.09,0,0,1,102.1-32.93c5.3-1.28,7.61,0,10,4.67,12,23.24,18.56,48.11,22.76,73.69,8.39,51.05,8.69,102.46,6.21,154A984,984,0,0,1,2025.51,1193c-10.59,48.59-24.09,96.31-45,141.62-10.57,22.93-23.12,44.68-40.64,63.17-1.72,1.81-3.55,3.51-5.33,5.26s-3.22,1.41-4.79-.79c-3.61-5.07-3.9-11.23-5.91-16.81-5.87-16.38-10.43-33.25-18.52-48.79-1-1.91-1.16-3.79.22-5.61a11.23,11.23,0,0,1,1.55-1.24c21.82-12.12,31.84-32.88,39.67-55,11.85-33.4,18.75-68,23.76-103a966.87,966.87,0,0,0,8.86-172.39c-1.46-39.78-4.34-79.43-13.58-118.39-1.65-6.94-6-11.94-8.46-18.13-1.21-3.06-4-1.81-6.09-1.32-12.09,2.72-23.51,7.32-34.64,12.65-33.86,16.2-64.39,37.49-93.32,61.21-41.09,33.68-79,70.48-110.81,113.25a242.6,242.6,0,0,0-16.73,25.45c-1.72,3.14-4,3-6.57,1.09-7.86-5.9-16.41-10.67-25.07-15.29C1662.06,1058.86,1659.79,1058.33,1657.81,1057.13Z" style="fill:#9eb4a1"/><path d="M827.72,2657c-6.83,0-13.66,0-20.48,0-5-.05-6.79-1.89-6.88-7-.05-3.16.26-6.36-.08-9.49-1.53-14,4.74-23.92,15.92-31.49,2.69-1.82,5.63-3.68,6.13-7.43,1.17-8.82-5.3-13.89-13.42-9.66-19.35,10.06-28.23,23.43-24.95,45.54.73,4.93,0,10,1.21,14.89.52,2.08-.7,3.65-3,3.58-10.13-.29-20.4.24-30.31-1.41-5.37-.89-11.84-3.09-13.47-10.69-.69-3.2-3.69-5.85-5.4-8.89-6.87-12.2-7.47-25.11-2-37.65,3.87-8.89,11.44-14.38,21.62-15.42a34.36,34.36,0,0,0,11.44-3.26c17-8.18,34.83-14.4,52.2-21.7,8.79-3.7,18.17-6,27.21-9.1,3.88-1.34,7.61-3.12,11.38-4.76,3.29-1.43,5.47-1.05,7,2.74,4.22,10.43,9.37,20.44,14.49,30.46,1.41,2.75,2.05,5.69-1.72,7-10.75,3.75-15.6,12.88-20.4,22-6.79,13-6.81,26.77-4.64,40.75a15.67,15.67,0,0,0,2.68,6.41c2.07,3,1.21,4.59-2.52,4.57C842.38,2657,835.05,2657,827.72,2657Z" style="fill:#515c53"/><path d="M1995.35,2614c-4.33,0-8.66.12-13,0-3.9-.14-6.86-1.32-7.87-5.94-4-18.5-14.3-33.62-26.81-47.3-5.67-6.21-11.27-12.68-19.61-15.8-2-.77-4.17-.82-6.19-1.66-3.18-1.31-4.28-3.75-2.86-6.31,4.73-8.53,6.39-18,9.15-27.15,1.14-3.79,2.53-4.85,6.77-3.29,19.93,7.3,39.9,14.57,60.13,21,17.92,5.69,35,14.05,53,18.75,11.1,2.89,16.38,10.15,21.31,18.46s6.88,17.4,4.12,26.84c-3.83,13.06-14.77,21.56-29.73,22.44-12.54.73-12.49.5-15.58-11.36-3.66-14.07-8-28-16.92-39.69-4.86-6.43-10.38-12.71-19.65-13-3.25-.09-6.36.35-7.54,3.54-1.32,3.56-2,7.54,1.17,10.74,2.65,2.71,5.67,5.08,8.24,7.88,4.33,4.71,6.7,10.57,9,16.44,2.71,6.77,5.6,13.46,8.29,20.24,1.72,4.35.67,5.56-4,5.39-3.82-.14-7.66,0-11.48,0Z" style="fill:#515c53"/><path d="M896.78,2657.05H869.37c-2,0-4.47.18-4-2.87,1.23-8.64-.43-17.48,1.91-26,2.46-9,5.89-17.48,11.78-24.88a29.08,29.08,0,0,1,4.72-4.32c2.85-2.36,4.7-1.83,6.73,1.32,8.79,13.63,17.14,27.57,27.17,40.36,2.76,3.52,6.58,6.12,8.79,10.12.86,1.55,2.47,3,1.29,4.95-1,1.72-2.9,1.33-4.53,1.33Q910,2657.07,896.78,2657.05Z" style="fill:#505b52"/><path d="M1951.55,2612.81c-20.85-1.41-40.45-.55-60-.85-5-.08-6.15-1.81-3.72-6.12,3.18-5.61,6.72-11,10.19-16.48,5.17-8.12,7.45-17.54,11.88-26,3.19-6.11,3.67-6.22,9.32-2.32,12.41,8.56,20.37,20.62,27.62,33.37,2.21,3.89,4.8,7.57,7.23,11.33,1.14,1.77,3.2,3.45,2.1,5.74C1955,2613.92,1952.3,2612.69,1951.55,2612.81Z" style="fill:#505b52"/><path d="M1950.55,2373c-1.76,16.15-2.53,32.37-4.41,48.52-1.35,11.52-4,22.85-4.73,34.46-.36,5.55-2.23,11-3.38,16.5-1.83,8.76-.49,11.44,8,14.12,16.1,5.09,31.67,11.65,47.61,17.18,14,4.87,28.2,9.32,42.35,13.81,1.83.58,4,.33,5.93.33,3.26,0,6.23.69,8.58,3.14-9.84-2.35-20.11-1.26-29.92-5-18.37-7.08-37.28-12.76-55.7-19.8-7.88-3-16-5.51-23.94-8.27-7.11-2.46-7.84-3.61-6.4-10.78a774.29,774.29,0,0,0,12.3-88.55C1947.29,2383.4,1946.2,2377.45,1950.55,2373Z" style="fill:#556057"/><path d="M889.15,2701.76c1.9-6.07,6.29-10.47,10.17-15.2a21,21,0,0,0,2.55-3.07c.73-1.35,2.88-2.34,1.8-4.25-1-1.73-3-1.24-4.56-1.25-25.13-.09-50.26.38-75.37-.36-19.64-.57-39.2.23-58.74,1.55-6.84.46-13.25,1-18.73-4-.52-.42-.49-.8.08-1.14,7,3.53,14.25,3,21.85,2.24,10.39-1.09,20.93-1,31.37-1.05,34.27-.18,68.53.37,102.8.68,1.91,0,4.35-.7,5.43,1.5,1.3,2.63-1.4,3.76-2.7,5.3a191.64,191.64,0,0,0-15.68,20.53A1,1,0,0,1,889.15,2701.76Z" style="fill:#575757"/><path d="M1087.24,2797.05c-8.46,3.61-17.53,4.91-26.43,6.66-21.25,4.17-42.79,5.41-64.41,5.18-25.52-.28-50.25-4.66-73.29-16-12.5-6.14-24.63-13.16-32.7-25.22-1.55-2.32-3.31-4.62-3.17-7.66,5.43,8,11.28,15.52,19.3,21.16,15.77,11.09,33.4,17.77,52.1,21.59,24.44,5,49.07,5,73.89,2.58a430.35,430.35,0,0,0,50.52-8.42Z" style="fill:#606060"/><path d="M708.52,2604.11c1.22-3.37,2.48-6.72,3.65-10.1.43-1.27.74-2.54,2.22-3-1.76,6.87-4.27,13.54-4.92,20.69-.86,9.54,2.32,18.32,5,27.2.61,1.08.86,2.15-.1,3.18-4-5-4.92-11.05-6-17.07a87.1,87.1,0,0,1-.05-19C708.37,2605.36,708.45,2604.74,708.52,2604.11Z" style="fill:#747474"/><path d="M714.34,2642.09c0-1.06.07-2.11.1-3.18,2.83,1.81,2.5,5.24,4,7.78a69.72,69.72,0,0,0,24.68,25.14c1.12.68,2.17,1.5,3.25,2.25,0,.38-.06.76-.08,1.14C731.2,2668.45,720.91,2657.07,714.34,2642.09Z" style="fill:#606060"/><path d="M2050.51,2521.06a62.94,62.94,0,0,1,16,5C2060.87,2525.39,2055.38,2524.23,2050.51,2521.06Z" style="fill:#556057"/><path d="M2066.53,2526a22.41,22.41,0,0,1,10,2A16.6,16.6,0,0,1,2066.53,2526Z" style="fill:#556057"/><path d="M899.29,2573a10.44,10.44,0,0,1,4,8A15.69,15.69,0,0,1,899.29,2573Z" style="fill:#515c53"/><path d="M792.36,1424.13c.1-3.7-.63-7.47.92-11.05C793.25,1416.78,794.38,1420.59,792.36,1424.13Z" style="fill:#3e433f"/><path d="M1881.63,2795a8.93,8.93,0,0,1-6.16,1.87A7.51,7.51,0,0,1,1881.63,2795Z" style="fill:#525252"/><path d="M889.15,2701.76l.27,1.52c-.69.93-1.37,1.86-2.06,2.78l.21-2.82Z" style="fill:#616161"/><path d="M1862.72,2749.16c1,4.93-.86,10.71-2.24,16.5-1.1,4.62-7,9.62-10.44,9.37-4.77-.34-8.33-5.06-9.39-11.39s-.14-12.54,0-18.79c.46-17.79-6.67-32.51-18.19-45.46-1.57-1.75-3.12-3.42-3.82-5.75-1.18-3.93-2.46-8.13,1.88-10.74,3.82-2.3,7.76-.9,11.09,1.65,9.67,7.4,16.59,16.73,21.68,27.92,3.16,7,6.57,13.61,8.17,21.16A74.72,74.72,0,0,1,1862.72,2749.16Z" style="fill:#0d0d0d"/><path d="M1353.28,2079.18c-14.16.63-32.93-.9-51.72-1.41-14.52-.39-29-3.35-43.5-4.4-20.41-1.47-40.18-6.74-60.32-9.78-14.33-2.15-28.31-6.93-42.36-10.87-17.54-4.92-34.51-11.48-51.71-17.3a261.13,261.13,0,0,1-37.67-16.77c-15.2-8-30.67-15.62-45.31-24.74-16.07-10-31.4-21-46.43-32.46-1.94-1.48-3.36-3.23-2.87-5.93,2.09-11.42,4.22-22.82,6.2-34.25.91-5.22,1.86-10.5,2.34-15.71.68-7.23,3.42-13.79,4.85-20.72,2.66-12.94,5.09-25.95,7.18-39a13.24,13.24,0,0,0-2-9.11c-2.35-3.53-5.27-6.64-10.21-5.63a11.71,11.71,0,0,0-9.14,8.31c-2.15,8.64-4.24,17.41-4.39,26.43-.11,6.7-2.72,12.93-3.45,19.56-1.62,14.66-3.91,29.24-5.83,43.86a230.34,230.34,0,0,1-6.27,29.43c-1.79,6.71-.63,13.64-2.53,20.24-.56,2,0,5-2.21,5.53-1.76.4-3.22-2.13-4.4-3.67A363.55,363.55,0,0,1,919,1948.57c-5-8.21-11-15.86-15.08-24.57-6.7-14.3-14.61-28-20-43-2.8-7.72-7.26-14.84-9.59-22.89-5.27-18.21-11-36.27-14.13-55.06-1.5-9-1.67-17.83-1.88-26.8-.1-4.3,2-8,2.16-12.24.31-9-4.69-12.73-13-9.37-2.25.91-4.78,2.28-6.08,4.19-7.94,11.67-17.85,21.81-25.48,33.74-5.18,8.09-11.23,15.63-17,23.34-.93,1.24-2,3.2-3.85,2.67s-2.14-2.69-2.66-4.46c-2.68-9.28-2.44-19-4.31-28.33-3.68-18.28.84-36,1.93-53.91.5-8.31,2-16.47,2.69-24.75.86-10.18,3.57-20.18,5.19-30.31,1.23-7.66,4.26-15.36,2.22-23.1a99.24,99.24,0,0,1-3.16-19.08c-.62-9.44-2-18.83-2.45-28.27-.65-13.46-1.8-27-.87-40.4,1.62-23.31,2.55-46.68,5.27-69.94,1.41-12,3.27-24,4.69-36a144.23,144.23,0,0,1,7.3-30.58c3.27-9.37,5.17-19.22,8.18-28.7,4-12.57,8.16-25.1,12.76-37.46,5.92-15.9,13.81-31,20.87-46.35,5.78-12.64,13.15-24.38,19.06-36.93,3.13-6.62,8-12.52,12.19-18.66,3.07-4.53,6-9.2,8.94-13.76,13.57-20.72,29.28-39.71,45.6-58.27,18.26-20.78,38.63-39.38,59.17-57.79,7.5-6.74,16.47-11.81,24.2-18.32,17.11-14.42,36.59-25.17,55.49-36.82a351.3,351.3,0,0,1,47.12-24.28q27.87-11.87,56-23a134.31,134.31,0,0,1,18.45-5.51c11.12-2.63,22-6.24,33.14-8.81,14-3.25,28.33-5.29,42.54-7.72,21.47-3.67,43.05-5.3,64.8-6.21,22-.93,43.74.24,65.6,2,13.9,1.13,27.74,2.81,41.5,4.69,22.47,3.07,44.57,8.32,66.53,14.09,21.76,5.73,42.38,14.42,63.25,22.62,14,5.5,27.63,11.71,41.11,18.21,11.29,5.44,21.7,12.69,32.81,18.54,16.69,8.77,31.57,20.25,46.8,31.12,13.9,9.92,27.5,20.32,39.76,32.35,7,6.85,14.85,12.78,22,19.48,5.44,5.12,10.53,10.64,15.47,16.26,9.2,10.47,18.93,20.49,27.61,31.44,11.54,14.56,22.48,29.55,33,44.86,9.37,13.66,16.86,28.45,25.23,42.71a305.53,305.53,0,0,1,19.32,39.81c5.76,14.21,12.26,28.16,16.55,43,1.65,5.71,4.37,11.1,6.46,16.69a93.38,93.38,0,0,1,4.58,17.68c1.31,7.94,3.71,15.64,5.65,23.44a455.6,455.6,0,0,1,11.36,68.11c2.34,25.52,4,51,3.43,76.62-.34,14.58-2,29.11-3.24,43.64-1.4,16.08-4.47,31.83-6.72,47.72-.84,5.89-2.1,11.73-3.1,17.6-2.07,12.14,1.35,23.81,1.65,35.72.16,6.09,1.59,12.15,1.65,18.31.16,19.31.39,38.64-1.17,57.9-.83,10.23-2.47,20.4-3.76,30.6-.14,1.11.13,2.54-1.43,2.81-1.32.22-2.16-.78-2.87-1.7-11.34-14.65-24.77-27.35-37.61-40.61-3.23-3.33-5.91-7.22-9.5-10.22-6.12-5.13-12.82-5.6-15.63-.63-2.64,4.67-5.21,9.47-5.13,15.33a176.74,176.74,0,0,1-7.47,53.57c-5.31,17.55-11.69,34.8-18.66,51.86s-16.61,32.33-25.79,48c-5.29,9-11.43,17.49-17,26.31-3.35,5.29-7.79,9.9-11.91,14.67-2,2.33-3.62,1.5-3.86-1.35-1.61-19-5.64-37.7-8.3-56.58-1-7.45-3.39-14.76-5.48-22a88,88,0,0,1-3.23-18.6,16.35,16.35,0,0,0-5.31-11.44c-4.83-4.47-12.92-2.25-15,4-1.38,4.07-1,8.29-.61,12.38,1.47,13.52,3.74,26.91,6.3,40.27,1.62,8.45,2.35,17.07,3.62,25.59.63,4.26-1.57,6.74-4.62,9.19-13.91,11.2-29.66,19.56-45.18,28-22.1,12-44.86,23-69,30.51-12.54,3.9-24.54,9.21-37.16,12.91-23.39,6.86-46.79,13.65-70.9,17.45-22.41,3.54-44.7,7.66-67.4,9.63C1408.34,2077.56,1383.19,2079,1353.28,2079.18Z" style="fill:#9eb4a1"/></svg>