<svg id="Layer_3" data-name="Layer 3" xmlns="http://www.w3.org/2000/svg" viewBox="0 0 3000 3000"><title>body</title><path d="M717.59,2640.94c-1-3.86-1.94-7.74-3-11.58-5.48-19.46,4.09-50,29.36-57.63,6.89-2.09,12.94-6.81,19.63-9.76,24.39-10.75,48.74-21.6,74.59-28.58a93.39,93.39,0,0,0,13.17-4.7c5.9-2.6,6.39-3.78,4.3-10.05-3.27-9.8-7-19.43-10.14-29.28a632.88,632.88,0,0,1-23.38-106.23c-6.37-47.7-9.58-95.51-7.28-143.57,3-62.71,11.17-124.75,26.69-185.67,8.3-32.61,17-65.13,29.2-96.58,3.27-8.39,6.57-16.75,10.62-24.79,2.22-4.42,2.82-8.59.45-13.32-18-36-31.19-73.57-38.57-113.16a14.07,14.07,0,0,0-1-2.61c-3.15-1-4.34,1.44-5.68,3.09-8.41,10.33-16.69,20.76-25,31.16-2.7,3.38-5.23,6.91-8.13,10.12-6.1,6.74-10.66,6.56-16.05-.94A64.34,64.34,0,0,1,777,1824.21a260.06,260.06,0,0,1-6.95-78.31c1.49-22,6.21-43.52,10-65.16a78.63,78.63,0,0,0,.61-24.86c-4.41-31.42-5-63-6.07-94.7a400.13,400.13,0,0,1,3.27-63.69c2.44-19.28,8.75-37.63,14.68-56,11.68-36.12,23.38-72.21,33.69-108.74a183.64,183.64,0,0,1,13.47-34.38c1-2,2.52-3.92,2.14-6.3C767.94,1267.65,705,1225.43,648.38,1173c-69-63.83-120.57-139.38-152-228.23-13.43-38-21.44-77-20.82-117.52.34-22.47,3.69-44.47,11.66-65.62a98.64,98.64,0,0,1,8.53-18c2.47-3.91,4.7-7.16,3-12.55-1.65-5.12,2.11-9.36,8.88-11.24,7.37-2.05,14.91-3.61,22.45-4.92,67.12-11.65,133.49-7,199.19,9.86,74.26,19.09,142,51.53,202,99.62,37,29.67,68.74,64,92,105.66,15.59,27.89,27,57.22,30.85,89.17,1.7,14,2.24,27.89-.49,41.8-.37,1.9-1,3.88,0,5.81,2.86.81,4.4-1.27,5.79-3a29.7,29.7,0,0,1,13.87-9.47c17.46-5.88,33.16-15.47,49.83-23a562.2,562.2,0,0,1,100.1-34.22c51.77-12.5,104.19-19.27,157.52-17.54,73.33,2.39,144.1,16.75,212,44.88,20.3,8.41,39.94,18.14,60.4,28.28,0-10.4-1.4-19.86-.74-29.4,2-29,9.89-56.33,22.32-82.48,19.59-41.26,47.29-76.38,81.1-106.81,64-57.6,138.57-95.25,221.48-117,56.64-14.88,114.12-19.95,172.47-14.16a328.17,328.17,0,0,1,48.23,8.32c9.7,2.45,11.42,5.19,10,15.51-.33,2.38.62,3.72,1.67,5.37,14.31,22.59,19.94,47.82,21.77,74,3.35,48.12-6.36,94.24-23.07,139-32.45,86.92-84.19,160.82-152.55,223.22-49.63,45.3-104.37,82.78-167.2,107.63-1.55.61-3.06,1.32-4.55,2.08a14.27,14.27,0,0,0-2.06,1.74c5.61,11.18,11.31,22.32,16.81,33.55,14.7,30,26.06,61.31,35.63,93.27,1.51,5.05,2,10.47,2.46,15.77,2.12,24.26,8,48,10.45,72.18.2,1.94.49,4.28,1.66,5.66,5.18,6.12,5,13.54,5.55,20.78a583.91,583.91,0,0,1-12.55,176.83,53.52,53.52,0,0,0-1.06,19.8c7.17,49,5.14,97.7-4.25,146.21a45,45,0,0,1-4.31,13.26c-4.4,8.09-9.38,8.26-14.89.79-13-17.68-26.5-35.06-40.95-51.63-2.11-2.43-4.65-4.48-8.25-7.89-1.65,11.11-3.92,19.4,1.34,29.66,10.92,21.3,19.35,43.9,27,66.63,21.18,62.67,36.87,126.66,45.22,192.36,1.3,10.25,3.52,20.42,4.19,30.7,1.18,18,11.38,35.08,4.19,53.25,3.34,1.15,4.67.09,6.08-.78,36.54-22.4,76.89-31.35,119.09-33a273.64,273.64,0,0,1,96.56,13.3c17.31,5.66,33.16,13.89,47,25.8,1,.83,2.08,1.49,3,2.11,2.33-1,2.16-2.81,2.35-4.31,7.56-60,28.14-115.7,55.4-169.2,20.53-40.29,45.37-77.68,75.94-111.11a266.78,266.78,0,0,1,47.28-41.42c13.1-8.85,27.08-15.75,42.88-18.3,9.4-1.51,18.64-1.11,27.37,3.13,6.05,2.94,6.59,4.07,4.52,11.14-1,3.54,1.25,5.72,2.46,8.25,15.43,32.15,29.92,64.71,42.64,98,26,68.09,45.66,137.86,55.6,210.2,4.45,32.4,7,64.94,6.67,97.68-.1,9.66-.43,19.31.67,29a30,30,0,0,1-.4,10.94c-5.73,20.95-6.84,42.72-11.86,63.81-9.66,40.57-24.31,79-48.17,113.43-43.07,62.16-102.62,96.44-177.7,104-56.88,5.71-111.48-5-165-23.33-32.24-11-62.9-25.64-93.24-41-1-1.21-3-.77-4-2.08l0,0c-9.71-2.33-17.56-8.35-26-13.08-.71-.4-1.4-.87-2.07-1.33-1-.62-2-1.25-3-1.83a15,15,0,0,1-1.94-1.22c-.63-.44-1.24-.91-1.86-1.38-.34-.2-.66-.42-1-.62-1.46-.8-3-1.41-4.48-2.17-33-20-63.49-43.45-94-66.84-2.24-.15-2.71,1.41-3.12,3.09-1,4.21-1.61,8.49-2.31,12.76-3.44,21.14-3.59,21.37,16.82,29C1994,2505.41,2026,2516,2058,2526.14c20.73,6.58,41.88,34.42,43.58,56,3.5,44.38-32.84,63.64-66,58.32-18.37-2.94-36.35-2.83-54.5-3-27.65-.22-55.27-1.9-82.93-1.26-4.68.11-9.28.22-13.89,2.08,7.42,6.7,16.63,10.42,24.74,15.86,22.44,15.06,41,33.27,46.8,60.93,5.22,25-4.08,45-23.13,61-22,18.42-48.4,25.64-76.27,28.92-65.41,7.71-126.38-4.95-182.6-39.52-17.06-10.49-28.93-26.41-41.89-41.09-4.19-4.74-8.28-6.08-13.87-4.86-30.5,6.7-61.46,10.2-92.42,13.88-44.89,5.33-90,6.47-135.07,8.23-32.68,1.27-65.28-.12-97.85-.83a554.93,554.93,0,0,1-67.38-5.18c-7.21-1-14.6.18-21.84-1.82a5.32,5.32,0,0,0-6.65,4.64c-.9,11.7-9.59,17.31-17.86,22.62-37.13,23.8-77.45,39.81-121.15,46.18-38.7,5.64-77.41,7.36-115.23-5.91-18.48-6.48-36-14.93-47.53-31.44-17-24.4-14.33-54.48,5.92-77.08,1.33-1.49,2.92-2.75,4.15-4.33,4-5.19,3.14-7.39-3.39-8.15-9.94-1.15-19.93-1-29.92-1-19,.05-38,.18-57,0-14.65-.17-29.12,2.11-43.78,2.36-21.27.37-34.61-11.17-46.25-26.5A48.92,48.92,0,0,1,717.59,2640.94Z" style="fill:#010101"/><path d="M2085.51,2537.18a3.64,3.64,0,0,1,4,2.08C2087.57,2539.71,2086.17,2539.14,2085.51,2537.18Z" style="fill:silver"/><path d="M1481.39,1013.08a36.75,36.75,0,0,1,9.89.92,575.57,575.57,0,0,1,136.34,50.32,568.56,568.56,0,0,1,92.66,60.26c20.79,16.7,40.71,34.27,59,53.58a564.62,564.62,0,0,1,56.54,69.56,536.56,536.56,0,0,1,46.34,81.43c12.64,27.85,24.86,56.08,31.87,85.94,5.22,22.22,12.76,44,14.87,66.87,1.37,14.88,3.41,29.68,4.89,44.54,2.17,22,1.83,43.91,1.37,65.84-.64,30.25-3.86,60.4-10.77,89.84-3.94,16.77-2.8,33-.31,49.42a131.79,131.79,0,0,1,1.36,18.86q.19,20.49-.09,41c-.2,15.64-3.32,31-4.3,46.61a10.86,10.86,0,0,1-.73,2.89c-1.47,4.07-3.86,4.85-6.35,1.37-4.7-6.54-10.77-11.8-15.8-18-9.91-12.18-21.51-22.73-32.58-33.77-6.27-6.26-11.34-4.67-14.93,3.62-1.73,4-3.33,7.89-3.2,12.42.83,29.52-7.54,57.09-17.89,84.26-7.59,19.93-15.87,39.61-27.22,57.65-10.59,16.83-20.63,34.16-34.21,48.94-1.89,2.07-3.4,5.06-7.77,4.93-.94-5.32-2.3-10.7-2.81-16.17-2-21.87-6.91-43.25-11.24-64.71-1.64-8.13-2.87-16.35-4.74-24.44-1.4-6.07-4.77-8.75-10.3-8-5.91.79-5.9,5.13-6.19,9.66-.77,11.84,2.55,23.12,4.83,34.47,2.15,10.76,3,21.69,5.25,32.42,1.71,8.06-1.5,13.53-8.53,18.26a500.78,500.78,0,0,1-117.57,58.51c-25.79,8.87-51.55,17.82-78.31,23.23-22.75,4.61-45.64,8.49-68.62,12-51,7.75-102.24,6-153.44,5.22-16.85-.26-33.65-3.38-50.46-5.34a589.64,589.64,0,0,1-173.3-47.32c-24.07-10.73-47-23.52-69.46-37.16-13.61-8.26-26.16-18.22-38.7-28.08-3.16-2.49-3.47-5.26-2.8-8.81,3.39-17.93,6.57-35.9,10-53.81,2.7-14,5.64-28,8.58-41.92a63.46,63.46,0,0,0,.89-14.93c-.14-5.49-2.9-9.61-6.55-9.82-4.74-.27-7.36,3.18-9,6.75-2.81,6.07-3.71,12.85-4.31,19.39-1.47,15.89-5.27,31.4-7.11,47.2-2.81,24.07-9.5,47.5-11.32,71.71a25.1,25.1,0,0,1-2.77,9.42c-3,1.07-4.39-1.19-5.78-2.91a376.16,376.16,0,0,1-33.32-48.4c-20.84-36.14-37.91-73.9-46.84-114.94-3.11-14.32-6.16-28.61-5.24-43.41.25-4,.29-7.89,1.26-11.86,2-8.34-.87-11-9.37-9.54-3.25.57-5.33,2.55-7.14,5q-20.38,27.65-40.75,55.32c-.59.8-1.06,1.7-1.72,2.44-3.62,4-6,3.79-7.9-1.12a48,48,0,0,1-2.65-10.6c-3.2-21.42-4.7-42.69-2.17-64.48,3-26.41,7.21-52.59,12.11-78.68,1.33-7.1-1.26-13.9-2.24-20.71-1.33-9.22-2.31-18.56-2.8-27.71-1-18.59-3.24-37.13-2.59-55.82.24-7,1.88-13.82,2.67-20.74a183.78,183.78,0,0,0,1.27-18.87c.26-24,4.53-47.58,9-71.07,1.34-7.1,1.76-14.49,4.89-21.21,4.67,5.22,2.66,11.33,2.06,17.12-.45,4.3-1.4,8.55-1.12,12.91.21,3.43.66,7,4.73,7.84s5.78-2.5,7.48-5.4a26.42,26.42,0,0,0,1.7-3.61c11.88-29.34,25.07-58.13,39-86.51a576.07,576.07,0,0,1,81.83-123.92c74-85.4,165.9-145.46,270.36-186.53,55.76-21.92,113.79-34.79,174.15-36.57a485.39,485.39,0,0,1,59.61,2.11,56.73,56.73,0,0,0,11,0C1475.73,1027,1478.42,1024.67,1481.39,1013.08Z" style="fill:#3d485a"/><path d="M1747.37,2775.31c-15.48-2.81-29.78-9-44-15.4a136.9,136.9,0,0,1-45.64-33,25.91,25.91,0,0,1-7-14.64c-2.49-16.35-6.39-32.48-9.58-48.72-4.65-23.74-8.73-47.6-13.85-71.23-4.84-22.34-9.07-44.81-14.64-67-4.74-18.93-7.69-38.32-11.09-57.56-1.11-6.24-2.7-12.3-4.4-18.37-4.37-5.11-4.82-11.64-5.92-17.75-6.89-38.38-16.37-76.23-23.53-114.55a70.46,70.46,0,0,0-3-11.6c-1.07-2.86-2.4-6.08-6.05-5.6-4.54.58-4.31,4.71-4,7.88.8,10,3.11,19.74,5,29.52q24.33,125.6,47.15,251.45c5.57,30.46,12.31,60.71,17.62,91.23,2.84,16.36.33,19.62-16.37,22.44a1103.39,1103.39,0,0,1-136.88,14.89c-44.81,1.9-89.64,4.12-134.63,2.57-24.18-.83-48.49-.74-72.66-2-17.88-1-35.84-2-53.63-4.26-9.86-1.26-12.39-5.54-10.24-16.45,11.25-56.89,18.36-114.45,27.67-171.65,8.88-54.57,18.93-108.94,27.62-163.55,2.26-14.14,3.64-28.41,5-42.66.33-3.4,1-8.33-3.57-9.28-5.11-1.06-6.59,3.8-7.61,7.56a335.35,335.35,0,0,0-7.08,34.24c-13.44,81.17-27.62,162.23-42.06,243.23-6,33.76-12.46,67.45-17.79,101.34-2.07,13.19-8.28,25.33-9.09,38.82-.2,3.4-3.34,5.59-5.85,7.83-19.16,17.08-42.69,25.55-66.38,33.67a9.87,9.87,0,0,1-8.69-.58c-1.72-1.58-1.38-3.57-1.05-5.52,3.2-18.6,1.16-36.75-4.52-54.6.78-4.43,3.41-9.57-2.35-12.32-5.16-2.47-9.67.22-13.54,3.7-15.12,13.6-24.26,49.92-16.85,66.44,4.57,10.2,3.08,12.84-8.15,14.56a205.34,205.34,0,0,1-59.36.06c-1.87-.26-3.15-.78-3-2.93,10.54-3.74,12.67-11.17,11.75-21.83s-1.85-21.06-4.71-31.31c-1.08-3.84-1.92-7.74-.76-11.74a14.69,14.69,0,0,1,2.48-4.28c2.19-2.89,5.34-5.82,2.23-9.64-2.95-3.65-7.16-3-11.07-1.79-6.26,1.92-9.18,7.52-12.55,12.35-10.34,14.79-15.7,30.64-10,48.85,3.07,9.77,4.6,10.88,15,8.56,4.61,2.48,9.51,4.79,6.84,11.57-5.68,3.15-11-.14-16.48-.87-13.77-1.85-26.22-7.23-38.29-13.82-26.16-14.27-31.65-42.51-13.16-66,11.34-14.45,25.81-24.81,41.25-34.21,28.88-17.59,29-17.67,28.79-51.29-.42-61.59-8-122.18-26.22-181.18-4.61-15-11.15-29.23-17.27-43.62-4.94-11.63-11.56-22.51-16.06-34.38-.94-2.46-2.41-5.29-5.61-4.76-3.46.58-3.08,3.92-3.19,6.47-.26,6.16,1.73,11.82,4.38,17.26,23.19,47.58,35.5,98.13,40.93,150.54.41,3.95,1,8-2.17,11.35-6.71-1.25-6.92-7.48-8.86-12.07-26.75-63.3-42.06-129.67-54.09-197.09-9.82-55-14.36-110.37-11.61-166.06,2.7-54.64,10.36-108.79,26.36-161.29,3.66-12,.74-19.66-7.51-27.33-4-3.69-6.93-3-10,.77-2.53,3.19-3.92,7-5.34,10.69q-10.29,27.09-20,54.39c-1.34,3.76-1.37,8.88-7.06,9.59-.08-9.53,3.81-18.19,6.38-27,7-24.28,14.3-48.51,23.59-72.07.62-1.58,1.13-3.12,2.94-3.83,3.66,1,4.56,4.44,6.3,7.2,11.92,18.83,23.77,37.72,39.65,53.63a50.47,50.47,0,0,0,9.27,7.54c7.52,4.6,13.42,2.89,16.73-5.27a42.47,42.47,0,0,0,2.92-13.59c.11-2-.07-4,.12-6,.54-5.67,1.8-6.13,6.57-3.08,8.68,5.55,16.67,12.06,25.2,17.84a478.64,478.64,0,0,0,82.36,44.6A625.39,625.39,0,0,0,1175,2084c26.43,6.61,53.21,12,80.28,14.65,17.81,1.74,35.66,3.65,53.54,5.07,24.31,1.92,48.57,1.31,72.84,1.41,23,.1,45.69-2.94,68.46-5.45,25.77-2.82,51.25-7.19,76.7-12.09a624.44,624.44,0,0,0,114.5-34.13c31-12.42,60.31-27.81,88.65-45.29,6-3.69,7.33-2.89,7.64,4,.33,7.28-.84,14.62,1.62,21.8,3.66,10.68,11.16,12.66,19.69,5,9.69-8.72,17.56-19.09,25.95-29,18.19-21.38,32-45.76,45-70.39,7.63-14.34,14.58-29.16,19.5-44.79,2.09-6.66,4.71-13.14,7.21-19.66.56-1.49,1.23-3.32,3.32-3.18,1.87.13,2.72,1.68,3.46,3.19a17.56,17.56,0,0,1,1.23,2.73c6.56,22.67,15.08,44.69,21.05,67.58q13.45,51.63,24.7,103.74c5.62,26,10.59,52,13.28,78.52,2.12,20.79,5.1,41.49,7.35,62.26,1.17,10.9,1.19,21.89,2,32.84a1028.17,1028.17,0,0,1,2,118.79c-1.19,28.47-3.33,56.94-6.93,85.34a582.91,582.91,0,0,1-23.19,104.89c-9.24,28.83-23,55.22-43.33,77.92-2.69,3-5.19,8.5-10,6.6-3.7-1.45-3.18-7-3.71-10.69-3.42-24.18-2.65-48.27,1-72.48,2.11-14.09,3.64-28.27,6.26-42.32,4.66-24.9,11.77-49.1,19.24-73.23a671.24,671.24,0,0,1,27.9-73.65,15.34,15.34,0,0,0,1.56-6.74c-.06-2.48,2-5.58-1.22-7.22-3.52-1.78-7.31-1.64-10.08,1.48a68,68,0,0,0-6.37,8.91c-16,25.29-26,53.18-34.31,81.66-5.65,19.43-12.24,38.69-15.1,58.84-2.65,18.71-5.87,37.31-7.67,56.19-2,20.66-1.11,41.23-1.64,61.84-.23,9.07,1.52,17.9,2.85,26.73,1.91,12.67,9.67,20.12,22.19,23.78,29.81,8.72,55.84,24.26,74.76,49,15.23,19.94,14.12,42.42-8.44,59.24-20,14.9-42.7,22.3-67.2,25.79-15.64,2.22-31.21,1.64-46.83,1.55-6.27,0-12.54-1.22-18.82-1.82-3.65-.34-3.93-2.33-3.51-5.54,3.69-28-3.3-53.37-18.94-76.58a28.57,28.57,0,0,0-3.13-3.88c-4.47-4.59-9.37-5-14.14-1.1-5.45,4.42-.51,7.49,1.48,10.93-4.71,7.57-5.81,15.88-5.46,24.63.29,7.24.62,14.58-1.28,21.65C1738.45,2762.2,1745.6,2767.9,1747.37,2775.31Z" style="fill:#3d485a"/><path d="M2253.43,2171.37c14.05-.48,25.74,6.24,37.23,12.83,22.92,13.15,43.3,29.83,62.45,47.9,16,15.1,31.87,30.4,46.62,46.68,41.46,45.77,79.07,94.38,106.7,150.06,6.52,13.15,9.81,27.5,16,40.72,1.22,2.59-.38,4.56-1.54,6.47-19.37,31.77-44,58.43-76.19,77.57-31.41,18.67-65.34,28.82-101.82,32.15-46.22,4.21-90.79-3-134.8-15.95-65.26-19.26-123.81-51.86-179.47-90.25-23-15.88-44.6-33.66-66.8-50.63-10.49-8-11.58-17.69-10-29,2.25-16.06,4.64-32.11,6.94-48.17.19-1.31.71-3.09.09-3.91-5.4-7.08-1.68-14.72-1.67-22.13,0-21.67,1.09-43.4-.35-65-1-14.53-.41-29.19-3.1-43.7-1.56-8.45-3.44-12.07,9.55-16.08a4.08,4.08,0,0,1,.42,2.85c-.87,3.68-5.09,7.54-1.36,11,4,3.78,8.14-.22,11.8-2,39.87-19.43,81.87-21.42,124.84-15.4,47,6.58,91.39,20.76,132,45.81,9,5.52,10.15,5.41,13.43-4.47,6.72-20.23,11.48-40.91,8.47-62.53A7.66,7.66,0,0,1,2253.43,2171.37Z" style="fill:#3d485a"/><path d="M1047.36,1065.07c.41,4.27-.7,7.44-4.75,10A517.5,517.5,0,0,0,985.67,1117a593.09,593.09,0,0,0-65.7,64c-11.21,12.75-22.06,25.77-32,39.44q-18.18,24.95-33.93,51.59c-2.11,3.56-3.4,4.91-7.44,2-7.67-5.46-17.06-7.36-25.67-10.84-44.83-18.12-85.27-43.55-123.11-73.26-22.28-17.49-42.63-37.16-62.42-57.42-4.43-4.54-4.58-9.09-3.24-14.57a313,313,0,0,1,19.23-56.6,438.64,438.64,0,0,1,60.52-96,514.26,514.26,0,0,1,39-42.73,386.54,386.54,0,0,1,51.7-42.25l18.92-12.83c37.42,17.26,76,32.15,109.6,56.95,28,20.65,54.54,42.62,75.15,71,1,1.35,2,2.66,3,4,10.78,15.54,17.93,31.89,12.19,51.42-1.87,6.39-1.83,13.17-3,19.73-.82,4.58,1.2,6.34,5.7,4.33s9.34-3.49,13.43-6.53C1040.38,1066.28,1043.17,1063.48,1047.36,1065.07Z" style="fill:#3d485a"/><path d="M1891.15,837c.21,3.55,2.28,6.18,4.38,8.78,37.36,46.36,64.38,98.46,85.84,153.72,11.23,28.89,21,58.22,26.63,88.75,3.48,18.9,9.26,37.44,9.37,56.9a50.28,50.28,0,0,1-7.75,27.46c-2.45,3.93-5.4,7.57-6.41,12.33-.66,3.1-3.37,4.91-5.76,6.68-37.06,27.54-76.76,50.39-119.77,67.38-4.64,1.83-7.86,2.33-10.72-2.87-10.74-19.59-24.57-37.07-38.2-54.64a491,491,0,0,0-51.37-57c-22.74-21.41-46.47-41.71-72.5-59.22q-18.21-12.26-36.9-23.72c-7.08-4.36-7.09-4.32-5.57-12.57.36-2,.68-3.94,1-5.9,6.19-5.7,13.74-9.28,21-13.23a43.88,43.88,0,0,0,19.42-20.48c15.43-32.12,37.38-59.61,62.74-84.42,34.21-33.46,73-60.71,114.52-84.3C1884.22,838.87,1887.07,836.11,1891.15,837Z" style="fill:#3d485a"/><path d="M2471.68,1883.41c56.83,120.34,93.7,245.79,97.66,379.74-3.58.94-4.37-1.78-5.5-3.52-22.24-34.33-49.53-64.37-79.41-92-37.48-34.66-77.43-66.16-122.81-90.1-18.32-9.66-37.47-17.25-58.16-20.27-.22-9.32,6.13-15.91,10.25-23.19,17-30,38.09-56.91,62.08-81.54,20.42-21,40.75-42.06,64.94-58.9,5.75-4,11.52-7.95,18-10.61C2463,1881.26,2467.5,1879.27,2471.68,1883.41Z" style="fill:#3d485a"/><path d="M861.33,2053.22c5.72-10.18,8-21.67,12.28-32.39,5.08-12.63,9.47-25.53,14.23-38.29a23.37,23.37,0,0,1,2.76-5.29c6.45-9.15,8.95-9.19,15.69-.46a17.65,17.65,0,0,0,3.37,3.67c8.58,6.18,8,13.51,4.92,22.82a393,393,0,0,0-15.34,65.7c-2.34,15.69-5.87,31.24-7.39,47-1,10.85-1.72,21.87-2.88,32.66-3,27.95-1,55.87-1.49,83.78-.22,13.22,2.09,26.36,3.42,39.53,1.13,11.2,2.43,22.34,4.34,33.44,2.91,16.95,5.28,34,8.32,50.9,4.64,25.75,10.69,51.18,17.3,76.51a694.34,694.34,0,0,0,32.44,96.14c1.77,4.19,2,9.21,5.93,12.41a5.89,5.89,0,0,1,2,2.65c1.26,17.58,1.73,35.18-.36,52.72-.83,7-.28,14-1,20.91-1,9.61-5.08,12.55-14.1,9.2-14.91-5.54-25.29-16.85-30.6-31.1-8.26-22.15-18.25-43.5-27.56-65.15a727.18,727.18,0,0,1-53.68-195.48,22.57,22.57,0,0,1-.75-3.23c-.76-6.06,0-12.29-2.07-18.21a179,179,0,0,1-.75-57.05,5.69,5.69,0,0,0-.83-3.78c.46-37.07,7.85-73.32,12.87-109.86A714.43,714.43,0,0,1,857,2068.59C858.32,2063.43,859.89,2058.34,861.33,2053.22Z" style="fill:#53647a"/><path d="M1481.39,1013.08c2.91,8.79.77,13.52-7.45,15.9-8.75,2.54-17.67,3.18-26.56,1-3.65-.9-7.26-.74-10.9-.89-7.28-.29-14.64.82-21.8-1.64a11.19,11.19,0,0,0-5.94-.22c-11.83,2.86-23.93.76-35.76,2.07-19.71,2.18-39.43,4.48-58.9,8.5a629.43,629.43,0,0,0-83.31,23.16c-35.54,12.61-69.18,29.2-102.17,47.33a636.75,636.75,0,0,0-55.06,34.07,756.86,756.86,0,0,0-64.6,49.78c-17,14.62-32.6,30.5-47.87,46.7-15.67,16.62-29.09,35.26-42.67,53.7-18,24.44-33,50.66-47.12,77.38-9.59,18.21-17.43,37.35-25.87,56.15-5.72,12.73-11,25.64-16.75,38.37-1.86,4.14-3.67,9.11-9.78,8.23-5.41-.79-7.3-4.26-7.52-12.1-.28-10,3.55-19.7,1.73-29.75,2.38-22,8.59-43,16.57-63.46,14.19-36.42,33.05-70.36,55.58-102.27,1.71-1.76,2.64-4,4.08-6h0c19.74-29,42.66-55.33,67.52-79.94C1025,1111.71,1104.78,1063,1195,1030.88c37-13.18,74.83-22.9,114-27.2,6.71-.73,13.8-.23,20.37-2.64a559.71,559.71,0,0,1,71.57-3.35c17.22.42,34.54.68,51.62,3.53,9.58,1.59,18.68,4.64,26.76,10.23a8.06,8.06,0,0,1,2.05,1.62Z" style="fill:#53627a"/><path d="M2193.2,729c5.21,2.06,7.83,6,9.82,11.22,6.86,18.08,13,36.23,15.25,55.63a232.86,232.86,0,0,1,.44,52.83,341.35,341.35,0,0,1-23.07,90.6,521.82,521.82,0,0,1-52.68,98.44c-.55.81-1.11,1.63-3.09,1.23a239.07,239.07,0,0,0-3.54-34.9c-4.59-25.71-13-50.2-22.59-74.34-19.48-49-46.5-93.49-79.58-134.4-4.6-5.68-9.9-10.79-14.87-16.17,1.83-2.69,4.82-3.4,7.62-4.39A535.42,535.42,0,0,1,2138.1,748c16.26-2.09,31.17-9,46.05-15.63C2187.1,731,2189.45,728.15,2193.2,729Z" style="fill:#3d485a"/><path d="M2001,1011.35c-5.32-12.55-10.44-25.19-16-37.63-17.15-38.42-37.08-75.31-60.94-110a327,327,0,0,0-28.63-35.94c-13.11-14.27-27.26-27.31-45-36.26.83-3.12,3.3-3.6,5.14-4.64a548,548,0,0,1,79.92-36.49c10.45-3.84,20.24-3,30,1.79,17.36,8.5,31.54,21.12,44.32,35.28,44.22,48.95,75,105.72,96.88,167.63a9.74,9.74,0,0,1,.26,2c-7.62,2.55-14.62-2.46-22.28-1.72-6.49.62-12.13,1.83-17.44,5.88-9,6.85-18.39,13.33-25.35,22.21-10,12.71-25.15,18-37.11,27.7A3.43,3.43,0,0,1,2001,1011.35Z" style="fill:#3fe3f9"/><path d="M2447.41,2305.62c-3.55-2.09-5.63-5.6-8.21-8.59a674.94,674.94,0,0,0-117.36-107.79,76.16,76.16,0,0,0-12.1-6.92c-8.42-4-16.87-7.93-24.61-13.18-9.93-6.72-21-9.79-33.92-9.62.94-10.07,4.36-19,6.31-28.24,1.37-4,2-8.27,3.77-12.16,5.61-14.63,11.27-29.23,16.77-43.9,1.42-3.78,3.38-5.14,7.79-5.83,14.05-2.2,27.17.18,40.07,5.39,14.24,5.75,28.12,12.19,41,20.56a672.56,672.56,0,0,1,118.08,96.77c2.28,2.37,5.11,4.32,6.41,7.54.21,11.49-6.7,20.68-10.37,30.85-8.36,23.14-19.16,45.34-27.34,68.57C2452.71,2302,2451.86,2305.72,2447.41,2305.62Z" style="fill:#3fe3f9"/><path d="M959.58,2543a4,4,0,0,0-.35-1.7c-.78-22.28-4.4-44.22-8.92-66a401,401,0,0,0-32-94c-3.54-7.3-5.89-14.81-5.08-23.07.32-3.26,1.3-5.89,4.84-6.64,3.36-.71,5.8.89,7.73,3.43a9,9,0,0,1,1.44,2.59c7.13,21.87,19.42,41.46,27.49,63a460,460,0,0,1,18.34,62c5.38,24.29,7.33,49.16,10.8,73.77,3.92,27.85,3.09,55.69,3.64,83.58.19,9.66-4,15.43-10.93,20.75-9.8,7.49-20.33,13.86-30.86,20.11a98.31,98.31,0,0,0-31,29.06c-8.52,12.38-12.23,26.51-4.54,41.32a37.74,37.74,0,0,0,13.35,14.59c9.25,5.78,18.73,11.69,29.7,13.8,10.06,1.94,19.73,6,30.21,5.6h0c1.82,2.62,4.59,2.26,7.23,2.25,14.64,0,29.28-.23,43.92-.08,5.42.06,10.47-1.7,15.75-2.3,3.37-.38,5.87-2.47,3.23-6.14-7.78-10.83-5.59-22.84-3.94-34.55a73.43,73.43,0,0,1,14.7-34.5c4.24-5.58,9-10.69,17.11-10.59,4.56.06,8.13,1.75,9.35,5.93s2,8.77-3.62,10.92c-14.91,14.08-19.13,31.25-14.13,50.77,1.78,6.94,6.25,10.94,14.11,8.74a13,13,0,0,1,2.76-.42l1.4.12c4.51.63,8.6-1,12.58-2.63,14.79-5.95,30.07-10.68,43.85-19.07,7.7-4.69,14.23-10.82,21.56-15.93,2.44-1.71,2.41-4.7,2.13-7.36-.62-5.83.88-11.06,3.2-16.38,4.46-10.18,4.71-21.34,6.59-32.11,5-28.76,9.17-57.67,15.8-86.16,3.53-15.17,5.47-30.7,8.08-46.08,3.06-18,6.35-36,9-54,4.46-30.2,11.46-59.93,15.59-90.21,3.18-23.32,8.17-46.4,12.39-69.58,1.13-6.2,2.3-12.4,3.66-18.55a26.37,26.37,0,0,1,2.65-7.5c2.21-3.82,5.75-5.51,10.19-4.35,4,1,4.65,4.2,4.8,7.77.43,10.05-1.31,20-2.7,29.76q-7,49.26-15.66,98.28c-4.21,23.84-8.91,47.6-12.53,71.56q-5.58,36.9-11.34,73.78-6.42,40.8-13.12,81.55c-1.85,11.13-4.28,22.16-6.3,33.26-1.13,6.15-.19,7.59,6.06,9,7.8,1.78,15.9,1.8,23.76,2.28,12.94.78,25.85,2,38.79,2.75,49.58,2.79,99.22,2.89,148.8,1.56q44.26-1.18,88.5-5.23c21.83-2,43.56-4.71,65.36-6.82,13.51-1.31,26.82-4.45,40.32-6.2,9.88-1.28,11-3.74,9-13.46-4.76-22.41-7.81-45.12-12.7-67.52-5.8-26.59-10.75-53.36-15.74-80.11-4.38-23.49-8-47.12-12.51-70.58-4.3-22.49-8.24-45-13.24-67.4-5.41-24.26-8.81-49-13.13-73.47-1.2-6.85-4-13.39-3.77-20.54.23-7.81,1.35-9.91,6.35-10.39,5.33-.52,8.31,1.76,9.87,8.8q8.09,36.47,15.75,73,6.88,32.63,13.46,65.33a48.31,48.31,0,0,1,.45,6.93c-1.4.85-2.79,2.39-4.2,2.4-2.44,0-2.78-2.64-3.15-4.37-2.2-10.28-4.62-20.55-6.11-31-2.8-19.57-8-38.62-11.64-58-2.1-11.25-4-22.58-8.66-33.16-.32,11.39,3.21,22.24,4.76,33.37,2.14,15.38,6.28,30.43,7.43,46,.36,4.86,2.62,9.56,3.71,14.41,4.32,19,7.27,38.32,11.3,57.42,5.12,24.25,8.59,48.85,12.93,73.26q4.26,23.94,9,47.78c6.09,31.1,12.34,62.16,18.42,93.26,1.39,7.08-3.63,13.45-11.7,14.45-21.65,2.67-43.17,6.24-64.9,8.43-7.46.75-15.27.56-22.54,3.24a3.85,3.85,0,0,1-2,.3c-11.58-2.15-22.73,2.65-34.18,2.09-6.38-.31-12.28,2.9-18.75,2.12-4.25-.52-8.56.1-12.81-1.45-3.46-1.26-7.14-.65-10.8.33a38,38,0,0,1-19.71,0c-3-.78-6-1.63-8.8-.39-7.87,3.53-16.36,2.34-24.42,3.74-15.3,2.64-30.55,1-45.8,1.66a27.46,27.46,0,0,1-10.77-1.54c-9.64-3.53-19.43-2.14-29.46-1.39-14.35,1.09-29,3.85-43.18-1.9-1.72-.69-3.18,0-4.8.15-8.24.83-16.56,2.22-24.43-1.94-.84-.44-2.07-.93-2.83-.64-10,3.89-19.68-1.19-29.58-.86-10.46.36-14.32-4.05-14.1-14.58a24.94,24.94,0,0,1,.54-5.94c5-18.58,5.89-37.87,9.67-56.62,3.08-15.27,5-30.69,7-46.06,2.88-23,8.33-45.54,11-68.56,1.89-16.07,5.32-32,8.07-47.93,2.58-15,4.61-30,7.51-45,3.47-17.84,5.5-36,8.77-53.84,3.5-19.19,6.17-38.45,8.22-58.6-3.6,1-4.16,3.59-4.61,5.89-3.46,17.52-6.89,35.06-10.15,52.62-2.53,13.65-4.82,27.35-7.16,41q-5.49,32.24-10.9,64.48c-2.82,16.63-5.62,33.26-8.5,49.88-2.43,14-4.85,28-7.48,42-2,10.69-3.91,21.36-6.88,31.91-2.85,10.1-3.47,20.83-5.13,31.27-3.38,21.22-6.74,42.45-10.3,63.64a35.07,35.07,0,0,1-3.25,9.4c-1.8,3.7-3,7.49-2.4,11.54,1.81,11.65-4.78,18.87-13.11,25.07-25.2,18.78-53.71,30.46-84.19,36.85-8.4,1.76-16.94,3.85-25.28,4.94-15.36,2-30.6,6.15-46.41,4.89-7-.55-13.89-.78-20.17-4.24a7.87,7.87,0,0,0-4.65-1c-25.93,1.58-48.71-5.92-69.08-22.33-12.83-10.34-19.21-22.76-16.94-38.89,1.65-11.76,7.55-21.79,15.62-30.56a148.81,148.81,0,0,1,41.66-32c6.73-3.46,12.73-8.38,19-12.78a7.49,7.49,0,0,0,3.48-6.83c-1.08-14.67,2.89-29.05,2.19-43.75-.58-11.94-2.34-23.69-3.6-35.52-1.31-12.18-3.15-24.3-4.25-36.46-1.86-20.55-6.46-40.49-10.75-60.56-5.73-26.85-15.84-52-28.15-76.41-.88-1.75-1.51-3.74-3.4-4.81,2.31,11.45,7.77,21.8,11.59,32.73,7.57,21.67,12.53,43.85,16.76,66.39,3.36,17.94,5.11,36.06,7,54.06,2.11,19.7,6.23,39.34,4.77,59.44-.81,11.28-.14,22.66-.15,34a34.12,34.12,0,0,1-.15,6c-1.06,5.94-4.22,10.85-9.82,13-5.08,1.9-9.73-.65-13.65-4.17-8.72-7.81-15-17.74-22.51-26.55-21-24.55-34.92-53.37-48.32-82.29-15.1-32.58-25.69-66.79-33.69-101.88a608.63,608.63,0,0,1-11.35-64.46c-2.5-21.32-6.46-42.75-4.46-64.44.6-6.45-2-12.38-2.22-18.74-.48-13.43,2-26.41,4.32-39.47,1.87,2.67,1.36,5.75,1.4,8.69.28,17.94.58,35.87,2.58,53.73,2.3,5.86-.73,12.25,1.79,18.08v0a946.69,946.69,0,0,0,16.4,99.93,554.39,554.39,0,0,0,56,148.11c11.81,21.32,26.45,39.78,42.32,57.71,2.12,2.4,4.33,6.18,7.95,5,4.07-1.27,4.06-5.89,4.26-9.4,1.34-23.65.38-47.28-1.42-70.86C960.24,2556.91,961.6,2549.87,959.58,2543Z" style="fill:#020202"/><path d="M616.28,901.06c2.34-4.89,6.29-8.56,9.77-12.55,29-33.28,60.7-63.61,98.07-87.54a204.57,204.57,0,0,1,37.22-19.22c9.35-3.58,18.88-6.58,29-6.91,1,0,2.22.17,2.95-.32,9.65-6.43,17.69-.45,25.92,3.38a490.42,490.42,0,0,1,63.57,35.58c2.67,1.77,5.19,3.78,9.19,6.71-31.76,5-58.73,17.73-84.29,33.39-46.86,28.71-85.86,66.14-119.09,109.74-2,2.64-4.17,5.16-6.25,7.74-9.64-4.83-14.05-14.63-20.52-22.33-10-11.92-20-24.16-27.06-38.1C630.49,902.18,621.81,905.33,616.28,901.06Z" style="fill:#3fe3f9"/><path d="M671,816.9c-12.53,7.77-22.34,18.79-32.6,29a408.51,408.51,0,0,0-44.23,51.4c-19.66,27.39-37.95,55.58-48.11,88.16-1.87,6-3.46,12.11-5.15,18.07-2.41.07-3-1.55-3.76-3-18.87-35-34.11-71.48-42.51-110.55-4.78-22.17-7.95-44.61-6.92-67.28,1-23,4.92-45.65,14.29-66.93,2.45-5.55,2.51-11.64,5.06-17.06,4,3.66,3.06,8.58,3,13.09a72.72,72.72,0,0,0,3.45,23.54c4.18,12.7,11.26,19.82,26.14,21.49,40.49,4.53,81.4,6.58,121.17,16.56C664.35,814.24,668.23,814,671,816.9Z" style="fill:#3d485a"/><path d="M671,816.9c-10.48,1-20.32-2.71-30.35-4.57-17.25-3.2-34.67-5-51.94-7.68-15.39-2.41-31.36.79-46.29-5.31a11.65,11.65,0,0,0-5.94-.25c-10.82,1.73-16.8-4.83-21.4-12.9a58.92,58.92,0,0,1-7.77-28.52c-.1-6.33-.16-12.65-.24-19-.09-4,2.8-4.76,5.82-5.58,19.29-5.21,38.69-9.86,58.63-11.7,9.6-.89,19.25-1.33,28.87-2.06,27.23-2.08,53.74,2.55,80.1,8.54a746.33,746.33,0,0,1,80.55,23.3c2.67.93,5.86,1.14,8.73,5-18.34,7.57-36.3,15-52.28,26.16S685.34,803.83,671,816.9Z" style="fill:#53647b"/><path d="M2447.41,2305.62c2.35-2.06,3.13-4.94,4.15-7.75,11.63-32,25.54-63.08,38-94.75a28.07,28.07,0,0,1,1.93-3.47c4.45,2.51,7.57,6.53,10.73,10.28,17.6,20.92,36.61,40.55,55.88,59.89,7.61,7.63,10.1,15.89,8.67,26.06a284.59,284.59,0,0,0-2.33,32.67c-.89,37.17-10.52,72.22-23.48,106.61-1.24,3.3-2,7-5.46,10.13-3.42-6.66-6.81-13-10-19.47-2.79-5.7-6-11-10.64-15.49-3.52-3.4-5.87-8-8.64-12.18-12.78-19.09-24-39.13-36.1-58.66C2463,2327.93,2455,2316.89,2447.41,2305.62Z" style="fill:#3fe3f9"/><path d="M2001,1011.35c6.88-5.62,13.1-12.15,22.27-14.38,3.26-.8,5.16-4.07,7.52-6.38,10.87-10.69,21.84-21.15,33.81-30.75,10.6-8.5,21.36-7.28,32.83-5.62,3.24.46,6.34,1.86,9.5,2.83,3.61,2.54,4.28,6.4,5.07,10.4,4.91,24.75,11.42,49.26,9.9,74.89-.42,7,2.57,13.62,4.32,20.3a13.45,13.45,0,0,1-2.69,12.91c-3.51,4.42-6.63,9.16-10.74,13.09q-26,24.78-52,49.55c-2.15,2-4.21,4.3-7.31,5-11.18,6.47-21,4-23.73-5.87-4.66-30.22-8.88-60.52-18.24-89.78q-4.39-13.74-8.91-27.44C2001.69,1017.24,2000.66,1014.43,2001,1011.35Z" style="fill:#3fe3f9"/><path d="M1891.15,837c-14.4,8.81-29.05,17.24-43.15,26.52-28.79,19-56.5,39.5-80.83,64-26,26.21-49.13,54.73-63.85,89.11a17.7,17.7,0,0,1-6.24,7.59c-10.58,7.38-21.26,14.65-33.64,18.82.94-15.65,4.08-30.92,8-46.06,10.46-40.48,27.81-77.63,55.2-109.4,21.79-25.29,47.42-46.56,74.31-66.29,11.26-8.26,22.84-16.06,34.62-23.57,4.29-2.74,7.36-2.39,11.34,1,13.37,11.47,27.14,22.48,40.73,33.69C1889.12,833.68,1891,834.68,1891.15,837Z" style="fill:#53647b"/><path d="M1047.36,1065.07c-8.11,5.09-16.07,10.45-25.22,13.63-1.81.64-3.47,2-5.92,1.24-2.72-8.69-.17-17.59,2.06-25.27,6.46-22.23-.67-40.12-13.58-57.34-16.05-21.4-35-39.67-56-56.25-21.69-17.17-44.49-32.51-69.22-44.77-16-7.94-32.76-14.52-49.06-22-3.38-1.54-8.12-1.81-8.94-6.87,26.47-15.69,55-26.68,83.63-37.68a10,10,0,0,1,10.29,1.32c7.51,5.53,15.15,10.86,21.91,17.34a454.08,454.08,0,0,1,90.58,120.93c12.35,24.05,21,48.78,21.73,76,.06,2.29,1,4.55,1.2,6.86C1051.17,1056.87,1051.69,1061.66,1047.36,1065.07Z" style="fill:#53647b"/><path d="M616.28,901.06c3,0,6,.14,8.94-.07,4.54-.33,7.6,1.7,9.74,5.49,11.44,20.22,26.56,37.76,40.8,55.93,2.24,2.85,4.4,5.76,6.6,8.65-13,24.28-26.15,48.52-39.09,72.85-10.86,20.42-18.94,41.85-22.59,64.8a39.87,39.87,0,0,1-1.41,4.52c-7.18-4.56-11.8-11-16.53-17-15.94-20.08-31.23-40.69-47-61-4.3-5.55-5.11-11.23-3-17.77,5.69-17.73,12.06-35.21,20.42-51.85C584.89,942.37,599,920.62,616.28,901.06Z" style="fill:#3fe3f9"/><path d="M819.85,2611.7c.46-2.26,2.69-2.79,4.09-4.12,2.31-2.2,4.06-4.57,2.35-7.87a7.82,7.82,0,0,0-8.14-4.59c-4.39.39-8.65,1.64-11.9,4.54a159.74,159.74,0,0,0-13.33,13.46c-2.95,3.34-3.83,7.63-3.75,12.12.16,9,0,18,.37,27,.2,5-1.37,7.43-6.71,7.22-7.31-.3-14.64-.24-22-.22a13.85,13.85,0,0,1-9.3-3.06c-15.52-13.29-23.05-29.15-19.6-49.35,2-11.79,12.29-23,25-23.43a24.3,24.3,0,0,0,9.56-2.57c29.82-14,61.11-24.16,91.81-35.85,5.64-2.15,6.51-1.76,9.06,3.71,4.65,9.93,9.14,19.93,14.11,29.68,2.06,4,2.27,6.45-2.25,8.74-16.41,8.34-22.86,23.45-25.57,40.31-1.25,7.74-1.26,16,1.84,23.65,1.44,3.56,3.81,6.29,8.07,6.36s5.56-3,6.36-6.39c7.8,3.21,11.62.59,14-7.6,3.6-12.29,7.11-24.73,13.33-36.1,3.56,1.21,4.74,4.69,6.25,7.44,7.54,13.78,18.16,25.23,27.7,37.49,1,1.31,2.37,2.43,3.1,3.87,1.31,2.55.74,4.56-2.47,5a39.19,39.19,0,0,1-5,.2l-115.52-.16c-.81-3.33,1.74-4.63,3.77-6.23C831,2642.45,832.58,2627.68,819.85,2611.7Z" style="fill:#3d485a"/><path d="M2193.2,729a49.22,49.22,0,0,1-20.65,11.42c-11.09,3.25-21.4,9.41-33,10.38-12.23,1-24.08,3.66-36.08,5.83-24.46,4.42-48.25,11.2-71.72,19.25-4,1.39-8,3.29-12.42,3.26-18.38-13.51-36.54-27.34-56.07-39.39,2.09-3.5,4.89-3.77,7.3-4.5,28-8.49,56.14-16.5,85.17-20.89,10.3-1.56,20.61-1.19,30.87-.54,7.31.46,14.6,1,21.92,1,26,0,51.81,2.37,77.65,4.53C2193.32,719.93,2193.3,720.06,2193.2,729Z" style="fill:#53647b"/><path d="M2017.33,2609.45c.07,1.32.15,2.65.22,4,.2,3.69-.74,5.2-5.17,4.73-7.9-.86-15.92-.62-23.89-.93-7.63-.29-7.62-.33-9.09-7.44-2.47-12-8.08-22.58-15.23-32.2a149.42,149.42,0,0,0-18.27-21c-5-4.64-10.34-8.58-17.22-9.23-5.38-.52-6.25-3.68-4.81-7.51a261.93,261.93,0,0,0,9.22-28.4c1-3.82,3.48-4.76,6.78-3.66,4.72,1.58,9.24,3.74,14,5.27,34.44,11.18,68.51,23.39,102.57,35.62,20,7.19,36.8,42.37,13.82,61.17-9.72,8-20.67,8.13-32.06,7.2-3.1-.25-4.46-2.8-4.43-5.74.09-12.07-5.81-22.33-9.88-33.15-3.38-9-9.4-16.13-16.94-21.76-8.6-6.42-15.55-3.38-17.74,7.19a16.13,16.13,0,0,0-1.27,1.51c-5.11,9,4.47,34.67,14.06,37.92C2007.24,2604.76,2012.94,2605.56,2017.33,2609.45Z" style="fill:#3d485a"/><path d="M2253.43,2171.37a35.36,35.36,0,0,1,2.55,26.05c-2,7.27-2.11,15-3.09,22.58-1.48,11.34-6.25,21.52-11.47,32.44-6.65-3.76-13.27-7.22-19.62-11.12-26.9-16.49-56.09-27-86.68-34.22-27.2-6.44-54.58-10.81-82.6-9.82-27.41,1-54,5.69-78.61,18.68-1.76.93-3.55,1.84-5.33,2.73-3,1.48-5.87,3.3-8.89-.23-2.75-3.2-2.84-6.69-1.5-10.26,1.06-2.78,4.33-4.17,5.13-7.25,21.09-14.23,44.34-22.57,69.53-25.75,55.51-7,108.84.29,159.9,23.63,11.21,5.13,22.51,10,33.4,15.81,3.16,1.69,6.2,3.83,10.57,4,1.75-12,3.55-23.82,6.84-35.23C2245,2178.28,2246.17,2172.1,2253.43,2171.37Z" style="fill:#536279"/><path d="M2471.68,1883.41c-11.78-1.58-20.17,5.66-28.77,11.62-27.74,19.21-51.18,43.36-73.83,68-24.89,27.09-46.93,56.55-62.86,90.08a33.75,33.75,0,0,1-2.76,4.13l-.87.18-.88,0a3.3,3.3,0,0,1-4.23-.21h0c-4.41-6.17-2.8-12.37-.23-18.66,1.86-4.57,4.13-8.94,6.06-13.46l0,0c1.47-.93,1.09-2.82,2.08-4l0,0c1.43-1,1-2.9,2.08-4a475.69,475.69,0,0,1,57-84.1c15.77-18.6,32.7-35.89,53.27-49.32,9-5.85,18.71-10.17,28.27-14.8,9.05-4.38,20.54-1.24,27,6.33,1.55,1.82,3.11,3.73.43,5.91-.5.8-1.41,1.28-1.74,2.22Z" style="fill:#526178"/><path d="M1329.38,1001c-5.78,4.16-12.82,2.42-19.16,3.52-20.87,3.63-41.77,7.09-62.26,12.48a669,669,0,0,0-95.72,33.54,689.15,689.15,0,0,0-71.23,35.81,568.08,568.08,0,0,0-61.77,41.79c-15,11.54-29.15,24-43.16,36.74-9.35,8.49-19,16.75-27.4,26.1-18.43,20.42-37.83,40-53.63,62.71-1.54,2.2-3.08,4.36-5.73,5.35a8.39,8.39,0,0,1,1.71-4.58c14-21.48,29.89-41.42,46.48-60.93,12.34-14.49,25.88-27.74,39.5-40.91,13.36-12.91,27.91-24.49,42.58-36,23.39-18.28,48.53-33.77,74.15-48.5,18.75-10.79,38.84-18.94,58.87-27.07,12.31-5,24.54-10.24,37.33-14,32.79-9.68,65.79-18.35,99.88-22.32C1303,1003.28,1316,1000.43,1329.38,1001Z" style="fill:#394353"/><path d="M1747.37,2775.31c-8.89-5.86-10.92-14.06-9-24.16,1.89-9.8.49-19.85,1.32-29.74.48-5.7.17-12.3,7.82-14.28A21.45,21.45,0,0,1,1763.8,2723c3.77,13.63,7.5,27.33,4.06,41.86-2.49,10.53-5,12.86-16.31,12-1.31-.66-3-.42-4.1-1.53Z" style="fill:#cc5059"/><path d="M1959.37,2607.35c2.15,2.33,5.82,4.54,4.12,8-1.45,3-5.42,1.89-8.26,1.67-20.14-1.56-40.31-1.9-60.5-1.91-4.92,0-6-1.52-3.51-5.2,9.93-15,17.69-31,24.77-47.43.22-.51,1-.78,1.54-1.16,2.51,14.21,9,26.39,17.79,37.8,5.53,7.14,10.3,12.92,20.13,8C1956.58,2606.61,1958.05,2607.29,1959.37,2607.35Z" style="fill:#3b4556"/><path d="M1959.37,2607.35c-2.65,3.42-7.4,2.14-10.64,4.94-2.58,2.24-6,.14-7.88-2.24-8.39-10.74-17.23-21.27-22.74-33.86-2-4.52-.61-9.87-.58-14.84a7.13,7.13,0,0,1,6.63-.67c4.45,1.69,8.56,3.94,11.39,7.75C1944.66,2580.67,1953.75,2593,1959.37,2607.35Z" style="fill:#cb5059"/><path d="M897.31,2607.29c-2.13,15.93-10.07,30.05-14.15,45.38-1.18,4.43-4.23,4.65-7.67,2.49-2-1.22-3.69-2.77-5.52-4.17-3.76-19.39,2.85-36.19,13-52.08.41-.63,1.71-.68,2.6-1a6.13,6.13,0,0,0,1.7.79l2.07.66a24.69,24.69,0,0,1,8,8Z" style="fill:#cb5059"/><path d="M819.85,2611.7c4.84-.29,7.75,3,8.67,6.71,2.3,9.26,3.52,18.77-.58,28a17.11,17.11,0,0,1-8.65,9.1c-3.06,1.34-6.1,2.55-7.89,5.59-9-1.62-10.32-3.21-9.22-11.23.4-2.91,1-5.81,1.44-8.72,1.74-2.35-.32-5.56,1.76-7.85l0,.06c1.83-1.66.25-4.42,2-6.11l0,.09c1.81-5.81,6.57-9.37,10.43-13.62l0-.07a2.53,2.53,0,0,1,1.9-1.86Z" style="fill:#cb5059"/><path d="M2017.33,2609.45c-7.52.68-13.67-4.14-20.85-5.23-3.87-.58-5.77-5.23-6.9-9.13-2.58-8.89-5.21-17.78-7.34-26.79-1.56-6.6,3.86-4.24,6.94-4.75a24.81,24.81,0,0,1,10.25,10.56c5.32,10,10.87,19.84,16.32,29.75C2016.7,2605.6,2017.88,2607.28,2017.33,2609.45Z" style="fill:#ca5059"/><path d="M2029.78,1137.31c4,8.7,12.25,5.93,19,6.88,1.49.2,3.12-.65,4.68-1-6.66,7.76-14.37,14.34-24.15,22.13A217.13,217.13,0,0,0,2029.78,1137.31Z" style="fill:#39cee2"/><path d="M2303.3,2025.07a10.54,10.54,0,0,1-1.12,6.61c-4.4,8-5.3,16.61-4.71,25.51l-10.56,1.78C2288.05,2050.89,2297.18,2032.2,2303.3,2025.07Z" style="fill:#3d485a"/><path d="M817.73,2613.71c-2.44,5.33-7,9.07-10.43,13.62C807.31,2620.14,812.39,2616.82,817.73,2613.71Z" style="fill:#3d485a"/><path d="M2261.29,2119.12a17.66,17.66,0,0,1-3.77,12.16C2256.83,2126.62,2257.8,2122.48,2261.29,2119.12Z" style="fill:#22727e"/><path d="M897.36,2607.37a36.4,36.4,0,0,1-8-8C894.45,2599.61,896.84,2602.55,897.36,2607.37Z" style="fill:#3d485a"/><path d="M805.38,2633.29c0,2.76.45,5.61-1.77,7.86C803.28,2638.32,802.8,2635.46,805.38,2633.29Z" style="fill:#3d485a"/><path d="M889.32,1259.07a5.7,5.7,0,0,1-4.08,6A6.44,6.44,0,0,1,889.32,1259.07Z" style="fill:#394353"/><path d="M807.34,2627.24c.15,2.3.14,4.54-2,6.11C804.94,2631,804.92,2628.71,807.34,2627.24Z" style="fill:#3d485a"/><path d="M2307.4,2017.13c.1,1.75-.26,3.26-2.08,4A4.22,4.22,0,0,1,2307.4,2017.13Z" style="fill:#3d485a"/><path d="M2051.32,2517.37a2.94,2.94,0,0,1-3.78-2.29A3.68,3.68,0,0,1,2051.32,2517.37Z" style="fill:silver"/><path d="M2305.35,2021.1c.14,1.77-.2,3.29-2.08,4A4.15,4.15,0,0,1,2305.35,2021.1Z" style="fill:#3d485a"/><path d="M2057.51,2521.23c-2,.48-3.26-.34-3.78-2.33A3.42,3.42,0,0,1,2057.51,2521.23Z" style="fill:silver"/><path d="M2297.48,2057.2l4.23.21C2300.22,2058.88,2298.8,2059.11,2297.48,2057.2Z" style="fill:#3d485a"/><path d="M1747.45,2775.35a4.26,4.26,0,0,1,4.1,1.53A3.42,3.42,0,0,1,1747.45,2775.35Z" style="fill:#3d485a"/><path d="M2471.62,1883.37a2.64,2.64,0,0,1,1.74-2.22Z" style="fill:#3d485a"/><path d="M887.3,2598.69a1.26,1.26,0,0,1-1.71-.79A1.23,1.23,0,0,1,887.3,2598.69Z" style="fill:#3d485a"/><path d="M1481.38,1013.07l-2.05-1.62A1.91,1.91,0,0,1,1481.38,1013.07Z" style="fill:#3d485a"/><path d="M2053.78,2518.93a1.77,1.77,0,0,1-2.4-1.53A1.87,1.87,0,0,1,2053.78,2518.93Z" style="fill:silver"/><path d="M819.68,2611.78a2.39,2.39,0,0,1-1.9,1.86A1.81,1.81,0,0,1,819.68,2611.78Z" style="fill:#3d485a"/><path d="M1827.19,2701.64c-.94-2.13-2-4.22-2.78-6.38-1.26-3.31-1.74-6.83,1.81-8.87a8.35,8.35,0,0,1,10.2,1.11c5.72,5.11,11.93,10,15.94,16.47,9.72,15.74,17,32.4,15.22,51.67-.59,6.43-1.84,12.52-5.7,17.78-1.58,2.17-3.58,4.22-6.68,3.35a7.4,7.4,0,0,1-5.71-6.25c-.43-3-.52-6-.75-8.95-1.64-1.89-1.86-4.24-1.79-6.54.62-18.9-7.29-34.57-18.45-49a8.63,8.63,0,0,1-1-2.86C1827.36,2702.64,1827.28,2702.14,1827.19,2701.64Z" style="fill:#030203"/><path d="M1829.28,2703.45c13.84,16.91,23.57,35.19,19.46,58.12a16.49,16.49,0,0,0-1.2,3.66c-1,11.09-5.89,14.78-16.1,11.8-3.25-1-6-2.57-6.38-6.67-1.63-16.11-5.31-32-5.41-48.27,0-5.34-2.28-11.24,4.88-14.44,1.55-.69.25-4.59,2.66-6v-.11A5.7,5.7,0,0,1,1829.28,2703.45Z" style="fill:#cc5059"/><path d="M975.48,2775.5c-7.13,6.14-11.72,5.45-15.11-2.54-7.55-17.84-5.41-35,4.25-51.4a146.38,146.38,0,0,1,9.8-13.77c3.93-5.22,9.34-7,15.78-6.68,4.35.22,6.55,2.62,8.12,6.21,1.4,3.21.49,5.86-1.9,8.1-1.69,1.57-3.53,3-5.31,4.46-8.27,15.38-15.14,31.12-13.3,49.26A7.46,7.46,0,0,1,975.48,2775.5Z" style="fill:#020202"/><path d="M1089.3,2777c-11.13,3.72-15.28,1.72-18.7-9-5.07-15.88.49-40.15,11.39-50,1.53-1.38,3-2.71,5.23-1.89,4.52,3.85,6.35,8.5,6.56,14.65.34,9.84,1.49,19.65,1.44,29.55,0,5.45-.85,10.45-3.86,15l0,0A12.64,12.64,0,0,1,1089.3,2777Z" style="fill:#cb5059"/><path d="M975.48,2775.5c-2.42-18.67.64-36.13,11.45-51.89,1.11-1.62,1.84-3.55,4.18-3.73.11,2-.14,4,.39,5.89a168.79,168.79,0,0,1,6.67,43.7c.25,12.19-2.67,16.28-14.68,15.73h0Q979.48,2780.34,975.48,2775.5Z" style="fill:#cc5059"/><path d="M959.58,2543a6.68,6.68,0,0,1,1.85,4.5c1.71,27.17,5.28,54.24,3.88,81.57a68.14,68.14,0,0,1-2,14.77c-1.66,6-6.06,7.28-10.14,2.86-16.93-18.34-32.84-37.47-44.89-59.52-6.53-12-13.9-23.52-19.62-35.85-7.1-15.33-13.2-31.15-19.16-47-10.1-26.77-18.22-54.25-23.15-82.37-3.76-21.49-7.94-43-9.24-65-.46-7.92-2.61-15.74-1.86-23.78,4,5.42,2.87,12.14,3.71,18.09,4.41,30.9,11.5,61.15,19.93,91.13,10,35.56,23.52,69.79,38.58,103.48,5.42,12.13,11,24.21,16,36.49,3.22,7.9,4.61,16.55,10.22,23.4,5.91,7.22,11.84,14.53,20.95,18,10.51,3.93,11.94,2.55,12.82-8.08C959.46,2591.54,959.34,2567.3,959.58,2543Z" style="fill:#394454"/><path d="M835.27,2333.32c-3.18-5.77-1.75-12-1.79-18.08C836.92,2321,835,2327.26,835.27,2333.32Z" style="fill:#394454"/><path d="M1562,2324.11c-.38-.8-.16-1.31.64-1.41.14,0,.45.44.51.72a14,14,0,0,1,.22,1.84Z" style="fill:#010101"/><polygon points="931.36 2389.27 930.52 2388.81 930.89 2388.43 931.36 2389.27" style="fill:#010101"/><path d="M1089.3,2777a2,2,0,0,1,2.1-1.69A2.25,2.25,0,0,1,1089.3,2777Z" style="fill:#3d485a"/><path d="M1829.28,2703.45a2.58,2.58,0,0,1-2.1-1.92A2.17,2.17,0,0,1,1829.28,2703.45Z" style="fill:#3d485a"/></svg>