<svg id="Layer_2" data-name="Layer 2" xmlns="http://www.w3.org/2000/svg" viewBox="0 0 3000 3000">
  <title>Null gizzy</title>
  <g>
    <path d="M755.26279,2634.92943c-.68424-2.07017-1.18927-3.92352-1.89818-5.69562-30.01346-75.01859-46.09529-153.10768-51.1031-233.57159-7.5213-120.84876,5.54266-239.41624,40.5296-355.40752,10.72332-35.55082,23.79042-70.26436,41.02612-103.259,2.13525-4.08743,2.99842-7.61849,1.017-12.09724-22.14761-50.05777-34.933-102.59678-41.22814-156.83481-.08346-.71943-.5498-1.39438-1.456-3.58627-2.7655,2.54417-5.48015,4.43985-7.42868,6.9341-10.81493,13.84417-21.397,27.87-32.16416,41.75176-3.34169,4.30812-6.61308,8.8-10.61462,12.4405-8.99648,8.18416-18.32406,7.23517-24.62026-3.01415-4.24433-6.90893-8.25968-14.48865-9.9996-22.29807-3.8927-17.47134-7.82087-35.17137-9.01636-52.96109-3.13973-46.72267,1.39823-92.85006,15.48819-137.73583,4.68972-14.9399,10.2514-29.43727,21.64437-41.05021,2.14906-2.19075,2.3819-7.10788,2.12488-10.66768-1.18047-16.35158-3.46461-32.63865-4.24454-49.00167-6.785-142.35546,26.60248-274.78556,103.65063-394.58336,107.77488-167.57287,260.7929-270.21857,457.44335-303.21092,358.73738-60.18581,701.03194,180.766,767.44946,537.83261,15.4588,83.10734,15.70352,166.1599-.13359,249.19673-1.525,7.99507-1.12148,14.4895,3.43951,21.91833,4.99437,8.13495,7.93558,17.82661,10.33643,27.20733,11.73781,45.86523,14.02181,92.58289,10.29138,139.55629-1.35332,17.04039-4.76724,33.96879-8.11593,50.77391-1.34618,6.756-4.65439,13.238-7.77954,19.48988-3.19222,6.38644-8.50582,10.33285-16.14433,9.03588-7.24818-1.23032-9.979-6.56981-11.36522-13.18653-5.48037-26.1588-21.87729-45.25764-40.90219-62.58795-1.01907-.92839-2.5639-1.28-5.86883-2.85669,0,6.28018.41692,11.18415-.084,15.99258-1.17153,11.24737-2.62984,22.47171-4.28766,33.65843-.71571,4.82817-.54565,8.48265,3.16533,12.71182,5.32747,6.07108,9.57452,13.29108,13.31525,20.52139,25.449,49.1876,42.5892,101.46687,55.79518,155.01651,29.97377,121.543,38.99921,244.97285,31.55765,369.74142a1000.23405,1000.23405,0,0,1-26.10474,177.05871c-.63118,2.59737-.89793,5.28285-1.429,8.5001,3.20724,1.22946,5.97668,2.487,8.86139,3.36629,25.7509,7.85161,51.54584,15.55849,77.27557,23.47761,11.185,3.44266,22.21383,7.39079,33.37624,10.91068,10.7565,3.39232,21.77817,6.02717,32.34559,9.91264,11.64956,4.284,23.84033,8.16313,34.17118,14.76126,28.98788,18.514,33.49925,53.18435,10.52537,78.71555-14.753,16.39462-32.488,27.98669-55.95136,27.47865-5.036-.10927-10.09142,1.24777-15.14715,1.323-5.7597.08582-11.52913-.5189-17.29541-.801-2.71094-.133-5.42931-.37587-8.13624-.29406q-81.34525,2.44962-162.6888,4.95617c-4.17339.12615-8.35393.01659-13.145,2.15085,2.45663,1.2798,4.82888,2.767,7.38363,3.80509a179.43432,179.43432,0,0,1,46.359,27.03241,113.71139,113.71139,0,0,1,28.87732,34.99788c11.3452,21.31161,11.02782,42.65612-.16934,63.86619-9.42835,17.85951-23.98322,30.58291-41.39921,40.259-25.02088,13.9011-52.20819,20.74981-80.4306,23.32115-51.83489,4.723-102.09792-2.09249-150.16348-22.6186a188.26068,188.26068,0,0,1-26.09559-13.20283c-27.38526-17.16154-53.29105-35.81456-59.85013-71.646-6.264,1.7372-12.0971,3.89377-18.123,4.93643-31.9075,5.522-63.69328,12.34954-95.83534,15.79735-87.825,9.42091-175.98317,14.58448-264.295,9.77447-43.99758-2.39627-87.80408-8.30358-131.69639-12.62614-3.07551-.30265-6.14773-.63562-9.88532-1.02351-2.44333,10.20213-9.633,16.42066-16.99477,22.9058-22.94642,20.214-49.292,34.1932-77.93935,44.2134-51.47318,18.00425-104.27165,27.14826-158.84723,21.8514-16.22615-1.5753-32.33343-5.24481-48.23441-9.04561-14.57968-3.485-27.608-10.79683-39.20967-20.3459-21.84747-17.98137-27.34329-42.766-15.40352-68.36067,6.755-14.48063,17.25036-25.93711,29.2532-36.13065,6.19114-5.258,12.65482-10.19526,21.461-17.25365-7.15135,0-11.55373-.03-15.9556.00458-55.05044.43394-110.10888,1.62965-165.148,1.03523-32.87507-.35471-62.63187-20.44516-71.20249-54.01362-4.682-18.33808-3.17084-36.23621,11.41765-49.95194a73.11312,73.11312,0,0,1,23.64488-14.68631c29.18634-11.05,58.71393-21.21836,88.25276-31.30892C725.50957,2643.423,739.82859,2639.57867,755.26279,2634.92943ZM2007.075,1819.462c1.13264-6.1104,1.87752-9.0805,2.21378-12.09594,7.40451-66.39362,4.01792-131.76216-19.28721-195.0827a39.4718,39.4718,0,0,1-1.54856-21.71438,639.786,639.786,0,0,0,.08868-232.98989c-61.64284-337.6088-378.83313-575.265-732.12233-524.455-145.61092,20.9416-270.4606,84.92879-372.77764,190.52972-106.8859,110.31639-166.39907,243.03369-180.118,396.11633a609.76111,609.76111,0,0,0,2.49282,133.26795,47.94667,47.94667,0,0,1-3.82554,26.01134c-7.29718,17.19472-14.48329,34.64832-19.29043,52.64285-9.32723,34.91378-12.31478,70.78827-10.39922,106.86057.866,16.30781,3.6439,32.52851,5.92819,48.73606.54479,3.86488,2.58686,7.51865,4.31742,12.31507,39.30507-56.68337,54.27179-65.43892,69.42745-73.93573,2.19024,4.44528,5.18223,8.63126,6.333,13.27378,1.96348,7.9207,2.917,16.10814,4.03308,24.21935,2.12446,15.43878,3.243,31.06449,6.24314,46.32477a589.66379,589.66379,0,0,0,33.32282,109.65317c12.03588,29.40838,26.83,57.2878,47.75841,81.51087,3.13444,3.62774,6.71233,6.87274,11.40133,11.63011,1.04639-4.59861,1.60806-6.76547,2.0277-8.95979q4.72825-24.7211,9.4016-49.45306,10.65818-56.96355,21.27844-113.934a108.04563,108.04563,0,0,1,3.74688-15.90033c1.57187-4.473,5.46936-6.6047,10.33686-5.69763,4.95474.9231,7.39965,4.46731,7.32713,9.20895a57.41445,57.41445,0,0,1-1.78383,11.51926c-6.32223,28.18678-12.51988,56.40489-19.25045,84.49484-1.7681,7.37963-.8114,12.9288,5.42573,17.42729a62.335,62.335,0,0,1,5.135,4.79112c151.425,137.982,329.28138,194.41076,532.16552,169.70912,127.39943-15.51072,239.6713-67.20587,338.18539-149.36466,8.56161-7.1402,10.9207-14.1491,8.387-24.14355q-5.61045-22.13073-10.8376-44.35814c-.88877-3.75818-2.05129-7.79212-1.46488-11.43788.38474-2.392,3.35213-5.2983,5.78831-6.11985,1.77811-.59957,5.49725,1.20715,6.721,3.0339,2.33964,3.49072,3.74545,7.6817,5.14139,11.71935,10.76609,31.141,15.95239,63.52035,21.061,95.90827,1.121,7.109,1.97949,14.2598,3.366,24.35551,7.7535-8.02067,13.64021-13.56011,18.89789-19.64334a414.34314,414.34314,0,0,0,59.61757-90.83853c11.62954-24.03942,24.10394-47.78164,25.49044-75.62072,1.10417-22.16663,4.41468-44.22428,6.78564-66.326.31323-2.91961.86388-5.81363,1.55642-10.38062,7.1116,1.99065,13.27306,2.96423,18.79791,5.3884C1972.231,1769.79527,1989.51944,1792.91032,2007.075,1819.462Zm-430.20018,541.89373q2.17243-.48058,4.34474-.96143c2.0071,5.66187,4.52623,11.19931,5.93763,17.00592,8.75655,36.02453,18.08392,71.9375,25.702,108.2066q34.90385,166.17377,68.51687,332.61729c5.31746,26.31213,18.16187,47.43581,39.46548,62.76574a245.88438,245.88438,0,0,0,43.58623,24.80033c31.028,13.78438,64.11807,19.63734,97.93641,20.96978,34.30792,1.35189,67.84864-2.80133,99.79433-16.16149,14.1634-5.923,27.29472-13.62992,37.60383-25.28462,11.4047-12.893,15.2364-27.70436,10.92642-44.62075-2.87242-11.27368-8.48909-20.85221-16.08812-29.50535-15.75344-17.93817-35.53267-30.26482-56.38459-41.24387-7.00948-3.691-14.076-6.25143-22.05865-6.96886-12.34482-1.10989-14.989-3.24728-16.98647-15.25212-3.96887-23.85321-8.428-47.7127-10.6192-71.75757-6.22053-68.26169,1.78784-134.85054,26.58531-199.06915a248.52164,248.52164,0,0,1,39.82391-68.59237,62.3251,62.3251,0,0,1,9.93781-9.84056,8.07664,8.07664,0,0,1,10.80427.42909c3.34412,2.989,3.52891,6.87388,1.39638,10.67611a45.25406,45.25406,0,0,1-4.70946,6.6808c-12.58009,15.14743-22.03919,32.15536-30.17129,49.992-15.852,34.76818-25.35556,71.32534-30.14054,109.09594-6.37,50.28147-6.60928,100.47627,4.08572,150.32809.755,3.52018,1.80729,6.976,2.72137,10.46186q1.45223.19052,2.90446.38159c7.31741-10.49218,15.12969-20.67829,21.85626-31.53662,17.37108-28.04047,29.7598-58.3891,39.92717-89.66656,24.94436-76.73577,35.27407-155.94161,39.47821-236.13978,4.079-77.80819.56853-155.32688-8.89214-232.64763-11.917-97.39575-34.01514-192.10373-73.15381-282.41992-.9424-2.17488-2.28385-4.17668-4.08714-7.42769-1.588,4.15065-2.62941,6.62959-3.49372,9.1689a438.61006,438.61006,0,0,1-34.63088,76.76065c-22.85116,39.90543-49.22465,76.99522-86.62425,104.92355-3.00643,2.24524-6.20752,4.22989-10.46057,7.10874-8.152-23.72877-8.05586-47.59428-13.41051-71.4103-133.07489,110.39034-283.88542,167.40009-455.60467,161.812-171.26113-5.57348-319.09956-70.03495-445.3622-187.566-3.38717,13.82528-6.35813,26.25148-9.48642,38.63763-3.21926,12.746-6.59184,25.45368-10.3556,39.942-5.48995-3.5588-9.45495-5.7946-13.05229-8.51641-21.66139-16.3889-36.37073-38.40335-49.57836-61.61894-1.99709-3.51075-4.18569-6.91279-7.14821-11.78286-2.18167,5.05-3.65985,8.13652-4.87136,11.32431-63.77423,167.79542-83.71043,340.34419-55.99685,518.02078,9.12843,58.52441,24.17924,115.39972,49.17281,169.28633,18.38378,39.63625,42.00371,75.78578,74.0882,105.891,4.961,4.655,10.52608,8.666,16.64779,13.65651,1.52424-3.88261,2.63742-5.93391,3.13358-8.12537,1.63594-7.22659,3.472-14.44545,4.477-21.771,5.68133-41.40521,3.00543-82.662-3.54907-123.677-9.53634-59.67635-25.912-117.34688-52.61618-171.8139-1.54155-3.1446-3.35835-6.37787-3.83313-9.74129-.30586-2.16686,1.01764-5.8172,2.69206-6.66249,1.72641-.87247,5.51019.087,7.0616,1.60591a32.47537,32.47537,0,0,1,6.46548,9.65747c10.52515,23.0617,21.87592,45.81846,31.02323,69.42422,24.62369,63.54438,38.36746,129.39521,38.31554,197.78392a284.54088,284.54088,0,0,1-8.47551,68.41673c-2.9761,12.01485-9.62143,18.98285-21.62012,23.57459-26.96126,10.31741-50.9605,25.68939-68.04259,49.74684-16.18867,22.79909-11.84851,43.80177,11.582,58.993a37.95317,37.95317,0,0,0,8.20482,4.47933c13.64444,4.59088,27.08691,10.62605,41.13447,13.02719,57.83173,9.88547,114.36364,1.91485,169.81627-15.41689,25.77234-8.05529,50.26917-19.29636,73.80315-32.54353,4.26993-2.404,8.27-4.55971,9.184-10.91412,2.664-18.52087,6.37158-36.89527,9.823-55.29829q34.96755-186.4543,70.064-372.88515c3.6911-19.55238,8.03712-38.98833,12.47125-58.38882,1.05053-4.59689,1.66583-10.11716,7.62077-12.45394,5.12094,5.139,3.12886,11.19416,2.42531,16.64206-1.99866,15.48183-4.22488,30.94936-6.934,46.32162q-33.12681,187.98141-66.44412,375.92877c-1.80772,10.2376-3.1682,20.55414-4.8439,31.5392,6.35655,1.174,11.25981,2.27585,16.22056,2.95952,15.08279,2.079,30.17058,4.13949,45.28712,5.95278,58.23221,6.98287,116.71358,10.68041,175.32352,9.50616,60.51794-1.21287,120.97608-4.852,180.98569-13.252,27.0327-3.78335,53.853-9.12427,80.71193-14.073,5.5619-1.02493,10.86678-3.44438,16.35673-5.2428-.55223-3.51675-.82469-5.82549-1.28467-8.09648-11.62482-57.38763-23.61092-114.70489-34.82854-172.172q-24.00389-122.97-47.00658-246.13423C1579.11036,2386.74276,1578.362,2373.97988,1576.87484,2361.35574Zm377.23108,370.18193c7.08786,0,11.638.00372,16.1881-.00057q70.79651-.06822,141.59315-.1805c12.0549-.03776,24.20163.23657,36.139-1.11218,15.63344-1.76667,30.59608-6.31321,42.96764-16.84859,11.42644-9.731,16.50848-21.96639,12-36.5749-4.24219-13.746-13.98977-23.40124-27.011-29.15694-4.42269-1.95489-10.06311-.9783-14.75983-2.52042-20.74123-6.81009-41.48617-13.65823-61.95564-21.23409-24.49483-9.0662-48.70246-18.907-73.05512-28.35913-3.55608-1.37993-7.226-2.46636-12.06634-4.10173C2000.42183,2640.33557,1983.256,2687.04194,1954.10592,2731.53767ZM757.88019,2643.50019c-19.65958,8.1288-38.96389,16.41808-58.50611,24.10179-18.50507,7.2755-37.2698,13.88907-55.89859,20.85192-5.84022,2.18259-11.50381,6.109-17.43422,6.51431-12.24141.83585-16.63291,9.1237-20.00242,18.39787-11.84815,32.6099,17.28519,72.21039,52.142,70.2861,59.24663-3.2716,118.51286-4.87036,177.84288-4.316,2.96638.02746,5.93613-.29921,8.92382-.46169-16.43124-21.93664-33.68168-42.47762-48.06191-64.86251C782.39947,2691.46233,770.765,2667.08078,757.88019,2643.50019Z"/>
    <path d="M1935.91588,2883.15214c-.5026,3.68324-.99662,10.33858-2.402,16.79568-1.59132,7.311-6.69425,11.03826-12.22768,9.90863-5.71379-1.16653-8.89386-6.37214-6.94082-13.81356,3.95441-15.06733,1.49792-29.34974-3.41477-43.65445-3.11742-9.07793-7.61834-17.06285-15.08121-23.25135a41.73428,41.73428,0,0,1-5.04228-4.88266c-2.79146-3.25243-3.9507-6.96628-.944-10.59916,2.862-3.45811,6.74673-3.84486,10.61018-1.797a57.795,57.795,0,0,1,22.8094,21.3262C1930.45839,2845.01854,1936.08121,2866.18,1935.91588,2883.15214Z"/>
    <path d="M873.21806,2878.07754c-.77592-24.79,12.69552-40.76959,32.49162-52.83565,1.62865-.99232,3.738-2.28242,5.35536-1.98293,3.51647.65078,7.84018,1.38908,9.90206,3.76734,1.22117,1.40824-.402,6.6602-2.23666,9.03016-3.0449,3.93382-7.14835,7.113-11.05786,10.3011-11.05328,9.01328-15.64,20.92372-16.11272,34.79735-.18794,5.51828-.04992,10.78225,4.32843,15.13485,3.45311,3.43351,3.93125,7.56985.43752,11.427-3.14431,3.47126-8.57662,3.98416-12.53375-.06294-3.64877-3.73186-6.0881-8.74725-8.59608-13.44512-1.04052-1.94889-.97644-4.53053-1.23246-6.8447C873.62211,2884.27863,873.4582,2881.17408,873.21806,2878.07754Z"/>
    <path d="M983.35325,2870.61038c.93011-5.08519,1.90012-13.21141,3.97043-21.0473,3.12171-11.81432,12.11726-17.60235,23.39824-20.1631a15.196,15.196,0,0,1,7.95989.48715c5.16643,1.80042,6.39947,7.11073,2.95523,11.22448a11.36051,11.36051,0,0,1-2.68133,2.21492c-5.66345,3.56194-11.08675,7.26492-12.42591,14.55472-1.89111,10.2951-4.77925,20.57932.32081,30.79718a24.82857,24.82857,0,0,1,1.42455,3.18693c1.456,4.37233,1.50035,8.65028-2.68362,11.50453-4.57358,3.12056-9.04418,1.73406-12.6702-1.84448C985.15425,2893.86173,983.60155,2883.95967,983.35325,2870.61038Z"/>
    <path d="M1833.85242,2888.97964c-.36057,5.883-.33225,10.58916-1.008,15.19206-.91666,6.24227-5.04614,9.62915-10.10687,8.94892-5.52514-.74289-8.82664-5.77973-7.03293-12.40274,2.0563-7.59188,3.55122-14.9246,2.30574-22.94127-2.27428-14.63625-7.5361-27.70407-17.51568-38.75177-.78221-.86588-1.62207-1.68743-2.33406-2.60767-2.60309-3.36571-3.852-7.04637-.59456-10.52593a7.309,7.309,0,0,1,10.5893-.41707c4.88094,4.3074,9.88832,8.95378,13.21928,14.4423C1830.68652,2855.25985,1834.33471,2872.28122,1833.85242,2888.97964Z"/>
    <path d="M2047.67728,2702.23342c-.32653,2.48438-.29006,6.88532-1.57244,10.86062a9.9072,9.9072,0,0,1-13.04836,6.45224c-4.89468-2.04872-7.223-6.98716-4.62007-12.67249,7.53138-16.45126-.56123-28.29534-10.9011-39.61823-2.70121-2.9578-8.11249-4.69071-4.91083-10.1738,2.09005-3.57968,8.4878-3.69782,13.77323.012,11.02253,7.73663,17.49722,18.57007,19.97645,31.73314C2047.0903,2692.62972,2047.14894,2696.5561,2047.67728,2702.23342Z"/>
    <path d="M2119.94246,2692.07048a22.10247,22.10247,0,0,1-7.43512,18.89217c-1.79842,1.63366-6.13873,2.55961-7.95288,1.49263-1.7784-1.04553-3.32939-5.84781-2.38484-7.60961,6.55236-12.22139-.92338-21.46008-5.96194-31.17791-1.3968-2.69435-4.32743-4.61091-5.63956-7.32614-1.05354-2.1803-1.85849-5.89415-.7323-7.37162,1.56014-2.04672,5.37611-4.06654,7.61133-3.531a22.06225,22.06225,0,0,1,10.71159,6.03031A43.25057,43.25057,0,0,1,2119.94246,2692.07048Z"/>
    <path d="M669.95575,2752.33639c.57955-18.72053,5.87413-33.02611,18.73749-43.544a28.59,28.59,0,0,1,13.424-6.11069c7.034-.97516,10.6792,5.33834,7.11954,11.57-1.89826,3.32338-4.70617,6.15961-7.27873,9.0602-8.39462,9.46467-12.51687,20.422-11.95084,33.11221a40.40042,40.40042,0,0,1-.10613,6.98115c-.61266,4.70159-3.14016,8.12823-8.01674,8.684-4.45.50717-7.53732-2.19747-8.76506-6.22C671.54314,2760.70634,670.63578,2755.3391,669.95575,2752.33639Z"/>
    <path d="M748.64764,2744.2997c.09132-18.4402,8.50025-30.24223,19.79167-40.41718a14.38668,14.38668,0,0,1,7.33171-3.2081c5.32662-.72686,8.96688,4.09287,6.68523,8.97724a63.13367,63.13367,0,0,1-6.97135,10.71731c-6.94869,9.29905-9.67035,19.35071-6.09489,30.70792a22.67839,22.67839,0,0,1,.71349,3.42179q1.71139,11.3286-6.13744,13.09012c-5.00151,1.1302-9.97256-1.91055-12.12312-8.52928C750.06054,2753.57415,749.36106,2747.73721,748.64764,2744.2997Z"/>
  </g>
</svg>
