<svg id="Dog_1" data-name="Dog 1" xmlns="http://www.w3.org/2000/svg" viewBox="0 0 3000 3000">
  <title>Paws</title>
  <g id="Paws">
    <g>
      <path d="M800.72445,2882.2126c16.29158,93.32514,304.1198,55.42476,328.57538-33.47687.00109-38.09319-125.71665-54.18172-194.53039-54.18172S800.72445,2844.12475,800.72445,2882.2126Z" style="fill: #575757"/>
      <path d="M754.1034,2646.21823c-24.93547,14.15235-77.84976,33.85231-114.20344,45.80258-8.65581,3.53842-24.29562,6.28016-32.323,18.77794-6.83419,13.32543-7.58252,30.85787.87727,47.78556,20.13873,32.56681,67.07485,27.77881,89.94935,27.54087,7.59482-.519-14.61378,1.11307,70.407-2.23715,23.73054-.89734,52.45548-2.13223,76.59092-2.87551-32.86324-36.61431-57.63708-69.74982-85.33461-130.63665-.86168-2.05246-1.70927-4.57378-4.20125-5.11541Z" style="fill: #575757"/>
      <path d="M1909.32519,2763.39037c51.70724,14.22178,86.05354,35.07045,102.77016,77.4805,17.35734,52.23885-42.89978,74.39624-87.75627,84.41606-68.69673,23.03006-197.51274-16.94023-227.15461-60.77954-13.1205-24.33627-22.39738-40.45885-12.41141-52.092C1737.63393,2767.82937,1864.10234,2756.46561,1909.32519,2763.39037Z" style="fill: #575757"/>
      <path d="M2020.35178,2595.30785c8.41187,3.18831,159.69771,57.9806,164.01773,58.28246,23.96546,16.36912,31.97573,43.99253,3.04249,66.18069-38.9349,24.81087-84.21268,12.16942-145.92094,14.30307-22.65843-.34-56.98776,1.55981-85.99625-.91058,26.89073-43.81694,45.09533-88.87786,57.49121-135.21761C2013.98328,2593.60143,2017.06527,2593.92139,2020.35178,2595.30785Z" style="fill: #575757"/>
    </g>
    <g>
      <path d="M1935.724,2884.43266c-2.34081,9.97489.38365,32.62072-15.89126,29.21171-18.93289-5.10071,14.987-47.06323-27.95558-83.69621-3.72873-3.37152-6.63561-7.33634-3.02275-12.18126,3.91108-5.24515,8.97144-3.69547,13.58349-.79188C1927.18328,2832.55353,1933.04373,2857.41633,1935.724,2884.43266Z" style="fill: #010000"/>
      <path d="M871.43524,2882.79807c-1.475-25.86546,12.71378-42.12286,33.30919-54.27481,4.82912-2.84947,10.50233-3.69891,14.2865,1.48366,8.5016,15.94768-50.63183,29.48073-22.7835,74.48976C897.55043,2919.9969,869.23,2917.12571,871.43524,2882.79807Z" style="fill: #010000"/>
      <path d="M981.34952,2880.20063c1.53637-21.82832,2.757-41.68182,27.62764-47.00415,5.03776-1.07813,10.19019-.75436,12.45983,4.803,2.91523,15.48325-26.1334,6.291-17.965,50.66046.91026,7.0893,9.55129,15.81728-1.99383,19.57748C986.02981,2912.9306,982.63348,2890.04634,981.34952,2880.20063Z" style="fill: #010000"/>
      <path d="M1833.42893,2889.06822c-.85944,10.792.85569,20.4083-7.28867,27.49758-7.22192,3.3643-12.60461-6.30863-10.99283-12.33529,14.10492-44.55176-29.2215-63.94592-18.42812-74.77913,4.43158-4.6,9.33439-2.0379,13.0468,1.27854C1827.60428,2846.667,1831.62192,2868.17054,1833.42893,2889.06822Z" style="fill: #020100"/>
      <path d="M2047.0189,2705.22739c2.04344,10.31415-4.80776,23.42637-16.59425,16.673-7.128-5.42567-.83929-11.07592.14313-17.0581,4.84012-28.695-25.02357-36.28719-18.87618-43.81815,3.22358-4.93858,8.51583-3.96,12.56627-1.31041C2040.58853,2670.39653,2047.0401,2686.259,2047.0189,2705.22739Z" style="fill: #020100"/>
      <path d="M2119.95917,2698.18011c2.70222,8.77293-17.31294,31.21749-18.57381,10.878,13.42229-22.51193-20.83088-38.294-11.20033-48.12691C2105.995,2648.8994,2120.97362,2682.92957,2119.95917,2698.18011Z" style="fill: #010100"/>
      <path d="M667.444,2754.25176c1.4177-20.41111,8.216-36.1434,25.06461-46.0708,4.71787-2.77973,10.36035-4.09757,14.3782,1.01942,4.10605,5.22954.39494,9.72864-3.24009,13.313-27.31089,23.61751-6.43962,54.49688-24.75819,53.30222C665.46128,2773.66664,670.23654,2761.03126,667.444,2754.25176Z" style="fill: #010000"/>
      <path d="M746.46781,2748.09029c-2.39848-15.07652,19.13249-53.08879,32.8599-41.79967,9.476,9.47258-23.469,23.13121-11.19835,53.51282,4.54341,14.08469-16.97523,16.14886-18.77948,2.62419C747.69008,2756.8817,747.0337,2751.03513,746.46781,2748.09029Z" style="fill: #010000"/>
    </g>
  </g>
</svg>
