<svg id="Dog_1" data-name="Dog 1" xmlns="http://www.w3.org/2000/svg" viewBox="0 0 3000 3000">
  <title>Nose</title>
  <path d="M1610.97065,1628.98975a10.57859,10.57859,0,0,0-10.57867-10.57862c-.27735,0-.54963.02051-.8216.04151l-.01141-.04834c-.09656.02282-.1947.04516-.29138.06787a10.48873,10.48873,0,0,0-2.44916.571c-62.075,14.29846-145.90955,20.80933-198.68671-26.80005a124.03386,124.03386,0,0,1-8.94726-8.94726l-6.28028-6.958-7.62353,5.45313a223.10682,223.10682,0,0,1-206.30811,28.333l-.02044.05628a10.54852,10.54852,0,0,0-4.525-.33578,10.72944,10.72944,0,0,0-9.11464,10.18341,10.62043,10.62043,0,0,0,9.55312,10.89541,243.90332,243.90332,0,0,0,215.13476-26.90088q2.00025,1.94971,4.06446,3.81348c35.56689,32.085,82.42138,42.63574,128.66845,42.63574,31.06525,0,61.84626-4.76587,88.755-10.96021a10.48683,10.48683,0,0,0,2.45087-.56567c.1491-.035.302-.06885.45086-.104l-.01324-.05616A10.57688,10.57688,0,0,0,1610.97065,1628.98975Z"/>
  <g id="Nose">
    <path d="M1387.03384,1585.84931a16.29955,16.29955,0,0,1-19.48484-1.55765q-5.85913-5.18417-11.77429-10.8515a398.79793,398.79793,0,0,1-54.91457-65.45807c0-.00016-26.37312-38.06106-19.01646-54.01826a29.04147,29.04147,0,0,1,8.44043-10.58386,24.594,24.594,0,0,1,8.70591-3.89645c.39816-.09254.78085-.19,1.1707-.31294,30.92049-9.74677,93.97588-25.93085,146.61057-9.63834,7.38814,2.28687,14.66982,5.27793,19.49883,12.18563,18.72776,26.78922-19.34107,84.45258-45.16333,113.32843a226.43307,226.43307,0,0,1-31.36874,29.02588c-.38665.29481-.7772.56379-1.18866.82286Z"/>
    <path d="M1384.39392,1559.64792a12.03839,12.03839,0,0,1-14.39095-1.15044q-4.32738-3.82887-8.69614-8.0146a294.54055,294.54055,0,0,1-40.55833-48.34545c0-.00011-19.47842-28.1108-14.045-39.89633a21.44926,21.44926,0,0,1,6.23386-7.81693,18.16436,18.16436,0,0,1,6.42994-2.87781c.29406-.06835.57671-.14036.86464-.23112,22.837-7.19869,69.40788-19.15178,108.28235-7.11861,5.45666,1.689,10.83471,3.89813,14.40128,9,13.83178,19.78575-14.28476,62.37425-33.35634,83.70112a167.237,167.237,0,0,1-23.168,21.43767c-.28557.21774-.574.4164-.87791.60775Z" style="fill: #f9e168"/>
  </g>
</svg>
