<svg id="Layer_5" data-name="Layer 5" xmlns="http://www.w3.org/2000/svg" viewBox="0 0 3000 3000">
  <title>Nose</title>
  <g id="Nose">
    <path d="M1369.67463,1575.67392c-3.69557-4.16689-7.7954-8.833-12.2294-13.94933-2.07486-2.54515-47.078-58.00993-56.10385-81.92755-3.70717-9.82362-2.063-16.22793-1.62989-17.75129,1.321-4.64588,4.43641-9.68793,11.6923-14.904,19.07323-13.71107,49.57391-16.258,62.9093-16.94772,11.39294-.58926,47.09084-1.72837,69.20538,11.67547,8.40658,5.09534,11.46825,10.24226,12.84276,13.92486.5529,1.4815,2.70277,7.73565-.21017,17.82472-7.09128,24.5608-47.53148,83.43533-49.39693,86.13772-4.4973,7.04-7.83788,12.25639-9.47738,14.81558-6.11675,9.5478-9.23184,14.32744-12.01136,14.6094C1382.21968,1589.49079,1379.84972,1587.14681,1369.67463,1575.67392Z"/>
    <path d="M1356.55077,1452.10725c.02637-3.4629,26.06051-5.38363,31.45332-5.78155a127.17418,127.17418,0,0,1,33.9015,3.28414c3.43875.77977,4.94075,1.269,4.9762,1.97636.13063,2.607-19.713,7.027-39.4774,6.54553C1373.32423,1457.78871,1356.52955,1454.89126,1356.55077,1452.10725Z" style="fill: #fcfcfc"/>
  </g>
</svg>
