<svg id="Layer_5" data-name="Layer 5" xmlns="http://www.w3.org/2000/svg" viewBox="0 0 3000 3000">
  <title>Body</title>
  <g>
    <path d="M2470.695,1752.00117c-2.00438-1.88425-5.909-3.25139-9.284-3.25139a8.92059,8.92059,0,0,0-2.8361.40957c-5.77287,1.94259-4.61967,7.42259-3.60261,12.25849l.10639.50682a31.60142,31.60142,0,0,1,.2803,7.73721c-.03661.81456-.07322,1.64743-.09153,2.47915-.66812-.44618-1.34883-.88092-2.0284-1.31566a38.36,38.36,0,0,1-5.93876-4.34967c-35.14293-33.64079-72.19985-54.38013-113.28955-63.40325a121.39182,121.39182,0,0,0-26.058-3.15072c-13.692,0-25.41278,3.09809-35.83165,9.47159-7.8253,4.78671-15.19184,10.23239-16.1025,17.61036-.70359,5.70195,2.41967,12.00223,9.54938,19.26237,93.98714,95.70665,145.95332,210.72028,154.4559,341.84442,4.40574,67.94877-5.30925,132.498-26.7027,190.67265-33.13025,89.0206-93.66766,163.488-172.5376,212.21662-52.55594,32.18406-113.34332,53.00155-179.80633,59.24856-1.40489.13271-2.56725.19678-3.55456.19678-2.55009,0-4.03392-.4233-4.80844-1.37286-1.02164-1.25274-1.03766-3.60376-.05721-8.387a1014.15921,1014.15921,0,0,0,20.46934-174.38639c5.48344-194.48392-21.12717-347.86441-83.749-482.6987-14.0169-30.18-24.20123-55.69922-17.44447-86.32658.38554-1.74582.69558-3.53283.99532-5.26149.09839-.56973.19678-1.13832.2986-1.70806.44046.175.88893.33635,1.3271.49308a10.91451,10.91451,0,0,1,3.733,1.87281c19.54381,17.88837,31.54375,34.97475,37.76738,53.77378a58.05416,58.05416,0,0,1,1.49413,5.95021c1.57307,7.33908,3.19991,14.92756,13.52953,15.45611.38212.02059.75508.02975,1.12346.02975,11.95647-.00115,16.24093-9.84226,19.09076-20.47621,19.35847-72.26163,17.27058-146.50017-6.20533-220.65291a40.35618,40.35618,0,0,0-3.64951-7.64912c-2.80979-4.9503-5.464-9.62718-4.02592-16.64249,13.83157-67.52755,16.40682-137.77336,7.6537-208.78454-.794-6.44673.05834-8.72453,6.93523-10.42116,94.24-23.24595,174.91608-74.93412,246.63772-158.02075,24.4003-28.26661,40.08522-58.93917,46.62118-91.16476,8.514-41.98492-7.96488-70.815-47.65655-83.37379-147.93023-46.80823-284.1637-129.70266-441.72569-268.77966-29.6778-26.19646-55.793-43.64379-86.77962-43.64379-11.4222,0-22.85812,2.34187-34.96217,7.15889-47.10511,18.74526-72.241,56.1454-74.711,111.16161-.286,6.40783-2.14394,6.40783-2.75372,6.40783-1.22185,0-2.7789-.95014-4.28561-1.86881a20.62755,20.62755,0,0,0-2.502-1.38144C1539.69461,821.38289,1448.4715,801.93,1358.647,801.93c-90.32331,0-181.75521,19.66965-271.75533,58.46153-3.15243,1.35913-5.30611,1.99179-6.77735,1.99179a2.40015,2.40015,0,0,1-1.81618-.6155c-1.15492-1.16521-1.12861-4.12144-1.09257-8.21256l.00458-.51368c.18819-22.38448-6.838-45.62528-19.78349-65.44023-12.90145-19.748-31.12388-35.26362-51.31007-43.68841a102.14859,102.14859,0,0,0-39.3679-8.32868c-27.00816,0-53.0004,12.17841-77.25426,36.1966-9.13638,9.04771-18.68863,17.34151-26.8274,24.26072-151.72619,128.98991-281.30529,206.465-420.15063,251.20705-45.07271,14.52429-61.22955,44.42-49.39321,91.39472a168.34755,168.34755,0,0,0,24.89052,55.52418c65.71881,94.157,155.14176,156.82236,265.78569,186.25419,8.56149,2.2778,10.17346,4.62654,9.07575,13.22751a658.95871,658.95871,0,0,0,.03146,163.71011c.50853,4.1346.02688,9.52765-2.19544,12.25964-39.54008,48.60039-51.43019,196.2652-20.19362,250.7952,4.71,8.22343,10.05963,12.39349,15.9,12.39235,5.09559,0,10.34163-3.19533,15.59168-9.49447,8.83836-10.60535,17.31462-21.80216,25.51174-32.6306,4.55218-6.01312,9.25937-12.22989,13.97343-18.2739a24.79,24.79,0,0,1,4.47495-4.07854c.54571-.42216,1.09142-.84546,1.62341-1.27905.21451.62236.4456,1.24244.6767,1.86251a24.76017,24.76017,0,0,1,1.61311,5.62873,539.79665,539.79665,0,0,0,39.62474,150.23435c1.50329,3.51795,1.67032,8.38017.38784,11.31122-50.2461,114.78825-78.62655,230.446-84.35252,343.7607-5.89358,116.62331,12.02568,234.35062,53.259,349.91l.05777.1636c.85632,2.39679,1.42148,3.9813.87291,5.09446-.46563.94384-1.81561,1.73323-4.37714,2.55924-21.47152,6.91463-43.201,14.25257-64.21552,21.34911-16.77349,5.66419-34.11786,11.52173-51.226,17.12757-25.863,8.47741-49.60143,20.90637-48.1851,54.16734,1.41634,33.28155,19.42655,55.87311,52.084,65.33326,12.24763,3.54655,25.68392,5.1997,42.28638,5.1997,9.69582-.00114,19.58156-.55143,29.14238-1.08341,9.53223-.53084,19.38936-1.08,29.028-1.08q2.26436,0,4.54188.04233l39.95594-.00687q21.59081,0,43.18389.0389c2.5844.00572,5.22373.21508,7.77553.41758.77738.06178,1.55419.12355,2.331.18076q-.86147.88549-1.7115,1.78586a64.882,64.882,0,0,1-5.71567,5.5372c-24.82989,20.34579-52.97294,43.40526-43.54082,82.36473,9.00538,37.19879,42.03468,47.95171,75.09315,55.777a259.861,259.861,0,0,0,59.77661,6.7968,309.73914,309.73914,0,0,0,38.2576-2.45055c77.51911-9.69239,131.691-30.69944,175.6477-68.11559,2.69252-2.29153,4.22441-5.74656,5.70538-9.086,2.42539-5.47085,4.71692-10.63853,11.766-10.63853a17.32091,17.32091,0,0,1,2.31613.16475,1596.46984,1596.46984,0,0,0,213.48887,14.80744c100.52824-.00229,199.55606-10.54014,294.33259-31.32066a15.038,15.038,0,0,1,3.10381-.43245c1.82934,0,2.90932.67728,3.01572,4.138.51024,16.57271,11.564,28.1871,20.44646,37.52026,38.61512,40.57259,111.25657,66.7862,185.06152,66.78277,44.92913-.00229,85.83578-9.97382,115.18409-28.07842,26.53624-16.37021,42.25205-39.08189,44.253-63.95124,1.9998-24.87165-9.88574-49.80622-33.468-70.20806-13.59475-11.762-29.2831-21.31937-47.96429-29.21789-2.08332-.88092-4.138-1.96319-6.12639-3.00885q-.67958-.35866-1.36257-.715c.58233-.127,1.1635-.26085,1.74582-.3947a37.08929,37.08929,0,0,1,7.12057-1.16121c21.59852-.61207,43.56771-1.088,64.81272-1.54676,48.45166-1.04909,98.55418-2.13251,147.738-4.91369,32.43039-1.83506,55.85252-21.94975,62.6539-53.807,7.08624-33.19461-16.39309-50.83472-37.33722-59.78919-10.14772-4.33939-20.999-7.45692-31.49226-10.47149-5.36445-1.54218-10.912-3.13584-16.2947-4.87251a19.78894,19.78894,0,0,1-4.6254-2.49861q-.28487-.18705-.572-.3741c.143-.008.28487-.01716.42673-.02631.96672-.06293,1.96662-.127,2.93449-.127a16.14023,16.14023,0,0,1,1.85336.0961,439.593,439.593,0,0,0,49.42982,2.82466,422.33032,422.33032,0,0,0,154.52912-29.36548c82.10045-32.13979,148.2723-79.99769,196.67934-142.24431,47.231-60.733,78.08713-135.82733,91.71162-223.19613C2669.25288,2044.2247,2611.97717,1884.80134,2470.695,1752.00117Zm-287.09934,970.08914c-14.02948,6.8643-30.38368,10.2015-49.99956,10.2015-1.795,0-3.65638-.02746-5.53148-.08238l-60.725.00687c-27.73177,0-60.50651-.01144-93.31672-.09267a33.70092,33.70092,0,0,1-7.34709-1.14519c-.91867-.21394-1.86365-.43245-2.80635-.62008.30432-.78139.59033-1.57307.8752-2.36589a34.36849,34.36849,0,0,1,2.69309-6.18131c21.06768-34.71276,37.56946-74.15731,50.44459-120.58744,1.56506-5.64131,3.23309-6.74532,5.58754-6.74532a18.86847,18.86847,0,0,1,5.70309,1.29393c18.20641,6.16986,36.343,13.4975,53.88361,20.58374,31.0438,12.54222,63.14355,25.51117,96.88616,32.5814,16.43428,3.44359,28.09558,17.61494,29.70983,36.10507C2211.03914,2700.9414,2202.75965,2712.71368,2183.59567,2722.09031Zm-256.11274,12.18528c-.52741.33749-1.06854.68414-1.58451,1.04909-.26656-.54228-.55143-1.07769-.83058-1.60167a16.01957,16.01957,0,0,1-1.90713-4.65514c-22.02639-128.6324-3.828-228.30088,57.26885-313.6596,3.63236-5.075,6.96155-11.50914.41186-16.26038a9.95623,9.95623,0,0,0-5.82665-2.13136c-4.89882,0-8.79889,4.65056-11.64757,8.0461-38.86795,46.326-60.25139,103.7127-69.33515,186.07172-5.25119,47.60506-1.88081,98.97748,10.30561,157.0506,2.35216,11.206,8.78859,13.79724,18.34026,16.47088,43.98643,12.31685,73.57957,34.92213,90.47147,69.1052,10.952,22.16368,4.662,43.00712-18.69492,61.95145-26.08548,21.1592-66.01511,32.81249-112.43494,32.81249-81.3042,0-156.99226-34.20823-184.05819-83.1873-15.65175-28.32439-20.36638-61.56018-24.92542-93.70112-2.1325-15.0374-4.33823-30.58618-7.63538-45.45883-8.43737-38.05453-16.32674-76.90075-23.95755-114.46792-14.48825-71.33494-29.46959-145.09871-48.84636-216.63615-.8935-3.29944-2.92877-6.29571-4.89539-9.19359-.89922-1.32366-1.82819-2.69195-2.6256-4.05909l-1.0571-1.811-.03432,2.0959c-.02517,1.51587-.119,3.07292-.20936,4.57849a49.02608,49.02608,0,0,0,.07207,9.92578c14.955,102.87068,36.5238,206.23559,57.38326,306.197,8.88241,42.569,18.068,86.58742,26.61861,129.97208,2.2492,11.41762-.49652,15.789-11.30321,17.98561a1389.4381,1389.4381,0,0,1-276.13934,27.76152,1461.12359,1461.12359,0,0,1-215.60651-16.281c-3.21135-.48164-5.333-1.493-6.48619-3.09351-1.27676-1.77213-1.5193-4.42747-.7871-8.609,28.25631-161.37283,52.85739-302.60808,75.20641-431.777.242-1.39917.55486-2.94936.88263-4.57506,1.51186-7.49581,3.22565-15.99038.4908-20.03345a4.99519,4.99519,0,0,0-3.35264-2.1634,6.09321,6.09321,0,0,0-1.08685-.103c-6.07261,0-7.37855,9.65006-8.53118,18.16294-.28315,2.09132-.55029,4.0671-.87348,5.75114-19.68281,102.452-39.504,206.65661-58.672,307.4291q-15.63945,82.21887-31.3075,164.43316c-.94613,4.9606-2.54494,8.38131-4.38571,9.38349-68.16536,37.09125-130.19632,55.12147-189.63715,55.12147a297.58326,297.58326,0,0,1-84.1054-12.25277c-24.414-7.1915-39.19516-18.78187-42.74343-33.51723-3.61748-15.02023,4.5333-32.50589,23.57144-50.5693l.24368-.2311c10.53727-9.999,22.48-21.33195,35.60684-24.8213,42.63759-11.33411,44.59621-45.71967,46.3243-76.05759,5.54063-97.27742-16.80152-193.10076-68.30265-292.94543-.35808-.69329-.7196-1.47353-1.09828-2.2881-1.90428-4.10256-4.27475-9.20846-8.82292-9.20846a8.11183,8.11183,0,0,0-3.7931,1.07312,6.8129,6.8129,0,0,0-3.6129,3.96185c-.92611,3.1244,1.08169,6.76591,2.85268,9.97955.62122,1.12688,1.20812,2.19085,1.6543,3.19075,49.51048,110.85386,66.84341,206.73211,54.54773,301.734-.62522,4.83133-2.2921,9.64091-3.90407,14.29262-.6687,1.93115-1.35856,3.92066-1.9712,5.90444-1.77842-1.22985-3.62607-2.4128-5.41936-3.56143-4.30392-2.75716-8.7537-5.60813-12.334-9.16841-79.51833-79.06644-105.7308-181.8845-119.68307-262.62468-30.585-176.99482-12.16754-355.12,54.74108-529.4297a57.32835,57.32835,0,0,1,2.64561-5.62187c.31119-.604.62237-1.20811.92668-1.8156.48623.57545.98732,1.14176,1.489,1.70806a32.2762,32.2762,0,0,1,4.03563,5.23632c12.42782,21.92228,28.39532,46.834,52.59827,65.39161,3.72388,2.85555,6.50564,4.18493,8.75427,4.18379,3.3984,0,5.65618-2.89559,7.32078-9.38922,3.91608-15.27536,8.184-30.73719,12.31112-45.68878q2.46686-8.93388,4.916-17.87235c5.15166,4.31536,10.33649,8.74169,15.3583,13.02844,11.353,9.69239,23.09207,19.71427,35.08915,29.00053,56.059,43.39152,116.24921,77.332,178.89967,100.88,63.44272,23.84658,131.10355,37.67013,201.10225,41.0897,11.81288.57774,23.70871.87062,35.358.87062,78.33825,0,154.00686-13.2275,224.90592-39.31527,69.83281-25.69537,136.95079-64.57133,199.48914-115.54676a26.66081,26.66081,0,0,1,5.85067-3.264c.76766-.34779,1.55476-.70587,2.32471-1.08684.20249.67041.41758,1.33739.63151,2.00552a42.63536,42.63536,0,0,1,1.56506,5.78774c1.72523,10.14544,3.13127,19.20174,4.29934,27.6883.32835,2.38191.49766,4.97547.67728,7.72234.62008,9.49218,1.26189,19.307,8.58037,21.70377a5.27241,5.27241,0,0,0,1.64057.24826c6.06118,0,15.29137-8.81719,22.70711-15.90115l1.90484-1.81446c45.27234-42.91217,79.36846-97.74992,104.23553-167.64565a45.8623,45.8623,0,0,1,2.5192-5.47657c.27229-.52969.54457-1.05939.81-1.59137.31347.50338.635,1.00447.95643,1.50442a37.12906,37.12906,0,0,1,2.94135,5.17683c46.93808,109.06343,73.28326,231.37037,80.53883,373.9087.87977,17.27859.63723,34.913.40385,51.96733-.10755,7.8722-.21966,16.01212-.21966,24.01818.56516,108.36327-6.29685,235.43518-61.47667,356.28118-6.60918,14.47452-15.54764,28.20083-24.19094,41.47639-3.51337,5.39419-7.14459,10.97258-10.57216,16.52465A11.79882,11.79882,0,0,1,1927.48293,2734.27559ZM758.2839,1728.45319a11.57582,11.57582,0,0,0-3.51166-.55487c-7.434,0-13.63479,7.30133-19.10563,13.74462-1.20583,1.41976-2.34473,2.76059-3.45789,3.97786-9.60545,10.51039-18.45353,22.01838-27.01045,33.1477-3.59861,4.68031-7.3202,9.51964-11.0458,14.21826-1.29049,1.62683-2.61816,3.22278-3.94583,4.81988q-.62552.75163-1.2493,1.50328c-.26771-.59834-.54972-1.19324-.83173-1.78815a27.23185,27.23185,0,0,1-2.18227-5.63559c-14.67073-66.83311-10.78382-127.859,11.552-181.3834,15.32169-36.71371,13.87046-71.80973,11.071-104.60964-2.87156-33.66252.1167-67.60077,3.006-100.42242q.45477-5.16539.90323-10.33191c.445-5.16653,2.04385-8.48084,8.63071-9.04028,44.73579-3.79825,68.0378-11.691,80.42958-27.23983,12.56681-15.76844,14.94072-39.76718,8.46768-85.59668-6.55541-46.40495-9.16784-84.10883-8.22114-118.65628.88206-32.18727,22.162-55.54935,42.74113-78.142,3.88062-4.26045,7.89395-8.66618,11.64185-13.00556,134.77023-156.03526,300.852-235.15146,493.63182-235.15146,17.18591,0,34.8243.63952,52.42437,1.90084,218.75093,15.67177,389.40085,119.87069,507.21054,309.7029,13.18289,21.24215,9.19931,47.49466,5.34729,72.88284-1.4621,9.63405-2.97339,19.59644-3.49622,29.06917-.72189,13.06162-2.70682,26.2834-4.62654,39.06931-1.21154,8.07241-2.46428,16.4194-3.391,24.65885-2.66907,23.74018,2.84182,44.03105,15.93662,58.67946,14.19308,15.87827,36.343,24.26988,64.0565,24.26874.55486,0,2.55809-.016,2.55809-.016,9.35719,0,13.45632,1.77556,14.61638,12.7756,6.86659,65.1159,5.19857,124.14086-5.099,180.44871-2.80864,15.35773-1.525,29.46158,4.16206,45.72883,19.06788,54.55287,23.5251,114.23453,14.02376,187.8244-.15673,1.21841-.42673,2.45513-.68757,3.6518-.032.14415-.06407.2883-.095.43245-.08237-.1144-.16474-.22766-.24711-.34207-.7219-.99646-1.469-2.0284-2.1348-3.0752-13.38195-21.01734-30.82528-44.29647-58.73438-57.59377-6.30028-3.002-10.36853-4.28332-13.60161-4.28332a7.64061,7.64061,0,0,0-5.75343,2.21831c-2.61186,2.6542-3.81884,7.81158-3.68956,15.765,1.33625,81.99177-30.60448,156.26121-100.51852,233.73055a25.442,25.442,0,0,1-5.345,4.08312c-.68643.43588-1.39.8832-2.07416,1.34883-.278-.88664-.58-1.771-.88092-2.6542a39.93616,39.93616,0,0,1-1.98607-7.2956c-5.66762-41.5027-11.87066-76.00153-23.71615-109.47414-.14415-.40728-.28945-.82944-.437-1.26189-1.57765-4.60823-3.54084-10.34335-8.96249-10.34335a9.30185,9.30185,0,0,0-2.62788.413c-7.8539,2.33615-6.06575,9.17757-4.62883,14.67358.17962.68758.357,1.36371.51254,2.01925l.10067.42215c14.80515,62.20772,14.80515,62.20772-36.95624,99.50375-117.4516,84.62881-245.00745,124.17518-401.4231,124.45547-155.45122-.61893-303.98723-61.43891-429.55015-175.88624-8.94132-8.15021-11.143-15.39891-8.12332-26.74674,4.98119-18.71895,9.24735-37.95729,13.3728-56.56183,1.93287-8.71766,3.93153-17.73049,5.97823-26.574,1.06282-4.59336,1.74925-9.30914-.405-12.68752-1.275-1.99865-3.47048-3.33833-6.52624-3.98243a13.52925,13.52925,0,0,0-2.76974-.30775c-7.46149,0-9.693,7.2773-10.722,12.75043-6.08062,32.34458-12.1847,65.24517-18.088,97.0612q-6.55283,35.31853-13.13426,70.62907a66.63819,66.63819,0,0,1-2.24921,8.1136c-.31518.97473-.63037,1.94946-.929,2.92877-.88149-.75622-1.79158-1.493-2.67764-2.21031a42.8113,42.8113,0,0,1-6.6824-6.2385c-60.35378-75.66975-78.94288-166.16639-89.16725-244.71-.29574-2.27551-.39642-4.77755-.50281-7.42488C767.10453,1741.07549,766.70468,1731.13484,758.2839,1728.45319ZM417.027,1090.15283c6.4656-13.00785,20.21593-22.26322,43.27254-29.12637,147.33476-43.85887,269.66173-134.788,382.32777-224.16458,11.10758-8.81147,21.85364-18.45123,32.24562-27.77353,11.595-10.40055,23.584-21.15577,36.09992-30.77952,16.34905-12.57139,33.92452-18.94546,52.23732-18.94546,14.41332,0,29.18929,3.97386,43.91722,11.81174,15.32055,8.15307,29.88144,23.27284,39.94965,41.48325,9.896,17.89981,14.55346,36.97169,12.77847,52.32656-.61321,5.30324-3.91494,6.99758-7.73778,8.9602l-.671.34493a712.84921,712.84921,0,0,0-97.21107,60.856c-.50223.37353-.99189.76709-1.477,1.15721-1.82762,1.4701-3.55342,2.85841-5.64074,2.85841a6.59457,6.59457,0,0,1-3.4659-1.13833c-17.62581-10.88736-34.84548-16.4074-51.18194-16.4074-21.93487,0-42.55637,10.158-59.63589,29.37577-14.66729,16.50407-26.54139,39.555-33.43486,64.90539-27.39771,100.7519-20.01286,201.96772-10.51839,278.8902,2.80521,22.72656-.16074,38.14377-9.33259,48.518-11.3198,12.80192-32.86913,18.76471-67.82386,18.76471-.00229,0-1.34826-.00229-1.95518-.00344-83.332-9.77247-166.11434-57.58461-239.3976-138.26644-24.10056-26.5351-39.75288-50.69571-49.25879-76.03585C411.51092,1122.16964,410.21243,1103.86312,417.027,1090.15283Zm394.99755-5.01838a29.83155,29.83155,0,0,1-4.11973,4.3451c-.48622.449-.97244.89808-1.44722,1.35513l-1.50328-4.06481c4.634-38.01564,13.18174-81.759,41.33853-118.14775,12.96094-16.75061,29.05429-25.244,47.83444-25.244,9.59114,0,20.07922,2.21317,31.17364,6.57943,3.83257,1.50843,5.72826,2.887,5.96565,4.33881.24426,1.49242-1.199,3.49622-4.5413,6.30772A676.9,676.9,0,0,0,812.02451,1085.13445ZM1833.553,802.55812c94.45276,83.96926,223.489,188.00516,384.26921,247.67652,6.7968,2.52263,13.83042,4.7438,20.63294,6.89118,8.18111,2.58326,16.64021,5.25462,24.72064,8.46254,39.2432,15.58024,49.73757,38.45094,35.09144,76.47516-26.304,68.29063-77.165,123.435-160.064,173.54094-52.00164,31.43163-97.20763,47.50553-138.152,49.14037-31.97391-1.35226-51.37928-4.55789-62.34271-17.60235-10.86276-12.92319-13.16-36.21948-7.68459-77.89721,14.81088-112.74842,7.44777-201.49695-23.17387-279.29749-16.559-42.07473-43.9441-64.31391-79.19457-64.31391-16.31644,0-34.1968,4.76439-53.1457,14.16105a10.29346,10.29346,0,0,1-4.56361,1.23386c-2.53636,0-4.50069-1.33111-6.77392-2.87214-.49309-.33406-.99647-.67556-1.51816-1.01134-8.12389-5.23231-16.29356-10.74721-24.19436-16.07962-19.50377-13.16516-39.67222-26.77764-60.931-37.35152-19.82753-9.86171-21.39488-21.14776-17.34952-38.52474,9.97612-42.87155,32.90059-68.89125,70.08336-79.54636a85.86282,85.86282,0,0,1,23.60976-3.4476C1785.4251,762.19546,1811.58609,783.02976,1833.553,802.55812Zm-46.51364,152.71122c.21279-1.0205,1.58908-1.91857,4.09112-2.67022,7.31734-2.19657,14.72621-4.257,19.62732-5.62014,1.5193-.42273,2.80979-.78139,3.80168-1.06225l.858-.00343c26.209,0,44.253,9.07975,58.50786,29.43926,24.81444,35.4461,32.8594,75.80933,37.45505,110.61762a12.70041,12.70041,0,0,1-.19678,3.44817c-.03661.2597-.07436.51939-.10868.77852-.2517-.15158-.50567-.298-.75622-.44217a8.31169,8.31169,0,0,1-2.7297-2.081,683.73373,683.73373,0,0,0-117.82228-128.26C1787.7418,957.70273,1786.82428,956.30813,1787.03936,955.26934ZM796.92991,2783.96625q-19.74687,0-39.49432-.01945-20.04033-.01373-40.08122-.01944c-20.47277,0-37.31033.024-52.98724.07322h-.1636c-16.38394-.00115-31.85264-7.74866-42.43911-21.25416-10.33592-13.18632-14.08954-29.59314-10.29874-45.01494,2.79549-11.37071,9.71413-17.99934,23.87976-22.87871,40.55485-13.96656,80.79223-30.65367,119.70481-46.79164a18.64657,18.64657,0,0,1,6.77849-1.80989c2.98769,0,4.86908,1.80188,7.18978,6.88718,23.61777,51.74652,48.73539,90.17516,79.04756,120.93752a16.67707,16.67707,0,0,1,2.16969,3.002c.18191.29288.36381.5869.54915.87634-.41072.13042-.82143.27114-1.23157.413a13.18582,13.18582,0,0,1-4.05852.953C836.30067,2779.39806,796.92991,2783.96625,796.92991,2783.96625Zm1386.11662-184.42657c-40.46047-.00114-80.95984-6.63434-123.81252-20.28057a37.80973,37.80973,0,0,1-6.80367-3.24338c-.64982-.36381-1.29849-.72762-1.95174-1.08.72418-.254,1.44722-.5194,2.17026-.786a40.43735,40.43735,0,0,1,7.36425-2.192c118.08655-18.96377,213.48429-75.15836,283.54591-167.02443,74.46164-97.63436,109.00165-220.9,97.258-347.08988-11.72995-126.03655-68.23915-240.5182-159.1179-322.35552a27.09382,27.09382,0,0,1-4.45036-5.8747c-.51253-.81914-1.03879-1.66116-1.59137-2.47343,1.00448-.55258,1.9998-1.18066,2.96881-1.79159,2.4128-1.52158,4.90683-3.09579,7.43633-3.39325a135.50709,135.50709,0,0,1,15.82793-.93926c46.81223,0,85.15049,25.40134,117.41041,49.21131,6.40325,4.72607,12.2196,10.50237,17.84489,16.08877,3.91837,3.89091,7.9706,7.91568,12.207,11.57435,3.31432,2.86242,8.31382,5.92161,12.40723,5.92161a7.88932,7.88932,0,0,0,.87519-.04805c5.77974-.65326,5.98224-5.92161,6.16071-10.56874.03089-.818.06178-1.6234.12242-2.39221.22537-2.83495.71388-5.70995,1.18638-8.49.1636-.95986.32605-1.91857.47935-2.87957.929.61549,1.88425,1.207,2.81551,1.78243a37.4359,37.4359,0,0,1,7.12057,5.21343c170.86843,174.06262,195.38542,448.2239,57.02746,637.72433-84.36911,115.55591-201.553,174.54656-348.30372,175.33252Q2186.13946,2599.53912,2183.04653,2599.53968Z" style="fill: #010101"/>
    <path d="M1339.63088,2122.2798c-155.32008-.61836-303.42435-60.72188-429.94212-176.03926-8.89542-8.10817-11.44565-15.48929-8.29479-27.33021,7.31162-27.4755,12.93234-55.39947,19.34617-83.1168,1.62369-7.017,2.27623-14.11843-6.48119-15.96536-8.69549-1.83406-11.52358,5.21344-12.79562,11.97892-10.505,55.87783-20.77995,111.79928-31.22241,167.689-.75937,4.06423-2.28424,7.98518-3.453,11.97276-3.3989-3.01972-7.32543-5.619-10.11877-9.12151-57.16066-71.667-77.78588-156.6273-89.28959-245.00044-1.30929-10.05806,1.13912-25.0198-9.27274-28.335-10.28508-3.27484-18.55742,9.44571-25.46562,17.0043-13.62657,14.90969-25.44753,31.46881-38.03015,47.33392-1.89534,2.38978-3.87183,4.71521-5.81085,7.07038-1.16536-2.79778-2.789-5.49473-3.42864-8.40806-13.54641-61.70891-12.48137-124.06978,11.5835-181.73533,14.86221-35.61356,14.03985-69.03913,11.02814-104.33407-3.173-37.18548.73084-73.9777,3.90865-110.85415.45183-5.244,2.172-8.97993,9.16455-9.5737,84.52606-7.178,100.18882-28.47883,88.36707-112.17123-5.54257-39.23863-9.30928-79.24877-8.2268-118.75439,1.059-38.64472,31.34411-64.67557,54.52564-91.51484,143.88523-166.58783,326.50578-249.21613,546.54076-233.452,220.3925,15.78975,390.98851,121.9696,507.6663,309.97862,18.35528,29.5767,3.83143,68.02235,1.938,102.2928-1.1788,21.3351-5.62572,42.47056-8.01936,63.76148-5.67878,50.51624,26.05388,82.9592,81.08082,82.2875,10.4815-.128,14.88052,1.85508,16.08678,13.293,6.3795,60.49049,5.83279,120.81139-5.10433,180.61574-2.97853,16.28626-1.04137,30.61349,4.13789,45.43079,21.47439,61.43649,22.27065,124.433,14.05222,188.0934-.23581,1.82676-.7043,3.62363-1.06454,5.43438-1.06167-1.50772-2.18656-2.97525-3.17588-4.529-15.0607-23.6548-32.46714-44.98075-58.49184-57.37911-13.5191-6.44071-22.54922-7.91-22.20615,13.1623,1.51172,92.858-40.55042,167.51522-100.66982,234.13182-2.21531,2.45485-5.43038,4.00732-8.17939,5.98052-1.06568-3.60032-2.61944-7.13429-3.12168-10.81156-5.06414-37.07379-11.14962-73.92822-23.68827-109.35773-1.8545-5.24061-3.83142-13.05018-11.30822-10.82586-8.22672,2.44712-5.12119,10.07908-3.71344,15.99468,14.9207,62.69537,15.11333,62.92761-37.08295,100.53653C1626.36884,2080.59691,1497.87144,2121.99607,1339.63088,2122.2798Z" style="fill: #575757"/>
    <path d="M2028.16419,2316.72052c.63752,122.36844-9.81266,243.26621-61.53015,356.52773-9.31615,20.403-22.93921,38.85165-34.79657,58.06511-1.29764,2.10276-4.07511,3.292-6.16586,4.9054-1.0561-2.34616-2.66821-4.59708-3.08865-7.05221-19.12136-111.67272-11.10715-218.42774,57.37025-314.09977,3.72259-5.20114,6.532-11.10187.54414-15.44525-7.11771-5.16281-12.304.5992-16.68211,5.81749-45.06456,53.71286-61.74037,118.116-69.20115,185.75882-5.82608,52.82107-.57932,105.0338,10.29716,156.86727,2.19958,10.48236,7.90682,13.22264,17.92426,16.02728,39.1554,10.964,72.26849,31.82976,90.839,69.40951,12.51819,25.33213,1.67045,46.02084-18.8508,62.66648-75.12018,60.93239-250.95007,33.46289-297.37476-50.54727-23.03273-41.68-22.27251-92.63888-32.62087-139.3164-24.45778-110.31873-43.22178-221.8882-72.797-331.07719-1.2729-4.69947-4.9197-8.7557-7.46078-13.11167-.0798,4.80787-.82572,9.71242-.14286,14.40931,21.32023,146.66006,55.36844,290.88071,83.99529,436.14016,2.2748,11.54289-.54143,16.39309-11.76,18.67318-163.3127,33.19118-327.29553,36.14054-491.94977,11.48541-7.86434-1.17809-8.99324-5.35845-7.76367-12.3812q37.79634-215.85391,75.20641-431.77589c1.58194-9.143,6.16-24.68488-1.50785-26.09578-7.96331-1.465-8.15193,14.70962-9.81066,23.34377q-45.313,235.86849-89.97881,471.862c-.66884,3.50537-2.08246,8.37359-4.68189,9.7882-86.25464,46.93465-176.64317,71.64871-274.18737,42.91618-51.09-15.04855-57.8471-48.605-19.40981-85.073,10.62108-10.07707,22.72956-21.63827,36.103-25.19369,40.976-10.89336,44.03706-42.988,45.89028-75.52446,5.92918-104.10254-20.8955-200.86028-68.23865-292.64369-2.56-4.96289-5.30689-14.24256-12.91761-10.176-7.43876,3.97442-1.20733,11.09213,1.15263,16.37621,42.975,96.2209,68.36821,195.62253,54.59413,302.04921-.92753,7.16576-4.03649,14.0495-6.13067,21.06425-6.20319-4.37971-13.183-7.978-18.492-13.257-72.95313-72.53877-102.9597-165.21454-119.84731-262.941-31.358-181.4652-11.11716-358.08592,54.77146-529.73774,1.09629-2.85584,2.6522-5.53549,3.99367-8.29723,2.07452,2.56268,4.5556,4.89482,6.15963,7.72406,13.94318,24.59564,29.591,47.69229,52.4449,65.21542,8.36007,6.40983,12.4725,5.56323,15.15129-4.88538,5.5272-21.55962,11.61354-42.97624,17.46979-64.45148,17.02,14.23112,33.5996,29.03112,51.13131,42.60127,111.834,86.56368,238.26613,134.94012,379.67142,141.84789,172.89384,8.44567,325.569-44.80957,459.35494-153.86013,2.5568-2.08417,5.91974-3.17988,8.90628-4.73665a79.18056,79.18056,0,0,1,2.413,8.53461c1.5662,9.21361,3.02687,18.44867,4.30191,27.7066,1.45337,10.55215-.12828,26.006,8.85952,28.94819,6.07777,1.98921,17.92412-9.99471,25.66776-17.33493,49.24506-46.67839,81.54059-104.04734,104.08653-167.41656a86.33178,86.33178,0,0,1,3.82584-8.08957c1.51143,2.5498,3.32833,4.968,4.4904,7.668,51.39344,119.4125,74.01746,245.08067,80.5863,374.11005C2029.26576,2265.98334,2028.16419,2291.3801,2028.16419,2316.72052Zm-86.29469,566.31817c-1.6962-27.56331-7.61008-51.63927-30.8197-67.70573-4.71864-3.266-10.35766-5.22288-14.90011-.39327-4.05323,4.30964-1.43779,8.71852,2.35431,12.15782,21.00562,19.05043,27.13129,42.63216,21.73552,69.94235-1.23743,6.26224.19649,12.17527,7.61265,13.48692,6.72458,1.18895,10.125-3.40813,11.35627-9.21332C1940.57358,2894.87818,1941.13788,2888.27272,1941.8695,2883.03869Zm-1062.05474-5.02981c-.42473,12.57024.2484,23.63149,10.5181,30.60791,2.58913,1.759,7.64069,1.8934,10.523.54914,2.07645-.96844,4.30291-6.72873,3.2747-8.47426-15.44082-26.21791-1.63657-43.709,16.96411-60.21221,3.72174-3.30173,10.56859-6.98385,5.9432-13.12368-4.49812-5.97051-11.38087-3.84086-16.87317-.36295C890.9824,2839.14092,877.88617,2854.99173,879.81476,2878.00888Zm141.91467-48.80031c-15.39634,2.54465-26.171,8.95019-29.034,23.44215-3.60776,18.263-8.4388,37.32606,9.171,51.72679,1.97534,1.6154,8.5.89894,10.09938-1.04824,2.15682-2.62616,2.9159-7.86305,1.95747-11.34125-5.10832-18.53389-7.54987-35.92345,11.71565-48.6656,2.09018-1.38287,3.60318-6.34118,2.76531-8.71737C1027.4973,2832.03237,1023.52073,2830.54138,1021.72943,2829.20857Zm818.80885,58.27962c-2.62531-21.15005-5.79318-42.32527-22.44483-58.45066-4.32794-4.19037-9.29369-6.83-14.44463-2.291-5.54464,4.88624-.99261,9.30113,2.27351,12.96752,15.6067,17.522,21.59866,37.40986,16.10236,60.57173-1.29063,5.43852-1.502,11.65329,5.9595,12.999,7.69459,1.388,10.26985-3.306,10.57317-10.34336C1838.77444,2897.90676,1839.81238,2892.90727,1840.53828,2887.48819Z" style="fill: #575757"/>
    <path d="M2189.25443,2600.07138c-44.698.76651-87.91223-6.78822-130.19789-20.2534-3.528-1.12317-6.718-3.308-10.06492-4.99979,3.63922-1.17036,7.1985-2.83953,10.92939-3.43873,116.17084-18.65688,211.82114-73.24465,283.17181-166.80048,153.90532-201.80154,125.73224-499.79566-61.78642-668.65486-2.68823-2.42053-4.36026-5.96937-6.50649-8.99181,3.72359-1.91714,7.29789-5.10074,11.19338-5.56022,52.54164-6.19889,93.99,19.10907,133.65535,48.38387,10.89851,8.04353,19.77233,18.78187,30.08709,27.69116,3.48248,3.00785,8.772,6.19346,12.83309,5.73455,6.23908-.70488,5.367-7.38384,5.7663-12.42481.3272-4.13074,1.18838-8.21928,1.81332-12.32642,3.62091,2.505,7.7598,4.50183,10.78925,7.58791,170.1574,173.33729,196.61528,447.37158,57.08408,638.48026C2452.95937,2541.00437,2334.5113,2599.29428,2189.25443,2600.07138Z" style="fill: #575757"/>
    <path d="M2000.02585,1365.33045c-61.78513-2.6123-81.60222-12.286-70.58331-96.16227,12.32171-93.79193,12.47916-188.5134-23.137-279.00589-24.42518-62.05942-71.65985-79.53421-131.53485-49.84254-6.22277,3.08607-9.21947.0316-13.433-2.68208-28.17494-18.14578-55.23787-38.56135-85.06969-53.399-19.66379-9.7802-21.85593-21.1542-17.66027-39.18214,9.18743-39.47587,30.59375-68.54289,70.4935-79.97624,43.06819-12.3413,74.6135,10.168,104.84073,37.04,115.1708,102.38717,237.866,193.29853,384.08388,247.565,14.96218,5.55307,30.54757,9.475,45.36559,15.35815,38.61369,15.33056,50.4732,38.15421,35.42236,77.23024-30.30617,78.681-90.31788,131.52785-160.30771,173.83167C2094.20991,1342.87918,2047.07934,1363.45335,2000.02585,1365.33045Z" style="fill: #575757"/>
    <path d="M709.70125,1362.64951c-88.62883-10.39455-170.775-62.50274-239.763-138.45622-20.52433-22.59656-38.50872-47.26041-49.37391-76.22275-17.84668-47.57146-8.46254-73.20833,39.568-87.50581C606.14206,1017.00127,725.483,929.043,842.26353,836.40283c23.48914-18.63371,44.60258-40.2963,68.35234-58.55834,30.04189-23.10022,63.57915-24.85849,96.78691-7.18635,32.74743,17.427,56.73873,62.3533,53.03415,94.39456-.68628,5.93619-4.60308,7.62581-8.721,9.758a708.853,708.853,0,0,0-97.13084,60.80539c-3.41256,2.53765-6.217,6.00941-11.24143,2.906-75.25346-46.48546-126.32764,14.822-143.37928,77.52855-25.05383,92.1342-22.01467,185.39172-10.502,278.66483C795.30078,1342.01771,777.33419,1363.07924,709.70125,1362.64951Z" style="fill: #575757"/>
    <path d="M2128.04747,2732.7949q-77.01315,0-154.026-.0858c-3.65438-.00887-7.30576-1.24444-10.95871-1.90971,1.27147-3.10953,2.152-6.45644,3.87375-9.29283,22.8381-37.6258,38.66989-78.20811,50.38153-120.43957,2.19214-7.9051,4.84319-8.28893,12.04284-5.84953,50.424,17.0861,97.94384,42.09217,150.702,53.14713,16.71914,3.50336,28.54976,18.02508,30.17288,36.62676,1.67975,19.25092-11.01634,30.10624-26.38293,37.62522C2166.37743,2731.1672,2147.36332,2733.35577,2128.04747,2732.7949Zm-74.28145-27.1217c-.564-20.52741-5.87569-35.52619-19.68524-46.55369-4.47137-3.57029-10.47134-6.11637-14.87908-1.58794-5.87727,6.038,2.12207,8.6107,5.09045,11.6041,9.04615,9.12151,14.54917,19.6093,12.42739,32.48988-1.00705,6.11494-7.56661,12.16182.37582,17.47908,2.34816,1.57192,7.03633,1.72351,9.63361.44961C2053.74329,2716.11265,2054.06848,2709.192,2053.766,2705.6732Zm72.4933-14.54631c-1.08227-11.47-5.24547-23.03545-15.01937-31.822-4.33652-3.89864-9.84913-5.54178-14.72278-.7402-4.87652,4.80472-.50567,8.76771,2.40279,12.08431a46.03028,46.03028,0,0,1,11.31751,26.38122c.61178,5.73856-9.07432,16.18659,3.45217,16.255C2123.57538,2713.33919,2126.10487,2702.0926,2126.25932,2691.12689Z" style="fill: #575757"/>
    <path d="M797.86405,2785.68284c-44.38206,0-89.11336-1.23752-133.495-1.0968-34.28275.109-61.66008-33.69-53.47211-66.99442,3.05182-12.41323,10.98788-18.72266,24.25829-23.29286,40.46791-13.93681,80.10373-30.37,119.67063-46.77905,8.3206-3.45046,11.21348-2.31956,14.72542,5.37531,20.18348,44.223,44.49511,85.82206,78.9323,120.77078a32.59835,32.59835,0,0,1,3.22579,4.626c-2.06966.56287-4.13538,1.59652-6.20969,1.614C829.50766,2780.04159,797.86591,2784.15925,797.86405,2785.68284Zm-122.10219-34.2322c2.08768,7.20551-.91574,20.1001,10.89965,20.60577,13.65217.584,9.58149-12.46128,9.85049-20.62408.43266-13.12883,7.06107-22.82637,15.51053-31.80344,3.8257-4.0651,6.0561-8.75542,2.51762-13.63078-3.86453-5.32413-9.28182-3.16731-13.71465-.61322C683.55921,2715.33241,677.27952,2731.4964,675.76186,2751.45064Zm80.25489-4.26759c1.23543,5.25977-2.75651,21.3125,12.83224,20.29887,15.38547-1.00075,4.14-14.70476,5.54042-22.63045,1.12717-6.37893,2.60786-12.705,4.17256-18.99466,1.93459-7.77611,17.52413-14.82717,6.75791-22.0161-10.634-7.10083-16.83749,6.76877-22.82287,14.49054C757.04983,2725.35886,754.46056,2733.44873,756.01675,2747.18305Z" style="fill: #575757"/>
    <path d="M804.35508,1086.8398c5.35187-43.97485,15.053-84.42988,41.47424-118.57634,21.11988-27.295,48.69163-31.04809,79.68594-18.8508,8.00134,3.14885,8.37673,5.92932,1.58708,11.63956a673.20228,673.20228,0,0,0-114.6012,124.42244c-1.71893,2.40494-4.16941,4.287-6.27926,6.41269C805.37243,1089.59053,804.523,1087.2937,804.35508,1086.8398Z" style="fill: #d4d4d4"/>
    <path d="M1814.47754,945.3314c29.50562-.24382,46.81209,10.95228,59.92691,29.68524,23.30887,33.29414,32.35087,71.44706,37.55758,110.87689.22738,1.72065-.25755,3.53511-.41071,5.306-1.502-1.04767-3.44974-1.78114-4.44149-3.18847a679.93192,679.93192,0,0,0-117.72059-128.15c-4.79414-4.04908-3.42071-6.32331,1.57264-7.8223C1800.5902,949.14838,1810.29561,946.51564,1814.47754,945.3314Z" style="fill: #d4d4d4"/>
    <path d="M1941.8695,2883.03869c-.73162,5.234-1.29592,11.83949-2.66106,18.27477-1.23128,5.80519-4.63169,10.40227-11.35627,9.21332-7.41616-1.31165-8.85008-7.22468-7.61265-13.48692,5.39577-27.31019-.7299-50.89192-21.73552-69.94235-3.7921-3.4393-6.40754-7.84818-2.35431-12.15782,4.54245-4.82961,10.18147-2.87271,14.90011.39327C1934.25942,2831.39942,1940.1733,2855.47538,1941.8695,2883.03869Z" style="fill: #010101"/>
    <path d="M879.81476,2878.00888c-1.92859-23.01715,11.16764-38.868,30.34992-51.016,5.4923-3.47791,12.375-5.60756,16.87317.36295,4.62539,6.13983-2.22146,9.822-5.9432,13.12368-18.60068,16.50321-32.40493,33.9943-16.96411,60.21221,1.02821,1.74553-1.19825,7.50582-3.2747,8.47426-2.88229,1.34426-7.93385,1.20983-10.523-.54914C880.06316,2901.64037,879.39,2890.57912,879.81476,2878.00888Z" style="fill: #020202"/>
    <path d="M1021.72943,2829.20857c1.7913,1.33281,5.76787,2.8238,6.67482,5.39648.83787,2.37619-.67513,7.3345-2.76531,8.71737-19.26552,12.74215-16.824,30.13171-11.71565,48.6656.95843,3.4782.19935,8.71509-1.95747,11.34125-1.59938,1.94718-8.124,2.66364-10.09938,1.04824-17.60979-14.40073-12.77875-33.46375-9.171-51.72679C995.55843,2838.15876,1006.33309,2831.75322,1021.72943,2829.20857Z" style="fill: #020202"/>
    <path d="M1840.53828,2887.48819c-.7259,5.41908-1.76384,10.41857-1.98092,15.45325-.30332,7.03734-2.87858,11.73138-10.57317,10.34336-7.46149-1.34569-7.25013-7.56046-5.9595-12.999,5.4963-23.16187-.49566-43.04975-16.10236-60.57173-3.26612-3.66639-7.81815-8.08128-2.27351-12.96752,5.15094-4.539,10.11669-1.89941,14.44463,2.291C1834.7451,2845.16292,1837.913,2866.33814,1840.53828,2887.48819Z" style="fill: #020202"/>
    <path d="M2053.766,2705.6732c.30246,3.51881-.02273,10.43945-7.03705,13.881-2.59728,1.2739-7.28545,1.12231-9.63361-.44961-7.94243-5.31726-1.38287-11.36414-.37582-17.47908,2.12178-12.88058-3.38124-23.36837-12.42739-32.48988-2.96838-2.9934-10.96772-5.56609-5.09045-11.6041,4.40774-4.52843,10.40771-1.98235,14.87908,1.58794C2047.89033,2670.147,2053.202,2685.14579,2053.766,2705.6732Z" style="fill: #020202"/>
    <path d="M2126.25932,2691.12689c-.15445,10.96571-2.68394,22.2123-12.56968,22.15824-12.52649-.06836-2.84039-10.51639-3.45217-16.255A46.03028,46.03028,0,0,0,2098.92,2670.649c-2.90846-3.3166-7.27931-7.27959-2.40279-12.08431,4.87365-4.80158,10.38626-3.15844,14.72278.7402C2121.01385,2668.09144,2125.177,2679.65693,2126.25932,2691.12689Z" style="fill: #020202"/>
    <path d="M675.76186,2751.45064c1.51766-19.95424,7.79735-36.11823,25.06364-46.06575,4.43283-2.55409,9.85012-4.71091,13.71465.61322,3.53848,4.87536,1.30808,9.56568-2.51762,13.63078-8.44946,8.97707-15.07787,18.67461-15.51053,31.80344-.269,8.1628,3.80168,21.20812-9.85049,20.62408C674.84612,2771.55074,677.84954,2758.65615,675.76186,2751.45064Z" style="fill: #020202"/>
    <path d="M756.01675,2747.18305c-1.55619-13.73432,1.03308-21.82419,6.48026-28.8518,5.98538-7.72177,12.18892-21.59137,22.82287-14.49054,10.76622,7.18893-4.82332,14.24-6.75791,22.0161-1.5647,6.2897-3.04539,12.61573-4.17256,18.99466-1.40046,7.92569,9.84505,21.6297-5.54042,22.63045C753.26024,2768.49555,757.25218,2752.44282,756.01675,2747.18305Z" style="fill: #020202"/>
    <g>
      <path d="M980.70569,1031.42053c108.54553-102.22778,227.67468-143.626,289.73743-164.49444,9.10009-3.06,16.6206-5.41925,21.52319-6.92609h-23.179a582.14864,582.14864,0,0,0-183.77624,50.21411,598.64425,598.64425,0,0,0-187.08753,135.0586,612.91752,612.91752,0,0,0-94.77386,134.63134l6.46948,83.85352a72.82833,72.82833,0,0,0,3.86664-7.23938c.33789-.74182,12.30939-24.75452,41.391-69.26087C878.54779,1151.03174,918.30261,1090.19165,980.70569,1031.42053Z" style="fill: #f4f4f4;opacity: 0.2"/>
      <path d="M1388,2802a1421.26343,1421.26343,0,0,1-241-17l-8,67c45.06946,7.02441,82.84155,10.81567,110,13,178.14819,14.32861,314.595-7.10083,373-18,22.60217-4.218,41.03479-8.26172,53-11l-12-65A1421.715,1421.715,0,0,1,1388,2802Z" style="opacity: 0.21"/>
      <path d="M1156,1719a469.6437,469.6437,0,0,0,452,6l1-22a469.6437,469.6437,0,0,1-452-6Z" style="opacity: 0.2"/>
      <path d="M882.9483,1945,880,1969.20886c32.28052,32.50513,206.39355,201.33631,476.63794,196.69739,237.157-4.0708,393.87476-139.066,433.39648-175.51465L1792,1966.18286c-39.52173,36.44849-195.25684,171.4436-432.41382,175.51441C1089.3418,2146.33618,915.22882,1977.50513,882.9483,1945Z" style="opacity: 0.2"/>
      <path d="M934.67387,954.06542c-1.36111-5.01121-21.70836-10.06782-21.70849-10.06782-17.54438-3.40946-24.32357-3.6245-39.72887,2.72a67.51145,67.51145,0,0,0-17.78669,11.09947,68.79738,68.79738,0,0,0-9.20263,9.61839L862.42807,980.207l21.38251,16.67834,3.57117,2.71964,45.504-41.7299a3.10229,3.10229,0,0,0,1.78817-3.80967Z" style="opacity: 0.2"/>
      <path d="M1787.13259,954.06542c1.36111-5.01121,21.70836-10.06782,21.70849-10.06782,17.54438-3.40946,24.32357-3.6245,39.72887,2.72a67.51146,67.51146,0,0,1,17.78668,11.09947,68.79754,68.79754,0,0,1,9.20264,9.61839L1859.37839,980.207l-21.38251,16.67834-3.57117,2.71964-45.504-41.7299a3.1023,3.1023,0,0,1-1.78816-3.80967Z" style="opacity: 0.2"/>
      <path d="M429.191,1120.8877c42.13534,81.262,76.85385,112.44921,76.85391,112.44934-.20538-.64136,130.8103,124.08239,229.2135,109.7528,13.60468-13.51831,3.72107-29.82837-13.235-26.97717-92.24073-4.48865-225.35474-87.19726-271.79383-216.80188C432.87683,1089.33228,421.04178,1106.96606,429.191,1120.8877Z" style="fill: #f4f4f4;opacity: 0.2"/>
      <path d="M2282.3223,1122.8877c-42.13535,81.262-76.85386,112.44921-76.85392,112.44934.20539-.64136-130.8103,124.08239-229.2135,109.7528-13.60467-13.51831-3.72107-29.82837,13.235-26.97717,92.24072-4.48865,225.35473-87.19726,271.79382-216.80188C2278.63647,1091.33228,2290.47153,1108.96606,2282.3223,1122.8877Z" style="fill: #f4f4f4;opacity: 0.2"/>
      <path d="M1062.34827,870.618a116.24779,116.24779,0,0,0-4.46448-33.06c-2.8241-9.84753-11.799-41.1419-42.62354-61.35284-3.40966-2.23566-31.73419-20.38879-67.87585-15.21472-6.52509.93414-25.00806,3.5802-25.79559,10.12951-1.13453,9.43451,35.88122,15.0738,70.10785,37.20594,30.73687,19.87555,49.1311,46.52539,60.01928,66.48486Z" style="opacity: 0.2"/>
      <path d="M1656.82868,870.618a116.24779,116.24779,0,0,1,4.46448-33.06c2.8241-9.84753,11.799-41.1419,42.62353-61.35284,3.40967-2.23566,31.7342-20.38879,67.87586-15.21472,6.52508.93414,25.00806,3.5802,25.79559,10.12951,1.13452,9.43451-35.88122,15.0738-70.10785,37.20594-30.73687,19.87555-49.1311,46.52539-60.01928,66.48486Z" style="opacity: 0.2"/>
      <path d="M2049.80005,2576.417c-6.29443-32.74585,220.98071-46.57715,386.6831-202.74292,33.86231-31.91333,111.72-105.29,145.61792-221.66284,16.801-57.67871,25.76031-114.80242,33.482-114.46148,8.20044.36206,15.30524,77.58343,11.42194,141.20306-2.72022,44.56494-12.12136,131.89676-75.30837,230.5618-52.49268,81.96582-119.74131,119.20077-133.42246,127.98422-70.00659,44.94458-132.83936,55.4375-184.41772,64.051-30.971,5.17212-96.33472,13.4878-165.66724-12.98388C2054.30176,2583.06348,2050.54541,2580.29443,2049.80005,2576.417Z" style="opacity: 0.21"/>
      <path d="M2301.719,1732.191c2.23511-4.90906,40.44068,8.5636,43.68555,9.70789,41.13037,14.504,66.27417,37.83178,79.28076,50.15722,12.3899,11.741,18.58472,17.61145,17.39331,19.41577C2436.82153,1819.43384,2297.28076,1741.93872,2301.719,1732.191Z" style="fill: #f4f4f4;opacity: 0.2"/>
    </g>
  </g>
</svg>
