<svg id="Layer_3" data-name="Layer 3" xmlns="http://www.w3.org/2000/svg" viewBox="0 0 3000 3000">
  <title>Body</title>
  <g>
    <path d="M1352.61218,2124.91146q-260.05253-2.577-450.20032-180.04106c-6.44982-6.02254-8.56754-11.44327-6.325-20.39261,7.12953-28.45529,13.167-57.18423,19.59444-85.81464,1.56795-6.98481,3.84961-15.32846-5.59069-17.58157-9.69732-2.3145-11.17276,6.35459-12.48929,13.31042-12.30755,59.50263-20.46967,120.176-34.98557,179.06632-62.91031-63.18826-84.16242-150.91846-97.33638-236.20074.3169-102.37134-53.66558-9.40888-81.04822,23.68167-22.36546-71.79958-12.97006-150.52759,18.21628-218.96185,11.20248-23.01019,2.04732-45.60357.31714-67.87294-24.7955-319.14672,213.41428-624.20147,530.512-678.11324,440.92079-85.80278,838.835,305.38839,761.864,747.49483-7.13234,36.99032,16.63242,66.51458,19.16794,101.11289,1.96779,45.104,8.59416,91.958-2.79054,135.99312-17.89218-24.30288-34.6785-49.46717-63.77334-61.685-11.22825-4.93564-19.596-6.18763-19.33036,11.64522.22714,95.84894-41.43474,181.35554-110.50609,244.78439-4.85928-16.21285-17.61495-140.29051-37.70992-132.36723-6.77561,2.41472-4.59364,8.885-3.33563,14.28139,15.16064,65.03693,15.25258,65.17376-39.16334,104.15093C1622.60807,2083.84,1493.86309,2123.89025,1352.61218,2124.91146Z" style="fill: #97e197"/>
    <path d="M1684.38143,2840.42345c7.26263-2.51487,3.34833-7.90059,2.54025-11.8179-25.60881-124.15141-54.96711-247.676-75.602-372.64269-5.76191-136.52788-134.66262-253.03863-271.31889-204.13725-67.51922,21.97776-111.1994,68.47-124.39952,139.9279-27.56747,149.23413-54.15561,298.65184-82.65349,447.7061-1.385,7.24393-.33606,11.94867,1.94588,15.63059,2.63566,4.25265,6.91624,7.14079,10.99148,11.00087-73.32875,65.70241-249.60209,106.31278-330.83591,44.07605-21.81261-19.4721-19.80375-41.299-2.47942-62.35454,20.34377-24.72529,46.8176-41.8836,76.10333-53.61086,20.31244-8.13324,17.70191-25.81993,19.25437-40.25426,12.01957-111.76237-17.58931-214.75181-68.67964-312.83888-2.08336-3.99964-4.97251-9.91-10.39438-6.567-6.6078,4.07508-1.46375,9.90085.66307,14.48338,44.96378,101.841,78.16551,216.27624,48.8418,327.01992-209.21406-191.33433-175.3609-576.71182-79.21328-818.81383,18.15126,26.42237,32.55324,55.19348,59.45809,74.524,6.95481,5.29812,11.00679,6.30757,13.526-3.95242,5.54249-22.5733,11.77645-44.97677,17.72815-67.44938,248.19735,238.50295,642.18513,250.33595,902.20725,25.53049,6.25578,22.54089,7.72186,46.18592,14.36662,68.76921,69.79831-44.26084,106.1465-121.154,135.16067-195.56141,104.90146,249.491,143.3217,650.35861-16.84492,881.80173-26.94617-112.40113-14.75125-226.69124,54.48108-324.06288,3.46863-4.78288,5.9888-10.15512.08717-14.40088-6.50361-4.67892-11.07008.56309-14.861,4.985-76.62593,93.009-83.62477,221.5337-62.41225,335.31427,2.41411,12.62264,7.78377,19.40564,21.65155,23.43253,51.25048,13.51628,135.4298,74.025,79.67756,128.38484C1920.68039,2980.22226,1738.67417,2937.40054,1684.38143,2840.42345Z" style="fill: #97e197"/>
    <path d="M751.3648,1178.943c-17.24006,41.116-34.73356,82.12854-45.516,125.601-2.461,9.92236-8.19068,2.7752-11.42556.92827-19.42014-13.75154-37.705-26.09215-53.82407-42.73993-123.26062-127.30331-151.974-334.9996-125.86229-505.95992,2.73762-15.31874,7.77983-22.52184,24.01741-15.47995,22.44011,2.67645,59.64671,30.82787,48.85651-16.82224-3.06464-13.91958,4.50192-20.71721,20.2859-18.5665q203.26218,27.69547,362.86411,156.31459c20.93735,20.75387,38.306,41.26284.25828,61.91719-24.55472,13.72826-44.86156,35.05545-67.06539,52.98927C886.5489,910.984,769.85925,861.56781,711.78024,834.78211c-24.76326-10.92965-40.45308-2.91087-40.08346,24.13839,2.71033,46.07428-51.7178-28.77648-57.91449,30.64593-6.76248,100.49544,22.14807,206.947,90.74161,282.74377C715.87924,1183.96369,731.55128,1208.07984,751.3648,1178.943Z" style="fill: #97e197"/>
    <path d="M1796.56261,965.20693c-29.12639-21.06386-58.335-42.01527-87.32982-63.25856-8.89039-6.51364-1.56093-13.15437,1.77579-18.23416,20.62009-31.39169,51.48009-51.391,82.82861-69.764,91.50544-53.63022,187.55239-95.275,294.31041-108.06694,41.46951-3.95273,13.86077,30.39716,24.57175,43.62394,4.79918,4.69442,10.04176,2.73189,15.35578,1.01118,53.48837-17.32153,56.21867-17.56951,61.54243,37.7077,15.1841,166.6109-14.9181,345.82805-128.94759,471.02405-13.43458,14.75019-27.94952,26.14771-43.77991,39.37113-7.21244,6.31434-11.10106,5.27334-13.88242-4.97446a606.78985,606.78985,0,0,0-43.73511-115.00557c16.2167,1.44777,28.17014-7.48006,37.61919-18.35693,66.83006-76.9297,93.45262-168.81594,92.473-268.42134-.44807-45.5568-4.91156-45.64831-47.81522-30.66853-23.80122,10.62994,7.57435-63.89772-53.68075-38.61927C1921.4228,854.00057,1823.812,891.377,1796.56261,965.20693Z" style="fill: #97e197"/>
    <path d="M1796.56262,965.20691c27.15418-73.76837,124.9231-111.23578,191.3031-142.63721,61.322-25.26031,29.86231,49.34686,53.68238,38.62561,42.88319-14.973,47.36409-14.88925,47.816,30.59808a1.17364,1.17364,0,0,0,.00924.13652c3.4954,27.44939-1.65034,75.65349-15.62869,124.69312-1.65376,5.80182-4.49046,14.46005-7.682,23.54792-4.67442,13.31033-10.11,27.5423-13.70513,35.07149-37.84181,79.252-54.20513,91.05-73.54827,99.7751a36.92852,36.92852,0,0,1-13.35977,3.65662c-1.88035.09966-3.56677-.24811-5.32584.01238a1.39682,1.39682,0,0,1-1.28587-.83139c-46.49106-83.99444-96.24656-158.51085-159.93783-210.533-.05163-.04217-1.7771-1.72241-2.39-2.31378Z" style="fill: #caf0ca"/>
    <path d="M751.3648,1178.943c-19.81352,29.13685-35.48556,5.0207-46.83517-6.63456-68.60341-75.76849-97.50454-182.26416-90.75359-282.74153,6.24575-59.44681,60.627,15.45789,57.921-30.6452-.36983-27.05046,15.32-35.06924,40.07985-24.13729C769.90451,861.59056,886.443,910.90555,903.95371,977.1248c-61.02031,59.63958-113.05769,126.0878-152.7631,201.90439Z" style="fill: #caf0ca"/>
    <path d="M2061.55344,2736.37465c-34.063,0-63.40242-.21543-92.73505.13654-8.34049.09983-9.59693-1.40933-4.9401-8.6949,24.25571-37.94679,40.13091-79.56247,52.16023-122.7068,2.20693-7.91551,4.57249-9.58272,12.6845-6.60114,46.53842,17.10381,91.759,37.80078,140.72453,48.28451,53.60336,10.62949,53.758,76.30124-1.59215,85.124C2131.26353,2742.178,2093.73642,2731.69688,2061.55344,2736.37465Z" style="fill: #97e197"/>
    <path d="M2051.14034,2319.38236c-16.01022-116.19395-9.69775-124.24386,87.32042-189.269,1.815,25.85462-7.12482,51.87036-21.26277,73.73043-4.913,8.58455,2.243,15.09553,8.95032,6.97644,15.43476-12.70062,28.43121-28.98178,45.93172-38.8006,17.08776,52.9596-69.88294,213.66988-120.40779,237.21037" style="fill: #97e197"/>
    <path d="M747.01427,2788.2027c-51.294-2.98245-144.67908,18.977-142.22792-59.251,1.34318-14.39357,6.57307-24.67192,23.5242-30.42827,42.17318-14.32158,83.26635-31.88981,124.46322-48.95088,6.46137-2.67551,8.07931-2.17666,10.76364,3.76384,20.55095,47.93886,49.056,90.32709,83.79811,129.11116" style="fill: #97e197"/>
    <path d="M751.19061,1179.02919q1.44994-2.47714,2.90134-4.95573Q752.64264,1176.55017,751.19061,1179.02919Z" style="fill: #ff9333"/>
    <path d="M1796.50983,965.00842q1.26719,1.22826,2.53495,2.45664Q1797.77781,966.23682,1796.50983,965.00842Z" style="fill: #ff9333"/>
    <path d="M1798.89991,967.32221q1.30785,1.31043,2.61714,2.62229Q1800.20964,968.63472,1798.89991,967.32221Z" style="fill: #ff9333"/>
    <path d="M1380.93049,2863.58251c-77.17066-1.00916-147.37587-5.96346-217.17346-16.50084-8.5225-1.28683-12.07077-3.31233-10.38018-13.0815,26.351-152.27165,51.79606-304.70221,78.62516-456.88866,15.61373-88.568,130.59233-142.74974,226.75919-106.77337,71.449,26.72927,116.36369,75.54705,130.42409,153.67294,23.56181,130.92007,50.72567,261.19758,77.16951,391.5841,2.77362,13.67559-1.00328,17.4641-13.26753,20.18435C1561.23459,2856.1515,1467.8445,2860.47356,1380.93049,2863.58251Z" style="fill: #caf0ca"/>
    <path d="M2180.25781,2632.97021c-28.90136-8.56225-58.20093-17.56835-86.53418-26.27832-20.54931-6.31543-41.79638-12.84668-62.72876-19.15869-6.764-2.04-8.69629-3.97241-6.80883-11.3894,10.01477-39.35547,17.40771-82.51929,22.60327-131.95606l.02856-.272c.41089-3.92529.7356-7.02563,4.90772-10.04223,40.87915-29.54859,73.15625-66.085,95.93383-108.59473,21.47632-40.07959,35.23267-86.84522,40.88746-138.99561,1.33422-12.313-4.8147-24.56518-15.301-30.48706a6.7768,6.7768,0,0,0-3.3252-.96167c-3.55493,0-6.13769,3.34473-8.87085,6.88574-2.094,2.71143-4.26025,5.51563-6.896,6.78467a42.74649,42.74649,0,0,0-7.96094,5.46631c-.75024.60376-1.519,1.22095-2.29346,1.81885.646-4.82959,1.55-9.70264,2.42774-14.43018,2.86865-15.45923,5.83472-31.44507.04248-47.29223-1.28052-5.09571-4.58618-8.26148-8.62744-8.26148a9.83594,9.83594,0,0,0-7.0625,3.47559c-23.69654,28.5354-53.55127,51.67773-82.42407,74.05835l-.94776.73559c-13.84936-95.73339-29.65283-204.10412-80.29687-301.40234-17.42017-33.86621-22.12915-62.11938-15.22742-91.4773,21.96057,12.38416,35.33606,36.73487,42.70373,55.05567a52.64949,52.64949,0,0,1,1.7063,6.76526c1.60523,7.767,3.26441,15.799,14.40931,15.799l.46691-.00464c14.20057-.28455,17.62915-13.74732,19.89759-22.65588,18.76159-73.667,16.35766-146.95887-7.145-217.83985l-.358-1.07739c-4.05957-12.22815-7.56495-22.78906-5.08765-36.11182,14.4082-77.45691,14.967-151.41882,1.66382-219.83166-6.12036-31.4751-3.86231-51.30152,25.545-65.915l.07581-.03784.063-.05738c64.86157-60.37866,116.37084-151.12683,145.03686-255.5271,28.22095-102.77941,31.53027-207.53472,9.31372-294.98114-7.35156-26.55774-18.39087-38.40033-35.79516-38.40033-7.03248,0-15.03467,1.96729-24.42872,6.00275a19.80664,19.80664,0,0,1-6.38989,1.35626c-6.29468.00171-6.82837-6.23681-7.50317-14.13458-1.03369-12.09613-2.44971-28.66266-27.9729-28.66266a94.55767,94.55767,0,0,0-18.1731,2.06134c-108.56238,19.54065-303.43994,71.61542-389.69531,200.86139-117.92212-55.28009-232.99854-83.30707-342.04688-83.30707-113.52514,0-224.24414,30.34192-329.07183,90.17841-.60926.33221-1.22254.74353-1.8158,1.14111-1.2312.82447-2.50421,1.67755-3.55414,1.6781-.46008,0-1.86,0-3.0711-4.11694l-.01661-.05682-.02813-.05274c-35.96143-67.686-119.54853-115.85095-183.33728-144.33752-74.12256-33.1015-163.118-57.51868-232.23316-63.72a28.6554,28.6554,0,0,0-3.67578-.253c-13.58954,0-15.00775,11.38763-16.37891,22.4-1.27368,10.23163-2.47674,19.89581-13.32794,19.897-3.87481.00055-8.6745-1.175-14.66467-3.59088-6.44049-2.71539-12.32391-4.09228-17.48614-4.09228-13.47828,0-22.05237,9.01819-25.46772,26.74017-27.63684,88.78375-24.55945,208.98572,8.23163,321.54,16.4162,56.34717,40.00269,109.3645,68.20929,153.3208,30.64484,47.75342,66.1875,84.77734,105.714,110.08044,10.22931,4.69422,11.27917,8.88111,9.24078,19.08289a659.88248,659.88248,0,0,0-7.3045,211.60474c-21.89575,46.64282-34.76929,88.69238-39.35724,128.54492-5.26727,45.76037.11414,89.2937,16.46729,133.12182,4.32519,9.58789,9.35553,14.24878,15.37951,14.24878,11.85687,0,24.92835-18.55383,37.56952-36.49731,9.11-12.9314,17.73059-25.1676,25.14356-29.43482,8.04058,51.78907,18.66516,106.69556,41.46337,157.67225,1.37287,3.20813,2.03034,8.14209.63855,11.34924-51.633,109.61352-79.70019,227.78223-83.42358,351.22-3.34759,110.96973,12.90454,229.64453,48.30719,352.74951-38.38653,12.31738-79.37945,25.96851-125.29541,41.727-16.93768,5.813-29.04535,16.10987-35.012,29.77686-6.001,13.74389-5.3017,29.75171,2.02234,46.29053,12.65149,28.56982,36.31427,43.93261,68.41754,44.43066,9.826.38672,20.271.575,31.9317.575,15.807,0,31.89557-.34985,47.45465-.68848,15.54187-.33862,31.61267-.68847,47.384-.68847,19.16718,0,35.20185.5061,50.2779,1.58813-37.923,25.00342-57.52271,59.042-51.21936,89.15039,5.98095,28.56739,33.97357,48.92261,76.78283,55.844a327.18444,327.18444,0,0,0,61.78138,5.56958c42.82019,0,87.13549-7.44922,124.78308-20.9751,42.47717-15.26074,76.44323-38.05884,98.24084-65.93652l7.82422-2.022c85.83545,10.71582,161.48755,15.92408,231.27686,15.92408,104.63134,0,196.17407-11.53638,279.82592-35.2649,9.74744,33.7605,37.047,61.91382,78.98767,81.44532,37.2179,17.33178,83.84583,26.87719,131.29407,26.87841h.00342c35.01367,0,67.59033-5.22314,94.20251-15.10254,28.463-10.56762,48.7013-26.11767,58.53016-44.97094,13.38244-25.67261,7.9104-56.24-16.30945-90.90479-17.691-19.957-41.46338-31.22363-64.561-42.0061,44.24353-4.35327,90.03162-4.94654,134.3324-5.519,23.77832-.3086,48.36645-.62647,72.352-1.52393,20.67432-.0376,39.28687-6.19946,53.8269-17.82178,13.387-10.6997,21.89624-24.96216,23.95948-40.15967C2236.40356,2673.84033,2224.08472,2645.18115,2180.25781,2632.97021Zm-126.61841-428.1687c11.13916-23.75634,36.60059-41.6643,84.3-73.63256,1.38037,23.36621-6.14087,49.01684-21.25366,72.38183-1.91968,3.36548-2.24438,6.78809-.86743,9.15869a4.67641,4.67641,0,0,0,4.1272,2.40039c2.20776,0,4.57153-1.39062,6.57495-3.83691,5.488-4.51514,10.7478-9.55811,15.83545-14.43457,9.05908-8.68482,18.4209-17.66016,29.37988-23.948,8.62744,28.67432-12.40942,85.1333-35.11914,128.65845-27.55908,52.81958-61.34961,95.51758-84.4231,106.78418-1.48364-19.66577-1.2976-39.72632-1.11767-59.136.09546-10.28906.19409-20.92334.0437-31.3855m116.57959,413.541c-11.363,3.1853-23.84693,4.66894-39.28662,4.66894-8.10547,0-16.219-.39233-24.06616-.77221-7.82105-.37866-15.20679-.73657-22.56519-.73657a140.25147,140.25147,0,0,0-20.228,1.27465c-9.65454,0-18.9303-.01709-27.93408-.03442-8.491-.01489-16.741-.03076-24.83716-.03076-16.01806,0-28.34607.06177-39.9707.20166l-.72168.00488c-3.73706,0-5.63037-.41553-6.13989-1.34619-.54273-.989.20544-2.97852,2.42334-6.44971,21.75183-34.02905,38.34814-73.07031,52.231-122.865,1.57532-5.65112,3.12671-7.55688,6.14551-7.55688a17.60585,17.60585,0,0,1,5.77039,1.34936c12.10876,4.44971,24.33117,9.22193,36.152,13.83789,33.6206,13.12891,68.38525,26.7041,104.65893,34.46973,27.80542,5.52026,39.91773,25.56714,39.58618,42.98608C2208.614,2706.28369,2197.655,2726.57593,2167.69922,2731.35254Zm-280.60059,206.67212c-67.3001.00569-139.89876-22.09605-180.6509-66.90561-8.195-9.01093-11.604-26.73554-17.27537-36.79874a21.10246,21.10246,0,0,0-.942-3.37231,21.52544,21.52544,0,0,1-.73328-2.46021c-7.70605-37.35888-15.886-75.28466-23.79639-111.96093-18.37719-85.20337-37.37964-173.30713-51.80053-260.58374-2.33619-55.46778-25.72876-110.58082-64.18238-151.20533-39.58386-41.81933-90.59619-64.85034-143.63818-64.85034A190.62079,190.62079,0,0,0,1339.825,2251.262c-34.11743,11.10694-61.98511,28.4607-82.8291,51.57788-21.33691,23.66553-35.45837,53.54444-41.97229,88.80713-9.34168,50.57178-18.726,102.01074-27.80042,151.75513-17.70483,97.05029-36.012,197.40527-54.85266,295.94727-1.89831,9.93554.83069,15.02783,3.91736,18.61938-52.42993,46.53027-145.11664,80.26221-220.67975,80.26709-41.10193.00342-75.81036-9.9209-100.34-28.6709-20.01227-17.85742-20.8487-39.13623-2.41822-61.53638,18.77533-22.81762,44.301-40.79785,75.86835-53.439,17.47931-6.99829,18.33814-21.23657,19.09546-33.79761.14569-2.41406.28284-4.69385.525-6.93847,10.86841-101.06153-11.61828-203.50147-68.74341-313.17359l-.15606-.29956c-1.65973-3.19433-3.9328-7.56836-7.71124-7.56836a6.44267,6.44267,0,0,0-3.35627,1.073c-5.91382,3.64648-3.11865,8.68359-.87317,12.73071.48768.87769.94721,1.70606,1.31153,2.48975,36.2041,82.02954,80.62152,204.93359,49.05469,325.69214-93.89435-86.27954-146.87159-220.89649-153.20594-389.36743-5.22021-138.82447,21.91065-294.428,74.4524-427.1128,3.78021,5.5409,7.452,11.25049,11.00958,16.78345,13.22809,20.57092,26.90655,41.843,47.952,56.965,3.759,2.864,6.11408,4.03088,8.13007,4.03088,2.9621,0,4.91217-2.56323,6.32294-8.31079,3.93506-16.02612,8.29126-32.23572,12.50348-47.91187q2.49388-9.27868,4.96722-18.563a664.67854,664.67854,0,0,0,217.77783,139.34667,675.61367,675.61367,0,0,0,248.17542,46.9148c160.67859,0,315.3457-57.09692,435.62109-160.79321,2.864,10.55163,4.74121,21.51758,6.55884,32.13244,2.02051,11.80237,4.10889,24.00647,7.56494,35.75037l.22021.74707.65748-.41772c68.51281-43.43824,105.36352-119.04432,134.865-194.491,107.9165,258.05469,138.6228,652.8999-16.59864,878.81543-28.55371-120.39942-9.65112-231.82373,54.69544-322.2981,1.99194-2.74927,4.20642-6.35571,3.64074-9.86206a8.29911,8.29911,0,0,0-3.69018-5.36084,9.17561,9.17561,0,0,0-5.33423-1.94263c-4.2937,0-7.63391,3.89332-10.32568,7.03028-35.7229,43.36816-58.60816,97.2522-68.02051,160.15771-8.05274,53.813-6.20532,112.9065,5.48926,175.64209,2.57824,13.49024,8.55737,19.96509,22.07763,23.89038,32.74854,8.62647,85.91114,39.25122,96.012,77.58887,4.67675,17.75415-.9065,34.51367-16.60913,49.82593C1974.95581,2922.79248,1934.95654,2938.02,1887.09863,2938.02466ZM1153.95581,2834.1001c10.42676-60.249,20.88318-121.53076,30.99487-180.79639,15.44556-90.51929,31.41651-184.1206,47.63013-276.09009,11.81274-67.012,81.94116-117.54467,163.12329-117.54467a178.70624,178.70624,0,0,1,62.85181,11.21972c73.93323,27.65747,116.4729,77.7793,130.05151,153.227,19.652,109.197,42.17932,219.75952,63.96558,326.68116q6.61248,32.45727,13.20556,64.91552c2.74366,13.52588-.97412,16.86621-12.819,19.49365-89.65637,19.885-179.84509,24.49073-272.02185,27.78833-80.543-1.052-149.52612-6.2937-217.09277-16.49292-4.45605-.67358-7.52881-1.5227-9.07739-3.66943C1153.4895,2841.05908,1153.23181,2838.28564,1153.95581,2834.1001ZM605.37073,2729.0083c1.51172-16.19238,8.21271-24.8623,23.12866-29.92822,36.7279-12.47241,73.20917-27.64478,108.48962-42.3169q8.005-3.32884,16.00946-6.64819a15.05,15.05,0,0,1,5.27985-1.50659c1.87665,0,3.0246,1.207,4.72107,4.958,19.56305,45.63086,46.74725,87.6311,83.08624,128.36474l-99.03717,5.68555c-3.53174-.20654-7.44732-.3064-11.97162-.3064-6.95111,0-14.27343.23291-22.02545.47974-8.10254.25806-16.48047.52539-24.79242.52539-25.56689,0-53.86468-2.227-69.89367-18.75464C609.07922,2759.98535,604.82916,2746.7085,605.37073,2729.0083ZM750.30719,1729.95c-13.807,0-33.70105,26.88989-51.25323,50.614-5.26435,7.114-10.2511,13.85523-14.5832,19.15857-20.93072-68.41064-14.368-145.60595,18.50971-217.48864,8.30963-17.07495,5.50305-34.03492,2.78937-50.43628-.965-5.82886-1.96265-11.85742-2.41932-17.73926-24.836-319.66162,212.93171-623.57733,530.03815-677.48108a643.51983,643.51983,0,0,1,122.59326-11.89593c189.53736,0,370.04,85.35351,495.2229,234.17572,123.52381,146.84753,175.77527,338.02746,143.35816,524.50927-4.25928,22.09363,2.51172,41.79724,9.059,60.85254,4.46228,12.98767,9.07605,26.41712,10.10315,40.4054.397,9.30224,1.00732,18.85229,1.59826,28.08667,2.265,35.41528,4.60694,72.0216-4.06762,106.53271q-1.59375-2.17035-3.18067-4.34521c-16.21887-22.19361-32.98962-45.14209-60.09289-56.53028-3.42847-1.50659-7.81739-3.23462-11.36646-3.23462a7.303,7.303,0,0,0-5.495,2.09522c-2.31433,2.35-3.39063,6.7113-3.2909,13.32617.21119,91.73328-38.70605,178.24-109.6123,243.697-1.16577-4.52307-2.76416-14.55847-4.75024-27.0332-8.4784-53.2395-17.88624-105.21667-31.39136-105.21667a5.50357,5.50357,0,0,0-2.07691.41662c-6.75244,2.40381-5.23095,8.67444-4.00781,13.71277l.343,1.43542c15.068,64.64478,15.068,64.64478-38.97681,103.35779-112.89868,80.86707-242.34668,122.36951-384.73755,123.35388-172.45739-1.66381-323.79419-62.16967-449.80725-179.837-6.57074-6.13635-8.23913-11.50745-6.15594-19.82178,5.25287-20.9646,9.99-42.42712,14.57171-63.18408q2.49912-11.32507,5.02631-22.64441l.18011-.79639c1.533-6.764,3.44056-15.18261-6.20758-17.48437a13.53887,13.53887,0,0,0-3.11352-.3982c-7.41467,0-8.86267,7.67627-10.02619,13.84473l-.05969.31568c-4.86389,23.51184-9.15014,47.59863-13.29577,70.89245-6.28614,35.32459-12.78461,71.84033-21.43732,107.13513-62.60584-63.39062-83.35413-150.45385-96.42505-235.04089.07117-23.94226-2.74921-38.44568-8.624-44.33765A9.53281,9.53281,0,0,0,750.30719,1729.95ZM528.13812,739.16888c2.85364,0,6.24945.87146,10.38245,2.66431l.07806.03388.08545.01031c5.67749.68384,12.418,3.047,18.936,5.33325,7.84838,2.75153,15.26074,5.351,21.16253,5.351,3.89777,0,6.709-1.14686,8.59363-3.50483,3.3551-4.199,3.619-12.28375.80835-24.7138-1.3-5.90467-.68384-10.48578,1.83191-13.61536,2.46808-3.0711,6.67-4.62817,12.48968-4.62817a39.67144,39.67144,0,0,1,5.31031.385c140.40411,19.5733,263.78271,73.52008,366.66375,160.30273,12.10016,12.54193,19.8476,23.00128,18.32782,33.2851-1.21569,8.22241-8.43646,15.92627-22.07531,23.5509-17.03009,9.52075-32.249,22.88367-46.96759,35.80713-6.5564,5.7572-13.33594,11.71-20.22162,17.275-64.86737,63.39862-114.87274,129.49042-152.87317,202.05121l-.83881,1.60242.38153-.18933-1.30059,3.09985c-16.34107,38.94824-33.23865,79.22168-43.63373,121.13355-1.16632,4.69995-2.89783,4.69995-3.46637,4.69995-1.54041,0-3.36426-1.3999-4.973-2.63562a20.50224,20.50224,0,0,0-2.12445-1.5055c-46.42823-26.51-82.5951-67.58215-113.81885-129.25732-68.79328-135.88794-90.8537-276.80438-65.569-418.83612C517.56512,744.29669,521.27649,739.16888,528.13812,739.16888ZM1709.78247,886.44379c.62183-.83991,1.20935-1.63282,1.71765-2.40729,20.84412-31.73438,52.25257-51.77356,82.72254-69.64014C1816.51587,795.33594,2009.6012,706.259,2082.45581,706.259c13.34009,0,22.24854,2.87836,26.47925,8.55408,3.38232,4.541,3.85058,11.025,1.394,19.26068-1.88428,5.81519-1.48242,11.18738,1.10034,14.73926a10.49468,10.49468,0,0,0,8.78467,4.17493,19.89366,19.89366,0,0,0,8.04224-1.91108c20.20752-6.54376,32.04638-10.24652,40.39282-10.24652,14.58618,0,16.9292,11.59247,20.38306,47.45178,17.90185,185.88752-22.9419,338.57947-124.86646,466.80018-9.2102,11.58789-21.2124,21.32141-32.8186,30.73486-4.93164,3.99878-10.03076,8.13525-14.85,12.35889-2.90637,2.54846-5.1737,3.78662-6.93152,3.78662-2.51867,0-4.42224-2.6908-5.98962-8.46924-31.17322-115.7815-101.80994-228.71631-204.27039-326.59619l-3.90918-3.78424.1731.65179q-11.48676-8.30622-22.98743-16.59808c-20.68579-14.92633-42.076-30.36029-63.00171-45.6922-2.35107-1.72229-3.63732-3.51-3.93444-5.46576C1705.14575,892.70758,1707.60913,889.38,1709.78247,886.44379Z" style="fill: #010100"/>
    <g>
      <path d="M1935.724,2884.43266c-2.34081,9.97489.38365,32.62072-15.89126,29.21171-18.93289-5.10071,14.987-47.06323-27.95558-83.69621-3.72873-3.37152-6.63561-7.33634-3.02275-12.18126,3.91108-5.24515,8.97144-3.69547,13.58349-.79188C1927.18328,2832.55353,1933.04373,2857.41633,1935.724,2884.43266Z" style="fill: #010000"/>
      <path d="M871.43524,2882.79807c-1.475-25.86546,12.71378-42.12286,33.30919-54.27481,4.82912-2.84947,10.50233-3.69891,14.2865,1.48366,8.5016,15.94768-50.63183,29.48073-22.7835,74.48976C897.55043,2919.9969,869.23,2917.12571,871.43524,2882.79807Z" style="fill: #010000"/>
      <path d="M981.34952,2880.20063c1.53637-21.82832,2.757-41.68182,27.62764-47.00415,5.03776-1.07813,10.19019-.75436,12.45983,4.803,2.91523,15.48325-26.1334,6.291-17.965,50.66046.91026,7.0893,9.55129,15.81728-1.99383,19.57748C986.02981,2912.9306,982.63348,2890.04634,981.34952,2880.20063Z" style="fill: #010000"/>
      <path d="M1833.42893,2889.06822c-.85944,10.792.85569,20.4083-7.28867,27.49758-7.22192,3.3643-12.60461-6.30863-10.99283-12.33529,14.10492-44.55176-29.2215-63.94592-18.42812-74.77913,4.43158-4.6,9.33439-2.0379,13.0468,1.27854C1827.60428,2846.667,1831.62192,2868.17054,1833.42893,2889.06822Z" style="fill: #020100"/>
      <path d="M2047.0189,2705.22739c2.04344,10.31415-4.80776,23.42637-16.59425,16.673-7.128-5.42567-.83929-11.07592.14313-17.0581,4.84012-28.695-25.02357-36.28719-18.87618-43.81815,3.22358-4.93858,8.51583-3.96,12.56627-1.31041C2040.58853,2670.39653,2047.0401,2686.259,2047.0189,2705.22739Z" style="fill: #020100"/>
      <path d="M2119.95917,2698.18011c2.70222,8.77293-17.31294,31.21749-18.57381,10.878,13.42229-22.51193-20.83088-38.294-11.20033-48.12691C2105.995,2648.8994,2120.97362,2682.92957,2119.95917,2698.18011Z" style="fill: #010100"/>
      <path d="M667.444,2754.25176c1.4177-20.41111,8.216-36.1434,25.06461-46.0708,4.71787-2.77973,10.36035-4.09757,14.3782,1.01942,4.10605,5.22954.39494,9.72864-3.24009,13.313-27.31089,23.61751-6.43962,54.49688-24.75819,53.30222C665.46128,2773.66664,670.23654,2761.03126,667.444,2754.25176Z" style="fill: #010000"/>
      <path d="M746.46781,2748.09029c-2.39848-15.07652,19.13249-53.08879,32.8599-41.79967,9.476,9.47258-23.469,23.13121-11.19835,53.51282,4.54341,14.08469-16.97523,16.14886-18.77948,2.62419C747.69008,2756.8817,747.0337,2751.03513,746.46781,2748.09029Z" style="fill: #010000"/>
    </g>
    <g id="Shading">
      <g>
        <path d="M768.75545,1245.87723c18.36647-49.01333,54.89205-128.05348,125.8288-204.31944a598.6457,598.6457,0,0,1,187.08756-135.05861,582.14994,582.14994,0,0,1,183.77627-50.2141h23.179c-4.90265,1.50684-12.42317,3.86612-21.52334,6.92608-62.06273,20.8685-181.19176,62.26668-289.73737,164.49446-62.40308,58.77109-102.15789,119.61126-125.8288,155.83686-29.08167,44.50634-41.05314,68.51893-41.39106,69.26083a80.51924,80.51924,0,0,1-8.27821,13.85216c-2.82542,3.82406-5.45763,7.32557-9.93385,10.38913-4.00976,2.74418-7.96576,5.6416-13.24514,5.19456-6.74464-.57111-10.97873-6.10323-11.58949-6.92608C761.73878,1268.089,762.32448,1256.25515,768.75545,1245.87723Z" style="fill: #f4f4f4;opacity: 0.2"/>
        <path d="M1135.66068,2848.28508c45.06946,7.02441,82.84156,10.81567,110,13,178.1482,14.32861,314.595-7.10083,373-18,22.60218-4.218,41.03479-8.26172,53-11l-12-65a1420.74377,1420.74377,0,0,1-516,14Z" style="opacity: 0.21"/>
        <path d="M1604.66068,1721.28508a469.6437,469.6437,0,0,1-452-6l1-22a469.6437,469.6437,0,0,0,452,6Z" style="opacity: 0.2"/>
        <path d="M1786.69517,1986.67676c-39.52173,36.44855-196.23958,171.44375-433.39656,175.51452-270.24434,4.63891-444.35739-164.19221-476.63793-196.6973l2.94828-24.2089c32.28054,32.5051,206.39359,201.33621,476.63793,196.69731,237.157-4.07078,392.89207-139.066,432.41379-175.51452Z" style="opacity: 0.2"/>
      </g>
      <g>
        <path d="M617.73753,865.45781a76.35253,76.35253,0,0,0-20.93079,25.98456c-5.819,12.03869-7.73584,24.42352-5.93256,52.31463a494.57,494.57,0,0,0,10.2472,73.88764c5.3197,23.69745,9.83123,43.7951,21.03369,69.03375,2.369,5.33728,12.19855,21.70984,31.82025,54.4718A355.40762,355.40762,0,0,0,694.964,1194.948c5.04547,5.36035,13.34564,13.72779,25.07867,14.15723a29.16708,29.16708,0,0,0,14.73682-3.64063l12.09424-29.00988a29.46316,29.46316,0,0,1-4.56214,5.87268c-1.73248,1.72448-6.1662,6.13781-11.75207,7.05871-6.69013,1.10291-12.84229-3.95215-18.243-8.95312a209.33352,209.33352,0,0,1-29.86206-34.577c-12.06464-17.6914-18.097-26.53723-23.0008-35.11108a367.78664,367.78664,0,0,1-25.06634-54.03516A447.44364,447.44364,0,0,1,611.135,951.89122a388.819,388.819,0,0,1-1.54395-47.16394,139.765,139.765,0,0,1,1.596-24.20661,29.78574,29.78574,0,0,1,6.55048-15.06286Z" style="fill: #f4f4f4;opacity: 0.2"/>
        <path d="M646.41343,866.99827c.09882-.33886,4.16272,1.50251,9.854,1.05085,2.27668-.18067,7.18677-.57032,9.9101-3.97754,2.00793-2.51221,1.95441-5.57306,2.27722-5.51245.32025.06012.08533,3.019-.52624,5.69268a10.16121,10.16121,0,0,1-1.47461,3.85962,7.08662,7.08662,0,0,1-2.839,2.42987,8.2988,8.2988,0,0,1-3.79114.557,16.89433,16.89433,0,0,1-5.03565-.99371C649.3538,868.29381,646.32951,867.28605,646.41343,866.99827Z" style="fill: #f4f4f4;opacity: 0.2"/>
      </g>
      <g>
        <path d="M2077.69447,851.514a76.35241,76.35241,0,0,1,20.93078,25.98456c5.819,12.03869,7.73584,24.42352,5.93256,52.31463a494.57051,494.57051,0,0,1-10.24719,73.88764c-5.3197,23.69745-9.83124,43.7951-21.03369,69.03375-2.369,5.33728-12.19855,21.70984-31.82025,54.4718a355.40841,355.40841,0,0,1-40.98871,53.79785c-5.04547,5.36035-13.34565,13.72779-25.07868,14.15723-6.30908.231-8.487-2.62978-11.72861-4.35952l-7.17977-15.26966c.90436,1.52759-5.56189-9.33994-3.36054-7.14865,1.73248,1.72448,6.1662,6.13781,11.75208,7.05871,6.69012,1.10291,12.84228-3.95215,18.243-8.95312a209.334,209.334,0,0,0,29.86206-34.577c12.06463-17.69141,18.097-26.53723,23.00079-35.11108a367.7874,367.7874,0,0,0,25.06635-54.03516A447.44364,447.44364,0,0,0,2084.297,937.9474a388.81588,388.81588,0,0,0,1.54394-47.16394,139.765,139.765,0,0,0-1.596-24.20661,29.78558,29.78558,0,0,0-6.55047-15.06286Z" style="fill: #f4f4f4;opacity: 0.2"/>
        <path d="M2049.77027,853.21766c-.09882-.33886-4.16442,3.05227-9.85571,2.60061-2.27667-.18067-7.18677-.57032-9.91009-3.97754-2.00794-2.51221-1.95441-5.57306-2.27723-5.51245-.32025.06012-.08532,3.019.52625,5.69268a10.16121,10.16121,0,0,0,1.47461,3.85962,7.08662,7.08662,0,0,0,2.83905,2.42987,8.29873,8.29873,0,0,0,3.79114.557,16.89432,16.89432,0,0,0,5.03564-.99371C2046.8282,856.063,2049.85419,853.50544,2049.77027,853.21766Z" style="fill: #f4f4f4;opacity: 0.2"/>
      </g>
      <path d="M639.9528,731.86937A704.83381,704.83381,0,0,1,922.69437,848.36375" style="fill: #f4f4f4;opacity: 0.2"/>
      <path d="M1778.627,868.993c60.21265-51.3385,142.47083-103.8493,247.55054-128.62921q18.516-4.36642,36.40454-7.28094" style="fill: #f4f4f4;opacity: 0.2"/>
      <path d="M2048.85429,2404.61809a140.03907,140.03907,0,0,0,14.60742-10.033c16.84228-13.21167,26.53076-27.09986,34.53247-39.1687,19.92212-30.04834,35.57129-53.65162,51.67895-90.72022,0,0,9.35865-21.53686,18.28614-57.98486a76.45389,76.45389,0,0,0,2.05151-29.25293,70.653,70.653,0,0,0-1.61426-8.283,74.64829,74.64829,0,0,0-18.76074,14.00684c-21.59424,22.32128-10.30005,44.11767-29.23364,81.92309-10.80152,21.56787-20.76856,41.00855-41.52808,59.865-13.19824,11.98828-21.7341,20.124-31.146,24.80908Z" style="opacity: 0.2"/>
    </g>
  </g>
</svg>
