<svg id="Layer_11" data-name="Layer 11" xmlns="http://www.w3.org/2000/svg" viewBox="0 0 3000 3000">
  <title>6</title>
  <g>
    <path d="M2804.01733,2155.658a618.61962,618.61962,0,0,0-85.58667-168.69788c-37.99829-52.63708-82.40551-95.83215-131.988-128.38537-4.74585-3.11548-8.85669-7.12354-12.83106-11.00049-7.71191-7.51965-15.686-15.29529-28.89941-17.46008a152.73217,152.73217,0,0,0-24.62476-1.99353c-38.48657,0-77.63061,14.44287-110.22314,40.6687a202.85478,202.85478,0,0,0-68.37964,105.26147c-22.28223,83.91821-5.70654,164.84375,50.67358,247.40137a39.09914,39.09914,0,0,1,3.09009,5.88769c.35254.7732.7041,1.54737,1.073,2.3086-.36524.062-.73047.12744-1.09473.19409a27.86027,27.86027,0,0,1-3.61548.491c-68.26489,3.10546-132.05737,20.53369-189.60522,51.8-54.0415,29.36207-104.561,72.0271-150.15674,126.81177-1.11182,1.33594-2.35229,2.6145-3.55176,3.8523-.33508.34594-.67114.69214-1.00439,1.04-.05567-.55835-.1167-1.11646-.17774-1.67481a54.62134,54.62134,0,0,1-.42163-5.76391c-.03906-26.53443-.03637-53.51319-.03271-79.60425l.001-20.85059c1.019-77.69531-5.91517-157.65649-20.053-231.239-14.31006-74.47962-35.71985-140.80835-61.91553-191.81445-12.01953-23.4043-23.42883-51.966-16.91541-86.34974.27771-1.46618.64112-2.94885.99256-4.38147.12207-.499.24512-.998.36352-1.49719.48633.21033.98621.40247,1.47254.59021a11.69465,11.69465,0,0,1,3.7821,1.98438c19.53565,17.94824,31.4978,35.02771,37.646,53.74914a59.11959,59.11959,0,0,1,1.47534,5.86768c1.57837,7.30481,3.20947,14.8573,13.48486,15.31262.32886.01465.65039.022.96729.022,11.90564-.001,16.1687-9.81665,19.00195-20.42456,19.28687-72.19824,17.1814-146.25256-6.25757-220.10742a42.13131,42.13131,0,0,0-3.54626-7.57434c-2.75037-4.97791-5.34766-9.67908-4.06091-16.73608,17.3518-95.12684,16.23254-187.5199-3.32947-274.61426-19.52747-86.94129-57.96485-170.97791-114.24573-249.77515-4.87048-6.81848-6.73926-12.4845-6.24829-18.945,6.61438-87.07293,52.90747-155.38385,145.68787-214.97741a24.77454,24.77454,0,0,1,13.9757-4.06409,42.81436,42.81436,0,0,1,7.89405.82013l6.14184,1.1543c31.71729,5.97107,64.51465,12.1452,97.292,12.14477a236.47408,236.47408,0,0,0,30.00318-1.85193c23.39258-3.00579,47.12207-8.2091,57.76709-35.32049,2.2478-5.72333,4.42163-13.99439-2.60987-19.72821-2.13037-1.73627-6.68286-2.81049-9.67993-2.81049-1.68847,0-2.78882.3197-3.26782.94989-4.18555,5.50159-8.9668,8.06391-15.04932,8.06391-4.56347,0-9.28027-1.44989-13.84008-2.85285-1.52906-.46991-3.11011-.95624-4.64014-1.371-89.66382-24.33417-176.59363-63.03015-265.75476-118.29926-29.91223-18.54162-60.51941-27.94287-90.97254-27.94287-50.23754,0-95.66821,26.29218-127.92272,74.03382-27.96521,41.3908-41.3617,88.54779-40.95374,144.16613.03564,4.86866-.21118,8.38355-1.53,9.7118a2.4143,2.4143,0,0,1-1.83325.67028c-1.89429,0-4.79114-1.229-8.55884-3.07409-101.50574-49.71332-204.30469-74.92035-305.54-74.92035-103.26892,0-207.73,26.22882-310.48169,77.95758-4.70654,2.3692-8.08056,3.4256-10.94018,3.4256-5.00708,0-8.58081-3.39008-13.06055-9.2464-44.96808-58.78174-96.24-108.30286-152.39258-147.18787C811.16766,689.408,746.50189,659.499,676.808,640.56714c-24.19116-6.57166-47.68927-9.9035-69.84222-9.9035a209.60541,209.60541,0,0,0-65.28784,10.24c-4.2685,1.3966-8.54517,3.04632-9.84479,6.47467-.84509,2.23034-.32507,4.90283,1.58923,8.17,26.70563,45.56915,43.94989,98.30694,55.91205,170.997q.83056,5.04758,1.69025,10.11065c7.25836,43.05652,14.76263,87.5788-6.486,130.51825a10.141,10.141,0,0,0,.12841,10.01282,9.76289,9.76289,0,0,0,8.42676,4.47022,12.66006,12.66006,0,0,0,3.63556-.5528,54.44934,54.44934,0,0,1,15.48749-2.55047c19.96,0,29.10626,15.08178,36.69885,37.72747.51276,1.53095.908,3.16565,1.28955,4.74665,1.32422,5.47924,2.69208,11.14477,9.18085,14.16113a87.62851,87.62851,0,0,1,46.74853,54.79272c6.926,23.36194,3.73389,48.20557-8.7583,68.16016-8.20459,13.10522-8.2492,24.19165-8.302,37.02856l-.00818,1.84644c-.24133,43.26514-2.15655,85.10352-22.66662,121.36572-11.71906,20.72217-6.52979,29.33985,9.536,40.81787,13.35553,9.54151,18.573,21.0105,16.42,36.09412-7.23828,50.72009-7.33752,103.75757-.30322,162.1449.683,5.65735.1994,10.05334-1.39795,12.71167-43.44263,72.32214-50.966,152.60742-22.99811,245.44433,3.45062,11.45484,9.36389,17.76331,16.64954,17.76331,6.30212,0,13.19256-4.58264,19.92816-13.25354,5.905-7.60083,11.85742-15.36817,17.614-22.87976,6.35675-8.2948,12.92932-16.87171,19.46186-25.254a18.44778,18.44778,0,0,1,3.97888-3.41687c.50818-.35974,1.02911-.72949,1.53454-1.11292.2049.58643.429,1.17029.64661,1.73951a20.81561,20.81561,0,0,1,1.45075,4.96057,538.89528,538.89528,0,0,0,40.11584,152.11853,14.39235,14.39235,0,0,1-.14575,10.30371c-50.10626,114.5498-78.402,229.9458-84.10211,342.9812-5.86774,116.37573,12.03045,233.82813,53.199,349.0957.96082,2.69019,1.326,4.15625.80689,5.21094-.48358.98193-1.79956,1.74316-4.54535,2.6311-41.40265,13.38648-84.21509,27.22925-126.19422,42.22681-16.30713,5.82495-27.92321,15.93018-33.59332,29.2229-5.813,13.62964-4.9834,29.54151,2.40064,46.01538,12.61059,28.13526,36.17608,43.30225,68.14837,43.8606,12.93207.22583,26.6.3352,41.787.3352,21.98267,0,44.33874-.23315,65.959-.46,16.00025-.16675,32.54511-.33984,48.81488-.417l.85608-.00195c4.4151,0,8.90766.16015,13.25354.31591,1.78681.064,3.57453.12842,5.36225.1814q-1.90971,1.71717-3.8122,3.44165c-3.32959,3.01074-6.772,6.12451-10.22,9.11157-23.27954,20.16578-45.31506,42.72486-37.02673,77.03394,7.9751,33.01245,36.43567,45.10107,66.00366,53.24829a256.34132,256.34132,0,0,0,68.07184,8.92944,311.34248,311.34248,0,0,0,37.615-2.35766c77.72266-9.50318,132.0874-30.5188,176.27417-68.14112,2.50891-2.13647,4.04443-5.27929,5.52881-8.31835,2.82959-5.79126,5.50171-11.261,14.36462-11.261a25.85568,25.85568,0,0,1,3.49719.25513,1549.33444,1549.33444,0,0,0,209.8938,14.67065,1379.44437,1379.44437,0,0,0,291.99695-30.9187l.90149-.20044a17.31431,17.31431,0,0,1,3.48438-.56445c1.32885,0,2.755.33593,2.85974,4.35669.41613,15.96557,10.61609,26.86792,19.61572,36.48657,38.27527,40.91113,110.98816,67.34253,185.24451,67.33789,45.4508-.00366,86.623-10.19531,115.93237-28.69727,26.07727-16.46191,41.41186-39.11328,43.17944-63.77978,1.744-24.35327-9.9768-48.58081-33.005-68.22022-9.6261-8.20923-21.02283-14.63427-32.04334-20.8479-4.7174-2.65942-9.59424-5.40869-14.25891-8.25757a84.17426,84.17426,0,0,0-7.49963-3.90966c-.72779-.34864-1.45447-.69654-2.17847-1.05078.8916-.14307,1.78223-.29688,2.67383-.45167a64.77251,64.77251,0,0,1,8.842-1.11376q9.10363-.29372,18.207-.59668c27.32483-.90235,55.58057-1.835,83.37622-2.2876,8.64258-.14112,17.80982-1.02,26.67554-1.87061,9.74-.9353,19.81079-1.90161,29.27856-1.90161,12.981,0,22.86768,1.79761,31.11426,5.65918,49.83838,23.33325,89.62842,34.83374,129.01563,37.28613,22.78759,1.41993,40.2041,2.05274,56.47387,2.05274,42.82349-.00073,76.802-4.67017,106.9336-14.69336,36.73535-12.2207,67.32324-32.41577,93.51172-61.73877,1.438-1.61108,5.16723-1.86963,7.16992-2.00806,63.71606-4.407,118.53613-24.07544,162.93677-58.45752,42.42431-32.85009,76.34838-79.91284,100.83007-139.88037,21.68018-53.10425,32.55957-112.28955,32.33741-175.9126C2834.62549,2279.10278,2824.25513,2217.01611,2804.01733,2155.658ZM2319.8335,2769.29639c-2.30323.04272-4.63379.06469-6.92774.06469a357.1706,357.1706,0,0,1-119.08154-20.30346,22.01945,22.01945,0,0,1-5.16748-3.01807c-.60913-.43262-1.23291-.87695-1.867-1.29394.48462-.3982.96265-.80713,1.44068-1.21582a32.65188,32.65188,0,0,1,4.22217-3.22852c19.573-11.78369,41.46826-29.40869,37.0122-61.37085-4.28222-30.71094-28.7832-42.38721-52.18457-49.75757-44.79052-14.10693-93.31958-28.95776-148.35913-45.40161-8.04883-2.405-9.65625-5.261-7.47876-13.28711,4.06092-14.97119,6.89234-30.69189,9.62989-45.89429,6.98974-38.81811,14.218-78.95752,42.58569-110.24047,83.115-91.65284,182.36841-145.46851,295.00513-159.95337a65.75846,65.75846,0,0,1,8.3667-.54273c19.28417,0,36.2871,8.88941,55.88549,22.23609,3.62647,2.46972,7.27466,5.00341,10.95484,7.55859,24.67944,17.137,50.19824,34.85742,80.50317,41.84546a14.72687,14.72687,0,0,0,3.29956.38965,9.91576,9.91576,0,0,0,10.10327-7.95948c2.26319-9.22631-4.75488-13.55151-11.12256-16.28906-50.98046-21.91528-92.08178-57.70337-125.65039-109.40893-56.67431-87.294-59.8-202.02613-7.43139-272.8064,33.03686-44.65479,78.39746-67.2959,134.82129-67.2959,5.92236,0,12.03222.25952,18.15966.77136,14.49659,1.21131,28.46875,14.983,41.981,28.30213,3.22461,3.17834,6.271,6.17993,9.3064,8.99316C2776.8728,2056.051,2842.688,2249.542,2793.4585,2465.28613c-29.90039,131.03565-133.23853,221.47461-257.146,225.04444-7.5542.21777-15.90527,4.91894-21.20215,9.2456-67.80127,55.39014-107.31592,69.72656-192.18774,69.72656C2321.90625,2769.30273,2320.87354,2769.30078,2319.8335,2769.29639Zm-266.939-38.58594q-11.87493,0-23.74841-.02539-11.87531-.019-23.74939-.02539c-15.718,0-28.42334.05371-39.98474.16919l-.60022.00366c-3.61365,0-5.36951-.39258-5.87036-1.31055-.52271-.956.17114-2.86133,2.183-5.99414,21.66663-33.7417,38.66589-73.66992,51.96692-122.06885,1.83411-6.67358,3.8977-8.01416,6.63257-8.01416a24.07129,24.07129,0,0,1,7.08349,1.68409c17.39917,5.99047,34.76,13.01123,51.5481,19.80127,31.3081,12.66357,63.68213,25.75781,97.74072,32.75293,14.56055,2.99072,25.58277,15.73144,28.76392,33.251,2.58471,14.23438-3.41529,25.884-18.34156,35.613-18.71069,12.19458-39.73706,14.148-57.83837,14.45044-8.90577.14917-18.47095.2185-30.10059.2185q-11.42065,0-22.84253-.05835-11.18811-.04248-22.37524-.05834l.00537-.38892Zm-127.88708.37158c-1.05359.94824-2.13648,1.92359-3.16285,2.92725-.44177-1.40357-.92895-2.80786-1.40246-4.1731a58.48435,58.48435,0,0,1-2.928-10.49219c-18.67407-127.66235.37427-224.97607,59.94556-306.25048,2.54089-3.46705,3.62109-6.752,3.12109-9.50147a8.37881,8.37881,0,0,0-4.00537-5.49609,9.8792,9.8792,0,0,0-5.385-1.79956c-4.61914,0-8.14819,4.16284-10.98413,7.50781-39.52466,46.62573-61.08753,104.17334-69.916,186.59619-5.00244,46.69922-1.84863,97.28,9.64356,154.63013,2.15112,10.738,6.99512,15.39184,19.19592,18.44458,40.868,10.22094,70.75208,32.36108,88.82324,65.80615,12.31922,22.79492,6.78015,44.80493-16.0166,63.65112-26.33044,21.76587-66.92248,33.75269-114.29846,33.75269-66.93359,0-152.807-26.20923-183.17822-83.75342-13.36109-25.314-18.19324-55.73975-22.867-85.16406-1.98632-12.50586-4.04-25.436-6.72119-37.78882-7.11352-32.78-14.72339-66.04907-22.08374-98.22266-17.92627-78.36474-36.46289-159.3977-49.32495-239.94629-17.766-111.27514-7.9613-204.00878,29.97607-283.502,3.44886-7.22558,9.08069-12.37646,18.26062-16.70337a647.64149,647.64149,0,0,0,140.33289-90.05444,26.07545,26.07545,0,0,1,5.7439-3.30591c.78051-.36609,1.58374-.74316,2.36328-1.1438.19763.72217.4071,1.44263.61658,2.162a51.74756,51.74756,0,0,1,1.46984,5.916c.53186,3.21937.98169,6.51246,1.418,9.69812.70679,5.16736,1.438,10.51148,2.53736,15.69605,1.65649,7.814,3.69189,15.67969,5.65991,23.28589.85705,3.3114,1.71313,6.62353,2.54272,9.94043l.16846.67383.56018-.41162c3.11279-2.2876,6.38123-4.51172,9.54334-6.66358,6.86853-4.67383,13.97119-9.50781,19.96-15.31811,43.35058-42.06018,76.37024-95.66626,100.94482-163.88111a43.78729,43.78729,0,0,1,2.804-5.85412c.34887-.64661.6986-1.29309,1.03735-1.94349.326.58936.65845,1.17579.99182,1.76221a55.95251,55.95251,0,0,1,2.83142,5.437c51.69995,120.30835,78.0669,257.79444,82.97461,432.6604-.907,121.39478-9.23,250.313-63.51831,370.61133-6.343,14.05664-14.79712,27.46411-22.97168,40.42993-2.46069,3.9043-5.0061,7.94043-7.45239,11.92945C1930.44263,2726.1897,1927.67944,2728.677,1925.00745,2731.082Zm-538.6615,126.209a1555.63021,1555.63021,0,0,1-221.15479-16.34644c-4.72558-.70215-7.44873-1.86792-8.82654-3.78223-1.4198-1.96972-1.62927-4.86938-.72314-10.00781,24.85779-140.94678,50.10815-285.78491,75.04968-430.48926.25147-1.46264.59937-3.12011.96729-4.876,1.49438-7.13355,3.18921-15.21973.60644-18.90552a4.44147,4.44147,0,0,0-3.1383-1.87964,7.53661,7.53661,0,0,0-1.05359-.07739c-6.63452,0-7.79846,9.30469-8.82569,17.51465-.26049,2.08105-.50732,4.04736-.83056,5.73584-19.3772,101.148-38.90467,204.02148-57.78906,303.50927q-15.96131,84.0879-31.95227,168.16944c-.439,2.30517-1.74671,7.82763-4.40418,9.30493-66.21582,36.82446-128.46918,54.72632-190.32,54.72632a323.05185,323.05185,0,0,1-77.65161-9.60083c-21.51-5.333-44.02643-14.23242-47.93152-39.80054-3.83862-25.12646,15.15967-40.61963,31.92035-54.28931,16.15686-13.17895,32.02692-22.05371,48.51709-27.13183,13.79724-4.24756,16.92829-16.01026,18.95276-27.69556,10.16352-58.65869,8.60987-116.29932-4.75024-176.21582C891.19348,2542.1665,870.3,2488.45654,839.1319,2430.95337c-17.41272-32.127-39.084-69.20288-67.78681-100.59961l-.31964-.35059c-9.842-10.76831-20.01922-21.90356-35.58685-24.86694-5.14185-.979-4.85315-4.21094-4.5481-7.63354.05738-.63941.11383-1.27491.13477-1.89161,3.82867-113.16919,26.90417-225.0271,68.58642-332.46691a37.33736,37.33736,0,0,1,2.05732-4.202c.24493-.45166.48993-.90344.72851-1.35791.40528.45.82422.89062,1.23316,1.32056a20.52589,20.52589,0,0,1,3.22479,4.00256c12.78546,23.18481,29.35669,49.49255,55.3183,68.83508,3.18744,2.375,5.57989,3.48071,7.52789,3.48071,2.99261-.001,4.84314-2.53454,5.824-7.97412a2.71474,2.71474,0,0,1,.17853-.52282,4.38322,4.38322,0,0,0,.1958-.5409q7.43271-27.60827,14.85639-55.21826l2.66382-9.90295c5.26751,4.47058,10.54327,9.10168,15.65051,13.58593,11.39392,10.00232,23.17572,20.34534,35.5368,29.48792,63.971,47.31323,130.39984,83.34448,197.43891,107.093a622.68335,622.68335,0,0,0,208.43213,36.075c77.934-.00366,158.87768-14.74268,240.58471-43.80982a73.21385,73.21385,0,0,1,7.344-2.04248c.9143-.22046,1.82861-.44091,2.73938-.67407-.203.90894-.39344,1.82251-.58289,2.73584a65.563,65.563,0,0,1-1.8186,7.333c-34.73,104.42724-38.19788,213.77075-10.60157,334.27759,19.2815,84.20312,36.63965,170.33447,53.42579,253.62866,7.87585,39.08032,16.02026,79.49219,24.25854,119.18628.65674,3.16577.43726,5.46972-.67114,7.04346-1.58838,2.25585-4.79675,2.70483-7.89954,3.13916-1.11291.15576-2.16382.30322-3.13281.532C1564.40955,2849.78931,1469.79871,2853.77466,1386.34595,2857.291ZM765.85443,2647.26221c23.9726,53.45239,49.87683,93.47168,81.52118,125.94384a8.89171,8.89171,0,0,1,1.61292,2.957c.13751.34155.27685.6914.42712,1.03466-.50366.08277-1.00726.17579-1.51086.26856a25.31244,25.31244,0,0,1-4.45069.552c-18.73144.03735-37.45923.04468-53.47223.04468l-26.76031-.00195-37.798,1.65917c-22.06646.97-40.71869,1.78956-59.37091,2.60376q-1.17618.05091-2.34234.051a54.94509,54.94509,0,0,1-38.61591-16.17407,52.115,52.115,0,0,1-15.48657-37.14868c.06372-16.30274,4.14007-28.51612,23.82226-35.13257,33.52234-11.27075,66.775-25.16822,98.933-38.60864,8.45416-3.53345,17.19513-7.18628,25.805-10.73536a11.4123,11.4123,0,0,1,4.01984-1.11743C763.69061,2643.45825,764.54755,2644.34717,765.85443,2647.26221Zm-36.31634-277.50562,2.7185-39.26806c14.51758,3.00537,24.13739,14.04126,32.63794,23.79223,95.60077,109.6731,136.71381,242.84961,122.199,395.82959-.428,4.51172-2.11469,9.01343-3.74671,13.3667-.69305,1.84863-1.407,3.75391-2.02264,5.65186-1.71674-1.20508-3.50354-2.36524-5.23657-3.4917-4.07544-2.64746-8.28931-5.385-11.7063-8.77832-81.90729-81.30371-108.03919-187.28565-122.79908-280.23438-3.9497-24.875-6.39318-50.08252-8.75647-74.46045C731.73566,2390.92969,730.70746,2380.31812,729.53809,2369.75659Zm26.95062-640.30224a6.35207,6.35207,0,0,0-1.47992-.16846c-7.47962,0-18.82886,12.01135-24.92517,18.46374-8.45319,8.9469-16.20789,18.82068-23.70758,28.36951-3.38782,4.314-6.89044,8.77466-10.4112,13.08862-1.90338,2.3324-3.947,4.62281-5.92419,6.83765q-1.12976,1.26489-2.254,2.53638c-.44537-1.15027-.9353-2.29688-1.41162-3.41333a39.259,39.259,0,0,1-2.98169-8.84119c-12.23627-75.32654-6.48968-134.9115,18.08307-187.5177,11.1853-23.94531,9.24188-47.417,7.36218-70.11645-.64026-7.72632-1.30145-15.71509-1.438-23.61695-4.23571-244.83227,96.77466-438.208,300.22431-574.7561,2.988-2.0058,5.55987-2.98071,7.86127-2.98071,4.85406,0,7.72918,4.53167,10.51043,8.914.3125.49316.62476.98541.939,1.469,28.92407,44.60333,30.7528,94.89215,32.68994,148.13361l.22949,6.25195c-4.11548,124.03137-39.67053,244.70386-105.67871,358.66638-61.57666,106.31214-83.07483,227.79236-63.89807,361.06653,5.62182,39.06665-2.03174,75.18359-9.434,110.11194-4.65827,21.97912-9.47406,44.70666-10.84833,67.75867-.286,4.792-1.72675,9.62426-3.1192,14.29614-.57556,1.93078-1.16846,3.91968-1.67841,5.89783-1.5683-1.48352-3.213-2.93067-4.81036-4.33582-3.8396-3.37878-7.80939-6.87231-10.79651-10.94946-44.4444-60.66065-69.875-133.13379-82.45648-234.98938-.28412-2.30506-.39612-4.83765-.51544-7.518C766.196,1742.53125,765.71509,1731.672,756.48871,1729.45435Zm-44.92706-513.39527c-7.24109-19.80835-1.48993-38.97461,4.59814-59.2666,5.64551-18.81116,11.48132-38.26343,6.55621-58.85693q-.84694-3.54273-1.66113-7.08069c-6.95239-29.93176-13.51855-58.20386-48.61914-69.44336-2.4325-.77911-3.86688-6.482-5.01892-11.06421-.22675-.90161-.4444-1.7677-.66022-2.55865-7.60718-27.92688-23.68213-43.429-49.14459-47.39191-3.86054-.60065-4.59729-1.55689-4.15192-5.3855,8.42859-72.49927-4.82129-141.33655-27.30761-222.38965-1.428-5.14642-1.53913-8.27148-.35065-9.83563.79144-1.04,2.21942-1.504,4.631-1.504a49.19743,49.19743,0,0,1,5.60358.45581,283.34381,283.34381,0,0,1,100.637,31.78278c95.6026,51.42047,169.9574,113.64923,227.31293,190.24164,6.99426,9.34027,7.65271,14.23529-2.60279,23.10516-57.391,49.64227-105.09124,106.44177-141.77734,168.82129-36.50122,62.063-63.0957,131.34753-79.04681,205.92676a38.70988,38.70988,0,0,1-2.43433,6.88684c-.37335.87646-.75769,1.77759-1.11194,2.68115-1.22034-.83472-2.45709-1.65112-3.69385-2.46765a85.62561,85.62561,0,0,1-10.77459-7.94776c-.85425-.78186-.03186-4.99426,1.18939-7.37,17.80981-34.631,26.92053-72.95776,27.85583-117.16895l.00183-.08789ZM553.92157,653.70184c.826-1.23309,2.9671-1.73584,7.38947-1.73584q.79641,0,1.67846.0196c2.51715.05462,5.2038.08013,8.4541.08013,2.28858,0,4.57721-.01275,6.86676-.025,2.28766-.01233,4.57538-.02508,6.83393-.02594,128.48462,7.90222,244.2594,59.48108,353.94159,157.68512a507.91007,507.91007,0,0,1,72.711,80.28583c2.3496,3.24664,3.16925,5.30261,2.82684,7.09625-.34522,1.815-1.92438,3.50256-5.27942,5.64276-6.42322,4.09815-12.89838,9.475-19.15949,14.67511-13.07232,10.85657-25.41882,21.11072-37.63684,21.1098-.276,0-.55285-.00543-.82879-.01641-9.067-.3556-17.37812-13.52125-26.17737-27.45966-4.84229-7.67181-9.85028-15.60455-15.15424-21.56152-41.13214-46.20069-85.15033-84.43-130.83062-113.62732C729.8186,744.05463,676.258,721.77051,620.3623,709.61115c-33.23083-7.22919-52.27923-16.19239-64.16491-45.12153C553.90881,658.92065,552.80322,655.37024,553.92157,653.70184Zm1361.82306,44.68848c54.19092,33.51727,100.13891,58.39465,144.60058,78.29047,53.98584,24.15789,105.23047,40.61621,156.66187,50.31573a8.28855,8.28855,0,0,1,2.87231,1.45349c.26783.17945.541.36249.81788.53736-.3042.23809-.6045.48626-.9043.734a11.84644,11.84644,0,0,1-3.08911,2.06867c-14.48853,5.61908-29.354,6.063-45.09278,6.533l-3.25756.102c-103.50293-7.93317-198.04737-38.63727-281.00477-91.2594-13.52856-8.58112-28.40954-20.08795-36.20349-40.36762-3.84228-9.99682-9.8219-12.09509-14.16137-12.09509-5.96436,0-13.035,3.89374-19.3982,10.68213-30.18457,32.20312-45.70019,72.899-60.706,112.25488-3.02344,7.93048-6.1499,16.13184-9.3457,24.1247-4.31861,10.80737-7.66993,22.19671-10.91016,33.21173-2.28149,7.75329-4.64111,15.77075-7.31763,23.5177a29.95629,29.95629,0,0,0-1.05639,5.92187c-.51636,4.45246-1.05,9.05609-4.23572,9.05609a5.22554,5.22554,0,0,1-1.62024-.296c-12.05591-3.99579-28.80933-13.3797-28.70825-19.58576.90429-55.25226,8.83935-125.5025,62.62036-178.75256,24.37512-24.1333,55.79-37.42469,88.46-37.42469C1869.01343,677.413,1893.558,684.6673,1915.74463,698.39032ZM2014.767,834.18884a21.23825,21.23825,0,0,1-3.26221,2.83c-38.411,24.84552-69.49622,53.86023-92.39148,86.23779-24.28027,34.33551-40.28052,73.74872-47.55713,117.145a35.07439,35.07439,0,0,1-.86609,3.51892c-.18029.64978-.38525,1.38562-.61474,2.24622l-2.11927-2.52027c-1.41882-1.68994-2.53344-3.01806-3.66284-4.33374a680.35389,680.35389,0,0,0-110.92163-103.28112c-3.75024-2.77906-5.99975-4.74207-5.03161-9.86255,15.00122-79.29541,38.28076-140.51734,73.262-192.67047,2.2467-3.34821,5.395-6.20832,8.43957-8.97455,1.26587-1.1507,2.57093-2.33643,3.80762-3.55316.60474,1.28454,1.18762,2.60009,1.75317,3.8778a74.26833,74.26833,0,0,0,4.78394,9.53467c16.90454,26.87134,44.1394,41.31934,70.477,55.2923l1.48718.7887a532.23985,532.23985,0,0,0,97.22083,39.64679,23.24893,23.24893,0,0,1,4.63379,2.1939c.52734.29828,1.05456.5965,1.5874.88019C2015.44629,833.514,2015.10669,833.85144,2014.767,834.18884Zm-141.66541,257.49341c108.71875,147.97839,147.96753,316.47913,116.65369,500.82251-2.458,14.473,2.12927,27.20837,6.56531,39.5238,1.46533,4.0691,2.98071,8.27747,4.2019,12.45582,17.19153,58.80908,14.67066,116.62536,9.93677,165.4248a25.00637,25.00637,0,0,1-1.52075,5.7146c-.22229.63122-.44995,1.27881-.65943,1.928-.44446-.48633-.89892-.96619-1.35327-1.44605a35.878,35.878,0,0,1-3.81689-4.50073c-13.67432-20.369-31.46582-42.7605-59.73975-54.40308-4.46875-1.84057-7.56885-2.662-10.05151-2.662a6.8875,6.8875,0,0,0-5.17554,1.9552c-2.142,2.16748-3.14648,6.19836-3.07178,12.32287,1.03,84.10755-32.09057,162.0752-101.25354,238.35706a27.30113,27.30113,0,0,1-4.712,3.81775c-.6156.4281-1.24756.86706-1.86231,1.32141-.28686-.79419-.603-1.58643-.90991-2.35693a27.57659,27.57659,0,0,1-1.94605-6.27662c-4.68212-34.25073-10.78649-73.95776-24.04638-111.7312-.20862-.59472-.41162-1.22033-.61743-1.85962-1.37793-4.25586-3.09192-9.55249-8.39954-9.55249a10.36705,10.36705,0,0,0-2.67566.38623c-7.68274,2.07727-6.15185,8.77735-4.92151,14.16053l.33423,1.48718c14.37195,65.042,14.37195,65.042-40.67773,104.09595-114.01343,80.88354-241.73035,120.51489-390.44178,121.16064-164.59423-1.70581-311.63012-61.81518-437.02191-178.66016-6.60357-6.15271-8.25744-11.50683-6.1-19.75415,8.91314-34.06787,7.0866-42.94242,13.67559-71.49222.84876-3.681-7.79327-59.93575-7.704-73.64572.01276-1.85778.0246-3.70556-.00091-5.5288-1.43891-103.30176,15.76343-198.91626,51.12994-284.18677,5.915-14.26172,15.05762-27.52612,23.89789-40.35352,8.394-12.17944,17.074-24.77356,23.26227-38.48474,30.51788-67.627,51.46588-135.82129,62.26056-202.68835a695.13031,695.13031,0,0,0,1.56372-211.95056c-4.45606-30.37622-14.769-54.83332-31.526-74.76783-2.00989-2.39154-2.82776-4.28173-2.4325-5.61816.51734-1.74677,3.07361-2.52631,5.32862-3.21436a16.15645,16.15645,0,0,0,2.89416-1.06915,643.18452,643.18452,0,0,1,310.85413-80.11511C1558.43066,830.29828,1752.85254,928.0119,1873.10156,1091.68225Z"/>
    <path d="M1342.936,2122.29388c-162.64711-1.68586-311.43509-61.46754-437.33516-178.78421-6.46545-6.02451-8.54233-11.38548-6.23293-20.21319,8.36772-31.98511,6.16916-135.17275,5.95518-150.54356-1.36561-98.06385,13.569-193.72277,51.16593-284.37121,11.50736-27.74462,34.42479-50.62061,47.165-78.8517,59.67616-132.23883,84.99686-269.82378,63.78883-414.37949-3.98029-27.1303-13.27653-52.94876-31.422-74.53573-7.34789-8.74153,2.62866-8.78634,5.92108-10.60962,281.79373-156.04436,640.68093-78.36994,831.53489,181.40119,110.11214,149.87329,147.87443,317.87464,116.73878,501.17688-3.25277,19.14994,5.86431,35.04074,10.75472,51.76991,15.96868,54.62806,15.35642,109.89341,9.95331,165.60085-.28046,2.892-1.60456,5.68261-2.44265,8.52034-1.93408-2.19372-4.1432-4.20237-5.75931-6.60972-15.41661-22.96289-33.19455-43.387-59.52994-54.23235-10.50951-4.32781-17.852-4.95355-17.65469,11.17927,1.15306,94.24006-39.90921,170.8849-101.37495,238.6769-2.001,2.20672-4.74862,3.73618-7.14847,5.581-1.05691-3.10459-2.65262-6.13554-3.08857-9.32489-5.171-37.83153-11.32148-75.45015-24.02456-111.64063-1.84207-5.24794-3.19941-12.87384-11.13118-10.72991-7.77628,2.102-5.57715,9.10341-4.32452,14.77318,14.455,65.422,14.60136,65.60241-40.79266,104.90033C1619.50319,2082.0276,1492.15162,2121.6463,1342.936,2122.29388Z" style="fill: #ffe8ca"/>
    <path d="M1386.32719,2857.71981a1541.94613,1541.94613,0,0,1-221.20444-16.31377c-9.83576-1.461-11.60194-4.91059-9.94018-14.33223q37.94724-215.16976,75.04883-430.48764c1.49244-8.659,6.29084-24.05525-1.17017-25.11979-8.87029-1.26576-8.55674,14.29085-10.18654,22.79835q-45.16947,235.78236-89.74135,471.67918c-.65606,3.44707-2.06746,8.19641-4.63492,9.624-84.06377,46.75114-172.58273,68.90849-268.31063,45.17145-21.6454-5.36695-44.33359-14.34165-48.28078-40.1838-3.85348-25.22825,14.78887-40.613,32.08657-54.72095,14.49236-11.82071,30.50355-21.62022,48.67436-27.21492,13.44187-4.13831,16.61332-15.68646,18.63058-27.32937,21.17678-122.21928-10.9717-233.83537-68.57626-340.11475-19.30632-35.61968-40.18817-70.38915-67.72106-100.50745-9.96293-10.89859-20.06751-22.108-35.6501-25.07414-6.56366-1.24948-4.92616-6.03935-4.79228-9.99786,3.88351-114.78859,27.0983-225.599,68.61842-332.62071.83444-2.15077,2.071-4.14515,3.12-6.21259,1.67553,1.96213,3.74556,3.70678,4.96624,5.91977,14.40285,26.11585,30.81632,50.52757,55.18866,68.68588,6.92679,5.16061,10.96871,4.92687,12.61449-4.20223.06819-.37816.2826-.7272.38345-1.10251q8.86-32.9145,17.711-65.8313c17.20219,14.56284,33.64205,30.1574,51.72356,43.53041,197.86063,146.33789,412.849,182.24325,646.02156,99.29449,3.52266-1.25319,7.23962-1.9607,10.866-2.9225-.84807,3.62487-1.415,7.34364-2.58487,10.8612-36.684,110.30439-36.44532,221.11593-10.58967,334.026,28.3301,123.71649,51.88875,248.52492,77.68691,372.8242,2.31853,11.17172-6.63477,9.98673-12.05244,11.26276C1566.14112,2849.86017,1476.2547,2853.96994,1386.32719,2857.71981Zm-467.8206-36.80237c-17.19107,7.4635-31.17987,17.52044-36.6894,34.77546-5.34976,16.75471-7.94746,34.43555,5.00939,49.77211,3.23208,3.82551,8.00538,5.6398,12.48,2.45416,2.08744-1.48579,4.52038-6.12926,3.70241-7.51773-17.05512-28.95786-.294-47.08906,19.7795-64.56213,2.20127-1.91561,3.977-6.39582,3.28315-8.96585C925.41169,2824.429,921.2565,2822.92894,918.50659,2820.91744Zm69.39052,53.085c.27617,2.74526.01484,7.20407,1.27018,11.18426,2.787,8.83657,5.72779,20.70181,17.27181,18.23452,13.98395-2.98871,3.79113-13.14611,3.116-20.679-1.31611-14.68214-3.04278-29.92251,12.59266-39.42349,3.72737-2.26465,7.62678-5.0767,5.30183-10.19251-2.28858-5.03589-7.08513-5.71828-11.98268-4.67628C991.14759,2833.62517,989.05531,2852.7176,987.89711,2874.00248Z" style="fill: #ffe8ca"/>
    <path d="M2319.84929,2769.71832a355.55138,355.55138,0,0,1-126.17968-20.22061c-2.76746-.97579-5.12608-3.11286-7.67442-4.70968a61.446,61.446,0,0,1,6.21709-4.88691c23.01614-13.8559,40.864-31.68914,36.79068-60.90643-4.06589-29.16193-26.75992-41.47067-51.86308-49.37769q-73.9875-23.30237-148.35189-45.39921c-8.14575-2.43332-10.06856-5.47769-7.79582-13.85619,14.42917-53.19177,12.73589-112.67378,52.32056-156.32519,79.409-87.56711,176.54291-144.83184,295.291-160.103,23.57848-3.0321,42.69964,6.873,64.57428,21.77062,27.62069,18.81046,56.515,41.3137,91.30025,49.33517,5.88442,1.35708,11.29752-.91842,12.845-7.22634,2.15377-8.78034-4.368-12.962-10.8533-15.74953-53.701-23.0849-94.36557-61.07654-125.85785-109.58347-57.107-87.96125-60.07045-202.16934-7.41537-273.33849,38.33647-51.81615,92.22435-71.82257,153.39494-66.71119,18.16254,1.51719,35.82978,22.83945,51.56551,37.4177,168.885,156.46162,248.34938,345.05418,195.75592,575.54237-28.59814,125.32957-127.45128,221.65648-257.58671,225.40692-7.11066.20492-15.18623,4.45539-20.92086,9.14C2447.21213,2755.6478,2407.262,2770.11674,2319.84929,2769.71832Z" style="fill: #ffce97"/>
    <path d="M2026.66618,2300.26412c-.92924,124.293-9.69325,251.43658-63.55931,370.799-8.27114,18.32784-19.88649,35.18131-30.45263,52.4115-2.69927,4.402-7.29982,7.63731-11.0269,11.40859-1.55862-5.15233-3.80426-10.20449-4.57487-15.47212-15.97667-109.22443-7.98727-213.794,60.03151-306.59334,3.5365-4.82469,5.10625-10.49531-.7632-14.33224-6.9653-4.55327-11.6948.82595-15.75954,5.62068-45.55669,53.74117-62.51795,118.291-69.80764,186.343-5.57044,52.00223-.59871,103.40512,9.63761,154.48979,2.19671,10.96337,7.42735,15.22611,18.85126,18.08325,38.39439,9.60287,70.07639,30.79156,89.12152,66.03622,13.23859,24.49963,5.206,46.5939-16.131,64.23249-74.9708,61.97555-253.16962,35.1502-298.18551-50.14142-19.08778-36.16536-20.64968-81.68472-29.63109-123.07148-24.44025-112.621-53.26877-224.55729-71.41291-338.1943-15.269-95.62881-13.42147-192.7614,30.01512-283.77615,3.87473-8.11878,10.3677-13.10016,18.4825-16.92424a644.20025,644.20025,0,0,0,140.232-89.99073c2.48544-2.088,5.785-3.20647,8.7058-4.77589.76391,2.89282,1.76205,5.74654,2.24735,8.68559,1.39486,8.44643,2.17874,17.01272,3.95134,25.37324,2.36375,11.1483,5.43264,22.14706,8.19882,33.21,9.87327-7.25688,20.7414-13.48774,29.45448-21.9413,47.38849-45.97714,78.63427-102.08942,100.8313-163.70365,1.08145-3.00241,2.82938-5.7648,4.2666-8.63907,1.43138,2.66736,3.07345,5.244,4.26432,8.01462C2002.46687,2004.2754,2022.41071,2148.63205,2026.66618,2300.26412ZM1938.125,2880.63918c-2.10141-27.574-8.08384-52.03877-32.2375-67.76518-4.36331-2.84088-9.30722-5.17545-13.63473-.09133-3.88258,4.56155-1.78516,8.74181,2.05234,12.20943,21.3872,19.3236,27.48688,43.25927,21.80117,70.94767-1.21012,5.89267.39529,11.30386,7.00724,12.79051,6.495,1.46039,10.59481-2.46929,11.969-8.36452C1936.66307,2893.58579,1937.25023,2886.57379,1938.125,2880.63918Zm-101.40633,7.39443c-1.79044-23.31549-5.65062-44.91031-23.04953-61.33111-3.86018-3.64313-8.70752-6.22344-13.42375-1.76149-5.14349,4.86636-1.4281,9.16735,2.1094,12.992,13.09537,14.15757,18.28835,31.06155,18.38122,50.09547.04008,8.21867-11.18739,22.2147,5.20753,23.15881C1841.20463,2912.06632,1832.14919,2895.1769,1836.71864,2888.03361Z" style="fill: #ffce97"/>
    <path d="M1060.32142,1092.12357c-4.21381,127.00059-40.736,246.65227-105.74155,358.88439-64.82021,111.91176-81.85836,235.54606-63.83947,360.76661,9.19,63.86461-16.73373,118.49138-20.27879,177.96425-.42282,7.09334-3.27873,14.04113-5.00682,21.05656-5.459-5.26621-11.82155-9.87-16.23915-15.89966-51.295-70.01071-72.11069-150.74376-82.543-235.20771-1.32831-10.75489,1.04037-27.05653-10.29324-29.77982-6.90931-1.66032-18.54748,10.31951-25.95722,18.162-12.25414,12.96988-22.78319,27.56754-34.09626,41.43243-2.78729,3.41567-5.79483,6.6514-8.701,9.96989-1.60171-4.35064-3.96132-8.578-4.69106-13.07034-10.42784-64.19139-9.72428-128.18115,18.1203-187.78987,14.92675-31.95471,6.41887-62.3771,5.88015-93.528q-6.39283-369.57942,300.43057-575.15151c11.45273-7.68669,15.54386.72349,19.96167,7.536C1057.464,983.9437,1058.26608,1036.82882,1060.32142,1092.12357Z" style="fill: #ffce97"/>
    <path d="M711.12383,1216.21907c-14.15285-38.71413,21.24312-75.93034,11.13825-118.17516-7.644-31.95685-12.33789-64.13845-49.96851-76.18862-3.18372-1.01959-4.6315-8.969-5.9867-13.94409-6.93449-25.457-21.57179-42.82105-48.76709-47.05368-4.03051-.62731-5.0228-1.77276-4.543-5.90008,8.86444-76.25127-7.14069-149.56748-27.29429-222.211-3.48451-12.5599.96247-12.61084,10.38939-11.47124a283.30645,283.30645,0,0,1,100.803,31.83456c88.8146,47.77045,166.54688,109.02322,227.4644,190.373,7.29982,9.74813,7.53791,14.9066-2.6706,23.73689C806.15509,1067.155,732.96388,1192.33334,701.016,1341.71289c-.74978,3.50586-2.49841,6.79781-3.78115,10.18951-5.07936-3.51214-10.49374-6.6581-15.00534-10.79056-1.14572-1.04927-.11106-5.59128,1.09022-7.92714C701.66318,1297.51422,710.20829,1259.50446,711.12383,1216.21907Z" style="fill: #ffe8ca"/>
    <path d="M1870.29621,1047.15475c-2.88172-3.41924-4.60183-5.49382-6.35731-7.53828a676.74565,676.74565,0,0,0-110.84509-103.20991c-3.54706-2.62854-6.26117-4.777-5.21167-10.32393,12.99052-68.66661,34.02921-134.247,73.33244-192.84345,3.33579-4.97325,8.473-8.73725,12.77326-13.06321,2.24093,4.66787,4.05376,9.60515,6.79283,13.95936,17.15241,27.26487,44.71946,41.55059,71.78808,55.91735a529.77434,529.77434,0,0,0,97.1356,39.61172c2.42011.72178,4.59813,2.25552,6.8887,3.41182a40.437,40.437,0,0,1-4.83507,4.33366c-74.71232,48.3277-124.7443,113.62545-139.74209,203.0685C1871.73729,1042.13955,1871.18194,1043.7542,1870.29621,1047.15475Z" style="fill: #ffe8ca"/>
    <path d="M729.0731,2369.72458c1.02389-14.78745,1.88979-27.292,2.75569-39.79652,14.82945,2.8523,24.437,13.74517,33.41745,24.04727,99.27047,113.88331,136.4466,247.20181,122.31172,396.1788-.63595,6.70348-3.92823,13.15467-5.98314,19.72345-5.87629-4.1931-12.4657-7.66757-17.52231-12.6869-77.8424-77.27044-106.406-176.43166-122.93076-280.49319C735.39489,2440.63315,732.8509,2404.06366,729.0731,2369.72458Z" style="fill: #ffce97"/>
    <path d="M585.17211,651.54953c137.60344,8.46262,253.01905,67.18817,354.22425,157.80293a505.45952,505.45952,0,0,1,72.77809,80.36018c4.42508,6.11484,4.2305,9.06117-2.57916,13.40525-19.67665,12.55277-39.14146,36.57777-57.89457,35.84129-14.46056-.56752-26.83853-32.52808-41.66128-49.17719C831.23036,801.26307,736.8165,735.42149,620.263,710.06652c-32.30433-7.0277-52.17456-15.40834-64.49753-45.39978-4.72944-11.51048-4.01889-13.39141,7.2337-13.14746C570.387,651.67946,577.78092,651.54953,585.17211,651.54953Z" style="fill: #ffce97"/>
    <path d="M2168.318,838.89c-101.06368-7.746-195.331-36.84976-281.219-91.33026-15.46511-9.80992-29.00656-21.386-36.38926-40.59463-7.08127-18.42431-22.32128-12.42348-32.78371-1.26119-36.20752,38.62866-50.94168,88.65634-69.95828,136.23358-7.34989,18.38863-11.73674,37.94369-18.22045,56.70905-1.87517,5.42689-.18716,17.39587-7.50039,14.972-11.12334-3.68651-29.1388-13.229-29.02738-20.03567,1.08344-66.1842,12.8938-129.70362,62.75874-179.07646,44.23715-43.80025,107.04239-49.2748,160.012-16.51269,93.7981,58.01447,191.28919,107.835,301.10375,128.54489,1.57375.29682,2.96147,1.58055,4.43621,2.40393-1.54464,1.1142-2.9395,2.61584-4.65789,3.28225C2201.27072,838.27507,2184.90019,838.36611,2168.318,838.89Z" style="fill: #ffce97"/>
    <path d="M2052.89443,2731.17643c-29.15962,0-58.321-.173-87.47773.119-7.48027.07506-9.09025-1.15958-4.68514-8.01946,24.19674-37.68,40.11178-79.01052,51.91-121.94073,2.66461-9.69505,6.03278-9.499,14.31762-6.647,49.83883,17.15713,96.94986,41.79946,149.23063,52.53822,15.556,3.195,26.11827,17.04553,29.12909,33.62358,2.94378,16.21131-5.6576,27.68726-18.54569,36.08774-17.61161,11.47909-37.69625,14.18525-58.08445,14.52631-25.25978.42239-50.53184.10131-75.79876.10131Q2052.89236,2731.37108,2052.89443,2731.17643Zm-3.6-30.75217c-.14565-17.68056-6.24561-32.62355-20.59675-43.491-4.1502-3.14255-9.62121-5.28619-13.7356-.87418-5.05618,5.422,1.25777,7.8271,4.33935,10.82067,9.36229,9.09485,15.2771,19.89754,13.3607,33.16951-.879,6.08645-7.46,12.077-.00427,17.60778,2.28472,1.69413,7.05759,2.20871,9.589.98406C2049.75907,2715.00679,2049.6217,2707.57553,2049.29445,2700.42426Zm72.49593-8.52634c-.46134-13.51485-5.16289-24.36463-14.16626-33.147-4.489-4.37861-10.30437-6.92467-15.4801-1.67644-4.96374,5.033.63424,8.65077,2.891,13.00227a187.28829,187.28829,0,0,1,11.24417,26.44149c1.75548,5.22054-10.42135,15.27919,2.37687,15.84942C2119.41179,2712.84688,2120.93731,2700.563,2121.79038,2691.89792Z" style="fill: #ffce97"/>
    <path d="M763.24147,2778.52606c-40.40614,1.77348-68.78731,3.02439-97.169,4.2636-30.41754,1.32825-57.05085-23.17451-56.93088-53.73918.06462-16.45218,4.33607-28.91476,24.13989-35.57287,42.32047-14.22806,83.366-32.293,124.70885-49.33231,5.04256-2.07828,6.31039-1.48836,8.28976,2.92536,20.67886,46.10842,45.86824,89.31775,81.42948,125.80961,1.16811,1.19869,1.609,3.1063,2.38886,4.68342a47.91962,47.91962,0,0,1-6.64383.921C812.70869,2778.546,781.96249,2778.52606,763.24147,2778.52606Zm-88.21168-28.05885c2.21126,7.286-.814,20.20321,11.20294,20.44009,12.85949.254,8.463-12.01193,8.99075-19.92294.84515-12.66721,6.31958-23.02211,15.23316-31.88093,3.89884-3.87488,8.16815-8.68731,3.67773-14.195-4.63229-5.68232-10.82042-3.33776-15.83637-.03025C682.32062,2715.41206,675.952,2731.11108,675.02979,2750.46721Zm77.96665-12.55447c2.93251,12.40835-.63345,28.65562,13.71883,28.28945,17.44114-.44465,4.79763-15.35682,6.4402-23.69936,1.17382-5.96173,2.9099-11.81015,4.25226-17.74134,1.84443-8.14989,18.34663-15.70929,7.14433-22.73557-11.52055-7.22548-18.01389,8.01747-23.73,16.50271C756.67824,2724.68015,755.0694,2732.54065,752.99644,2737.91274Z" style="fill: #ffce97"/>
    <path d="M918.50659,2820.91744c2.74991,2.0115,6.9051,3.51156,7.565,5.956.69386,2.57-1.08188,7.05024-3.28315,8.96585-20.07351,17.47307-36.83462,35.60427-19.7795,64.56213.818,1.38847-1.615,6.03194-3.70241,7.51773-4.47458,3.18564-9.24788,1.37135-12.48-2.45416-12.95685-15.33656-10.35915-33.0174-5.00939-49.77211C887.32672,2838.43788,901.31552,2828.38094,918.50659,2820.91744Z" style="fill: #020202"/>
    <path d="M987.89711,2874.00248c1.1582-21.28488,3.25048-40.37731,27.56976-45.55247,4.89755-1.042,9.6941-.35961,11.98268,4.67628,2.32495,5.11581-1.57446,7.92786-5.30183,10.19251-15.63544,9.501-13.90877,24.74135-12.59266,39.42349.67517,7.53286,10.868,17.69026-3.116,20.679-11.544,2.46729-14.48481-9.398-17.27181-18.23452C987.912,2881.20655,988.17328,2876.74774,987.89711,2874.00248Z" style="fill: #030202"/>
    <path d="M1938.125,2880.63918c-.87474,5.93461-1.4619,12.94661-3.04249,19.72658-1.37418,5.89523-5.474,9.82491-11.969,8.36452-6.61195-1.48665-8.21736-6.89784-7.00724-12.79051,5.68571-27.6884-.414-51.62407-21.80117-70.94767-3.8375-3.46762-5.93492-7.64788-2.05234-12.20943,4.32751-5.08412,9.27142-2.74955,13.63473.09133C1930.04113,2828.60041,1936.02356,2853.06522,1938.125,2880.63918Z" style="fill: #020201"/>
    <path d="M1836.71864,2888.03361c-4.56945,7.14329,4.486,24.03271-10.77513,23.15368-16.39492-.94411-5.16745-14.94014-5.20753-23.15881-.09287-19.03392-5.28585-35.9379-18.38122-50.09547-3.5375-3.82465-7.25289-8.12564-2.1094-12.992,4.71623-4.46195,9.56357-1.88164,13.42375,1.76149C1831.068,2843.1233,1834.9282,2864.71812,1836.71864,2888.03361Z" style="fill: #030202"/>
    <path d="M2049.2692,2700.42083c.3525,7.1547.48987,14.586-7.02236,18.22025-2.53137,1.22465-7.30424.71007-9.589-.98406-7.45574-5.53078-.87475-11.52133.00427-17.60778,1.9164-13.272-3.99841-24.07466-13.3607-33.16951-3.08158-2.99357-9.39553-5.39864-4.33935-10.82067,4.11439-4.412,9.5854-2.26837,13.7356.87418C2043.04884,2667.80071,2049.1488,2682.7437,2049.2692,2700.42083Z" style="fill: #050504"/>
    <path d="M2121.79038,2691.89792c-.85307,8.665-2.37859,20.949-13.13432,20.46977-12.79822-.57023-.62139-10.62888-2.37687-15.84942a187.28829,187.28829,0,0,0-11.24417-26.44149c-2.25676-4.3515-7.85474-7.96923-2.891-13.00227,5.17573-5.24823,10.9911-2.70217,15.4801,1.67644C2116.62749,2667.53329,2121.329,2678.38307,2121.79038,2691.89792Z" style="fill: #050404"/>
    <path d="M675.02979,2750.46721c.92218-19.35613,7.29083-35.05515,23.26821-45.589,5.01595-3.30751,11.20408-5.65207,15.83637.03025,4.49042,5.50765.22111,10.32008-3.67773,14.195-8.91358,8.85882-14.388,19.21372-15.23316,31.88093-.52774,7.911,3.86874,20.177-8.99075,19.92294C674.21581,2770.67042,677.24105,2757.7532,675.02979,2750.46721Z" style="fill: #030303"/>
    <path d="M752.99644,2737.91274c2.073-5.37209,3.6818-13.23259,7.82564-19.38411,5.71609-8.48524,12.20943-23.72819,23.73-16.50271,11.2023,7.02628-5.2999,14.58568-7.14433,22.73557-1.34236,5.93119-3.07844,11.77961-4.25226,17.74134-1.64257,8.34254,11.00094,23.25471-6.4402,23.69936C752.363,2766.56836,755.929,2750.32109,752.99644,2737.91274Z" style="fill: #030302"/>
  </g>
  <g>
    <path d="M1388,2802a1421.26343,1421.26343,0,0,1-241-17l-8,67c45.06946,7.02441,82.84155,10.81567,110,13,178.14819,14.32861,314.595-7.10083,373-18,22.60217-4.218,41.03479-8.26172,53-11l-12-65A1421.715,1421.715,0,0,1,1388,2802Z" style="opacity: 0.21"/>
    <path d="M1156,1719a469.6437,469.6437,0,0,0,452,6l1-22a469.6437,469.6437,0,0,1-452-6Z" style="opacity: 0.2"/>
    <path d="M882.9483,1945,880,1969.20886c32.28052,32.50513,206.39355,201.33631,476.63794,196.69739,237.157-4.0708,393.87476-139.066,433.39648-175.51465L1792,1966.18286c-39.52173,36.44849-195.25684,171.4436-432.41382,175.51441C1089.3418,2146.33618,915.22882,1977.50513,882.9483,1945Z" style="opacity: 0.2"/>
    <g>
      <g>
        <path d="M872.236,2528.23584c1.72565-.4248,11.19287,29.05322,18.342,59.59155,4.67041,19.9502,7.48187,36.63794,9.16364,48.00415,0,0,5.10742,36.38916-7.28089,123.77515-.67285,4.74609-2.01452,13.47412-7.28094,15.37085-6.66156,2.39917-18.721-6.44946-21.03369-17.79785-1.65943-8.14282,2.627-15.32666,4.045-17.79761,7.4101-12.91235,10.603-31.79932,16.98871-69.573,3.37366-19.9563,1.17047-38.92212-3.2359-76.854C877.264,2552.66919,870.68567,2528.61743,872.236,2528.23584Z" style="opacity: 0.2"/>
        <path d="M1929.81152,2500.73022c-1.72565-.4248-11.19287,29.05322-18.342,59.59155-4.67041,19.9502-7.48187,36.63794-9.16364,48.00415,0,0-5.10742,36.38917,7.28089,123.77515.67285,4.7461,2.01452,13.47412,7.28094,15.37085,6.66156,2.39917,18.721-6.44946,21.03369-17.79785,1.65943-8.14282-2.627-15.32666-4.045-17.79761-7.41009-12.91235-10.603-31.79931-16.98871-69.573-3.37365-19.95629-1.17047-38.92212,3.2359-76.854C1924.7835,2525.16357,1931.36181,2501.11181,1929.81152,2500.73022Z" style="opacity: 0.2"/>
        <path d="M861.77193,2729.52384a816.62,816.62,0,0,1-43.887-96.88284c-94.57133-253.68261-34.94345-500.40762,15.0695-641.44892a245.88193,245.88193,0,0,1-20.67587-27.549c-50.77018,138.63512-116.9866,392.58607-19.56337,653.919a816.62,816.62,0,0,0,43.887,96.88284,385.71747,385.71747,0,0,0,25.32685,35.52131c1.98963-3.63907,3.90228-7.50245,5.66492-11.50087C865.6747,2735.60247,863.73145,2732.63067,861.77193,2729.52384Z" style="fill: #f4f4f4;opacity: 0.2"/>
        <path d="M1942.56714,2700.01133a900.06377,900.06377,0,0,0,40.92632-109.85178c84.79306-286.10163.55756-552.88459-65.10846-704.18693a271.00867,271.00867,0,0,0,20.65024-31.85694c66.31659,148.59925,158.34354,422.82919,70.99346,717.55883a900.06516,900.06516,0,0,1-40.92632,109.85177,425.13,425.13,0,0,1-25.16112,40.97516c-2.46313-3.85091-4.85858-7.95429-7.09932-12.21751C1938.73569,2706.99061,1940.64758,2703.57583,1942.56714,2700.01133Z" style="opacity: 0.2"/>
        <path d="M778.09477,1249.59215c18.36647-49.01332,54.892-128.05348,125.8288-204.31944A598.64574,598.64574,0,0,1,1091.01113,910.2141,582.1498,582.1498,0,0,1,1274.7874,860h23.179c-4.90266,1.50684-12.42318,3.86612-21.52335,6.92608-62.06273,20.8685-181.19176,62.26669-289.73737,164.49446-62.40307,58.7711-102.15789,119.61126-125.8288,155.83686-29.08166,44.50634-41.05313,68.51893-41.39105,69.26083a80.51953,80.51953,0,0,1-8.27821,13.85217c-2.82543,3.824-5.45764,7.32556-9.93385,10.38912-4.00976,2.74418-7.96576,5.6416-13.24514,5.19456-6.74464-.57111-10.97874-6.10323-11.5895-6.92608C771.07809,1271.80389,771.66379,1259.97007,778.09477,1249.59215Z" style="fill: #f4f4f4;opacity: 0.2"/>
      </g>
      <path d="M2047.22546,2474.12329c-5.18554-5.98511,60.89173-85.78906,154.1117-143.87622,40.71191-25.36841,80.46533-42.77148,122.56177-53.39307,31.74755-8.01049,74.59375-14.62817,76.44946-8.49438,1.33545,4.41431-18.93555,14.19336-40.04492,24.26953-45.79834,21.86108-59.64307,20.92822-97.07886,38.83154-9.82178,4.69727-26.77271,14.86182-60.67407,35.19092-37.91162,22.73364-56.86719,34.10059-65.52808,41.25855-23.65381,19.54931-32.00854,33.27832-61.88769,52.17968C2062.59863,2468.02,2049.25244,2476.46289,2047.22546,2474.12329Z" style="fill: #f4f4f4;opacity: 0.2"/>
      <path d="M2539.32593,2294.26978c-2.77832,3.23876-34.12378-17.55835-55.82031-35.19117-29.49415-23.96972-86.6565-70.425-106.78663-151.6853-5.52954-22.321-23.46826-94.73572,16.98877-161.39331,28.70484-47.29443,72.187-67.60352,83.73047-72.809,24.1399-10.88574,54.15772-17.97571,57.03369-12.13489,2.646,5.37342-19.74121,17.50586-49.75293,46.11243-22.706,21.64294-46.021,43.86621-60.67407,76.44934-19.76391,43.94788-14.29687,85.67871-12.13476,100.71924,6.78686,47.209,29.44287,80.196,48.5393,108,9.48072,13.80395,29.824,41.1438,54.60669,70.38183C2530.41455,2280.83862,2541.1167,2292.18213,2539.32593,2294.26978Z" style="fill: #f4f4f4;opacity: 0.2"/>
      <path d="M2532.6853,1842.2135c-6.426,8.5083,50.68335,57.93262,91.01123,101.93262,6.7273,7.33984,67.28076,74.23413,105.57325,156.53918,64.27172,138.144,43.21,271.08155,36.40429,307.01123-10.04248,53.01831-22.44116,118.47608-76.44946,174.7417-25.31787,26.37622-76.3252,79.51563-127.41553,75.23584-8.74707-.73266-30.1897-4.21191-50.96631,7.281-15.5083,8.57861-22.95068,21.24219-26.69677,26.69653-37.33423,54.36011-159.41773,50.62915-188.08985,49.75293-52.58325-1.60693-81.8789-35.595-106.78637-18.20239-1.01661.71-19.38038,13.82226-15.7754,25.48315,2.4314,7.865,14.48658,10.76514,20.62916,12.135,57.29516,12.77686,85.94287,19.165,95.86523,19.41553,71.65259,1.80811,107.479,2.71191,139.55054-8.49438,37.07324-12.95386,69.46582-39.16944,82.51684-49.75269,2.58985-2.1001,8.06153-11.5188,19.41577-16.98877,13.94263-6.717,27.46363-4.35132,33.97754-3.64038,21.44019,2.34033,39.77661-6.12524,76.44947-23.05615,4.87524-2.25074,46.45361-21.86255,83.73022-59.4607,60.61011-61.13305,78.53784-138.23755,87.37085-178.38208,36.41211-165.48657-25.38379-305.79077-42.47192-343.41577-63.57227-139.97473-143.29883-181.20337-198.87647-239.86511-2.30762-2.43567-11.44946-12.15772-25.61792-15.1012C2541.708,1841.17993,2534.58374,1839.7,2532.6853,1842.2135Z" style="opacity: 0.21"/>
    </g>
    <g>
      <path d="M584.70178,728.17694c9.89661,4.27289,24.04206,10.56293,40.7926,18.66577,33.46308,16.18732,78.20807,37.83209,126.20228,72.809,18.491,13.47577,51.48419,37.84589,87.37078,77.663a526.31085,526.31085,0,0,1,66.337,91.82019l40.045-35.191a628.64729,628.64729,0,0,0-55.82025-70.375c-26.62793-29.04163-74.74878-80.6164-152.89886-121.35535A506.17032,506.17032,0,0,0,572.9101,710.03369Z" style="opacity: 0.2"/>
      <path d="M1766.16858,957.17975a417.31938,417.31938,0,0,1,6.47192-53.39325c7.69263-41.11145,19.77674-71.49713,29.12354-94.65167a627.35962,627.35962,0,0,1,27.50561-59.05616c1.2024,1.57575,2.98682,3.84333,5.25843,6.47187,14.12365,16.34253,29.30456,26.06891,42.06738,33.16858,16.08374,8.947,34.66223,17.24664,66.33716,27.91009,18.10876,6.09638,42.79455,13.73847,72.809,21.03369,6.15735-3.533,13.30237-8.55157,12.5393-13.07861-1.14892-6.81659-19.48986-8.14014-33.70788-10.51685-46.42871-7.76117-80.41223-32.02179-105.43811-49.88769-25.44641-18.16608-38.16968-27.24915-44.22473-40.98871-2.34461-5.32025-4.74414-12.926-10.2472-14.02252-8.33874-1.66156-17.858,12.808-22.65173,20.49438-29.55688,47.39246-46.34033,104.48755-46.382,104.62921-6.65576,22.64179-16.68445,54.99634-30.74157,94.382Z" style="opacity: 0.2"/>
      <path d="M986.30334,911.8764a604.021,604.021,0,0,0-63.91009-74.42694c-13.43372-13.28943-34.61871-34.095-66.3371-56.62921-35.82684-25.453-66.60815-40.051-88.17975-50.15735-25.44561-11.92132-40.769-19.1004-63.91009-25.88763-50.01642-14.66974-75.02466-22.00464-95.46069-22.65167-5.00873-.15857-19.19568-.22358-30.74158-9.70789a42.40132,42.40132,0,0,1-10.51685-12.94379,385.7898,385.7898,0,0,1,55.82025,3.236c14.62665,1.91925,43.61188,6.57989,88.98871,22.65167A693.37449,693.37449,0,0,1,873.04492,767.8764c16.85816,11.61261,41.41809,28.67725,70.382,55.82026a545.31315,545.31315,0,0,1,65.52814,73.618Z" style="fill: #f4f4f4;opacity: 0.2"/>
      <path d="M1700.236,890.84271c-1.21594-44.30621,8.44031-77.62317,15.77527-97.07867,9.59229-25.44281,20.54724-41.32422,23.05615-44.89887a185.23872,185.23872,0,0,1,44.89893-44.89886Z" style="fill: #f4f4f4;opacity: 0.2"/>
      <path d="M1902.07861,698.30334c9.77173-5.42211,23.03284,13.1474,66.33716,40.44947,23.64966,14.91034,43.05908,24.10266,63.91,33.97754,16.93542,8.0205,39.80188,18.85009,70.38195,29.12359,45.29761,15.218,76.47168,18.78516,76.04517,22.65168-.364,3.30041-22.0542,3.6513-35.5957,3.236-24.97412-.766-47.13575-4.90436-83.32569-15.37079-17.44812-5.04614-43.95935-14.75861-96.26977-33.97754-40.34119-14.82141-54.16626-20.16852-62.29212-35.59552C1892.65405,726.4408,1892.89355,703.4,1902.07861,698.30334Z" style="fill: #f4f4f4;opacity: 0.2"/>
    </g>
  </g>
</svg>
