<svg id="Layer_5" data-name="Layer 5" xmlns="http://www.w3.org/2000/svg" viewBox="0 0 3000 3000">
  <title>BODY NEW DOG 4</title>
  <g>
    <path d="M2471.03809,1751.63672c-2.08887-1.96192-6.1377-3.38672-9.627-3.38672a9.39332,9.39332,0,0,0-2.99511.43555c-6.19434,2.084-4.94043,8.04492-3.93262,12.835l.10644.50683a31.27912,31.27912,0,0,1,.27051,7.61231c-.02441.52441-.04785,1.05664-.0664,1.59082-.42676-.27734-.85645-.55176-1.28516-.82617a37.95858,37.95858,0,0,1-5.86231-4.29c-35.21191-33.70606-72.34765-54.48633-113.52832-63.53028a121.8678,121.8678,0,0,0-26.165-3.1621c-13.78809,0-25.59473,3.12207-36.09278,9.54492-7.93164,4.85156-15.40137,10.38672-16.33789,17.97558-.72363,5.86328,2.44629,12.29883,9.68945,19.67383,93.90039,95.61914,145.81836,210.52637,154.3125,341.52637,4.31446,66.52734-4.66015,130.61035-26.67187,190.46582-32.87695,88.34082-94.0791,163.61914-172.33008,211.96484-54.1416,33.15528-114.56543,53.06543-179.5918,59.17676-1.38867.13086-2.53613.19531-3.50781.19531-2.35449,0-3.75976-.37793-4.4209-1.18945-.90234-1.10547-.88867-3.415.04395-7.96973a1014.65877,1014.65877,0,0,0,20.48047-174.47265c5.48535-194.56641-21.14063-348.01953-83.79492-482.92481-13.97657-30.09179-24.13282-55.5332-17.41016-86.00781.38476-1.74121.69336-3.51953,1-5.28418l.19336-1.1084c.25879.0957.5166.18848.77148.2793a10.57072,10.57072,0,0,1,3.5625,1.77148c19.47754,17.82715,31.43555,34.84766,37.63086,53.56153a57.55946,57.55946,0,0,1,1.47949,5.89746c1.53809,7.17285,3.28028,15.30273,13.99219,15.85058.3916.02149.77344.03125,1.15039.03125,12.293-.001,16.67188-10.0205,19.57422-20.84668,19.38281-72.35547,17.293-146.68847-6.21191-220.93261a40.68391,40.68391,0,0,0-3.69239-7.7461c-2.76171-4.86719-5.37109-9.46386-3.9707-16.29492,13.84277-67.585,16.4209-137.88428,7.66016-208.94629-.76465-6.208.0039-8.25732,6.55957-9.87451,94.34472-23.272,175.10547-75.0127,246.89648-158.17969,24.45508-28.33056,40.17871-59.07959,46.73242-91.39209,8.57227-42.273-8.02441-71.30224-47.99609-83.9497C2129.792,1003.43066,1993.61426,920.56787,1836.1084,781.54c-29.7627-26.27246-55.9668-43.76953-87.11133-43.76953-11.48535,0-22.98242,2.353-35.14648,7.19433-47.30469,18.82422-72.54688,56.37305-75.02539,111.60352-.1211,2.70557-.61036,5.93066-2.25489,5.93066-1.0791,0-2.57324-.91113-4.03808-1.80371a20.94331,20.94331,0,0,0-2.55274-1.40674c-90.15039-38.39209-181.43994-57.85839-271.33252-57.85839-90.3916,0-181.89013,19.6831-271.95361,58.50244-3.08691,1.33056-5.17773,1.95068-6.5791,1.95068a1.94308,1.94308,0,0,1-1.46094-.46728c-1.0083-1.01758-.98144-4.03565-.94775-7.85645l.00439-.51367c.18945-22.48145-6.86523-45.82031-19.86475-65.71777-12.95556-19.83057-31.25781-35.41309-51.53613-43.87647a102.6397,102.6397,0,0,0-39.56054-8.36719c-27.145,0-53.25538,12.227-77.606,36.34082-9.12647,9.03809-18.66895,17.32276-26.79932,24.23535-151.67334,128.94483-281.19971,206.39063-419.98,251.11231-45.37353,14.62109-61.63867,44.7124-49.7251,91.99268a168.84575,168.84575,0,0,0,24.96534,55.688c65.78808,94.25684,155.30615,156.98828,266.06738,186.45118,8.30713,2.21044,9.772,4.34375,8.708,12.68115a659.45245,659.45245,0,0,0,.03173,163.835c.49512,4.02832.04151,9.26465-2.0874,11.88281-39.62939,48.71-51.54638,196.707-20.23926,251.35938,4.80567,8.39062,10.30127,12.64453,16.3335,12.64355,5.25049,0,10.62549-3.25488,15.97607-9.67383,8.83936-10.60742,17.31348-21.80078,25.52588-32.64941,4.53809-5.99414,9.23-12.19336,13.96973-18.26856a24.36513,24.36513,0,0,1,4.38623-3.99023c.36133-.2793.72315-.56055,1.08057-.84375.14209.39355.29052.792.44531,1.20605a24.47288,24.47288,0,0,1,1.585,5.51172,540.26429,540.26429,0,0,0,39.66162,150.37305c1.45459,3.40527,1.62207,8.09668.38916,10.915-50.27051,114.84375-78.665,230.56055-84.394,343.93555-5.89649,116.68945,12.03174,234.48046,53.28711,350.10156l.05859.165c.81348,2.27734,1.35059,3.78125.89551,4.70508-.39648.80273-1.69336,1.53515-4.08252,2.30566-21.47314,6.91406-43.20264,14.25195-64.30762,21.37988-16.74463,5.65332-34.05908,11.501-51.13623,17.09668-26.05029,8.54-49.95947,21.07227-48.52881,54.66406,1.42676,33.51563,19.56153,56.26661,52.44434,65.792,12.29736,3.56152,25.77832,5.21972,42.42578,5.21972,9.70068-.001,19.58447-.55078,29.2417-1.08886,9.50195-.52832,19.32813-1.0752,28.92871-1.0752,1.50635,0,3.0166.01465,4.54151.043l39.95605-.00684q21.59106,0,43.18311.03907c2.55078.00488,5.16552.21191,7.73681.415,0,0,.95166.07617,1.27246.10058q-.48926.51123-.97754,1.02637a64.854,64.854,0,0,1-5.66992,5.49414c-24.94336,20.4375-53.21484,43.60351-43.70849,82.86816,9.07177,37.47364,42.2539,48.28418,75.46386,56.14453a260.34666,260.34666,0,0,0,59.89209,6.81055,310.06307,310.06307,0,0,0,38.31934-2.4541c77.62256-9.70508,131.87549-30.749,175.91015-68.23145,2.77833-2.36425,4.333-5.87011,5.8379-9.26367,2.46044-5.54883,4.58544-10.34082,11.30908-10.34082a16.77578,16.77578,0,0,1,2.24853.16016,1597.08065,1597.08065,0,0,0,213.55664,14.81152c100.5625-.00195,199.62647-10.54394,294.43994-31.332a14.53186,14.53186,0,0,1,2.9961-.4209c1.40723,0,2.41113.26172,2.51562,3.65332.51661,16.76367,11.64258,28.4541,20.584,37.84961,38.70508,40.667,111.48828,66.94141,185.42383,66.93848,45.02148-.00293,86.0205-10.001,115.44726-28.15332,26.67481-16.45606,42.47461-39.30469,44.48828-64.33692,2.01367-25.03418-9.93261-50.11718-33.63867-70.626-13.63574-11.79785-29.36914-21.38184-48.09766-29.30078-2.05078-.86719-4.084-1.93653-6.08691-2.99024-.05273-.02734-.10547-.05566-.1582-.083.1416-.0332.28711-.0664.4375-.10058a36.58463,36.58463,0,0,1,7.00586-1.14551c22.04394-.624,44.76367-1.11426,64.80859-1.5459l.20606-.00488c48.38964-1.04785,98.42675-2.13184,147.5498-4.91016,32.669-1.84765,56.26367-22.11035,63.11328-54.20117,7.1582-33.52539-16.51172-51.32519-37.62793-60.35449-10.17285-4.34961-21.03515-7.46973-31.55078-10.49121l-.22559-.06446c-5.2871-1.5205-10.75488-3.09277-16.05468-4.80371a16.55434,16.55434,0,0,1-3.81543-1.99121c.59277-.03222,1.22265-.05859,1.82617-.05859a15.807,15.807,0,0,1,1.79687.0918,439.87658,439.87658,0,0,0,49.48633,2.82812,422.85082,422.85082,0,0,0,154.71192-29.39941c82.18457-32.17285,148.42871-80.084,196.89062-142.40332,47.28418-60.80078,78.17383-135.97266,91.81152-223.42578C2669.77344,2044.12988,2612.44727,1884.55664,2471.03809,1751.63672ZM2183.04688,2599.04c-40.41211-.00195-80.86231-6.62793-123.66114-20.25781a37.41977,37.41977,0,0,1-6.71191-3.20313s-.751-.41992-.97949-.54687c.37695-.13672.75488-.27637,1.13476-.416a40.04426,40.04426,0,0,1,7.2627-2.165c118.21679-18.98437,213.72265-75.24316,283.86425-167.21387,74.53809-97.73437,109.11426-221.124,97.35938-347.43945-11.74219-126.16308-68.30957-240.76074-159.28223-322.68164a26.7927,26.7927,0,0,1-4.37011-5.78418c-.419-.66894-.84571-1.35156-1.28907-2.02148.84668-.48535,1.68457-1.01367,2.52149-1.541,2.36426-1.49219,4.80957-3.03418,7.22558-3.31836a134.94857,134.94857,0,0,1,15.76954-.93554c46.6621,0,84.918,25.35156,117.11328,49.11328,6.373,4.7041,12.17578,10.46679,17.82129,16.07324,3.915,3.88672,7.96289,7.90625,12.20019,11.5664,3.38281,2.92188,8.50488,6.043,12.73438,6.043a8.391,8.391,0,0,0,.93164-.05078c6.20605-.70215,6.42675-6.43652,6.60547-11.07324.03027-.80273.06054-1.5918.11914-2.34473.22461-2.81933.71093-5.67968,1.18164-8.44629q.18164-1.062.35742-2.124c.72558.46875,1.46191.92383,2.18457,1.37012a37.0941,37.0941,0,0,1,7.02344,5.13672c170.69921,173.88965,195.19531,447.77441,56.98046,637.0791-84.2705,115.4209-201.32128,174.34277-347.9082,175.12793Q2186.13428,2599.03905,2183.04688,2599.04Zm.3291,122.60059c-13.959,6.83105-30.24219,10.15136-49.78028,10.15136-1.81152,0-3.668-.02832-5.5166-.083h-.01465l-60.72461.00684c-27.74511,0-60.52929-.01074-93.3164-.0918a33.31544,33.31544,0,0,1-7.23438-1.13281c-.73535-.1709-1.4873-.34473-2.24218-.50391.22949-.60546.45019-1.21777.67187-1.835a33.96066,33.96066,0,0,1,2.64648-6.08105c21.09278-34.75293,37.61133-74.23926,50.5-120.71387,1.63477-5.89844,3.2793-6.3789,5.1045-6.3789a18.46913,18.46913,0,0,1,5.543,1.26757c18.20312,6.16895,36.32812,13.49219,53.85742,20.57422,31.06347,12.54981,63.18457,25.52735,96.96972,32.60645,16.21289,3.39746,27.71973,17.39453,29.31446,35.65918C2210.52051,2700.75293,2202.3291,2712.36816,2183.376,2721.64063Zm-252.46387,9.10253a11.481,11.481,0,0,1-3.69824,3.11133c-.374.23828-.75391.48242-1.127.73242-.19043-.37109-.38574-.73925-.58105-1.10449a15.6363,15.6363,0,0,1-1.85156-4.499c-22.00293-128.49219-3.832-228.041,57.18164-313.28418,3.7666-5.2627,7.2041-11.94629.2998-16.95606a10.44184,10.44184,0,0,0-6.12109-2.22656c-5.13086,0-9.11817,4.75293-12.03027,8.22461-38.93458,46.40527-60.35352,103.874-69.44922,186.33887-5.25684,47.66211-1.88379,99.085,10.31347,157.207,2.41016,11.4834,8.9668,14.12793,18.69434,16.85059,43.8418,12.27636,73.333,34.79492,90.1582,68.84472,10.835,21.92578,4.58985,42.56446-18.5625,61.3418-25.99609,21.08789-65.81445,32.70117-112.11914,32.70117-81.12988,0-156.63769-34.10156-183.62109-82.92969-15.6084-28.24609-20.31543-61.43457-24.86719-93.52929-2.13379-15.04493-4.34082-30.60352-7.64258-45.49707-8.415-37.95313-16.28515-76.69922-23.89648-114.16993l-.06055-.29785c-14.48926-71.33984-29.47168-145.1084-48.85254-216.65918-.91406-3.374-2.96777-6.40136-4.96387-9.34375-.8916-1.31152-1.81347-2.667-2.60839-4.02929l-1.959-3.35938-.06347,3.8877c-.0254,1.50586-.11915,3.05664-.21,4.56152a49.4133,49.4133,0,0,0,.07813,10.02344c14.958,102.89648,36.52832,206.26269,57.38867,306.22656l.06934.33008c8.8584,42.46094,18.01953,86.36719,26.54785,129.63672,2.20312,11.18652-.34668,15.251-10.91211,17.39843a1388.87415,1388.87415,0,0,1-276.04,27.752A1460.55073,1460.55073,0,0,1,1164.874,2841.751c-3.07129-.46094-5.08447-1.40723-6.15478-2.89258-1.19141-1.65235-1.40723-4.19043-.70069-8.22949,28.32911-161.78711,52.92969-303.02344,75.207-431.77832.23925-1.38477.54882-2.918.88086-4.56543,1.53076-7.58985,3.26611-16.19239.41406-20.40821a5.47787,5.47787,0,0,0-3.67725-2.375,6.58919,6.58919,0,0,0-1.17627-.11132c-6.50928,0-7.84668,9.8789-9.02783,18.60449-.28174,2.081-.54785,4.04687-.86816,5.71484-19.69971,102.53906-39.51172,206.7002-58.67188,307.43067l-1.00488,5.2832q-15.1377,79.57764-30.30274,159.14941c-.90429,4.74317-2.4497,8.12207-4.1333,9.03809-68.09033,37.05078-130.043,55.06055-189.39843,55.06055a297.07768,297.07768,0,0,1-83.96387-12.23243c-24.23389-7.13867-38.895-18.60254-42.39844-33.15429-3.57324-14.83594,4.52832-32.15625,23.4292-50.08985l.24365-.23144c10.49365-9.958,22.3877-21.24414,35.39112-24.7002,42.98828-11.42773,44.95752-46.00488,46.69482-76.51269,5.5459-97.36817-16.814-193.27637-68.35742-293.20313-.34619-.66992-.6958-1.42285-1.08887-2.26953-1.96387-4.23047-4.4082-9.49707-9.27685-9.49707a8.60177,8.60177,0,0,0-4.02832,1.13184,7.28937,7.28937,0,0,0-3.85694,4.25976c-.98535,3.32422,1.07471,7.0625,2.894,10.36426.58643,1.0625,1.19288,2.16016,1.63575,3.15332,49.47168,110.7666,66.792,206.55859,54.50879,301.46484-.61866,4.78321-2.27735,9.56739-3.88135,14.19434l-.0459.13281c-.58105,1.67871-1.17969,3.40918-1.72754,5.13965-1.57617-1.07324-3.1958-2.11133-4.76758-3.11914l-.10693-.06836c-4.28076-2.74219-8.70752-5.57812-12.251-9.10156-79.41845-78.9668-105.603-181.6875-119.543-262.35547-30.56933-176.9043-12.16064-354.94141,54.71485-529.166a56.81094,56.81094,0,0,1,2.62353-5.57129q.29591-.57422.58985-1.15039c.33252.38379.66943.76465,1.00683,1.14454a32.01348,32.01348,0,0,1,3.9751,5.15234c12.45166,21.96484,28.4541,46.92871,52.729,65.541,3.8169,2.92676,6.69532,4.28907,9.0586,4.28809,3.6665,0,6.07373-3.01172,7.80517-9.76562,3.91358-15.26563,8.1792-30.71875,12.3086-45.67969q2.36352-8.55762,4.71045-17.1211c4.852,4.07032,9.73339,8.23633,14.46045,12.27051l.29687.25293c11.34863,9.69043,23.084,19.71,35.10742,29.0166,56.09766,43.4209,116.332,77.38672,179.03028,100.95215,63.48681,23.86328,131.19824,37.69922,201.25341,41.1211,11.81495.5791,23.71924.87207,35.38233.87207,78.39746,0,154.12451-13.23829,225.07861-39.34668,69.88477-25.71387,137.05078-64.61719,199.63184-115.62793a26.32832,26.32832,0,0,1,5.74707-3.19825c.5957-.2705,1.2041-.54687,1.80664-.835.13183.42481.47461,1.49512.47461,1.49512a41.73426,41.73426,0,0,1,1.53515,5.67676c1.72461,10.13965,3.13086,19.1914,4.29786,27.67285.32421,2.35254.49218,4.92383.67285,7.68555.63086,9.6582,1.2832,19.6455,8.92383,22.14746a5.77564,5.77564,0,0,0,1.79589.27246c6.2627,0,15.57227-8.89356,23.05176-16.03906l1.9043-1.81348c45.33105-42.96777,79.46875-97.86914,104.3623-167.84082a45.65537,45.65537,0,0,1,2.49317-5.416q.208-.40282.41406-.80566c.16211.25391.32812.51269.5.78125a36.612,36.612,0,0,1,2.89062,5.084c46.915,109.01075,73.2461,231.26172,80.49707,373.73633.87891,17.24805.6377,34.85938.4043,51.93457l-.00293.22852c-.10644,7.7998-.21679,15.86523-.21679,23.79883.56542,108.30957-6.292,235.31347-61.43165,356.07129-6.59179,14.43652-15.5166,28.14355-24.15527,41.4121C1938.15723,2719.32715,1934.37891,2725.12793,1930.91211,2730.74316Zm-1172.477-1002.7666a12.07309,12.07309,0,0,0-3.6626-.57812c-7.66748,0-13.94678,7.39551-19.48682,13.91992-1.19726,1.41016-2.32763,2.74121-3.44628,3.96582-9.61084,10.51562-18.4585,22.02246-27.0376,33.17969-3.40967,4.43457-7.27442,9.46191-11.041,14.21191-1.293,1.62988-2.63769,3.24707-3.93847,4.81152l-.74073.89063q-.24975-.53613-.50634-1.0752a26.83079,26.83079,0,0,1-2.14356-5.52441c-14.648-66.72949-10.77051-127.6543,11.52539-181.083,15.36475-36.81738,13.91211-71.98242,11.10742-104.84472-2.86718-33.61426.11768-67.52588,3.00586-100.33594l.03125-.352q.43946-4.98925.87207-9.98145c.4336-5.0332,1.91016-8.05224,8.1753-8.58447,44.8872-3.811,68.29052-11.75684,80.77783-27.42627,12.66308-15.88916,15.0664-39.99561,8.57178-85.978-6.55127-46.376-9.16211-84.05322-8.2168-118.57275.87744-32.00293,22.09375-55.29443,42.63428-77.84424,3.87548-4.25537,7.88281-8.65478,11.62793-12.99023,134.67041-155.92041,300.625-234.97852,493.25341-234.97852,17.17139,0,34.79737.63916,52.38868,1.89941,218.58154,15.66016,389.10107,119.77979,506.8208,309.46827,13.08691,21.08545,9.11718,47.2456,5.27832,72.54443-1.46387,9.64453-2.97754,19.61768-3.501,29.11572-.7207,13.04151-2.7041,26.24951-4.63574,39.11182-1.207,8.04785-2.45508,16.37012-3.37989,24.58887-2.68554,23.88525,2.86817,44.31054,16.06055,59.06836,14.29,15.98681,36.57031,24.43652,64.42969,24.43505.55566,0,2.56152-.01562,2.55762-.01562,9.46093,0,13.0166,1.86279,14.12011,12.32764,6.86133,65.06787,5.19434,124.04687-5.09472,180.30664-2.82422,15.44726-1.53516,29.6289,4.18261,45.9834,19.042,54.47753,23.49122,114.08691,14,187.59667-.127.98438-.32812,1.97657-.53711,2.94825-.58691-.81446-1.17578-1.64746-1.71-2.48633-13.41992-21.07715-30.917-44.42481-58.9414-57.77734-6.37207-3.03614-10.50391-4.332-13.81641-4.332a8.11341,8.11341,0,0,0-6.10937,2.36817c-2.71094,2.75488-3.96485,8.02832-3.834,16.123,1.335,81.85743-30.56445,156.01758-100.38867,233.3877a25.01951,25.01951,0,0,1-5.24316,3.99609c-.50586.32227-1.02149.64942-1.53125.98633-.20313-.625-.416-1.249-.62793-1.87109l-.0586-.17383a39.5809,39.5809,0,0,1-1.96-7.1875c-5.66992-41.52637-11.87695-76.05176-23.73926-109.57227q-.21386-.60937-.43652-1.26367c-1.62988-4.75586-3.65723-10.67578-9.43457-10.67578a9.7885,9.7885,0,0,0-2.77051.4336c-8.31738,2.47363-6.38281,9.875-4.9707,15.27832l.03906.14843c.165.63282.32813,1.25586.47168,1.86133l.10059.42188c14.72851,61.88183,14.72851,61.88183-36.76172,98.98242-117.36328,84.56445-244.82569,124.08105-401.1294,124.36133-155.32617-.61817-303.74609-61.39454-429.21484-175.75586-8.77783-8.002-10.93994-15.11524-7.97754-26.248,4.98633-18.73633,9.25244-37.97656,13.37793-56.583,1.93115-8.708,3.92725-17.71289,5.97754-26.57031,1.0874-4.69824,1.78271-9.5332-.4707-13.06836-1.3501-2.11621-3.65284-3.53027-6.84522-4.20312a14.07008,14.07008,0,0,0-2.87256-.31836c-7.83349,0-10.15088,7.50976-11.21289,13.1582-6.06884,32.28125-12.16162,65.11719-18.05371,96.87207l-.08691.46875q-6.52662,35.17822-13.08252,70.35059a66.68746,66.68746,0,0,1-2.25147,8.10742c-.23193.71777-.46386,1.43554-.689,2.15527-.70117-.58789-1.4126-1.16406-2.10889-1.72754a42.44491,42.44491,0,0,1-6.60644-6.16211c-60.27686-75.57324-78.84668-165.9873-89.062-244.46289-.293-2.2539-.39306-4.74414-.499-7.38086C767.59766,1740.8916,767.18994,1730.76465,758.43506,1727.97656ZM417.47461,1090.375c6.3999-12.875,20.05322-22.04834,42.96728-28.86963,147.42334-43.88476,269.793-134.8457,382.4961-224.252,11.12158-8.82227,21.87207-18.46631,32.28906-27.811,11.58154-10.38867,23.55713-21.13037,36.05029-30.7373,16.25928-12.50244,33.73243-18.8418,51.93262-18.8418,14.33057,0,29.02734,3.95459,43.68262,11.75342,15.2373,8.1084,29.72461,23.15576,39.74707,41.28369,9.84619,17.81006,14.48242,36.773,12.71924,52.02686-.58252,5.03711-3.6211,6.59716-7.46973,8.57324l-.67236.3457a713.34181,713.34181,0,0,0-97.2793,60.89844c-.50732.37744-1.00244.7749-1.49219,1.16943-1.75635,1.4126-3.41552,2.74756-5.32715,2.74756a6.11753,6.11753,0,0,1-3.20361-1.06348c-17.70605-10.937-35.01416-16.48242-51.44434-16.48242-22.08154,0-42.833,10.21631-60.00976,29.54346-14.71729,16.56055-26.62988,39.68262-33.54346,65.10645-27.42041,100.83447-20.03222,202.11376-10.53222,279.08251,2.78613,22.57422-.14063,37.8667-9.21094,48.126-11.21826,12.687-32.65039,18.5957-67.44873,18.5957h-1.897c-83.21045-9.7583-165.88526-57.51416-239.08643-138.10546-24.05664-26.48682-39.67774-50.59668-49.16065-75.876C412.03076,1122.13281,410.72607,1103.95313,417.47461,1090.375Zm394.14307-5.53125a29.903,29.903,0,0,1-4.11231,4.32422q-.42261.39037-.8418.78174l-1.19824-3.23926c4.626-37.89551,13.15186-81.5044,41.22315-117.78223,12.86181-16.62207,28.82226-25.05029,47.439-25.05029,9.52881,0,19.95557,2.20215,30.99024,6.54492,3.60253,1.41748,5.45214,2.71094,5.65576,3.9541.20947,1.28272-1.21973,3.19434-4.37012,5.84424A677.40066,677.40066,0,0,0,811.61768,1084.84375Zm1451.37353-18.79053c38.91992,15.45166,49.33106,38.12989,34.80957,75.83057-26.26269,68.18359-77.05859,123.24853-159.85644,173.293-51.92676,31.38574-97.03809,47.436-137.87207,49.06836-31.832-1.34619-51.13672-4.52149-61.98145-17.42432-10.76172-12.80371-13.02637-35.98486-7.57129-77.51074,14.82227-112.83643,7.44922-201.66358-23.20508-279.54541-16.63965-42.28174-44.18554-64.63086-79.65918-64.63086-16.39257,0-34.34863,4.78223-53.36718,14.21289a9.82052,9.82052,0,0,1-4.3418,1.18213c-2.38379,0-4.28809-1.291-6.57031-2.83789-.47168-.31934-.95313-.64551-1.45118-.96582-8.084-5.20655-16.21582-10.69531-24.08105-16.00342l-.10449-.07031c-19.5127-13.17188-39.69043-26.79151-60.98828-37.38477-19.53028-9.71435-21.07227-20.83691-17.085-37.96387,9.93066-42.67822,32.74121-68.57812,69.73437-79.17919a85.35843,85.35843,0,0,1,23.47168-3.42823c32.376,0,58.4502,20.76905,80.34863,40.23633,94.48535,83.99854,223.56934,188.07178,384.42774,247.772,6.82324,2.53223,13.85547,4.75244,20.65625,6.89893C2246.47363,1060.18213,2254.92188,1062.84912,2262.99121,1066.05322ZM1787.52832,955.37158c.09766-.46533.71387-1.38281,3.74609-2.29345,7.31446-2.19581,14.71875-4.25489,19.61817-5.61719,0,0,2.88574-.80323,3.7373-1.04444l.78809-.00341c26.02832,0,43.94629,9.01367,58.09766,29.22607,24.7539,35.35986,32.78222,75.64893,37.36914,110.39648a12.4082,12.4082,0,0,1-.19629,3.314l-.00586.03809c-.041-.02393-.082-.04737-.12305-.07129a7.97793,7.97793,0,0,1-2.5625-1.93067,684.166,684.166,0,0,0-117.9082-128.354C1787.63184,956.95508,1787.42969,955.84668,1787.52832,955.37158ZM611.95117,2717.85059c2.749-11.18262,9.57422-17.708,23.55664-22.52539,40.57129-13.97266,80.81494-30.66211,119.73438-46.80176a18.222,18.222,0,0,1,6.58642-1.77246c2.75049,0,4.5127,1.72558,6.73487,6.59472,23.64306,51.80176,48.79248,90.27637,79.14648,121.08106a16.3088,16.3088,0,0,1,2.10059,2.915q.10473.16845.21.33691-.31567.10693-.63037.21582a12.7914,12.7914,0,0,1-3.89991.92578c-9.11523.07813-48.22412,4.60254-48.56054,4.64551q-18.18823,0-36.37647-.0166l-3.11914-.00195q-20.03979-.01466-40.07959-.01954c-20.46386,0-37.30176.02344-52.9873.07325h-.16358c-16.22949-.002-31.55468-7.67871-42.04541-21.06348C611.91748,2749.374,608.19727,2733.12207,611.95117,2717.85059Z" style="fill: #010101"/>
    <path d="M1339.63088,2122.2798c-155.32008-.61836-303.42435-60.72188-429.94212-176.03926-8.89542-8.10817-11.44565-15.48929-8.29479-27.33021,7.31162-27.4755,12.93234-55.39947,19.34617-83.1168,1.62369-7.017,2.27623-14.11843-6.48119-15.96536-8.69549-1.83406-11.52358,5.21344-12.79562,11.97892-10.505,55.87783-20.77995,111.79928-31.22241,167.689-.75937,4.06423-2.28424,7.98518-3.453,11.97276-3.3989-3.01972-7.32543-5.619-10.11877-9.12151-57.16066-71.667-77.78588-156.6273-89.28959-245.00044-1.30929-10.05806,1.13912-25.0198-9.27274-28.335-10.28508-3.27484-18.55742,9.44571-25.46562,17.0043-13.62657,14.90969-25.44753,31.46881-38.03015,47.33392-1.89534,2.38978-3.87183,4.71521-5.81085,7.07038-1.16536-2.79778-2.789-5.49473-3.42864-8.40806-13.54641-61.70891-12.48137-124.06978,11.5835-181.73533,14.86221-35.61356,14.03985-69.03913,11.02814-104.33407-3.173-37.18548.73084-73.9777,3.90865-110.85415.45183-5.244,2.172-8.97993,9.16455-9.5737,84.52606-7.178,100.18882-28.47883,88.36707-112.17123-5.54257-39.23863-9.30928-79.24877-8.2268-118.75439,1.059-38.64472,31.34411-64.67557,54.52564-91.51484,143.88523-166.58783,326.50578-249.21613,546.54076-233.452,220.3925,15.78975,390.98851,121.9696,507.6663,309.97862,18.35528,29.5767,3.83143,68.02235,1.938,102.2928-1.1788,21.3351-5.62572,42.47056-8.01936,63.76148-5.67878,50.51624,26.05388,82.9592,81.08082,82.2875,10.4815-.128,14.88052,1.85508,16.08678,13.293,6.3795,60.49049,5.83279,120.81139-5.10433,180.61574-2.97853,16.28626-1.04137,30.61349,4.13789,45.43079,21.47439,61.43649,22.27065,124.433,14.05222,188.0934-.23581,1.82676-.7043,3.62363-1.06454,5.43438-1.06167-1.50772-2.18656-2.97525-3.17588-4.529-15.0607-23.6548-32.46714-44.98075-58.49184-57.37911-13.5191-6.44071-22.54922-7.91-22.20615,13.1623,1.51172,92.858-40.55042,167.51522-100.66982,234.13182-2.21531,2.45485-5.43038,4.00732-8.17939,5.98052-1.06568-3.60032-2.61944-7.13429-3.12168-10.81156-5.06414-37.07379-11.14962-73.92822-23.68827-109.35773-1.8545-5.24061-3.83142-13.05018-11.30822-10.82586-8.22672,2.44712-5.12119,10.07908-3.71344,15.99468,14.9207,62.69537,15.11333,62.92761-37.08295,100.53653C1626.36884,2080.59691,1497.87144,2121.99607,1339.63088,2122.2798Z" style="fill: #fff297"/>
    <path d="M2028.16419,2316.72052c.63752,122.36844-9.81266,243.26621-61.53015,356.52773-9.31615,20.403-22.93921,38.85165-34.79657,58.06511-1.29764,2.10276-4.07511,3.292-6.16586,4.9054-1.0561-2.34616-2.66821-4.59708-3.08865-7.05221-19.12136-111.67272-11.10715-218.42774,57.37025-314.09977,3.72259-5.20114,6.532-11.10187.54414-15.44525-7.11771-5.16281-12.304.5992-16.68211,5.81749-45.06456,53.71286-61.74037,118.116-69.20115,185.75882-5.82608,52.82107-.57932,105.0338,10.29716,156.86727,2.19958,10.48236,7.90682,13.22264,17.92426,16.02728,39.1554,10.964,72.26849,31.82976,90.839,69.40951,12.51819,25.33213,1.67045,46.02084-18.8508,62.66648-75.12018,60.93239-250.95007,33.46289-297.37476-50.54727-23.03273-41.68-22.27251-92.63888-32.62087-139.3164-24.45778-110.31873-43.22178-221.8882-72.797-331.07719-1.2729-4.69947-4.9197-8.7557-7.46078-13.11167-.0798,4.80787-.82572,9.71242-.14286,14.40931,21.32023,146.66006,55.36844,290.88071,83.99529,436.14016,2.2748,11.54289-.54143,16.39309-11.76,18.67318-163.3127,33.19118-327.29553,36.14054-491.94977,11.48541-7.86434-1.17809-8.99324-5.35845-7.76367-12.3812q37.79634-215.85391,75.20641-431.77589c1.58194-9.143,6.16-24.68488-1.50785-26.09578-7.96331-1.465-8.15193,14.70962-9.81066,23.34377q-45.313,235.86849-89.97881,471.862c-.66884,3.50537-2.08246,8.37359-4.68189,9.7882-86.25464,46.93465-176.64317,71.64871-274.18737,42.91618-51.09-15.04855-57.8471-48.605-19.40981-85.073,10.62108-10.07707,22.72956-21.63827,36.103-25.19369,40.976-10.89336,44.03706-42.988,45.89028-75.52446,5.92918-104.10254-20.8955-200.86028-68.23865-292.64369-2.56-4.96289-5.30689-14.24256-12.91761-10.176-7.43876,3.97442-1.20733,11.09213,1.15263,16.37621,42.975,96.2209,68.36821,195.62253,54.59413,302.04921-.92753,7.16576-4.03649,14.0495-6.13067,21.06425-6.20319-4.37971-13.183-7.978-18.492-13.257-72.95313-72.53877-102.9597-165.21454-119.84731-262.941-31.358-181.4652-11.11716-358.08592,54.77146-529.73774,1.09629-2.85584,2.6522-5.53549,3.99367-8.29723,2.07452,2.56268,4.5556,4.89482,6.15963,7.72406,13.94318,24.59564,29.591,47.69229,52.4449,65.21542,8.36007,6.40983,12.4725,5.56323,15.15129-4.88538,5.5272-21.55962,11.61354-42.97624,17.46979-64.45148,17.02,14.23112,33.5996,29.03112,51.13131,42.60127,111.834,86.56368,238.26613,134.94012,379.67142,141.84789,172.89384,8.44567,325.569-44.80957,459.35494-153.86013,2.5568-2.08417,5.91974-3.17988,8.90628-4.73665a79.18056,79.18056,0,0,1,2.413,8.53461c1.5662,9.21361,3.02687,18.44867,4.30191,27.7066,1.45337,10.55215-.12828,26.006,8.85952,28.94819,6.07777,1.98921,17.92412-9.99471,25.66776-17.33493,49.24506-46.67839,81.54059-104.04734,104.08653-167.41656a86.33178,86.33178,0,0,1,3.82584-8.08957c1.51143,2.5498,3.32833,4.968,4.4904,7.668,51.39344,119.4125,74.01746,245.08067,80.5863,374.11005C2029.26576,2265.98334,2028.16419,2291.3801,2028.16419,2316.72052Zm-86.29469,566.31817c-1.6962-27.56331-7.61008-51.63927-30.8197-67.70573-4.71864-3.266-10.35766-5.22288-14.90011-.39327-4.05323,4.30964-1.43779,8.71852,2.35431,12.15782,21.00562,19.05043,27.13129,42.63216,21.73552,69.94235-1.23743,6.26224.19649,12.17527,7.61265,13.48692,6.72458,1.18895,10.125-3.40813,11.35627-9.21332C1940.57358,2894.87818,1941.13788,2888.27272,1941.8695,2883.03869Zm-1062.05474-5.02981c-.42473,12.57024.2484,23.63149,10.5181,30.60791,2.58913,1.759,7.64069,1.8934,10.523.54914,2.07645-.96844,4.30291-6.72873,3.2747-8.47426-15.44082-26.21791-1.63657-43.709,16.96411-60.21221,3.72174-3.30173,10.56859-6.98385,5.9432-13.12368-4.49812-5.97051-11.38087-3.84086-16.87317-.36295C890.9824,2839.14092,877.88617,2854.99173,879.81476,2878.00888Zm141.91467-48.80031c-15.39634,2.54465-26.171,8.95019-29.034,23.44215-3.60776,18.263-8.4388,37.32606,9.171,51.72679,1.97534,1.6154,8.5.89894,10.09938-1.04824,2.15682-2.62616,2.9159-7.86305,1.95747-11.34125-5.10832-18.53389-7.54987-35.92345,11.71565-48.6656,2.09018-1.38287,3.60318-6.34118,2.76531-8.71737C1027.4973,2832.03237,1023.52073,2830.54138,1021.72943,2829.20857Zm818.80885,58.27962c-2.62531-21.15005-5.79318-42.32527-22.44483-58.45066-4.32794-4.19037-9.29369-6.83-14.44463-2.291-5.54464,4.88624-.99261,9.30113,2.27351,12.96752,15.6067,17.522,21.59866,37.40986,16.10236,60.57173-1.29063,5.43852-1.502,11.65329,5.9595,12.999,7.69459,1.388,10.26985-3.306,10.57317-10.34336C1838.77444,2897.90676,1839.81238,2892.90727,1840.53828,2887.48819Z" style="fill: #fff297"/>
    <path d="M2189.25443,2600.07138c-44.698.76651-87.91223-6.78822-130.19789-20.2534-3.528-1.12317-6.718-3.308-10.06492-4.99979,3.63922-1.17036,7.1985-2.83953,10.92939-3.43873,116.17084-18.65688,211.82114-73.24465,283.17181-166.80048,153.90532-201.80154,125.73224-499.79566-61.78642-668.65486-2.68823-2.42053-4.36026-5.96937-6.50649-8.99181,3.72359-1.91714,7.29789-5.10074,11.19338-5.56022,52.54164-6.19889,93.99,19.10907,133.65535,48.38387,10.89851,8.04353,19.77233,18.78187,30.08709,27.69116,3.48248,3.00785,8.772,6.19346,12.83309,5.73455,6.23908-.70488,5.367-7.38384,5.7663-12.42481.3272-4.13074,1.18838-8.21928,1.81332-12.32642,3.62091,2.505,7.7598,4.50183,10.78925,7.58791,170.1574,173.33729,196.61528,447.37158,57.08408,638.48026C2452.95937,2541.00437,2334.5113,2599.29428,2189.25443,2600.07138Z" style="fill: #fff297"/>
    <path d="M2000.02585,1365.33045c-61.78513-2.6123-81.60222-12.286-70.58331-96.16227,12.32171-93.79193,12.47916-188.5134-23.137-279.00589-24.42518-62.05942-71.65985-79.53421-131.53485-49.84254-6.22277,3.08607-9.21947.0316-13.433-2.68208-28.17494-18.14578-55.23787-38.56135-85.06969-53.399-19.66379-9.7802-21.85593-21.1542-17.66027-39.18214,9.18743-39.47587,30.59375-68.54289,70.4935-79.97624,43.06819-12.3413,74.6135,10.168,104.84073,37.04,115.1708,102.38717,237.866,193.29853,384.08388,247.565,14.96218,5.55307,30.54757,9.475,45.36559,15.35815,38.61369,15.33056,50.4732,38.15421,35.42236,77.23024-30.30617,78.681-90.31788,131.52785-160.30771,173.83167C2094.20991,1342.87918,2047.07934,1363.45335,2000.02585,1365.33045Z" style="fill: #fff297"/>
    <path d="M709.70125,1362.64951c-88.62883-10.39455-170.775-62.50274-239.763-138.45622-20.52433-22.59656-38.50872-47.26041-49.37391-76.22275-17.84668-47.57146-8.46254-73.20833,39.568-87.50581C606.14206,1017.00127,725.483,929.043,842.26353,836.40283c23.48914-18.63371,44.60258-40.2963,68.35234-58.55834,30.04189-23.10022,63.57915-24.85849,96.78691-7.18635,32.74743,17.427,56.73873,62.3533,53.03415,94.39456-.68628,5.93619-4.60308,7.62581-8.721,9.758a708.853,708.853,0,0,0-97.13084,60.80539c-3.41256,2.53765-6.217,6.00941-11.24143,2.906-75.25346-46.48546-126.32764,14.822-143.37928,77.52855-25.05383,92.1342-22.01467,185.39172-10.502,278.66483C795.30078,1342.01771,777.33419,1363.07924,709.70125,1362.64951Z" style="fill: #fff297"/>
    <path d="M2128.04747,2732.7949q-77.01315,0-154.026-.0858c-3.65438-.00887-7.30576-1.24444-10.95871-1.90971,1.27147-3.10953,2.152-6.45644,3.87375-9.29283,22.8381-37.6258,38.66989-78.20811,50.38153-120.43957,2.19214-7.9051,4.84319-8.28893,12.04284-5.84953,50.424,17.0861,97.94384,42.09217,150.702,53.14713,16.71914,3.50336,28.54976,18.02508,30.17288,36.62676,1.67975,19.25092-11.01634,30.10624-26.38293,37.62522C2166.37743,2731.1672,2147.36332,2733.35577,2128.04747,2732.7949Zm-74.28145-27.1217c-.564-20.52741-5.87569-35.52619-19.68524-46.55369-4.47137-3.57029-10.47134-6.11637-14.87908-1.58794-5.87727,6.038,2.12207,8.6107,5.09045,11.6041,9.04615,9.12151,14.54917,19.6093,12.42739,32.48988-1.00705,6.11494-7.56661,12.16182.37582,17.47908,2.34816,1.57192,7.03633,1.72351,9.63361.44961C2053.74329,2716.11265,2054.06848,2709.192,2053.766,2705.6732Zm72.4933-14.54631c-1.08227-11.47-5.24547-23.03545-15.01937-31.822-4.33652-3.89864-9.84913-5.54178-14.72278-.7402-4.87652,4.80472-.50567,8.76771,2.40279,12.08431a46.03028,46.03028,0,0,1,11.31751,26.38122c.61178,5.73856-9.07432,16.18659,3.45217,16.255C2123.57538,2713.33919,2126.10487,2702.0926,2126.25932,2691.12689Z" style="fill: #fff297"/>
    <path d="M797.86405,2785.68284c-44.38206,0-89.11336-1.23752-133.495-1.0968-34.28275.109-61.66008-33.69-53.47211-66.99442,3.05182-12.41323,10.98788-18.72266,24.25829-23.29286,40.46791-13.93681,80.10373-30.37,119.67063-46.77905,8.3206-3.45046,11.21348-2.31956,14.72542,5.37531,20.18348,44.223,44.49511,85.82206,78.9323,120.77078a32.59835,32.59835,0,0,1,3.22579,4.626c-2.06966.56287-4.13538,1.59652-6.20969,1.614C829.50766,2780.04159,797.86591,2784.15925,797.86405,2785.68284Zm-122.10219-34.2322c2.08768,7.20551-.91574,20.1001,10.89965,20.60577,13.65217.584,9.58149-12.46128,9.85049-20.62408.43266-13.12883,7.06107-22.82637,15.51053-31.80344,3.8257-4.0651,6.0561-8.75542,2.51762-13.63078-3.86453-5.32413-9.28182-3.16731-13.71465-.61322C683.55921,2715.33241,677.27952,2731.4964,675.76186,2751.45064Zm80.25489-4.26759c1.23543,5.25977-2.75651,21.3125,12.83224,20.29887,15.38547-1.00075,4.14-14.70476,5.54042-22.63045,1.12717-6.37893,2.60786-12.705,4.17256-18.99466,1.93459-7.77611,17.52413-14.82717,6.75791-22.0161-10.634-7.10083-16.83749,6.76877-22.82287,14.49054C757.04983,2725.35886,754.46056,2733.44873,756.01675,2747.18305Z" style="fill: #fff297"/>
    <path d="M804.35508,1086.8398c5.35187-43.97485,15.053-84.42988,41.47424-118.57634,21.11988-27.295,48.69163-31.04809,79.68594-18.8508,8.00134,3.14885,8.37673,5.92932,1.58708,11.63956a673.20228,673.20228,0,0,0-114.6012,124.42244c-1.71893,2.40494-4.16941,4.287-6.27926,6.41269C805.37243,1089.59053,804.523,1087.2937,804.35508,1086.8398Z" style="fill: #d4d4d4"/>
    <path d="M1814.47754,945.3314c29.50562-.24382,46.81209,10.95228,59.92691,29.68524,23.30887,33.29414,32.35087,71.44706,37.55758,110.87689.22738,1.72065-.25755,3.53511-.41071,5.306-1.502-1.04767-3.44974-1.78114-4.44149-3.18847a679.93192,679.93192,0,0,0-117.72059-128.15c-4.79414-4.04908-3.42071-6.32331,1.57264-7.8223C1800.5902,949.14838,1810.29561,946.51564,1814.47754,945.3314Z" style="fill: #d4d4d4"/>
    <path d="M1941.8695,2883.03869c-.73162,5.234-1.29592,11.83949-2.66106,18.27477-1.23128,5.80519-4.63169,10.40227-11.35627,9.21332-7.41616-1.31165-8.85008-7.22468-7.61265-13.48692,5.39577-27.31019-.7299-50.89192-21.73552-69.94235-3.7921-3.4393-6.40754-7.84818-2.35431-12.15782,4.54245-4.82961,10.18147-2.87271,14.90011.39327C1934.25942,2831.39942,1940.1733,2855.47538,1941.8695,2883.03869Z" style="fill: #010101"/>
    <path d="M879.81476,2878.00888c-1.92859-23.01715,11.16764-38.868,30.34992-51.016,5.4923-3.47791,12.375-5.60756,16.87317.36295,4.62539,6.13983-2.22146,9.822-5.9432,13.12368-18.60068,16.50321-32.40493,33.9943-16.96411,60.21221,1.02821,1.74553-1.19825,7.50582-3.2747,8.47426-2.88229,1.34426-7.93385,1.20983-10.523-.54914C880.06316,2901.64037,879.39,2890.57912,879.81476,2878.00888Z" style="fill: #020202"/>
    <path d="M1021.72943,2829.20857c1.7913,1.33281,5.76787,2.8238,6.67482,5.39648.83787,2.37619-.67513,7.3345-2.76531,8.71737-19.26552,12.74215-16.824,30.13171-11.71565,48.6656.95843,3.4782.19935,8.71509-1.95747,11.34125-1.59938,1.94718-8.124,2.66364-10.09938,1.04824-17.60979-14.40073-12.77875-33.46375-9.171-51.72679C995.55843,2838.15876,1006.33309,2831.75322,1021.72943,2829.20857Z" style="fill: #020202"/>
    <path d="M1840.53828,2887.48819c-.7259,5.41908-1.76384,10.41857-1.98092,15.45325-.30332,7.03734-2.87858,11.73138-10.57317,10.34336-7.46149-1.34569-7.25013-7.56046-5.9595-12.999,5.4963-23.16187-.49566-43.04975-16.10236-60.57173-3.26612-3.66639-7.81815-8.08128-2.27351-12.96752,5.15094-4.539,10.11669-1.89941,14.44463,2.291C1834.7451,2845.16292,1837.913,2866.33814,1840.53828,2887.48819Z" style="fill: #020202"/>
    <path d="M2053.766,2705.6732c.30246,3.51881-.02273,10.43945-7.03705,13.881-2.59728,1.2739-7.28545,1.12231-9.63361-.44961-7.94243-5.31726-1.38287-11.36414-.37582-17.47908,2.12178-12.88058-3.38124-23.36837-12.42739-32.48988-2.96838-2.9934-10.96772-5.56609-5.09045-11.6041,4.40774-4.52843,10.40771-1.98235,14.87908,1.58794C2047.89033,2670.147,2053.202,2685.14579,2053.766,2705.6732Z" style="fill: #020202"/>
    <path d="M2126.25932,2691.12689c-.15445,10.96571-2.68394,22.2123-12.56968,22.15824-12.52649-.06836-2.84039-10.51639-3.45217-16.255A46.03028,46.03028,0,0,0,2098.92,2670.649c-2.90846-3.3166-7.27931-7.27959-2.40279-12.08431,4.87365-4.80158,10.38626-3.15844,14.72278.7402C2121.01385,2668.09144,2125.177,2679.65693,2126.25932,2691.12689Z" style="fill: #020202"/>
    <path d="M675.76186,2751.45064c1.51766-19.95424,7.79735-36.11823,25.06364-46.06575,4.43283-2.55409,9.85012-4.71091,13.71465.61322,3.53848,4.87536,1.30808,9.56568-2.51762,13.63078-8.44946,8.97707-15.07787,18.67461-15.51053,31.80344-.269,8.1628,3.80168,21.20812-9.85049,20.62408C674.84612,2771.55074,677.84954,2758.65615,675.76186,2751.45064Z" style="fill: #020202"/>
    <path d="M756.01675,2747.18305c-1.55619-13.73432,1.03308-21.82419,6.48026-28.8518,5.98538-7.72177,12.18892-21.59137,22.82287-14.49054,10.76622,7.18893-4.82332,14.24-6.75791,22.0161-1.5647,6.2897-3.04539,12.61573-4.17256,18.99466-1.40046,7.92569,9.84505,21.6297-5.54042,22.63045C753.26024,2768.49555,757.25218,2752.44282,756.01675,2747.18305Z" style="fill: #020202"/>
    <g>
      <path d="M980.70569,1031.42053c108.54553-102.22778,227.67468-143.626,289.73743-164.49444,9.10009-3.06,16.6206-5.41925,21.52319-6.92609h-23.179a582.14864,582.14864,0,0,0-183.77624,50.21411,598.64425,598.64425,0,0,0-187.08753,135.0586,612.91752,612.91752,0,0,0-94.77386,134.63134l6.46948,83.85352a72.82833,72.82833,0,0,0,3.86664-7.23938c.33789-.74182,12.30939-24.75452,41.391-69.26087C878.54779,1151.03174,918.30261,1090.19165,980.70569,1031.42053Z" style="fill: #f4f4f4;opacity: 0.2"/>
      <path d="M1388,2802a1421.26343,1421.26343,0,0,1-241-17l-8,67c45.06946,7.02441,82.84155,10.81567,110,13,178.14819,14.32861,314.595-7.10083,373-18,22.60217-4.218,41.03479-8.26172,53-11l-12-65A1421.715,1421.715,0,0,1,1388,2802Z" style="opacity: 0.21"/>
      <path d="M1156,1719a469.6437,469.6437,0,0,0,452,6l1-22a469.6437,469.6437,0,0,1-452-6Z" style="opacity: 0.2"/>
      <path d="M882.9483,1945,880,1969.20886c32.28052,32.50513,206.39355,201.33631,476.63794,196.69739,237.157-4.0708,393.87476-139.066,433.39648-175.51465L1792,1966.18286c-39.52173,36.44849-195.25684,171.4436-432.41382,175.51441C1089.3418,2146.33618,915.22882,1977.50513,882.9483,1945Z" style="opacity: 0.2"/>
      <path d="M934.67387,954.06542c-1.36111-5.01121-21.70836-10.06782-21.70849-10.06782-17.54438-3.40946-24.32357-3.6245-39.72887,2.72a67.51145,67.51145,0,0,0-17.78669,11.09947,68.79738,68.79738,0,0,0-9.20263,9.61839L862.42807,980.207l21.38251,16.67834,3.57117,2.71964,45.504-41.7299a3.10229,3.10229,0,0,0,1.78817-3.80967Z" style="opacity: 0.2"/>
      <path d="M1787.13259,954.06542c1.36111-5.01121,21.70836-10.06782,21.70849-10.06782,17.54438-3.40946,24.32357-3.6245,39.72887,2.72a67.51146,67.51146,0,0,1,17.78668,11.09947,68.79754,68.79754,0,0,1,9.20264,9.61839L1859.37839,980.207l-21.38251,16.67834-3.57117,2.71964-45.504-41.7299a3.1023,3.1023,0,0,1-1.78816-3.80967Z" style="opacity: 0.2"/>
      <path d="M429.191,1120.8877c42.13534,81.262,76.85385,112.44921,76.85391,112.44934-.20538-.64136,130.8103,124.08239,229.2135,109.7528,13.60468-13.51831,3.72107-29.82837-13.235-26.97717-92.24073-4.48865-225.35474-87.19726-271.79383-216.80188C432.87683,1089.33228,421.04178,1106.96606,429.191,1120.8877Z" style="fill: #f4f4f4;opacity: 0.2"/>
      <path d="M2282.3223,1122.8877c-42.13535,81.262-76.85386,112.44921-76.85392,112.44934.20539-.64136-130.8103,124.08239-229.2135,109.7528-13.60467-13.51831-3.72107-29.82837,13.235-26.97717,92.24072-4.48865,225.35473-87.19726,271.79382-216.80188C2278.63647,1091.33228,2290.47153,1108.96606,2282.3223,1122.8877Z" style="fill: #f4f4f4;opacity: 0.2"/>
      <path d="M1062.34827,870.618a116.24779,116.24779,0,0,0-4.46448-33.06c-2.8241-9.84753-11.799-41.1419-42.62354-61.35284-3.40966-2.23566-31.73419-20.38879-67.87585-15.21472-6.52509.93414-25.00806,3.5802-25.79559,10.12951-1.13453,9.43451,35.88122,15.0738,70.10785,37.20594,30.73687,19.87555,49.1311,46.52539,60.01928,66.48486Z" style="opacity: 0.2"/>
      <path d="M1656.82868,870.618a116.24779,116.24779,0,0,1,4.46448-33.06c2.8241-9.84753,11.799-41.1419,42.62353-61.35284,3.40967-2.23566,31.7342-20.38879,67.87586-15.21472,6.52508.93414,25.00806,3.5802,25.79559,10.12951,1.13452,9.43451-35.88122,15.0738-70.10785,37.20594-30.73687,19.87555-49.1311,46.52539-60.01928,66.48486Z" style="opacity: 0.2"/>
      <path d="M2049.80005,2576.417c-6.29443-32.74585,220.98071-46.57715,386.6831-202.74292,33.86231-31.91333,111.72-105.29,145.61792-221.66284,16.801-57.67871,25.76031-114.80242,33.482-114.46148,8.20044.36206,15.30524,77.58343,11.42194,141.20306-2.72022,44.56494-12.12136,131.89676-75.30837,230.5618-52.49268,81.96582-119.74131,119.20077-133.42246,127.98422-70.00659,44.94458-132.83936,55.4375-184.41772,64.051-30.971,5.17212-96.33472,13.4878-165.66724-12.98388C2054.30176,2583.06348,2050.54541,2580.29443,2049.80005,2576.417Z" style="opacity: 0.21"/>
      <path d="M2301.719,1732.191c2.23511-4.90906,40.44068,8.5636,43.68555,9.70789,41.13037,14.504,66.27417,37.83178,79.28076,50.15722,12.3899,11.741,18.58472,17.61145,17.39331,19.41577C2436.82153,1819.43384,2297.28076,1741.93872,2301.719,1732.191Z" style="fill: #f4f4f4;opacity: 0.2"/>
    </g>
  </g>
</svg>
