<svg id="Layer_3" data-name="Layer 3" xmlns="http://www.w3.org/2000/svg" viewBox="0 0 3000 3000">
  <title>2</title>
  <g>
    <path d="M1354.64122,2122.41933q-258.953-2.56607-448.29689-179.27985c-6.42255-5.99708-8.53131-11.39489-6.2983-20.30639,7.09939-28.335,13.11132-56.94246,19.5116-85.45182,1.56132-6.95528,3.83333-15.26365-5.567-17.50723-9.65632-2.30472-11.12553,6.32771-12.43649,13.25414-12.25551,59.25106-20.38313,119.66789-34.83765,178.30923-62.64433-62.9211-83.80659-150.28038-96.92484-235.20209.31556-101.93852-53.43869-9.3691-80.70556,23.58154-22.2709-71.496-12.91523-149.89116,18.13927-218.03608,11.15511-22.91291,2.03865-45.41076.31579-67.586-24.69066-317.79737,212.512-621.56237,528.269-675.24621,439.05659-85.44,835.28838,304.09723,758.64291,744.33446-7.10219,36.83393,16.56209,66.23335,19.08689,100.68539,1.95947,44.91329,8.55783,91.56918-2.77874,135.41815-17.81653-24.20013-34.53188-49.258-63.50371-61.42421-11.18078-4.91478-19.51314-6.16147-19.24863,11.596.22618,95.44369-41.25955,180.58878-110.03887,243.74945-4.83874-16.1443-17.54048-139.69736-37.55049-131.80759-6.747,2.40452-4.57421,8.84749-3.32152,14.221,15.09654,64.76195,15.18809,64.8982-38.99777,103.71058C1623.49558,2081.52147,1495.29492,2121.40244,1354.64122,2122.41933Z" style="fill: #97e197"/>
    <path d="M1685.00776,2834.90617c7.23192-2.50424,3.33417-7.8672,2.52952-11.76794-25.50054-123.6265-54.73472-246.62887-75.28234-371.06717-5.73756-135.95065-134.09328-251.96879-270.17177-203.27416-67.23375,21.88483-110.72925,68.1805-123.87357,139.33629-27.45091,148.60317-53.92663,297.38915-82.304,445.81322-1.3791,7.21329-.33463,11.89815,1.93766,15.5645,2.62451,4.23466,6.887,7.1106,10.945,10.95435-73.01872,65.42463-248.54679,105.8633-329.43715,43.8897-21.72039-19.38977-19.72-41.12438-2.46894-62.0909,20.25776-24.62076,46.61966-41.70652,75.78157-53.3842,20.22656-8.09885,17.62706-25.71077,19.173-40.08406,11.96875-111.28985-17.51494-213.84386-68.38926-311.51622-2.07456-3.98273-4.95149-9.86813-10.35044-6.53924-6.57987,4.05785-1.45756,9.859.66027,14.42214,44.77367,101.41045,77.835,215.36184,48.6353,325.63729-208.32952-190.52537-174.61948-574.2735-78.87838-815.35191,18.07453,26.31065,32.41562,54.96013,59.20671,74.20887,6.9254,5.27572,10.96026,6.2809,13.46878-3.93571,5.51906-22.47786,11.72667-44.78662,17.6532-67.16421,247.148,237.49457,639.47,249.27754,898.39275,25.42255,6.22933,22.44559,7.68922,45.99065,14.30588,68.47846,69.50321-44.07372,105.69771-120.64181,134.58922-194.73459,104.45793,248.43614,142.71574,647.60892-16.7737,878.0735-26.83224-111.92589-14.68889-225.73279,54.25074-322.69275,3.454-4.76266,5.96348-10.11219.08679-14.34-6.47611-4.65913-11.02327.56072-14.79819,4.96392-76.302,92.61572-83.27122,220.59706-62.14838,333.89657,2.4039,12.56927,7.75086,19.32359,21.56,23.33345,51.0338,13.45914,134.85721,73.712,79.34069,127.842C1920.30766,2974.11391,1739.071,2931.47324,1685.00776,2834.90617Z" style="fill: #97e197"/>
    <path d="M755.93589,1180.45038c-17.16717,40.94214-34.58671,81.7813-45.32355,125.07-2.4506,9.88041-8.15605,2.76346-11.37725.92434-19.338-13.6934-37.54555-25.98184-53.5965-42.55923C522.8991,1137.12042,494.30709,930.30226,520.30844,760.06475c2.726-15.254,7.74694-22.42662,23.91586-15.4145,22.34524,2.66513,59.39453,30.69754,48.64994-16.75111-3.05167-13.86073,4.48289-20.62962,20.20014-18.488q202.40279,27.57839,361.32994,155.65371c20.84882,20.66612,38.144,41.08837.25718,61.6554-24.4509,13.67021-44.67189,34.90723-66.78184,52.76524-17.33122-65.8612-133.52751-115.06842-191.361-141.74088-24.65856-10.88344-40.282-2.89856-39.914,24.03634,2.69888,45.87948-51.49913-28.65481-57.66963,30.51636-6.73389,100.07054,22.05443,206.072,90.358,281.54833C720.60037,1185.44985,736.20614,1209.46405,755.93589,1180.45038Z" style="fill: #97e197"/>
    <path d="M1796.71464,967.618c-29.00324-20.9748-58.08831-41.83763-86.96058-62.9911-8.85281-6.48611-1.55433-13.09876,1.76827-18.15707,20.53291-31.259,51.26244-51.17375,82.47842-69.46907,91.11855-53.40348,186.75942-94.8722,293.06607-107.61,41.29418-3.936,13.80217,30.26864,24.46786,43.4395,4.77889,4.67457,9.99931,2.72034,15.29086,1.00691,53.26223-17.2483,55.981-17.49524,61.28224,37.54826,15.11989,165.90648-14.855,344.36591-128.40241,469.03259-13.37778,14.68782-27.83135,26.03715-43.59481,39.20466-7.18194,6.28765-11.05413,5.251-13.82373-4.95342a604.22494,604.22494,0,0,0-43.5502-114.51933c16.14814,1.44165,28.051-7.44844,37.46014-18.27932,66.54751-76.60445,93.05751-168.1022,92.082-267.28647-.44618-45.36418-4.89079-45.4553-47.61306-30.53886-23.70059,10.585,7.54233-63.62756-53.45379-38.456C1921.04694,856.88181,1823.84887,894.10021,1796.71464,967.618Z" style="fill: #97e197"/>
    <path d="M1796.71466,967.618c27.03937-73.45648,124.39492-110.76548,190.49428-142.03414,61.06275-25.15352,29.736,49.13822,53.4554,38.4623,42.70188-14.90972,47.16385-14.8263,47.6138,30.46871a1.16807,1.16807,0,0,0,.0092.13594c3.48063,27.33334-1.64336,75.33363-15.56261,124.16592-1.64677,5.7773-4.47147,14.39892-7.64952,23.44837-4.65466,13.25405-10.06728,27.42585-13.64718,34.92321-37.68182,78.91687-53.976,90.665-73.23732,99.35325a36.77252,36.77252,0,0,1-13.30328,3.64116c-1.8724.09923-3.55169-.24707-5.30333.01232a1.39088,1.39088,0,0,1-1.28043-.82787c-46.29449-83.63932-95.83963-157.84067-159.26161-209.64282-.05142-.042-1.76959-1.71513-2.37991-2.304Z" style="fill: #caf0ca"/>
    <path d="M755.93589,1180.45038c-19.72975,29.01367-35.33552,4.99947-46.63715-6.60651-68.31336-75.44814-97.09229-181.49355-90.36989-281.54611,6.21935-59.19547,60.37067,15.39254,57.67607-30.51563-.36827-26.93609,15.25521-34.921,39.91039-24.03524,57.8819,26.69282,173.9277,75.79931,191.36435,141.73859C847.11734,1038.8729,795.3,1105.04018,755.76244,1180.53622Z" style="fill: #caf0ca"/>
    <path d="M2060.5851,2731.29728c-33.919,0-63.13435-.21452-92.343.136-8.30523.09941-9.55635-1.40336-4.91921-8.65814,24.15316-37.78635,39.96124-79.22607,51.9397-122.188,2.1976-7.882,4.55316-9.5422,12.63087-6.57323,46.34165,17.0315,91.37107,37.641,140.12955,48.08037,53.37673,10.58454,53.53076,75.97864-1.58542,84.76405C2130.00047,2737.07613,2092.632,2726.63929,2060.5851,2731.29728Z" style="fill: #97e197"/>
    <path d="M2050.216,2316.068c-15.94252-115.70269-9.65675-123.71856,86.95123-188.46883,1.80728,25.74531-7.0947,51.651-21.17287,73.4187-4.89223,8.54826,2.23356,15.03171,8.91248,6.947,15.3695-12.64692,28.311-28.85925,45.73752-38.63656,17.01552,52.73569-69.58748,212.7665-119.89871,236.20745" style="fill: #97e197"/>
    <path d="M751.60375,2782.9062c-51.0771-2.96984-144.06738,18.89679-141.62658-59.00054,1.3375-14.33271,6.54528-24.56761,23.42474-30.29961,41.99488-14.261,82.9143-31.755,123.937-48.74392,6.43405-2.6642,8.04515-2.16746,10.71813,3.74793,20.46406,47.73617,48.84862,89.94519,83.44382,128.56527" style="fill: #97e197"/>
    <path d="M755.76244,1180.53622q1.44381-2.46668,2.88907-4.93478Q757.20833,1178.06768,755.76244,1180.53622Z" style="fill: #ff9333"/>
    <path d="M1796.66209,967.42032q1.26183,1.22306,2.52423,2.44625Q1797.9247,968.64352,1796.66209,967.42032Z" style="fill: #ff9333"/>
    <path d="M1799.04207,969.72432q1.30232,1.30489,2.60607,2.61121Q1800.34624,971.03128,1799.04207,969.72432Z" style="fill: #ff9333"/>
    <path d="M1382.8398,2857.96731c-76.84438-1.00489-146.75277-5.93824-216.25526-16.43107-8.48647-1.2814-12.01973-3.29833-10.33629-13.0262,26.23963-151.62785,51.57707-303.41394,78.29273-454.957,15.54772-88.19357,130.0402-142.1462,225.80047-106.32193,71.14693,26.61626,115.8717,75.22764,129.87266,153.02321,23.46219,130.36655,50.5112,260.09325,76.84324,389.9285,2.76189,13.61776-.999,17.39026-13.21144,20.099C1562.38158,2850.56771,1469.38635,2854.8715,1382.8398,2857.96731Z" style="fill: #caf0ca"/>
    <path d="M2178.7876,2628.33c-28.77917-8.52606-57.95486-17.49409-86.16832-26.16722-20.46243-6.28873-41.61967-12.79237-62.46354-19.07769-6.73544-2.03141-8.65952-3.95562-6.78-11.34125,9.97243-39.18908,17.33411-82.1704,22.5077-131.39815l.02845-.27082c.40915-3.9087.73248-6.99593,4.887-9.99978,40.70632-29.42366,72.847-65.80556,95.52823-108.13559,21.38552-39.91014,35.08371-86.478,40.71459-138.40794,1.32858-12.26093-4.79435-24.46133-15.23634-30.35816a6.74806,6.74806,0,0,0-3.31113-.95761c-3.53991,0-6.11175,3.33059-8.83335,6.85663-2.08514,2.7-4.24224,5.49231-6.86684,6.756a42.56567,42.56567,0,0,0-7.92728,5.4432c-.74707.60121-1.51262,1.21579-2.28376,1.81116.64327-4.80917,1.5435-9.66161,2.41747-14.36917,2.85653-15.39386,5.81005-31.31212.0423-47.09228-1.2751-5.07416-4.56679-8.22655-8.591-8.22655a9.79438,9.79438,0,0,0-7.03264,3.46089c-23.59635,28.41476-53.32486,51.45925-82.07559,73.74524l-.94375.73248c-13.79081-95.32864-29.52746-203.24118-79.95738-300.128-17.34651-33.723-22.03559-61.85675-15.163-91.09054,21.86772,12.3318,35.18666,36.57955,42.52318,54.8229a52.42792,52.42792,0,0,1,1.69909,6.73665c1.59843,7.73413,3.2506,15.73215,14.34838,15.73215l.46494-.00462c14.14052-.28334,17.55462-13.68919,19.81346-22.56009,18.68227-73.35553,16.2885-146.33753-7.11481-216.91883l-.35652-1.07283c-4.04241-12.17645-7.533-22.69271-5.06614-35.95914,14.34729-77.12943,14.90376-150.77863,1.65679-218.90223-6.09449-31.342-3.846-51.08461,25.437-65.63635l.07548-.03768.06272-.05713c64.58734-60.12338,115.87884-150.48787,144.42366-254.44674,28.10163-102.34487,31.397-206.65728,9.27434-293.734-7.32048-26.44546-18.31311-38.238-35.64382-38.238-7.00274,0-14.97111,1.959-24.32543,5.97737a19.72316,19.72316,0,0,1-6.36288,1.35053c-6.26806.0017-6.7995-6.21045-7.47145-14.07482-1.02932-12.045-2.43935-28.54148-27.85463-28.54148a94.15708,94.15708,0,0,0-18.09626,2.05263c-108.10338,19.458-302.157,71.31263-388.0477,200.01215-117.42355-55.04637-232.01342-82.95485-340.60071-82.95485-113.04517,0-223.296,30.21364-327.68054,89.79714-.60667.33081-1.21736.74038-1.80811,1.13629-1.226.821-2.49363,1.67046-3.53912,1.671-.45813,0-1.85212,0-3.05812-4.09953l-.01653-.05659-.028-.05251C978.17825,824.65643,894.94456,776.69515,831.4255,748.329c-73.80918-32.96155-162.42833-57.27549-231.25129-63.45057a28.534,28.534,0,0,0-3.66024-.25192c-13.53208,0-14.94429,11.33949-16.30965,22.30532-1.2683,10.18837-2.46628,19.8117-13.27159,19.81285-3.85844.00055-8.63783-1.17-14.60268-3.5757-6.41326-2.70391-12.2718-4.075-17.41221-4.075-13.42129,0-21.95913,8.98006-25.36,26.62711-27.52,88.40838-24.45561,208.10214,8.19683,320.18058,16.34679,56.10894,39.83356,108.90212,67.9209,152.67257,30.51527,47.55152,65.90766,84.41891,105.267,109.615,10.18606,4.67437,11.23148,8.84355,9.20171,19.0022a657.09253,657.09253,0,0,0-7.27362,210.71008c-21.80318,46.44562-34.62228,88.3174-39.19084,128.00144-5.245,45.5669.11366,88.91617,16.39766,132.559,4.30691,9.54736,9.316,14.18854,15.3145,14.18854,11.80674,0,24.82295-18.47539,37.41067-36.343,9.07147-12.87672,17.65563-25.06119,25.03725-29.31036,8.0066,51.5701,18.58625,106.24445,41.28808,157.00561,1.36706,3.19456,2.02175,8.10766.63585,11.30126-51.4147,109.15008-79.36323,226.81917-83.07088,349.735-3.33344,110.50055,12.85,228.67361,48.10295,351.2581-38.22424,12.26531-79.04384,25.85872-124.76566,41.55063-16.86607,5.78842-28.92255,16.04176-34.86394,29.651-5.97566,13.68579-5.27928,29.62592,2.01379,46.09482,12.598,28.449,36.16074,43.74687,68.12828,44.24281,9.78444.38508,20.18529.57252,31.79669.57252,15.74012,0,31.76072-.34837,47.254-.68557,15.47616-.33719,31.479-.68556,47.18369-.68556,19.08614,0,35.053.504,50.06532,1.58142-37.76264,24.8977-57.2795,58.79236-51.00281,88.77347,5.95567,28.4466,33.82994,48.71576,76.45821,55.60788a325.80046,325.80046,0,0,0,61.52016,5.546c42.63915,0,86.76709-7.41773,124.2555-20.88642,42.29758-15.19622,76.12-37.89793,97.82549-65.65775l7.79114-2.01342c85.47254,10.67051,160.80478,15.85675,230.299,15.85675,104.189,0,195.34466-11.48761,278.64284-35.1158,9.70622,33.61776,36.89036,61.652,78.65371,81.101,37.06054,17.25851,83.49133,26.76356,130.739,26.76477h.00341c34.86563,0,67.30456-5.20106,93.80423-15.03868,28.34267-10.523,48.49538-26.00725,58.28268-44.78081,13.32587-25.56407,7.877-56.00221-16.24049-90.52045-17.61624-19.87265-41.28807-31.09162-64.28807-41.8285,44.05647-4.33487,89.651-4.92562,133.76444-5.49571,23.67779-.30729,48.162-.62382,72.04615-1.51748,20.58691-.03744,39.12076-6.17325,53.59933-17.74643,13.33036-10.65447,21.80366-24.85662,23.85817-39.98987C2234.696,2669.02736,2222.4292,2640.48935,2178.7876,2628.33Zm-126.08307-426.35843c11.09206-23.6559,36.44584-41.48815,83.94363-73.32125,1.37453,23.26742-6.11491,48.80961-21.1638,72.07581-1.91156,3.35125-2.2349,6.75939-.86377,9.12a4.65666,4.65666,0,0,0,4.10975,2.39024c2.19843,0,4.55221-1.38474,6.54715-3.82069,5.46484-4.496,10.70236-9.51769,15.7685-14.37354,9.02078-8.6481,18.343-17.58549,29.25567-23.84675,8.591,28.55308-12.357,84.77336-34.97066,128.11449-27.44256,52.59626-61.09023,95.11373-84.06616,106.3327-1.47737-19.58263-1.29212-39.55836-1.11295-58.886.09506-10.24556.19327-20.83487.04352-31.2528M2166.2821,2726.2964c-11.315,3.17184-23.7461,4.64921-39.12052,4.64921-8.0712,0-16.15042-.39068-23.96441-.769-7.788-.37707-15.14249-.73346-22.46978-.73346a139.6569,139.6569,0,0,0-20.1425,1.26927c-9.61372,0-18.85026-.017-27.816-.03428-8.45507-.01483-16.67019-.03063-24.73215-.03063-15.95034,0-28.22622.0615-39.80171.2008l-.71862.00487c-3.72127,0-5.60657-.41377-6.11394-1.3405-.54043-.98484.20458-2.96593,2.4131-6.42244,21.65986-33.88518,38.186-72.76138,52.01012-122.34552,1.56866-5.62723,3.11349-7.52494,6.11953-7.52494a17.53131,17.53131,0,0,1,5.746,1.34366c12.05757,4.4309,24.2283,9.18294,35.99912,13.77939,33.47846,13.0734,68.09613,26.5912,104.21645,34.324,27.68786,5.49692,39.74895,25.459,39.41881,42.80434C2207.02391,2701.33355,2196.11126,2721.54,2166.2821,2726.2964Zm-279.41422,205.79832c-67.01555.00567-139.30727-22.00262-179.88711-66.62274-8.16036-8.97283-11.55489-26.6225-17.20233-36.64315a21.01373,21.01373,0,0,0-.938-3.358,21.43328,21.43328,0,0,1-.73018-2.44981c-7.67347-37.20093-15.81882-74.96636-23.69578-111.48757-18.2995-84.84313-37.2216-172.57439-51.58152-259.482-2.32631-55.23326-25.62-110.11328-63.911-150.566-39.4165-41.64253-90.21315-64.57616-143.03088-64.57616a189.81474,189.81474,0,0,0-63.983,11.32642c-33.97319,11.06-61.723,28.34036-82.47891,51.35981-21.2467,23.56547-35.30846,53.318-41.79483,88.43166-9.30218,50.358-18.64678,101.57944-27.68288,151.11351-17.63,96.64-35.8597,196.57065-54.62074,294.696-1.89029,9.89354.82717,14.9643,3.90079,18.54067-52.20826,46.33354-144.50309,79.92286-219.74672,79.92772-40.92815.0034-75.48984-9.879-99.91579-28.54968-19.92766-17.78192-20.76055-38.97076-2.408-61.2762,18.696-22.72116,44.11366-40.62536,75.54758-53.213,17.4054-6.9687,18.2606-21.14679,19.01472-33.65471.14508-2.40386.28164-4.674.52275-6.90914,10.82245-100.63424-11.56917-202.64107-68.45277-311.8495l-.15541-.2983c-1.65271-3.18083-3.91617-7.53636-7.67864-7.53636a6.41554,6.41554,0,0,0-3.34207,1.06846c-5.88881,3.63107-3.10546,8.64688-.86947,12.67689.4856.874.9432,1.69884,1.306,2.47922,36.051,81.68273,80.28066,204.06714,48.84729,324.31513-93.49737-85.91476-146.25061-219.96255-152.55818-387.7212-5.19815-138.23752,21.818-293.18315,74.13761-425.307,3.76423,5.51747,7.42046,11.20292,10.963,16.71249,13.17216,20.484,26.7928,41.6661,47.74929,56.72412,3.74308,2.8519,6.08822,4.01384,8.09569,4.01384,2.94957,0,4.8914-2.5524,6.2962-8.27565,3.91843-15.95837,8.25621-32.09943,12.45062-47.7093q2.48336-9.23946,4.94622-18.48451a661.868,661.868,0,0,0,216.85708,138.75753,672.75708,672.75708,0,0,0,247.12614,46.71644c159.99924,0,314.01243-56.85552,433.7793-160.11338,2.85191,10.507,4.72117,21.4266,6.53111,31.99659,2.012,11.75247,4.09151,23.905,7.533,35.59921l.21928.74392.65469-.416c68.22315-43.25458,104.91805-118.541,134.29479-193.66867,107.46023,256.96364,138.03671,650.13947-16.52846,875.09983-28.433-119.89037-9.61032-230.84359,54.46419-320.93543,1.98352-2.73764,4.18863-6.32884,3.62535-9.82036a8.264,8.264,0,0,0-3.67458-5.33818,9.13682,9.13682,0,0,0-5.31168-1.93441c-4.27555,0-7.60163,3.87685-10.282,7.00055-35.57186,43.1848-58.36036,96.841-67.73292,159.48057-8.01868,53.58547-6.17908,112.42913,5.466,174.89948,2.56735,13.4332,8.5212,19.88068,21.9843,23.78938,32.61007,8.59,85.5479,39.08527,95.606,77.26082,4.657,17.67909-.90267,34.36775-16.53891,49.61527C1974.35361,2916.92694,1934.52345,2932.0901,1886.86788,2932.09472Zm-730.04312-103.48517c10.38268-59.99429,20.79489-121.01694,30.86383-180.032,15.38025-90.13657,31.28368-183.34215,47.42875-274.92279,11.7628-66.72864,81.59472-117.0477,162.43361-117.0477a177.95064,177.95064,0,0,1,62.58607,11.17229c73.62064,27.54054,115.98046,77.45045,129.50166,152.57921,19.56889,108.73534,42.001,218.83039,63.69514,325.3q6.58452,32.32,13.14973,64.64107c2.73205,13.46869-.97,16.7949-12.76477,19.41123-89.27731,19.80094-179.08472,24.38718-270.87175,27.67084-80.20244-1.04755-148.89394-6.26709-216.17492-16.42319-4.43721-.67073-7.497-1.51626-9.039-3.65392C1156.36043,2835.53911,1156.10382,2832.7774,1156.82476,2828.60955ZM610.55908,2723.96208c1.50532-16.12393,8.178-24.75719,23.03087-29.80169,36.57262-12.41968,72.89964-27.5279,108.03094-42.138q7.97115-3.31479,15.94177-6.62009a14.98645,14.98645,0,0,1,5.25752-1.50022c1.86872,0,3.01181,1.20193,4.70111,4.937,19.48034,45.43793,46.54961,87.2606,82.735,127.822l-98.61845,5.66151c-3.5168-.20567-7.41584-.3051-11.921-.3051-6.92172,0-14.21309.23192-21.93233.47771-8.06828.257-16.41079.52317-24.6876.52317-25.4588,0-53.63694-2.21764-69.59817-18.67535C614.25189,2754.80816,610.0198,2741.58744,610.55908,2723.96208Zm144.32367-994.83437c-13.74863,0-33.55856,26.7762-51.03654,50.4-5.24208,7.08393-10.20775,13.79664-14.52153,19.07756-20.84223-68.1214-14.30729-144.99034,18.43145-216.56911,8.2745-17.00276,5.47978-33.891,2.77757-50.223-.96088-5.80421-1.95435-11.80729-2.40908-17.66425C683.39357,1195.83878,920.15605,893.208,1235.92178,839.53217a640.79973,640.79973,0,0,1,122.075-11.84564c188.736,0,368.47552,84.99265,493.12911,233.18564,123.00155,146.22666,175.0321,336.5983,142.75205,522.29167-4.24127,22.00022,2.50109,41.62052,9.02065,60.59526,4.44342,12.93275,9.03768,26.30542,10.06044,40.23456.39529,9.26291,1.00306,18.77259,1.59151,27.96792,2.25544,35.26555,4.58745,71.7171-4.05043,106.0823q-1.587-2.16117-3.16722-4.32685c-16.1503-22.09977-32.85014-44.95123-59.83882-56.29126-3.414-1.50022-7.78433-3.22094-11.3184-3.22094a7.27214,7.27214,0,0,0-5.47176,2.08635c-2.30455,2.34-3.37629,6.68293-3.277,13.26983.21028,91.34543-38.54241,177.4864-109.14887,242.66668-1.16084-4.504-2.75248-14.49692-4.73016-26.91891-8.44255-53.0144-17.81061-104.77182-31.25864-104.77182a5.48028,5.48028,0,0,0-2.06812.41486c-6.72389,2.39365-5.20884,8.63777-3.99087,13.6548l.34157,1.42935c15.00428,64.37146,15.00428,64.37146-38.812,102.9208-112.42135,80.52516-241.322,121.85213-383.11089,122.83234-171.72825-1.65678-322.4252-61.90682-447.90548-179.07669-6.543-6.11041-8.2043-11.45879-6.12992-19.738,5.23066-20.876,9.94781-42.24774,14.51011-62.91694q2.48854-11.2772,5.005-22.54867l.17936-.793c1.52647-6.73544,3.426-15.11843-6.18134-17.41045a13.48191,13.48191,0,0,0-3.10036-.39651c-7.38332,0-8.8252,7.64381-9.98379,13.78619l-.05944.31434c-4.84333,23.41243-9.11146,47.39739-13.23957,70.59272-6.25955,35.17524-12.73055,71.5366-21.34668,106.68217-62.34114-63.12261-83.00171-149.81774-96.01736-234.04715.07086-23.841-2.73759-38.28313-8.58757-44.15019A9.4925,9.4925,0,0,0,754.88275,1729.12771ZM533.653,742.53562c2.84157,0,6.223.86778,10.33855,2.65305l.07773.03373.08509.01027c5.65349.681,12.36553,3.03411,18.85591,5.3107,7.81521,2.73989,15.19622,5.32839,21.07307,5.32839,3.88128,0,6.68061-1.142,8.55729-3.49,3.34092-4.18128,3.60366-12.23182.80493-24.60932-1.29449-5.8797-.68095-10.44144,1.82417-13.55779,2.45764-3.05812,6.64178-4.60861,12.43687-4.60861a39.50227,39.50227,0,0,1,5.28786.38339C752.805,729.48,875.66193,783.19867,978.108,869.61441c12.049,12.4889,19.76368,22.904,18.25033,33.14436-1.21056,8.18765-8.40079,15.85894-21.982,23.45133-16.95809,9.4805-32.11262,22.78692-46.769,35.65574-6.52868,5.73286-13.27956,11.66051-20.13613,17.202-64.59311,63.13057-114.38706,128.94294-152.22682,201.19694l-.83526,1.59564.37991-.18853-1.29509,3.08675c-16.272,38.78357-33.09812,78.88673-43.44925,120.6214-1.16139,4.68008-2.88558,4.68008-3.45171,4.68008-1.5339,0-3.35-1.394-4.95194-2.62448a20.41489,20.41489,0,0,0-2.11547-1.49913c-46.23193-26.39792-82.24588-67.29642-113.33763-128.71083-68.50241-135.31341-90.46957-275.63406-65.2918-417.06529C523.12471,747.64175,526.82039,742.53562,533.653,742.53562Zm1176.6484,146.65223c.6192-.83635,1.20424-1.6259,1.71039-2.39711,20.756-31.6002,52.03164-51.55466,82.37278-69.3457,22.199-18.97983,214.46793-107.68019,287.01452-107.68019,13.28369,0,22.15447,2.86619,26.36729,8.51792,3.368,4.52175,3.83431,10.97841,1.38815,19.17924-1.87631,5.7906-1.47615,11.14008,1.09569,14.67694a10.45031,10.45031,0,0,0,8.74753,4.15728,19.80967,19.80967,0,0,0,8.00823-1.903c20.12209-6.5161,31.9109-10.2032,40.222-10.2032,14.52451,0,16.85762,11.54345,20.29687,47.25116,17.82617,185.10158-22.84489,337.148-124.33852,464.82655-9.17126,11.5389-21.12272,21.23127-32.67985,30.60492-4.91079,3.98187-9.98835,8.10086-14.78719,12.30663-2.89408,2.53769-5.15183,3.77062-6.90221,3.77062-2.508,0-4.40354-2.67942-5.9643-8.43343-31.04142-115.292-101.37949-227.74931-203.40674-325.21536l-3.89265-3.76824.17236.649q-11.43819-8.2711-22.89023-16.52791c-20.59834-14.86322-41.89816-30.23193-62.73534-45.499-2.34114-1.715-3.62195-3.49517-3.91782-5.44265C1705.68429,895.42516,1708.13726,892.11166,1710.30141,889.18785Z" style="fill: #010100"/>
    <g>
      <path d="M1935.28768,2878.72931c-2.33091,9.93271.382,32.48279-15.82406,29.0882-18.85285-5.07915,14.92366-46.86425-27.83739-83.34235-3.713-3.35726-6.60756-7.30532-3.01-12.12975,3.89454-5.223,8.93351-3.67985,13.52606-.78853C1926.78305,2827.06952,1932.61873,2851.8272,1935.28768,2878.72931Z" style="fill: #010000"/>
      <path d="M875.49868,2877.10163c-1.46876-25.75611,12.66-41.94477,33.16836-54.04534,4.8087-2.83742,10.45793-3.68328,14.2261,1.47739,8.46565,15.88025-50.41776,29.35609-22.68718,74.17481C901.50346,2914.14318,873.30275,2911.28413,875.49868,2877.10163Z" style="fill: #010000"/>
      <path d="M984.94824,2874.51517c1.52988-21.736,2.74537-41.50559,27.51083-46.80542,5.01647-1.07357,10.14711-.75117,12.40716,4.78265,2.9029,15.41779-26.02292,6.26445-17.889,50.44627.90641,7.05933,9.51091,15.75041-1.9854,19.49471C989.60875,2907.10676,986.22678,2884.31925,984.94824,2874.51517Z" style="fill: #010000"/>
      <path d="M1833.42509,2883.34527c-.8558,10.74641.85208,20.322-7.25784,27.38132-7.1914,3.35008-12.55132-6.282-10.94636-12.28314,14.04529-44.36339-29.098-63.67555-18.3502-74.463,4.41284-4.58053,9.29492-2.02928,12.99163,1.27313C1827.62508,2841.1233,1831.62573,2862.53594,1833.42509,2883.34527Z" style="fill: #020100"/>
      <path d="M2046.112,2700.28171c2.03479,10.27055-4.78744,23.32733-16.5241,16.60255-7.09786-5.40272-.83574-11.02909.14253-16.986,4.81966-28.57371-24.91777-36.13377-18.79637-43.63288,3.20995-4.9177,8.47983-3.94324,12.51314-1.30487C2039.70884,2665.59812,2046.13313,2681.39351,2046.112,2700.28171Z" style="fill: #020100"/>
      <path d="M2118.74389,2693.26423c2.6908,8.73583-17.23974,31.0855-18.49528,10.832,13.36554-22.41675-20.7428-38.13209-11.153-47.92343C2104.83872,2644.19187,2119.75406,2678.07816,2118.74389,2693.26423Z" style="fill: #010100"/>
      <path d="M672.37,2749.0988c1.4117-20.3248,8.18128-35.99058,24.95863-45.876,4.69793-2.768,10.31655-4.08025,14.31741,1.0151,4.08869,5.20743.39328,9.68751-3.22639,13.25671-27.19542,23.51765-6.41239,54.26646-24.65351,53.07685C670.39556,2768.4316,675.15063,2755.84964,672.37,2749.0988Z" style="fill: #010000"/>
      <path d="M751.05961,2742.96339c-2.38834-15.01278,19.05159-52.86434,32.721-41.62295,9.43591,9.43254-23.36972,23.03342-11.151,53.28657,4.5242,14.02514-16.90345,16.08059-18.70008,2.6131C752.27671,2751.71763,751.62311,2745.89578,751.05961,2742.96339Z" style="fill: #010000"/>
    </g>
    <g id="Shading">
      <g>
        <path d="M773.253,1247.10162c18.28882-48.80609,54.66-127.51207,125.29681-203.45558a596.11451,596.11451,0,0,1,186.29656-134.48759,579.68844,579.68844,0,0,1,182.99927-50.00179h23.081c-4.88193,1.50046-12.37065,3.84977-21.43235,6.8968-61.80033,20.78027-180.42568,62.00342-288.51237,163.799-62.13924,58.52261-101.726,119.10555-125.2968,155.178-28.9587,44.31816-40.87956,68.22923-41.216,68.968a80.17924,80.17924,0,0,1-8.24321,13.7936c-2.81348,3.80789-5.43457,7.2946-9.89186,10.3452-3.9928,2.73258-7.93207,5.61775-13.18913,5.1726-6.71613-.5687-10.93232-6.07743-11.5405-6.8968C766.266,1269.21945,766.84923,1257.43567,773.253,1247.10162Z" style="fill: #f4f4f4;opacity: 0.2"/>
        <path d="M1138.607,2842.73456c44.8789,6.99471,82.4913,10.76994,109.53492,12.945,177.395,14.268,313.26488-7.07081,371.423-17.92389,22.50661-4.20019,40.8613-8.22679,52.77592-10.9535l-11.94927-64.72518a1414.73715,1414.73715,0,0,1-513.81837,13.94081Z" style="opacity: 0.21"/>
        <path d="M1605.62407,1720.49947a467.65809,467.65809,0,0,1-450.089-5.97463l.99577-21.907a467.658,467.658,0,0,0,450.089,5.97463Z" style="opacity: 0.2"/>
        <path d="M1786.88892,1984.76909c-39.35463,36.29444-195.40988,170.71889-431.56417,174.77245-269.10176,4.61929-442.47867-163.498-474.62272-195.86568l2.93581-24.10654c32.14406,32.36766,205.521,200.485,474.62272,195.86568,236.15429-4.05356,391.23094-138.478,430.58557-174.77246Z" style="opacity: 0.2"/>
      </g>
      <g>
        <path d="M622.87359,868.2906a76.02964,76.02964,0,0,0-20.84229,25.8747c-5.79443,11.9878-7.70314,24.32026-5.90748,52.09345a492.48023,492.48023,0,0,0,10.20387,73.57524c5.29721,23.59726,9.78967,43.60994,20.94476,68.74188,2.35894,5.31472,12.147,21.61805,31.68572,54.2415a353.9049,353.9049,0,0,0,40.81541,53.5704c5.02414,5.33768,13.28922,13.66974,24.97264,14.09737a29.04372,29.04372,0,0,0,14.67451-3.62524l12.04311-28.88723a29.33842,29.33842,0,0,1-4.54285,5.84785c-1.72516,1.7172-6.14013,6.11187-11.70239,7.02887-6.66184,1.09824-12.788-3.93544-18.16585-8.91527a208.44811,208.44811,0,0,1-29.7358-34.43084c-12.01363-17.6166-18.02047-26.425-22.90355-34.96263A366.23162,366.23162,0,0,1,639.453,1058.734,445.55138,445.55138,0,0,1,616.299,954.35858a387.17332,387.17332,0,0,1-1.53742-46.96454,139.17323,139.17323,0,0,1,1.58926-24.10426,29.65984,29.65984,0,0,1,6.52278-14.99918Z" style="fill: #f4f4f4;opacity: 0.2"/>
        <path d="M651.42825,869.82456c.0984-.33744,4.14512,1.49615,9.81234,1.0464,2.26705-.1799,7.15639-.56791,9.8682-3.96073,1.99944-2.50158,1.94614-5.54949,2.26759-5.48914.3189.05986.085,3.00628-.524,5.66862a10.11834,10.11834,0,0,1-1.46837,3.8433,7.05672,7.05672,0,0,1-2.827,2.4196,8.26391,8.26391,0,0,1-3.77511.55465,16.823,16.823,0,0,1-5.01435-.98951C654.35619,871.11461,651.34468,870.11112,651.42825,869.82456Z" style="fill: #f4f4f4;opacity: 0.2"/>
      </g>
      <g>
        <path d="M2076.65789,854.40574a76.0297,76.0297,0,0,1,20.84229,25.87469c5.79443,11.9878,7.70313,24.32026,5.90747,52.09346a492.47978,492.47978,0,0,1-10.20386,73.57524c-5.29721,23.59725-9.78968,43.60994-20.94477,68.74188-2.35894,5.31471-12.147,21.61805-31.68571,54.24149a353.9049,353.9049,0,0,1-40.81541,53.5704c-5.02414,5.33769-13.28922,13.66974-24.97264,14.09737-6.28241.23-8.45109-2.61866-11.679-4.34108l-7.14942-15.20511c.90054,1.52113-5.53837-9.30045-3.34632-7.11843,1.72515,1.7172,6.14012,6.11187,11.70238,7.02888,6.66184,1.09824,12.788-3.93544,18.16585-8.91528a208.44838,208.44838,0,0,0,29.73581-34.43083c12.01363-17.61661,18.02047-26.425,22.90355-34.96264a366.23108,366.23108,0,0,0,24.96036-53.8067,445.55138,445.55138,0,0,0,23.15407-104.37537,387.17317,387.17317,0,0,0,1.53742-46.96453,139.17445,139.17445,0,0,0-1.58926-24.10426,29.65975,29.65975,0,0,0-6.52278-14.99918Z" style="fill: #f4f4f4;opacity: 0.2"/>
        <path d="M2048.85175,856.10221c-.0984-.33744-4.14681,3.03936-9.814,2.58961-2.267-.1799-7.15638-.5679-9.86819-3.96072-1.99945-2.50159-1.94615-5.5495-2.2676-5.48915-.31889.05987-.085,3.00628.524,5.66862a10.11836,10.11836,0,0,0,1.46838,3.8433,7.05664,7.05664,0,0,0,2.827,2.4196,8.26389,8.26389,0,0,0,3.7751.55465,16.823,16.823,0,0,0,5.01436-.98951C2045.92212,858.93547,2048.93532,856.38877,2048.85175,856.10221Z" style="fill: #f4f4f4;opacity: 0.2"/>
      </g>
      <path d="M644.99493,735.267A701.85388,701.85388,0,0,1,926.54109,851.26882" style="fill: #f4f4f4;opacity: 0.2"/>
      <path d="M1778.85486,871.81081c59.95807-51.12144,141.86846-103.41023,246.5039-128.08537q18.4377-4.348,36.25062-7.25016" style="fill: #f4f4f4;opacity: 0.2"/>
      <path d="M2047.93964,2400.94337a139.443,139.443,0,0,0,14.54566-9.99054c16.77108-13.15581,26.41859-26.98528,34.38647-39.0031,19.83789-29.92129,35.4209-53.42477,51.46046-90.33665,0,0,9.31908-21.44581,18.20882-57.73971a76.13043,76.13043,0,0,0,2.04284-29.12924,70.35476,70.35476,0,0,0-1.60743-8.24794,74.33258,74.33258,0,0,0-18.68142,13.94761c-21.50294,22.22692-10.2565,43.93115-29.11,81.57673-10.75584,21.47668-20.68074,40.83516-41.3525,59.61188-13.14244,11.9376-21.6422,20.03894-31.01427,24.70419Z" style="opacity: 0.2"/>
    </g>
    <g>
      <path d="M879.31965,2530.39629c1.71835-.423,11.14555,28.93039,18.26443,59.3396,4.65066,19.86585,7.45024,36.483,9.12489,47.80119,0,0,5.08583,36.23531-7.2501,123.25183-.67,4.726-2.006,13.41715-7.25016,15.30586-6.6334,2.389-18.64186-6.42219-20.94476-17.7226-1.65241-8.10839,2.6159-15.26186,4.02788-17.72236,7.37876-12.85776,10.55813-31.66487,16.91688-69.27885,3.35939-19.87192,1.16552-38.75755-3.22222-76.52906C884.3264,2554.72634,877.77591,2530.77627,879.31965,2530.39629Z" style="opacity: 0.2"/>
      <path d="M1932.42382,2503.007c-1.71836-.423-11.14555,28.93039-18.26444,59.33961-4.65066,19.86584-7.45023,36.483-9.12489,47.80119,0,0-5.08583,36.2353,7.2501,123.25183.67,4.726,2.006,13.41715,7.25016,15.30586,6.6334,2.389,18.64186-6.4222,20.94477-17.7226,1.6524-8.1084-2.61591-15.26186-4.02788-17.72236-7.37877-12.85776-10.55814-31.66487-16.91689-69.27885-3.35939-19.87192-1.16552-38.75756,3.22222-76.52907C1927.41706,2527.337,1933.96755,2503.38694,1932.42382,2503.007Z" style="opacity: 0.2"/>
      <path d="M868.89986,2737.96858a804.18771,804.18771,0,0,1-43.70141-95.74466c-94.17148-250.70232-34.79571-494.52879,15.00579-633.91312a243.15131,243.15131,0,0,1-20.58846-27.22531c-50.55553,137.00643-116.492,387.974-19.48065,646.23674a804.18709,804.18709,0,0,0,43.70141,95.74465,381.24786,381.24786,0,0,0,25.21976,35.104c1.98122-3.59631,3.88578-7.4143,5.641-11.36575C872.78613,2743.97579,870.85109,2741.03891,868.89986,2737.96858Z" style="fill: #f4f4f4;opacity: 0.2"/>
      <path d="M1945.12551,2701.44552a896.26015,896.26015,0,0,0,40.75329-109.38733c84.43455-284.892.55519-550.547-64.8332-701.20966a269.86017,269.86017,0,0,0,20.56294-31.72225c66.0362,147.971,157.67406,421.04149,70.6933,714.525a896.26,896.26,0,0,1-40.75328,109.38733,423.33431,423.33431,0,0,1-25.05474,40.80191c-2.45272-3.83462-4.838-7.92066-7.06931-12.16586C1941.31025,2708.39529,1943.21407,2704.99495,1945.12551,2701.44552Z" style="opacity: 0.2"/>
    </g>
  </g>
</svg>
