<svg id="Layer_4" data-name="Layer 4" xmlns="http://www.w3.org/2000/svg" viewBox="0 0 3000 3000">
  <title>Body</title>
  <g>
    <path d="M1873.23677,2957.25425c-74.48272.00343-147.35815-26.51978-185.66018-67.57147-8.78472-9.41415-18.74263-20.08489-19.4269-35.46671-.16564-3.74121-1.38339-4.49288-3.29341-4.49288a18.87,18.87,0,0,0-3.76292.5529,1378.1061,1378.1061,0,0,1-291.79585,31.00124,1518.12258,1518.12258,0,0,1-205.92785-14.36283,31.80805,31.80805,0,0,0-4.293-.31187c-9.73,0-13.61744,5.34965-17.73335,11.01345a41.10818,41.10818,0,0,1-5.90883,6.9718c-55.50534,48.59923-123.2653,62.35547-176.09581,68.91031a311.6363,311.6363,0,0,1-38.2038,2.42979,258.19014,258.19014,0,0,1-64.25692-7.89482c-29.51789-7.5921-61.72261-18.72435-70.23944-54.945-8.19469-34.85441,13.95216-57.00925,39.381-78.47526l11.89249-10.047c-1.40852-.10853-2.817-.23076-4.22557-.35413-4.02509-.34956-8.18726-.71283-12.27061-.73339-10.50682-.05484-21.60309-.07883-35.97791-.07883q-10.29834,0-20.59553.01143-10.29749.00686-20.59667.01028c-1.72838-.03656-3.44763-.05255-5.16687-.05255-9.39359,0-18.99738.50378-28.2853.99156-9.31077.48893-18.93854.99385-28.38125.995-16.44992,0-29.7555-1.57531-41.87418-4.95783-32.71934-9.13084-50.96562-31.49359-52.7654-64.6676-1.83633-33.85142,22.1994-46.44589,48.4473-55.01469,16.54073-5.39878,33.30023-11.07171,49.50854-16.55845,21.51627-7.28251,43.76478-14.81406,65.78368-21.80071,2.58058-.81907,4.10563-1.77522,4.53344-2.84218.45352-1.13322-.29016-2.48919-1.07724-3.924a16.33547,16.33547,0,0,1-1.12751-2.343c-40.6947-115.13344-58.32752-232.34711-52.41012-348.38643,5.75576-112.87158,33.96851-227.997,83.8546-342.17773a15.77442,15.77442,0,0,0,.237-11.26248,539.497,539.497,0,0,1-39.85621-151.13706,31.64652,31.64652,0,0,0-1.21832-5.2217c-.16336-.55747-.32672-1.11494-.48094-1.6747-.55.369-1.11722.72083-1.67126,1.06354a16.49639,16.49639,0,0,0-4.454,3.48989c-5.17144,6.60739-10.33888,13.39983-15.33555,19.96952-7.53612,9.90879-15.32869,20.15343-23.30576,29.98226-5.86714,7.22768-11.57492,10.8935-16.96341,10.8935-6.05163.00114-11.62461-4.60141-16.56244-13.68085-14.27887-26.25361-20.09-73.70249-15.544-126.92711,4.54143-53.18465,18.2794-98.93027,36.74843-122.37141,2.0511-2.60342,2.51318-7.51441,2.06081-11.22707-8.12157-66.56619-6.73418-132.48695,4.12219-195.92995,10.83753-63.331,31.41192-125.94812,61.15086-186.11084,2.524-5.10633,3.20659-7.98563,2.35611-9.93906-.96872-2.22417-4.10677-3.53959-9.2-5.05949-64.7904-19.34123-125.43748-51.50881-180.25855-95.60887a598.09546,598.09546,0,0,1-208.82772-343.2921c-13.99671-69.00512-14.75067-137.72409-2.24073-204.2463,1.33084-7.07918,3.11406-12.77325,12.73669-16.28028,59.02037-21.50941,117.65347-32.41548,174.27032-32.41548,64.29234,0,128.19171,14.07839,189.9246,41.84334,57.6958,25.94974,115.479,64.7607,171.74572,115.35562,80.84678,72.69722,122.58673,158.52353,124.0598,255.09483.0377,2.47949.397,5.43476,1.89345,5.43476,1.10923,0,2.69139-1.2783,3.96341-2.3047a13.34629,13.34629,0,0,1,2.01454-1.45536c105.08528-53.42169,211.65333-80.50865,316.74318-80.50865,105.49367,0,212.49011,27.29544,318.01748,81.1278a20.433,20.433,0,0,1,1.99913,1.24631c1.28629.86819,2.74508,1.85176,3.78234,1.85176,1.2623,0,1.90659-1.846,1.91458-5.48673.17935-81.57618,31.62611-156.57124,93.4641-222.90326,56.82647-60.95437,118.059-107.63787,182.00007-138.75449a482.6177,482.6177,0,0,1,212.92706-48.94707c39.71742,0,81.11981,4.67337,123.0591,13.89218,12.38542,2.72223,24.52409,7.45044,36.26294,12.02272,5.47416,2.13278,11.13568,4.3381,16.7435,6.30809,6.26125,2.20075,7.03234,7.591,7.7109,12.346.12794.89675.25589,1.78779.41582,2.652,12.42882,66.8575,11.60976,135.77809-2.43322,204.84718a596.5016,596.5016,0,0,1-209.25325,343.11218c-54.921,43.999-115.74,76.11457-180.76747,95.45408-4.4746,1.33084-7.42645,2.5663-8.31863,4.60769-.7768,1.77808-.16564,4.38607,2.10879,9.00233,33.34535,67.65658,55.1632,137.85432,64.84809,208.64152,9.70774,70.954,7.487,144.42229-6.59824,218.36353-1.39139,7.30422,1.33541,12.17408,4.22328,17.32953a42.60672,42.60672,0,0,1,3.77435,8.01591c22.83,73.09362,24.95589,146.49338,6.31836,218.15905-2.74051,10.5348-6.749,21.7733-19.7102,21.7733-.21933,0-.4398-.00229-.66485-.00914-10.7587-.31644-12.35229-8.09816-13.89332-15.624a51.92894,51.92894,0,0,0-1.637-6.5594c-6.468-18.53586-18.30625-35.2748-37.2545-52.67858a13.312,13.312,0,0,0-3.78462-2.13278c-.45123-.19534-.90246-.39183-1.34341-.5986-.12452.44781-.25475.89447-.385,1.34227a32.23056,32.23056,0,0,0-1.043,4.293c-4.20159,28.70511.58831,54.73368,15.53146,84.39723,57.98368,115.098,74.50785,239.0413,82.42666,334.16182a60.71337,60.71337,0,0,0,1.29657,7.59437c.19763.92189.3964,1.84377.578,2.76793l2.3841-1.39824c2.21274-1.3,4.42549-2.6,6.65194-3.87487,42.8863-24.57435,87.814-37.03516,133.5345-37.03516,47.35177,0,95.49292,12.68585,147.17422,38.78182,3.62469,1.83005,6.12531,3.02953,7.79772,3.02953,2.08708,0,3.10035-2.08937,4.16845-8.59623,22.55581-137.41051,86.80988-252.94606,190.9767-343.39776,28.06425-24.36759,53.42454-35.71689,79.81067-35.71689a96.12339,96.12339,0,0,1,25.94518,3.67724c7.15114,2.00712,12.10554,4.46776,14.71239,10.52681,52.12454,121.16508,83.45821,228.4551,95.79336,328.00338,14.83006,119.6823,3.20431,230.56732-35.54439,338.99056-23.34175,65.31646-61.56268,118.77869-110.532,154.611-47.97779,35.10458-106.63088,53.661-169.62036,53.66329-36.43086.00228-74.28967-6.0899-112.52773-18.10748a528.52549,528.52549,0,0,1-94.57789-40.44509,30.93716,30.93716,0,0,0-5.441-2.11108c-.55519-.17592-1.10923-.35184-1.65984-.5369q.15592.70939.30729,1.42109c.36784,1.7181.74824,3.49446,1.24745,5.19429,4.50888,15.35554.68313,32.99008-10.4971,48.381-12.8595,17.70194-32.4132,28.6103-52.30732,29.18147-37.59492,1.07839-75.8227,2.10651-112.79046,3.10036q-49.73359,1.33655-99.46489,2.72109a27.6928,27.6928,0,0,0-6.251,1.18348c-.48322.13023-.96644.26046-1.44965.38383q.55861.293,1.11494.58946c1.76037.93216,3.58128,1.89631,5.43075,2.66625,19.68964,8.19869,35.99791,18.14746,49.85468,30.41522,22.94307,20.31108,34.47629,44.96311,32.47717,69.41408-1.998,24.43156-17.36038,46.856-43.25643,63.14142C1959.82274,2947.08615,1918.65,2957.252,1873.23677,2957.25425Zm-1040.71439-521.86c4.40321,0,6.76389,4.94069,8.66134,8.90923.33242.69684.65171,1.36511.96529,1.97171,52.45068,101.34977,74.81571,198.1267,68.3734,295.86321-1.994,30.25757-4.05593,61.54554-44.32339,72.25284-19.77874,5.2594-35.89224,22.00405-47.72076,36.00361-10.982,12.99887-15.54574,26.07313-13.19763,37.812,2.35268,11.76055,11.6229,22.09887,26.8088,29.89659,28.48349,14.62671,58.668,17.78533,95.22618,18.02751,63.14712-1.3,124.11292-17.10449,181.18843-46.9748,12.17922-6.37435,17.41978-13.55519,19.33722-26.49808,3.83831-25.90519,8.863-52.072,13.722-77.37859q2.046-10.653,4.0685-21.3095c33.81087-179.21044,73.84814-391.28759,114.436-605.44154.87961-4.64025.69512-7.43216-.61744-9.33533-1.32513-1.92144-3.90115-3.13234-8.35119-3.924-68.09638-12.109-131.97633-32.44061-189.86519-60.43175a662.18091,662.18091,0,0,1-164.213-112.891c-2.9587-2.76907-5.10062-4.11476-6.54741-4.11476-2.01568,0-3.01239,2.82733-4.14618,8.04332-2.51147,11.54464-5.33708,23.21838-8.0696,34.50942-1.6764,6.925-3.40936,14.08638-5.05149,21.14271-1.4308,6.14816-3.66411,9.0109-7.02834,9.0109-2.20247.00114-4.83274-1.21661-8.27865-3.83146-24.97132-18.95053-41.29958-44.74264-52.73456-65.096a53.16884,53.16884,0,0,0-3.88686-5.68436c-.4678-.62487-.93559-1.2486-1.39368-1.87918-.38269.65686-.78023,1.308-1.17777,1.958a37.11763,37.11763,0,0,0-3.126,5.88085c-66.19607,172.89778-84.58057,349.99144-54.64343,526.35855,13.79108,81.24661,39.88762,184.72345,119.949,264.41645a80.99847,80.99847,0,0,0,11.66859,9.036c1.67641,1.14236,3.40308,2.32013,5.07092,3.53331.66828-1.93287,1.42452-3.868,2.15848-5.74605,1.76722-4.52144,3.59442-9.1971,4.20844-13.91275,12.4471-95.56374-4.86587-191.65183-54.48522-302.3952-.42724-.95386-.98756-1.96827-1.57987-3.04209-1.72725-3.12891-3.68467-6.67478-2.72167-9.76028a7.09589,7.09589,0,0,1,4.0011-4.11477A7.48155,7.48155,0,0,1,832.52238,2435.39429Zm954.79783-442.40114c-.66256.34613-1.34112.674-2.01854,1.0007a24.81109,24.81109,0,0,0-5.21257,3.05809c-67.608,56.94185-145.57607,99.30153-231.73709,125.90356-11.19965,3.45791-13.86134,7.9725-11.38814,19.3218,28.88789,132.58292,57.97683,267.446,86.10847,397.8687q19.95753,92.52736,39.94246,185.04674c2.72109,12.58533,4.775,25.76925,6.7616,38.51794,4.60027,29.5276,9.35818,60.06048,22.73859,85.42762,30.38209,57.59642,116.36718,83.82947,183.40174,83.82947,46.792,0,86.907-11.75369,112.95268-33.09746,23.52567-19.27839,29.43622-41.4835,17.09193-64.21637-18.22629-33.56583-48.47472-55.86233-89.90681-66.268-9.58664-2.40923-15.21389-5.66494-17.49974-15.95985-12.32487-55.5219-15.76565-106.8011-10.51881-156.76658,8.55282-81.4648,29.80862-138.78934,68.92059-185.87152l.233-.281c3.23629-3.89886,6.9044-8.31749,11.732-8.31749a10.55594,10.55594,0,0,1,6.267,2.39667c4.63,3.4659,4.52259,8.63506-.321,15.36353-61.076,84.84617-79.4017,184.31335-57.66953,313.02825a20.48921,20.48921,0,0,0,1.78208,4.9761c.257.56661.5152,1.13322.75509,1.70325.59746-.40211,1.22461-.78023,1.83691-1.15035,1.77636-1.07267,3.45448-2.0848,4.35809-3.54587,3.26828-5.27883,6.72047-10.58964,10.05729-15.72567,8.57338-13.19306,17.4392-26.83507,24.018-41.20819,54.40468-118.8518,61.62551-246.51,61.5147-355.71121,0-7.74631.10624-15.624.20791-23.24351.22161-16.499.45123-33.559-.38155-50.2762-7.15914-143.7483-33.43332-266.63377-80.32358-375.68073a48.69419,48.69419,0,0,0-2.857-5.34623c-.30273-.51406-.60545-1.027-.90246-1.54332-.31529.60659-.63972,1.2109-.963,1.8152a44.96968,44.96968,0,0,0-2.8319,5.94939c-24.43156,68.03755-57.47533,121.65743-101.02192,163.92116-1.34684,1.308-2.67768,2.64912-4.01309,3.99481-7.28938,7.34763-14.82664,14.9443-25.73042,17.68481l-.57232.14279-.13822-.57232c-.80879-3.322-1.63928-6.64051-2.46863-9.95791-1.90545-7.6138-3.876-15.48691-5.53129-23.29491-1.03269-4.86986-1.78664-9.87452-2.51547-14.71354-.52434-3.48761-1.067-7.09289-1.7101-10.61248a33.97516,33.97516,0,0,0-1.733-5.63067C1787.79086,1994.3,1787.54868,1993.64772,1787.32021,1992.99315Zm-495.30419,157.452c-11.92734,0-15.33384,6.00194-17.74535,17.82075-34.285,168.02335-64.30548,339.7388-93.3373,505.79958-9.18054,52.5118-18.67351,106.81024-28.1602,160.18794-.78766,4.43006-.56033,7.21169.73624,9.0189,1.312,1.82777,3.892,2.91186,8.62707,3.627,67.18193,10.1384,135.93288,15.3681,216.3627,16.4602,96.9637-3.51617,184.459-8.07531,273.05551-28.32128,9.341-2.13506,13.49236-4.33752,11.21793-15.27443-15.207-73.08448-30.13648-147.50094-44.57357-219.46819-29.58586-147.47581-60.17814-299.97113-94.77323-449.02224-2.71195-11.68515-6.64394-16.02953-14.50335-16.02953a37.92866,37.92866,0,0,0-8.2558,1.11608,666.0096,666.0096,0,0,1-147.77167,16.68981c-18.83859,0-37.993-.81564-56.93157-2.42407C1294.55547,2150.50569,1293.22748,2150.44514,1292.016,2150.44514ZM758.6988,2649.88067a11.16222,11.16222,0,0,0-4.00567,1.04068c-39.5849,16.378-80.51778,33.31452-122.53533,48.48385-12.54135,4.52716-20.054,9.06-23.8341,20.03235-4.84587,14.067-1.7421,32.4566,7.90738,46.84914,7.9508,11.85879,19.12931,19.04306,30.67053,19.71134,17.29412,1.00071,35.9762,1.46679,58.79532,1.46679,14.24575,0,28.74167-.17935,42.75951-.353,13.82879-.17135,28.12194-.34842,42.18433-.353l-.00685-2.73594,23.1287.00571q13.84364,0,27.68384-.04684a17.65838,17.65838,0,0,0,3.63955-.5369c.349-.0754.6974-.15079,1.04639-.22162-.12451-.313-.24275-.63286-.35984-.95272a8.10514,8.10514,0,0,0-1.51933-2.93129c-30.87958-31.20115-55.93544-69.67568-81.24318-124.75093l-.13651-.29587C761.50785,2651.312,760.75961,2649.88067,758.6988,2649.88067Zm1258.91913-50.40415c-3.03752,0-4.50773,1.8072-6.04991,7.43787-12.71785,46.41619-29.322,85.73835-50.76057,120.2135-2.66054,4.277-3.5196,6.77188-2.78735,8.089.70255,1.26459,3.11178,1.80493,8.05589,1.80493l.38041-.00115c21.95836-.10852,45.32181-.1565,75.75187-.1565q20.10147,0,40.20064.01828,20.09974.01371,40.19948.01828c1.51363.03655,3.0124.056,4.5066.056,19.2921,0,35.60265-3.26485,49.865-9.983,19.06134-8.98006,27.40739-20.67778,26.26732-36.817-1.30686-18.49473-12.81723-32.71934-29.32313-36.23894-34.12558-7.28023-66.6393-20.38647-98.08149-33.062-17.08164-6.88726-34.74589-14.00756-52.44326-20.10089A18.78536,18.78536,0,0,0,2017.61793,2599.47652ZM2178.06061,2213.638c-48.18341,0-88.47543,10.865-123.179,33.21285-6.71248,4.32381-9.20625,9.52724-8.60765,17.96125,3.25914,45.93069,1.15606,92.56963-.87733,137.67211q-.31872,7.04605-.63058,14.0921c-.33243,7.58181-2.23445,15.68568-4.07478,23.52224-3.86345,16.4602-7.85941,33.4813,2.72908,46.12489,67.65715,80.7908,149.12766,143.52782,242.14738,186.47011,51.22207,23.64675,101.817,35.63577,150.38081,35.63577,107.98,0,196.40061-58.51715,248.97295-164.77335,4.831-9.76371,4.68822-17.56143-.50949-27.81407-48.99906-96.6467-107.17008-173.03144-177.83962-233.51916-35.92593-30.75107-72.18087-58.76391-120.56419-63.71373a57.51459,57.51459,0,0,0-5.79631-.31986c-6.68164,0-11.14025,1.4782-13.62945,4.51915-4.03251,4.92584-2.32126,13.41811-.666,21.62936.3804,1.88717.77337,3.83832,1.08524,5.69921.14508.867.313,1.71925.4775,2.55431,1.00413,5.104,1.95343,9.92593-3.32425,13.65a13.10481,13.10481,0,0,1-7.63322,2.5623,14.76186,14.76186,0,0,1-9.28735-3.64868c-41.46065-33.94281-93.359-50.29563-163.32827-51.46426Q2180.97761,2213.6391,2178.06061,2213.638Zm-145.60919,303.67236a27.90489,27.90489,0,0,0-1.04526,3.38708q-2.15733,10.06015-4.27812,20.12716c-2.80334,13.249-5.70378,26.95045-8.699,40.39369-.9036,4.05193-.008,5.58954,3.98682,6.853,24.93877,7.89025,50.27278,15.9827,74.77174,23.809q30.44777,9.72773,60.90582,19.41548a8.44206,8.44206,0,0,0,2.57716.32557c.61458,0,1.24059-.03313,1.86661-.06626.35869-.01828.71625-.0377,1.07267-.05026q-.269-.36327-.53577-.73225a13.65848,13.65848,0,0,0-2.7565-3.11064c-37.89764-27.71354-74.18-59.34194-110.91815-96.69353-3.43392-3.4899-7.16828-6.76275-11.12311-10.22637-1.73524-1.52047-3.52417-3.08779-5.36907-4.7442C2032.74957,2516.4604,2032.5965,2516.89564,2032.45142,2517.31032Zm364.601-312.00356c45.20186,0,81.19406,25.17523,117.12114,53.22235,69.72138,54.42866,128.1837,127.78273,183.98434,230.84947a32.4236,32.4236,0,0,0,3.96169,5.34623c.48436.56775.96872,1.1355,1.43937,1.71239.26845-.5986.54376-1.19491.81907-1.79122a54.04079,54.04079,0,0,0,2.38067-5.71406c14.00756-42.70467,22.68717-88.3235,26.53234-139.46218,3.82-21.90924-3.41336-43.27814-22.758-67.30758-34.53341-42.89545-77.24265-81.16779-134.40726-120.44311-36.89923-25.3523-80.41383-53.5799-129.92352-67.67085a62.26741,62.26741,0,0,0-16.87716-2.59315c-12.63445,0-21.66362,5.15088-26.83507,15.311-13.48893,26.49693-23.83067,57.58157-31.617,95.028a12.081,12.081,0,0,1-.60431,1.77636c-.49007,1.24631-1.16177,2.95185-.65342,3.69895.25017.36784.83506.554,1.73638.554a11.24884,11.24884,0,0,0,2.05966-.23075A126.06676,126.06676,0,0,1,2397.05244,2205.30676Zm44.96882-125.0228a10.27429,10.27429,0,0,1,3.06152.66256c.35184.11309.7014.22619,1.043.32215,52.41127,14.64385,101.44345,38.005,149.89531,71.41892,40.88947,28.1979,81.723,63.97533,124.83546,109.37711,3.13006,3.29569,6.43261,6.54,9.62663,9.678q1.80949,1.77866,3.61327,3.56187l1.11266-18.31082c-.62259-6.80844-1.20976-13.82022-1.80264-20.90853-1.30114-15.55317-2.64569-31.63639-4.48374-47.57682-11.17453-96.88774-39.09369-198.51739-87.86542-319.8344-2.06423-5.13489-5.23084-7.527-9.96476-7.527a20.46725,20.46725,0,0,0-4.24043.50149c-2.57944.54719-5.24227,1.05325-7.81714,1.54333-9.21538,1.75123-18.74262,3.56186-26.84992,7.69947-67.0814,34.23525-117.95391,89.75259-164.95042,180.01123-1.01441,1.94886-2.15448,3.95255-3.36195,6.07391-4.39007,7.71661-9.36617,16.46134-6.69192,21.06046,1.43252,2.46292,5.09377,3.71266,10.88322,3.71266a78.14368,78.14368,0,0,0,13.25019-1.4051A4.03844,4.03844,0,0,1,2442.02126,2080.284ZM907.14675,1824.78587a13.331,13.331,0,0,1,3.44534.4935c8.45972,2.279,7.89254,9.78085,6.45431,16.06038-1.91744,8.37346-3.78976,16.908-5.59982,25.16266-4.09592,18.67294-8.3312,37.97989-13.3787,56.74194-3.42878,12.74183-1.03326,20.78516,8.83726,29.67611,106.76911,96.17491,222.19271,150.93828,352.86732,167.419a746.85247,746.85247,0,0,0,93.08826,5.97109c136.25559,0,264.42331-40.68042,380.94128-120.91147,41.27787-28.42181,62.08588-55.55618,38.31-102.93423-.79051-1.57645-3.22829-7.05633-1.39139-11.39156a7.92223,7.92223,0,0,1,5.26512-4.4392,9.7352,9.7352,0,0,1,2.8913-.48321c5.42276,0,7.3602,5.62838,8.91837,10.151l.39868,1.14578c12.97031,36.641,19.1356,74.74432,23.86724,110.46234a39.01987,39.01987,0,0,0,1.73409,6.7102c.257.79622.51406,1.59244.75281,2.39209.69456-.44666,1.40853-.87161,2.10537-1.28515a23.479,23.479,0,0,0,5.37364-3.91256c68.11865-74.18114,101.03334-150.93943,100.62552-234.66152-.0377-7.66749,1.11151-12.40941,3.61327-14.92488a7.384,7.384,0,0,1,5.52443-2.09736c3.00554,0,6.74789,1.10808,12.51336,3.70694,24.43727,11.01459,41.11909,30.983,55.507,50.9205a54.05525,54.05525,0,0,0,4.88243,5.58726c.56775.59174,1.13436,1.18348,1.69183,1.78207.249-.84077.51634-1.67812.77794-2.496a38.22531,38.22531,0,0,0,1.84034-7.423c4.54086-42.8943,3.58928-86.27411-2.90958-132.61719-1.48849-10.617-5.41248-20.99992-9.20739-31.04122-5.76432-15.25159-11.72513-31.02181-9.0326-47.63394,10.82839-66.79467,13.1428-128.03749,7.07918-187.22635-33.74061-329.33822-310.35971-577.692-643.44143-577.692h-.36955q-4.81588-.07368-9.61235-.07426A573.186,573.186,0,0,0,1195.142,854.48514c-181.91383,48.07317-319.77557,153.66965-409.75548,313.85645-59.27169,105.51937-86.45232,222.03278-80.78681,346.30163.27417,6.01793.77109,12.10783,1.25145,17.99781,1.90774,23.37488,3.87944,47.54484-7.75031,72.24142-23.741,50.41671-29.69439,108.15136-18.73406,181.69735.62259,4.17987,2.32584,8.3072,3.97312,12.30088.63971,1.55132,1.29828,3.14719,1.89345,4.7442l2.833-3.63612q3.86574-4.96581,7.75717-9.91221,2.91814-3.68925,5.8123-7.399c4.94868-6.3218,10.06644-12.8595,15.31956-19.11046,1.60786-1.91345,3.246-3.972,4.9801-6.15159,8.44486-10.61134,18.01666-22.63806,28.2573-22.63806a12.88686,12.88686,0,0,1,2.845.31758c11.0957,2.504,11.51837,16.80747,11.89135,29.42822.12509,4.23585.24332,8.23752.71511,11.76969,13.03713,97.61655,40.01157,170.396,84.88958,229.04112a42.24258,42.24258,0,0,0,7.804,7.18085c1.09381.851,2.21788,1.725,3.29627,2.62856.37526-1.19605.77394-2.38752,1.17205-3.579a73.503,73.503,0,0,0,2.70967-9.49069q6.6228-34.97664,13.16565-69.967c5.85057-31.192,11.90049-63.44528,17.95211-95.14907C898.17469,1828.88122,901.712,1824.78587,907.14675,1824.78587ZM591.45453,1003.43344c1.11951,7.379,1.19091,15.1562,1.26,22.678.16107,17.44262.31244,33.91825,12.89148,44.29312,41.93759,34.58881,92.99631,59.52986,156.09374,76.24937a20.77306,20.77306,0,0,0,5.24627.80879h.00057c4.08906,0,6.7616-1.94772,9.86081-7.18656C830.6632,1049.23047,897.73317,977.94692,976.153,928.407c31.76719-20.0689,34.59909-40.81693,28.71253-72.0832C985.88189,755.49261,929.2262,673.399,826.56614,597.96922a9.40837,9.40837,0,0,0-5.57869-2.12021c-2.89016,0-5.47531,1.73523-8.3135,3.83088-46.12945,34.07019-86.46717,79.46454-123.319,138.77849C627.74774,837.61369,597.55243,919.33609,591.45453,1003.43344ZM1887.22834,595.65766a9.65464,9.65464,0,0,0-5.71292,2.15277C1776.3239,674.67382,1719.70191,757.85957,1703.32281,859.6a112.50918,112.50918,0,0,1-2.64112,11.21622c-4.11933,15.223-8.378,30.96355,10.68445,42.96,73.38035,46.18143,137.42765,107.06327,190.36326,180.95368,24.2682,33.87483,35.34447,49.33547,53.26575,49.33833h.00571c12.7841,0,29.87716-7.8497,56.5089-20.77773,8.41344-4.0845,17.49289-7.91881,26.273-11.6269,43.39923-18.32852,88.27552-37.28134,77.86066-95.3387-.79508-62.107-15.17847-106.71485-29.14491-142.17242C2038.314,751.82622,1978.20553,665.05,1897.3359,601.06386l-.93216-.74482C1893.54556,598.02748,1890.59029,595.65766,1887.22834,595.65766ZM684.57935,526.572c-20.26424,6.16472-38.84008,17.82931-58.44633,36.6976-83.07209,79.94432-136.536,183.14414-158.90679,306.731l-.385,2.11964c-3.531,19.40119-7.53269,41.39154,3.675,59.25,24.09856,38.39571,55.76237,74.42274,96.80149,110.1402a14.853,14.853,0,0,0,3.69723,2.10022c.41353.18678.82649.37355,1.232.56889.0971-.43923.20162-.87847.30615-1.3177a23.32424,23.32424,0,0,0,.74424-4.27984c4.01481-91.37358,25.33516-175.52463,63.367-250.1153,37.82339-74.18,93.24363-140.99865,164.72081-198.5985a12.51653,12.51653,0,0,1,2.03339-1.1869c1.38-.70427,3.0975-1.581,3.14605-2.528.03255-.63686-.6877-1.45136-2.08309-2.355A520.17327,520.17327,0,0,0,684.57935,526.572Zm1339.38094.76824a24.96641,24.96641,0,0,0-8.38261,1.62842,584.92441,584.92441,0,0,0-108.29644,51.8835c-2.94385,1.7975-4.783,3.17861-4.855,4.51059-.064,1.2029,1.25431,2.72681,4.55,5.25941,129.5831,99.58826,204.15035,239.14469,227.965,426.64463.00457,1.16235-.00114,2.251-.00685,3.34025-.01371,2.37553-.02627,4.83216.02513,7.2431.08568,3.98168.21705,7.96279.34728,11.9439l.12908,4.02852c1.25774-.88875,2.53946-1.75866,3.78691-2.60629a90.15018,90.15018,0,0,0,9.76714-7.29565c21.40774-19.27953,40.57875-41.32185,59.11918-62.6382q4.66767-5.3685,9.35247-10.73015c22.188-25.34258,29.82347-52.57348,24.03059-85.69779-22.66776-129.60252-76.074-232.42022-163.27116-314.33-9.28506-8.72074-20.6812-15.5566-31.70265-22.16684-4.48489-2.69082-9.12285-5.473-13.55519-8.34376A16.0849,16.0849,0,0,0,2023.96029,527.34024Zm35.31249-10.23151c.28787.333.57.674.85106,1.015a16.68962,16.68962,0,0,0,2.91414,3.0004c111.05295,80.46295,176.50992,197.10315,200.11555,356.58683a49.42563,49.42563,0,0,0,1.49991,6.26353c.16336.57232.32672,1.14521.48436,1.7181.313-.4558.63058-.90988.94816-1.364a49.86738,49.86738,0,0,0,3.33-5.21028c45.67823-86.84186,68.691-180.54243,70.35425-286.4542-.19534-3.7852-.409-7.86226-.63287-12.125-.626-11.945-1.33655-25.48481-1.92944-38.97146-.20333-4.6391-1.32741-7.61208-6.67364-10.03274-46.92567-21.25066-95.871-31.581-149.63257-31.581-36.60221,0-74.67235,4.78418-116.38546,14.625a15.42243,15.42243,0,0,0-3.99025,1.82549C2060.11013,516.64322,2059.69317,516.882,2059.27278,517.10873ZM526.75609,499.96083c-53.49422,0-102.16142,10.22979-148.78209,31.27369-5.37078,2.42351-7.25453,5.12176-7.46529,10.69131-.49521,13.12224-1.20119,26.27132-1.8232,37.87194-.22676,4.21929-.44209,8.245-.634,12.00673,1.42052,100.9945,22.19654,190.594,63.515,273.882a124.85118,124.85118,0,0,0,8.01763,13.24333c1.04925,1.58159,2.12706,3.206,3.1706,4.83845q.53034-2.78449,1.06868-5.56727c.95558-4.9584,1.94372-10.08643,2.8239-15.1425,26.62031-152.96311,91.2365-264.69918,197.54182-341.59227a36.18929,36.18929,0,0,0,3.3808-2.90729c.325-.30387.65057-.60773.97843-.9076-.48607-.301-.96415-.6203-1.432-.93216a14.19706,14.19706,0,0,0-4.39921-2.27672C601.10173,504.69818,563.17038,499.96083,526.75609,499.96083Z" style="fill: #010101"/>
    <path d="M744.24586,2802.83664c-34.49242-.7294-69.64491,6.46087-103.54995-3.00211-31.76341-8.865-50.52988-30.789-52.33916-64.137-1.78357-32.87642,21.09088-45.62768,48.0449-54.4261,38.50109-12.56791,76.68789-26.10939,115.28737-38.35744,8.579-2.72252,3.985-6.23669,2.70339-9.86281-82.81542-234.30253-67.33493-464.08134,31.42927-690.13463a16.43248,16.43248,0,0,0,.2391-11.726A536.23055,536.23055,0,0,1,746.24763,1780.217a60.09852,60.09852,0,0,0-1.92909-7.78473c-2.34132,1.69283-5.22613,2.96028-6.93716,5.14646-12.97359,16.57458-25.375,33.607-38.63532,49.94435-11.66245,14.36841-22.94764,14.97128-32.55763-2.69781-30.31762-55.7421-18.0006-198.9682,21.14964-248.65766,2.18975-2.77921,2.64512-7.86012,2.18168-11.65917q-24.47793-200.64338,65.21765-381.71079c5.16551-10.4497,3.26856-12.69357-7.20105-15.81891-264.97078-79.09812-442.07343-370.45945-390.92-642.47863,1.41209-7.50856,3.42764-12.58212,12.36264-15.83841,205.68289-74.95915,380.94356-14.17306,535.3489,124.66854,74.11773,66.64673,122.2773,150.49305,123.866,254.66944.17178,11.27077,6.193,3.47219,8.72145,2.1869q317.3215-161.31459,634.23.61844c3.22088,1.64314,8.52326,7.58167,8.54639-2.908.19235-87.08646,35.9842-161.01757,93.30731-222.50571,140.37778-150.57708,310.42539-219.13833,517.43219-173.63724,18.11262,3.98125,35.31135,12.11768,52.93876,18.31217,7.04176,2.4747,6.72247,9.04688,7.74574,14.55239,50.812,273.33832-126.17088,563.67253-392.04555,642.74609-9.5835,2.85018-11.18922,5.05121-6.56711,14.42938q100.30295,203.51226,58.19873,426.63692c-2.14535,11.26106,5.36121,17.13719,8.0139,25.62946,22.49455,72.0158,25.33445,144.68932,6.3108,217.83648-2.57472,9.90008-6.36349,21.72089-19.792,21.32706-13.46566-.39468-11.9249-12.99629-14.99427-21.79114-7.38661-21.16642-21.14743-37.978-37.41243-52.91719-1.58859-1.45893-3.91813-2.11122-5.90369-3.13805a61.163,61.163,0,0,0-1.62614,6.38833c-4.39593,30.03281,1.11265,56.00969,15.58844,84.74479,52.64259,104.49839,72.72991,218.19932,82.36611,333.9482.31429,3.77577,1.34327,7.49185,2.03925,11.23621,3.24714-1.89746,6.48072-3.81861,9.74358-5.68836,93.71755-53.70185,187.19593-45.17788,280.15539,1.76094,9.18254,4.63625,10.98432,5.108,12.80666-5.99423,22.5064-137.10636,85.9811-252.04674,190.78393-343.04963,29.11436-25.28075,63.12628-43.73108,105.21408-31.91955,6.69249,1.878,11.716,4.11148,14.33314,10.19509,92.76925,215.6473,142.48628,436.41435,60.23583,666.56613-61.67006,172.56336-217.1949,244.73109-391.95359,189.80521a525.37764,525.37764,0,0,1-94.47451-40.3994c-2.52632-1.37968-5.44618-2.0391-8.18326-3.03295.59231,2.56116,1.057,5.15973,1.79635,7.67777,10.09214,34.36605-23.23665,75.693-62.2598,76.81255-70.7495,2.03-141.506,3.82033-212.2565,5.82145-3.13291.08881-6.23483,1.27515-9.351,1.95057,2.65912,1.3417,5.24655,2.8556,7.98878,3.99739,18.12975,7.54925,34.94765,17.26013,49.69232,30.31354,47.1333,41.72653,42.52275,98.14861-10.70373,131.62248-80.97644,50.92535-235.601,31.08978-300.85616-38.85008-9.25451-9.91879-18.60883-20.25539-19.26854-35.094-.25332-5.69092-2.97612-5.52557-7.766-4.48545-164.814,35.77514-330.86384,39.53549-497.51908,16.63069-18.4002-2.52889-20.2244,10.65418-28.40038,17.81275-50.41558,44.14319-111.44121,60.787-175.78266,68.77009-34.30322,4.25584-68.64657,3.19-102.243-5.45132-30.9804-7.96822-61.5569-19.38977-69.81541-54.51292-8.25224-35.09659,14.9887-57.46534,39.18922-77.89408q6.49567-5.48287,12.98636-10.972c-5.98808-.417-11.97459-1.1632-17.96475-1.19433C795.6952,2802.75981,769.97035,2802.83664,744.24586,2802.83664ZM1351.12234,835.41308c-52.87178-.80978-105.10441,5.02294-156.12943,18.50673-180.258,47.6348-318.31278,150.70111-410.11625,314.13533-60.53648,107.77082-86.48123,223.34763-80.86127,346.61493,1.36533,29.94713,8.0334,59.22042-6.44367,89.96349-27.12623,57.60413-28.06325,119.75969-18.78368,182.03134.92738,6.2237,4.11719,12.11025,6.25689,18.15332,3.744-4.79419,7.46344-9.60779,11.23742-14.37812,7.00814-8.85882,13.85656-17.8533,21.12094-26.49765,10.20609-12.14481,22.50041-31.21172,35.50584-28.277,14.13772,3.19017,10.22544,26.253,12.15559,40.70541,11.07763,82.94872,33.18735,161.60589,85.00481,229.31786,3.14583,4.11077,7.87126,7.01264,11.86179,10.47712,1.40881-4.6571,3.259-9.23052,4.15918-13.98415,10.42085-55.029,20.61666-110.10079,31.11747-165.11463,1.293-6.77374,4.53573-13.56761,13.232-11.22378,7.7753,2.09565,7.54854,8.76186,6.03635,15.366-6.25411,27.31458-11.699,54.8442-18.97338,81.88262-3.48533,12.95459-1.02,21.22782,9.011,30.26356,101.10545,91.07372,217.11122,150.40309,353.18518,167.5647,172.71144,21.78272,330.39847-15.85932,474.43407-115.03862,40.2192-27.69384,62.92665-55.00613,38.50152-103.679-2.46648-4.91527-3.94269-12.66444,3.52546-15.01027,7.65663-2.40551,9.63348,5.23,11.48167,10.45027,12.6543,35.7463,18.88071,72.91084,23.839,110.3444.44723,3.37794,1.79635,6.63623,2.7268,9.9502,2.77407-1.88717,6.0412-3.322,8.25052-5.72777,61.10788-66.5462,101.2304-142.34349,100.77974-235.05991-.093-19.14517,7.45244-18.80546,20.82571-12.77782,24.03716,10.83381,40.32458,30.014,55.273,50.72972,2.13178,2.95427,4.86829,5.47245,7.32479,8.1924,1.001-3.67181,2.52746-7.2878,2.92314-11.02373,4.69765-44.36923,3.28884-88.54511-2.91143-132.76-3.77249-26.90047-22.66619-51.20394-18.24156-78.5,10.10627-62.34862,13.50364-124.70924,7.08331-187.37957C1961.86584,1085.17725,1683.07613,835.227,1351.12234,835.41308ZM927.3119,2936.71613c61.78058-1.272,123.40252-16.65554,181.46345-47.04106,11.8932-6.22469,17.6481-13.45552,19.64465-26.93131,4.89543-33.04149,11.59034-65.822,17.78662-98.665q57.11678-302.74018,114.43589-605.44211c1.60758-8.48142.09639-12.24691-9.44071-13.94274-134.42682-23.90321-253.54822-79.39341-353.78135-173.17452-8.17469-7.64864-9.81226-4.2864-11.665,4.23157-4.04993,18.61783-8.79871,37.08258-13.11909,55.64328-2.23931,9.62092-6.30524,10.976-14.38362,4.84587-22.90215-17.37951-38.73913-40.2843-52.57841-64.91606a99.64917,99.64917,0,0,0-5.84564-8.358c-1.61658,2.89644-3.62027,5.645-4.79418,8.71074-65.33895,170.6582-85.3029,346.22367-54.67414,526.66614,16.71923,98.4976,46.71777,191.67554,120.1129,264.7326,5.1049,5.08148,11.601,8.765,17.45005,13.09853,2.27571-6.83471,5.73619-13.51521,6.64965-20.52727,13.8889-106.63945-11.33288-206.2954-54.53205-302.70992-2.33226-5.20486-8.53418-12.19807-.574-16.1549,6.93367-3.44592,9.70945,5.02151,12.16287,9.762,47.96165,92.675,75.24281,190.3644,68.30914,295.55592-2.00683,30.44577-4.435,61.23425-43.89029,71.72622-19.08462,5.07491-34.71719,20.44987-48.0172,36.19125-22.67469,26.83707-17.42713,52.57662,13.79037,68.60644C860.76312,2933.485,891.95671,2936.48137,927.3119,2936.71613Zm1094.79349-614.40047c0-24.51894,1.04368-49.09015-.17464-73.54855-6.45531-129.60052-28.77593-255.89762-80.3707-375.88236-1.18006-2.74422-2.87031-5.26911-4.32239-7.89625-1.45508,2.92929-3.22159,5.74634-4.31953,8.80385-22.13928,61.65635-53.476,117.69289-100.879,163.70068-8.70617,8.45-16.76192,18.33538-29.47834,21.53026-2.69267-11.07285-5.63409-22.09287-7.99634-33.236-1.77222-8.35862-2.686-16.896-4.22158-25.31-.519-2.84389-1.77322-5.55385-2.69138-8.32492-2.66269,1.46507-5.66009,2.53261-7.93952,4.45233-68.58516,57.76349-145.96889,99.37436-231.533,125.7919-10.94791,3.38023-14.4428,7.812-11.78611,20.00522q63.48084,291.35761,126.05036,582.91372c9.01775,41.71739,10.338,87.66607,29.55473,124.0955,44.8386,85.00153,222.48458,112.17217,297.24218,50.91136,21.63878-17.73193,30.86216-39.85336,17.23571-64.948-19.31209-35.56553-51.37758-56.78621-90.27835-66.5562-9.76185-2.45207-14.87818-5.63952-17.07164-15.51947-11.47511-51.6913-16.0461-103.8404-10.50882-156.579,7.10245-67.64515,24.1177-131.78241,68.78936-185.55794,4.51545-5.43561,9.67261-11.91305,17.43163-6.10675,5.30967,3.9734,3.05481,9.69146-.4448,14.553-68.65671,95.37669-76.59665,201.97016-57.77249,313.46634.43567,2.58115,1.87718,4.993,2.84947,7.48357,2.36167-1.73667,5.52643-2.97612,6.95808-5.28882,11.66045-18.83687,24.94676-36.98176,34.10931-56.9984C2012.29113,2565.20985,2022.22933,2444.41376,2022.10539,2322.31566Zm-643.61421,541.62843c87.21042-3.16147,181.04578-7.278,273.19346-28.33556,8.96292-2.04824,14.1058-4.207,11.65973-15.963-46.36906-222.84842-87.87-446.70754-139.34894-668.50413-3.61356-15.56916-9.61935-18.5073-23.45913-15.35212a663.04936,663.04936,0,0,1-204.52318,14.25346c-15.15378-1.28629-19.47473,4.18359-22.31577,18.1069-45.12776,221.16231-82.0107,443.818-121.5005,666.00181-1.65071,9.28763.961,11.98388,9.8521,13.32586C1231.56985,2857.969,1301.49471,2862.8994,1378.49118,2863.94409Zm805.42543-650.83875c-46.23226-.81393-89.88881,7.84-129.35091,33.254-7.0866,4.56342-9.47541,10.03816-8.87524,18.49416,3.59042,50.59578.7114,101.109-1.50848,151.69795-.51444,11.72415-.25157,25.64209-2.41264,37.812-2.17528,12.24986-.67945,25.60292,1.20189,32.23615,66.762,79.72013,147.20121,142.69876,242.35228,186.62547,167.05778,77.1227,322.67058,27.1298,400.12256-129.41,5.14175-10.392,4.4689-18.51273-.51177-28.33727-45.03394-88.82585-101.99349-168.6585-177.98184-233.69994-35.25966-30.18017-71.8256-58.83159-120.8852-63.84967-30.19416-3.08836-22.25879,16.57529-19.64223,32.20585,1.027,6.137,3.18346,11.54294-2.60742,15.62828-5.32395,3.75578-11.19337,3.04952-16.212-1.05924C2299.89111,2225.63955,2243.563,2214.102,2183.91661,2213.10534Zm-67.69712-1196.88323c-.718-56.58587-12.55221-100.07791-29.1769-142.28352-41.69826-105.86008-98.49275-201.45024-189.34285-273.33353-4.81589-3.81047-9.56652-8.35483-16.52931-3.26714-90.63877,66.23035-159.94919,147.40827-178.42493,262.169-2.79178,17.34081-16.12721,39.38585,8.30863,54.76438,75.46158,47.491,138.26957,108.31243,190.20033,180.79974,42.21775,58.92927,43.94527,61.05847,110.51118,28.74538C2061.45439,1099.69616,2128.85308,1086.6439,2116.21949,1016.22211ZM590.86622,1003.456c3.69531,24.21522-4.003,52.24834,14.36791,67.4,45.5073,37.533,99.113,61.20627,156.3162,76.36375,7.9231,2.09937,11.63911.32072,15.76008-6.64579,50.53938-85.43791,115.23547-158.65776,199.1549-211.67262,31.588-19.95523,34.94023-41.00185,28.975-72.68593-21.26852-112.967-89.17184-193.06293-178.52831-258.71746-5.81288-4.271-9.97012-1.697-14.58595,1.71218-50.94,37.62276-90.35868,85.64953-123.46814,138.93913C637.83881,820.26417,597.87479,906.62124,590.86622,1003.456Zm1543.49473,13.88447c0,3.50746-.06169,7.01607.014,10.52195.12338,5.69151.33671,11.381.51206,17.07122,4.85187-3.50346,10.07329-6.59667,14.49449-10.5785,24.96618-22.48455,46.42476-48.18184,68.51934-73.41732,22.35219-25.52965,29.92543-53.2569,24.1671-86.18373-21.36633-122.16777-72.28083-229.018-163.44736-314.65546-13.11824-12.32258-30.022-20.65328-45.33923-30.57614-5.55471-3.59856-11.5118-3.37837-17.89971-1.10523a582.39218,582.39218,0,0,0-108.40511,51.93584c-6.57268,4.01173-6.99578,5.631-.35713,10.733C2046.759,698.78708,2112.6382,846.30573,2134.36095,1017.34047ZM684.58678,525.9587c-23.02518,6.9653-42.01734,20.68149-58.85951,36.88958C538.10768,647.16947,488.1117,751.33472,466.65041,869.89665c-3.70144,20.44817-8.36218,43.09094,3.37038,61.7843,26.24041,41.80821,59.66815,77.85567,96.9128,110.27057,1.59715,1.39025,3.806,2.07752,5.73005,3.09207a44.52127,44.52127,0,0,0,1.21825-6.43617c8.082-183.93794,84.77149-332.96734,227.87043-448.2842,2.01419-1.623,8.999-3.16261,3.04738-7.01564A517.74453,517.74453,0,0,0,684.58678,525.9587ZM2735.79311,2257.02919c-2.00055-22.11086-3.617-45.41063-6.28981-68.58873-12.82123-111.17061-46.36735-216.66542-87.9034-319.98462-3.16118-7.86312-8.61136-8.70789-14.86918-7.37905-11.76284,2.49748-24.339,3.94827-34.81186,9.29307-77.33918,39.4698-126.25941,105.46882-165.20316,180.26312-8.06075,15.48063-25.81524,37.50981,14.70126,30.28727,1.41909-.25275,3.05437.49349,4.55057.91131,110.74936,30.94355,197.01948,99.0782,274.46461,180.63524,4.59741,4.84159,9.44128,9.449,14.17063,14.1655C2734.97489,2270.50356,2735.347,2264.37482,2735.79311,2257.02919Zm-1.91859,92.48367c4.38008-25.10154-6.51342-47.38062-22.88538-67.71712-38.25234-47.51484-84.55772-86.22327-134.53263-120.55934-40.5202-27.84006-82.1148-54.09595-130.094-67.75053-17.41093-4.955-35.7186-4.02766-44.39365,13.01514-15.20618,29.8726-24.81567,62.22039-31.66838,95.17449-.4815,2.31613-4.4489,7.96193,3.22088,6.49229,56.82561-10.88693,99.7045,19.137,140.29267,50.82254,79.436,62.01191,136.2713,142.82471,183.83013,230.66727,1.56017,2.88188,4.01937,5.27711,6.06019,7.89882,1.21433-2.8102,2.65855-5.545,3.609-8.44172C2721.97546,2444.41861,2730.19185,2398.48079,2733.87452,2349.51286ZM367.467,591.77458c1.386,98.59063,21.32592,189.00721,63.57537,274.17209,3.36374,6.78031,7.97821,12.93989,12.0113,19.38806,1.39445-7.39132,2.88037-14.76694,4.16981-22.1764,23.99839-137.89673,80.699-256.87134,197.30885-341.21865,1.78778-1.29308,3.33689-2.916,4.99737-4.385-2.21959-1.2566-4.29625-3.1237-6.67935-3.6816-90.0486-21.08553-178.80983-22.12928-265.11714,16.82818-5.57941,2.51839-7.59195,5.46867-7.80857,11.20244C369.24955,559.7792,368.18823,577.64007,367.467,591.77458Zm1972.88773.89882c-.746-14.59288-1.75951-32.85743-2.562-51.13119-.22476-5.11361-1.72467-8.14356-7.01692-10.54015-86.70421-39.26383-175.88647-38.34409-266.39444-16.99268-2.1262.50149-4.03422,1.93-6.04391,2.92607,1.44251,1.56831,2.6674,3.43713,4.35808,4.66231,121.4381,87.98786,178.543,212.04459,199.87851,356.199a93.58153,93.58153,0,0,0,2.32983,9.28977c1.68755-2.5593,3.6087-4.99552,5.02894-7.69547C2316.52409,790.813,2338.72977,696.19451,2340.35477,592.6734ZM2122.609,2737.48534c18.894.46808,37.42328-1.88232,54.62058-9.98276,15.60429-7.35077,27.95144-18.27283,26.60117-37.38758-1.32027-18.68523-13.15136-33.22256-29.78463-36.77014-52.61575-11.22279-100.19171-35.83626-150.45564-53.14323-8.15856-2.80934-10.42842-1.31742-12.58647,6.55826-11.57263,42.23345-27.49521,82.75451-50.69388,120.059-5.658,9.098-3.63812,10.83524,6.14873,10.787C2018.50783,2737.34968,2070.55868,2737.48534,2122.609,2737.48534ZM791.22759,2787.344q-.00333-1.36825-.00679-2.73622c16.74294,0,33.48608.02913,50.22873-.04141a34.307,34.307,0,0,0,5.50794-.90247c-.745-1.59644-1.12187-3.55729-2.28878-4.7362-35.59565-35.96735-60.21449-79.07242-81.12752-124.58357-1.9465-4.23672-2.82683-6.54741-9.07151-3.96341-40.584,16.7912-81.21726,33.56669-122.51084,48.47386-11.642,4.20244-20.142,8.64763-24.18774,20.3919-9.29956,26.99586,10.69074,65.69172,39.0969,67.33557C694.842,2789.358,743.09308,2787.344,791.22759,2787.344Zm1241.40775-272.37752c-.75424,2.31584-1.44151,3.92742-1.80193,5.609-4.324,20.17257-8.48813,40.38084-12.97516,60.51657-.97257,4.3638.07626,6.17443,4.38137,7.5364,45.25412,14.31829,90.436,28.86418,135.6767,43.22416,2.10507.668,4.57884.17507,6.88069.223-1.36511-1.64642-2.46063-3.66154-4.13447-4.88557-39.71484-29.043-76.36761-61.579-110.846-96.63128C2044.69218,2525.34907,2038.9924,2520.70568,2032.63534,2514.96649Z" style="fill: #010101"/>
    <path d="M1351.1212,835.40323c331.95493-.17621,610.74464,249.774,644.39372,578.22721,6.42033,62.67033,3.023,125.031-7.08331,187.37957-4.42463,27.296,14.46907,51.59948,18.24156,78.5,6.20027,44.21487,7.60908,88.39075,2.91143,132.76-.39568,3.73593-1.92215,7.35192-2.92314,11.02373-2.4565-2.71995-5.193-5.23813-7.32479-8.1924-14.94843-20.71576-31.23585-39.89591-55.273-50.72972-13.37327-6.02764-20.91867-6.36735-20.82571,12.77782.45066,92.71642-39.67186,168.51371-100.77974,235.05991-2.20932,2.4058-5.47645,3.8406-8.25066,5.72777-.93031-3.314-2.27943-6.57226-2.72666-9.9502-4.95825-37.43356-11.18466-74.5981-23.839-110.3444-1.84819-5.22028-3.825-12.85578-11.48167-10.45027-7.46815,2.34583-5.99194,10.095-3.52546,15.01027,24.42513,48.67291,1.71768,75.9852-38.50152,103.679-144.0356,99.1793-301.72263,136.82134-474.43407,115.03862-136.074-17.16161-252.07973-76.491-353.18518-167.5647-10.031-9.03574-12.49637-17.309-9.011-30.26356,7.27437-27.03842,12.71927-54.568,18.97338-81.88262,1.51219-6.6041,1.739-13.27031-6.03635-15.366-8.69632-2.34383-11.939,4.45-13.232,11.22378-10.50081,55.01384-20.69662,110.08566-31.11747,165.11463-.90018,4.75363-2.75037,9.32705-4.15932,13.98415-3.99039-3.46448-8.71582-6.36635-11.86165-10.47712-51.81746-67.712-73.92718-146.36914-85.00481-229.31786-1.93015-14.45237,1.98213-37.51524-12.15559-40.70541-13.00543-2.93471-25.29975,16.1322-35.50584,28.277-7.26438,8.64435-14.1128,17.63883-21.12094,26.49765-3.774,4.77033-7.49342,9.58393-11.23735,14.37812-2.13977-6.04307-5.32958-11.92962-6.257-18.15332-9.27957-62.27165-8.34255-124.42721,18.78368-182.03134,14.47707-30.74307,7.809-60.01636,6.44367-89.96349-5.62-123.2673,20.32479-238.84411,80.86127-346.61493,91.80347-163.43422,229.85827-266.50053,410.11625-314.13533C1246.01793,840.436,1298.25056,834.6033,1351.1212,835.40323Z" style="fill: #b6a5e0"/>
    <path d="M927.3119,2936.71613c-35.35519-.23476-66.54878-3.23115-95.49007-18.09234-31.2175-16.02982-36.46506-41.76937-13.79037-68.60644,13.3-15.74138,28.93258-31.11634,48.0172-36.19125,39.45524-10.492,41.88346-41.28045,43.89029-71.72622,6.93367-105.19152-20.34749-202.8809-68.30914-295.55592-2.45342-4.74048-5.2292-13.20791-12.16287-9.762-7.96022,3.95683-1.7583,10.95.574,16.1549,43.19917,96.41452,68.421,196.07047,54.53205,302.70992-.91346,7.01206-4.37394,13.69256-6.64965,20.52727-5.849-4.33352-12.34515-8.017-17.45005-13.09853-73.39513-73.05706-103.39367-166.235-120.1129-264.7326-30.62876-180.44247-10.66481-356.00794,54.67414-526.66614,1.17391-3.06579,3.1776-5.8143,4.79418-8.71074a99.64917,99.64917,0,0,1,5.84564,8.358c13.83928,24.63176,29.67626,47.53655,52.57841,64.91606,8.07838,6.13017,12.14431,4.775,14.38362-4.84587,4.32038-18.5607,9.06916-37.02545,13.11909-55.64328,1.85276-8.518,3.49033-11.88021,11.665-4.23157,100.23313,93.78111,219.35453,149.27131,353.78135,173.17452,9.5371,1.69583,11.04829,5.46132,9.44071,13.94274q-57.36867,302.69222-114.43589,605.44211c-6.19628,32.843-12.89119,65.62347-17.78662,98.665-1.99655,13.47579-7.75145,20.70662-19.64465,26.93131C1050.71442,2920.06059,989.09248,2935.44412,927.3119,2936.71613Zm-51.98218-55.005c-.30629,12.74669.05084,23.92806,10.20424,30.987,2.75036,1.912,7.90167,1.627,11.44354.60031,1.70168-.49321,3.9437-6.095,3.022-7.62865-15.985-26.59375-1.89945-44.34681,17.08021-61.05947,3.73679-3.29084,10.3496-7.08831,5.15774-13.18164-4.3865-5.14831-10.84966-3.39536-16.02982-.15536C887.00345,2843.28659,873.713,2858.96028,875.32972,2881.71114Zm110.13107-12.48394c0,12.21863-.59574,15.84075.11195,19.18728,2.11693,10.01018,5.04507,22.83,17.04323,21.33463,15.02283-1.8726,4.63325-13.15165,4.13-21.0082-.90432-14.11409-3.52816-29.23744,11.64931-38.777,3.971-2.49547,8.58623-5.29168,5.64538-11.00231-2.79206-5.42162-7.82228-5.44447-13.19035-4.01309C988.27941,2840.96789,985.93386,2858.95713,985.46079,2869.2272Z" style="fill: #b6a5e0"/>
    <path d="M2022.10539,2322.31566c.12394,122.0981-9.81426,242.89419-61.56782,355.95511-9.16255,20.01664-22.44886,38.16153-34.10931,56.9984-1.43165,2.3127-4.59641,3.55215-6.95808,5.28882-.97229-2.49062-2.4138-4.90242-2.84947-7.48357-18.82416-111.49618-10.88422-218.08965,57.77249-313.46634,3.49961-4.86158,5.75447-10.57964.4448-14.553-7.759-5.8063-12.91618.67114-17.43163,6.10675-44.67166,53.77553-61.68691,117.91279-68.78936,185.55794-5.53728,52.73855-.96629,104.88765,10.50882,156.579,2.19346,9.88,7.30979,13.0674,17.07164,15.51947,38.90077,9.77,70.96626,30.99067,90.27835,66.5562,13.62645,25.09469,4.40307,47.21612-17.23571,64.948-74.7576,61.26081-252.40358,34.09017-297.24218-50.91136-19.2167-36.42943-20.537-82.37811-29.55473-124.0955q-63.00363-291.46172-126.05036-582.91372c-2.65669-12.19322.8382-16.625,11.78611-20.00522,85.56414-26.41754,162.94787-68.02841,231.533-125.7919,2.27943-1.91972,5.27683-2.98726,7.93952-4.45233.91816,2.77107,2.17233,5.481,2.69138,8.32492,1.53562,8.414,2.44936,16.95141,4.22158,25.31,2.36225,11.1431,5.30367,22.16312,7.9962,33.236,12.71656-3.19488,20.77231-13.08025,29.47848-21.53026,47.403-46.00779,78.73971-102.04433,100.879-163.70068,1.09794-3.05751,2.86445-5.87456,4.31939-8.80385,1.45222,2.62714,3.14247,5.152,4.32253,7.89625,51.59477,119.98474,73.91539,246.28184,80.3707,375.88236C2023.14907,2273.22551,2022.10539,2297.79672,2022.10539,2322.31566Zm-86.18315,565.37428c-1.64814-27.39082-7.45059-51.378-30.3998-67.51063-4.99594-3.51189-10.91949-5.88485-15.65726-.26589-3.77306,4.47518-.60716,8.719,3.06879,12.0687,20.889,19.03536,26.61017,42.62843,21.31307,69.724-1.22346,6.25811.21391,12.09012,7.63822,13.33758,6.66236,1.11893,10.10656-3.36281,11.347-9.1497C1934.60439,2899.49305,1935.17971,2892.92136,1935.92224,2887.68994Zm-101.2304,4.25585c-2.51433-21.13329-5.75219-42.55445-22.80385-58.75077-4.39906-4.17845-9.425-6.33036-14.38311-1.62443-4.71735,4.47746-.9136,8.68733,2.12093,12.0984,16.05552,18.04722,22.42215,38.43569,16.39808,62.35547-1.41566,5.62154-.30786,11.31218,7.22254,11.95989,6.3545.54662,8.95322-3.192,9.414-9.18653C1833.0754,2903.40047,1833.93817,2898.03769,1834.69184,2891.94579Z" style="fill: #b6a5e0"/>
    <path d="M1378.49118,2863.94409c-76.99647-1.04469-146.92133-5.97509-216.44223-16.46677-8.8911-1.342-11.50281-4.03823-9.8521-13.32586,39.4898-222.18386,76.37274-444.8395,121.5005-666.00181,2.841-13.92331,7.162-19.39319,22.31577-18.1069a663.04936,663.04936,0,0,0,204.52318-14.25346c13.83978-3.15518,19.84557-.217,23.45913,15.35212,51.479,221.79659,92.97988,445.65571,139.34894,668.50413,2.44607,11.756-2.69681,13.91475-11.65973,15.963C1559.537,2856.66614,1465.7016,2860.78262,1378.49118,2863.94409Z" style="fill: #caf3eb"/>
    <path d="M2183.91661,2213.10534c59.64638.9967,115.9745,12.53421,163.689,51.59763,5.01866,4.10876,10.88808,4.815,16.212,1.05924,5.79088-4.08534,3.6344-9.49126,2.60742-15.62828-2.61656-15.63056-10.55193-35.29421,19.64223-32.20585,49.0596,5.01808,85.62554,33.6695,120.8852,63.84967,75.98835,65.04144,132.9479,144.87409,177.98184,233.69994,4.98067,9.82454,5.65352,17.94526.51177,28.33727-77.452,156.53983-233.06478,206.53273-400.12256,129.41-95.15107-43.92671-175.59032-106.90534-242.35228-186.62547-4.64539-8.049-2.06845-24.71666-.796-35.10309,1.67282-13.654,1.42042-21.58353,2.0067-34.945,2.21988-50.58892,5.0989-101.10217,1.50848-151.69795-.60017-8.456,1.78864-13.93074,8.87524-18.49416C2094.0278,2220.94532,2137.68435,2212.29141,2183.91661,2213.10534Z" style="fill: #b6a5e0"/>
    <path d="M2116.21949,1016.22211c12.63359,70.42179-54.7651,83.474-104.45385,107.59432-66.56591,32.31309-68.29343,30.18389-110.51118-28.74538-51.93076-72.48731-114.73875-133.30874-190.20033-180.79974-24.43584-15.37853-11.10041-37.42357-8.30863-54.76438,18.47574-114.76074,87.78616-195.93866,178.42493-262.169,6.96279-5.08769,11.71342-.54333,16.52931,3.26714,90.8501,71.88329,147.64459,167.47345,189.34285,273.33353C2103.66728,916.1442,2115.50152,959.63624,2116.21949,1016.22211Z" style="fill: #b6a5e0"/>
    <path d="M590.86622,1003.456c7.00857-96.83476,46.97259-183.19183,97.99168-265.30677,33.10946-53.2896,72.52815-101.31637,123.46814-138.93913,4.61583-3.40914,8.77307-5.98316,14.58595-1.71218,89.35647,65.65453,157.25979,145.7505,178.52831,258.71746,5.96524,31.68408,2.613,52.7307-28.975,72.68593-83.91943,53.01486-148.61552,126.23471-199.1549,211.67262-4.121,6.96651-7.837,8.74516-15.76008,6.64579-57.20316-15.15748-110.8089-38.8308-156.3162-76.36375C586.86319,1055.70434,594.56153,1027.67122,590.86622,1003.456Z" style="fill: #b6a5e0"/>
    <path d="M2134.36095,1017.34047c-21.72275-171.03474-87.602-318.55339-227.74156-426.25437-6.63865-5.102-6.21555-6.72127.35713-10.733a582.39218,582.39218,0,0,1,108.40511-51.93584c6.38791-2.27314,12.345-2.49333,17.89971,1.10523,15.31727,9.92286,32.221,18.25356,45.33923,30.57614,91.16653,85.63747,142.081,192.48769,163.44736,314.65546,5.75833,32.92683-1.81491,60.65408-24.1671,86.18373-22.09458,25.23548-43.55316,50.93277-68.51934,73.41732-4.4212,3.98183-9.64262,7.075-14.49449,10.57864-.17535-5.69035-.38868-11.37985-.51206-17.07136C2134.29926,1024.35654,2134.36095,1020.84793,2134.36095,1017.34047Z" style="fill: #caf3eb"/>
    <path d="M684.58678,525.9587A517.74453,517.74453,0,0,1,804.7997,583.30758c5.95167,3.853-1.03319,5.39264-3.04738,7.01564-143.09894,115.31686-219.7884,264.34626-227.87043,448.2842a44.51783,44.51783,0,0,1-1.21832,6.43632c-1.92394-1.0147-4.13283-1.702-5.73-3.09222-37.24465-32.4149-70.67239-68.46236-96.9128-110.27057-11.73256-18.69336-7.07182-41.33613-3.37038-61.7843,21.46129-118.56193,71.45727-222.72718,159.07686-307.04837C642.56944,546.64019,661.5616,532.924,684.58678,525.9587Z" style="fill: #caf3eb"/>
    <path d="M2735.79311,2257.02919c-.44609,7.34563-.81822,13.47437-1.19062,19.60311-4.72907-4.7165-9.57294-9.32391-14.17035-14.1655-77.44513-81.557-163.71525-149.69169-274.46461-180.63524-1.4962-.41782-3.13148-1.16406-4.55057-.91131-40.5165,7.22254-22.762-14.80664-14.70126-30.28727,38.94375-74.7943,87.864-140.79332,165.20316-180.26312,10.47283-5.3448,23.049-6.79559,34.81186-9.29307,6.25782-1.32884,11.708-.48407,14.86918,7.37905,41.536,103.3192,75.08217,208.814,87.9034,319.98462C2732.17612,2211.61856,2733.79256,2234.91833,2735.79311,2257.02919Z" style="fill: #b6a5e0"/>
    <path d="M2733.87452,2349.51286c-3.68267,48.96793-11.89906,94.90575-26.56119,139.60184-.95044,2.89673-2.39466,5.63152-3.60927,8.44172-2.04054-2.62171-4.49974-5.01694-6.05991-7.89882C2650.08532,2401.815,2593.25,2321.00224,2513.814,2258.99033c-40.58817-31.68551-83.46706-61.70947-140.29267-50.82254-7.66978,1.46964-3.70238-4.17616-3.22088-6.49229,6.85271-32.9541,16.4622-65.30189,31.66838-95.17449,8.675-17.0428,26.98272-17.97011,44.39365-13.01514,47.97921,13.65458,89.57381,39.91047,130.094,67.75053,49.97491,34.33607,96.28029,73.0445,134.53263,120.55934C2727.3611,2302.13224,2738.2546,2324.41132,2733.87452,2349.51286Z" style="fill: #caf3eb"/>
    <path d="M367.467,591.77458c.72119-14.13451,1.78251-31.99538,2.45764-49.87088.21662-5.73377,2.22916-8.684,7.80857-11.20244,86.30731-38.95746,175.06854-37.91371,265.11714-16.82818,2.3831.5579,4.45976,2.425,6.67935,3.6816-1.66048,1.469-3.20959,3.09192-4.99737,4.385C527.92251,606.287,471.22191,725.2616,447.22352,863.15833c-1.28944,7.40946-2.77536,14.78508-4.16981,22.1764-4.03309-6.44817-8.64756-12.60775-12.0113-19.38806C388.793,780.78179,368.853,690.36521,367.467,591.77458Z" style="fill: #b6a5e0"/>
    <path d="M2340.35477,592.6734c-1.625,103.52111-23.83068,198.13956-70.42193,286.71766-1.42024,2.69995-3.34139,5.13617-5.02894,7.69547a93.58153,93.58153,0,0,1-2.32983-9.28977c-21.33549-144.15441-78.44041-268.21114-199.87851-356.199-1.69068-1.22518-2.91557-3.094-4.35808-4.66224,2.00969-.99614,3.91771-2.42465,6.04391-2.92614,90.508-21.35141,179.69023-22.27115,266.39444,16.99268,5.29225,2.39659,6.79216,5.42654,7.01692,10.54015C2338.59526,559.816,2339.60881,578.08052,2340.35477,592.6734Z" style="fill: #b6a5e0"/>
    <path d="M2122.609,2737.48534c-52.05029,0-104.10114-.13566-156.15014.12052-9.78685.04826-11.80668-1.689-6.14873-10.787,23.19867-37.30448,39.12125-77.82554,50.69388-120.059,2.15805-7.87568,4.42791-9.3676,12.58647-6.55826,50.26393,17.307,97.83989,41.92044,150.45564,53.14323,16.63327,3.54758,28.46436,18.08491,29.78463,36.77014,1.35027,19.11475-10.99688,30.03681-26.60117,37.38758C2160.03225,2735.603,2141.503,2737.95342,2122.609,2737.48534Zm-74.93781-26.59c-.68555-21.59366-6.12974-37.30762-21.49156-48.11287-4.36223-3.06808-10.0306-4.542-13.78352.17278-4.00695,5.0335,2.0124,7.42474,4.77819,10.0613,9.8908,9.429,16.05766,20.47586,13.1675,34.32692-1.14378,5.48159-6.57311,10.75356-.38683,15.628,2.45478,1.93429,7.65464,2.71852,10.43128,1.45279C2047.41684,2721.21848,2048.0023,2714.26268,2047.67116,2710.8953Zm72.33352-14.59073a48.00256,48.00256,0,0,0-13.79308-31.17489c-4.26556-4.33352-10.02646-7.17656-15.46407-2.12135-5.852,5.441-.78994,9.85653,2.82761,13.7374,6.3872,6.85184,8.727,15.17533,10.48626,24.08628,1.18519,6.00422-9.842,16.83175,3.40393,17.235C2117.08853,2718.36031,2119.85332,2707.02786,2120.00468,2696.30457Z" style="fill: #b6a5e0"/>
    <path d="M791.22759,2787.344c-48.13451,0-96.3856,2.014-144.35961-.76195-28.40616-1.64385-48.39646-40.33971-39.0969-67.33557,4.04573-11.74427,12.54571-16.18946,24.18774-20.3919,41.29358-14.90717,81.9268-31.68266,122.51084-48.47386,6.24468-2.584,7.125-.27331,9.07151,3.96341,20.913,45.51115,45.53187,88.61622,81.12752,124.58357,1.16691,1.17891,1.54375,3.13976,2.28878,4.7362a34.307,34.307,0,0,1-5.50794.90247c-16.74265.07054-33.48579.04141-50.22873.04141Q791.22423,2785.976,791.22759,2787.344Zm-119.54893-31.858c1.939,7.98307-1.01177,21.14272,11.612,21.32835,12.21278.17992,9.06-12.15609,9.13656-20.09746.12566-13.04655,6.49808-22.82426,14.90781-31.76148,4.037-4.28983,7.01442-9.16683,2.90009-14.39739-4.3763-5.56384-10.16711-2.66226-14.7034.16621C679.29853,2720.84807,673.0804,2736.57,671.67866,2755.486Zm78.42306-11.1768c2.78113,12.77639-.92495,28.76365,14.22418,27.85291,16.25286-.97757,4.15068-15.15021,5.75119-23.25693,1.17527-5.95224,2.52211-11.87193,3.868-17.78905,1.82841-8.03761,18.35372-15.22959,6.82336-22.60864-10.95141-7.00835-17.72522,7.30279-23.0004,15.71681C753.64352,2730.80284,752.04865,2738.96726,750.10172,2744.3092Z" style="fill: #b6a5e0"/>
    <g>
      <path d="M875.32972,2881.71114c-1.61671-22.75086,11.67373-38.42455,30.87787-50.43785,5.18016-3.24,11.64332-4.993,16.02982.15536,5.19186,6.09333-1.42095,9.8908-5.15774,13.18164C898.1,2861.323,884.01448,2879.076,899.99946,2905.66976c.92174,1.53361-1.32028,7.13544-3.022,7.62865-3.54187,1.02669-8.69318,1.31171-11.44354-.60031C875.38056,2905.6392,875.02343,2894.45783,875.32972,2881.71114Z" style="fill: #010202"/>
      <path d="M985.46079,2869.2272c.47307-10.27007,2.81862-28.25931,25.38956-34.27866,5.36807-1.43138,10.39829-1.40853,13.19035,4.01309,2.94085,5.71063-1.67441,8.50684-5.64538,11.00231-15.17747,9.53953-12.55363,24.66288-11.64931,38.777.50321,7.85655,10.89279,19.1356-4.13,21.0082-11.99816,1.49535-14.9263-11.32445-17.04323-21.33463C984.86505,2885.068,985.46079,2881.44583,985.46079,2869.2272Z" style="fill: #010102"/>
      <path d="M1935.92224,2887.68994c-.74253,5.23142-1.31785,11.80311-2.69,18.204-1.24046,5.78689-4.68466,10.26863-11.347,9.1497-7.42431-1.24746-8.86168-7.07947-7.63822-13.33758,5.2971-27.09552-.4241-50.68859-21.31307-69.724-3.676-3.34967-6.84185-7.59352-3.06879-12.0687,4.73777-5.619,10.66132-3.246,15.65726.26589C1928.47165,2836.31194,1934.2741,2860.29912,1935.92224,2887.68994Z" style="fill: #010101"/>
      <path d="M1834.69184,2891.94579c-.75367,6.0919-1.61644,11.45468-2.0314,16.852-.46079,5.99451-3.05951,9.73315-9.414,9.18653-7.5304-.64771-8.6382-6.33835-7.22254-11.95989,6.02407-23.91978-.34256-44.30825-16.39808-62.35547-3.03453-3.41107-6.83828-7.62094-2.12093-12.0984,4.95811-4.70593,9.98405-2.554,14.38311,1.62443C1828.93965,2849.39134,1832.17751,2870.8125,1834.69184,2891.94579Z" style="fill: #010202"/>
      <path d="M2047.67116,2710.8953c.33114,3.36738-.25432,10.32318-7.28494,13.52892-2.77664,1.26573-7.9765.4815-10.43128-1.45279-6.18628-4.87444-.757-10.14641.38683-15.628,2.89016-13.85106-3.2767-24.89792-13.1675-34.32692-2.76579-2.63656-8.78514-5.0278-4.77819-10.0613,3.75292-4.71479,9.42129-3.24086,13.78352-.17278C2041.54142,2673.58768,2046.98561,2689.30164,2047.67116,2710.8953Z" style="fill: #020202"/>
      <path d="M2120.00468,2696.30457c-.15136,10.72329-2.91615,22.05574-12.53935,21.76244-13.2459-.40325-2.21874-11.23078-3.40393-17.235-1.75923-8.91095-4.09906-17.23444-10.48626-24.08628-3.61755-3.88087-8.67961-8.29636-2.82761-13.7374,5.43761-5.05521,11.19851-2.21217,15.46407,2.12135A48.00256,48.00256,0,0,1,2120.00468,2696.30457Z" style="fill: #020202"/>
      <path d="M671.67866,2755.486c1.40174-18.916,7.61987-34.63793,23.8531-44.76177,4.53629-2.82847,10.3271-5.73,14.7034-.16621,4.11433,5.23056,1.13692,10.10756-2.90009,14.39739-8.40973,8.93722-14.78215,18.71493-14.90781,31.76148-.07654,7.94137,3.07622,20.27738-9.13656,20.09746C670.66689,2776.62872,673.61767,2763.46907,671.67866,2755.486Z" style="fill: #010102"/>
      <path d="M750.10172,2744.3092c1.94693-5.34194,3.5418-13.50636,7.66635-20.0849,5.27518-8.414,12.049-22.72516,23.0004-15.71681,11.53036,7.37905-4.995,14.571-6.82336,22.60864-1.34591,5.91712-2.69275,11.83681-3.868,17.78905-1.60051,8.10672,10.50167,22.27936-5.75119,23.25693C749.17677,2773.07285,752.88285,2757.08559,750.10172,2744.3092Z" style="fill: #010102"/>
    </g>
    <g>
      <path d="M1790.03448,1990.39169c-39.52172,36.44855-196.23957,171.44374-433.39655,175.51452C1086.39359,2170.54511,912.28054,2001.714,880,1969.2089L882.94828,1945c32.28053,32.5051,206.39358,201.33621,476.63793,196.69731,237.157-4.07077,392.89207-139.066,432.41379-175.51452Z" style="opacity: 0.2"/>
      <path d="M573.01727,1043.43835c8.03125-10.95776,9.479-81.69533,9.479-81.69545.32246-15.26173,5.52265-36.56895,9.68334-52.19924,6.6709-25.06026,15.54443-53.30564,32.4003-94.38332,2.72357-6.63733,5.08514-12.12061,6.748-15.9209a366.78679,366.78679,0,0,1-115.22619-85.03113c-3.426,7.14258-7.92472,16.90442-12.79007,28.66706-14.05292,33.97473-21.288,60.76367-26.97318,82.1156-.79284,2.97766-4.56378,21.55078-12.0733,58.5755a80.78828,80.78828,0,0,0-1.70386,20.84124,63.50269,63.50269,0,0,0,3.09424,18.24488c1.14737,3.37909,2.91672,7.50531,12.5498,21.54645,6.98975,10.18823,12.39795,17.27111,12.398,17.27117,10.87714,14.24531,20.19727,24.87293,23.92945,29.072,3.37939,3.80218,18.47192,20.667,32.00689,32.9024,5.71131,5.1629,18.6175,16.25641,20.3938,18.5069a8.50449,8.50449,0,0,0,1.66193,1.52038c.69672.49036,1.85242,1.30371,2.98041,1.03809A2.77814,2.77814,0,0,0,573.01727,1043.43835Z" style="opacity: 0.2"/>
      <path d="M2134.36286,1043.82145c-8.03125-10.95776-9.47905-81.69533-9.47905-81.69545-.32246-15.26174-5.52265-36.56895-9.68334-52.19924-6.6709-25.06026-15.54443-53.30564-32.4003-94.38332-2.72357-6.63733-5.08514-12.12061-6.748-15.9209a366.78679,366.78679,0,0,0,115.22619-85.03113c3.426,7.14258,7.92472,16.90442,12.79007,28.66705,14.05292,33.97474,21.288,60.76368,26.97318,82.1156.79284,2.97767,4.56378,21.55079,12.0733,58.57551a80.78823,80.78823,0,0,1,1.70386,20.84124,63.50269,63.50269,0,0,1-3.09424,18.24488c-1.14737,3.37909-2.91672,7.50531-12.5498,21.54644-6.98975,10.18824-12.398,17.27112-12.398,17.27118-10.87714,14.2453-20.19727,24.87293-23.92945,29.072-3.37939,3.80219-18.47192,20.667-32.0069,32.90241-5.7113,5.1629-18.61749,16.25641-20.39379,18.5069a8.50449,8.50449,0,0,1-1.66193,1.52038c-.69672.49036-1.85242,1.30371-2.98041,1.03809A2.77814,2.77814,0,0,1,2134.36286,1043.82145Z" style="opacity: 0.2"/>
      <path d="M2702.00359,2497.28009c-12.40458-5.54077-49.01931-82.08148-49.01931-82.08148-7.83991-13.09811-22.91166-29.03178-34.26839-40.54882-18.20839-18.46541-25.55859-42.23268-58.52488-75.35766-5.06087-5.08523-16.54193-15.72024-19.86894-18.19784,11.43769-16.25067,13.97411-20.10036,25.31687-45.7782a366.83612,366.83612,0,0,0,22.40782-68.03828c6.51415,4.50772,15.25765,10.75939,25.3107,18.56755,29.03686,22.55278,48.59162,42.24046,64.10686,57.97271,2.1637,2.194,14.63955,16.46049,39.503,44.904a80.78937,80.78937,0,0,1,11.80369,17.26076,63.50274,63.50274,0,0,1,6.34949,17.382c.67709,3.50375,1.184,7.96462-.22913,24.93381-1.02532,12.31281-2.215,21.14469-2.215,21.14469-2.39265,17.76277-4.26965,31.4517-5.4318,36.94815-1.05229,4.97691-3.334,29.54487-9.03107,46.87819-2.404,7.31406-11.23318,36.87046-11.6615,39.70533a8.504,8.504,0,0,1-.6906,2.144c-.36234.77108-.9634,2.05011-2.07486,2.3781A2.77811,2.77811,0,0,1,2702.00359,2497.28009Z" style="opacity: 0.2"/>
      <g>
        <path d="M772.09477,1249.59215c18.36647-49.01332,54.892-128.05348,125.8288-204.31944A598.64574,598.64574,0,0,1,1085.01113,910.2141,582.1498,582.1498,0,0,1,1268.7874,860h23.179c-4.90266,1.50684-12.42318,3.86612-21.52335,6.92608-62.06273,20.8685-181.19176,62.26669-289.73737,164.49446-62.40307,58.7711-102.15789,119.61126-125.8288,155.83686-29.08166,44.50634-41.05313,68.51893-41.39105,69.26083a80.51953,80.51953,0,0,1-8.27821,13.85217c-2.82543,3.824-5.45764,7.32556-9.93385,10.38912-4.00976,2.74418-7.96576,5.6416-13.24514,5.19456-6.74464-.57111-10.97874-6.10323-11.5895-6.92608C765.07809,1271.80389,765.66379,1259.97007,772.09477,1249.59215Z" style="fill: #f4f4f4;opacity: 0.2"/>
        <path d="M1139,2852c45.06946,7.02441,82.84155,10.81567,110,13,178.14819,14.32861,314.595-7.10083,373-18,22.60217-4.218,41.03479-8.26172,53-11l-12-65a1420.74377,1420.74377,0,0,1-516,14Z" style="opacity: 0.21"/>
        <path d="M1608,1725a469.6437,469.6437,0,0,1-452-6l1-22a469.6437,469.6437,0,0,0,452,6Z" style="opacity: 0.2"/>
        <g>
          <path d="M577.35954,518.41774c-86.45453-6.90826-181.89575,9.2085-182.02246,19.41571-.04321,3.48371,11.01569,6.33136,19.41577,8.49439,41.30658,10.63641,77.52893.98291,81.30335,0,32.79467-8.54041,75.74249-3.08051,113.55926,5.658q14.01563-12.78031,28.03125-25.56049A532.08184,532.08184,0,0,0,577.35954,518.41774Z" style="fill: #f4f4f4;opacity: 0.2"/>
          <path d="M664.39824,532.35573l-32.615,25.23975c29.54583,8.09954,53.27545,16.98755,62.07068,20.283a398.89352,398.89352,0,0,1,77.68524,39.38537l29.44757-26.66632C752.80919,559.86482,704.59282,542.42476,664.39824,532.35573Z" style="fill: #f4f4f4;opacity: 0.4"/>
          <path d="M976.5955,815.72109c-5.87658-19.25745-33.93084-105.52973-118.92132-182.02246a430.51414,430.51414,0,0,0-43.68885-34.4729l-30.65826,26.01068c46.61682,32.64013,76.81873,67.71118,91.33588,84.91168C958.027,808.9211,977.69,915.038,988.73033,911.58626,996.22661,909.24257,989.94029,859.45156,976.5955,815.72109Z" style="fill: #f4f4f4;opacity: 0.2"/>
        </g>
        <g>
          <path d="M2130.06742,518.41774c86.45453-6.90826,181.89575,9.2085,182.02246,19.41571.04321,3.48371-11.01569,6.33136-19.41577,8.49439-41.30658,10.63641-77.52893.98291-81.30335,0-32.79467-8.54041-75.74249-3.08051-113.55926,5.658q-14.01562-12.78031-28.03125-25.56049A532.08155,532.08155,0,0,1,2130.06742,518.41774Z" style="fill: #f4f4f4;opacity: 0.2"/>
          <path d="M2043.02872,532.35573l32.615,25.23975c-29.54583,8.09954-53.27545,16.98755-62.07068,20.283a398.89352,398.89352,0,0,0-77.68524,39.38537l-29.44757-26.66632C1954.61777,559.86482,2002.83414,542.42476,2043.02872,532.35573Z" style="fill: #f4f4f4;opacity: 0.4"/>
          <path d="M1730.83146,815.72109c5.87658-19.25745,33.93084-105.52973,118.92132-182.02246a430.51414,430.51414,0,0,1,43.68885-34.4729l30.65826,26.01068c-46.61682,32.64013-76.81873,67.71118-91.33588,84.91168-83.364,98.773-103.027,204.88989-114.06738,201.43817C1711.20035,909.24257,1717.48667,859.45156,1730.83146,815.72109Z" style="fill: #f4f4f4;opacity: 0.2"/>
        </g>
        <path d="M2047.08923,2282.916a298.65231,298.65231,0,0,1,103.7118-30.22461,302.20471,302.20471,0,0,1,46.09692-1.2024c17.27344.86988,47.69458,2.63257,82.144,15.66089,40.11841,15.17212,61.43408,28.34033,61.43408,28.34033,10.86744,6.71338,25.40455,16.84278,31.06885,12.1377,2.45386-2.03857,3.50659-6.92554,2.15186-10.57666-1.46387-3.94531-5.8999-4.96118-8.27686-7.06763-1.498-1.32715-3.22778-2.82422-5.17944-4.4497-3.9856-3.31958-8.89722-7.17554-14.65186-11.218-6.66162-4.67993-31.36206-21.48828-72.09521-33.72681-24.698-7.42065-72.9375-21.32666-134.626-11.05493a276.24331,276.24331,0,0,0-92.80591,33.47949Z" style="fill: #f4f4f4;opacity: 0.2"/>
        <path d="M2454.93379,2084.83993c5.47069-18.22776,8.46884-28.1487,14.20881-39.91751a301.4227,301.4227,0,0,1,62.34864-85.34463c12.491-11.96256,34.65725-32.872,67.78061-48.97663,38.5737-18.75471,40.93717-38.93605,30.67318-36.83712-7.97618,1.631-16.93234,1.42137-53.79514,22.63708-22.35128,12.86385-65.57977,38.393-100.461,90.29931-22.06141,32.829-33.907,67.00081-39.90114,92.28027Z" style="fill: #f4f4f4;opacity: 0.2"/>
      </g>
    </g>
  </g>
</svg>
