<svg id="Layer_4" data-name="Layer 4" xmlns="http://www.w3.org/2000/svg" viewBox="0 0 3000 3000">
  <title>3</title>
  <g>
    <path d="M2758.65869,2184.77173c-12.335-99.5481-43.6687-206.83826-95.79321-328.00342-2.60694-6.059-7.56128-8.51953-14.7124-10.52673a96.12279,96.12279,0,0,0-25.94507-3.67725c-26.38623,0-51.74658,11.34924-79.81079,35.71692-104.16675,90.45166-168.4209,205.9873-190.97681,343.39771-1.06787,6.50683-2.0813,8.59619-4.16846,8.59619-1.67236,0-4.17285-1.19947-7.7976-3.02954-51.6814-26.09595-99.82251-38.78174-147.17408-38.78174-45.7207,0-90.64843,12.46093-133.53466,37.03515-2.22657,1.27491-4.43921,2.57495-6.65186,3.875l-2.38416,1.3982c-.18164-.92432-.38049-1.84619-.578-2.76807a60.7322,60.7322,0,0,1-1.29663-7.59424c-7.9187-95.1206-24.44287-219.064-82.42663-334.16186-14.94324-29.66358-19.733-55.69214-15.53138-84.39722a32.20593,32.20593,0,0,1,1.043-4.293c.13013-.44787.26038-.89453.38489-1.34228.441.20678.89221.40319,1.34338.59863a13.31009,13.31009,0,0,1,3.78467,2.13269c18.94824,17.40381,30.78638,34.1427,37.2544,52.67859a51.91192,51.91192,0,0,1,1.63708,6.55932c1.541,7.52588,3.13464,15.30762,13.89331,15.624.225.00683.44556.00928.66492.00928,12.96118,0,16.96972-11.23853,19.7102-21.77344,18.63745-71.66553,16.51148-145.06543-6.31836-218.15894a42.61171,42.61171,0,0,0-3.77441-8.01587c-2.88794-5.15551-5.61475-10.02539-4.22327-17.32959,14.08521-73.94128,16.306-147.40966,6.59827-218.36352-9.68494-70.78723-31.50269-140.985-64.84814-208.6416-2.27442-4.61621-2.8855-7.22412-2.10877-9.0022.89221-2.0415,3.844-3.27686,8.3186-4.60779,65.02747-19.33948,125.84632-51.45508,180.76746-95.454A596.503,596.503,0,0,0,2353.25732,729.359c14.043-69.06909,14.86206-137.98969,2.43335-204.84723-.15991-.86414-.28784-1.75519-.41577-2.652-.67871-4.755-1.4497-10.1452-7.71094-12.346-5.60791-1.97-11.26928-4.17529-16.74365-6.308-11.73877-4.57227-23.87744-9.30048-36.26269-12.02271-41.93946-9.21881-83.3418-13.89221-123.05908-13.89221a482.61789,482.61789,0,0,0-212.92725,48.94708c-63.941,31.11664-125.17358,77.80011-182,138.75446-61.838,66.332-93.28479,141.32709-93.46411,222.90326-.00806,3.64068-.65235,5.48675-1.91455,5.48675-1.03736,0-2.4961-.98358-3.78247-1.85174a20.42693,20.42693,0,0,0-1.999-1.24634c-105.52734-53.83234-212.5238-81.12781-318.01758-81.12781-105.08984,0-211.65783,27.087-316.74316,80.50867a13.347,13.347,0,0,0-2.0144,1.45538c-1.2721,1.02637-2.85425,2.30469-3.9635,2.30469-1.49646,0-1.85572-2.95526-1.89344-5.43475-1.47314-96.57129-43.213-182.39765-124.05981-255.09485C852.45251,582.30066,794.66931,543.48969,736.97351,517.54c-61.73285-27.765-125.63226-41.84339-189.92456-41.84339-56.61688,0-115.25,10.90607-174.27032,32.41553-9.62262,3.507-11.40589,9.20105-12.7367,16.28028-12.51,66.52221-11.756,135.24114,2.24072,204.24627a598.09592,598.09592,0,0,0,208.8277,343.29212c54.82111,44.1,115.46814,76.2677,180.25855,95.60876,5.0932,1.52,8.23126,2.83545,9.2,5.05957.85046,1.95337.16791,4.83276-2.35614,9.93909-29.73895,60.16272-50.31336,122.77978-61.15088,186.11084-10.85632,63.443-12.24371,129.36377-4.12219,195.92993.45239,3.71265-.00971,8.62366-2.06079,11.227-18.46906,23.44116-32.207,69.18677-36.74842,122.37146-4.546,53.22461,1.26514,100.67346,15.544,126.927,4.93787,9.07959,10.5108,13.68213,16.56244,13.68091,5.38849,0,11.09625-3.66577,16.96344-10.89355,7.977-9.82874,15.76965-20.07337,23.30572-29.98218,4.99671-6.5697,10.16413-13.36206,15.33557-19.96948a16.49748,16.49748,0,0,1,4.454-3.49c.554-.34266,1.12121-.69458,1.67126-1.06348.15424.55981.31757,1.11719.481,1.67468a31.64965,31.64965,0,0,1,1.21832,5.2218,539.49635,539.49635,0,0,0,39.8562,151.137,15.77424,15.77424,0,0,1-.23706,11.26245c-49.88611,114.18066-78.09882,229.30615-83.85461,342.17773-5.91736,116.03931,11.71545,233.25293,52.41015,348.38648a16.33487,16.33487,0,0,0,1.1275,2.343c.78705,1.43482,1.53077,2.79078,1.07721,3.92383-.42779,1.06714-1.95282,2.0232-4.53338,2.84229-22.01892,6.98657-44.26746,14.51806-65.78369,21.80078-16.20832,5.48657-32.96784,11.15967-49.50855,16.55835-26.24792,8.56885-50.28363,21.16333-48.44732,55.01465,1.7998,33.17407,20.04608,55.53686,52.76544,64.66772,12.11865,3.38233,25.42425,4.95776,41.87414,4.95776,9.44275-.00122,19.0705-.5061,28.38129-.99487,9.2879-.48779,18.89166-.9917,28.28528-.9917,1.71924,0,3.43847.01612,5.16687.05249q10.29913,0,20.59668-.01025,10.29749-.00843,20.59552-.01148c14.37481,0,25.47107.02417,35.9779.07886,4.08338.02075,8.24555.384,12.27063.7334,1.40851.12329,2.817.24561,4.22553.35425l-11.89246,10.04687c-25.42883,21.46607-47.57568,43.62085-39.381,78.47534,8.51678,36.22071,40.7215,47.35279,70.23944,54.94507a258.197,258.197,0,0,0,64.2569,7.89478,311.59712,311.59712,0,0,0,38.20379-2.42993c52.83051-6.55469,120.59052-20.311,176.09589-68.91016a41.11563,41.11563,0,0,0,5.90869-6.97168c4.116-5.66406,8.00342-11.01367,17.7334-11.01367a31.80644,31.80644,0,0,1,4.293.312,1518.16082,1518.16082,0,0,0,205.92786,14.36279,1378.12254,1378.12254,0,0,0,291.79589-31.00122,18.864,18.864,0,0,1,3.76282-.553c1.91016,0,3.12793.75171,3.29346,4.49292.68432,15.38184,10.64221,26.05249,19.427,35.46656,38.302,41.05176,111.17737,67.57519,185.66016,67.57153,45.41308-.0022,86.58593-10.168,115.9342-28.625,25.89612-16.2854,41.25842-38.71,43.25647-63.14136,1.999-24.45117-9.53418-49.103-32.47729-69.41406-13.85669-12.26782-30.165-22.2168-49.85462-30.41528-1.84949-.77-3.67041-1.73413-5.43079-2.66626q-.55682-.29664-1.115-.5896c.48328-.12329.96656-.25366,1.44971-.38379a27.68026,27.68026,0,0,1,6.251-1.18335q49.73016-1.407,99.46484-2.72119c36.96778-.9939,75.19556-2.022,112.79053-3.10034,19.894-.57105,39.44775-11.4795,52.30737-29.1814,11.18018-15.39111,15.00586-33.02564,10.49707-48.3811-.49926-1.7-.87964-3.47632-1.24756-5.19434q-.15234-.71118-.30712-1.42114c.55053.18506,1.10449.36108,1.65991.53711a30.919,30.919,0,0,1,5.44092,2.11084,528.5328,528.5328,0,0,0,94.57788,40.44531c38.238,12.01758,76.09692,18.10962,112.52758,18.10742,62.98975-.00244,121.64258-18.55884,169.62061-53.66333,48.96924-35.83227,87.19019-89.29443,110.532-154.61108C2761.86328,2415.33911,2773.48877,2304.4541,2758.65869,2184.77173ZM2635.09253,1861.147c4.73389,0,7.90063,2.39209,9.96484,7.5271,48.77173,121.3169,76.69068,222.94654,87.86524,319.83423,1.83813,15.94043,3.18261,32.02368,4.48388,47.57691.59278,7.08837,1.17994,14.10009,1.80249,20.90844l-1.11254,18.311q-1.801-1.78747-3.61329-3.562c-3.19409-3.13794-6.49658-6.38233-9.6267-9.678-43.11231-45.40186-83.94581-81.1792-124.83545-109.3772-48.45166-33.41382-97.48389-56.7749-149.89527-71.419-.34155-.09594-.69116-.209-1.043-.322a10.27,10.27,0,0,0-3.06152-.66259,4.02164,4.02164,0,0,0-.707.06054,78.14848,78.14848,0,0,1-13.25025,1.405c-5.78955,0-9.45068-1.24975-10.8833-3.71264-2.67431-4.59913,2.302-13.34375,6.6919-21.06031,1.20752-2.12158,2.34765-4.125,3.36206-6.074,46.99658-90.25867,97.8689-145.776,164.95044-180.01123,8.10742-4.1377,17.63452-5.94824,26.84985-7.69947,2.575-.49011,5.2378-.99609,7.81714-1.54345A20.47256,20.47256,0,0,1,2635.09253,1861.147Zm73.2854,633.499c-.27515.59619-.55054,1.19262-.81885,1.79126-.4707-.57691-.95508-1.14478-1.43945-1.71241a32.41586,32.41586,0,0,1-3.96167-5.34643c-55.80054-103.06665-114.26294-176.42066-183.98438-230.84937-35.927-28.04712-71.91919-53.22241-117.12109-53.22241a126.07087,126.07087,0,0,0-23.64111,2.28589,11.24791,11.24791,0,0,1-2.05957.23071c-.90137,0-1.48633-.186-1.73658-.55395-.5083-.74707.16358-2.45264.65357-3.699a12.06084,12.06084,0,0,0,.60425-1.77636c7.78637-37.44629,18.12793-68.531,31.61694-95.02784,5.17163-10.16015,14.20068-15.311,26.83521-15.311a62.2707,62.2707,0,0,1,16.87695,2.593c49.50976,14.09106,93.02441,42.3186,129.92358,67.67089,57.1648,39.27539,99.87378,77.54761,134.40747,120.44312,19.34449,24.02954,26.57788,45.39844,22.75782,67.30762-3.84522,51.13867-12.52466,96.75756-26.53223,139.46215A54.0332,54.0332,0,0,1,2708.37793,2494.646ZM2048.766,2416.57617q.31019-7.04589.63062-14.092c2.03332-45.10254,4.13659-91.74145.87732-137.67212-.59864-8.43408,1.895-13.63745,8.60766-17.96118,34.70362-22.3479,74.99561-33.21289,123.179-33.21289q2.91321,0,5.84546.05249c69.96923,1.1687,121.86767,17.52148,163.32837,51.46436a14.76209,14.76209,0,0,0,9.28735,3.64868,13.10506,13.10506,0,0,0,7.63306-2.56226c5.27783-3.72412,4.32861-8.5459,3.32421-13.65015-.1643-.835-.33227-1.68725-.47729-2.55419-.312-1.86109-.70483-3.812-1.08521-5.69922-1.65527-8.21119-3.3667-16.70362.666-21.6294,2.489-3.041,6.94775-4.51929,13.62939-4.51929a57.46788,57.46788,0,0,1,5.79615.32007c48.38354,4.94971,84.63842,32.96265,120.56421,63.71363,70.66967,60.48779,128.84057,136.87255,177.83984,233.519,5.19751,10.25293,5.34033,18.05054.50928,27.81421-52.57227,106.2561-140.99292,164.77344-248.9729,164.77344-48.56372,0-99.1587-11.989-150.38086-35.636-93.01978-42.94214-174.49024-105.6792-242.14734-186.47-.28382-.33911-.55213-.68262-.81543-1.02783a82.25111,82.25111,0,0,1-.83557-30.83228c1.68591-9.49365,1.897-20.04736,2.15234-29.79736A73.142,73.142,0,0,0,2048.766,2416.57617Zm77.84241,320.32446q-20.09985,0-40.19946-.01831-20.09986-.01355-40.20069-.01806c-30.43,0-53.79346.04785-75.75183.15649l-.38049.001c-4.94409,0-7.35327-.54028-8.05591-1.80493-.73218-1.3169.127-3.812,2.78735-8.08887,21.43872-34.4751,38.04273-73.79736,50.76062-120.21362,1.54212-5.63062,3.01233-7.43775,6.04993-7.43775a18.78425,18.78425,0,0,1,5.78149,1.27832c17.69727,6.09326,35.36158,13.21363,52.44336,20.10083,31.44214,12.67554,63.95581,25.78174,98.0813,33.062,16.50611,3.51954,28.01636,17.74415,29.32324,36.239,1.1399,16.13916-7.20605,27.83691-26.26733,36.81689-14.26221,6.71826-30.57275,9.98316-49.865,9.98316C2129.62085,2736.95679,2128.12207,2736.93726,2126.6084,2736.90063Zm-201.03638,1.60621c-.6123.37011-1.23938.74829-1.83679,1.15039-.23987-.57007-.49817-1.13672-.75513-1.70313a20.49188,20.49188,0,0,1-1.7821-4.97632c-21.73218-128.71484-3.4065-228.18188,57.66955-313.02807,4.84363-6.72852,4.95105-11.89771.32093-15.36353a10.55455,10.55455,0,0,0-6.26685-2.39673c-4.82764,0-8.49573,4.41846-11.73193,8.31739l-.23316.28125c-39.11194,47.082-60.36767,104.40649-68.92053,185.87133-5.24695,49.96558-1.806,101.24463,10.5188,156.76661,2.28577,10.29492,7.91309,13.55053,17.49963,15.95971,41.43213,10.40576,71.68067,32.70239,89.907,66.26807,12.34423,22.73291,6.43359,44.938-17.092,64.21655-26.04565,21.34375-66.16064,33.09741-112.95263,33.09741-67.03467,0-153.01966-26.23315-183.40174-83.82959-13.38049-25.36718-18.1383-55.8999-22.73864-85.42749-1.98658-12.74878-4.04053-25.93261-6.76148-38.51782q-19.99878-92.51733-39.94262-185.04687c-28.1316-130.42286-57.22046-265.28565-86.1084-397.86866-2.47315-11.34936.18847-15.864,11.38818-19.32177,86.161-26.602,164.129-68.96192,231.73706-125.90357a24.80434,24.80434,0,0,1,5.21265-3.0581c.67724-.32679,1.35595-.65454,2.01843-1.00074.22852.65455.47058,1.30689.714,1.95911a33.96573,33.96573,0,0,1,1.73291,5.63074c.64319,3.51953,1.18579,7.12475,1.7102,10.61242.72876,4.839,1.48267,9.84363,2.51539,14.71351,1.65527,7.8081,3.62585,15.68115,5.53125,23.29492.82934,3.31738,1.65991,6.636,2.46875,9.958l.13818.57226.57227-.14282c10.9038-2.74048,18.44116-10.33716,25.73046-17.68482,1.33545-1.3457,2.66626-2.68676,4.01307-3.99487,43.54663-42.26367,76.59045-95.88354,101.022-163.92114a44.958,44.958,0,0,1,2.83191-5.94934c.32324-.60437.6477-1.20862.96289-1.81519.29712.51636.59985,1.02918.90259,1.54334a48.69841,48.69841,0,0,1,2.85693,5.34619c46.89038,109.047,73.16455,231.93237,80.32361,375.68066.83288,16.71729.60315,33.7771.38159,50.27637-.10169,7.61938-.20789,15.49707-.20789,23.24341.11084,109.20117-7.1101,236.85937-61.51477,355.71118-6.57873,14.37329-15.4447,28.01514-24.01794,41.20825-3.33692,5.136-6.78906,10.44678-10.05737,15.72559C1929.02661,2736.42212,1927.34839,2737.43408,1925.572,2738.50684Zm-543.07275,124.85254c-80.42993-1.092-149.18091-6.32178-216.3628-16.46-4.7351-.71533-7.31506-1.79931-8.62707-3.62719-1.29651-1.80713-1.5238-4.58863-.73621-9.0188,9.4867-53.37769,18.97962-107.67627,28.16016-160.188,29.03186-166.06079,59.05237-337.77612,93.3374-505.79956,2.41138-11.81885,5.81787-17.8208,17.74524-17.8208,1.21155,0,2.53943.06055,3.94739.18042,18.9386,1.60864,38.093,2.42431,56.93164,2.42431a666.01682,666.01682,0,0,0,147.77173-16.68994,37.932,37.932,0,0,1,8.25574-1.11621c7.85937,0,11.79138,4.34448,14.50329,16.02979,34.59522,149.051,65.1875,301.54638,94.77319,449.02221,14.43726,71.96705,29.3667,146.38355,44.57374,219.468,2.27441,10.937-1.877,13.13941-11.218,15.27442C1566.95825,2855.28418,1479.46289,2859.84326,1382.49927,2863.35938ZM1112.504,2889.15625c-57.07556,29.87012-118.04132,45.6748-181.18842,46.97461-36.55822-.24219-66.74267-3.40064-95.22619-18.02734-15.18592-7.79786-24.45612-18.13623-26.80878-29.89673-2.34814-11.73877,2.21558-24.813,13.19763-37.81177,11.82849-13.99976,27.942-30.74439,47.72077-36.00391,40.26745-10.707,42.3294-41.99511,44.32336-72.25268,6.44232-97.73657-15.92273-194.51343-68.37341-295.86328-.31354-.60645-.63282-1.27466-.96527-1.97168-1.89747-3.96851-4.25812-8.90918-8.66132-8.90918a7.4835,7.4835,0,0,0-3.31573.86474,7.0961,7.0961,0,0,0-4.0011,4.11475c-.963,3.08545.99444,6.63135,2.72168,9.76025.59234,1.074,1.15265,2.08814,1.57989,3.04224,49.61932,110.74316,66.93231,206.8313,54.48523,302.395-.614,4.71582-2.44122,9.39136-4.20843,13.91284-.734,1.87817-1.49024,3.81323-2.15851,5.74609-1.66785-1.21313-3.39453-2.39086-5.07093-3.53344a81.00433,81.00433,0,0,1-11.66857-9.03589c-80.06141-79.69312-106.158-183.16992-119.949-264.41651-29.93713-176.36718-11.55267-353.46069,54.64343-526.35864a37.11879,37.11879,0,0,1,3.126-5.88074c.39758-.65.7951-1.30114,1.1778-1.958.45806.63049.92584,1.25427,1.39367,1.87915a53.14983,53.14983,0,0,1,3.88684,5.68445c11.435,20.35327,27.76325,46.14538,52.73456,65.09594,3.44592,2.61475,6.07617,3.83252,8.27863,3.83142,3.36425,0,5.59759-2.86267,7.02838-9.01086,1.64215-7.0564,3.37506-14.21777,5.05151-21.14282,2.73248-11.291,5.55811-22.96472,8.06958-34.50928,1.13379-5.21606,2.13049-8.04346,4.14618-8.04346,1.44678,0,3.58868,1.34571,6.54743,4.11475a662.17467,662.17467,0,0,0,164.21295,112.89111c57.88891,27.99121,121.7688,48.32276,189.86523,60.43164,4.45007.79175,7.02612,2.00269,8.3512,3.92408,1.31262,1.90307,1.49707,4.69506.61743,9.3352-40.58789,214.15405-80.62512,426.2312-114.436,605.44165q-2.01068,10.6582-4.06848,21.30957c-4.859,25.3064-9.88366,51.47339-13.72192,77.37866C1129.92383,2875.60107,1124.68335,2882.78174,1112.504,2889.15625ZM794.63391,2784.023l.00684,2.73584c-14.06238.00464-28.35553.18164-42.18433.353-14.01782.17358-28.51373.353-42.75946.353-22.81915,0-41.50122-.46606-58.79535-1.46679-11.5412-.66846-22.71973-7.85254-30.67053-19.71143-9.64948-14.39258-12.75324-32.78223-7.90741-46.84912,3.78009-10.97217,11.29279-15.50513,23.83411-20.03223,42.01757-15.16943,82.95044-32.106,122.53534-48.48388a11.16419,11.16419,0,0,1,4.00567-1.04077c2.06079,0,2.80908,1.43139,4.17475,4.41186l.13653.2959c25.30774,55.07519,50.36359,93.5498,81.24316,124.751a8.1033,8.1033,0,0,1,1.51935,2.93115c.11707.31982.23529.63965.35981.95263-.349.07081-.69739.14624-1.04639.22168a17.65131,17.65131,0,0,1-3.63953.53687q-13.84276.05823-27.68384.04687Zm1371.9032-152.468c-.626.0332-1.252.06616-1.8667.06616a8.44,8.44,0,0,1-2.57715-.32544q-30.46472-9.66942-60.90576-19.41552c-24.499-7.82617-49.83289-15.9187-74.77173-23.80884-3.99475-1.26343-4.89038-2.80127-3.98681-6.853,2.99536-13.44336,5.89575-27.14453,8.69909-40.3938q2.12988-10.0653,4.2782-20.12719a27.87852,27.87852,0,0,1,1.04517-3.387c.145-.41479.29809-.84985.45581-1.3125,1.845,1.6565,3.63379,3.22364,5.36914,4.74414,3.95483,3.46363,7.68908,6.73658,11.123,10.22632,36.73829,37.35156,73.02051,68.98,110.91822,96.69361a13.66687,13.66687,0,0,1,2.75634,3.11059q.26734.36841.53589.73218C2167.25342,2631.51733,2166.896,2631.53662,2166.53711,2631.55493ZM1704.68164,870.81622A112.50688,112.50688,0,0,0,1707.32275,859.6c16.37915-101.74048,73.00122-184.92621,178.19263-261.78962a9.6546,9.6546,0,0,1,5.71289-2.15277c3.36206,0,6.31726,2.36982,9.17554,4.66138l.93213.74481c80.86963,63.98621,140.978,150.76239,189.1626,273.08863,13.9663,35.45758,28.34985,80.06543,29.145,142.17242,10.4148,58.05743-34.46142,77.01019-77.86084,95.33868-8.78,3.70813-17.85949,7.54248-26.27294,11.627-26.63172,12.928-43.72486,20.77771-56.50892,20.77771h-.00573c-17.92127-.00281-28.99756-15.4635-53.26575-49.33826-52.93567-73.8905-116.98291-134.77234-190.36316-180.95373C1696.30371,901.77979,1700.56238,886.03925,1704.68164,870.81622ZM2341.208,541.56769c.59277,13.48663,1.30322,27.02643,1.9292,38.97143.22412,4.2627.4375,8.33979.63281,12.125-1.66309,105.91175-24.67578,199.61231-70.354,286.45417a49.85646,49.85646,0,0,1-3.33008,5.21032c-.31763.454-.63526.90815-.94824,1.364-.15748-.57288-.32081-1.14582-.48438-1.71814a49.46314,49.46314,0,0,1-1.49976-6.26349c-23.60571-159.48371-89.06274-276.1239-200.11547-356.58686a16.69142,16.69142,0,0,1-2.91431-3.00036c-.281-.341-.56323-.682-.85107-1.015.42041-.22674.8374-.46551,1.25317-.70422a15.42519,15.42519,0,0,1,3.99023-1.8255c41.71314-9.84082,79.78321-14.625,116.3855-14.625,53.76148,0,102.70679,10.33032,149.63257,31.581C2339.88037,533.95563,2341.00439,536.92859,2341.208,541.56769Zm-188.218,492.353a90.16966,90.16966,0,0,1-9.76709,7.29566c-1.24756.84765-2.5293,1.71753-3.78686,2.6062l-.12916-4.02856c-.13037-3.981-.26171-7.96216-.34741-11.94385-.05127-2.41089-.03882-4.86756-.02514-7.24311.00586-1.08923.01147-2.17785.00708-3.34021-23.81495-187.49993-98.38208-327.05639-227.96509-426.64465-3.29578-2.53259-4.614-4.05652-4.55005-5.2594.072-1.332,1.91113-2.71307,4.855-4.51056a584.92452,584.92452,0,0,1,108.29639-51.88354,24.9662,24.9662,0,0,1,8.38257-1.62842,16.08516,16.08516,0,0,1,9.00292,2.67371c4.43238,2.87072,9.07032,5.653,13.55518,8.34375,11.02148,6.61023,22.41773,13.4461,31.70264,22.16681,87.19726,81.90979,140.60351,184.72747,163.27124,314.33,5.793,33.12427-1.84278,60.35517-24.03052,85.69776q-4.69007,5.35647-9.35254,10.73016C2193.56885,992.59875,2174.39771,1014.64105,2152.99,1033.92065Zm-266.70557,76.61341a640.12689,640.12689,0,0,1,112.64869,303.15576c6.06347,59.18884,3.74914,120.43176-7.07923,187.22644-2.6925,16.61206,3.26819,32.38232,9.03259,47.63379,3.79493,10.04138,7.71888,20.42432,9.2074,31.04126,6.4989,46.343,7.45044,89.7229,2.90955,132.61719a38.22837,38.22837,0,0,1-1.84033,7.42309c-.2616.81787-.52893,1.65528-.778,2.4961-.55749-.59864-1.12414-1.19043-1.69177-1.78223a54.02811,54.02811,0,0,1-4.88245-5.58716c-14.38806-19.9375-31.06982-39.906-55.50708-50.92053-5.7655-2.59888-9.50781-3.70691-12.5133-3.70691a7.38312,7.38312,0,0,0-5.52442,2.09741c-2.50183,2.51538-3.65112,7.25733-3.61328,14.92481.40772,83.72216-32.50683,160.48034-100.62549,234.6615a23.48412,23.48412,0,0,1-5.37378,3.91259c-.69677.41346-1.41076.8385-2.10522,1.285-.23877-.79956-.49585-1.59571-.75293-2.39209a39.02723,39.02723,0,0,1-1.73413-6.71009c-4.73157-35.71814-10.89685-73.82128-23.86719-110.46228l-.39868-1.14587c-1.55811-4.52258-3.49561-10.151-8.91833-10.151a9.73194,9.73194,0,0,0-2.89124.48328,7.92166,7.92166,0,0,0-5.26514,4.43908c-1.83691,4.33533.60083,9.81519,1.39136,11.3916,23.77588,47.37818,2.96777,74.51245-38.31006,102.93433-116.51794,80.231-244.68567,120.91138-380.94128,120.91138a746.84112,746.84112,0,0,1-93.08826-5.97119c-130.67456-16.48072-246.0982-71.24415-352.86731-167.41895-9.87054-8.89087-12.26605-16.93433-8.83728-29.676,5.04749-18.76208,9.28278-38.06909,13.37872-56.74194,1.81006-8.25464,3.68238-16.78931,5.5998-25.16272,1.43823-6.27954,2.00543-13.78137-6.45429-16.06042a13.333,13.333,0,0,0-3.44537-.49341c-5.43475,0-8.97205,4.09534-10.51306,12.17175-6.05164,31.70374-12.10157,63.95715-17.95215,95.149q-6.56277,34.98706-13.16565,69.967a73.50339,73.50339,0,0,1-2.70966,9.49072c-.39807,1.19141-.79675,2.38294-1.17205,3.579-1.07837-.90368-2.20246-1.77746-3.29627-2.62854a42.24572,42.24572,0,0,1-7.804-7.18091c-44.878-58.645-71.85241-131.42456-84.88952-229.04113-.4718-3.53211-.59-7.53382-.71515-11.76966-.373-12.62072-.79566-26.92419-11.89136-29.42822a12.88131,12.88131,0,0,0-2.845-.31763c-10.24066,0-19.81244,12.02674-28.25726,22.63819-1.73413,2.17944-3.37226,4.238-4.98011,6.15149-5.25317,6.251-10.37091,12.78869-15.31958,19.11047q-2.90012,3.7046-5.81231,7.399-3.90427,4.93671-7.75714,9.91223l-2.83307,3.63611c-.59516-1.59705-1.25373-3.19287-1.89344-4.74426-1.64727-3.99366-3.35052-8.121-3.97314-12.30079-10.96033-73.546-5.0069-131.28076,18.73407-181.69738,11.62976-24.69666,9.65808-48.86658,7.75031-72.24146-.48035-5.89-.9773-11.97986-1.25141-17.9978-5.66553-124.26892,21.51508-240.78223,80.78681-346.30164,89.97985-160.18676,227.84161-265.78326,409.75543-313.85644a573.18741,573.18741,0,0,1,146.3678-18.56153q4.79442,0,9.6123.07422h.36963c112.47485,0,218.50757,28.32526,310.928,78.519A649.17191,649.17191,0,0,1,1886.28442,1110.53406ZM381.974,531.2345c46.62067-21.04389,95.28784-31.27368,148.7821-31.27368,36.41431,0,74.34565,4.73736,115.96106,14.48162a14.19841,14.19841,0,0,1,4.39923,2.27674c.46778.31183.94587.63116,1.432.93213-.32788.29986-.65344.60376-.97845.90765a36.19526,36.19526,0,0,1-3.3808,2.90729C541.88379,598.35931,477.26758,710.0954,450.64728,863.05847c-.88019,5.05609-1.86835,10.18414-2.82392,15.14252q-.53631,2.78365-1.06866,5.56726c-1.04352-1.63239-2.12134-3.25684-3.17059-4.83844a124.84651,124.84651,0,0,1-8.01764-13.24335c-41.31842-83.288-62.09442-172.88745-63.515-273.882.1919-3.76178.40723-7.78747.634-12.00677.622-11.60059,1.328-24.7497,1.82324-37.87189C374.71948,536.35626,376.60321,533.658,381.974,531.2345Zm88.86725,340.88574.385-2.11963C493.597,746.4137,547.06091,643.21393,630.133,563.26959c19.60626-18.86828,38.18212-30.5329,58.44635-36.69763a520.17287,520.17287,0,0,1,119.90222,57.22632c1.39538.90362,2.1156,1.71808,2.08307,2.355-.04853.947-1.76606,1.82373-3.14606,2.528a12.52324,12.52324,0,0,0-2.03339,1.18689C733.908,647.468,678.48779,714.28668,640.66437,788.46667c-38.03186,74.5907-59.35218,158.7417-63.367,250.11536a23.321,23.321,0,0,1-.74426,4.27979c-.10449.43921-.209.87841-.30615,1.31762-.40552-.19531-.81848-.38208-1.232-.56884a14.85225,14.85225,0,0,1-3.69726-2.1001c-41.03913-35.71753-72.70294-71.74457-96.80145-110.14026C463.30859,913.51178,467.31024,891.52142,470.84125,872.12024Zm125.87329,153.99121c-.06909-7.52185-.1405-15.299-1.26-22.678,6.0979-84.09735,36.29321-165.81976,97.90045-264.975,36.85181-59.314,77.18951-104.70831,123.319-138.7785,2.8382-2.09564,5.42334-3.83087,8.31348-3.83087a9.40871,9.40871,0,0,1,5.57873,2.12018c102.66,75.42975,159.31574,157.52343,178.29938,258.35455,5.8866,31.2663,3.05469,52.01428-28.71252,72.08319-78.41987,49.54-145.48981,120.82355-199.34559,211.8692-3.09924,5.23889-5.77179,7.18665-9.86084,7.18665H770.946a20.77456,20.77456,0,0,1-5.24627-.80884c-63.09741-16.71948-114.15613-41.66052-156.09375-76.24939C597.027,1060.02979,596.87561,1043.55408,596.71454,1026.11145Z" style="fill: #010101"/>
    <path d="M1355.1212,835.40323c331.95493-.17621,610.74464,249.774,644.39372,578.22721,6.42033,62.67033,3.023,125.031-7.08331,187.37957-4.42463,27.296,14.46907,51.59948,18.24156,78.5,6.20027,44.21487,7.60908,88.39075,2.91143,132.76-.39568,3.73593-1.92215,7.35192-2.92314,11.02373-2.4565-2.71995-5.193-5.23813-7.32479-8.1924-14.94843-20.71576-31.23585-39.89591-55.273-50.72972-13.37327-6.02764-20.91867-6.36735-20.82571,12.77782.45066,92.71642-39.67186,168.51371-100.77974,235.05991-2.20932,2.4058-5.47645,3.8406-8.25066,5.72777-.93031-3.314-2.27943-6.57226-2.72666-9.9502-4.95825-37.43356-11.18466-74.5981-23.839-110.3444-1.84819-5.22028-3.825-12.85578-11.48167-10.45027-7.46815,2.34583-5.99194,10.095-3.52546,15.01027,24.42513,48.67291,1.71768,75.9852-38.50152,103.679-144.0356,99.1793-301.72263,136.82134-474.43407,115.03862-136.074-17.16161-252.07973-76.491-353.18518-167.5647-10.031-9.03574-12.49637-17.309-9.011-30.26356,7.27437-27.03842,12.71927-54.568,18.97338-81.88262,1.51219-6.6041,1.739-13.27031-6.03635-15.366-8.69632-2.34383-11.939,4.45-13.232,11.22378-10.50081,55.01384-20.69662,110.08566-31.11747,165.11463-.90018,4.75363-2.75037,9.32705-4.15932,13.98415-3.99039-3.46448-8.71582-6.36635-11.86165-10.47712-51.81746-67.712-73.92718-146.36914-85.00481-229.31786-1.93015-14.45237,1.98213-37.51524-12.15559-40.70541-13.00543-2.93471-25.29975,16.1322-35.50584,28.277-7.26438,8.64435-14.1128,17.63883-21.12094,26.49765-3.774,4.77033-7.49342,9.58393-11.23735,14.37812-2.13977-6.04307-5.32958-11.92962-6.257-18.15332-9.27957-62.27165-8.34255-124.42721,18.78368-182.03134,14.47707-30.74307,7.809-60.01636,6.44367-89.96349-5.62-123.2673,20.32479-238.84411,80.86127-346.61493,91.80347-163.43422,229.85827-266.50053,410.11625-314.13533C1250.01793,840.436,1302.25056,834.6033,1355.1212,835.40323Z" style="fill: #b6a5e0"/>
    <path d="M931.3119,2936.71613c-35.35519-.23476-66.54878-3.23115-95.49007-18.09234-31.2175-16.02982-36.46506-41.76937-13.79037-68.60644,13.3-15.74138,28.93258-31.11634,48.0172-36.19125,39.45524-10.492,41.88346-41.28045,43.89029-71.72622,6.93367-105.19152-20.34749-202.8809-68.30914-295.55592-2.45342-4.74048-5.2292-13.20791-12.16287-9.762-7.96022,3.95683-1.7583,10.95.574,16.1549,43.19917,96.41452,68.421,196.07047,54.53205,302.70992-.91346,7.01206-4.37394,13.69256-6.64965,20.52727-5.849-4.33352-12.34515-8.017-17.45005-13.09853-73.39513-73.05706-103.39367-166.235-120.1129-264.7326-30.62876-180.44247-10.66481-356.00794,54.67414-526.66614,1.17391-3.06579,3.1776-5.8143,4.79418-8.71074a99.64917,99.64917,0,0,1,5.84564,8.358c13.83928,24.63176,29.67626,47.53655,52.57841,64.91606,8.07838,6.13017,12.14431,4.775,14.38362-4.84587,4.32038-18.5607,9.06916-37.02545,13.11909-55.64328,1.85276-8.518,3.49033-11.88021,11.665-4.23157,100.23313,93.78111,219.35453,149.27131,353.78135,173.17452,9.5371,1.69583,11.04829,5.46132,9.44071,13.94274q-57.36867,302.69222-114.43589,605.44211c-6.19628,32.843-12.89119,65.62347-17.78662,98.665-1.99655,13.47579-7.75145,20.70662-19.64465,26.93131C1054.71442,2920.06059,993.09248,2935.44412,931.3119,2936.71613Zm-51.98218-55.005c-.30629,12.74669.05084,23.92806,10.20424,30.987,2.75036,1.912,7.90167,1.627,11.44354.60031,1.70168-.49321,3.9437-6.095,3.022-7.62865-15.985-26.59375-1.89945-44.34681,17.08021-61.05947,3.73679-3.29084,10.3496-7.08831,5.15774-13.18164-4.3865-5.14831-10.84966-3.39536-16.02982-.15536C891.00345,2843.28659,877.713,2858.96028,879.32972,2881.71114Zm110.13107-12.48394c0,12.21863-.59574,15.84075.11195,19.18728,2.11693,10.01018,5.04507,22.83,17.04323,21.33463,15.02283-1.8726,4.63325-13.15165,4.13-21.0082-.90432-14.11409-3.52816-29.23744,11.64931-38.777,3.971-2.49547,8.58623-5.29168,5.64538-11.00231-2.79206-5.42162-7.82228-5.44447-13.19035-4.01309C992.27941,2840.96789,989.93386,2858.95713,989.46079,2869.2272Z" style="fill: #b6a5e0"/>
    <path d="M2026.10539,2322.31566c.12394,122.0981-9.81426,242.89419-61.56782,355.95511-9.16255,20.01664-22.44886,38.16153-34.10931,56.9984-1.43165,2.3127-4.59641,3.55215-6.95808,5.28882-.97229-2.49062-2.4138-4.90242-2.84947-7.48357-18.82416-111.49618-10.88422-218.08965,57.77249-313.46634,3.49961-4.86158,5.75447-10.57964.4448-14.553-7.759-5.8063-12.91618.67114-17.43163,6.10675-44.67166,53.77553-61.68691,117.91279-68.78936,185.55794-5.53728,52.73855-.96629,104.88765,10.50882,156.579,2.19346,9.88,7.30979,13.0674,17.07164,15.51947,38.90077,9.77,70.96626,30.99067,90.27835,66.5562,13.62645,25.09469,4.40307,47.21612-17.23571,64.948-74.7576,61.26081-252.40358,34.09017-297.24218-50.91136-19.2167-36.42943-20.537-82.37811-29.55473-124.0955q-63.00363-291.46172-126.05036-582.91372c-2.65669-12.19322.8382-16.625,11.78611-20.00522,85.56414-26.41754,162.94787-68.02841,231.533-125.7919,2.27943-1.91972,5.27683-2.98726,7.93952-4.45233.91816,2.77107,2.17233,5.481,2.69138,8.32492,1.53562,8.414,2.44936,16.95141,4.22158,25.31,2.36225,11.1431,5.30367,22.16312,7.9962,33.236,12.71656-3.19488,20.77231-13.08025,29.47848-21.53026,47.403-46.00779,78.73971-102.04433,100.879-163.70068,1.09794-3.05751,2.86445-5.87456,4.31939-8.80385,1.45222,2.62714,3.14247,5.152,4.32253,7.89625,51.59477,119.98474,73.91539,246.28184,80.3707,375.88236C2027.14907,2273.22551,2026.10539,2297.79672,2026.10539,2322.31566Zm-86.18315,565.37428c-1.64814-27.39082-7.45059-51.378-30.3998-67.51063-4.99594-3.51189-10.91949-5.88485-15.65726-.26589-3.77306,4.47518-.60716,8.719,3.06879,12.0687,20.889,19.03536,26.61017,42.62843,21.31307,69.724-1.22346,6.25811.21391,12.09012,7.63822,13.33758,6.66236,1.11893,10.10656-3.36281,11.347-9.1497C1938.60439,2899.49305,1939.17971,2892.92136,1939.92224,2887.68994Zm-101.2304,4.25585c-2.51433-21.13329-5.75219-42.55445-22.80385-58.75077-4.39906-4.17845-9.425-6.33036-14.38311-1.62443-4.71735,4.47746-.9136,8.68733,2.12093,12.0984,16.05552,18.04722,22.42215,38.43569,16.39808,62.35547-1.41566,5.62154-.30786,11.31218,7.22254,11.95989,6.3545.54662,8.95322-3.192,9.414-9.18653C1837.0754,2903.40047,1837.93817,2898.03769,1838.69184,2891.94579Z" style="fill: #b6a5e0"/>
    <path d="M1382.49118,2863.94409c-76.99647-1.04469-146.92133-5.97509-216.44223-16.46677-8.8911-1.342-11.50281-4.03823-9.8521-13.32586,39.4898-222.18386,76.37274-444.8395,121.5005-666.00181,2.841-13.92331,7.162-19.39319,22.31577-18.1069a663.04936,663.04936,0,0,0,204.52318-14.25346c13.83978-3.15518,19.84557-.217,23.45913,15.35212,51.479,221.79659,92.97988,445.65571,139.34894,668.50413,2.44607,11.756-2.69681,13.91475-11.65973,15.963C1563.537,2856.66614,1469.7016,2860.78262,1382.49118,2863.94409Z" style="fill: #caf3eb"/>
    <path d="M2187.91661,2213.10534c59.64638.9967,115.9745,12.53421,163.689,51.59763,5.01866,4.10876,10.88808,4.815,16.212,1.05924,5.79088-4.08534,3.6344-9.49126,2.60742-15.62828-2.61656-15.63056-10.55193-35.29421,19.64223-32.20585,49.0596,5.01808,85.62554,33.6695,120.8852,63.84967,75.98835,65.04144,132.9479,144.87409,177.98184,233.69994,4.98067,9.82454,5.65352,17.94526.51177,28.33727-77.452,156.53983-233.06478,206.53273-400.12256,129.41-95.15107-43.92671-175.59032-106.90534-242.35228-186.62547-4.64539-8.049-2.06845-24.71666-.796-35.10309,1.67282-13.654,1.42042-21.58353,2.0067-34.945,2.21988-50.58892,5.0989-101.10217,1.50848-151.69795-.60017-8.456,1.78864-13.93074,8.87524-18.49416C2098.0278,2220.94532,2141.68435,2212.29141,2187.91661,2213.10534Z" style="fill: #b6a5e0"/>
    <path d="M2120.21949,1016.22211c12.63359,70.42179-54.7651,83.474-104.45385,107.59432-66.56591,32.31309-68.29343,30.18389-110.51118-28.74538-51.93076-72.48731-114.73875-133.30874-190.20033-180.79974-24.43584-15.37853-11.10041-37.42357-8.30863-54.76438,18.47574-114.76074,87.78616-195.93866,178.42493-262.169,6.96279-5.08769,11.71342-.54333,16.52931,3.26714,90.8501,71.88329,147.64459,167.47345,189.34285,273.33353C2107.66728,916.1442,2119.50152,959.63624,2120.21949,1016.22211Z" style="fill: #b6a5e0"/>
    <path d="M594.86622,1003.456c7.00857-96.83476,46.97259-183.19183,97.99168-265.30677,33.10946-53.2896,72.52815-101.31637,123.46814-138.93913,4.61583-3.40914,8.77307-5.98316,14.58595-1.71218,89.35647,65.65453,157.25979,145.7505,178.52831,258.71746,5.96524,31.68408,2.613,52.7307-28.975,72.68593-83.91943,53.01486-148.61552,126.23471-199.1549,211.67262-4.121,6.96651-7.837,8.74516-15.76008,6.64579-57.20316-15.15748-110.8089-38.8308-156.3162-76.36375C590.86319,1055.70434,598.56153,1027.67122,594.86622,1003.456Z" style="fill: #b6a5e0"/>
    <path d="M2138.36095,1017.34047c-21.72275-171.03474-87.602-318.55339-227.74156-426.25437-6.63865-5.102-6.21555-6.72127.35713-10.733a582.39218,582.39218,0,0,1,108.40511-51.93584c6.38791-2.27314,12.345-2.49333,17.89971,1.10523,15.31727,9.92286,32.221,18.25356,45.33923,30.57614,91.16653,85.63747,142.081,192.48769,163.44736,314.65546,5.75833,32.92683-1.81491,60.65408-24.1671,86.18373-22.09458,25.23548-43.55316,50.93277-68.51934,73.41732-4.4212,3.98183-9.64262,7.075-14.49449,10.57864-.17535-5.69035-.38868-11.37985-.51206-17.07136C2138.29926,1024.35654,2138.36095,1020.84793,2138.36095,1017.34047Z" style="fill: #caf3eb"/>
    <path d="M688.58678,525.9587A517.74453,517.74453,0,0,1,808.7997,583.30758c5.95167,3.853-1.03319,5.39264-3.04738,7.01564-143.09894,115.31686-219.7884,264.34626-227.87043,448.2842a44.51783,44.51783,0,0,1-1.21832,6.43632c-1.92394-1.0147-4.13283-1.702-5.73-3.09222-37.24465-32.4149-70.67239-68.46236-96.9128-110.27057-11.73256-18.69336-7.07182-41.33613-3.37038-61.7843,21.46129-118.56193,71.45727-222.72718,159.07686-307.04837C646.56944,546.64019,665.5616,532.924,688.58678,525.9587Z" style="fill: #caf3eb"/>
    <path d="M2739.79311,2257.02919c-.44609,7.34563-.81822,13.47437-1.19062,19.60311-4.72907-4.7165-9.57294-9.32391-14.17035-14.1655-77.44513-81.557-163.71525-149.69169-274.46461-180.63524-1.4962-.41782-3.13148-1.16406-4.55057-.91131-40.5165,7.22254-22.762-14.80664-14.70126-30.28727,38.94375-74.7943,87.864-140.79332,165.20316-180.26312,10.47283-5.3448,23.049-6.79559,34.81186-9.29307,6.25782-1.32884,11.708-.48407,14.86918,7.37905,41.536,103.3192,75.08217,208.814,87.9034,319.98462C2736.17612,2211.61856,2737.79256,2234.91833,2739.79311,2257.02919Z" style="fill: #b6a5e0"/>
    <path d="M2737.87452,2349.51286c-3.68267,48.96793-11.89906,94.90575-26.56119,139.60184-.95044,2.89673-2.39466,5.63152-3.60927,8.44172-2.04054-2.62171-4.49974-5.01694-6.05991-7.89882C2654.08532,2401.815,2597.25,2321.00224,2517.814,2258.99033c-40.58817-31.68551-83.46706-61.70947-140.29267-50.82254-7.66978,1.46964-3.70238-4.17616-3.22088-6.49229,6.85271-32.9541,16.4622-65.30189,31.66838-95.17449,8.675-17.0428,26.98272-17.97011,44.39365-13.01514,47.97921,13.65458,89.57381,39.91047,130.094,67.75053,49.97491,34.33607,96.28029,73.0445,134.53263,120.55934C2731.3611,2302.13224,2742.2546,2324.41132,2737.87452,2349.51286Z" style="fill: #caf3eb"/>
    <path d="M371.467,591.77458c.72119-14.13451,1.78251-31.99538,2.45764-49.87088.21662-5.73377,2.22916-8.684,7.80857-11.20244,86.30731-38.95746,175.06854-37.91371,265.11714-16.82818,2.3831.5579,4.45976,2.425,6.67935,3.6816-1.66048,1.469-3.20959,3.09192-4.99737,4.385C531.92251,606.287,475.22191,725.2616,451.22352,863.15833c-1.28944,7.40946-2.77536,14.78508-4.16981,22.1764-4.03309-6.44817-8.64756-12.60775-12.0113-19.38806C392.793,780.78179,372.853,690.36521,371.467,591.77458Z" style="fill: #b6a5e0"/>
    <path d="M2344.35477,592.6734c-1.625,103.52111-23.83068,198.13956-70.42193,286.71766-1.42024,2.69995-3.34139,5.13617-5.02894,7.69547a93.58153,93.58153,0,0,1-2.32983-9.28977c-21.33549-144.15441-78.44041-268.21114-199.87851-356.199-1.69068-1.22518-2.91557-3.094-4.35808-4.66224,2.00969-.99614,3.91771-2.42465,6.04391-2.92614,90.508-21.35141,179.69023-22.27115,266.39444,16.99268,5.29225,2.39659,6.79216,5.42654,7.01692,10.54015C2342.59526,559.816,2343.60881,578.08052,2344.35477,592.6734Z" style="fill: #b6a5e0"/>
    <path d="M2126.609,2737.48534c-52.05029,0-104.10114-.13566-156.15014.12052-9.78685.04826-11.80668-1.689-6.14873-10.787,23.19867-37.30448,39.12125-77.82554,50.69388-120.059,2.15805-7.87568,4.42791-9.3676,12.58647-6.55826,50.26393,17.307,97.83989,41.92044,150.45564,53.14323,16.63327,3.54758,28.46436,18.08491,29.78463,36.77014,1.35027,19.11475-10.99688,30.03681-26.60117,37.38758C2164.03225,2735.603,2145.503,2737.95342,2126.609,2737.48534Zm-74.93781-26.59c-.68555-21.59366-6.12974-37.30762-21.49156-48.11287-4.36223-3.06808-10.0306-4.542-13.78352.17278-4.00695,5.0335,2.0124,7.42474,4.77819,10.0613,9.8908,9.429,16.05766,20.47586,13.1675,34.32692-1.14378,5.48159-6.57311,10.75356-.38683,15.628,2.45478,1.93429,7.65464,2.71852,10.43128,1.45279C2051.41684,2721.21848,2052.0023,2714.26268,2051.67116,2710.8953Zm72.33352-14.59073a48.00256,48.00256,0,0,0-13.79308-31.17489c-4.26556-4.33352-10.02646-7.17656-15.46407-2.12135-5.852,5.441-.78994,9.85653,2.82761,13.7374,6.3872,6.85184,8.727,15.17533,10.48626,24.08628,1.18519,6.00422-9.842,16.83175,3.40393,17.235C2121.08853,2718.36031,2123.85332,2707.02786,2124.00468,2696.30457Z" style="fill: #b6a5e0"/>
    <path d="M795.22759,2787.344c-48.13451,0-96.3856,2.014-144.35961-.76195-28.40616-1.64385-48.39646-40.33971-39.0969-67.33557,4.04573-11.74427,12.54571-16.18946,24.18774-20.3919,41.29358-14.90717,81.9268-31.68266,122.51084-48.47386,6.24468-2.584,7.125-.27331,9.07151,3.96341,20.913,45.51115,45.53187,88.61622,81.12752,124.58357,1.16691,1.17891,1.54375,3.13976,2.28878,4.7362a34.307,34.307,0,0,1-5.50794.90247C828.70688,2784.63692,795.22537,2786.43184,795.22759,2787.344Zm-119.54893-31.858c1.939,7.98307-1.01177,21.14272,11.612,21.32835,12.21278.17992,9.06-12.15609,9.13656-20.09746.12566-13.04655,6.49808-22.82426,14.90781-31.76148,4.037-4.28983,7.01442-9.16683,2.90009-14.39739-4.3763-5.56384-10.16711-2.66226-14.7034.16621C683.29853,2720.84807,677.0804,2736.57,675.67866,2755.486Zm78.42306-11.1768c2.78113,12.77639-.92495,28.76365,14.22418,27.85291,16.25286-.97757,4.15068-15.15021,5.75119-23.25693,1.17527-5.95224,2.52211-11.87193,3.868-17.78905,1.82841-8.03761,18.35372-15.22959,6.82336-22.60864-10.95141-7.00835-17.72522,7.30279-23.0004,15.71681C757.64352,2730.80284,756.04865,2738.96726,754.10172,2744.3092Z" style="fill: #b6a5e0"/>
    <g>
      <path d="M879.32972,2881.71114c-1.61671-22.75086,11.67373-38.42455,30.87787-50.43785,5.18016-3.24,11.64332-4.993,16.02982.15536,5.19186,6.09333-1.42095,9.8908-5.15774,13.18164C902.1,2861.323,888.01448,2879.076,903.99946,2905.66976c.92174,1.53361-1.32028,7.13544-3.022,7.62865-3.54187,1.02669-8.69318,1.31171-11.44354-.60031C879.38056,2905.6392,879.02343,2894.45783,879.32972,2881.71114Z" style="fill: #010202"/>
      <path d="M989.46079,2869.2272c.47307-10.27007,2.81862-28.25931,25.38956-34.27866,5.36807-1.43138,10.39829-1.40853,13.19035,4.01309,2.94085,5.71063-1.67441,8.50684-5.64538,11.00231-15.17747,9.53953-12.55363,24.66288-11.64931,38.777.50321,7.85655,10.89279,19.1356-4.13,21.0082-11.99816,1.49535-14.9263-11.32445-17.04323-21.33463C988.86505,2885.068,989.46079,2881.44583,989.46079,2869.2272Z" style="fill: #010102"/>
      <path d="M1939.92224,2887.68994c-.74253,5.23142-1.31785,11.80311-2.69,18.204-1.24046,5.78689-4.68466,10.26863-11.347,9.1497-7.42431-1.24746-8.86168-7.07947-7.63822-13.33758,5.2971-27.09552-.4241-50.68859-21.31307-69.724-3.676-3.34967-6.84185-7.59352-3.06879-12.0687,4.73777-5.619,10.66132-3.246,15.65726.26589C1932.47165,2836.31194,1938.2741,2860.29912,1939.92224,2887.68994Z" style="fill: #010101"/>
      <path d="M1838.69184,2891.94579c-.75367,6.0919-1.61644,11.45468-2.0314,16.852-.46079,5.99451-3.05951,9.73315-9.414,9.18653-7.5304-.64771-8.6382-6.33835-7.22254-11.95989,6.02407-23.91978-.34256-44.30825-16.39808-62.35547-3.03453-3.41107-6.83828-7.62094-2.12093-12.0984,4.95811-4.70593,9.98405-2.554,14.38311,1.62443C1832.93965,2849.39134,1836.17751,2870.8125,1838.69184,2891.94579Z" style="fill: #010202"/>
      <path d="M2051.67116,2710.8953c.33114,3.36738-.25432,10.32318-7.28494,13.52892-2.77664,1.26573-7.9765.4815-10.43128-1.45279-6.18628-4.87444-.757-10.14641.38683-15.628,2.89016-13.85106-3.2767-24.89792-13.1675-34.32692-2.76579-2.63656-8.78514-5.0278-4.77819-10.0613,3.75292-4.71479,9.42129-3.24086,13.78352-.17278C2045.54142,2673.58768,2050.98561,2689.30164,2051.67116,2710.8953Z" style="fill: #020202"/>
      <path d="M2124.00468,2696.30457c-.15136,10.72329-2.91615,22.05574-12.53935,21.76244-13.2459-.40325-2.21874-11.23078-3.40393-17.235-1.75923-8.91095-4.09906-17.23444-10.48626-24.08628-3.61755-3.88087-8.67961-8.29636-2.82761-13.7374,5.43761-5.05521,11.19851-2.21217,15.46407,2.12135A48.00256,48.00256,0,0,1,2124.00468,2696.30457Z" style="fill: #020202"/>
      <path d="M675.67866,2755.486c1.40174-18.916,7.61987-34.63793,23.8531-44.76177,4.53629-2.82847,10.3271-5.73,14.7034-.16621,4.11433,5.23056,1.13692,10.10756-2.90009,14.39739-8.40973,8.93722-14.78215,18.71493-14.90781,31.76148-.07654,7.94137,3.07622,20.27738-9.13656,20.09746C674.66689,2776.62872,677.61767,2763.46907,675.67866,2755.486Z" style="fill: #010102"/>
      <path d="M754.10172,2744.3092c1.94693-5.34194,3.5418-13.50636,7.66635-20.0849,5.27518-8.414,12.049-22.72516,23.0004-15.71681,11.53036,7.37905-4.995,14.571-6.82336,22.60864-1.34591,5.91712-2.69275,11.83681-3.868,17.78905-1.60051,8.10672,10.50167,22.27936-5.75119,23.25693C753.17677,2773.07285,756.88285,2757.08559,754.10172,2744.3092Z" style="fill: #010102"/>
    </g>
    <g>
      <path d="M1794.03448,1990.39169c-39.52172,36.44855-196.23957,171.44374-433.39655,175.51452C1090.39359,2170.54511,916.28054,2001.714,884,1969.2089L886.94828,1945c32.28053,32.5051,206.39358,201.33621,476.63793,196.69731,237.157-4.07077,392.89207-139.066,432.41379-175.51452Z" style="opacity: 0.2"/>
      <path d="M577.01727,1043.43835c8.03125-10.95776,9.479-81.69533,9.479-81.69545.32246-15.26173,5.52265-36.56895,9.68334-52.19924,6.6709-25.06026,15.54443-53.30564,32.4003-94.38332,2.72357-6.63733,5.08514-12.12061,6.748-15.9209a366.78679,366.78679,0,0,1-115.22619-85.03113c-3.426,7.14258-7.92472,16.90442-12.79007,28.66706-14.05292,33.97473-21.288,60.76367-26.97318,82.1156-.79284,2.97766-4.56378,21.55078-12.0733,58.5755a80.78828,80.78828,0,0,0-1.70386,20.84124,63.50269,63.50269,0,0,0,3.09424,18.24488c1.14737,3.37909,2.91672,7.50531,12.5498,21.54645,6.98975,10.18823,12.39795,17.27111,12.398,17.27117,10.87714,14.24531,20.19727,24.87293,23.92945,29.072,3.37939,3.80218,18.47192,20.667,32.00689,32.9024,5.71131,5.1629,18.6175,16.25641,20.3938,18.5069a8.50449,8.50449,0,0,0,1.66193,1.52038c.69672.49036,1.85242,1.30371,2.98041,1.03809A2.77814,2.77814,0,0,0,577.01727,1043.43835Z" style="opacity: 0.2"/>
      <path d="M2138.36286,1043.82145c-8.03125-10.95776-9.47905-81.69533-9.47905-81.69545-.32246-15.26174-5.52265-36.56895-9.68334-52.19924-6.6709-25.06026-15.54443-53.30564-32.4003-94.38332-2.72357-6.63733-5.08514-12.12061-6.748-15.9209a366.78679,366.78679,0,0,0,115.22619-85.03113c3.426,7.14258,7.92472,16.90442,12.79007,28.66705,14.05292,33.97474,21.288,60.76368,26.97318,82.1156.79284,2.97767,4.56378,21.55079,12.0733,58.57551a80.78823,80.78823,0,0,1,1.70386,20.84124,63.50269,63.50269,0,0,1-3.09424,18.24488c-1.14737,3.37909-2.91672,7.50531-12.5498,21.54644-6.98975,10.18824-12.398,17.27112-12.398,17.27118-10.87714,14.2453-20.19727,24.87293-23.92945,29.072-3.37939,3.80219-18.47192,20.667-32.0069,32.90241-5.7113,5.1629-18.61749,16.25641-20.39379,18.5069a8.50449,8.50449,0,0,1-1.66193,1.52038c-.69672.49036-1.85242,1.30371-2.98041,1.03809A2.77814,2.77814,0,0,1,2138.36286,1043.82145Z" style="opacity: 0.2"/>
      <path d="M2706.00359,2497.28009c-12.40458-5.54077-49.01931-82.08148-49.01931-82.08148-7.83991-13.09811-22.91166-29.03178-34.26839-40.54882-18.20839-18.46541-25.55859-42.23268-58.52488-75.35766-5.06087-5.08523-16.54193-15.72024-19.86894-18.19784,11.43769-16.25067,13.97411-20.10036,25.31687-45.7782a366.83612,366.83612,0,0,0,22.40782-68.03828c6.51415,4.50772,15.25765,10.75939,25.3107,18.56755,29.03686,22.55278,48.59162,42.24046,64.10686,57.97271,2.1637,2.194,14.63955,16.46049,39.503,44.904a80.78937,80.78937,0,0,1,11.80369,17.26076,63.50274,63.50274,0,0,1,6.34949,17.382c.67709,3.50375,1.184,7.96462-.22913,24.93381-1.02532,12.31281-2.215,21.14469-2.215,21.14469-2.39265,17.76277-4.26965,31.4517-5.4318,36.94815-1.05229,4.97691-3.334,29.54487-9.03107,46.87819-2.404,7.31406-11.23318,36.87046-11.6615,39.70533a8.504,8.504,0,0,1-.6906,2.144c-.36234.77108-.9634,2.05011-2.07486,2.3781A2.77811,2.77811,0,0,1,2706.00359,2497.28009Z" style="opacity: 0.2"/>
      <g>
        <path d="M776.09477,1249.59215c18.36647-49.01332,54.892-128.05348,125.8288-204.31944A598.64574,598.64574,0,0,1,1089.01113,910.2141,582.1498,582.1498,0,0,1,1272.7874,860h23.179c-4.90266,1.50684-12.42318,3.86612-21.52335,6.92608-62.06273,20.8685-181.19176,62.26669-289.73737,164.49446-62.40307,58.7711-102.15789,119.61126-125.8288,155.83686-29.08166,44.50634-41.05313,68.51893-41.39105,69.26083a80.51953,80.51953,0,0,1-8.27821,13.85217c-2.82543,3.824-5.45764,7.32556-9.93385,10.38912-4.00976,2.74418-7.96576,5.6416-13.24514,5.19456-6.74464-.57111-10.97874-6.10323-11.5895-6.92608C769.07809,1271.80389,769.66379,1259.97007,776.09477,1249.59215Z" style="fill: #f4f4f4;opacity: 0.2"/>
        <path d="M1143,2852c45.06946,7.02441,82.84155,10.81567,110,13,178.14819,14.32861,314.595-7.10083,373-18,22.60217-4.218,41.03479-8.26172,53-11l-12-65a1420.74377,1420.74377,0,0,1-516,14Z" style="opacity: 0.21"/>
        <path d="M1612,1725a469.6437,469.6437,0,0,1-452-6l1-22a469.6437,469.6437,0,0,0,452,6Z" style="opacity: 0.2"/>
        <g>
          <path d="M581.35954,518.41774c-86.45453-6.90826-181.89575,9.2085-182.02246,19.41571-.04321,3.48371,11.01569,6.33136,19.41577,8.49439,41.30658,10.63641,77.52893.98291,81.30335,0,32.79467-8.54041,75.74249-3.08051,113.55926,5.658q14.01563-12.78031,28.03125-25.56049A532.08184,532.08184,0,0,0,581.35954,518.41774Z" style="fill: #f4f4f4;opacity: 0.2"/>
          <path d="M668.39824,532.35573l-32.615,25.23975c29.54583,8.09954,53.27545,16.98755,62.07068,20.283a398.89352,398.89352,0,0,1,77.68524,39.38537l29.44757-26.66632C756.80919,559.86482,708.59282,542.42476,668.39824,532.35573Z" style="fill: #f4f4f4;opacity: 0.4"/>
          <path d="M980.5955,815.72109c-5.87658-19.25745-33.93084-105.52973-118.92132-182.02246a430.51414,430.51414,0,0,0-43.68885-34.4729l-30.65826,26.01068c46.61682,32.64013,76.81873,67.71118,91.33588,84.91168C962.027,808.9211,981.69,915.038,992.73033,911.58626,1000.22661,909.24257,993.94029,859.45156,980.5955,815.72109Z" style="fill: #f4f4f4;opacity: 0.2"/>
        </g>
        <g>
          <path d="M2134.06742,518.41774c86.45453-6.90826,181.89575,9.2085,182.02246,19.41571.04321,3.48371-11.01569,6.33136-19.41577,8.49439-41.30658,10.63641-77.52893.98291-81.30335,0-32.79467-8.54041-75.74249-3.08051-113.55926,5.658q-14.01562-12.78031-28.03125-25.56049A532.08155,532.08155,0,0,1,2134.06742,518.41774Z" style="fill: #f4f4f4;opacity: 0.2"/>
          <path d="M2047.02872,532.35573l32.615,25.23975c-29.54583,8.09954-53.27545,16.98755-62.07068,20.283a398.89352,398.89352,0,0,0-77.68524,39.38537l-29.44757-26.66632C1958.61777,559.86482,2006.83414,542.42476,2047.02872,532.35573Z" style="fill: #f4f4f4;opacity: 0.4"/>
          <path d="M1734.83146,815.72109c5.87658-19.25745,33.93084-105.52973,118.92132-182.02246a430.51414,430.51414,0,0,1,43.68885-34.4729l30.65826,26.01068c-46.61682,32.64013-76.81873,67.71118-91.33588,84.91168-83.364,98.773-103.027,204.88989-114.06738,201.43817C1715.20035,909.24257,1721.48667,859.45156,1734.83146,815.72109Z" style="fill: #f4f4f4;opacity: 0.2"/>
        </g>
        <path d="M2051.08923,2282.916a298.65231,298.65231,0,0,1,103.7118-30.22461,302.20471,302.20471,0,0,1,46.09692-1.2024c17.27344.86988,47.69458,2.63257,82.144,15.66089,40.11841,15.17212,61.43408,28.34033,61.43408,28.34033,10.86744,6.71338,25.40455,16.84278,31.06885,12.1377,2.45386-2.03857,3.50659-6.92554,2.15186-10.57666-1.46387-3.94531-5.8999-4.96118-8.27686-7.06763-1.498-1.32715-3.22778-2.82422-5.17944-4.4497-3.9856-3.31958-8.89722-7.17554-14.65186-11.218-6.66162-4.67993-31.36206-21.48828-72.09521-33.72681-24.698-7.42065-72.9375-21.32666-134.626-11.05493a276.24331,276.24331,0,0,0-92.80591,33.47949Z" style="fill: #f4f4f4;opacity: 0.2"/>
        <path d="M2458.93379,2084.83993c5.47069-18.22776,8.46884-28.1487,14.20881-39.91751a301.4227,301.4227,0,0,1,62.34864-85.34463c12.491-11.96256,34.65725-32.872,67.78061-48.97663,38.5737-18.75471,40.93717-38.93605,30.67318-36.83712-7.97618,1.631-16.93234,1.42137-53.79514,22.63708-22.35128,12.86385-65.57977,38.393-100.461,90.29931-22.06141,32.829-33.907,67.00081-39.90114,92.28027Z" style="fill: #f4f4f4;opacity: 0.2"/>
      </g>
    </g>
    <g>
      <path d="M873.67288,2536.74023c1.72565-.4248,11.19287,29.05323,18.342,59.59156,4.67041,19.95019,7.48187,36.63794,9.16364,48.00415,0,0,5.10742,36.38916-7.28089,123.77514-.67285,4.7461-2.01452,13.47412-7.28094,15.37085-6.66156,2.39917-18.721-6.44946-21.03369-17.79785-1.65943-8.14282,2.627-15.32666,4.045-17.79761,7.41009-12.91235,10.603-31.79931,16.98871-69.573,3.37365-19.9563,1.17047-38.92212-3.2359-76.854C878.7009,2561.17358,872.12259,2537.12183,873.67288,2536.74023Z" style="opacity: 0.2"/>
      <path d="M1931.24844,2509.23462c-1.72565-.42481-11.19287,29.05322-18.342,59.59155-4.67041,19.95019-7.48188,36.63794-9.16364,48.00415,0,0-5.10742,36.38916,7.28089,123.77515.67285,4.74609,2.01452,13.47412,7.28094,15.37084,6.66156,2.39917,18.721-6.44946,21.03369-17.79785,1.65943-8.14282-2.627-15.32666-4.045-17.7976-7.4101-12.91236-10.603-31.79932-16.98871-69.573-3.37366-19.9563-1.17047-38.92212,3.2359-76.854C1926.22042,2533.668,1932.79873,2509.61621,1931.24844,2509.23462Z" style="opacity: 0.2"/>
      <path d="M863.20885,2738.02824a816.62,816.62,0,0,1-43.887-96.88284c-94.57133-253.68262-34.94345-500.40763,15.0695-641.44893a245.881,245.881,0,0,1-20.67587-27.549c-50.77018,138.63512-116.9866,392.58608-19.56337,653.919a816.61911,816.61911,0,0,0,43.887,96.88284A385.71556,385.71556,0,0,0,863.366,2758.4707c1.98963-3.63906,3.90227-7.50244,5.66492-11.50086C867.11162,2744.10686,865.16837,2741.13507,863.20885,2738.02824Z" style="fill: #f4f4f4;opacity: 0.2"/>
      <path d="M1944.00406,2708.51572a900.06516,900.06516,0,0,0,40.92632-109.85177c84.79306-286.10164.55756-552.88459-65.10847-704.18694a271.00669,271.00669,0,0,0,20.65025-31.85694c66.31659,148.59926,158.34353,422.82919,70.99346,717.55883a900.0665,900.0665,0,0,1-40.92632,109.85178,425.13043,425.13043,0,0,1-25.16112,40.97515c-2.46313-3.8509-4.85859-7.95429-7.09933-12.21751C1940.17261,2715.495,1942.0845,2712.08022,1944.00406,2708.51572Z" style="opacity: 0.2"/>
    </g>
  </g>
</svg>
