<svg id="Layer_9" data-name="Layer 9" xmlns="http://www.w3.org/2000/svg" viewBox="0 0 3000 3000">
  <title>5</title>
  <g>
    <path d="M1151.47612,2838.57752a1186.04611,1186.04611,0,0,0,466.76019-.874c24.17352-4.942,43.8834-9.77956,56.81533-13.11117-50.909-234.56159-82.3947-387.40785-88.28238-432.88544a199.91991,199.91991,0,0,0-10.489-43.48971c-14.93643-41.1837-39.59624-66.6776-45.45227-72.54906-35.31541-35.40839-74.4127-46.62624-83.03807-48.94847-15.01715-4.043-50.96168-13.21721-93.52669,0-44.9272,13.9508-70.09862,44.42153-82.16362,59.43749-33.54752,41.75189-40.8454,86.34475-42.83012,106.63826Z" style="fill: #d8d8d8"/>
    <path d="M2388.10368,1981.4597c-36.56061,3.0301-38.27508-8.479-65.35683-5.602-42.79529,4.54634-50.01087,34.50743-99.64545,40.64479-18.505,2.2882-34.64512,4.284-43.26694-5.24431-19.41273-21.45364,1.57757-98.79633,48.51165-140.29024,9.10335-8.04847,20.97328-16.3304,20.978-28.84489.00791-20.60926-32.17412-25.32336-38.02263-48.51164-6.43016-25.4943,23.00192-57.33961,48.51164-72.11183,33.155-19.19946,76.08958-19.0586,108.82319-5.24431,35.53738,14.99776,48.05385,41.47056,66.86713,35.40008,15.1133-4.87673,11.83115-23.50839,30.15616-38.02224,28.562-22.62207,74.548-7.46643,81.28957-5.2447,53.78959,17.72714,77.19906,70.71865,81.28958,79.97869,22.34786,50.58856,22.2893,83.91054,22.2893,83.91172-.0178,10.12658-1.058,24.9269,5.24431,27.53362,9.43731,3.90336,22.32136-24.9166,43.26734-23.60019,13.65364.85823,22.47369,14.00264,23.60018,15.73373,10.43323,16.03443,4.62627,36.68959,0,51.1338-15.48484,48.34981-25.90342,80.88-59.00066,124.55651-21.6119,28.52-64.18562,89.57387-82.60084,81.29-8.47265-3.81117-3.89387-18.68192-10.489-52.44508-4.88622-25.01315-11.57238-59.24282-36.60848-86.70284-2.25971-2.47852-39.66786-42.36044-89.25931-40.47622C2422.04252,1970.16232,2419.30324,1978.874,2388.10368,1981.4597Z" style="fill: #d8d8d8"/>
    <path d="M2730.46285,1868.51474a37.00642,37.00642,0,0,0-21.20831-6.8373c-13.20613,0-25.39933,7.15385-36.76319,14.485-.1646.114-.3292.21525-.48114.31654-.02533-.24057-.04432-.48114-.06331-.747-6.6094-82.073-44.32855-143.3049-112.10652-181.98633-16.28925-9.29368-32.71145-14.00382-48.81711-14.00382-31.66686,0-58.79451,17.9416-76.50821,50.57075-27.93166-24.31042-68.69594-38.23827-112.0622-38.23827-40.09321,0-76.8564,11.69939-103.51557,32.933-22.62009,18.00491-34.16754,40.28946-32.50886,62.73862,1.627,22.082,15.92206,42.01146,40.25148,56.12923.12029.06331.23424.13928.3482.20259-.24691.22791-.46215.44316-.62043.58244-43.993,41.94815-65.3406,86.96042-65.252,137.6198.057,32.55318,14.80784,51.9762,39.44114,51.9762,9.51525,0,20.06243-3.00082,31.33766-8.91382l3.24772-1.69667c25.0448-13.16814,48.70315-25.58925,75.45728-31.67952a110.29467,110.29467,0,0,1,24.17115-2.96283c16.6058,0,29.18518,5.052,36.38967,14.58625,8.496,11.25624,9.71784,28.69137,3.53261,50.40615-38.023,133.40347-126.64846,230.05007-263.40727,287.25555-9.58489,4.00109-21.58183,4.343-32.072,4.343l-9.02777-.05064c-7.51471-.02533-10.12935-1.798-11.43983-3.12744-2.32975-2.35507-3.482-6.97658-3.425-13.72526,1.50041-181.59382-25.45-324.7088-84.82059-450.42662-13.80124-29.2105-21.46788-52.95115-16.86536-79.92053,15.7448,14.94078,26.09572,29.717,32.43289,46.24046a39.14645,39.14645,0,0,1,1.57005,6.53343c1.44976,7.73628,3.87447,20.67652,20.85379,20.67652h.038c18.85958-.65841,23.07592-17.1819,25.86782-28.10893l.4938-1.92458c17.35917-66.49914,17.16291-129.36439-.58244-186.83575-12.97822-42.06211-9.85078-82.00971-5.53948-119.32368a475.76181,475.76181,0,0,0,2.28543-83.795c-1.39278-22.44916-.83567-36.82017,18.562-47.07613,7.83125-4.14037,13.14915-11.57278,18.29612-18.76461,1.30416-1.82328,2.59565-3.6339,3.91246-5.34323,33.42051-43.55618,75.04578-69.21508,120.38093-74.20378,44.94264-4.95072,85.15613-22.85433,126.56616-56.33815,48.86142-39.5171,56.42045-76.71712,26.96305-132.66908-30.76789-58.44632-76.80576-110.76438-144.86862-164.6525-89.86-71.146-188.15257-142.05772-315.76965-160.07529l.038-.15194a26.24509,26.24509,0,0,0,.67106-3.08312c3.33-24.18381,5.29892-50.08328-2.80456-75.6662-6.9386-21.93-21.82873-35.02221-39.82731-35.02221-12.14889,0-24.41172,5.90034-35.4717,17.05528-16.66277,16.80205-25.50063,37.99137-32.47721,56.52807-1.88659,5.0077-3.67822,10.05338-5.43819,15.10539-2.34241-4.54554-4.74813-9.0531-7.35011-13.44038-12.69966-21.4109-31.51492-45.98722-64.56191-45.98722q-3.35217,0-6.91328.34187c-35.24378,3.41865-47.62691,33.53446-56.67368,55.52147-10.59782,25.76018-14.68755,54.80608-12.51607,88.80269.019.32287.038.62675.05065.90531-.27856-.11395-.57611-.23424-.90531-.36719-87.43524-36.06046-176.09232-54.34393-263.4959-54.34393-87.11237,0-175.33262,18.15685-262.21074,53.97674q-.56028.23742-1.0256.41784c.00633-.2469.019-.50647.03165-.785,2.60831-47.5003-5.75473-84.26982-26.311-115.7151-12.12356-18.543-30.2171-29.17885-49.64012-29.17885-15.51689,0-31.12874,6.85-43.96768,19.29641-13.29477,12.88326-22.01233,28.19756-28.23555,41.30873-7.57168-24.27244-17.61873-52.74223-39.6184-74.12781-10.35092-10.0597-21.88571-15.37761-33.36986-15.37761-16.92233,0-31.44528,11.80069-38.85869,31.56557-7.70464,20.54991-9.65454,40.8909-5.62812,58.8325,2.15248,9.5659,2.12716,15.59919-.06331,18.97986-2.41205,3.72253-8.67325,6.30551-21.60716,8.91382-119.15274,24.09518-215.47648,93.114-301.81648,164.108-64.90377,53.369-108.23837,104.11067-136.379,159.68278-13.07318,25.79818-25.68421,55.61643-9.74316,83.086,32.61649,56.21786,83.833,91.373,144.21654,98.98269,51.8116,6.53342,94.35484,28.27353,133.87195,68.41739,4.77345,4.84942,9.0531,10.15467,13.586,15.77645,8.81886,10.93969,17.93527,22.24657,31.01479,30.05883,3.61491,2.16515,4.31763,3.58326,3.97577,8.02751a662.47574,662.47574,0,0,0,3.64656,135.16344,9.4952,9.4952,0,0,1-1.13322,5.36855c-45.04393,75.61555-52.394,158.01777-22.46815,251.90413,5.48251,17.19456,15.73214,19.76489,21.35392,19.76489,7.83758,0,15.8271-4.78612,23.09491-13.82656,7.76161-9.66086,15.26365-19.52431,22.7657-29.38776,4.34929-5.71042,8.69224-11.42084,13.08585-17.08061a543.87239,543.87239,0,0,0,39.62473,148.38224,10.196,10.196,0,0,1,.15194,6.55875c-101.93286,233.26614-112.34076,467.12737-30.95781,695.10093a.38754.38754,0,0,1,.03165.076c-21.53752,6.87529-42.95475,14.10511-64.37831,21.32227-16.75141,5.65977-33.50914,11.30688-50.31752,16.78939-26.62752,8.67325-53.63488,22.56311-52.03951,59.76313,1.51307,35.25012,21.42356,60.2696,56.07858,70.42427,12.48442,3.65922,26.05774,5.36855,42.72051,5.36855,9.71784,0,19.46734-.55711,29.21683-1.12689,9.49626-.55711,18.97986-1.11423,28.42547-1.11423,1.89293,0,3.77952.02533,5.83071.076l78.85694.02533c-24.43071,19.94214-52.12813,44.96162-42.4926,85.26375,9.81281,41.0745,45.51875,52.45735,81.25,60.59881a269.94572,269.94572,0,0,0,59.93406,6.55875,337.39315,337.39315,0,0,0,53.86279-4.54555c48.41194-7.85024,110.63777-22.6644,162.519-67.82862,3.28571-2.84888,5.128-6.54609,6.755-9.80014,2.88686-5.78639,4.14037-7.79959,9.18605-7.79959a21.51743,21.51743,0,0,1,2.86154.21524,1543.40339,1543.40339,0,0,0,209.91167,14.71288,1385.083,1385.083,0,0,0,292.02266-30.8312l.42417-.10129c1.5384,17.86563,13.16815,29.93221,22.58844,39.69437,39.56775,41.04917,113.22075,67.57539,187.63344,67.57539,45.72766,0,87.56185-10.20532,117.798-28.71669,28.09627-17.20723,44.78436-41.391,47.00649-68.08186,2.21579-26.70348-10.275-53.331-35.17415-74.95715a172.25969,172.25969,0,0,0-37.36462-24.66495l193.21091-5.03935c36.23773-.94963,71.69044-30.67925,74.381-62.35878,4.153-48.86142-39.63739-63.33372-54.02739-68.08185-31.64787-10.45855-64.13141-19.98013-95.55137-29.18518l-10.908-3.2034c-47.323-13.90253-47.323-13.90253-38.23194-61.81432l.30388-1.50674a41.40611,41.40611,0,0,0,.93063-6.30552c.03166-.63309.06964-1.16488.114-1.6207.7597.32921,1.74731.79769,3.05146,1.46876a340.083,340.083,0,0,0,156.27679,37.46591,407.77809,407.77809,0,0,0,76.93871-7.635c18.5177-3.58326,43.4169-11.61076,45.91125-39.87163.27856-3.1401.70272-4.3303.84833-4.3303.03166,0,.04432.05065.05065.12662.94329,0,1.99421.08863,3.17175.18992l1.69666.12662c8.78721.62042,17.46679.9243,25.79185.9243,54.53386,0,100.24885-13.06685,139.75963-39.97292,20.60055-14.02915,31.59089-32.02139,30.95147-50.68471-.65207-18.92921-13.0985-36.42765-35.05386-49.27926-.1646-.08863-.32287-.18993-.48114-.27856.45582-.25323.91164-.4938,1.36746-.73437,59.54788-31.4896,117.96255-70.91808,141.93111-145.49538,9.28734-28.88129,1.48141-52.44468-21.41724-64.6632-1.27883-.68373-2.22845-1.2535-2.93117-1.70932.38618-.32921,3.62124-3.16542,3.62124-3.16542,72.59574-66.39786,117.42442-139.02526,137.03736-222.03523C2749.1325,1917.16092,2756.42563,1886.29174,2730.46285,1868.51474Zm-531.48037,815.61481c-3.83015,23.47476-23.26583,29.57769-46.3734,34.6297a116.12483,116.12483,0,0,1-18.39109,2.02587c-2.19047.12662-4.15936.22791-5.21661.35453h-39.84631s-93.67111,0-121.3812.0633c20.75249-32.9077,36.66822-70.50023,51.56469-121.80536.71539-2.45637,1.24718-3.45664,1.19653-3.68455a15.72357,15.72357,0,0,1,3.96311,1.01293c17.34017,6.0143,34.73732,12.96556,51.55836,19.67626,31.71118,12.67434,64.4986,25.76651,99.01434,33.54079C2188.85314,2653.05779,2201.92,2666.09932,2198.98248,2684.12955ZM1163.54191,2823.10416c8.94548-50.96326,17.58707-101.96451,26.235-152.97842,17.02363-100.47044,34.62337-204.37219,54.38825-306.03282,14.45964-74.34939,70.171-127.46514,141.91845-135.31538a130.14606,130.14606,0,0,1,14.20007-.77236c59.47824,0,119.24138,40.84658,152.25038,104.06635,24.77257,47.44331,33.51547,100.19188,41.96714,151.21845,3.51361,21.221,7.14752,43.16367,11.88931,64.53658,11.70573,52.76123,22.44916,106.68732,32.83807,158.85345,6.81832,34.21186,13.6303,68.42372,20.75883,102.57227,1.589,7.64766.98128,8.01484-6.09027,9.62288-87.8594,20.03078-174.69321,24.589-270.63709,28.10893-78.14156-.94963-146.14112-6.03962-214.00772-16.017-5.15331-.747-5.913-1.63335-5.94466-1.67134C1163.30134,2829.28306,1162.6366,2828.21948,1163.54191,2823.10416Zm296.53656-608.35576a168.99312,168.99312,0,0,0-61.23822-11.57278c-85.1498,0-158.3723,63.65027-178.06755,154.80171-22.32887,103.332-41.65059,209.08233-60.33923,311.35072-8.11614,44.41717-16.226,88.83435-24.60165,133.18822-.72171,3.7985-1.5194,7.597-2.31709,11.39551-2.08917,9.91409-4.24166,20.17006-4.96971,30.5653-1.09523,15.80177-8.31239,24.85487-26.60852,33.42683-59.79478,27.98232-114.79712,41.59362-168.14711,41.59362a310.64429,310.64429,0,0,1-66.151-7.15385c-23.43677-5.128-46.6393-12.21852-50.52644-37.314-3.406-21.99334,12.782-35.00955,29.91322-48.79812l5.43186-4.3936c5.52682-4.52022,11.79436-9.6482,17.60607-10.927,47.7472-10.48387,50.22255-51.63433,51.86224-78.857,6.03329-100.19187-16.92233-198.37054-70.1647-300.15779-1.95623-3.74786-6.02063-11.54746-13.93418-11.54746a12.46032,12.46032,0,0,0-6.48911,1.91192c-11.06631,6.68537-5.19129,17.44779-2.9755,21.49953.41151.747.81035,1.48142,1.14589,2.17781,38.96,82.26294,58.60458,168.81819,58.37667,257.27269-.03165,11.12961-1.77263,22.18326-3.61491,33.88265-.842,5.35589-1.684,10.71179-2.35507,16.055a27.2472,27.2472,0,0,1-.79135,4.153,34.99562,34.99562,0,0,1-4.33663-3.53261c-79.98384-73.85559-107.18746-174.02214-121.951-253.031-32.8254-175.69347-15.91573-354.34979,50.25421-531.00555.31022-.823.65208-1.646,1.0256-2.44371.45582.67107.88632,1.3548,1.29149,2.06386,15.80178,27.56448,32.05938,47.56993,51.16585,62.96653,3.72887,3.00082,8.19211,6.06495,13.02887,6.06495,6.38782,0,10.77509-4.77345,13.04786-14.20641,3.62124-15.05473,7.578-30.0335,11.52846-45.01227l2.33608-8.87584c2.67795,2.20313,5.34956,4.43159,8.02751,6.64738,11.30688,9.36965,22.61376,18.73929,34.22452,27.71642,118.11449,91.30338,251.06846,139.92423,395.17738,144.50776q11.68039.36085,23.20886.36719c157.44167,0,301.37332-52.59662,427.85085-156.34643.48114,3.05147.91164,6.11559,1.34846,9.17972.90532,6.40681,1.817,12.81362,3.11478,19.14446,1.50041,7.29313,3.41865,14.49762,5.3369,21.70212l4.77345,18.43541,7.68564-5.39388c2.70327-1.89925,5.5015-3.69721,8.2934-5.49517,6.35616-4.08972,12.92125-8.33138,18.62533-13.73792,44.892-42.56857,78.8886-96.46935,103.84478-164.63983,43.27762,100.90093,67.86027,213.45061,77.28689,353.62807,1.31682,19.575.94963,39.73235.60143,59.21868-.1646,9.23037-.3292,18.46073-.3292,27.6911.12662,119.53892-7.88823,246.57356-66.879,365.63134-6.62206,13.35808-14.49129,28.2862-25.67155,40.8086-4.57087-13.83922-5.43187-28.53943-6.33718-43.936l-.18992-3.16542c-6.68537-111.41013,13.02887-191.19138,63.9035-258.64015,6.32451-8.36937,5.86869-17.24521-1.15854-22.62642a15.975,15.975,0,0,0-9.78748-3.58326c-7.64133,0-12.97822,6.16624-15.8461,9.4836-30.73622,35.592-50.9506,80.23707-63.59962,140.48135-13.42771,63.91616-12.54772,131.30162,2.68428,206.00554,2.82989,13.88986,10.97135,20.96774,24.89286,21.62615,25.04481,1.22818,76.60317,41.28974,84.87125,65.942,9.92042,29.565-3.25405,51.52038-40.27681,67.10691-25.82983,10.87638-56.8826,16.61212-89.81563,16.61212-64.08709,0-124.79985-20.90443-158.43561-54.57184-22.22124-22.24657-26.61485-50.38083-31.268-80.17376-1.41177-9.04044-2.82355-18.06822-4.73546-26.90607l-5.90668-27.18463c-22.26556-102.471-45.2845-208.43659-64.334-313.25C1591.29146,2311.29371,1542.34773,2246.57986,1460.07847,2214.7484ZM619.55813,2713.454c2.39306-8.93915,7.50838-13.88987,18.25181-17.66305,36.25039-12.687,72.33618-27.50117,107.23811-41.83419,0,0,17.76433-7.29313,18.29612-7.50838.17094.32921.37985.7597.62043,1.29149,22.47448,50.2922,46.91785,88.69508,76.64115,120.33662-8.28707.038-41.70125.038-41.70125.038l-43.17633.48114c-28.88762,1.24085-57.78158,2.469-86.65021,4.07707-.823.038-1.63968.0633-2.45636.0633-14.5736,0-28.91928-7.35643-38.37756-19.67625C619.15929,2741.23373,615.99387,2726.79942,619.55813,2713.454Zm90.25246-1114.37983c10.78775-23.41144,9.21137-45.55672,7.68564-66.98029a261.00076,261.00076,0,0,1-.99394-26.3996c.64574-21.107.55078-42.54325.46215-63.25776,0,0-.038-10.34459-.038-10.42056.45582.01266.937.05065,1.4561.08863q4.37776.36086,8.64792.36719c32.31894,0,61.01664-15.02941,78.73666-41.22643,18.06822-26.71615,21.24-59.972,8.69858-91.23374-12.61737-31.46427-25.83616-69.02515-28.15958-109.06771-1.05092-18.11887,10.0787-33.028,21.86039-48.81078,3.19075-4.27332,6.34984-8.50865,9.23037-12.76931,126.908-187.855,300.97447-285.71082,517.35626-290.84513,6.57141-.15827,13.07952-.23424,19.56863-.23424,247.8334,0,438.76521,114.51857,567.49652,340.37763,15.30164,26.84276,4.64684,53.94509-5.64711,80.15476-1.67134,4.24167-3.32369,8.44534-4.84942,12.60471-17.1186,46.576-27.12132,95.74129,15.213,139.8166,13.2188,13.73793,29.53337,21.30961,45.93658,21.30961,1.77264,0,3.55793-.08863,5.36222-.25323a50.83423,50.83423,0,0,1,5.166-.27856c4.976,0,8.31239.91164,9.91409,2.73492,2.01954,2.29177,2.57033,7.21716,1.63336,14.66223a118.682,118.682,0,0,0-.39884,18.62533c.08863,2.60831.17093,5.22928.17093,7.97686.86733,36.97211-2.659,75.51426-10.77509,117.8296-2.21579,11.57278,1.67767,21.48687,5.12165,30.23609.86733,2.2158,1.741,4.41893,2.49435,6.62206,20.67653,60.56082,18.77094,123.07154,14.47863,171.41383-17.80232-25.52595-35.42738-41.391-56.87627-51.26714-6.76133-3.11478-11.10429-4.38094-14.98509-4.38094a12.79376,12.79376,0,0,0-9.395,3.73519c-3.59592,3.65923-5.14064,9.36965-5.0077,18.5367,1.18387,81.73115-30.15379,155.09293-98.60283,230.8351-.019-.12662-.038-.24057-.057-.36719-4.35562-33.57878-10.62315-73.20984-24.3041-113.06881-1.62069-4.76079-4.63417-13.6113-14.24439-13.6113a16.08637,16.08637,0,0,0-4.27964.60776,13.82482,13.82482,0,0,0-9.395,7.635c-1.95623,4.305-1.646,9.93942.82934,15.0674,30.29307,62.536-9.05943,83.98493-50.71636,106.68732-8.07815,4.3936-16.036,8.73656-23.28483,13.30743a634.92136,634.92136,0,0,1-338.64931,97.68486c-162.47468,0-318.27666-61.042-438.7209-171.895-9.93308-9.14174-11.69939-14.96611-8.2111-27.10866,5.07734-17.663,8.96447-35.87054,12.725-53.47028,1.7853-8.36937,3.5706-16.73874,5.48884-25.07012,1.11423-4.86209,4.52022-19.65093-10.9207-23.81663a19.68228,19.68228,0,0,0-5.11532-.72171c-8.33138,0-13.624,5.73574-15.7448,17.04262-5.15963,27.5898-25.91846,139.633-31.24269,168.04582a11.62251,11.62251,0,0,1-.27223,1.15222c-.22158-.22791-.4305-.45582-.62042-.68373-59.19969-72.34885-77.66042-159.28394-88.79-242.45852-.27222-2.03853-.36719-4.29231-.46848-6.59674-.41783-9.12907-1.04459-22.9303-14.08612-26.41226a12.05534,12.05534,0,0,0-3.04513-.39252c-6.91328,0-15.89674,6.03962-26.69716,17.9416-9.67352,10.63582-18.695,22.044-27.4252,33.07231-3.50095,4.43159-7.00824,8.86318-10.56617,13.25678C679.163,1714.58669,684.68348,1653.6207,709.81059,1599.07418ZM396.472,1198.75616c-12.83261-15.00409-7.56535-33.19892.04432-50.63406,35.95284-82.46552,104.27527-140.27242,165.48816-187.98164C634.24568,903.8403,722.96608,843.577,833.30629,823.47661c14.71287-2.67794,25.62724-6.22321,31.09709-14.84582,4.52022-7.11586,4.74813-16.54881.77236-31.53391a93.09158,93.09158,0,0,1,2.01954-52.76755c1.80429-5.39388,4.08339-8.61,6.0966-8.61.918,0,3.55793.48748,8.28074,5.0077,22.37952,21.42989,31.57823,49.22228,41.31506,78.65436,1.8676,5.63444,3.72886,11.26256,5.69142,16.85269.42417,1.22186.73438,2.57666,1.06359,3.94412,1.44343,6.06494,4.1277,17.35283,17.82131,17.38448,14.67489,0,17.58707-12.02859,19.32806-19.22043l.66473-2.67161c4.64051-17.53643,11.08531-37.82044,23.68368-55.34421,8.76821-12.18686,17.84031-18.63166,26.22867-18.63166,10.59783,0,19.15079,10.38258,24.4497,19.09381,18.68864,30.71724,21.05005,64.98608,19.10015,105.92129a16.0844,16.0844,0,0,1-5.166,3.93145c-48.74747,25.1461-89.25851,51.65966-123.85022,81.06641-1.36114,1.15855-2.10184,1.5384-2.16515,1.67135a10.357,10.357,0,0,1-2.17781-1.97523c-34.769-38.23827-80.21808-62.42208-138.93662-73.93155a34.83034,34.83034,0,0,0-6.74868-.69006c-19.96747,0-26.235,19.28374-28.29885,25.62724-9.46461,29.12187-11.49681,58.7502-12.88959,89.33449-.48115,90.46137-1.0256,192.98933,28.88762,291.3326,6.20422,20.398,11.00933,37.47858,11.75637,56.15456,1.1902,29.99552-7.66032,47.304-28.71036,56.12923a50.53482,50.53482,0,0,1-19.5623,4.115h-.00633c-19.31539,0-34.43977-12.16787-43.72711-22.37319-37.99137-41.7329-70.70915-75.38131-116.62041-96.91883-15.5802-7.31212-32.072-8.91382-48.01942-10.45855-15.80811-1.53839-30.74256-2.98816-44.61976-9.61021C444.656,1243.21132,417.31311,1223.14256,396.472,1198.75616ZM806.31159,917.98973c39.79566,9.03411,73.49472,27.153,100.16655,53.86279.31654.31654.56978.5951.766.823-.37985.38618-.89265.87365-1.53206,1.45609-50.01364,45.677-92.31,97.21638-125.83811,153.333-1.25351-22.063-5.22928-94.38017-5.22928-94.38017.56978-7.98952,1.24085-16.49183,1.93724-25.36767,1.73465-22.044,3.70354-47.03181,4.72281-71.82339.69006-16.80838,8.35671-19.07482,15.77012-19.07482A42.05738,42.05738,0,0,1,806.31159,917.98973Zm1042.07529-127.2309c-2.20313,9.338-1.42444,16.76407,2.31076,22.05665,3.19707,4.52655,8.23009,7.19817,14.96611,7.93887,95.65266,10.51553,176.77605,61.01031,245.30739,107.51666,91.316,61.9726,153.7318,123.55268,196.43331,193.787,28.94461,47.60792,25.30437,70.03809-16.92866,104.33858-32.85706,26.69082-67.92359,41.4037-107.20012,44.968-63.21344,5.74207-106.40876,48.241-143.67842,93.31658-18.01757,21.79076-39.84631,34.28784-59.89608,34.28784-16.80205,0-30.2994-8.67326-39.036-25.08279-10.4902-19.7269-10.43956-44.31589.14561-73.10222,26.72881-72.697,30.521-150.68032,33.87-219.4839,3.08945-63.397,2.63363-116.50645-9.61654-169.64119-3.6529-15.83976-10.83207-34.02194-34.1169-34.02194a63.61981,63.61981,0,0,0-15.56754,2.18414c-53.04611,13.42138-94.60174,36.89614-127.0473,71.77274-1.15221,1.24084-1.81695,1.69666-1.8676,1.82961a11.29334,11.29334,0,0,1-2.55765-1.779c-36.59226-30.7299-77.83135-57.49036-126.0597-81.81345-3.91246-1.97523-4.07073-3.83649-3.05146-10.9207.60776-4.248,1.29149-8.9898-.53179-13.52268,2.04486-34.66768,4.89374-61.1939,20.53091-85.08016,5.52683-8.439,14.24439-18.505,24.38007-18.505,9.9141,0,19.06849,9.49627,25.00049,17.46679,13.97849,18.76461,20.60688,41.13147,25.24739,60.54183,1.03826,4.34295,3.79217,15.87775,16.80838,17.76434a20.15605,20.15605,0,0,0,2.85521.20891c10.90171,0,14.16842-9.21137,16.46651-15.67516,2.564-7.12852,4.93173-14.34568,7.29946-21.56917,9.62921-29.36877,18.733-57.11051,40.63134-78.8886,5.55214-5.52049,8.66058-5.951,9.48359-5.951,2.26644,0,4.6595,3.87447,6.25487,10.104C1854.29356,745.67059,1854.02133,766.91689,1848.38688,790.75883Zm86.51727,146.0968c.975,24.78524,2.90585,49.76041,4.61518,71.79173.68373,8.8885,1.34214,17.39715,1.89925,24.57,0,0-3.94411,72.07662-5.22294,94.48779a674.99034,674.99034,0,0,0-125.96473-153.30762,19.81293,19.81293,0,0,1-1.51307-1.50041,19.79116,19.79116,0,0,1,1.52573-1.665c25.91213-25.83616,57.69295-43.10037,97.15307-52.78022a48.59993,48.59993,0,0,1,11.40185-1.59537C1926.75,916.85651,1934.20142,919.27489,1934.90415,936.85563Zm638.02208,1195.88306-3.19708,2.29177-.65841.861c-1.91191,2.507-5.856,4.81144-9.66719,7.0399-7.43241,4.343-17.6124,10.28128-14.7192,21.76542,2.15248,8.5593,7.749,13.26945,15.75113,13.26945a44.84807,44.84807,0,0,0,11.20558-1.9499,34.85408,34.85408,0,0,1,9.06577-1.49408c.20892,0,.41783.01266.63308.01266,6.31185,1.20286,14.62424,4.267,18.34678,12.06658,3.64656,7.60967,2.15248,18.34678-4.20368,30.22343-34.91458,65.24564-88.961,108.19406-160.64507,127.65507l-2.77924.69639c-6.90062,1.65868-19.73956,4.76079-17.853,20.68918.79135,6.62206,4.21,14.523,16.01069,14.523,1.51941,0,3.10212-.12662,4.66583-.25323,1.16488-.08863,2.32342-.18993,3.78585-.18993h.10129c14.89014.37985,41.06816,4.6595,49.121,29.05856,5.014,15.20668-3.34268,26.24766-28.8623,38.099-33.47115,15.53588-68.08819,23.41144-102.89515,23.41144-26.70981,0-54.135-4.63417-81.50324-13.80123-3.77951-1.25351-8.06549-2.69694-12.37679-2.69694-6.774,0-12.01593,3.67189-14.75719,10.31927-2.15881,5.24194-2.27277,10.142-.33553,14.5736,2.31709,5.30524,7.28047,9.319,15.16869,12.24384,2.431.899,5.147,1.67134,7.91355,2.431,12.32615,3.41866,15.0674,5.3559,14.66856,10.30661-.53812,6.78666-7.40075,8.83786-21.61349,10.64848l-2.82988.36718c-25.1461,3.406-47.25973,5.06468-67.60072,5.06468-57.19914,0-104.38289-13.63663-144.24819-41.69492-6.43847-4.52022-5.5838-10.31927-1.91192-23.44943,1.86127-6.64738,3.78585-13.52267,3.3237-20.398-2.50069-37.38994,1.41177-53.00179,50.98225-56.88893,86.34-6.736,149.45215-68.80357,206.68927-131.80809,60.37723-66.47382,92.39229-124.99611,103.80679-189.76061,3.81117-21.61348,6.0143-53.31833-18.733-79.00888l-1.05092-1.01294-.58244-.25323-1.08891-.7597c-13.91518-13.06686-30.98313-19.423-52.17878-19.423a135.31512,135.31512,0,0,0-21.06271,1.7853c-36.19974,5.67243-70.39894,21.43622-104.56015,48.203l-2.48169,2.03853c-2.16515,1.83594-4.21,3.55793-5.69143,3.55793a5.15629,5.15629,0,0,1-2.15882-.63309c-4.83676-2.41838-7.33111-6.29285-8.09081-12.59837-6.30552-52.17878,29.81826-115.56316,77.31222-135.65724,11.33854-4.81144,12.16788-13.52268,11.64875-18.28347-.98128-9.09109-7.29313-14.99143-16.878-15.77645-21.911-1.82329-36.19342-14.7382-42.45462-38.39022-4.36828-16.48551,3.5516-30.16012,24.20914-41.79621,24.12683-13.57332,49.28559-20.44861,74.77355-20.44861,21.58817,0,43.86639,4.92539,66.20793,14.66223,19.7079,8.59728,30.31839,21.183,32.43922,38.46618,1.24085,10.104,7.72363,16.63745,16.51717,16.63745a20.57476,20.57476,0,0,0,3.6149-.34187c11.08531-2.05119,17.05529-11.18026,15.20035-23.28483-2.64629-17.25787.75337-31.9834,9.83813-42.5559,9.30633-10.85106,24.24712-17.08061,40.99219-17.08061a64.78845,64.78845,0,0,1,27.43153,6.027c62.51072,29.46373,107.80155,108.76383,100.95158,176.795l-.27856,2.44371c-.83567,7.05255-2.24112,18.85324,9.86345,24.67761a16.47043,16.47043,0,0,0,7.09687,1.70933c6.43847,0,10.71178-4.07706,14.14943-7.34377a36.33911,36.33911,0,0,1,3.17808-2.8109c2.58932-1.92457,5.24194-4.08972,7.94521-6.29285,8.55929-7.00191,17.40981-14.23173,25.298-14.23173a12.95062,12.95062,0,0,1,7.05256,2.16515c9.06576,5.72307,5.22927,19.0305-.72172,35.84521l-1.47508,4.20368C2679.392,2019.80916,2635.285,2083.776,2572.92623,2132.73869Z"/>
    <path d="M2000.84831,1475.86273c.8924,40.149-3.38975,79.8434-10.93633,119.20092-2.37945,12.40928,3.73078,22.86588,7.38169,33.5553,19.77972,57.91306,20.02421,117.25877,14.52415,177.12679-.32338,3.52033-2.36976,6.88245-3.614,10.31833-2.11858-2.656-4.41771-5.18864-6.3271-7.98744-14.63352-21.44747-31.61856-40.20293-55.82738-51.34474-13.02088-5.99276-20.46536-6.7523-20.19424,11.91474,1.3539,93.27366-39.99845,168.688-100.62659,235.66554-2.16855,2.39568-5.44652,3.78718-8.2073,5.64659-.93227-3.30075-2.29458-6.54539-2.73116-9.9105-4.89431-37.72452-11.41721-75.09761-23.80556-111.2028-1.732-5.04795-3.58212-11.46263-10.89119-9.45655-7.30209,2.00381-6.58213,9.18571-4.4338,13.62136,39.30342,81.15088-31.96615,100.33624-76.38786,128.29977-247.98967,156.11122-569.09138,123.98715-785.20874-74.91192-11.50265-10.586-14.26727-18.99569-10.05077-33.67221,7.37856-25.68205,12.12548-52.11653,18.12279-78.20185,1.60809-6.99437,2.27621-13.79252-6.28409-16.10575-9.03677-2.44209-11.53041,4.45046-12.80216,11.24818-10.477,56.00581-20.76126,112.04735-31.24462,168.05188-.677,3.61686-2.519,7.01615-3.81922,10.51654-2.84465-2.36093-6.16633-4.33141-8.4644-7.13947-58.475-71.46052-78.33663-157.05986-90.19939-245.69809-1.33013-9.93927,1.07046-24.70037-9.80677-27.60925-6.04153-1.61563-16.89577,8.63165-23.26488,15.6377-13.80234,15.18245-26.09258,31.73746-39.06333,47.68045-1.85806,2.28361-4.06179,4.286-6.1056,6.41838-1.19058-2.78884-2.91073-5.47173-3.494-8.38217-13.20977-65.91133-11.39478-131.50369,16.83546-192.77189,14.42269-31.30173,5.18992-60.64523,6.10531-90.88083.73833-24.38625.49882-48.80639.41495-73.21043-.02243-6.52774,2.41668-7.12808,8.47486-6.62727,67.70887,5.59618,115.1318-59.41179,89.5322-123.22918-14.401-35.90042-26.38621-72.69936-28.616-111.10439-1.49965-25.83058,18.58665-45.45238,32.18864-65.58524,125.00956-185.03208,298.79089-288.38883,522.57759-293.70036,265.23488-6.29535,462.034,113.89223,592.85307,343.42206,19.43171,34.094,1.25793,67.439-10.04891,98.20186-17.64435,48.00583-25.31311,92.37186,13.80618,133.08357,12.35318,12.85584,28.43458,20.81082,45.99107,19.09224,20.39758-1.9964,26.12191,5.74242,23.77892,24.39664C1999.92216,1458.64957,2000.80061,1467.31311,2000.84831,1475.86273Z" style="fill: #3a414b"/>
    <path d="M2024.068,2312.90692c.13414,126.82568-9.92574,252.21628-67.552,368.51345-8.93167,18.0254-18.69152,35.66462-33.82656,49.53944-8.71637-18.4859-9.4658-38.58858-10.65011-58.31447-5.6641-94.35132,6.089-184.56573,65.20077-262.94159,3.37593-4.47609,4.80687-9.94639.077-13.56355-6.9918-5.347-12.31615-.18654-16.79,4.993-34.29832,39.7064-51.59237,87.22295-62.16687,137.56579-14.26784,67.92681-11.09624,135.75479,2.69343,203.38627,2.12071,10.40063,7.22348,15.8809,18.85884,16.44935,28.12914,1.37441,81.73983,43.63312,90.70056,70.34869,10.98944,32.76428-3.94268,58.31789-43.9098,75.142-81.06672,34.12531-200.70807,15.3304-255.34815-39.34983-30.78284-30.8052-29.52391-72.32971-37.759-110.28292-24.58546-113.3077-49.55824-226.606-70.28361-340.65274-16.39852-90.23719-59.23977-159.54325-145.5773-192.95487-98.70338-38.19614-206.14349,25.27138-230.62272,138.55374-31.84355,147.36152-56.93765,296.18232-84.91086,444.37972-2.58834,13.71334-6.22486,27.37571-7.18846,41.21408-1.42183,20.42279-12.56848,30.52781-30.32859,38.84063-76.16174,35.64809-154.90825,53.129-238.43117,34.896-23.98789-5.23649-50.992-13.21895-55.54871-42.64945-4.34964-28.094,18.28392-43.34177,37.17772-58.81258,6.2559-5.12257,13.2722-10.97051,20.79016-12.622,40.348-8.86475,44.83552-40.54027,46.78407-72.92464,6.36085-105.718-20.82149-203.81174-69.44169-296.76957-2.35431-4.50115-5.80508-10.42684-11.31988-7.08878-6.8974,4.17535-1.6387,10.48266.67083,15.35831,38.99043,82.31939,59.23251,168.95965,58.99812,260.06376-.04357,16.91755-3.89739,33.82684-6.018,50.73671-1.75176,13.96937-7.19742,12.66531-15.96022,4.5732-75.03089-69.2884-105.92821-160.29169-123.92307-256.61093-34.1384-182.72995-14.46228-360.87474,50.5558-534.46882,1.60046-4.273,4.04007-8.23165,6.08837-12.33694,2.66089,3.65759,5.68689,7.10586,7.9228,11.00724,13.2287,23.081,28.6555,44.25824,49.60843,61.14247,8.26447,6.65988,12.91058,6.98483,15.70383-4.60994,5.14294-21.35007,10.94189-42.54208,16.46758-63.79987,16.62336,13.57778,32.94342,27.5483,49.91907,40.67041,115.29854,89.12509,245.30906,138.50077,391.42291,143.14659,169.20756,5.38031,318.065-48.42276,448.23938-155.73187,1.96962-1.62389,4.408-2.67876,6.62755-3.99934a64.85491,64.85491,0,0,1,2.09323,7.3955c1.62773,9.94667,2.68346,20.00356,4.70734,29.86423,2.12185,10.33856,5.11033,20.49911,7.72017,30.73742,8.77689-6.15466,18.48562-11.32679,26.17916-18.62347,48.99634-46.4688,81.29484-103.50569,103.81142-166.57052,1.01543-2.84422,2.44452-5.54093,3.681-8.30627,1.55952,2.4703,3.47191,4.7868,4.62731,7.43338,50.20856,115.00251,71.58967,236.48746,79.94151,360.70188C2025.72867,2254.56111,2024.068,2283.79,2024.068,2312.90692Zm-85.79058,565.28455c-.82191-29.02239-8.29146-52.58786-30.90159-69.14942-4.54316-3.32724-9.67926-5.92683-14.3389-.22128-3.64862,4.46754-2.0965,8.785,1.79106,12.26916,21.30507,19.09593,27.47084,42.81007,22.02645,70.329-1.23742,6.25491.42492,12.07408,7.73868,13.27505,6.65675,1.09332,9.97146-3.56988,11.18168-9.30162C1937.12248,2889.01047,1937.68224,2882.46223,1938.27746,2878.19147Zm-1057.3537-6.29421c-.49226,12.18686-.02962,23.22344,10.06714,30.36007a12.66263,12.66263,0,0,0,10.41744,1.20467c2.17582-.87631,4.84262-6.64052,3.90466-8.23108-15.62744-26.49913-1.98629-44.30239,17.08785-60.95252,3.706-3.235,10.13949-6.63738,5.392-13.20983-5.00623-6.93015-11.43885-3.5095-16.49392-.19907C892.60454,2833.111,878.58931,2848.39046,880.92376,2871.89726Zm109.54758-.94551a35.46648,35.46648,0,0,0,.91689,9.67413c2.61753,9.40671,6.104,21.37342,18.05331,18.49616,12.11566-2.9177,3.21018-12.84245,2.5805-20.22314-1.26675-14.85167-3.82049-30.67305,12.821-40.1914,3.80455-2.1761,7.6306-6.25234,3.74-10.26878-2.67293-2.75907-8.49879-4.86768-12.07237-3.95691C994.57948,2830.06859,990.4356,2847.29685,990.47134,2870.95175Zm830.94079,9.39418c-.70558,4.66121-2.44424,11.50335-2.44324,18.34579.00057,2.8821,3.22329,7.50429,5.79938,8.17014,2.737.70742,8.10093-1.42169,9.46338-3.88856,10.25312-18.56622-3.10638-68.80312-21.04406-81.42286-4.21806-2.96754-8.78856-4.26848-12.73081-.63737-4.96607,4.57463-.68621,8.35867,2.311,11.83742C1814.00509,2845.79514,1820.6466,2860.679,1821.41213,2880.34593Z" style="fill: #3a414b"/>
    <path d="M1647.69544,846.67891c1.87551-32.44133,4.16823-63.19042,21.674-89.92293,18.48961-28.23465,39.82288-28.45892,60.005-1.36116,13.98063,18.77126,21.00775,40.53713,26.35374,62.9106,1.59014,6.65433,4.25851,11.81122,11.42916,12.84786,8.35284,1.20753,10.13635-5.23919,12.29579-11.24049,12.94783-35.98045,20.83118-74.38719,49.45756-102.85637,13.13166-13.05946,22.41164-9.19866,26.58927,7.14645,5.76392,22.55176,4.54088,45.43373-.80255,68.04272-2.57795,10.90686-1.117,20.66116,11.67437,22.067,94.10227,10.3431,172.65057,57.29491,248.23787,108.59352,77.76327,52.77554,148.59867,113.97782,198.33376,195.78543,30.60328,50.338,26.74091,76.08726-18.37968,112.73769-32.179,26.13814-67.8277,42.49921-110.69672,46.39034-61.1587,5.55146-102.36738,46.35275-139.27454,90.99432-37.06822,44.83608-87.52868,49.683-109.65053,8.10919-13.25754-24.91511-9.456-53.24431-.21744-78.37287,25.91287-70.48339,29.89542-143.91667,33.48125-217.56482,2.739-56.25842,3.32837-112.41-9.4594-167.87046-5.32534-23.096-15.22389-33.72176-41.77527-27.007-48.07845,12.1588-90.04112,33.51784-123.88747,69.90426-5.00837,5.38416-8.20788,4.90186-13.34056.5928-38.2595-32.12165-80.23812-58.50956-124.81119-80.98627C1641.08611,868.63673,1652.48552,854.82157,1647.69544,846.67891Z" style="fill: #3a414b"/>
    <path d="M747.17078,991.77818c-.52309,97.47165-.1429,194.91454,28.60609,289.41394,5.79853,19.05977,11.23437,37.72666,12.03165,57.7795,1.08826,27.36931-5.41869,50.92723-32.68461,62.36-27.987,11.735-52.76821-.279-70.5934-19.86231-33.962-37.31229-68.01146-73.5724-114.58129-95.41758-29.34976-13.76746-63.08818-5.96485-92.67617-20.086-32.78806-15.64851-62.24846-35.51581-85.72956-62.99006-15.16885-17.7483-9.07251-38.871-.97471-57.44373,35.41058-81.21581,99.85117-137.82452,167.45445-190.50779,82.03046-63.92617,169.757-118.913,274.12405-137.92092,27.18832-4.95155,33.7894-11.88754,26.76128-38.34138a99.667,99.667,0,0,1,2.14171-56.4881c4.85-14.51276,13.3607-17.38219,25.00631-6.23141,28.02676,26.836,36.45634,63.33509,48.63722,98.04465,2.37674,6.77252,1.938,16.96853,12.72312,16.99459,10.863.02605,11.63379-8.98778,13.77358-17.07092,5.382-20.32809,12.22531-40.13472,24.69169-57.46949,20.39843-28.36466,43.404-28.80794,61.474.88015,20.63666,33.90474,21.80032,72.31589,19.78556,110.70213-.1545,2.94191-4.98829,6.5051-8.42247,8.27679-43.65661,22.52142-85.12374,48.37037-122.61886,80.248-5.336,4.5366-8.58665,4.34679-13.34-.88158-36.48326-40.1286-83.02817-61.66877-135.38229-71.932-16.16655-3.16918-23.34853,7.39222-27.63388,20.57828C750.52514,932.77949,748.52091,962.20187,747.17078,991.77818Z" style="fill: #3a414b"/>
    <path d="M2574.225,2139.82546c-6.94923,9.11138-26.03149,12.26-23.25476,23.29264,4.18332,16.6245,20.67,2.98349,31.57669,5.05251,24.34125,4.61792,32.95481,24.99371,18.65565,51.7144-35.92919,67.1405-91.03063,110.85592-164.66811,130.84867-7.901,2.14506-17.27183,2.72831-15.88745,14.36524,1.43222,12.04076,11.07417,8.17839,18.284,8.36123,24.92081.63167,47.428,10.22577,55.1154,33.51927,8.052,24.39764-13.58291,37.31442-32.28839,45.99747-61.4697,28.53625-124.84694,31.41379-189.18735,9.88858-7.371-2.466-15.34777-5.11716-19.08141,3.94011-3.98795,9.675,2.4384,15.04874,11.09582,18.26775,10.91924,4.05944,27.94957,4.905,26.7916,19.34057-1.14857,14.32252-18.46056,15.34464-30.03682,16.91442-76.04141,10.31121-150.805,8.45266-216.44857-37.74246-16.63974-11.70983-.22613-32.20467-1.33013-48.7255-2.67008-39.957,3.02436-59.56728,56.94647-63.78079,84.62365-6.61175,146.63331-68.33378,202.3932-129.70779,48.77819-53.68944,89.24982-112.90585,102.2284-186.52681,4.68541-26.5783,3.2623-52.32016-17.02549-73.38515,55.577-26.488,102.46991-6.53713,145.83732,28.31838,37.52516,30.15986,52.11852,79.58225,38.14544,123.22733C2571.3178,2135.4069,2566.57486,2139.77876,2574.225,2139.82546Z" style="fill: #3a414b"/>
    <path d="M2128.99885,2727.62688c-56.59547,0-109.30964-.06037-162.02324.06209-8.34785.01936-9.5-2.34413-5.02431-9.411,23.67924-37.38932,38.9-78.47013,51.16247-120.68526,2.48012-8.53753,5.28334-9.851,13.50872-6.99708,50.02743,17.36069,97.59924,41.24456,149.8707,53.03128,17.2761,3.89569,32.3388,20.36156,28.88739,41.5379-4.50912,27.6645-28.05779,34.82875-51.3829,39.93053C2144.61375,2727.14758,2134.76761,2727.08748,2128.99885,2727.62688Zm-79.227-28.14409c-.33107-18.89743-5.50632-33.75251-18.853-45.04626-4.88007-4.12921-11.20945-6.24664-15.661-1.62844-5.57012,5.77873,2.38144,8.5284,5.336,11.527,9.25434,9.39361,14.84069,20.10353,11.9697,33.30938-1.18346,5.443-6.43917,10.57407-.31171,15.51921,2.24816,1.81442,6.79516,2.89208,9.30646,1.87309C2049.15744,2711.95416,2050.38689,2705.01974,2049.77188,2699.48279Zm72.26264-11.83485c-.68464-13.38213-5.29515-24.52409-14.73433-33.42358-4.49859-4.24113-9.81083-4.96422-14.55975-.77691-5.16671,4.55611-1.00162,8.16017,2.118,11.63464,6.68893,7.45047,9.59838,16.40464,11.216,26.14655.9794,5.89863-9.66729,16.84294,3.77294,16.84522C2119.56,2708.07556,2121.39,2696.33355,2122.03452,2687.64794Z" style="fill: #3a414b"/>
    <path d="M669.43407,2779.13924c-35.31976,1.95821-65.25869-33.1918-56.13516-67.353,2.97985-11.15653,9.79658-17.70222,22.37-22.10572,41.336-14.47665,81.80554-31.46269,122.37158-48.06255,6.04991-2.47536,8.45286-4.10792,11.843,3.47642,20.0838,44.93,44.73332,87.03165,79.35075,122.626,1.49645,1.538,2.3887,3.66318,3.56228,5.515-2.13863.45265-4.27569,1.28595-6.4171,1.299-17.87789.10525-35.75658.05975-53.63487.05975C792.72837,2774.22255,710.49986,2776.86212,669.43407,2779.13924Zm8.334-33.17c1.84518,7.67232-.92,20.81893,11.80154,20.73948,12.09964-.07519,8.72249-12.40245,8.88881-20.318.25247-12.02,5.09623-21.62718,13.33585-29.91009,4.54145-4.56552,9.44117-10.08082,4.04919-15.99084-5.60309-6.14156-12.38116-2.1818-17.6279,1.98387C684.59352,2713.28784,678.72472,2728.01306,677.768,2745.96925Zm78.07619-10.66378c3.01133,11.48911-.79906,26.99352,13.33628,26.65661,16.15445-.385,5.66012-14.59392,6.73621-22.84637.73533-5.63947,1.82381-11.25245,3.103-16.79708,2.01363-8.72691,19.3887-17.35927,6.97814-24.59927-11.09034-6.46964-17.979,9.63369-23.70118,18.61064C758.55623,2722.19787,757.60153,2729.84172,755.84422,2735.30547Z" style="fill: #3a414b"/>
    <path d="M1942.16232,1136.87731c-.14667,2.54534-1.13647,5.042-1.73453,7.5614-1.718-1.805-3.871-3.35686-5.09124-5.45194a665.86317,665.86317,0,0,0-129.45261-159.78162c-5.36977-4.85529-5.33189-7.46713-.22043-12.56321,28.11005-28.02448,62.20275-45.16858,100.18629-54.488,19.465-4.77612,34.51975-1.01757,35.52777,24.449C1942.744,971.13027,1944.01974,1104.66838,1942.16232,1136.87731Z" style="fill: #f69391"/>
    <path d="M774.82517,935.63027c.96224-23.32753,14.82888-28.07246,32.92547-23.96418,39.33631,8.9301,74.39616,26.65262,103.314,55.60495,5.28619,5.29259,3.38334,7.66577-.979,11.64974-51.1587,46.72084-94.57281,99.73476-129.2969,159.77878-1.24853,2.15887-3.32289,3.84015-5.01243,5.744-.63971-2.49365-1.70911-4.96266-1.854-7.48464C772.05157,1104.37817,773.40184,970.13734,774.82517,935.63027Z" style="fill: #f69391"/>
    <path d="M2385.61347,1979.65965q1.18631.8736,2.37119,1.74692Q2386.79792,1980.53253,2385.61347,1979.65965Z" style="fill: #3a414b"/>
    <path d="M2574.45394,2139.67224q1.22817-.91034,2.45492-1.81954Q2575.67984,2138.76347,2574.45394,2139.67224Z" style="fill: #3a414b"/>
    <path d="M1938.27746,2878.19147c-.59522,4.27076-1.155,10.819-2.50262,17.20092-1.21022,5.73174-4.52493,10.39494-11.18168,9.30162-7.31376-1.201-8.9761-7.02014-7.73868-13.27505,5.44439-27.519-.72138-51.2331-22.02645-70.329-3.88756-3.48416-5.43968-7.80162-1.79106-12.26916,4.65964-5.70555,9.79574-3.106,14.3389.22128C1929.986,2825.60361,1937.45555,2849.16908,1938.27746,2878.19147Z" style="fill: #010102"/>
    <path d="M880.92376,2871.89726c-2.33445-23.5068,11.68078-38.78622,30.37516-51.02776,5.05507-3.31043,11.48769-6.73108,16.49392.19907,4.7475,6.57245-1.686,9.97487-5.392,13.20983-19.07414,16.65013-32.71529,34.45339-17.08785,60.95252.938,1.59056-1.72884,7.35477-3.90466,8.23108a12.66263,12.66263,0,0,1-10.41744-1.20467C880.89414,2895.1207,880.4315,2884.08412,880.92376,2871.89726Z" style="fill: #010102"/>
    <path d="M990.47134,2870.95175c-.03574-23.6549,4.10814-40.88316,26.03933-46.46994,3.57358-.91077,9.39944,1.19784,12.07237,3.95691,3.89055,4.01644.0645,8.09268-3.74,10.26878-16.64144,9.51835-14.0877,25.33973-12.821,40.1914.62968,7.38069,9.53516,17.30544-2.5805,20.22314-11.94934,2.87726-15.43578-9.08945-18.05331-18.49616A35.46648,35.46648,0,0,1,990.47134,2870.95175Z" style="fill: #010102"/>
    <path d="M1821.41213,2880.34593c-.76553-19.66694-7.407-34.55079-18.6444-47.59544-2.99716-3.47875-7.277-7.26279-2.311-11.83742,3.94225-3.63111,8.51275-2.33017,12.73081.63737,17.93768,12.61974,31.29718,62.85664,21.04406,81.42286-1.36245,2.46687-6.72638,4.596-9.46338,3.88856-2.57609-.66585-5.79881-5.288-5.79938-8.17014C1818.96789,2891.84928,1820.70655,2885.00714,1821.41213,2880.34593Z" style="fill: #010202"/>
    <path d="M2049.77188,2699.48279c.615,5.537-.61444,12.47137-8.21357,15.554-2.5113,1.019-7.0583-.05867-9.30646-1.87309-6.12746-4.94514-.87175-10.07625.31171-15.51921,2.871-13.20585-2.71536-23.91577-11.9697-33.30938-2.95459-2.99859-10.90615-5.74826-5.336-11.527,4.4516-4.6182,10.781-2.50077,15.661,1.62844C2044.26556,2665.73028,2049.44081,2680.58536,2049.77188,2699.48279Z" style="fill: #020202"/>
    <path d="M2122.03452,2687.64794c-.64449,8.68561-2.47457,20.42762-12.18714,20.42592-13.44023-.00228-2.79354-10.94659-3.77294-16.84522-1.61762-9.74191-4.52707-18.69608-11.216-26.14655-3.11962-3.47447-7.28471-7.07853-2.118-11.63464,4.74892-4.18731,10.06116-3.46422,14.55975.77691C2116.73937,2663.12385,2121.34988,2674.26581,2122.03452,2687.64794Z" style="fill: #020202"/>
    <path d="M677.768,2745.96925c.95669-17.95619,6.82549-32.68141,20.44749-43.49556,5.24674-4.16567,12.02481-8.12543,17.6279-1.98387,5.392,5.91.49226,11.42532-4.04919,15.99084-8.23962,8.28291-13.08338,17.89012-13.33585,29.91009-.16632,7.91553,3.21083,20.24279-8.88881,20.318C676.848,2766.78818,679.61321,2753.64157,677.768,2745.96925Z" style="fill: #010101"/>
    <path d="M755.84422,2735.30547c1.75731-5.46375,2.712-13.1076,6.45248-18.97547,5.7222-8.97695,12.61084-25.08028,23.70118-18.61064,12.41056,7.24-4.96451,15.87236-6.97814,24.59927-1.27922,5.54463-2.3677,11.15761-3.103,16.79708-1.07609,8.25245,9.41824,22.46133-6.73621,22.84637C755.04516,2762.299,758.85555,2746.79458,755.84422,2735.30547Z" style="fill: #010101"/>
    <g>
      <path d="M980.70569,1031.42053c108.54553-102.22778,227.67468-143.626,289.73743-164.49444,9.10009-3.06,16.6206-5.41925,21.52319-6.92609h-23.179a582.14864,582.14864,0,0,0-183.77624,50.21411,598.64425,598.64425,0,0,0-187.08753,135.0586,612.91752,612.91752,0,0,0-94.77386,134.63134l6.46948,83.85352a72.82833,72.82833,0,0,0,3.86664-7.23938c.33789-.74182,12.30939-24.75452,41.391-69.26087C878.54779,1151.03174,918.30261,1090.19165,980.70569,1031.42053Z" style="fill: #f4f4f4;opacity: 0.2"/>
      <path d="M1388,2802a1421.26343,1421.26343,0,0,1-241-17l-8,67c45.06946,7.02441,82.84155,10.81567,110,13,178.14819,14.32861,314.595-7.10083,373-18,22.60217-4.218,41.03479-8.26172,53-11l-12-65A1421.715,1421.715,0,0,1,1388,2802Z" style="opacity: 0.21"/>
      <path d="M1156,1719a469.6437,469.6437,0,0,0,452,6l1-22a469.6437,469.6437,0,0,1-452-6Z" style="opacity: 0.2"/>
      <path d="M882.9483,1945,880,1969.20886c32.28052,32.50513,206.39355,201.33631,476.63794,196.69739,237.157-4.0708,393.87476-139.066,433.39648-175.51465L1792,1966.18286c-39.52173,36.44849-195.25684,171.4436-432.41382,175.51441C1089.3418,2146.33618,915.22882,1977.50513,882.9483,1945Z" style="opacity: 0.2"/>
      <path d="M1643.87893,868.37223a306.44585,306.44585,0,0,1,2.437-40.13335c1.54161-11.95446,6.44078-49.94443,23.26721-74.4796,1.86126-2.714,17.323-24.75108,37.05187-18.47,3.56189,1.134,13.65132,4.34621,14.08122,12.29678.61931,11.45307-19.58674,18.29891-38.27026,45.16633-16.77856,24.128-26.81954,56.47974-32.76315,80.70964Z" style="opacity: 0.2"/>
      <path d="M1764.96081,817.47525a306.445,306.445,0,0,1,10.60079-38.78464c3.95606-11.38576,16.52807-47.5684,38.02057-68.13964,2.37741-2.27551,22.02272-20.68093,40.04811-10.49431,3.25434,1.83912,12.47258,7.04861,11.26588,14.91883-1.73826,11.33732-22.91778,13.902-46.70547,36.37594-21.3623,20.18252-37.81309,49.79376-48.59073,72.29392Z" style="opacity: 0.2"/>
      <path d="M1072.79235,867.29358a306.44782,306.44782,0,0,0-2.43706-40.13335c-1.54161-11.95446-6.44077-49.94443-23.26721-74.4796-1.86126-2.714-17.323-24.75108-37.05186-18.47-3.5619,1.134-13.65133,4.3462-14.08123,12.29678-.61931,11.45307,19.58674,18.29891,38.27027,45.16633,16.77855,24.128,26.81954,56.47974,32.76315,80.70964Z" style="opacity: 0.2"/>
      <path d="M945.78824,816.42461a306.44655,306.44655,0,0,0-11.39149-38.55981c-4.188-11.3025-17.4971-47.22056-39.40567-67.34811-2.42343-2.22643-22.44092-20.22638-40.25428-9.67338-3.21606,1.90527-12.32587,7.30213-10.95853,15.146,1.96968,11.29942,23.19721,13.43056,47.43938,35.4135,21.77044,19.74157,38.82317,49.01031,50.05855,71.28543Z" style="opacity: 0.2"/>
      <path d="M1800.83764,988.54406a229.21646,229.21646,0,0,1,24.35085-23.07014c14.05266-11.47245,25.73645-18.1699,35.9014-23.93459a350.78225,350.78225,0,0,1,49.55878-22.365,129.1464,129.1464,0,0,1,22.56885-6.019c2.38691-.39878,4.35488-.65366,5.63582-.806a21.24035,21.24035,0,0,0-12.67049-4.91243,46.541,46.541,0,0,0-13.579,1.08152,180.2298,180.2298,0,0,0-18.30826,4.86958,221.13509,221.13509,0,0,0-102.33272,65.88227Z" style="opacity: 0.2"/>
      <path d="M918.829,991.56609A229.21568,229.21568,0,0,0,894.47811,968.496c-14.05266-11.47245-25.73645-18.16991-35.9014-23.9346a350.78422,350.78422,0,0,0-49.55878-22.365,129.14633,129.14633,0,0,0-22.56884-6.019c-2.38692-.39878-4.35488-.65366-5.63583-.806a21.24043,21.24043,0,0,1,12.67049-4.91242,46.54076,46.54076,0,0,1,13.579,1.08152A180.22763,180.22763,0,0,1,825.371,916.41,221.13492,221.13492,0,0,1,927.70374,982.2923Z" style="opacity: 0.2"/>
      <path d="M2413.89893,1793.67419a61.08915,61.08915,0,0,0-17.25855-27.50561c-9.93555-8.90149-20.15332-11.66992-33.43823-15.1012a147.11985,147.11985,0,0,0-52.85376-3.77527c-14.13379,1.59974-32.1145,3.635-50.15747,16.17981-7.15283,4.97315-16.7085,12.02893-15.64038,14.02246,1.60913,3.0033,23.7832-11.94091,57.708-14.83142,15.26954-1.301,27.8357.27308,42.87623,2.15723,16.42895,2.058,24.82495,3.18176,33.708,7.82031,12.79346,6.68042,20.604,10.75891,24.20215,16.17969.624.94006,2.87622,4.56433,6.67407,5.25842A8.16231,8.16231,0,0,0,2413.89893,1793.67419Z" style="fill: #f4f4f4;opacity: 0.2"/>
      <path d="M2604.26266,1856.9888a61.0891,61.0891,0,0,0,5.06949-32.07361c-1.63817-13.23888-7.51982-22.04077-15.27754-33.358a147.11957,147.11957,0,0,0-37.35463-37.582c-11.704-8.08329-26.59366-18.36659-48.43732-20.76979-8.65953-.95274-20.49882-1.915-21.004.28954-.761,3.32113,25.77318,6.63094,53.242,26.74843,12.36369,9.05486,20.80026,18.5,30.898,29.805,11.02993,12.34853,16.61941,18.71354,20.266,28.04773,5.25191,13.44315,8.45824,21.65035,7.60751,28.10075-.1475,1.11865-.832,5.33044,1.5743,8.3496A8.16244,8.16244,0,0,0,2604.26266,1856.9888Z" style="fill: #f4f4f4;opacity: 0.2"/>
      <path d="M2683.15723,1890.75281c-39.42041,15.44018-25.77246,66.41809-60.67408,121.34826-54.74414,86.15967-162.51879,77.51563-173.52807,148.04493-2.71778,17.41113,4.16382,15.928,3.64038,38.83154-1.80225,78.84521-84.85864,162.18994-172.31445,184.44946-44.13184,11.23267-68.49927,1.59473-101.93262,26.69654-29.21118,21.93164-30.00366,43.85009-58.24732,53.39331-37.60229,12.70556-71.33715-14.27124-82.03-.87476-7.26733,9.10474,1.87647,29.63184,10.43458,42.1333,50.91259,74.37134,198.74072,36.551,223.281,27.90991,7.17163-2.52514,20.85645-7.55273,25.48316-19.41552,4.35424-11.16431-2.93482-19.09937,1.21337-25.48316,6.49512-9.9956,30.61011-.15185,59.4607,2.42676,5.81494.51977,60.51318,4.708,106.78637-25.48316,18.99268-12.39184,37.43262-21.41113,41.25855-41.2583,3.62158-18.78637-6.238-41.03271-21.84277-50.9663-12.98951-8.2688-25.91748-5.43311-26.69654-9.70777-1.08227-5.939,23.6438-12.66772,47.32593-24.26977,51.34058-25.1521,80.10254-64.54932,88.58423-76.44947,20.54272-28.82226,36.07275-44.66259,31.55054-63.10107-5.322-21.69971-30.78321-23.66846-32.76416-42.47192-1.89869-18.02247,20.13086-29.12769,45.92407-55.01612,22.14331-22.2251,34.26929-43.97925,58.52075-87.48767,29.5769-53.06225,53.45679-95.90369,37.53272-115.96814C2724.19043,1885.51794,2700.44873,1883.9801,2683.15723,1890.75281Z" style="opacity: 0.2"/>
      <path d="M414.15732,1168.30334c-4.33533,3.06543,1.09247,24.27527,14.5618,41.25843,13.11574,32.90194,161.22759,56.98033,177.1708,69.16605,39.87986,24.44418,64.31229,59.4631,64.31235,59.46322,10.33749,19.31761,37.02138,45.24951,63.10107,48.53931-37.3568-65.90746-60.312-96.38482-116.49054-132.27339-14.98053-11.9009-113.88961-32.17751-133.48738-38.82518C439.02509,1197.08215,420.05551,1164.13293,414.15732,1168.30334Z" style="fill: #f4f4f4;opacity: 0.2"/>
      <path d="M2309.37356,1166.30334c4.33533,3.06543-1.09247,24.27527-14.5618,41.25843-13.11574,32.90194-161.22759,56.98033-177.1708,69.16605-39.87986,24.44418-64.31229,59.4631-64.31235,59.46322-10.33749,19.31761-37.02138,45.24951-63.10108,48.53931,37.35681-65.90746,60.31206-96.38482,116.49055-132.27339,14.98052-11.9009,113.88961-32.17751,133.48737-38.82518C2284.50579,1195.08215,2303.47537,1162.13293,2309.37356,1166.30334Z" style="fill: #f4f4f4;opacity: 0.2"/>
      <g>
        <path d="M872.236,2528.23584c1.72565-.4248,11.19287,29.05322,18.342,59.59155,4.67041,19.9502,7.48187,36.63794,9.16364,48.00415,0,0,5.10742,36.38916-7.28089,123.77515-.67285,4.74609-2.01452,13.47412-7.28094,15.37085-6.66156,2.39917-18.721-6.44946-21.03369-17.79785-1.65943-8.14282,2.627-15.32666,4.045-17.79761,7.4101-12.91235,10.603-31.79932,16.98871-69.573,3.37366-19.9563,1.17047-38.92212-3.2359-76.854C877.264,2552.66919,870.68567,2528.61743,872.236,2528.23584Z" style="opacity: 0.2"/>
        <path d="M1929.81152,2500.73022c-1.72565-.4248-11.19287,29.05322-18.342,59.59155-4.67041,19.9502-7.48187,36.63794-9.16364,48.00415,0,0-5.10742,36.38917,7.28089,123.77515.67285,4.7461,2.01452,13.47412,7.28094,15.37085,6.66156,2.39917,18.721-6.44946,21.03369-17.79785,1.65943-8.14282-2.627-15.32666-4.045-17.79761-7.41009-12.91235-10.603-31.79931-16.98871-69.573-3.37365-19.95629-1.17047-38.92212,3.2359-76.854C1924.7835,2525.16357,1931.36181,2501.11181,1929.81152,2500.73022Z" style="opacity: 0.2"/>
        <path d="M861.77193,2729.52384a816.62,816.62,0,0,1-43.887-96.88284c-94.57133-253.68261-34.94345-500.40762,15.0695-641.44892a245.88193,245.88193,0,0,1-20.67587-27.549c-50.77018,138.63512-116.9866,392.58607-19.56337,653.919a816.62,816.62,0,0,0,43.887,96.88284,385.71747,385.71747,0,0,0,25.32685,35.52131c1.98963-3.63907,3.90228-7.50245,5.66492-11.50087C865.6747,2735.60247,863.73145,2732.63067,861.77193,2729.52384Z" style="fill: #f4f4f4;opacity: 0.2"/>
        <path d="M1942.56714,2700.01133a900.06377,900.06377,0,0,0,40.92632-109.85178c84.79306-286.10163.55756-552.88459-65.10846-704.18693a271.00867,271.00867,0,0,0,20.65024-31.85694c66.31659,148.59925,158.34354,422.82919,70.99346,717.55883a900.06516,900.06516,0,0,1-40.92632,109.85177,425.13,425.13,0,0,1-25.16112,40.97516c-2.46313-3.85091-4.85858-7.95429-7.09932-12.21751C1938.73569,2706.99061,1940.64758,2703.57583,1942.56714,2700.01133Z" style="opacity: 0.2"/>
      </g>
    </g>
  </g>
</svg>
