<svg id="Dog_1" data-name="Dog 1" xmlns="http://www.w3.org/2000/svg" viewBox="0 0 3000 3000">
  <title>1</title>
  <g id="Body">
    <path d="M1324.173,2123.5587c-139.09722-3.8598-318.34953-62.66925-424.80575-195.03678,7.28865-31.01506,14.23536-62.09913,21.24254-93.16838,1.48453-6.58228,1.49827-13.37787-6.47942-15.1945-8.31485-1.89337-11.25359,4.26978-12.55977,11.23624-11.92229,60.63441-21.73723,121.84908-34.76036,182.187-57.58909-58.44779-79.01514-136.691-93.8196-214.71831-4.14475-22.94981-2.48839-47.14459-14.04539-68.61062-8.31025-14.3478-64.9499,61.9763-70.25059,71.12526-21.48506-69.63646-13.89722-143.55293,15.05169-210.06733,9.92971-21.95991,6.51722-42.35635,4.79349-63.76375C684.80869,1232.824,863.157,960.02978,1143.21331,862.83074c455.99015-171.98787,952.58569,259.63655,852.7843,734.23205-4.19132,26.053,13.52741,55.11321,18.15524,83.2734,6.8258,46.36542,9.30586,94.55145-.77713,140.62508-19.47741-28.372-38.42983-57.05834-75.002-65.32093-5.77968-1.3437-7.302.94939-7.85493,6.97224-1.476,96.48985-39.58565,186.943-109.82389,252.72146-5.69446-16.95781-17.33744-139.29128-38.05553-133.49074-7.06237,2.22356-5.59945,8.36854-4.27957,13.84206,15.89717,65.92346,15.90032,65.92261-39.554,105.64933C1626.68786,2081.65414,1494.72186,2123.7179,1324.173,2123.5587Z" style="fill: #ffba97"/>
    <path d="M2031.92139,2321.752c-4.41858,138.437-13.84241,298.905-105.54322,418.14405-24.40136-111.82325-14.72326-231.3711,56.602-326.1958,3.12293-4.04,3.79273-9.0149-.6958-12.63086-5.474-4.40992-10.35986-1.72754-14.33484,2.71948-81.058,95.70776-86.45825,232.08935-61.64025,349.65063,1.59411,7.26392,5.62036,10.58155,13.43042,12.21314,66.97692,8.59131,152.96826,103.78247,56.23913,144.27392-87.20923,35.49537-171.12317,25.77051-249.42322-26.3352-40.946-27.248-39.71435-73.813-48.56665-115.06592-22.87536-106.60181-50.5487-212.63989-65.01794-320.4187-9.90381-73.76929-35.15515-132.15308-96.12329-173.301-124.78638-84.21923-280.34424-9.32006-301.84851,138.96119-19.78028,136.39306-53.53162,270.75927-73.33423,407.1499-7.923,54.56982-35.65711,75.63672-80.93457,89.91089-68.9643,21.74145-138.37964,34.95752-209.34479,12.10278-51.57208-16.60913-58.07867-50.94971-17.926-87.39307,16.45825-14.93774,35.5805-25.60913,56.4837-33.77758,22.38318-8.74707,20.25427-31.47437,22.17505-49.3733,12.0871-112.63745-17.73541-216.37963-69.96936-314.93432-1.94861-3.67676-5.137-7.68677-9.73609-4.96826-5.88836,3.48-2.473,8.658-.47155,12.94238,45.94751,102.52148,78.19641,216.73511,50.75763,328.79956-209.47211-192.26465-174.11322-574.802-79.45172-817.88818,17.15069,28.04052,32.87146,56.84131,60.59588,76.46215,5.93006,4.35767,9.72809,5.87488,11.85761-3.47912,4.98364-21.89075,10.68316-43.61755,15.83685-65.47107,262.40881,225.8103,621.78027,253.95581,903.48975,21.61914,4.459,20.464,6.96655,41.42493,10.23474,62.13147,1.47668,10.54578,5.31823,8.69861,11.71875,3.65295,64.56823-50.04406,99.23974-119.21972,127.28723-193.4375C2008.50708,2003.52393,2029.351,2157.71167,2031.92139,2321.752Zm-88.92,561.6894c-2.67915-27.01057-8.53709-51.86806-33.27187-67.44324-4.61007-2.903-9.66827-4.45232-13.57767.79171-3.61132,4.84388-.70569,8.80786,3.024,12.1777,43.072,36.95834,8.89727,78.24455,27.938,83.67961C1943.397,2916.066,1940.6448,2893.39972,1943.00134,2883.44135Zm-1063.83359-1.63424c-2.20728,34.30986,26.09957,37.19638,24.80054,21.69366-27.80225-45.124,31.15118-58.32331,22.77721-74.47289-3.785-5.18212-9.45575-4.33286-14.2828-1.484C891.8761,2839.69324,877.69339,2855.94717,879.16775,2881.80711Zm109.86727-2.59689c1.2825,9.85,4.67895,32.71451,20.11951,28.03128,11.54076-3.75991,2.90342-12.486,1.99164-19.57432-8.12845-44.46792,20.80553-35.053,17.96126-50.64851-2.27075-5.55676-7.421-5.88046-12.45659-4.80257C991.79086,2837.5373,990.57073,2857.38656,989.035,2879.21022Zm851.715,8.8657c-1.80624-20.89322-5.82216-42.39218-23.6527-58.32585-3.71082-3.31573-8.61153-5.87725-13.03892-1.27876-10.83039,10.49176,32.59229,30.72707,18.41519,74.76447-1.61268,5.9866,3.77887,15.73846,10.99127,12.33135C1841.60624,2908.46912,1839.88751,2898.87164,1840.75,2888.07592Z" style="fill: #ffba97"/>
    <path d="M1384.08648,2861.44074c-21.55689-.72582-243.86358-4.207-227.44339-27.71949q38.11721-217.03408,75.69351-434.15456c13.64976-79.16754,63.55226-129.347,140.14924-139.80194,195.81131-15.04193,224.84359,148.86424,244.63567,302.57755,18.962,85.6344,35.08541,171.89639,52.78115,257.81679,1.50444,7.30433-.0035,10.21518-7.11884,11.5827C1571.40841,2852.9906,1477.60449,2858.797,1384.08648,2861.44074Z" style="fill: #ffe3ca"/>
    <path d="M787.66515,1086.846c-1.77015,23.52619-4.791,43.98551-15.86666,64.09891q-105.03684,190.74644-78.34091,407.4417c1.19708,9.61575-3.3812,14.82184-9.44017,18.49262-46.21148-14.27455-70.34544-83.68053-81.1938-125.7753-52.21639-212.74918-60.64649-445.79806,8.11494-649.04265C700.97875,874.41145,775.93182,967.50766,787.66515,1086.846Z" style="fill: #ffba97"/>
    <path d="M2142.22419,1155.65777c-6.45743,100.0576-8.00754,351.213-118.74768,421.8169,21.27628-167.2827-9.03862-322.7825-99.79677-465.85682-11.91124-18.97591-6.26576-39.97887-1.58309-59.27936,25.482-105.02553,89.04189-184.339,172.0244-250.0028,5.72409-4.52943,4.71187,2.6679,5.30631,4.66939C2131.02328,913.3804,2142.06727,1022.463,2142.22419,1155.65777Z" style="fill: #ffba97"/>
    <path d="M2657.21361,2045.54293c2.371-2.99288-4.72261-10.96007,2.90206-11.772,11.46076-1.22063,14.65932,5.098,13.04365,16.96-51.43729,274.14522-303.34924,469.71794-557.18237,551.82983-34.00831,10.32044-60.49449-13.58271-91.05972-18.696-.34776-.05827-.61005-3.14851-.23294-4.653,12.18964-48.63437,19.64322-98.05128,24.774-147.86864.15161-1.47088,2.7722-4.12833,3.27415-3.91845C2263.21432,2506.556,2636.509,2269.502,2657.21361,2045.54293Z" style="fill: #ffba97"/>
    <path d="M2718.47865,1549.64648c-.97642,54.86116,25.30316,93.72982,29.8627,137.421,2.99245,22.44283-1.15625,45.73607,1.11787,68.194,19.6056-17.22912,23.23694-41.92256,22.18417-66.26454-.4919-11.59954,9.09892-14.66594,16.20831-18.35927,9.12266-4.73908,19.61487-6.8442,29.55145-9.97445.07-.02205,1.09568,1.65586.88594,2.27054-14.47119,46.71327,3.85632,99.05244-23.15052,142.98019-4.88335,26.57019-8.18734-1.24932-16.00054.35757-35.66869,29.45811,44.84832,127.75948-55.993,199.16357-4.29882,2.97857-5.31,10.95993-13.01644,8.8687,48.96895-99.63331-57.41329-193.65848-21.14739-223.54047,1.38376-1.195.661-7.935-.71769-8.57323-3.4325-1.58907-8.45763-2.64843-11.69126-1.2522-13.99617,6.04339-33.058,30.81864-23.76652-13.42783,6.4322-30.6306-15.37546-57.50867-37.31613-79.4256-10.68149-10.66995-4.77257-24.05247-8.91105-35.61857-4.20462-11.75129-7.73032-23.76571-11.07334-35.79824-2.27225-8.17822-6.98284-17.261,5.43745-22.30062,1.55669-.63172,1.91447-4.21818,2.82775-6.43568-4.15679-.89142-9.16775-3.73062-12.32622-2.34556-15.7729,6.91693-20.18669.44933-21.11544-14.58955-1.63973-15.51181-8.232-30.70091-14.647-44.93059,96.49689-.06974,58.01131,109.21524,88.7189,111.28141,9.12681-1.22873,6.76894-16.01184,5.88344-25.354-2.38808-25.19114,40.82723-74.81243,66.34027-74.43247C2717.79659,1537.578,2718.75984,1551.63956,2718.47865,1549.64648Z" style="fill: #ff7c65"/>
    <path d="M2590.74161,1686.8617c-4.29459,30.32909-6.617,54.08682-10.77383,78.841,26.00218-12.62305,26.89274-38.63459,30.96754-62.76229,64.49965,75.86123-14.90431,116.5963,3.96511,133.06586,12.5686,9.24982,15.70774-22.26229,49.34082-30.9284-.301,34.27,15.58067,66.42749,25.50539,98.70765,11.72957,31.34512,10.32979,61.34449,3.1962,94.0074-5.55557,25.43846-18.29284,16.45751-30.10336,12.97085-40.65872-12.00319-70.15992-37.31724-86.61517-77.02213-3.23077-7.79532-2.89289-11.60189,7.18714-10.62,6.71668.65419,14.382-.57618,14.86434-9.43887.5094-9.36278-7.50125-8.18423-13.52813-8.78088-186.99692-27.30178-54.84089-147.51338-110.68034-245.10144,58.34937,15.05588,51.83851,63.57725,66.84556,56.37463,6.92353-3.04849,1.73161-8.9586,1.03394-13.84586-1.67165-11.70913-17.8503-17.92468-13.82077-30.51993,8.7757-25.48492,25.03307-49.83293,49.54571-62.46865C2581.80225,1636.25184,2587.15455,1665.045,2590.74161,1686.8617Z" style="fill: #ffeb65"/>
    <path d="M633.15633,785.48219C748.16713,808.32944,858.53165,850.00587,947.976,936.071c3.88659,3.7433,2.70135,5.63642-.94866,8.47619-53.15143,41.00806-98.01375,89.84089-137.42228,144.00963C793.54592,963.11167,727.951,863.0596,624.4956,788.65691,621.9591,785.48911,632.19341,786.155,633.15633,785.48219Z" style="fill: #ffe3ca"/>
    <path d="M2079.24411,786.27177c.28763.05463,2.09644.39818,3.90511.74173-98.34966,71.6372-166.70413,162.81122-184.72789,286.1978-40.91961-49.43981-83.678-97.06226-135.99859-135.2261C1795.42365,871.10579,2002.34369,788.58076,2079.24411,786.27177Z" style="fill: #ffe3ca"/>
    <path d="M2709.562,2053.66732c4.73333,175.93429-382.26778,661.43014-567.9851,565.52012,251.46286-97.44605,511.68478-291.80959,548.67672-576.188.09138-10.216,9.64211-5.13994,13.54121-4.70729C2714.18212,2039.44478,2705.581,2048.85952,2709.562,2053.66732Z" style="fill: #ffe3ca"/>
    <path d="M2051.14011,2734.573c-29.663-.82871-59.78916,1.69031-89.22358-1.05012a494.68855,494.68855,0,0,0,57.04889-133.59666c1.52141-5.472,3.2081-5.922,8.28448-4.02243q69.15628,25.87877,138.54709,51.12746c9.61831,3.49426,20.62265,2.06947,28.99423,10.36952,11.941,11.83855,21.76185,24.91133,14.86893,41.91544-24.02363,53.84664-110.70236,30.11641-158.52075,34.81856Q2051.13961,2734.3538,2051.14011,2734.573Zm3.13414-30.29766c-.00444-18.96535-6.45325-34.82442-22.77692-45.5049-4.04871-2.649-9.3387-3.6274-12.55988,1.30954-6.22811,7.33943,23.75779,15.2962,18.86609,43.80992-.981,5.98037-7.267,11.62942-.141,17.05427C2049.44225,2727.67431,2056.285,2714.60771,2054.27425,2704.27532Zm72.88344-7.04677c1.01809-15.23642-13.95276-49.26754-29.76023-37.24225-9.66158,9.69332,24.62064,25.72056,11.19408,48.1182C2109.84283,2728.42613,2129.86164,2706.01753,2127.15769,2697.22855Z" style="fill: #ffba97"/>
    <path d="M757.22747,2785.479c-54.468-3.04591-157.24705,23.24784-147.39768-64.28167,3.074-12.32806,9.54338-19.37112,23.30076-24.46869,43.31625-16.04934,88.05051-28.91711,128.83569-51.42425.59877-.33028,3.05321,1.27347,3.58231,2.45043a465.49429,465.49429,0,0,0,86.92869,133.74373,27.49208,27.49208,0,0,1-4.40517.70882m-172.80826-28.91912c2.79129,6.77806-1.98193,19.41075,11.43859,21.55852,18.27911,1.261-2.53124-29.69335,24.75-53.28933,3.63215-3.58439,7.34167-8.08252,3.23738-13.311-4.01614-5.11589-9.6562-3.79833-14.37206-1.0192C683.47631,2717.15254,676.6809,2732.88148,675.26381,2753.28822Zm78.99-6.16014c.56565,2.94421,1.22174,8.78953,2.88,14.33521,1.80681,13.49573,23.30971,11.4844,18.77118-2.62564-12.245-30.58433,20.62039-43.80143,11.196-53.49906C773.39783,2694.04434,751.85806,2732.0345,754.25377,2747.12808Z" style="fill: #ffba97"/>
    <path d="M1930.21973,2913.49219a15.69354,15.69354,0,0,1-3.20508-.35645c-7.86914-2.11914-7.127-10.06054-6.10059-21.05078,1.60352-17.16211,3.79883-40.667-22.06543-62.73633-3.5332-3.19531-7.0664-7.53418-3.09765-12.85742a8.07446,8.07446,0,0,1,6.60742-3.65918c2.209,0,4.707.89746,7.63769,2.74317,23.70313,14.92578,30.53614,37.90527,33.502,67.8164l.00879.083-.01954.081a66.02407,66.02407,0,0,0-1.07617,8.17676C1941.50684,2901.42676,1940.38184,2913.49219,1930.21973,2913.49219Z" style="fill: #010000"/>
    <path d="M1943.00134,2883.44135c-2.33981,9.97276.38348,32.61376-15.88446,29.20548-18.9248-5.09962,14.98061-47.05319-27.94363-83.67836-3.72714-3.37079-6.63277-7.33477-3.02145-12.17865,3.9094-5.244,8.9676-3.69469,13.57767-.79171C1934.46425,2831.57329,1940.32219,2856.43078,1943.00134,2883.44135Z" style="fill: #010000"/>
    <path d="M896.208,2912.99707c-3.604,0-7.40283-1.84668-10.42237-5.06641-5.30908-5.66113-7.83642-14.95019-7.11669-26.15625-1.31495-22.99316,9.34277-40.38086,33.54-54.66113a15.1125,15.1125,0,0,1,7.48682-2.34375,8.88613,8.88613,0,0,1,7.45117,3.96289c3.33887,6.25391-2.72119,11.84473-10.394,18.92383-12.55859,11.58594-29.7583,27.4541-12.3584,55.582l.063.10156.00977.11914a8.94278,8.94278,0,0,1-2.06446,7.00977A8.2582,8.2582,0,0,1,896.208,2912.99707Z" style="fill: #010000"/>
    <path d="M879.16775,2881.80711c-1.47436-25.85994,12.70835-42.11387,33.295-54.26323,4.827-2.84886,10.49784-3.69812,14.28039,1.48334,8.498,15.94428-50.61018,29.47445-22.77376,74.47387C905.27178,2918.998,876.96344,2916.12743,879.16775,2881.80711Z" style="fill: #010000"/>
    <path d="M1005.22266,2908.36816c-12.89063,0-15.646-21.13671-16.68311-29.09375l.02979-.56445c1.50488-21.4043,2.92627-41.62109,27.977-46.9834a20.40238,20.40238,0,0,1,4.27343-.50195c4.28663,0,7.23,1.88574,8.74854,5.60352l.019.04687.00928.0498c1.14258,6.07032-2.46582,8.61133-6.64453,11.55469-6.91455,4.87012-16.38477,11.54-11.3125,39.09766a26.06346,26.06346,0,0,0,1.94092,6.0957c1.39013,3.41406,2.82763,6.94336,1.48681,9.832-.85937,1.85157-2.74218,3.2295-5.75732,4.21192A14.11972,14.11972,0,0,1,1005.22266,2908.36816Z" style="fill: #010000"/>
    <path d="M989.035,2879.21022c1.53571-21.82366,2.75584-41.67292,27.61582-46.99412,5.03561-1.07789,10.18584-.75419,12.45451,4.80194,2.914,15.47994-26.12223,6.2897-17.95727,50.64965.90987,7.08779,9.54721,15.8139-1.993,19.5733C993.71331,2911.93321,990.31843,2889.05383,989.035,2879.21022Z" style="fill: #010000"/>
    <path d="M1830.5166,2916.75977a7.84557,7.84557,0,0,1-6.15332-3.39942,12.5232,12.5232,0,0,1-2.37012-10.2539c8.55762-27.03711-4.40136-45.00391-12.97656-56.89258-5.69043-7.88965-9.80176-13.58985-5.31543-18.09473a7.73018,7.73018,0,0,1,5.63672-2.64062c2.47461,0,5.19727,1.31152,8.09277,3.89843,17.8545,15.95508,21.999,37.62012,23.81739,58.65625-.17383,2.26563-.24219,4.41016-.30762,6.48535-.25586,8.041-.49805,15.63672-7.14746,21.42579l-.05274.04687-.06445.0293A7.46237,7.46237,0,0,1,1830.5166,2916.75977Z" style="fill: #020100"/>
    <path d="M1840.75,2888.07592c-.85907,10.78974.85533,20.40395-7.28555,27.49171-7.21884,3.36359-12.59922-6.30728-10.98813-12.33266,14.09889-44.54224-29.209-63.93226-18.42024-74.76317,4.42969-4.599,9.3304-2.03746,13.04122,1.27827C1834.92784,2845.68374,1838.94376,2867.1827,1840.75,2888.07592Z" style="fill: #020100"/>
    <path d="M2043.83691,2723.29688a13.005,13.005,0,0,1-6.4248-1.91993c-5.4209-4.12109-3.583-8.41015-1.80566-12.55761a22.49039,22.49039,0,0,0,1.70507-5.01075c2.915-17.28808-7.10351-26.94433-13.73242-33.334-4.47461-4.3125-7.708-7.42871-5.03027-10.71094a7.55335,7.55335,0,0,1,6.50488-3.68457,12.75082,12.75082,0,0,1,6.7168,2.27344c15.48437,10.13086,23.001,25.15234,22.97851,45.92285,1.06348,5.31836-.29394,11.48731-3.38574,15.252A9.579,9.579,0,0,1,2043.83691,2723.29688Z" style="fill: #020100"/>
    <path d="M2054.24862,2704.27432c2.04256,10.31195-4.80571,23.42138-16.58716,16.66949-7.125-5.42451-.83892-11.07356.14308-17.05446,4.838-28.68891-25.01288-36.27945-18.86811-43.8088,3.2222-4.93753,8.51219-3.95913,12.5609-1.31013C2047.821,2669.4509,2054.26981,2685.31,2054.24862,2704.27432Z" style="fill: #020100"/>
    <path d="M2113.542,2716.88281c-2.23828,0-5.001-1.51758-5.44922-8.74707l-.00976-.15429.0791-.13282c7.498-12.57812-.30859-23.12011-6.582-31.58984-4.80957-6.49512-8.96387-12.10449-4.541-16.62109a11.69614,11.69614,0,0,1,7.15625-2.67579c3.56641,0,7.124,1.86914,10.57324,5.55664,8.09571,8.65235,13.46778,25.39258,12.89356,34.65235,1.07031,3.70117-1.55371,9.08789-4.14551,12.59668C2120.97754,2713.207,2117.02344,2716.88281,2113.542,2716.88281Z" style="fill: #010100"/>
    <path d="M2127.15769,2697.22855c2.70107,8.77105-17.30554,31.21082-18.56587,10.87567,13.41655-22.50713-20.822-38.28583-11.19553-48.11664C2113.19945,2647.95835,2128.17171,2681.98125,2127.15769,2697.22855Z" style="fill: #010100"/>
    <path d="M687.69727,2775.38086c-.32813,0-.66944-.01074-1.02637-.03418-9.88672-1.58008-10.34375-8.64941-10.74707-14.88672a23.05874,23.05874,0,0,0-1.12256-6.98144l-.04443-.1084.00781-.11621c1.55859-22.44239,9.59765-37.20411,25.29931-46.457a15.78446,15.78446,0,0,1,7.84327-2.52149,8.82119,8.82119,0,0,1,7.17578,3.66211c4.17529,5.31934.89062,9.86035-3.28076,13.97461-14.748,12.75781-15.30371,27.57617-15.709,38.39551C695.76514,2769.05859,695.52783,2775.38086,687.69727,2775.38086Z" style="fill: #010000"/>
    <path d="M675.26381,2753.28822c1.41709-20.40674,8.2125-36.13568,25.05388-46.061,4.71586-2.77913,10.35592-4.09669,14.37206,1.0192,4.10429,5.22843.39477,9.72656-3.23871,13.31015-27.29921,23.61247-6.43686,54.48525-24.7476,53.29085C673.28188,2772.699,678.0551,2760.06628,675.26381,2753.28822Z" style="fill: #010000"/>
    <path d="M767.61084,2771.07617a10.70364,10.70364,0,0,1-10.97168-9.54785,88.41578,88.41578,0,0,1-2.40186-11.48144c-.17482-1.10059-.32763-2.06055-.4746-2.82422-1.38868-8.7295,5.17626-25.48926,14.04589-35.88086,3.33594-3.90918,8.436-8.56836,13.78955-8.56836a8.99055,8.99055,0,0,1,5.81885,2.17773c4.20947,4.20508.77295,9.083-3.57763,15.25977-6.168,8.75488-14.61475,20.74609-7.46973,38.44043,1.40771,4.36035.31055,7.17676-.85547,8.77832A9.67175,9.67175,0,0,1,767.61084,2771.07617Z" style="fill: #010000"/>
    <path d="M754.25377,2747.12808c-2.39745-15.07331,19.1243-53.07747,32.84585-41.79076,9.47192,9.47056-23.45891,23.12628-11.19356,53.50141,4.54146,14.08168-16.968,16.14541-18.77146,2.62363C755.47551,2755.91761,754.81942,2750.07229,754.25377,2747.12808Z" style="fill: #010000"/>
    <path d="M2014,2835c5.75427,13.79688,6.00562,24.50659,5,32-.98267,7.32227-3.47046,13.84692-3,14,.47168.15356,3.77087-6.144,5-14a46.2899,46.2899,0,0,0-1-18A48.43361,48.43361,0,0,0,2014,2835Z" style="fill: #010000"/>
    <path d="M2013.69663,2830.83427c5.75427,13.79687,6.00561,24.50659,5,32-.98267,7.32227-3.47046,13.84692-3,14,.47168.15356,3.77087-6.144,5-14a46.2899,46.2899,0,0,0-1-18A48.43361,48.43361,0,0,0,2013.69663,2830.83427Z" style="fill: #010000"/>
    <path d="M2848.26172,1638.19727a5.06342,5.06342,0,0,0-5.00391-2.98438,9.32722,9.32722,0,0,0-1.751.17578c-3.584.69238-7.25977,1.3291-10.81543,1.94531-21.499,3.72852-43.73047,7.584-60.03809,25.73438-.626.69629-1.792,1.99414-2.542,1.99414-.71778,0-1.23047-1.36719-1.53418-2.51465-3.97656-15.03125-9.2041-29.96777-14.25977-44.41211-8.831-25.23047-17.96191-51.32031-20.69531-78.72168-.35352-3.542.0332-5.10058.37988-5.28418.68164-.36133,1.40039-.707,2.12207-1.05468,2.94629-1.418,5.99219-2.88477,6.916-5.585.54394-1.59179.291-3.40332-.77441-5.54-2.1709-4.35254-6.1543-6.56055-11.83692-6.56055a29.46529,29.46529,0,0,0-6.46875.7998c-35.77148,7.49024-57.832,34.07422-77.22168,57.77442-5.65723-21.38184-14.44922-36.95313-26.8623-47.582-13.21387-11.31348-30.23926-16.81348-52.04981-16.81348-.6914,0-1.38281.00586-2.17578.0166-7.875,0-13.87891-1.13086-18.35254-3.458-4.09765-2.13183-7.10156-3.082-9.73926-3.082a8.53369,8.53369,0,0,0-6.58789,2.97266c-4.10937,4.584-.43164,8.63183,2.52442,11.88379.708.78027,1.37793,1.5166,1.94433,2.24414,28.25391,36.31445,20.89844,59.65918,4.28223,101.14844-9.78906,23.47363-20.82813,34.40722-34.73926,34.4082-7.581,0-15.20312-2.96777-23.27246-6.10938-8.18945-3.1875-16.65723-6.48437-25.2168-6.48437a30.05545,30.05545,0,0,0-8.10839,1.07324l-.62989.17481.332.5625c.50782.85644.96778,1.8164,1.41309,2.74414,1.001,2.08886,2.03613,4.24707,3.74805,5.59277,10.23047,8.03809,16.86816,18.8418,20.89062,33.999,7.5791,28.56446.60254,54.99024-6.78418,82.96778l-.53906,2.043c-9.88867,37.501-7.28613,69.52636,7.7373,95.18945,15.07618,25.75293,41.8711,43.77734,79.64161,53.57226,1.53515.39746,3.59472,2.82227,3.86621,4.55274,3.73925,23.80566,12.61425,44.4248,26.3789,61.28515,13.20118,16.1709,31.30957,29.38184,53.82227,39.26661,4.13867,1.81738,5.51953,3.90429,5.47168,8.24023-6.43555,84.708-71.58887,182.64941-174.28516,261.99512-101.09765,78.11035-219.46191,124.751-316.626,124.76367h-.03809c-34.708,0-66.209-5.94434-93.59375-17.65527-4.2627-2.09766-4.89941-4.42871-4.66016-8.55664,10.3086-229.6211-23.77246-409.99707-104.19238-551.42969-.81641-18.7461,2.38574-38.25879,5.335-53.33008,18.89551,12.46289,34.25488,32.79492,43.293,57.32422a55.86213,55.86213,0,0,1,1.5332,6.10351c1.57618,7.43067,3.20606,15.11524,14.002,15.2168l.21777.001c12.95215,0,16.82324-10.62891,19.67969-21.51856,21.26074-83.06738,16.165-165.498-14.73145-238.376-.28906-3.68848.23633-6.20411,1.60449-7.6875,1.19727-1.29786,3.002-1.85254,6.03614-1.85254,1.07422,0,2.22558.06836,3.33886.13379,1.1504.06738,2.33985.13769,3.48731.13769,2.86621,0,4.82226-.45312,6.40137-1.51367,49.332-44.42773,82.75488-109.40918,102.17578-198.65625,16.79-77.15723,20.53613-159.95947,23.84179-233.01514.51172-11.30615.99512-21.98584,1.52149-32.60937-1.74414-124.61377-14.28516-226.25879-39.46875-319.88281-9.1377-33.97071-24.84766-48.46436-52.53027-48.46436a99.41176,99.41176,0,0,0-15.63477,1.356c-60.25488,9.68506-116.98145,26.8789-168.60352,51.10449a586.861,586.861,0,0,0-145.999,97.86377c-67.29492-36.93262-133.64062-65.17041-197.209-83.936-66.80274-19.72021-133.019-29.71923-196.81006-29.71923a619.21107,619.21107,0,0,0-187.6543,29.2749C1098.8999,851.53906,1035.61768,882.55469,974.084,923.626a8.38141,8.38141,0,0,1-3.90136.9956c-.769,0-1.10254-.15234-1.17774-.24219-33.83691-40.23193-77.70508-66.21093-116.16357-86.32226l-2.36914-1.18311c-39.01856-19.49023-142.666-71.26269-209.83692-71.26269-32.0288,0-51.3872,12.00537-57.53173,35.66357-16.21924,53.47656-28.8086,119.99121-36.40772,192.35352-8.04736,76.62988-9.98975,156.21435-5.61719,230.14844,4.92237,83.23339,17.44483,157.373,37.22022,220.35937,22.22705,70.79443,53.167,125.55908,91.96338,162.77783-22.89551,77.38086-24.541,142.09668-5.17969,203.62989l.06152.19531c2.84522,9.043,6.38575,20.29785,18.21826,22.23926a18.83,18.83,0,0,0,3.04346.25683c8.76465,0,13.68311-6.68652,18.43945-13.15234.87256-1.18653,1.77491-2.41406,2.66163-3.542,5.54248-6.41211,10.70214-13.42481,15.6914-20.20606,7.56153-10.27734,15.374-20.89551,24.67285-29.623,4.09424,47.8545,18.73584,93.88379,32.89844,138.40821,3.20508,10.07422,6.51807,20.49023,9.63233,30.69824-51.43653,114.53125-80.09327,231.76953-85.17823,348.46875-5.05566,116.03516,13.03662,235.23828,53.77051,354.293-28.15137,5.8291-55.35059,15.959-81.66162,25.75879-15.46436,5.75976-31.45508,11.71582-47.45166,16.72656-15.47949,4.84961-27.54834,14.60449-33.98486,27.46777-6.31641,12.624-6.90723,27.75782-1.66407,42.61133,11.36573,32.19434,35.58789,49.56836,70.044,50.24219,11.6709.31543,24.01074.46875,37.72461.46875,19.88232,0,40.10351-.32813,59.65918-.64453,19.54492-.31641,39.75488-.64453,59.61621-.64453,8.02344,0,15.4458.05175,22.64258.15722-3.292,2.82129-6.69727,5.62989-10.001,8.3545-24.28955,20.03417-49.40576,40.75-44.15674,78.26269,10.15869,42.60352,55.9624,66.06641,128.97364,66.06641,39.82617,0,84.62109-7.15625,126.13378-20.15039,41.17237-12.8877,73.63135-29.752,91.34082-47.43555,3.52491-2.58789,5.61377-6.66211,7.63379-10.60059,3.0752-5.998,5.98-11.66211,13.56836-11.66211a17.90905,17.90905,0,0,1,2.38575.168,1322.25545,1322.25545,0,0,0,200.66943,14.90821c98.623,0,201.13525-9.80957,313.35791-29.9834,21.48437,73.18261,117.04687,105.94433,202.373,105.94433,45.86132,0,88.40039-9.61425,116.71-26.37695,42.4248-25.24512,48.49316-55.10449,46.11328-75.708-4.45215-38.53906-43.07227-77.84863-92.16406-94.06543,9.64843-1.74609,23.36035-2.5625,42.85351-2.5625,12.63867,0,26.50488.32032,41.18555.66016,16.2334.376,33.01855.76367,49.9375.76465h.02539c53.331,0,117.75195-3.668,142.80762-32.2461,9.084-10.36132,12.63964-23.57617,10.54687-39.37011-9.02344-27.05567,2.501-31.73828,17.0918-37.666,3.25879-1.32422,6.6289-2.69336,9.96-4.39062,112.46289-61.26172,219.38281-148.1543,301.06348-244.67286,95.085-112.35546,150.17871-231.43066,159.3291-344.41211-.59278-15.248-.1709-24.38671,15.36523-34.88964,31.332-21.01661,49.63086-45.28321,57.58789-76.36621,8.13574-31.78418,4.29492-68.918-.5625-101.09473,17.92285-15.40625,29.38867-34.16992,35.04981-57.35547,5.45605-22.3457,4.915-46.54687,3.667-67.27441-.24219-4.02149-.63281-8.15332-1.01074-12.14942-2.01563-21.31347-4.09961-43.35254,14.80468-61.15918A5.60883,5.60883,0,0,0,2848.26172,1638.19727Zm-271.5752,295.35253c-1.85156-4.46679-2.23242-6.98437-1.27441-8.417.74707-1.11914,2.44141-1.66308,5.17871-1.66308.82129,0,1.75391.0498,2.77148.14941,1.02637.09961,2.02051.15039,2.95606.15039,7.791,0,12.09766-3.47851,12.456-10.05957.15235-2.79-.41015-4.85351-1.71679-6.30957-2.1709-2.418-5.92188-2.61816-9.54785-2.81055-.92383-.0498-1.83692-.09765-2.68555-.18164-116.09668-16.88769-108.66895-69.7539-100.06738-130.96875,5.27539-37.54687,10.72754-76.36328-9.66993-112.85156,35.26465,9.52149,46.36329,31.74512,53.02344,45.08106,3.41113,6.82812,5.875,11.76269,9.9707,11.76269a6.8213,6.8213,0,0,0,3.03418-.7998c5.47559-2.41016,3.91016-6.62793,2.5293-10.34961a20.71233,20.71233,0,0,1-1.20215-4.02344c-.73633-5.15234-4.17871-9.24121-7.50781-13.19531-4.39844-5.22461-8.55371-10.15918-6.33691-17.0918,9.83691-28.55957,27.10937-50.49805,48.68652-61.86523,2.53613,16.46484,5.57715,33.93457,8.26367,49.373,1.71,9.82324,3.3252,19.10352,4.68848,27.3877-1.71582,12.11816-3.10352,23.08594-4.44531,33.69238-1.96778,15.54688-3.82618,30.23145-6.31641,45.06055l-.16016.95605.8711-.42285c23.292-11.30371,26.67285-33.46387,29.94238-54.89355.36523-2.39747.73145-4.793,1.123-7.17286,41.52734,49.35743,21.6123,83.57618,8.41113,106.26465-6.84766,11.76856-11.7959,20.27246-5.05273,26.0586a7.9024,7.9024,0,0,0,4.66992,1.76855c3.94238,0,7.12988-3.82226,11.541-9.1123,6.58692-7.89746,15.57715-18.68067,32.917-23.33887-.07421,25.14746,8.55958,49.38965,16.91114,72.83789,2.96289,8.31738,6.02636,16.91895,8.63281,25.39551,10.46289,27.96777,11.41211,55.998,3.17383,93.72558-3.29,15.06055-8.8877,16.99219-13.39649,16.99219-3.45605,0-7.33007-1.37988-11.07617-2.71387-1.6416-.585-3.33984-1.19043-5.001-1.68066C2621.78125,1998.12207,2592.74805,1972.30469,2576.68652,1933.5498Zm-524.03418,494.3877c27.52149,10.33594,58.69336,15.57715,92.64844,15.57715,101.72656,0,224.77246-47.20117,329.14746-126.26367,50.73731-38.43262,94.14551-82.58106,125.53223-127.67285,33.99609-48.84083,53.415-97.23536,57.71875-143.84961.95019-1.36036.41308-3.38477-.10645-5.34375-.48925-1.84571-.99609-3.75489-.21679-4.88575a3.6667,3.6667,0,0,1,2.792-1.23047,24.84079,24.84079,0,0,1,2.59668-.14648c3.60742,0,6.17969.93652,7.86328,2.86426,2.27148,2.59863,2.94043,7.07519,2.05078,13.66015-54.751,291.82227-334.19824,479.43848-556.85644,551.42872a57.71063,57.71063,0,0,1-17.01954,2.54c-14.8623,0-28.78027-5.625-42.24121-11.06543-10.10156-4.082-20.54492-8.30175-31.34863-10.1416a11.09821,11.09821,0,0,1-.04394-4.07422c11.05957-44.126,18.93554-91.13476,24.78613-147.94043C2050.07422,2430.24121,2052.07227,2428.17969,2052.65234,2427.9375Zm44.46875-1626.57178c1.15039,0,1.39161,1.76465,1.56934,3.897a10.55725,10.55725,0,0,0,.25781,1.88476c29.81348,100.374,42.60645,204.60156,42.77735,348.478-.64063,9.8789-1.24512,21.42822-1.88379,33.65576-5.90137,112.90039-16.86426,322.75488-115.73438,387.19141,10.57813-84.03077,7.87891-165.145-8.02637-241.106-16.38964-78.27393-47.335-153.64453-91.97558-224.01514-11.43067-18.20605-6.61719-37.97265-1.96289-57.08789l.44043-1.80713c22.98242-94.72509,79.19433-176.41211,171.84863-249.72851A4.88921,4.88921,0,0,1,2097.12109,801.36572ZM1904.63672,838.3584c66.60449-29.78809,136.74414-50.51367,174.56641-51.58545l2.71972.5166c-106.80957,78.082-166.95215,171.23779-183.832,284.73828-38.83691-46.87842-82.084-95.50439-135.03809-134.20459C1777.85254,908.229,1829.40723,872.00293,1904.63672,838.3584ZM625.56543,787.84766c.45459-1.04395,3.36768-1.32227,5.29541-1.50635a14.148,14.148,0,0,0,2.53906-.37012c136.19483,27.34668,236.03906,75.15674,314.22949,150.46,1.59131,1.53321,2.30665,2.73633,2.25147,3.7876-.06738,1.27686-1.31152,2.49609-3.15625,3.93213-48.5625,37.166-92.54053,83.187-138.33252,144.772-11.125-118.88135-70.76758-216.85107-182.2876-299.4414C625.73438,788.98682,625.35938,788.3208,625.56543,787.84766ZM603.3042,1450.98145c-40.48145-165.0376-71.93848-411.38624,7.88867-648.08008C717.875,888.82813,777.07422,984.36865,787.1665,1086.80811c-1.89306,25.16455-5.19775,44.63085-15.80615,63.8955-34.89453,63.36866-59.1914,129.8086-72.21484,197.4751-13.03955,67.74561-15.12012,138.49072-6.18408,210.26953.98632,7.9209-1.79493,13.44727-9.0127,17.88965C640.51318,1562.56543,616.12158,1500.58838,603.3042,1450.98145Zm170.18018,347.793c-1.2627-6.98828-1.99952-14.22265-2.71143-21.21972-1.62842-15.99707-3.31152-32.53906-11.394-47.55176a3.86677,3.86677,0,0,0-3.55909-2.041c-14.32421,0-59.59521,60.48633-66.97314,72.20313-20.02-65.97949-14.57764-140.03223,15.35791-208.64844,8.82324-19.51758,7.2002-37.50976,5.48145-56.55859-.22266-2.47266-.44678-4.9541-.64747-7.4502-23.68164-294.102,154.91993-567.22705,434.33887-664.19433A593.6563,593.6563,0,0,1,1353.669,824.752c191.34375,0,381.75,93.84034,509.33691,251.02295,122.18359,150.52637,170.4834,340.48584,132.51269,521.19385-2.62988,16.2998,3.36036,34.09277,9.15333,51.29883,3.55859,10.57324,7.23925,21.50586,8.98828,32.14062,8.127,55.46582,7.96289,99.77735-.52735,139.31446l-.66308-.9668c-18.70606-27.27637-38.04981-55.48047-73.98243-63.60352a12.94351,12.94351,0,0,0-2.89453-.38379c-4.042,0-5.13086,2.9834-5.5791,7.835-1.49316,97.64257-40.22656,187.041-109.08008,251.82128-1.54-5.17968-3.44531-17.06738-5.82617-31.92382-6.46679-40.35254-16.24023-101.332-31.11621-101.332a5.95086,5.95086,0,0,0-1.50293.19824c-7.52344,2.36816-5.91113,9.05859-4.6123,14.44629,15.81543,65.58593,15.81543,65.58593-39.36133,105.11523-116.30957,83.32227-247.66358,122.12988-413.37793,122.13086l-.94971-.001c-126.269-3.56543-313.11474-56.70019-424.269-194.66992,6.14648-26.18262,12.15283-52.85156,17.9624-78.64746l3.2168-14.27734c1.311-5.81055,2.02588-13.77051-6.856-15.792a13.478,13.478,0,0,0-2.97363-.35938c-7.11768,0-9.22266,6.84375-10.18653,11.98633-4.72949,24.05078-9.20068,48.5957-13.52441,72.332-6.52246,35.80859-13.26562,72.82519-21.04,108.93848C809.32568,1954.09863,787.99658,1875.27148,773.48438,1798.77441Zm43.47509,983.16016c-7.48486,0-60.2334,3.01758-60.2334,3.01758-2.89746-.14356-6.02441-.21387-9.54-.21387-8.24463,0-17.144.38672-26.56641.79688-10.03125.43554-20.40381.88672-30.62842.88672-24.03613.001-53.6123-2.2295-69.106-19.624-9.43115-10.58789-12.88476-25.48535-10.57031-45.47851,3.085-12.37207,9.53027-19.13477,22.98926-24.12207,10.83154-4.0127,21.93945-7.89258,32.68164-11.64454,32.25244-11.26464,65.603-22.91406,96.17285-39.791l.01221-.48291h.00049v.48193a5.4227,5.4227,0,0,1,2.91943,2.19141,469.13573,469.13573,0,0,0,86.30029,133.11035C841.39648,2781.65625,830.417,2781.93457,816.95947,2781.93457Zm852.06006,46.1875c-1.01367,1.5166-2.96582,2.48145-6.34961,3.13184-93.60254,21.7705-189.21142,27.15234-278.57031,29.72461-75.79688-.44825-149.66065-6.08985-219.53857-16.76661-3.81836-.584-5.88916-1.44824-6.92383-2.88964-1.03907-1.44727-1.18408-3.626-.50049-7.51856,22.66992-129.083,49.3916-281.60742,75.69287-434.15234,13.69971-79.46,63.31885-128.96289,139.687-139.38477,8.39844-.65722,16.66895-.98926,24.582-.98926,77.84473,0,132.666,31.55957,167.59668,96.4834,30.81153,57.27051,42.55371,133.48535,51.94727,206.68555,12.18555,55.0625,23.38672,111.31152,34.21972,165.708,6.01465,30.20215,12.2334,61.43261,18.55079,92.10547C1670.21484,2824.15625,1670.09766,2826.50684,1669.01953,2828.12207Zm314.35938-414.11523c3.72851-4.82911,3.42968-9.93555-.78125-13.32715a9.51861,9.51861,0,0,0-5.97266-2.36426c-2.99609,0-5.957,1.68066-9.06055,5.14941-94.4209,111.43262-79.21289,267.168-61.73925,350.09668a13.38217,13.38217,0,0,0,1.022,2.76953c-.02527-.03857-.05091-.07275-.07617-.11181,1.0498,4.51758,3.637,5.54565,4.72058,6.5603,1.243,1.16382,6.44812,2.87451,7.99218,3.13623,3.68543,1.477,7.95228,2.82105,12.6764,4.3,22.21972,6.957,55.79882,17.4707,80.39941,62.02734,7.39844,13.167,8.97461,26.80762,4.55762,39.44922-5.502,15.74707-20.17871,29.16016-41.3252,37.76856-34.29,13.957-68.63769,21.03515-102.08789,21.03613-50.26758.00293-99.68164-15.91894-146.87109-47.32129-32.79785-21.82519-38.46387-56.59863-43.94336-90.22754-1.32031-8.10644-2.68652-16.48828-4.41211-24.52832-6.085-28.35644-12.61719-57.14746-18.93359-84.99121-17.4336-76.83984-35.46094-156.29687-46.07911-235.333-2.69433-58.3789-24.84375-109.15625-64.02539-146.81152-35.00586-39.94824-84.29492-63.69531-135.22754-65.1543-1.68066-.04785-3.38281-.07226-5.05908-.07226-30.71338,0-60.5415,8.01465-88.62207,23.80273a174.5549,174.5549,0,0,0-68.09814,56.43457c-19.41455,26.81836-32.17481,59.58789-37.92823,97.39942-9.896,68.23535-23.51416,137.10351-36.68457,203.7041-13.15283,66.51367-26.75341,135.292-36.65283,203.49121-1.82629,28.2417-16.46289,50.80932-39.08984,68.10425-9.397,4.32153-35.17932,19.582-74.07715,31.0061a338.62147,338.62147,0,0,1-74.694,13.01123q-8.96613.38453-17.94177.38721c-32.34082.00195-62.10889-3.88477-83.82959-10.94531-28.07324-8.50782-42.9751-22.42872-43.09473-40.25684-.09717-14.4502,9.43457-31.25879,26.84033-47.32813,15.7334-14.52539,36.22461-26.72461,54.84522-32.64257,19.38818-7.57715,20.67871-25.68457,21.8164-41.66016.20215-2.83008.39258-5.50391.67383-8.125,10.99512-102.46191-11.91064-205.57129-70.0249-315.22266-2.15478-4.06543-4.58691-6.12793-7.22949-6.12793a6.29667,6.29667,0,0,0-3.20264.96387c-5.68115,3.35742-3.25976,8.28516-1.31445,12.24414.22363.4541.44336.90137.645,1.333,57.69678,128.62891,73.88867,232.77148,50.92431,327.65332-93.93212-86.56055-146.82812-221.05762-152.98632-389.02637-5.03711-137.37988,21.89892-292.873,73.92041-426.79687q2.22,3.63867,4.42041,7.28515c15.06787,24.90528,30.64892,50.65821,55.77832,68.458,2.88086,2.11524,5.21,3.52442,7.21386,3.52442,2.56983,0,4.29444-2.31836,5.42823-7.29688,2.82617-12.41406,5.93408-24.98535,8.94043-37.14258,2.22949-9.01758,4.5332-18.333,6.71045-27.53906,68.64355,58.9541,143.9956,104.62012,223.98877,135.74805,80.09472,31.167,162.81494,46.96972,245.86328,46.96972,155.22949,0,304.94726-55.70117,433.0205-161.09179,3.10352,14.415,5.29,29.29785,7.40528,43.69922.84961,5.77636,1.72656,11.749,2.64941,17.59472.78711,5.61817,2.28516,8.123,4.8584,8.123,2.001,0,4.416-1.58692,7.66016-4.14551,30.06054-23.29687,55.39746-52.01172,77.46-87.78516,17.43164-28.26562,33.19238-61.56738,49.55761-104.72656,56.50586,128.64942,84.19043,275.68946,87.11915,462.60059-4.7295,147.84668-16.72071,301.791-104.78418,417C1899.61426,2613.92188,1919.751,2498.63184,1983.37891,2414.00684Zm225.82617,285.10937c-14.13086,31.54688-49.40528,35.80078-82.04688,35.80078-10.69238,0-21.54882-.51953-32.04785-1.02148-9.9668-.47656-19.38086-.92676-28.18945-.92676-6.084,0-11.26172.21875-15.83008.668l-.45117.04492v.37793c-4.09668-.10937-8.44531-.16211-13.27344-.16211-6.98828,0-14.10742.11231-20.99121.22168-6.88281.10938-13.999.22168-20.9834.22168-12.80176,0-23.19922-.39453-32.62793-1.24219a498.11633,498.11633,0,0,0,56.68457-133.03808c1.08594-3.91016,2.17285-4.67481,3.68262-4.67481a11.99819,11.99819,0,0,1,3.94434.98731c48.99121,18.332,94.31152,35.05664,138.55078,51.12793a62.12738,62.12738,0,0,0,10.10351,2.43554c6.52149,1.18946,13.26367,2.41993,18.709,7.81836C2206.12012,2669.33594,2215.99219,2682.36426,2209.20508,2699.11621Zm259.57324-231.46875c-48.30664,49.43457-95.71289,88.74317-140.90332,116.83594-49.7334,30.917-94.3916,46.59277-132.73437,46.59277-19.11231,0-36.71485-3.97851-52.34083-11.82715,96.91016-37.68457,236.60938-105.96,353.91016-217.7041,52.87207-50.36914,95.92969-104.86426,127.97559-161.97461,34.94531-62.27929,57.168-128.39551,66.05273-196.57324.05469-5.24023,2.71192-5.84668,4.70606-5.84668a21.9733,21.9733,0,0,1,5.376.98145,21.57434,21.57434,0,0,0,2.91895.65722c2.10156.2334,3.48144.81739,4.21777,1.78516,1.06836,1.40332.72266,3.55371.35742,5.83008-.42285,2.63379-.86035,5.35547.752,7.44238C2711.05859,2145.97266,2605.55859,2327.67285,2468.77832,2467.64746Zm342.3457-743.96c-.39941,27.81934-.81152,56.58594-16.4082,81.96484l-.04883.07911-.01758.09179c-1.69824,9.209-3.11035,11.14258-3.99609,11.14356-.97656,0-2.2998-2.17774-3.58008-4.28321-1.98633-3.26953-4.23828-6.97558-7.30469-6.97558a3.7981,3.7981,0,0,0-.73144.07226l-.125.02442-.09766.08105c-13.60937,11.25879-10.68457,31.67578-6.98242,57.52442,6.19043,43.207,13.89356,96.97851-48.96777,141.61425a15.8594,15.8594,0,0,0-3.67676,4.17774c-1.76465,2.543-3.43262,4.94629-6.68066,4.94629a8.03363,8.03363,0,0,1-1.6543-.18457c12.36914-25.33106,15.81543-52.47852,10.53711-82.97071-4.5791-26.45214-14.85156-50.84961-23.91406-72.374-12.957-30.77637-23.19141-55.084-8.16211-67.47754,1.02343-.88672,1.04687-3.60449.75586-5.66211-.169-1.20019-.60254-3.2832-1.59571-3.74316a20.861,20.861,0,0,0-8.28613-1.94727,9.6245,9.6245,0,0,0-3.81348.68946,66.3067,66.3067,0,0,0-10.377,6.28515c-4.5166,3.1084-8.7832,6.04492-11.60547,6.0459a2.62611,2.62611,0,0,1-2.16992-.9873c-2.14453-2.64063-1.793-10.55957,1.07324-24.21,6.4961-30.93359-15.28711-57.73925-37.45215-79.88183-6.50976-6.50391-6.72851-14.20606-6.94043-21.6543-.12988-4.59179-.26464-9.33984-1.85351-13.77929-4.44336-12.41993-8.08594-25.04786-11.0625-35.7627-.27246-.9834-.58106-1.97949-.89063-2.97949-2.30078-7.43653-4.47461-14.46094,6.03418-18.72461,1.292-.52344,1.81348-2.39844,2.36621-4.38379a21.62668,21.62668,0,0,1,.73731-2.32422l.22754-.55371-.585-.125a37.75213,37.75213,0,0,1-4.04981-1.2168,21.61687,21.61687,0,0,0-6.39453-1.51465,5.35845,5.35845,0,0,0-2.18848.416c-4.18457,1.83594-7.55273,2.72754-10.29589,2.72852-6.44629.001-9.37793-4.89258-10.1211-16.91309-1.56933-14.84863-7.66406-29.46973-14.37012-44.376,60.65528.3086,67.02833,44.71,71.68946,77.16114,2.67969,18.65332,4.79492,33.38671,16.32226,34.1123,8.85059-1.19043,7.52442-14.07031,6.55664-23.47559-.08593-.83593-.16894-1.64648-.24218-2.41894-1.12793-11.89649,8.25879-30.70117,23.91211-47.90918,14.57714-16.02441,30.53222-25.97852,41.63769-25.97852l.1377.001c.74511,1.18555,1.55078,10.11133,1.55957,11.5752l-.05078.00293c-.57032,32.0332,8.04492,58.375,16.376,83.8496,5.96,18.22461,11.58985,35.4375,13.48926,53.64649,1.57227,11.77832,1.16113,24.00976.76465,35.83789-.35645,10.65625-.72656,21.67578.35351,32.34082l.09766.96582.72949-.64062c21.79492-19.15137,23.19629-47.21778,22.35352-66.66211-.418-9.87793,6.54492-13.2793,13.27832-16.56739.9082-.44433,1.80273-.88086,2.66113-1.32715,6.51367-3.38281,13.87207-5.45507,20.98926-7.459,2.68164-.75488,5.45019-1.53418,8.14551-2.376a3.72067,3.72067,0,0,1,.59277,1.53907C2811.71387,1682.46777,2811.41406,1703.42285,2811.124,1723.6875Z" style="fill: #010000"/>
    <g>
      <path d="M778.09477,1249.59215c18.36647-49.01332,54.892-128.05348,125.8288-204.31944A598.64574,598.64574,0,0,1,1091.01113,910.2141,582.1498,582.1498,0,0,1,1274.7874,860h23.179c-4.90266,1.50684-12.42318,3.86612-21.52335,6.92608-62.06273,20.8685-181.19176,62.26669-289.73737,164.49446-62.40307,58.7711-102.15789,119.61126-125.8288,155.83686-29.08166,44.50634-41.05313,68.51893-41.39105,69.26083a80.51953,80.51953,0,0,1-8.27821,13.85217c-2.82543,3.824-5.45764,7.32556-9.93385,10.38912-4.00976,2.74418-7.96576,5.6416-13.24514,5.19456-6.74464-.57111-10.97874-6.10323-11.5895-6.92608C771.07809,1271.80389,771.66379,1259.97007,778.09477,1249.59215Z" style="fill: #f4f4f4;opacity: 0.2"/>
      <path d="M1145,2852c45.06946,7.02441,82.84155,10.81567,110,13,178.14819,14.32861,314.595-7.10083,373-18,22.60217-4.218,41.03479-8.26172,53-11l-12-65a1420.74377,1420.74377,0,0,1-516,14Z" style="opacity: 0.21"/>
      <path d="M723,815c.60077-1.398,51.75757,14.89362,106,45a545.98657,545.98657,0,0,1,81,55c-23.50671-14.06213-44.18854-25.7597-61-35-12.15686-6.68188-26.98224-14.8139-47-25-13.92017-7.08331-22.94653-11.39209-50-25C732.5694,820.22638,722.857,815.33276,723,815Z" style="fill: #fff;opacity: 0.5"/>
      <path d="M1986.99844,814c-.60077-1.398-51.75756,14.89362-106,45a545.98763,545.98763,0,0,0-81,55c23.50672-14.06213,44.18854-25.7597,61-35,12.15686-6.68188,26.98224-14.8139,47-25,13.92017-7.08331,22.94654-11.39209,50-25C1977.42905,819.22638,1987.14145,814.33276,1986.99844,814Z" style="fill: #fff;opacity: 0.5"/>
      <path d="M1614,1725a469.6437,469.6437,0,0,1-452-6l1-22a469.6437,469.6437,0,0,0,452,6Z" style="opacity: 0.2"/>
      <path d="M2018,2553a696.47173,696.47173,0,0,0,128-17c32.55811-7.46045,207.54224-50.41455,367-211,86.84937-87.46362,135.65649-176.167,142-172,4.70166,3.08862-21.50854,52.21411-42,86-19.31909,31.85278-65.8606,103.33545-148,178-46.82056,42.55981-96.54712,73.03979-196,134-77.08667,47.25073-110.25439,61.93994-153,62-45.11743.06348-81.49731-16.19824-104-29Z" style="opacity: 0.21"/>
      <path d="M1796.03448,1990.39169c-39.52172,36.44855-196.23957,171.44374-433.39655,175.51452C1092.39359,2170.54511,918.28054,2001.714,886,1969.2089L888.94828,1945c32.28053,32.5051,206.39358,201.33621,476.63793,196.69731,237.157-4.07077,392.89207-139.066,432.41379-175.51452Z" style="opacity: 0.2"/>
      <path d="M760,1182c5.12067-25.92664-.11456-67.31433-10-116-7.77643-38.299-21.23993-64.473-39-99-15.55176-30.23383-34.13269-65.67493-70-102a337.24746,337.24746,0,0,0-49-41l10-39a533.88627,533.88627,0,0,1,47,37c24.6308,21.73053,71.60333,63.92633,108,133,13.09747,24.85632,29.44379,56.55206,36,102a274.59624,274.59624,0,0,1,2,60Z" style="opacity: 0.2"/>
      <path d="M1951.79631,1189c-5.12067-25.92664.11456-67.31433,10-116,7.77642-38.299,21.23992-64.473,39-99,15.55175-30.23383,34.13269-65.67493,70-102a337.24693,337.24693,0,0,1,49-41l-10-39a533.8833,533.8833,0,0,0-47,37c-24.6308,21.73053-71.60334,63.92633-108,133-13.09748,24.85632-29.44379,56.55206-36,102a274.59561,274.59561,0,0,0-2,60Z" style="opacity: 0.2"/>
    </g>
    <g>
      <path d="M878.241,2532.862c1.72565-.4248,11.19287,29.05322,18.342,59.59155,4.67041,19.9502,7.48188,36.63794,9.16364,48.00415,0,0,5.10742,36.38916-7.28088,123.77515-.67286,4.74609-2.01453,13.47412-7.281,15.37085-6.66156,2.39917-18.721-6.44946-21.03369-17.79785-1.65942-8.14282,2.627-15.32666,4.045-17.79761,7.4101-12.91235,10.603-31.79931,16.98871-69.573,3.37366-19.9563,1.17047-38.92212-3.2359-76.854C883.269,2557.2953,876.69073,2533.24354,878.241,2532.862Z" style="opacity: 0.2"/>
      <path d="M1935.81658,2505.35633c-1.72565-.4248-11.19287,29.05323-18.342,59.59156-4.67041,19.95019-7.48187,36.63794-9.16363,48.00415,0,0-5.10743,36.38916,7.28088,123.77514.67285,4.7461,2.01453,13.47412,7.28094,15.37085,6.66156,2.39917,18.721-6.44946,21.0337-17.79785,1.65942-8.14282-2.627-15.32666-4.045-17.79761-7.41009-12.91235-10.603-31.79931-16.98871-69.573-3.37365-19.9563-1.17047-38.92212,3.23591-76.854C1930.78857,2529.78968,1937.36687,2505.73793,1935.81658,2505.35633Z" style="opacity: 0.2"/>
      <path d="M867.777,2734.50078a796.23224,796.23224,0,0,1-43.887-95.22014c-94.57132-249.32893-34.94344-491.81967,15.06951-630.44043a242.04735,242.04735,0,0,1-20.67588-27.07617c-50.77018,136.25588-116.9866,385.84856-19.56337,642.69654a796.22949,796.22949,0,0,0,43.887,95.22014,379.28506,379.28506,0,0,0,25.32684,34.9117c1.98963-3.57661,3.90228-7.37369,5.66493-11.30349C871.67976,2740.47509,869.73651,2737.5543,867.777,2734.50078Z" style="fill: #f4f4f4;opacity: 0.2"/>
      <path d="M1948.5722,2704.63744a900.06418,900.06418,0,0,0,40.92633-109.85177c84.79306-286.10164.55755-552.8846-65.10847-704.18694a271.00751,271.00751,0,0,0,20.65025-31.85694c66.31658,148.59925,158.34353,422.82919,70.99346,717.55883a900.06418,900.06418,0,0,1-40.92633,109.85177,425.13218,425.13218,0,0,1-25.16111,40.97516c-2.46313-3.85091-4.85859-7.95429-7.09933-12.21751C1944.74075,2711.61673,1946.65265,2708.20194,1948.5722,2704.63744Z" style="opacity: 0.2"/>
    </g>
  </g>
</svg>
