<svg id="Layer_14" data-name="Layer 14" xmlns="http://www.w3.org/2000/svg" viewBox="0 0 3000 3000">
  <title>7</title>
  <g>
    <path d="M1585.9341,2368.89891c20.97754,68.7153,57.6738,236.31543,94.13547,460.21789a852.5003,852.5003,0,0,1-101.74232,24.72243c-67.53753,12.07788-115.70583,12.1723-212.04254,12.36121-91.89581.18019-137.00555-5.094-175.90972-12.36121-18.20823-3.40124-33.24955-6.90143-43.73988-9.50862,68.15993-320.924,91.08982-448.10288,91.28309-475.4317a115.94274,115.94274,0,0,1,9.98392-48.494c3.5315-7.82885,7.19321-13.456,21.39453-31.854,26.95057-34.91447,40.42575-52.37181,51.34652-59.429,15.125-9.7742,28.51628-13.01559,51.34674-18.54182,20.994-5.08171,36.893-8.93023,57.05171-5.7052,17.828,2.85217,29.7979,9.76634,47.06779,19.96818,9.71157,5.73693,34.18639,20.43358,57.05182,45.64143C1564.13529,2304.6315,1577.79319,2342.232,1585.9341,2368.89891Z" style="fill: #d4d4d4"/>
    <path d="M1914.12667,932.26115c51.15645,47.47726,169.20415,168.35467,321.06884,334.24745a338.99076,338.99076,0,0,1-32.39477,55.43707c-24.115,33.34155-46.44758,50.32179-91.11286,84.28234-42.60631,32.395-66.75225,44.01733-89.21461,51.87121-10.513,3.67585-19.6136,6.16128-26.06071,7.76219-161.69675-280.03986-227.67254-389.58449-244.0502-411.46254a191.181,191.181,0,0,1-24.58027-42.20539c-3.07591-7.48734-4.76464-13.2633-9.24963-32.93011-8.51124-37.32251-12.767-55.98381-11.94324-65.44861,1.14078-13.10866,5.41212-20.39522,12.69421-32.818,6.69632-11.42349,11.76746-20.07467,23.08093-24.57568,10.00539-3.98058,19.73551-2.66351,33.91019-.58271a188.27558,188.27558,0,0,1,54.02085,16.40234C1865.26864,888.62185,1894.274,913.83626,1914.12667,932.26115Z" style="fill: #d4d4d4"/>
    <path d="M1000.86712,1075.2556c-37.29379,58.99361-134.48015,197.2015-269.71906,376.90607a338.99072,338.99072,0,0,1-60.43653-21.68215c-37.19754-17.59356-57.98432-36.43459-99.558-74.11667-39.65718-35.945-55.50926-57.55092-67.34816-78.19267-5.54094-9.66091-9.6527-18.15158-12.40846-24.19592,245.64871-210.29712,341.241-295.238,359.7456-315.34906a191.17991,191.17991,0,0,1,36.98361-31.90136c6.79651-4.39647,12.165-7.11551,30.67618-15.13009,35.12951-15.20949,52.69429-22.81436,62.14969-23.73981,13.09562-1.28184,21.04176,1.58123,34.589,6.46236,12.45753,4.48851,21.8918,7.88763,28.39067,18.18415,5.74744,9.106,6.23657,18.91269,6.78975,33.2286a188.27526,188.27526,0,0,1-6.22043,56.11235C1034.80939,1019.22509,1015.34,1052.36147,1000.86712,1075.2556Z" style="fill: #d4d4d4"/>
    <path d="M2584.54645,1810.11886a191.05143,191.05143,0,0,0-32.50985-3.01649c-39.173,0-68.60436,14.82761-89.97112,45.323-13.16441,18.7876-25.27855,43.40845-1.9008,67.18909,58.30837,59.30353,79.01054,134.80517,61.53146,224.40439-36.60414,187.573-237.56192,340.174-447.972,340.174-8.14038,0-16.36-.22727-24.43146-.68181-2.49652-.14463-3.06469-.68181-3.06813-.68181-.23416-.44765.07575-2.314.24448-3.31262.14807-.90219.29959-1.81127.37534-2.69969,1.03993-11.85244,2.25892-23.698,3.48136-35.54355,2.5826-25.10982,5.25474-51.07362,6.10183-76.72751,6.22581-187.85535-19.00454-339.15477-79.39965-476.1431-2.22793-5.04814-4.58326-10.02052-6.92483-14.96535-11.90754-25.13737-23.15393-48.88357-14.85171-77.67791a29.11838,29.11838,0,0,0,.78167-3.774,5.03443,5.03443,0,0,1,1.48414.87464c15.778,15.3579,33.02637,33.89068,37.91266,59.39995.668,3.4848,2.69969,14.08381,14.38,15.95018a20.33707,20.33707,0,0,0,3.09224.24793c6.39109,0,11.63206-3.23687,16.02593-9.90344a23.27116,23.27116,0,0,0,1.46692-2.741c.03788-.08265.08264-.17218.124-.26171.25481.35812.54751.79889.885,1.34984,16.81793,27.43073,44.26932,44.81339,79.38932,50.261a407.8645,407.8645,0,0,0,62.26836,4.9586c89.05516-.00688,167.59739-32.5064,233.44352-96.59637,15.65749-15.24082,32.1965-34.17993,36.16338-59.04182,9.473-59.44816,11.17063-108.0356,5.33394-152.911-41.96907-322.695-199.27047-589.26126-467.53441-792.29545-57.83661-43.77345-121.39283-73.75924-188.90561-89.13091-29.76884-6.77676-57.7092-10.21335-83.04629-10.21335-80.15377,0-140.9621,33.17444-185.9029,101.41724-1.41182,2.14184-2.39666,2.14184-2.98549,2.14184a13.81768,13.81768,0,0,1-3.41249-.70936c-.70247-.20661-1.40838-.40633-2.11085-.57162a678.67647,678.67647,0,0,0-155.65885-18.43636A667.61219,667.61219,0,0,0,1190.95823,817.42a18.00479,18.00479,0,0,1-4.4042.70247c-2.283,0-3.92212-.78511-6.5426-5.06879-31.0636-50.77749-75.82877-82.67784-133.04556-94.82643a296.19062,296.19062,0,0,0-61.36962-6.46684c-61.19744,0-123.21443,18.4708-195.16929,58.12586-156.11,86.03179-284.33464,218.92927-392.00867,406.28187-101.69271,176.93954-147.942,335.02949-145.54536,497.50642.06542,4.53162.08264,9.09078.09641,13.67749.09642,29.53124.19628,60.068,13.90131,86.84444,24.69661,48.25687,66.71389,83.3872,132.23978,110.57,45.43666,18.84269,95.26719,27.62355,156.82275,27.62355q7.13833,0,14.32486-.15151c50.44347-1.033,78.32185-31.97611,105.28081-61.9068,9.60386-10.661,19.5314-21.68012,30.27848-31.04637,10.48883-9.1321,18.66019-20.92944,26.563-32.34112,3.69485-5.33739,7.51711-10.86072,11.49088-15.97084a11.68885,11.68885,0,0,1,1.72174-1.70107,12.34012,12.34012,0,0,1,.80577,2.89251c6.18448,53.42208,19.66913,104.26844,40.07516,151.13413,1.75962,4.02887,1.7975,6.522.1584,10.25467-101.86488,232.20043-112.61541,465.7989-31.94512,694.301a11.28658,11.28658,0,0,0,1.83538,3.01648c.23071.29614.55095.71624.792,1.07436a10.8884,10.8884,0,0,1-1.78028.72313c-21.17049,6.83875-42.26177,13.9323-63.35306,21.02586-18.11957,6.095-36.24258,12.18991-54.4138,18.11957-25.22,8.223-50.84291,21.34955-49.66868,56.32148,1.13979,34.1455,19.30756,57.70576,52.54054,68.13949,12.62034,3.95311,26.43212,5.79881,43.47388,5.79881,9.82768,0,19.80687-.59916,29.45549-1.17767,9.535-.57161,19.39365-1.16389,28.99061-1.16389,2.073,0,4.14939.02755,6.32222.08953l40.70533-.01377q21.83335,0,43.67359.06887a24.94782,24.94782,0,0,1,2.562.14462q-.92975.78511-1.8767,1.54957c-26.44589,21.30822-56.42134,45.46076-46.07714,86.95463,9.807,39.31072,44.84782,50.30229,79.899,58.18785a270.13734,270.13734,0,0,0,59.14513,6.39109,334.96516,334.96516,0,0,0,54.08667-4.60737c48.01237-7.89245,109.685-22.65118,160.83784-67.03758,2.87874-2.5,4.57982-5.79192,6.2258-8.98058,2.93729-5.68862,5.05847-9.80013,12.62378-9.80013a25.64758,25.64758,0,0,1,3.47447.25482,1555.97881,1555.97881,0,0,0,210.55474,14.71741,1375.15024,1375.15024,0,0,0,292.91233-31.17034,18.91256,18.91256,0,0,0,3.17833-.86087,5.02169,5.02169,0,0,1,.28581,1.949c.458,17.03143,11.18441,28.45,20.65052,38.53249,38.96637,41.487,112.71528,68.291,187.88979,68.291,46.30441-.00689,88.2907-10.43373,118.22828-29.37285,26.17385-16.55622,41.89332-39.29694,44.26587-64.028,2.37256-24.68972-8.7051-49.95106-31.191-71.12843-14.06315-13.24361-31.04293-23.92527-51.83119-32.59594l82.04769-2.12806q62.31312-1.60122,124.61937-3.27131c35.20953-.95728,69.21041-29.17312,72.75719-60.37789,3.31262-29.13869-18.41571-55.08183-55.347-66.10784-19.43153-5.79193-38.808-11.78357-58.1844-17.77522-28.2365-8.72577-57.43373-17.75456-86.34515-26.00512-10.39585-2.97517-10.91237-5.4889-8.74642-15.91575,2.24859-10.79185,5.14111-12.61,10.76774-12.61a37.25952,37.25952,0,0,1,6.69756.73c17.95428,3.34017,38.09517,5.44758,63.39094,6.639,18.97011.89531,37.81969,1.34985,56.02879,1.343,197.108,0,357.29155-52.18931,489.707-159.52932,90.96628-73.74547,142.50478-164.32953,153.17955-269.23845C2825.32457,1979.221,2724.33088,1834.36781,2584.54645,1810.11886Zm-377.03988,872.87966c1.4256,13.20228-4.76577,23.19525-20.072,32.38933-17.31035,10.39929-36.80386,11.515-48.918,12.21056h-58.42889c-37.66473,0-72.59534-.00689-107.526-.062a24.93856,24.93856,0,0,1-4.597-.57162,9.22332,9.22332,0,0,1,.947-2.56883c21.13261-33.64964,37.75082-72.84328,52.29606-123.35217,1.56334-5.42692,2.12462-5.42692,3.14045-5.42692a13.29783,13.29783,0,0,1,3.96.87464c17.99561,6.19137,35.9981,13.42956,53.40831,20.43358,32.02776,12.8786,65.1471,26.20485,99.98819,33.7254C2195.37176,2653.59124,2205.74007,2666.5938,2207.50657,2682.99852Zm-278.0744,44.66187a10.78132,10.78132,0,0,1-1.99033,1.79061,7.247,7.247,0,0,1-.5303-1.61843c-22.0348-129.0408-3.929-228.5228,56.97574-313.09455,2.19005-3.044,8.85662-12.307.2376-19.38677a12.90254,12.90254,0,0,0-8.2058-3.2713c-5.69551,0-9.95164,4.4352-13.49153,8.588-39.02147,45.82577-60.69814,102.25056-70.28822,182.95873-6.07085,51.05985-2.82709,104.76429,9.91721,164.1849,2.55506,11.9282,9.43512,15.86065,19.71045,18.33306,41.00835,9.86212,70.67733,31.64554,88.184,64.73045,13.13686,24.81368,5.53022,46.73485-22.603,65.15055-26.09466,17.07964-64.207,26.48721-107.309,26.48721-63.99355,0-126.99537-20.71594-160.50383-52.78847-25.87427-24.75859-30.7399-55.922-35.89479-88.91742-1.40493-8.98747-2.85464-18.278-4.76232-27.27232-13.94608-65.77727-27.2069-132.863-40.0304-197.73813-9.51432-48.11912-19.34889-97.87734-29.39351-146.74714-10.2099-49.66869-29.77228-94.22037-58.14652-132.4154-39.54831-53.2499-91.2762-82.56765-145.65556-82.56765-60.44677,0-116.3447,36.673-153.35862,100.63212-30.40244,52.51989-40.04761,111.18293-49.37254,167.91074-2.91663,17.727-5.92967,36.05319-9.5281,53.86284-15.59206,77.15451-30.13041,155.85858-44.19356,231.97316q-10.8986,58.9764-21.96249,117.92525c-.55784,2.95451-2.71346,6.48062-4.61425,7.5481-62.77456,35.21987-127.10212,53.07773-191.19552,53.07773a366.43717,366.43717,0,0,1-59.06938-4.86907c-6.639-1.095-13.34-3.56745-19.8172-5.971l-.81266-.29614c-23.63946-8.73265-37.52011-20.78482-40.14059-34.848-2.63082-14.08381,6.002-30.36456,24.95831-47.08608,17.35856-15.30969,34.97882-25.72965,53.86972-31.86592,15.09964-4.9104,18.7635-17.424,21.00865-28.76679,17.3379-87.423,4.94827-176.19575-40.17159-287.8401-5.5922-13.83588-12.43438-27.36186-19.0493-40.44017l-3.73617-7.40348-.75757-1.56333c-2.03165-4.24237-5.09978-10.66789-11.48054-10.66789a10.88939,10.88939,0,0,0-4.77266,1.19833,9.66869,9.66869,0,0,0-5.33394,5.65419c-1.33263,4.201.96761,8.41585,2.81676,11.80423.46143.84709.90908,1.66664,1.2672,2.43109,45.0441,97.24374,63.86269,189.9421,57.51981,283.37736-.16873,2.48619-.24449,5.19276-.32713,7.982-.303,10.64034-.68525,23.88395-7.20031,26.34947a4.24754,4.24754,0,0,1-1.51857.27548c-5.29606,0-12.44816-8.84973-18.19532-15.96395-1.9559-2.41732-3.84981-4.76577-5.65763-6.78365-76.39006-85.4395-99.56465-191.25061-112.15744-283.48754-4.01164-29.35907-6.16726-59.5308-8.254-88.71081-.97106-13.53286-1.93867-27.06572-3.07158-40.19913,2.81677-127.67029,26.51476-250.27178,70.43973-364.40921a28.3557,28.3557,0,0,1,1.97656-3.96689,33.24237,33.24237,0,0,1,2.54128,3.71207c12.734,22.22419,29.05949,47.47175,53.5977,66.24558,4.3801,3.347,7.47578,4.77954,10.34764,4.77954,6.93172,0,8.953-8.27123,9.61763-10.98469,3.78438-15.49564,7.82357-30.92929,11.85933-46.35606l3.57088-13.71192q6.064,4.9896,12.10726,10.00674c11.62173,9.62107,23.63946,19.56583,35.71572,29.06293,118.1663,92.87053,265.71233,144.01991,415.45874,144.01991A668.37386,668.37386,0,0,0,1788.811,1990.63272a29.63517,29.63517,0,0,1,3.32984-2.36222,25.79389,25.79389,0,0,1,.94695,3.66385c.59572,3.51923,1.09158,7.05913,1.584,10.59213.74379,5.29607,1.50824,10.77119,2.6136,16.13613,1.62876,7.89933,3.6122,15.81932,5.53366,23.47761.83677,3.34706,3.72929,15.16507,3.72929,15.16507l4.263-3.09913c3.106-2.26581,6.31878-4.42142,9.5281-6.577,7.03846-4.72445,14.31452-9.61418,20.51278-15.64026,44.45182-43.23628,77.9465-97.75338,102.40207-166.65043a13.263,13.263,0,0,1,.71279-1.62532c101.09011,264.025,111.94739,525.77735,32.255,777.97748C1966.62514,2672.05515,1950.885,2700.98035,1929.43217,2727.66039ZM1387.36373,2854.0015c-79.97471-.53029-152.36345-6.033-221.29838-16.82482-2.05231-.3168-4.85874-.86087-5.56121-1.8457-.29614-.41322-.70247-1.61155-.09986-4.938q14.57622-80.61864,28.87354-161.29238c17.84064-100.17069,36.29078-203.75043,55.38485-305.42937,15.017-79.93683,88.47666-147.47027,160.41774-147.47027q4.11667,0,8.21958.30991c59.82005,4.51784,96.55849,44.5999,124.609,83.20814,37.29972,51.34222,48.11912,112.31239,58.58384,171.27157,2.531,14.26976,5.15144,29.0285,8.10594,43.44977q15.02561,73.3047,29.70686,146.68516,15.3975,76.50714,30.99473,152.97295c1.6081,7.83046.6818,9.38691-6.59082,11.0811C1567.02017,2846.68067,1471.48439,2850.5718,1387.36373,2854.0015ZM612.8986,2723.907c.92973-12.35518,4.85185-21.70766,20.98453-27.20345,36.83486-12.54114,73.377-27.76818,108.714-42.49937l15.50941-6.45307a12.80743,12.80743,0,0,1,4.022-1.19145c.25826,0,.73691,0,2.29336,3.41593,24.4349,53.53915,50.25408,93.22865,81.24191,124.87419a6.52182,6.52182,0,0,1-1.00549.08953q-15.60929.08263-31.22544.06887l-28.4741-.00689-.00688,4.263c-10.85728-.01377-21.718-.08264-32.57528-.15151-12.04872-.08264-24.09744-.1584-36.14271-.1584-18.19877,0-33.18133.17906-47.14807.56473l-1.83193.02755c-16.47014,0-31.16689-6.07429-41.39057-17.09341C616.40061,2752.25369,611.79668,2738.56244,612.8986,2723.907ZM689.52281,1386.84c-4.55916-15.79866-5.58188-32.07941-6.65968-49.24858l-.42011-5.91589C698.62047,1159.92186,769.959,1031.42513,900.539,938.83008a158.18868,158.18868,0,0,1,84.03113-29.27642C817.70617,1025.13046,718.46177,1185.68594,689.52281,1386.84Zm468.1749-559.88842c-45.94974,13.92542-88.49043,32.24471-126.43753,54.44823a33.05883,33.05883,0,0,1-17.59616,4.68313,82.77256,82.77256,0,0,1-10.57147-.83332,170.30316,170.30316,0,0,0-21.64224-1.40494c-47.45453,0-92.09575,19.96527-140.49379,62.82276C723.36528,1050.805,660.37723,1180.58271,653.7451,1332.40553c-1.72174,39.4278,7.47923,77.07187,27.35152,111.8854,5.303,9.2905,4.78643,22.18287,4.23892,35.83969a183.80522,183.80522,0,0,0-.08953,19.9515c1.00205,14.34552,2.24859,28.67726,3.49513,43.009l1.22932,14.22844c.56129,6.6459-3.30918,10.89515-7.78914,15.81932-3.28852,3.60876-6.68723,7.34149-8.557,12.31387-26.75924,71.27305-31.92446,142.05713-15.34757,210.38256,10.05839,41.45256-2.56883,67.2373-39.73426,81.14894a227.0701,227.0701,0,0,1-80.89412,14.90336c-50.36771,0-101.82356-15.92263-166.85015-51.6108-67.77448-37.20331-95.31884-97.54677-89.30653-195.66516,14.19745-231.89051,109.09274-447.65178,290.11279-659.61835C668.8103,871.1658,771.15728,795.554,884.49582,753.83971c35.96021-13.23672,70.05406-19.66913,104.22711-19.66913l5.89523.00688c68.68356,0,124.68135,28.06433,166.43349,83.40786,3.71551,4.92417,3.53989,6.17759,3.5089,6.30156C1164.44692,824.14858,1163.62048,825.15408,1157.69771,826.95157ZM689.32309,1790.20868a17.93466,17.93466,0,0,1-1.72174-4.51095c-14.04594-74.93-6.942-141.29956,21.718-202.90333,9.139-19.64159,6.37043-38.52561,3.69485-56.79669-.99861-6.81808-2.03165-13.86343-2.36912-20.70906C695.10468,1190.60322,907.09191,912.033,1214.701,842.90175c46.39395-10.42684,94.01032-15.02733,164.32264-15.88131h1.80094c178.24806,0,348.8757,81.8583,468.137,224.59035,125.098,149.71541,176.97741,345.56651,142.3395,537.34743-2.30713,12.80284,1.50479,23.40874,5.19276,33.66341.64048,1.79061,1.28441,3.57433,1.89046,5.36493,21.07063,62.25115,18.70841,126.64414,14.29731,175.78253a25.54345,25.54345,0,0,1-.86775,4.40765,32.21224,32.21224,0,0,1-2.66181-3.292c-13.12308-19.07-31.921-42.45805-61.09414-54.19342-4.28712-1.72174-7.56187-2.52751-10.30976-2.52751a9.92439,9.92439,0,0,0-7.34493,2.8512c-2.68591,2.71346-3.90146,7.04535-3.82915,13.64305.90219,83.15993-31.06015,159.915-97.70861,234.65218a39.32032,39.32032,0,0,1-5.95032,5.11011,59.76249,59.76249,0,0,1-1.82849-7.65828c-5.055-33.63587-10.78152-71.762-23.58092-107.96673-.241-.68181-.47175-1.40494-.70247-2.14873-1.49791-4.71067-3.75683-11.83866-11.30148-11.83866a13.96284,13.96284,0,0,0-4.2768.7369c-9.97575,3.20932-7.64452,12.7202-6.39109,17.83031l.36845,1.52891c14.225,61.31452,14.225,61.31452-36.69711,98.60735-109.85031,80.45336-241.57357,122.98028-380.92757,122.98028-171.28535,0-331.33808-63.98666-450.67516-180.16951-4.07018-3.96-4.91039-7.16932-3.45724-13.20229,5.0619-21.03274,9.87588-42.48559,14.53146-63.236l5.84013-25.90182c1.07093-4.72445,3.91868-17.27936-9.139-20.30273a16.77848,16.77848,0,0,0-3.79815-.46142c-10.27878,0-12.33453,10.91581-13.10587,15.02044q-6.8594,36.51806-13.674,73.043-8.87383,47.50964-17.80621,95.01926a40.01506,40.01506,0,0,1-1.96967,6.42552,30.24044,30.24044,0,0,1-5.03091-4.62114c-60.24705-75.26748-78.63176-164.77718-88.66605-242.40688-.29269-2.252-.40289-4.74511-.52-7.29329-.46487-10.03428-1.04338-22.52032-12.74775-25.4335a9.03258,9.03258,0,0,0-2.17628-.26171c-7.7547,0-17.72012,9.69683-26.44589,19.17327-9.139,9.93787-17.57205,20.72972-25.7262,31.16345-3.52268,4.50407-7.04879,9.015-10.6369,13.47088C691.372,1787.76382,690.34924,1788.98969,689.32309,1790.20868ZM2421.7596,1676.19522c3.12323,48.2913-8.48128,115.03273-81.514,158.71666-64.84408,38.78042-120.20828,56.84489-174.233,56.84489a244.87721,244.87721,0,0,1-73.69037-11.5563c-40.4264-12.76152-52.12044-32.07253-48.11912-79.47541,4.84841-57.40962,6.0915-125.05325-21.446-191.45723-5.15832-12.43783-1.4738-28.71858,2.42765-45.9635,2.19-9.68994,4.4593-19.71046,5.09635-29.24888,1.80093-27.01751,3.43658-58.89032,1.89735-90.43255-.49586-10.08938,2.2176-18.946,5.086-28.31914a137.1027,137.1027,0,0,0,4.46275-17.22427c23.2228-136.38228-16.89025-262.95065-126.23436-398.30678-37.51667-46.43182-97.36427-108.8-183.63365-114.23385-37.91611-2.38977-71.26617-18.12645-103.51431-33.34661-27.67866-13.06455-56.30082-26.56986-87.70532-31.62488-.39944-.06887-.71968-.13774-.9745-.20661a31.41794,31.41794,0,0,1,2.69624-3.12667,27.06822,27.06822,0,0,0,1.95589-2.2176c39.88922-53.40142,97.05436-81.631,165.32125-81.631,29.06293,0,60.037,5.12389,92.06131,15.22705,113.373,35.77082,215.14145,107.48464,320.27075,225.69226,149.20234,167.773,245.56111,354.59531,286.40417,555.27416C2417.69974,1575.39781,2421.5771,1617.81454,2421.7596,1676.19522ZM1738.07136,912.0123c36.09451,7.21064,70.20557,25.66766,104.2822,56.42479,104.32353,94.15838,164.17113,212.24892,177.87272,350.35294l-1.01927,12.80973q-.92975-3.67762-1.80094-7.369c-40.38163-171.76054-134.56757-310.36731-279.94076-411.97049-.21006-.14463-.42011-.303-.63016-.46143C1737.25181,911.86079,1737.665,911.92966,1738.07136,912.0123Zm302.1133,1606.03c1.19833-6.08807,2.52751-6.39109,6.19826-6.39109.70935,0,1.48069.03443,2.31746.09642,11.12586.88153,22.48589,1.32918,33.76671,1.32918,217.50023-.00689,427.49713-161.76758,468.11981-360.60762,20.01692-97.98065-.58539-181.40916-61.23532-247.97843-14.84827-16.29452-14.10448-30.79844,2.40354-47.03787,17.851-17.548,38.73221-26.08088,63.83859-26.08088,15.44743,0,32.29291,3.01648,54.6204,9.77947,125.53534,38.03663,199.65614,178.68882,168.74407,320.21565-25.10638,114.91566-96.02476,202.13889-223.18541,274.49319-112.76693,64.15883-239.08393,95.5771-386.19264,96.0523l-6.96615.02755a825.92567,825.92567,0,0,1-115.18769-8.18859c-.72657-.1033-1.47381-.17906-2.22449-.25482-1.9249-.19972-4.325-.44765-4.92072-1.25342C2040.1089,2522.00916,2039.59583,2521.02433,2040.18466,2518.04228Z"/>
    <path d="M1379.01412,823.49444c382.01927-1.16461,688.00289,366.09729,615.75881,766.09209-2.53307,14.02506,2.95849,25.46866,6.95248,37.271,19.61853,57.97354,19.84355,117.33771,14.46851,177.22965-.33653,3.74893-1.77627,7.39894-2.70255,11.09491-2.43129-2.75609-5.17578-5.2966-7.24406-8.30247-15.506-22.53465-33.38048-42.40954-59.50574-52.91384-10.13069-4.07329-16.79817-3.84369-16.64086,10.6493,1.00916,92.99315-38.32322,169.45037-98.6058,237.04472-3.003,3.367-7.022,5.82766-10.568,8.71028-1.13069-4.359-2.663-8.65732-3.32823-13.08617-5.45105-36.28888-11.11953-72.52794-23.416-107.30779-1.98926-5.6264-3.20427-13.87-11.87647-11.07844-7.51346,2.41855-4.987,9.52734-3.6805,15.15975,14.75694,63.62326,14.77441,63.61925-38.03752,102.29919-252.30553,184.79106-612.80118,159.93305-836.14278-57.50388-5.22259-5.08445-6.0846-9.67678-4.42886-16.558,7.12569-29.61438,13.61223-59.38221,20.35858-89.08792,1.57515-6.93558,2.25007-14.06542-6.4947-16.09419-8.94289-2.07472-11.3477,4.89708-12.64115,11.78214q-15.78479,84.0202-31.48111,168.0573c-.74807,3.96593-2.5146,7.73977-3.80747,11.60292-3.163-2.72917-6.84569-5.04266-9.41233-8.24907-57.12569-71.36675-78.01011-155.96883-89.40877-244.15508-1.39078-10.76053,1.07523-26.84341-10.623-29.75695-6.60629-1.6453-18.062,10.1523-25.17435,17.88148-12.91741,14.03779-24.21537,29.56485-36.20907,44.45435-2.13742,2.65359-4.37068,5.23-6.55977,7.84225-1.51174-3.40252-3.759-6.66733-4.42657-10.228-13.22381-70.53451-8.501-139.50375,21.98806-205.03884,12.08374-25.97367,2.23246-50.8656.99885-75.84342a648.83452,648.83452,0,0,1,506.807-666.00017C1261.0138,828.88079,1308.75787,824.34743,1379.01412,823.49444Z" style="fill: #666f75"/>
    <path d="M727.81634,2329.22757c2.78343-126.13917,25.41892-247.99863,70.67466-365.59958,1.21321-3.15287,3.21915-6.00057,4.85549-8.99055,2.02047,2.74148,4.33346,5.3152,6.01525,8.2505,14.07143,24.55913,29.79231,47.686,52.68073,65.19756,7.53107,5.76181,11.8351,6.23848,14.39709-4.24678,5.34583-21.87948,11.19281-43.63643,16.83395-65.44376,17.32881,14.18694,34.418,28.6785,52.02235,42.515,249.13118,195.8111,600.05984,190.34387,841.24241-12.97166a80.21677,80.21677,0,0,1,7.5554-5.06671,72.45205,72.45205,0,0,1,2.47337,8.47409c1.49513,8.85171,2.36459,17.82337,4.17349,26.60493,2.30891,11.209,5.29731,22.27771,7.9927,33.40711,9.94432-7.23876,20.93173-13.4051,29.65962-21.89465,47.75938-46.45464,79.42172-102.98943,101.53881-165.31009.93459-2.63327,2.6828-4.97767,4.05211-7.45663a30.78,30.78,0,0,1,2.90882,4.79588c98.51648,256.75042,116.18955,517.00814,32.691,781.25785-10.02148,31.71544-26.35572,60.9462-47.4021,87.1217-1.5962,1.9854-4.04409,3.28543-6.09605,4.90409-.90438-2.11423-2.2704-4.15-2.64673-6.35414-19.16648-112.23478-11.63341-219.62817,57.586-315.74528,3.44317-4.781,6.16576-10.24707.866-14.59663-7.04466-5.78185-12.37818-.29029-16.777,4.87547-44.43145,52.17665-61.61811,114.9777-69.47382,181.08336-6.51632,54.83511-1.68867,109.16034,9.86229,163.03353,2.11695,9.874,7.22345,13.26453,17.092,15.63986,39.18753,9.43143,71.51648,30.68423,90.4744,66.50731,15.47324,29.23906,2.31449,52.66563-23.789,69.75353-69.96223,45.79846-211.6651,31.21873-272.18415-26.69912-34.20571-32.73548-33.02721-77.25281-41.66849-118.012-24.29374-114.5895-45.84227-229.75786-69.42773-344.502-9.7694-47.52821-28.37333-91.78445-57.52235-131.02752-85.41456-114.99344-221.18442-106.58319-293.13362,17.73233-39.55212,68.33869-43.417,146.10253-58.49186,220.69974-23.50774,116.32582-44.08475,233.24311-66.14946,349.86353-.69152,3.655-3.28314,8.24392-6.35313,9.96593-78.75654,44.18782-162.45338,63.39939-252.5642,48.61238-7.25336-1.19038-14.33216-3.87289-21.27884-6.43916-50.701-18.73405-56.91234-52.06042-16.29238-87.88236,16.25208-14.333,34.36853-25.844,55.1093-32.5806,12.9197-4.19611,16.39351-14.74779,18.64487-26.10107,19.80877-99.88837-2.84512-193.93219-39.98469-285.826-6.57258-16.26195-14.78171-31.88234-22.66584-47.5826-2.46565-4.91011-5.273-12.89837-12.3132-9.44976-7.46565,3.65674-1.8623,10.35786.4,15.24192,41.906,90.45894,64.64388,184.81882,57.84041,285.09769-.9091,13.39766.87246,33.3573-9.79831,37.38965-9.775,3.69367-20.56235-13.70427-29.248-23.41913-72.609-81.209-98.79991-181.17669-113.02494-285.36509C733.31964,2415.81792,731.481,2372.39821,727.81634,2329.22757ZM1942.6919,2880.492c-2.17993-27.41627-8.43087-51.85028-32.44261-67.78015-4.51131-2.99313-9.41054-4.83138-13.629.20384-3.84827,4.59347-1.74063,8.77555,2.11437,12.25537,21.47452,19.38535,27.5272,43.41856,21.84555,71.17923-1.213,5.92672.42986,11.4489,7.08016,12.75781,6.31363,1.24248,10.62583-2.44861,11.93545-8.55826C1941.06178,2893.711,1941.764,2886.7081,1942.6919,2880.492ZM879.15241,2873.5827c.01131,14.23648-.12353,25.59835,9.82193,32.97711,2.77756,2.061,7.90381,2.10306,11.57229,1.31091,1.71486-.37046,4.32723-5.99313,3.47739-7.43774-16.71329-28.40682-.92772-46.641,19.22889-63.80047,3.20756-2.73089,6.6984-6.44432,3.38119-11.03579-3.59934-4.98254-8.87-4.59977-13.649-1.85543C892.51242,2835.49738,878.00168,2851.1756,879.15241,2873.5827Zm142.09294-45.86259c-15.97925,2.726-26.6015,9.696-29.30934,24.70456-3.23891,17.95105-7.73276,36.67221,9.87933,50.39852,2.03564,1.58632,7.71844.58975,10.38678-1.19153,4.7578-3.17664,2.35284-8.00916,1.02762-12.64329-5.03707-17.61323-6.62468-34.46493,11.54624-46.6264,2.31048-1.54652,4.66548-6.3905,3.84355-8.4426C1027.46665,2831.04132,1023.35385,2829.34908,1021.24535,2827.72011Zm803.76687,57.83254c-.76968,4.07042-2.23132,10.497-3.133,17.00143-.6639,4.78987,1.42342,8.58746,6.37332,9.7203,4.77827,1.09333,9.31378-.75351,10.10808-5.586,4.89679-29.7956,1.29316-57.61238-21.06986-80.25138-3.77684-3.82336-9.04824-5.67993-13.5325-1.09705-4.4864,4.5846-.95219,8.56542,2.32794,12.10307C1818.01194,2850.30557,1823.82456,2865.65714,1825.01222,2885.55265Z" style="fill: #666f75"/>
    <path d="M992.26924,730.6148c71.46495-.58832,128.50419,27.726,171.60082,84.85015,6.97524,9.24535,5.33181,11.68323-5.14858,14.859-43.88607,13.29789-86.06544,30.93932-125.68269,54.11725-10.14486,5.93516-18.99628,5.78013-30.3968,4.30776-63.49042-8.19926-114.939,21.22846-159.346,60.55512-114.62765,101.51391-179.28813,229.03585-186.02711,383.2506-1.67864,38.41427,6.94991,75.05814,26.88986,109.98385,8.59627,15.05655,3.253,37.97281,4.60328,57.29332,1.33367,19.08159,3.10027,38.13313,4.72009,57.19411,1.15223,13.55855-12.45062,18.73677-16.55519,29.66892-25.54352,68.03251-32.38227,137.57833-15.22324,208.30495,9.97632,41.12054-1.26517,70.07331-41.9255,85.28717-89.90891,33.64129-171.2645,6.6722-250.67892-36.91914-80.48585-44.17908-96.14231-117.08992-91.12842-198.97185,15.68387-256.13691,127.7924-470.63682,290.951-661.69183C655.40873,881.43,756.02362,797.36375,883.27809,750.53207,918.31475,737.63785,954.62938,730.1702,992.26924,730.6148Z" style="fill: #666f75"/>
    <path d="M2425.27791,1675.966c3.5448,54.77585-12.99657,119.96524-83.22161,161.969-78.20386,46.77627-159.615,74.39953-250.79365,45.624-43.8145-13.82766-54.48813-36.76254-50.57345-83.133,5.43029-64.32123,4.64243-127.50648-21.19067-189.80881-8.68551-20.947,5.53049-50.85229,7.2631-76.7979,1.99929-29.9406,3.35557-60.10752,1.89279-90.02464-.832-17.01847,6.96464-30.83611,9.59877-46.30663,26.10192-153.3035-32.59076-280.47688-125.5059-395.5001-46.74279-57.8646-103.7083-108.052-181.10683-112.93074-71.3042-4.49457-124.1761-54.156-191.564-65.01462-9.58116-1.54395-.68394-8.31864,1.41712-11.1317,57.832-77.43045,150.82054-102.50775,261.2666-67.66,130.98973,41.32924,232.56691,126.325,321.84463,226.71334,143.07361,160.87966,243.94939,344.27092,287.22538,556.90925C2420.33259,1570.65008,2425.08924,1612.96215,2425.27791,1675.966Z" style="fill: #666f75"/>
    <path d="M2169.6128,2535.436a823.52562,823.52562,0,0,1-122.68326-8.19411c-5.38734-.76181-12.149.00315-10.204-9.8789,1.53063-7.77612,4.074-9.7724,12.25394-9.126,224.55688,17.75065,455.27638-146.59064,498.15214-356.46931,18.43316-90.23134,3.96937-174.27087-60.38679-244.90015-16.95734-18.61037-14.55683-35.11452,2.53765-51.92529,36.50359-35.89695,79.67709-29.9731,121.95594-17.1639,128.17124,38.831,202.68027,180.04542,171.16209,324.33689-28.32065,129.65306-114.44578,213.97372-224.88411,276.80969C2437.527,2507.19526,2306.79634,2534.99659,2169.6128,2535.436Z" style="fill: #666f75"/>
    <path d="M2138.51631,2731.12346c-61.44,0-113.69771.02262-165.95524-.0584-2.97738-.00458-5.95333-.85657-8.93-1.31406.74077-2.42427.99327-5.15545,2.29459-7.2276,23.88792-38.03493,39.54209-79.56314,51.89366-122.45694,1.91067-6.635,3.27855-9.78014,11.63627-6.90667,51.11854,17.57515,99.53595,42.50359,152.992,54.03952,15.55769,3.35728,26.6619,17.75723,28.566,35.42028,1.84254,17.09447-8.42972,27.78214-21.76267,35.79245C2170.84326,2729.4713,2150.04537,2730.46042,2138.51631,2731.12346Zm-84.31336-30.50731c-.03092-17.801-6.06-32.88406-20.42843-43.96136-4.26253-3.286-9.87175-5.00315-13.91112-.84139-5.33166,5.49356,1.482,7.99628,4.43717,10.86888,9.5,9.23361,15.25379,20.11509,13.12725,33.46751-.92127,5.78443-7.10435,11.36731-.43716,16.795,2.23963,1.82307,6.95348,2.75207,9.493,1.661C2054.21726,2715.28378,2054.5286,2707.90216,2054.203,2700.61615Zm72.77056-9.88863c-.7369-12.651-5.02606-23.64358-14.20642-32.30033-4.50272-4.24534-10.18838-6.91268-15.44489-1.61723-5.14172,5.18036.6931,8.56771,2.89465,12.86774a198.08317,198.08317,0,0,1,11.10936,26.40023c1.79359,5.27112-10.05783,15.50216,2.62038,15.9167C2124.58358,2712.34189,2126.31018,2700.20791,2126.97351,2690.72752Z" style="fill: #666f75"/>
    <path d="M788.47146,2782.79138c-39.76512,0-79.55342-.844-119.28833.25251-35.13907.96937-62.41692-24.62812-59.80169-59.39538,1.0909-14.503,6.50452-24.54137,23.36524-30.28171,42.01969-14.30633,82.96552-31.834,124.00969-48.87033,6.65739-2.76352,8.26418-1.7034,10.87411,4.01489,20.69275,45.33812,45.45729,88.07045,80.66772,123.99287,1.24105,1.26625,1.89436,3.10879,2.82171,4.6828-2.14644.446-4.2908,1.268-6.43959,1.27942C825.94613,2778.56836,788.47317,2781.3694,788.47146,2782.79138Zm-79.2866-81.17551c-21.39966.35671-39.13678,35.63556-32.1123,59.4555,1.6367,5.55,3.696,11.01174,10.595,10.1357,6.62961-.842,8.64321-6.40481,8.14765-12.22818-1.42764-16.77441,4.63377-30.22875,16.30483-42.012,2.39815-2.42084,2.88241-7.716,2.48712-11.50244C714.4164,2703.63763,710.1339,2702.23826,709.18486,2701.61587Zm44.34957,38.24736c3.13427,10.9396-.43823,26.65331,13.733,26.23648,16.55712-.48669,5.40467-14.74979,6.519-23.01575.7676-5.69425,2.13691-11.30576,3.18966-16.96308,1.65617-8.8998,20.076-17.36015,7.27742-24.60006-11.87919-6.71915-18.65267,10.1483-24.60873,19.55483C756.0788,2726.70749,755.30361,2734.10629,753.53443,2739.86323Z" style="fill: #666f75"/>
    <path d="M1942.6919,2880.492c-.92786,6.21615-1.63012,13.219-3.09605,20.05784-1.30962,6.10965-5.62182,9.80074-11.93545,8.55826-6.6503-1.30891-8.29316-6.83109-7.08016-12.75781,5.68165-27.76067-.371-51.79388-21.84555-71.17923-3.855-3.47982-5.96264-7.6619-2.11437-12.25537,4.21843-5.03522,9.11766-3.197,13.629-.20384C1934.261,2828.64167,1940.512,2853.07568,1942.6919,2880.492Z" style="fill: #010202"/>
    <path d="M879.15241,2873.5827c-1.15073-22.4071,13.36-38.08532,33.83268-49.84141,4.779-2.74434,10.04967-3.12711,13.649,1.85543,3.31721,4.59147-.17363,8.3049-3.38119,11.03579-20.15661,17.15946-35.94218,35.39365-19.22889,63.80047.84984,1.44461-1.76253,7.06728-3.47739,7.43774-3.66848.79215-8.79473.75007-11.57229-1.31091C879.02888,2899.18105,879.16372,2887.81918,879.15241,2873.5827Z" style="fill: #010202"/>
    <path d="M1021.24535,2827.72011c2.1085,1.629,6.2213,3.32121,7.37418,6.19926.82193,2.0521-1.53307,6.89608-3.84355,8.4426-18.17092,12.16147-16.58331,29.01317-11.54624,46.6264,1.32522,4.63413,3.73018,9.46665-1.02762,12.64329-2.66834,1.78128-8.35114,2.77785-10.38678,1.19153-17.61209-13.72631-13.11824-32.44747-9.87933-50.39852C994.64385,2837.41607,1005.2661,2830.44613,1021.24535,2827.72011Z" style="fill: #010102"/>
    <path d="M1825.01222,2885.55265c-1.18766-19.89551-7.00028-35.24708-18.926-48.10966-3.28013-3.53765-6.81434-7.51847-2.32794-12.10307,4.48426-4.58288,9.75566-2.72631,13.5325,1.09705,22.363,22.639,25.96665,50.45578,21.06986,80.25138-.7943,4.83252-5.32981,6.67936-10.10808,5.586-4.9499-1.13284-7.03722-4.93043-6.37332-9.7203C1822.7809,2896.04964,1824.24254,2889.62307,1825.01222,2885.55265Z" style="fill: #030303"/>
    <path d="M2054.177,2700.61444c.35156,7.28772.04022,14.66934-7.69339,17.99141-2.53951,1.091-7.25336.162-9.493-1.661-6.66719-5.42772-.48411-11.0106.43716-16.795,2.12654-13.35242-3.62725-24.2339-13.12725-33.46751-2.9552-2.8726-9.76883-5.37532-4.43717-10.86888,4.03937-4.16176,9.64859-2.44461,13.91112.84139C2048.143,2667.73209,2054.172,2682.81512,2054.177,2700.61444Z" style="fill: #020303"/>
    <path d="M2126.97351,2690.72752c-.66333,9.48039-2.38993,21.61437-13.02692,21.26711-12.67821-.41454-.82679-10.64558-2.62038-15.9167a198.08317,198.08317,0,0,0-11.10936-26.40023c-2.20155-4.3-8.03637-7.68738-2.89465-12.86774,5.25651-5.29545,10.94217-2.62811,15.44489,1.61723C2121.94745,2667.08394,2126.23661,2678.0765,2126.97351,2690.72752Z" style="fill: #020303"/>
    <path d="M709.18486,2701.61587c.949.62239,5.23154,2.02176,5.42228,3.84855.39529,3.78643-.089,9.0816-2.48712,11.50244-11.67106,11.78328-17.73247,25.23762-16.30483,42.012.49556,5.82337-1.518,11.38621-8.14765,12.22818-6.899.876-8.95828-4.58575-10.595-10.1357C670.04808,2737.25143,687.7852,2701.97258,709.18486,2701.61587Z" style="fill: #020202"/>
    <path d="M753.53443,2739.86323c1.76918-5.75694,2.54437-13.15574,6.11029-18.78758,5.95606-9.40653,12.72954-26.274,24.60873-19.55483,12.7986,7.23991-5.62125,15.70026-7.27742,24.60006-1.05275,5.65732-2.42206,11.26883-3.18966,16.96308-1.1143,8.266,10.03815,22.52906-6.519,23.01575C753.0962,2766.51654,756.6687,2750.80283,753.53443,2739.86323Z" style="fill: #020202"/>
  </g>
  <g>
    <g>
      <path d="M632.77527,1824.03137c-6.06629-3.19909-13.81641,5.79785-26.6966,12.94385-85.59074,30.46941-234.3-14.56954-287.9998-95.45745-17.33943-26.46723-19.177-53.24116-22.6519-52.58747-2.771.52136-2.7474,17.49743,0,32.74389,26.49087,104.31005,136.18332,149.33706,236.22217,156.1377,14.95509.606,88.34188-2.715,101.12686-21.03433C640.70679,1845.72241,639.79266,1827.73206,632.77527,1824.03137Z" style="fill: #f4f4f4;opacity: 0.2"/>
      <path d="M2068.29224,1824.03137c6.06629-3.19909,13.81641,5.79785,26.6966,12.94385,85.59074,30.46941,234.3-14.56954,287.9998-95.45745,17.33943-26.46723,19.177-53.24116,22.6519-52.58747,2.771.52136,2.74741,17.49743,0,32.74389-26.49087,104.31005-136.18332,149.33706-236.22217,156.1377-14.95509.606-88.34188-2.715-101.12686-21.03433C2060.36072,1845.72241,2061.27485,1827.73206,2068.29224,1824.03137Z" style="fill: #f4f4f4;opacity: 0.2"/>
      <g>
        <g>
          <path d="M1388,2802a1421.26343,1421.26343,0,0,1-241-17l-8,67c45.06946,7.02441,82.84155,10.81567,110,13,178.14819,14.32861,314.595-7.10083,373-18,22.60217-4.218,41.03479-8.26172,53-11l-12-65A1421.715,1421.715,0,0,1,1388,2802Z" style="opacity: 0.21"/>
          <path d="M1156,1719a469.6437,469.6437,0,0,0,452,6l1-22a469.6437,469.6437,0,0,1-452-6Z" style="opacity: 0.2"/>
          <path d="M882.9483,1945,880,1969.20886c32.28052,32.50513,206.39355,201.33631,476.63794,196.69739,237.157-4.0708,393.87476-139.066,433.39648-175.51465L1792,1966.18286c-39.52173,36.44849-195.25684,171.4436-432.41382,175.51441C1089.3418,2146.33618,915.22882,1977.50513,882.9483,1945Z" style="opacity: 0.2"/>
          <g>
            <path d="M872.236,2528.23584c1.72565-.4248,11.19287,29.05322,18.342,59.59155,4.67041,19.9502,7.48187,36.63794,9.16364,48.00415,0,0,5.10742,36.38916-7.28089,123.77515-.67285,4.74609-2.01452,13.47412-7.28094,15.37085-6.66156,2.39917-18.721-6.44946-21.03369-17.79785-1.65943-8.14282,2.627-15.32666,4.045-17.79761,7.4101-12.91235,10.603-31.79932,16.98871-69.573,3.37366-19.9563,1.17047-38.92212-3.2359-76.854C877.264,2552.66919,870.68567,2528.61743,872.236,2528.23584Z" style="opacity: 0.2"/>
            <path d="M1929.81152,2500.73022c-1.72565-.4248-11.19287,29.05322-18.342,59.59155-4.67041,19.9502-7.48187,36.63794-9.16364,48.00415,0,0-5.10742,36.38917,7.28089,123.77515.67285,4.7461,2.01452,13.47412,7.28094,15.37085,6.66156,2.39917,18.721-6.44946,21.03369-17.79785,1.65943-8.14282-2.627-15.32666-4.045-17.79761-7.41009-12.91235-10.603-31.79931-16.98871-69.573-3.37365-19.95629-1.17047-38.92212,3.2359-76.854C1924.7835,2525.16357,1931.36181,2501.11181,1929.81152,2500.73022Z" style="opacity: 0.2"/>
            <path d="M861.77193,2729.52384a816.62,816.62,0,0,1-43.887-96.88284c-94.57133-253.68261-34.94345-500.40762,15.0695-641.44892a245.88193,245.88193,0,0,1-20.67587-27.549c-50.77018,138.63512-116.9866,392.58607-19.56337,653.919a816.62,816.62,0,0,0,43.887,96.88284,385.71747,385.71747,0,0,0,25.32685,35.52131c1.98963-3.63907,3.90228-7.50245,5.66492-11.50087C865.6747,2735.60247,863.73145,2732.63067,861.77193,2729.52384Z" style="fill: #f4f4f4;opacity: 0.2"/>
            <path d="M1942.56714,2700.01133a900.06377,900.06377,0,0,0,40.92632-109.85178c84.79306-286.10163.55756-552.88459-65.10846-704.18693a271.00867,271.00867,0,0,0,20.65024-31.85694c66.31659,148.59925,158.34354,422.82919,70.99346,717.55883a900.06516,900.06516,0,0,1-40.92632,109.85177,425.13,425.13,0,0,1-25.16112,40.97516c-2.46313-3.85091-4.85858-7.95429-7.09932-12.21751C1938.73569,2706.99061,1940.64758,2703.57583,1942.56714,2700.01133Z" style="opacity: 0.2"/>
            <path d="M778.09477,1249.59215c18.36647-49.01332,54.892-128.05348,125.8288-204.31944A598.64574,598.64574,0,0,1,1091.01113,910.2141,582.1498,582.1498,0,0,1,1274.7874,860h23.179c-4.90266,1.50684-12.42318,3.86612-21.52335,6.92608-62.06273,20.8685-181.19176,62.26669-289.73737,164.49446-62.40307,58.7711-102.15789,119.61126-125.8288,155.83686-29.08166,44.50634-41.05313,68.51893-41.39105,69.26083a80.51953,80.51953,0,0,1-8.27821,13.85217c-2.82543,3.824-5.45764,7.32556-9.93385,10.38912-4.00976,2.74418-7.96576,5.6416-13.24514,5.19456-6.74464-.57111-10.97874-6.10323-11.5895-6.92608C771.07809,1271.80389,771.66379,1259.97007,778.09477,1249.59215Z" style="fill: #f4f4f4;opacity: 0.2"/>
          </g>
        </g>
        <path d="M2489.16031,1903.83928a9.20119,9.20119,0,0,0-6.131,15.33931,236.77666,236.77666,0,0,1,31.45386,44.38318c45.8125,83.77087,26.10328,170.72143,19.41578,200.22485-24.78955,109.36353-98.39747,174.05713-141.97754,212.35938-101.74927,89.42675-208.627,111.00659-231.77539,115.281a464.16062,464.16062,0,0,1-115.05025,6.62718,9.18859,9.18859,0,0,0-9.48839,6.78453v0a9.19226,9.19226,0,0,0,8.02812,11.54864c9.61742.87881,21.62272,1.73045,35.34207,2.14071,41.6333,1.24511,303.92554,4.55395,449.2583-186.06739,19.814-25.98828,54.37329-77.77319,71.19116-150.47192,6.7461-29.16162,39.96363-172.75208-40.44946-250.7865a156.89349,156.89349,0,0,0-40.61752-28.313,9.16149,9.16149,0,0,0-4.70878-.89571Z" style="opacity: 0.2"/>
        <g style="opacity: 0.2">
          <path d="M2596.55542,2416.77026a450.83378,450.83378,0,0,0,56.689-49.93994,452.07936,452.07936,0,0,1-43.57031,36.82129Z" style="fill: #f4f4f4"/>
          <path d="M2772.01123,2036.37073c-13.3125-59.57031-42.51269-99.44031-50.15723-109.483-8.34741-10.96607-23.04419-29.901-48-47.86524-22.647-16.30225-43.16967-24.23364-55.01123-28.71912A186.847,186.847,0,0,0,2588.50562,1841s-30.67774-6.392-59.4607-1.2135a110.00889,110.00889,0,0,0-12.13476,2.96631q-3.5094,1.218-7.41578,2.69665c-1.88623.71753-3.00561,1.16761-3.50561,2.29212a4.15621,4.15621,0,0,0,.67407,4.04492c2.13892,2.61633,7.63672,1.43787,9.26343,1.11877,16.0647-3.15173,49.96265-.06518,59.46069,1.2135,8.96167,1.20643,16.08692,3.9054,30.33716,9.30335,11.02661,4.17676,32.2207,12.36267,55.01123,28.71912,24.9812,17.92883,39.65259,36.89917,48,47.86523,30.94361,40.65137,44.27759,82.89441,50.15723,109.483,18.24756,82.51685-5.35547,149.6731-14.83154,175.55054a371.49191,371.49191,0,0,1-29.12354,60.67407,437.41435,437.41435,0,0,1-61.48315,80.89893c-.06836.07129-.14136.14575-.21.21728,4.8855-4.689,9.33375-9.16479,13.32862-13.33594a437.3419,437.3419,0,0,0,61.48315-80.89892,371.59458,371.59458,0,0,0,29.12354-60.67407C2766.65576,2186.044,2790.44263,2118.84692,2772.01123,2036.37073Z" style="fill: #f4f4f4"/>
        </g>
        <path d="M1005.17975,904.86517c-63.78443,5.11182-106.84577,27.0177-129.43817,40.98877-22.05359,13.63788-37.27887,27.55359-49.618,38.83142-12.08832,11.04859-46.74207,44.04572-78.74158,97.07868-10.34393,17.14306-27.1153,42.02234-23.73035,44.764,5.43518,4.40222,58.09088-51.87244,62.02246-56.08985,37.30176-40.01343,36.23218-46.71258,62.56183-69.57306,25.5268-22.16339,51.0838-37.18335,60.40448-42.60675,17.36536-10.10431,26.77332-13.88519,57.16852-30.74157C982.70825,918.1449,996.3335,910.14465,1005.17975,904.86517Z" style="opacity: 0.2"/>
        <path d="M1698.75062,904.86517c63.78443,5.11182,106.84577,27.0177,129.43818,40.98877,22.05358,13.63788,37.27887,27.55359,49.618,38.83142,12.08831,11.04859,46.74206,44.04572,78.74157,97.07868,10.34394,17.14306,27.1153,42.02234,23.73035,44.764-5.43518,4.40222-58.09088-51.87244-62.02246-56.08985-37.30176-40.01343-36.23218-46.71258-62.56183-69.57306-25.52679-22.16339-51.0838-37.18335-60.40448-42.60675-17.36536-10.10431-26.77331-13.88519-57.16852-30.74157C1721.22212,918.1449,1707.59688,910.14465,1698.75062,904.86517Z" style="opacity: 0.2"/>
      </g>
    </g>
    <path d="M1139.60669,798.618c-47.19629-53.61481-114.77014-59.38995-129.84265-60.67413a213.6572,213.6572,0,0,0-66.3371,4.85388l-8.89886,2.427c-3.20234,1.29157-5.866,2.4884-7.88764,3.43817-2.97473,1.39752-4.059,2.025-4.4494,3.236-.68146,2.11384,1.326,4.47413,1.82019,5.05622,4.91931,5.79419,17.58563,2.70831,19.41571,2.2417a213.6572,213.6572,0,0,1,66.3371-4.85388c15.07251,1.28418,82.64636,7.05932,129.84265,60.67413a163.78112,163.78112,0,0,1,12.81128,16.59564l8.27173-2.79455A165.41059,165.41059,0,0,0,1139.60669,798.618Z" style="fill: #f4f4f4;opacity: 0.2"/>
    <path d="M1575.51676,797.15224c46.07006-52.33541,112.03142-57.97275,126.74426-59.22629a208.55891,208.55891,0,0,1,64.75412,4.73806l8.68651,2.36909c3.12592,1.26074,5.726,2.429,7.69942,3.35612,2.90374,1.36418,3.96216,1.97665,4.34322,3.15875.6652,2.06339-1.29434,4.36735-1.77675,4.93556-4.80193,5.65592-17.166,2.64368-18.9524,2.1882a208.55884,208.55884,0,0,0-64.75412-4.73805c-14.71284,1.25353-80.6742,6.89087-126.74426,59.22628a159.87319,159.87319,0,0,0-12.50556,16.19963l-8.07435-2.72787A161.46391,161.46391,0,0,1,1575.51676,797.15224Z" style="fill: #f4f4f4;opacity: 0.2"/>
  </g>
</svg>
