<svg id="Layer_1" data-name="Layer 1" xmlns="http://www.w3.org/2000/svg" viewBox="0 0 3000 3000"><title>elemental mouth</title><path d="M961.49,1766.53c-1-.18-3.19-91.84,49.75-176a309.85,309.85,0,0,1,58.25-68c8.15-7.07,35-29.65,76.45-48.54,50.63-23.1,93.17-27.1,103.15-27.91,23.9-2,52.59-4,86.15,8.49a164.43,164.43,0,0,1,35.19,18.2l13,7.69a207.6,207.6,0,0,1,22.11-16.59,180.57,180.57,0,0,1,39.37-20c20.72-7.32,37.71-8.52,48-9.17,36.31-2.3,64.19,5.64,79.82,10.25,31.93,9.4,54,22.45,66.88,30.2,38.15,22.92,61.93,48,75,62a375.68,375.68,0,0,1,53.94,73.89c22.76,41.26,31.38,76,33.43,84.67,2.74,11.53,4.38,21.38,5.4,28.59-2.16,5.35-5.38,12.94-9.71,21.84a363.68,363.68,0,0,1-67.15,94.65c-29.09,29.46-26.71,22.13-31.55,28.32-.52.66-2.22,2.91-4.85,3.23-3,.37-5.67-1.93-7.28-3.64v-15l.2-45.71-.2-15.57c-.83,1.48-2.47,4.36-4.65,7.88-35.46,57.17-91.26,83.48-108.21,91.22-8.56,3.91-9.62,3.31-15.23,6.4a6.56,6.56,0,0,1-3.91,1,7.08,7.08,0,0,1-4.59-3c-2.68-3.81-.39-8.77-.27-9l21-73.62,2.83-9.71c-3.36,1.85-8.23,4.44-14.22,7.28-11.48,5.43-39.2,17.5-93.38,24.81a544.61,544.61,0,0,1-93.57,4.58c-40.8-1.64-82.61-3.7-130.52-24.27a281.49,281.49,0,0,1-41.52-22.11q.51,8.52,1.41,17.39a417.35,417.35,0,0,0,14.56,74.23,6.11,6.11,0,0,1,1.22,4.25c-.61,3.83-6.23,5.73-8.4,6.47-18.35,6.22-60.16-38-60.16-38a468.17,468.17,0,0,1-62.43-83.19c-.28,9.62-.45,17.25-.54,21.84-.58,29.59-.26,43.15-5.12,61.75-.34,1.3-.64,2.35-.81,3a4.66,4.66,0,0,1-1.76,1.68,5.15,5.15,0,0,1-4.24.14c-3.86-1.6-6.54-3-6.54-3-19.23-15.47-25.15-23.59-25.15-23.59-26.48-36.36-25.77-35.16-27.3-37.62a354.74,354.74,0,0,1-27.91-54.61c-7.4-19.78-7-27.35-10.11-27.5C969.27,1716.8,962.23,1766.66,961.49,1766.53Z" style="fill:#fefefe"/><path d="M956.39,1719.87c16.83-126.2,105.1-233.86,223.41-272.42,51.41-16.75,103.08-19.12,155.07-2.59,16,5.07,30.69,12.76,45.18,21,2.35,1.33,3.8,1.52,6-.38,32.7-27.79,71.18-40.25,113.46-41.68,51.66-1.74,98.92,13.54,142.68,39.84,84.34,50.69,139.4,124,166.16,218.68a284.26,284.26,0,0,1,10.87,80.92c0,3.33.19,6.66.15,10-.08,5.82-3.7,9.79-8.62,9.58s-8.27-4.53-7.86-10.2A260.91,260.91,0,0,0,1786,1658.39c-31.28-80.48-82-145.58-157.88-188.9-42-24-87.28-36.68-136.08-34.07-38.75,2.06-73.2,15.61-103.29,40.15-8.82,7.19-9.91,7-19.36.93-19.27-12.43-40.57-20.1-63-24.35-52.23-9.92-102.35-1.61-150.65,19.29-82,35.48-180.45,125.67-189.83,271.35-.43,6.61.06,13.37-2.41,19.74-.58,1.5-.67,3.85-2.56,3.82s-2-2.36-2.74-3.81a28.75,28.75,0,0,1-2.32-8.63c-.16-1.05.81-2.9-1.44-3v-3c1.09-3.61.24-7.3.51-11a40.38,40.38,0,0,1,.19-6C957.09,1727.39,955.19,1723.46,956.39,1719.87Z"/></svg>