<svg id="Layer_1" data-name="Layer 1" xmlns="http://www.w3.org/2000/svg" viewBox="0 0 355.97 158.42"><title>mouth 5</title><path d="M1332.07,1539.35c-.29,7.61-2,15.14-1.1,22.82.22,1.85-1.14,3.36-1.91,5-4.07,1.7-5.74-.73-6.91-4a125.29,125.29,0,0,1,4-38.12,37.94,37.94,0,0,1,1.86-4.56,1,1,0,0,1,1.46.25,5,5,0,0,1,.27,4.07,94.57,94.57,0,0,0-3.49,37.75c2.14-3.47,1.2-7.26,1.41-10.92.25-4.27,0-8.61,2.84-12.28A1.31,1.31,0,0,1,1332.07,1539.35Z" transform="translate(-1322.01 -1420.79)" style="fill:#cacaca"/><path d="M1668,1536.31c0-.31-.07-.61-.13-.92a4.39,4.39,0,0,1-.33-3.77,1.31,1.31,0,0,1,1.41-.45,5.79,5.79,0,0,1,2.09,4.09,20.61,20.61,0,0,0,.77,5.23,12.3,12.3,0,0,1,.36,2.24c-.34,6.21,2.32,12.26,1,18.55,2.59-8,0-16,0-24a10.88,10.88,0,0,1-.32-1.37c-.25-1.76-.09-3.62-1.25-5.16a3.62,3.62,0,0,1-.25-1.34,8.66,8.66,0,0,1,1.19-3.92.79.79,0,0,1,1.17.07l1.35,6.72c1.6,3.29.76,7.09,2.21,10.41.11,2.8,0,5.61.05,8.41v5.84c-.11,2.68.5,5.45-1.05,7.94-1.23,1.34-2.81,1.28-4.42,1.08-3.57-1.84-1.39-5.11-1.94-7.7a6,6,0,0,0,0-5l-.12-4.9C1668.69,1544.41,1668.69,1540.31,1668,1536.31Z" transform="translate(-1322.01 -1420.79)" style="fill:#9b9b9b"/><path d="M1477.58,1570.16a30.43,30.43,0,0,0,3.94,0c8-1,15.56.8,22.58,4.52a10,10,0,0,0,7,.92c2.55-.39,5.61-.23,7.39,2.54-7.67,3-14.23-.65-20.86-3.6-1-.45-1.83-1.37-3.06-1.4-2.29-2.21-5.18-1.26-7.85-1.48-3-.24-6.11.54-9.1-.47h0a.62.62,0,0,1-.25-.68C1477.41,1570.27,1477.49,1570.16,1477.58,1570.16Z" transform="translate(-1322.01 -1420.79)" style="fill:#e7e4e4"/><path d="M1503.37,1562.39c-2.39-.6-3.66-2.71-5.45-4.09a16.47,16.47,0,0,0-14.37-3.15c-.54-.72-1.23-.63-2-.35-1.23.22-2.26,1.3-3.65.81l-.46-.47c6.52-6.1,15.23-6.47,22.37-1,1.81,1.39,3.64,2.75,5.47,4.13.34.16.5.37.47.64s-.09.43-.18.43a2.36,2.36,0,0,1-2,.37c-1.24-.52-2.08-1.61-3.24-2.22a8.45,8.45,0,0,0-3.12-2.12,9.83,9.83,0,0,0-4-1.91c-1.83-.72-3.5-1.93-5.61-1.75a11,11,0,0,1,5,1.61c1.65.64,3.46,1,4.78,2.28,1.4.24,2.13,1.45,3.2,2.19a10,10,0,0,1,2.45,2.17C1503.6,1560.76,1504.13,1561.51,1503.37,1562.39Z" transform="translate(-1322.01 -1420.79)" style="fill:#767676"/><path d="M1456.55,1513.68c-2.51-2.94-3.81-6.48-4.9-10.1-2-6.31-2.32-12.62,0-18.93a5.5,5.5,0,0,1,2-4c1-1.34,2.11-2.55,3-3.94l5-4a1.76,1.76,0,0,1,1.33,1.6,5.52,5.52,0,0,1-2,3.29c-8.48,7.48-9.05,16.58-5.54,26.53a39.72,39.72,0,0,0,2,5.36,5.72,5.72,0,0,1,.26,2.21A2.63,2.63,0,0,1,1456.55,1513.68Z" transform="translate(-1322.01 -1420.79)" style="fill:#cccbcb"/><path d="M1548.35,1474.73c6.84,7,9.7,15.23,7.05,24.73-1.69,6-2.45,12.74-8.09,17-1.46-2.88,1.77-4.55,1.81-7,.9-2.83,2.61-5.33,3.2-8.27.11-.45.25-.89.38-1.33.59-1.81.34-3.68.35-5.54a22.41,22.41,0,0,0-4.81-15.43c-.93-1.15-1.83-2.33-1.19-4A.82.82,0,0,1,1548.35,1474.73Z" transform="translate(-1322.01 -1420.79)" style="fill:#efefef"/><path d="M1513.57,1429.12c7.07-2.73,14.24-5.12,21.82-6.07,2-.79,4.11-.55,6.14-1,4.22,0,8.44,0,12.67,0,2.32.65,4.81.08,7.09,1h0a1,1,0,0,1-.37,1.5c-3.34,1.52-6.89.52-10.33.89-9.4-.38-18.5,1.4-27.53,3.69a19.07,19.07,0,0,0-5.52,1.25c-.41.2-.83.36-1.26.52-1.27.43-2.53,1.14-3.89.23C1511.94,1430,1512.73,1429.54,1513.57,1429.12Z" transform="translate(-1322.01 -1420.79)" style="fill:#848484"/><path d="M1608.08,1449.92c-10.57-6.57-22-11.21-33.82-15a.93.93,0,0,1,.14-1.35c2.68-1.53,4.94.33,7.36.91,9.57,2.28,18.09,6.87,26.38,12,1.24.76,2.52,1.67,2.1,3.51A1.82,1.82,0,0,1,1608.08,1449.92Z" transform="translate(-1322.01 -1420.79)" style="fill:#bababa"/><path d="M1630,1455.89a135.64,135.64,0,0,1,24,26.85,1.62,1.62,0,0,1,.27,2c-2.6.69-3.42-1.46-4.55-2.93-4.1-5.36-8.05-10.84-13.17-15.32-2.14-2.25-4.42-4.37-6.54-6.64-1.07-1.14-2.6-2.16-2-4.14A1.42,1.42,0,0,1,1630,1455.89Z" transform="translate(-1322.01 -1420.79)" style="fill:#aeaeae"/><path d="M1332.07,1539.35l-1.13,0c-1.8-2.24-1-4.61-.36-7,1.56-5.84,3.39-11.59,5.4-17.29.68-1.61,1.52-3.16,2.27-4.75,2.12-2.49,1.78-6.81,5.86-7.85a1,1,0,0,1,.08,1.33,280.51,280.51,0,0,0-11,29.87A41.19,41.19,0,0,0,1332.07,1539.35Z" transform="translate(-1322.01 -1420.79)" style="fill:#bcbcbc"/><path d="M1668,1531.34c0,1.35,0,2.7-.08,4.05-3.15-2.85-2.41-7.12-3.38-10.62-2.27-8.12-6.34-15.33-9.69-22.91-.32-.74-.53-1.53-.8-2.29,1.13-.45,1.93.15,2.71.82,4.24,5.83,6.41,12.66,9.23,19.18C1667,1523.43,1669.29,1527.08,1668,1531.34Z" transform="translate(-1322.01 -1420.79)" style="fill:#cecece"/><path d="M1521.9,1577.26l-12.12-7.27a3.82,3.82,0,0,1-1.85-3c.39-1.38,1.19-2.22,2.74-2a79.91,79.91,0,0,0,12.4,7.91c1.08.51,2.12,1.31,1.81,2.61-.36,1.5-1.23,2.71-3.15,1.93Z" transform="translate(-1322.01 -1420.79)" style="fill:#2f2e2e"/><path d="M1574.26,1434q0,.49,0,1a122.13,122.13,0,0,0-34.84-2.87,3.06,3.06,0,0,1-3.22-.13c.77-3.06,3.78-2,5.62-3a69,69,0,0,1,13.86,0c2.11.76,4.34.7,6.53,1C1566.22,1431.26,1571.09,1430.16,1574.26,1434Z" transform="translate(-1322.01 -1420.79)" style="fill:#d9d9d9"/><path d="M1329.19,1520.49l-1.15,0c2.76-9.49,6.2-18.69,11.78-27a1,1,0,0,1,1.37,0c1.22,3.34-1.49,5.57-2.34,8.32a82,82,0,0,0-7,16.55C1331.23,1519.38,1330.79,1520.66,1329.19,1520.49Z" transform="translate(-1322.01 -1420.79)" style="fill:#cacaca"/><path d="M1490.52,1444l-2-1.07c-2.34-1.91-5.2-2.81-7.88-4.07-6.24-3.36-13.23-4.19-20-5.85a1,1,0,0,1,.14-1.41,3,3,0,0,1,1.83-.7c10.32,1.06,20,3.87,28.57,10a2.5,2.5,0,0,1,.67,1.3A1.74,1.74,0,0,1,1490.52,1444Z" transform="translate(-1322.01 -1420.79)" style="fill:silver"/><path d="M1460.64,1432c0,.35,0,.71,0,1.06-12.54-1-24.75,1-36.87,3.9a1.77,1.77,0,0,1-.3-1.63c4.83-4.07,11-3.3,16.62-4.58a22.84,22.84,0,0,1,4.9-.12c4.13,0,8.26-.06,12.39.06A4.31,4.31,0,0,1,1460.64,1432Z" transform="translate(-1322.01 -1420.79)" style="fill:#cdcdcd"/><path d="M1521.73,1577.35c2.61-1.5,3.75-2.63-.06-4.42-4.13-2-8.21-4.19-11.36-7.68a9.59,9.59,0,0,1-2.55-1.76c-1-1.27-2.76-2.14-2.43-4.19a6.4,6.4,0,0,0,0-1c3.61,3,7.38,5.89,10.78,9.15,2.45,2.34,5.71,3.17,8.27,5.19,1.2.95,2.3,2,1.39,3.73S1523.43,1578.5,1521.73,1577.35Z" transform="translate(-1322.01 -1420.79)" style="fill:#ddd9d9"/><path d="M1357.05,1482.72l-5,7.08a50.71,50.71,0,0,0-4.82,8c-.74,1.44-1.13,3.18-3.32,3a2.73,2.73,0,0,1-.73-2,13.08,13.08,0,0,1,1.16-4.1c1.35-2.08,3.33-3.75,4.1-6.23,2.36-2.86,3.26-7,7.41-8.3a2.48,2.48,0,0,1,1.36.52A1.86,1.86,0,0,1,1357.05,1482.72Z" transform="translate(-1322.01 -1420.79)" style="fill:#494949"/><path d="M1513.57,1429.12l-1.18,1.8c-5.22,5.7-12.52,8.14-17.76,5.95-1.24-.67-2.44-1.4-3.62-2.16-1.18-1.21-3.67-1.23-3.43-3.74a6.74,6.74,0,0,1,5.05,1.61c4.66,3.47,8.85,2.76,13.4-.46C1508.15,1430.62,1510.51,1428.73,1513.57,1429.12Z" transform="translate(-1322.01 -1420.79)" style="fill:#d0d0d0"/><path d="M1487.58,1431l4,2.94a2.31,2.31,0,0,1-1.88.87c-3.71-.59-6.76-3-10.39-3.81a8.9,8.9,0,0,1-1.31-.47,22.53,22.53,0,0,0-6-1.79,33.82,33.82,0,0,0-9.48-1.55,3.55,3.55,0,0,1-2.09-1.11,1.5,1.5,0,0,1,.63-1.44,13.87,13.87,0,0,1,6.56.35A68.94,68.94,0,0,1,1487.58,1431Z" transform="translate(-1322.01 -1420.79)" style="fill:#818181"/><path d="M1561.36,1424c0-.31,0-.61-.08-.92,10.51-.4,20,3.14,29.13,7.77a2.5,2.5,0,0,1-1.28,1c-1.9.5-3.54-.34-5.25-1a94.17,94.17,0,0,0-17.62-4.82C1564.51,1425.8,1562.63,1425.54,1561.36,1424Z" transform="translate(-1322.01 -1420.79)" style="fill:#d2d2d2"/><path d="M1636.81,1474.86l-14.87-14.76a1.2,1.2,0,0,1,0-1.41c4.8.1,16.13,11.39,16.26,16.19A1.11,1.11,0,0,1,1636.81,1474.86Z" transform="translate(-1322.01 -1420.79)" style="fill:#b9b9b9"/><path d="M1486.55,1462.81c10-1.86,19.93-4,30.07-1.1-1,1.33-2.53,1.36-4,1.45-4.49.24-9-.47-13.49.49a10.28,10.28,0,0,1-1.65.34c-3.55-.39-7.06,1.52-10.63.26A1,1,0,0,1,1486.55,1462.81Z" transform="translate(-1322.01 -1420.79)" style="fill:#dddbdc"/><path d="M1604.36,1437.8a168.66,168.66,0,0,1,20.86,13.83,1.11,1.11,0,0,1,0,1.4,2.55,2.55,0,0,1-2.16.35c-5.95-4-11.6-8.49-17.81-12.15-1.25-.73-2.62-1.51-2.23-3.38A1,1,0,0,1,1604.36,1437.8Z" transform="translate(-1322.01 -1420.79)" style="fill:#b8b8b8"/><path d="M1456.55,1513.68l.18-2.34c4.18.75,4.41,5.38,7.31,7.38,1.35,1.46,2.76,2.86,4.21,4.23,1.29,2,4.48,2.41,4.54,5.44a2.08,2.08,0,0,1-1.2.59c-1.19-.13-2-1-3-1.49l-1-.94c-2-1.64-3.66-3.69-5.87-5.1l-1-1c-1.17-1.19-1.92-2.7-3-4Z" transform="translate(-1322.01 -1420.79)" style="fill:#c7c5c6"/><path d="M1467.67,1425l-7.1.15-.79.14c-5,.53-10.1-.55-15.08.74a11.77,11.77,0,0,1-2.51.35c-2.27-.13-4.73.61-6.6-1.4C1446.29,1422.44,1457,1421.64,1467.67,1425Z" transform="translate(-1322.01 -1420.79)" style="fill:#b6b6b6"/><path d="M1378.92,1449.89c4.46-4,9.6-7.06,14.74-10.09a2.51,2.51,0,0,1,2.19-.07,1.66,1.66,0,0,1-.42,2.2c-4.6,3.32-8.78,7.34-14.47,8.9A2.78,2.78,0,0,1,1378.92,1449.89Z" transform="translate(-1322.01 -1420.79)" style="fill:#bcbcbc"/><path d="M1396.08,1440.07l-2.42-.27c6.08-3.59,12.24-7,19.13-8.8a1.58,1.58,0,0,1,.45,1.37C1408.05,1436.1,1402.76,1439.63,1396.08,1440.07Z" transform="translate(-1322.01 -1420.79)" style="fill:#cacaca"/><path d="M1357.05,1469.82c3.84-3,5.62-8.25,10.59-10.15a1.1,1.1,0,0,1,1.28-.08c.85,2.27-1,3.34-2.21,4.54a134,134,0,0,0-10.07,11,3,3,0,0,1-2.61.85,1.53,1.53,0,0,1-.5-1.23C1354,1472.58,1356,1471.57,1357.05,1469.82Z" transform="translate(-1322.01 -1420.79)" style="fill:#b9b9b9"/><path d="M1659,1489.61c4.38,5.75,7.35,12.24,9.87,19-1.12.45-1.9-.15-2.68-.81-3.17-5.18-6.34-10.36-8.19-16.21A2.59,2.59,0,0,1,1659,1489.61Z" transform="translate(-1322.01 -1420.79)" style="fill:#ececec"/><path d="M1423.69,1435.78l.06,1.16L1407,1443c-1.27.46-2.31,1.6-3.85,1.26a1.19,1.19,0,0,1-.56-1.18c1.35-2.78,4.45-2.72,6.64-4.14,3.11-1.14,6.11-2.54,9.32-3.4C1420.25,1435.12,1422,1434.4,1423.69,1435.78Z" transform="translate(-1322.01 -1420.79)" style="fill:#bdbdbd"/><path d="M1636.81,1474.86l1.53-.24c5.28,2.91,9.22,6.81,9.83,13.18a1.14,1.14,0,0,1-1.35,0C1643.63,1483.35,1639,1480,1636.81,1474.86Z" transform="translate(-1322.01 -1420.79)" style="fill:#bfbfbf"/><path d="M1354,1475.64l1.93-1.06a1.92,1.92,0,0,1,.64,1.2c-1.84,4.53-5.67,7.76-7.89,12-1.55,1.68-2.54,3.85-4.56,5.12a1.79,1.79,0,0,1-1.31-.32c-.86-1.51.31-2.6.79-3.84.83-1.55,2-2.9,2.83-4.45,1.11-1,1.61-2.55,2.81-3.5.84-.37.89-1.14,1-1.89A22.83,22.83,0,0,1,1354,1475.64Z" transform="translate(-1322.01 -1420.79)" style="fill:#4a4a4a"/><path d="M1548.35,1474.73l-1.14.07a2,2,0,0,1-2,.37,53.41,53.41,0,0,0-14.89-8.88c-.76-.67-1.42-1.37-.9-2.49C1537,1465.19,1543.06,1469.32,1548.35,1474.73Z" transform="translate(-1322.01 -1420.79)" style="fill:#f2f2f2"/><path d="M1530.4,1531.39c-6.19,3.4-12.64,6-19.85,6.07l-.35-.67a1.84,1.84,0,0,1,.84-1.21c6.34-2.09,12.5-4.82,19.26-5.48A.8.8,0,0,1,1530.4,1531.39Z" transform="translate(-1322.01 -1420.79)" style="fill:#d2d1d1"/><path d="M1462.79,1473.82l-1.16-1c4.47-3.41,9.68-5.24,14.9-7a3.08,3.08,0,0,1,2.93-.21c.7,2.22-1.27,2.29-2.44,2.83-1.63.75-3.36,1.28-5,2.11C1468.81,1471.13,1466.65,1474.84,1462.79,1473.82Z" transform="translate(-1322.01 -1420.79)" style="fill:#d3d1d1"/><path d="M1561.29,1423.07l-7-.17a46.28,46.28,0,0,0-12.93,0l-6,.13C1544,1419.89,1552.66,1420.17,1561.29,1423.07Z" transform="translate(-1322.01 -1420.79)" style="fill:#d2d2d2"/><path d="M1375.05,1464l-9.89,9.85a1.19,1.19,0,0,1-1.35,0c-1.17-2.29.54-3.6,1.83-5a47.77,47.77,0,0,1,5.91-5.64c1.1-.6,2.2-1.18,3.51-.61A1.11,1.11,0,0,1,1375.05,1464Z" transform="translate(-1322.01 -1420.79)" style="fill:#b1b1b1"/><path d="M1545.36,1518.48a20.1,20.1,0,0,1-10,9.94c-.62-.84-.16-1.62.13-2.41.56-1.13,1.35-2.11,2-3.18a7.36,7.36,0,0,1,2.21-2.2,34.26,34.26,0,0,1,3.19-2C1543.73,1518.3,1544.52,1517.86,1545.36,1518.48Z" transform="translate(-1322.01 -1420.79)" style="fill:#ebebeb"/><path d="M1604.36,1437.8l-1.42.28c-4,1-6.55-2.29-9.88-3.29-1.51-1.06-3.72-1.33-4.14-3.63l1.49-.32A38.7,38.7,0,0,1,1604.36,1437.8Z" transform="translate(-1322.01 -1420.79)" style="fill:#c9c9c9"/><path d="M1666.93,1507.55l2,1c1,5.85,4.67,10.92,4.88,17a6.86,6.86,0,0,0-.9-.09C1669.47,1520,1666.34,1514.37,1666.93,1507.55Z" transform="translate(-1322.01 -1420.79)" style="fill:#d0d0d0"/><path d="M1507.49,1538.36c-7.92,2.54-15.42.2-22.94-2a.9.9,0,0,1,.25-1.35c3.81-.78,7.23,1.34,10.93,1.45,3.15,1,6.43.24,9.62.7A3.28,3.28,0,0,1,1507.49,1538.36Z" transform="translate(-1322.01 -1420.79)" style="fill:#e3e2e2"/><path d="M1375.05,1464l-.2-1.4c1.66-4.88,5.46-7.22,10.16-8.49a1.92,1.92,0,0,1,1.17.88A67,67,0,0,1,1375.05,1464Z" transform="translate(-1322.01 -1420.79)" style="fill:#bdbdbd"/><path d="M1344.08,1500.72c3.42-3.09,3.91-8.31,8-10.92a46.79,46.79,0,0,1-7.89,14c-.09-.48-.19-1-.29-1.46A1.11,1.11,0,0,1,1344.08,1500.72Z" transform="translate(-1322.01 -1420.79)" style="fill:#c8c8c8"/><path d="M1378.92,1449.89l2.15.07c-2.11,4.36-5,7.78-10.31,8a1.27,1.27,0,0,1,0-1.42C1372.92,1453.65,1375.86,1451.7,1378.92,1449.89Z" transform="translate(-1322.01 -1420.79)" style="fill:#b7b7b7"/><path d="M1475.57,1562.2l-.08,3.78c-3.07,3.34-3.6.19-4.27-1.79-.51-1.5.54-2.77,1.45-3.94s1.89-2.12,2.84-3.17C1477.32,1558.76,1474.34,1560.5,1475.57,1562.2Z" transform="translate(-1322.01 -1420.79)" style="fill:#898888"/><path d="M1529.41,1463.8l1.1,1.7a1.9,1.9,0,0,1-1.21,1c-5.65-.32-11-2.26-16.53-3.17a1.27,1.27,0,0,1-.51-1.42l4.36-.2Z" transform="translate(-1322.01 -1420.79)" style="fill:#dbdada"/><path d="M1530.39,1434c-4.52.67-8.69,2.42-12.88,4.12l-.45-.65c-.12-2.5,1.9-2.87,3.58-3.59,2.9-.64,5.64-1.8,8.5-2.56,1.78-.47,3.56-.78,5.2.45C1534.47,1435,1531.27,1432.46,1530.39,1434Z" transform="translate(-1322.01 -1420.79)" style="fill:#c3c3c3"/><path d="M1507.45,1443.92c-4,2.42-8,5.33-13,2.17a.94.94,0,0,1,0-1.36c3.79.08,7.3-1.55,11-1.86A3.4,3.4,0,0,1,1507.45,1443.92Z" transform="translate(-1322.01 -1420.79)" style="fill:#d2d2d2"/><path d="M1507.45,1443.92l-2.25-.13a2.81,2.81,0,0,1,1.13-2.46c3.32-1.86,6.12-5,10.51-4.24l.67,1Z" transform="translate(-1322.01 -1420.79)" style="fill:#cecece"/><path d="M1451.63,1484.65a45.91,45.91,0,0,0,0,18.93C1448.85,1497.27,1448.25,1491,1451.63,1484.65Z" transform="translate(-1322.01 -1420.79)" style="fill:#dfdede"/><path d="M1608.08,1449.92l2.2-.09c4-.76,5.94,1.77,7.54,4.8a2.39,2.39,0,0,1-.7,2.09Z" transform="translate(-1322.01 -1420.79)" style="fill:#c1c1c1"/><path d="M1412.86,1432.16l-.07-1.16a3.49,3.49,0,0,1,.84-.13,42.27,42.27,0,0,1,4.15-1.8c2.9-.8,5.56-2.53,8.73-2.31l.52.52a1.72,1.72,0,0,1-.46,1.33c-3.07,2.1-6.82,2.59-10.11,4.19C1415.17,1433.08,1413.92,1433.17,1412.86,1432.16Z" transform="translate(-1322.01 -1420.79)" style="fill:#b6b6b6"/><path d="M1402.87,1445c-3,1.64-5.57,4.09-9,5.08a1.94,1.94,0,0,1-.59-1.38c2.12-3.5,4.88-5.82,9.33-5,.11.14.23.27.36.41A.59.59,0,0,1,1402.87,1445Z" transform="translate(-1322.01 -1420.79)" style="fill:#bdbdbd"/><path d="M1477.57,1571.16c4.39,0,8.78,0,13.17,0,1.55,0,3.42-.45,3.78,1.94-3.85-1.33-7.84-.86-11.79-1C1481,1572.06,1479.05,1572.76,1477.57,1571.16Z" transform="translate(-1322.01 -1420.79)" style="fill:#e9e6e6"/><path d="M1393.79,1448.66l.12,1.42c-2.51,1.74-4.81,3.82-7.73,4.94l-1.43-.22C1386.3,1450.6,1389.09,1448.71,1393.79,1448.66Z" transform="translate(-1322.01 -1420.79)" style="fill:#bdbdbd"/><path d="M1477.58,1570.16c0,.33,0,.67,0,1-3.61.12-7,0-7-5,1.9.06,3.19,1.64,5,2A3.44,3.44,0,0,1,1477.58,1570.16Z" transform="translate(-1322.01 -1420.79)" style="fill:#e9e6e6"/><path d="M1655.91,1500.61c-.62-.35-1.24-.7-1.87-1-1.34-2.32-2.69-4.63-4-6.94a1.56,1.56,0,0,1-.23-2c3.85-.21,4,3.44,5.76,5.44a10.81,10.81,0,0,1,1,2.63A1.94,1.94,0,0,1,1655.91,1500.61Z" transform="translate(-1322.01 -1420.79)" style="fill:#b2b2b2"/><path d="M1363.71,1473.64l1.45.24c-3.11,2.57-4.4,6.81-8.11,8.84,0-.66,0-1.32,0-2A8.45,8.45,0,0,1,1363.71,1473.64Z" transform="translate(-1322.01 -1420.79)" style="fill:#bebebe"/><path d="M1475.57,1562.2c-3.6-1.67.94-3.43-.06-5.12l2-1.94c.14.17.28.34.43.49.57.55,1.57,0,2,.8a.9.9,0,0,1-.3,1C1478.43,1559.15,1476.26,1560,1475.57,1562.2Z" transform="translate(-1322.01 -1420.79)" style="fill:#717171"/><path d="M1484.55,1535.42v.95c-4.36-1.22-8.74-2.41-12-5.9l.52-.46c1.22-.41,2.28.12,3.36.56C1479,1532.4,1482.76,1532.3,1484.55,1535.42Z" transform="translate(-1322.01 -1420.79)" style="fill:#e4e3e4"/><path d="M1479.72,1465.89l-3.19-.15c2.86-2.61,6.66-2,10-2.93l0,1.06C1485,1467,1482.42,1466.62,1479.72,1465.89Z" transform="translate(-1322.01 -1420.79)" style="fill:#e0dfdf"/><path d="M1545.36,1518.48l-2.09.93c-.32-4.64,3.39-7,5.76-10.11a1.23,1.23,0,0,1,1.33.24c0,2.75-2.75,4.29-3,6.91Z" transform="translate(-1322.01 -1420.79)" style="fill:#d1d0d1"/><path d="M1668,1536.31a32.14,32.14,0,0,1,1.83,12C1667.24,1544.63,1668,1540.41,1668,1536.31Z" transform="translate(-1322.01 -1420.79)" style="fill:#cecece"/><path d="M1475.58,1568.17a4.84,4.84,0,0,1-5-2c.1-2.18-.82-4.71,2.05-5.93-1.44,5.27-1.13,5.89,2.83,5.73Z" transform="translate(-1322.01 -1420.79)" style="fill:#d5d1d1"/><path d="M1659,1489.61l-.09,2.08c-3.2-.5-3.6-3.58-5.18-5.57a1.6,1.6,0,0,1,.13-1.3c0-.69,0-1.39,0-2.08Z" transform="translate(-1322.01 -1420.79)" style="fill:#d0d0d0"/><path d="M1617.12,1456.72l.05-2c3.31-.8,4.57,1,5,3.9l-.24,1.5Z" transform="translate(-1322.01 -1420.79)" style="fill:silver"/><path d="M1347,1484.66a9.83,9.83,0,0,1-2.77,4.07.82.82,0,0,1-1.28-.1,11.81,11.81,0,0,1,4-6A1.38,1.38,0,0,1,1347,1484.66Z" transform="translate(-1322.01 -1420.79)" style="fill:#d1d1d1"/><path d="M1536.33,1526.32l-.94,2.1-5,3-.06-1.18c-.07-2.32,1.88-3.07,3.29-4.24A2.36,2.36,0,0,1,1536.33,1526.32Z" transform="translate(-1322.01 -1420.79)" style="fill:#d5d3d4"/><path d="M1480.59,1438.89c3.14.36,5.94,1.39,7.88,4.07A18.87,18.87,0,0,1,1480.59,1438.89Z" transform="translate(-1322.01 -1420.79)" style="fill:#f0f0f0"/><path d="M1426.51,1426.76c2.47-1.83,5.31-1.88,8.2-1.75a1,1,0,0,1-.13,1.45c-2.43,1.44-4.91,2.55-7.66.75Z" transform="translate(-1322.01 -1420.79)" style="fill:#b6b6b6"/><path d="M1677.06,1551.26q-.11-4.38-.23-8.76a1.75,1.75,0,0,1,.2-2.35c1.71,3.6.53,7.42.89,11.12C1677.63,1551.71,1677.34,1551.73,1677.06,1551.26Z" transform="translate(-1322.01 -1420.79)" style="fill:#d1d1d1"/><path d="M1322.15,1563.14c1.65,2.46,3.36,4.8,6.91,4C1324.41,1569,1323,1568.14,1322.15,1563.14Z" transform="translate(-1322.01 -1420.79)" style="fill:#efefef"/><path d="M1677,1540.15c-.07.79-.13,1.57-.2,2.35-1.19-3.3-1.29-6.78-1.69-10.22C1677.29,1534.55,1676.93,1537.41,1677,1540.15Z" transform="translate(-1322.01 -1420.79)" style="fill:#cdcdcd"/><path d="M1530.39,1434l4-2a1.31,1.31,0,0,1,1.79-.14l3.24.24A17.24,17.24,0,0,1,1530.39,1434Z" transform="translate(-1322.01 -1420.79)" style="fill:#e9e9e9"/><path d="M1650.13,1490.43l-.12,2.2c-2-1-2.53-3-3.19-4.87l1.36-.16C1650.16,1487.63,1650.87,1488.53,1650.13,1490.43Z" transform="translate(-1322.01 -1420.79)" style="fill:#c6c6c6"/><path d="M1461.64,1521.45c2.9.62,4.5,2.73,5.87,5.1C1464.74,1525.78,1463.17,1523.64,1461.64,1521.45Z" transform="translate(-1322.01 -1420.79)" style="fill:#dcdcdc"/><path d="M1343,1488.63l1.28.1c-.49,1.27-1,2.53-1.45,3.79a1.35,1.35,0,0,1-1.58,1.16l-1.38-.18C1340.86,1491.88,1341.9,1490.25,1343,1488.63Z" transform="translate(-1322.01 -1420.79)" style="fill:#cecece"/><path d="M1625,1453.15c.07-.51.15-1,.23-1.52,1.67,1.32,3.94,2,4.73,4.26l-1.93,0C1625.87,1456.22,1625.08,1455.08,1625,1453.15Z" transform="translate(-1322.01 -1420.79)" style="fill:#bebebe"/><path d="M1675.72,1565.07c1.29-2.46,1.2-5.16,1.35-7.82.28-.46.57-.46.86,0-.09,2.68.51,5.45-1,7.94C1676.44,1565.66,1676.06,1565.62,1675.72,1565.07Z" transform="translate(-1322.01 -1420.79)" style="fill:#d1d1d1"/><path d="M1434.6,1425.84a3.85,3.85,0,0,0,.11-.83,2.89,2.89,0,0,1,.88-.07l7.25.21a1.1,1.1,0,0,1-.38,1.33,4.88,4.88,0,0,1-2.16.7,11.61,11.61,0,0,1-4.58-.33A2.17,2.17,0,0,1,1434.6,1425.84Z" transform="translate(-1322.01 -1420.79)" style="fill:#969696"/><path d="M1675.72,1565.07l1.16.11c-1.5,1.19-2.86,3.3-5,.78Z" transform="translate(-1322.01 -1420.79)" style="fill:#d8d8d8"/><path d="M1357.05,1469.82c-.16,2.19-2.24,3.1-3.16,4.77-.23.66-.53.7-.92.12C1353.32,1472.25,1355.07,1470.94,1357.05,1469.82Z" transform="translate(-1322.01 -1420.79)" style="fill:#dedede"/><path d="M1494.6,1444.67c-.06.47-.11.94-.17,1.42l-3.91-2.06,1.23-1.22C1493.62,1442,1494.47,1442.8,1494.6,1444.67Z" transform="translate(-1322.01 -1420.79)" style="fill:#d2d2d2"/><path d="M1353,1474.71a2.88,2.88,0,0,0,.92-.12c0,.35,0,.7.07,1.05-.83,1.59-1.64,3.2-3.78,3.3C1350.14,1476.9,1352.48,1476.41,1353,1474.71Z" transform="translate(-1322.01 -1420.79)" style="fill:#bebebe"/><path d="M1457.63,1516.51c1.56.89,2.89,2,3,4C1458.28,1520.17,1458,1518.31,1457.63,1516.51Z" transform="translate(-1322.01 -1420.79)" style="fill:#eeeeef"/><path d="M1456.66,1476.74a4.65,4.65,0,0,1-3,3.94C1453.78,1478.71,1455,1477.59,1456.66,1476.74Z" transform="translate(-1322.01 -1420.79)" style="fill:#dfdede"/><path d="M1468.54,1527.49l3,1c.66.43,1.57.71,1.12,1.82l-.07.18C1470.63,1530.27,1469.51,1529,1468.54,1527.49Z" transform="translate(-1322.01 -1420.79)" style="fill:#dcdcdc"/><path d="M1370.76,1456.55l.27,1.55c0,1.26-.64,1.9-2,1.78l-1.44-.21C1368.06,1458,1369.7,1457.57,1370.76,1456.55Z" transform="translate(-1322.01 -1420.79)" style="fill:#bebebe"/><path d="M1677.93,1557.24h-.86c0-2,0-4,0-6h.86C1677.92,1553.26,1677.92,1555.25,1677.93,1557.24Z" transform="translate(-1322.01 -1420.79)" style="fill:#cdcdcd"/><path d="M1417.78,1429.07a5.12,5.12,0,0,1-4.14,1.8A4,4,0,0,1,1417.78,1429.07Z" transform="translate(-1322.01 -1420.79)" style="fill:#cacaca"/><path d="M1347,1484.66c0-.68,0-1.36,0-2,.46-.95,1-1.8,2.22-1.79A5,5,0,0,1,1347,1484.66Z" transform="translate(-1322.01 -1420.79)" style="fill:#c7c7c7"/><path d="M1670,1553.23a4.19,4.19,0,0,1,0,5Z" transform="translate(-1322.01 -1420.79)" style="fill:#cecece"/><path d="M1402.87,1445a2.13,2.13,0,0,1,.14-.9l4-1.07A4.33,4.33,0,0,1,1402.87,1445Z" transform="translate(-1322.01 -1420.79)" style="fill:#cdcdcd"/><path d="M1507.49,1538.36l-2-.06a1,1,0,0,1,.31-1.41,3.86,3.86,0,0,1,4.62.41l.14.16C1509.73,1538.43,1508.59,1538.34,1507.49,1538.36Z" transform="translate(-1322.01 -1420.79)" style="fill:#d2d1d1"/><path d="M1505.33,1559.3l3.26,3.86a5.15,5.15,0,0,1-2,2.32.93.93,0,0,1-1.09-.3l-2.12-2.79-.84-2.22a1.16,1.16,0,0,1,1-1Z" transform="translate(-1322.01 -1420.79)" style="fill:#464545"/><path d="M1505.49,1565.18a3.57,3.57,0,0,1,1,0c1.17.12,1.51,1.12,2,1.93s1.42,1.64,1.28,2.84C1507.52,1569.12,1505.82,1567.76,1505.49,1565.18Z" transform="translate(-1322.01 -1420.79)" style="fill:#b6b4b4"/><path d="M1479.66,1557.46l-.07-1.07a3.07,3.07,0,0,1,2-2.14c1-.49,1.95-.82,1.92.9C1482.26,1555.91,1481.31,1557.27,1479.66,1557.46Z" transform="translate(-1322.01 -1420.79)" style="fill:#757575"/><path d="M1337.29,1514.58c-1.89,6.3-3.84,12.58-5.61,18.91a38.87,38.87,0,0,0-.73,5.83c-2.26,6.86-2.08,13.94-2,21,0,1.89.64,4.53-2.17,4.7s-2.58-2.5-2.59-4.37c-.08-12.34,0-24.67,4.62-36.41l.66.52c1.49,3.51-.69,6.64-1.08,10-.48,4-1.21,8-1.81,12-.85,2.07,0,4.19-.2,6.28,0,1-.31,1.94-.31,2.92-.07,1.21.13,2.44,0,3.62.47-1.49-.25-3,.23-4.45a10.61,10.61,0,0,0,.23-4.72,115,115,0,0,1,7.64-34.38,3.44,3.44,0,0,1,1.66-1.77A1.42,1.42,0,0,1,1337.29,1514.58Z" transform="translate(-1322.01 -1420.79)" style="fill:#3d3d3d"/><path d="M1329.19,1520.49l1.76-2.24a2.21,2.21,0,0,1,.86,1.25c0,2.12,0,4.23-2.57,5l-.41-.3Z" transform="translate(-1322.01 -1420.79)" style="fill:#3d3d3d"/><path d="M1654,1485.66c2.49,1.32,2.8,4.43,5,6l8,15.86q3,9,6,17.92c-.29,1.34.62,2.88-.69,4-3.25-1.4-2.65-4.62-3.44-7.18a11.57,11.57,0,0,0-1.33-5.31,11.9,11.9,0,0,1-.48-1.25,23.43,23.43,0,0,0-1.69-4.24,27.2,27.2,0,0,0-2-4.09,82,82,0,0,0-4-9.15,7,7,0,0,0-2.28-3.18c-1.9-2.19-3.77-4.39-3.88-7.5A2.67,2.67,0,0,1,1654,1485.66Z" transform="translate(-1322.01 -1420.79)" style="fill:#636363"/><path d="M1673.92,1536.37a87.5,87.5,0,0,1,1.63,24.85c-.08,1.24-.51,2.86-2.23,2.71a2.33,2.33,0,0,1-2-3c1.32-6.27-.6-12.43-.41-18.65,2,0,1.75,1.52,2,2.76.78,4.4.48,8.86.5,13.31a162.17,162.17,0,0,0-.88-19.47C1672.45,1538,1672.12,1536.48,1673.92,1536.37Z" transform="translate(-1322.01 -1420.79)" style="fill:#3a3a3a"/><path d="M1669.88,1521.47c.54,2.74.63,5.62,2.32,8a2.22,2.22,0,0,0-.18.8,5.22,5.22,0,0,1,.73,1.33c.08,1.74.72,3.61-1.09,4.94-1,.2-1.26-.64-1.73-1.19-.34-1.32-.68-2.64-1-4a67.68,67.68,0,0,1-2.7-10.19,11,11,0,0,0-1.72-4.65c-.85-1.88-2.3-3.52-2.26-5.75.69-1.06-.25-3,1.8-3.35,1.64.81,1.87,2.34,2,3.91a11.64,11.64,0,0,0,1.8,4.11,3.39,3.39,0,0,1,.15.9C1668.74,1518.06,1668.76,1520,1669.88,1521.47Z" transform="translate(-1322.01 -1420.79)" style="fill:#0c0c0c"/><path d="M1671,1536.28c1.62-1.38.68-3.22.87-4.86,2.87.17.58,3.07,2.11,3.95l-.07,1v22.53c-1.2-5.52-.28-11.34-3-16.57,0-.6-.07-1.19-.11-1.79A4.65,4.65,0,0,1,1671,1536.28Z" transform="translate(-1322.01 -1420.79)" style="fill:#282828"/><path d="M1666.94,1520.46c-.37,3.84,2.67,7.07,2,11a4.88,4.88,0,0,0-.93-.09l-3.12-11.78a1,1,0,0,1,0-1.25C1666.72,1517.87,1666.13,1519.85,1666.94,1520.46Z" transform="translate(-1322.01 -1420.79)" style="fill:#3a3a3a"/><path d="M1674,1535.37c-1.7-.79-.46-3.14-2.11-3.95,0-.38.09-.75.14-1.12C1674.74,1531.19,1673.72,1533.53,1674,1535.37Z" transform="translate(-1322.01 -1420.79)" style="fill:#3a3a3a"/><path d="M1671,1536.28l-.18,4.26a8.78,8.78,0,0,1-.9-5.16Z" transform="translate(-1322.01 -1420.79)" style="fill:#3a3a3a"/><path d="M1492.68,1554c-2.16-.51-3.9-2.12-6.28-2.06a6.75,6.75,0,0,1,7.25,1.14A1.6,1.6,0,0,1,1492.68,1554Z" transform="translate(-1322.01 -1420.79)" style="fill:#434343"/><path d="M1492.68,1554l1-.92c1.65,0,3.11.36,3.91,2,.53.38.52.74,0,1.08Z" transform="translate(-1322.01 -1420.79)" style="fill:#272727"/><path d="M1481.63,1554.25l-2,2.14c-.62-.14-1.92,1.24-1.68-.76C1479.37,1555.75,1479.84,1553.24,1481.63,1554.25Z" transform="translate(-1322.01 -1420.79)" style="fill:#424242"/><path d="M1503.54,1559.19l-1,1-2-1.91c-.3-.26-.4-.52-.29-.77s.21-.38.32-.38A3.71,3.71,0,0,1,1503.54,1559.19Z" transform="translate(-1322.01 -1420.79)" style="fill:#141414"/><path d="M1500.52,1557.11l0,1.15-3-2.06c0-.36,0-.72,0-1.08A2.92,2.92,0,0,1,1500.52,1557.11Z" transform="translate(-1322.01 -1420.79)" style="fill:#252525"/><path d="M1462.79,1473.82l8.71-4.13a2.1,2.1,0,0,1,2.07-.16c-.74,4.06-5.45,3.11-7.3,5.78a29.78,29.78,0,0,0-8.21,7.61c-3.6,4.64-3.32,10-2.83,15.38.13,1.44.7,2.84.5,4.33a3,3,0,0,1-1.14,2c-4.68-9.8-3.09-19.51,4.41-27C1460.27,1476.38,1461.53,1475.09,1462.79,1473.82Z" transform="translate(-1322.01 -1420.79)" style="fill:#6f686a"/><path d="M1463.59,1519.53c-3.31-1.88-4-5.9-6.86-8.19,0-.61,0-1.21,0-1.81a1.51,1.51,0,0,1,1.32-.18c2.66,2,4.36,4.79,6,7.59a4.1,4.1,0,0,1,.23,1.39A2.19,2.19,0,0,1,1463.59,1519.53Z" transform="translate(-1322.01 -1420.79)" style="fill:#6d5852"/><path d="M1457.66,1509.53h-1a6.54,6.54,0,0,1-2.1-4.86c.05-.72.1-1.43.16-2.15C1457.71,1504,1458.6,1506.41,1457.66,1509.53Z" transform="translate(-1322.01 -1420.79)" style="fill:#5e5556"/><path d="M1545.59,1474.62l1.62.18c4.27,5.93,7.91,12.08,7.12,19.82-1.3,1.83.21,4.13-1,6h0a1,1,0,0,1-1.43-.19c-1.32-2.12-1-4.5-.88-6.77.26-5.9-1.25-11.1-5.42-15.42-.92-1-1.74-2-1.45-3.51A.9.9,0,0,1,1545.59,1474.62Z" transform="translate(-1322.01 -1420.79)" style="fill:#b9b6b7"/><path d="M1552.25,1500.55l1.12.06c.16,3.36-2.2,5.89-3,8.93h-.93a3.45,3.45,0,0,1-1.3-2.43c-.19-1.16-.29-2.3.66-3.23C1550.39,1503.24,1549.94,1500.47,1552.25,1500.55Z" transform="translate(-1322.01 -1420.79)" style="fill:#c7c5c5"/><path d="M1553.36,1500.6c.25-2-.76-4.22,1-6C1554.14,1496.63,1555,1498.82,1553.36,1500.6Z" transform="translate(-1322.01 -1420.79)" style="fill:#c7c5c5"/><path d="M1521.5,1428.16a94.35,94.35,0,0,1,28.77-4c4.75.78,9.6.34,14.34,1.15a25.17,25.17,0,0,0,7.31,1.74,5.86,5.86,0,0,1,2.15.44,26.79,26.79,0,0,0,5.49,1.67c3.9,1.28,7.71,2.79,11.51,4.34,4.53,3.22,10.32,4.3,14.37,8.37a2.12,2.12,0,0,1-1.36,2.38c-5.7-2.54-11.16-5.61-17-7.88a15.68,15.68,0,0,0-5.73-1.45,9.2,9.2,0,0,1-3.3-1.4,34.32,34.32,0,0,0-7-1.53,5.89,5.89,0,0,1-2.16-.62,25.82,25.82,0,0,0-8.54-1.34c-7.78-.6-15.56-1-23.31.25-5.39,1.24-10.78,2.51-16.13,3.93a79.24,79.24,0,0,0-15.12,7.52c-4.65,3.15-9,3.91-13.84-.18-3.23-2.77-7.41-4.24-11.32-6a10,10,0,0,0-4.84-1.59c-3.87-.68-7.54-2.19-11.46-2.65a87.83,87.83,0,0,0-27.32.11c-8.42,1.82-16.73,4-25,6.51a2.36,2.36,0,0,1-2.53-1.56c1.35-4.13,6-2.38,8.38-4.7,3.9-1.2,7.7-2.74,11.72-3.55,1.41.09,2.6-.7,3.92-1,5.77.43,11.39-1,17.09-1.48,5.55-.69,10.79,2,16.33,1.43,1.11.07,2.17.5,3.29.52,2.56,1.59,5.67,1.27,8.39,2.36l-.06,0c3.57,1.61,7.21,3,10.78,4.65,2,.48,3.78,1.71,5.7,2.5,2.53,1.71,4.9,1.84,7.54-.07,4.21-3.06,9.2-4.7,13.86-6.93h0C1518.13,1429.34,1520,1429.35,1521.5,1428.16Z" transform="translate(-1322.01 -1420.79)" style="fill:#0d0d0d"/><path d="M1574.27,1428.13l-1.87-.2c-2.36-.61-4.79-1-7.1-1.78-5-.7-10.12-.59-15-2l11.09-.13c9.6.8,18.54,4.15,27.56,7.17l4.37,2.76a1.6,1.6,0,0,1-2.13.2l-11.81-4.18C1577.68,1429.27,1576,1428.71,1574.27,1428.13Z" transform="translate(-1322.01 -1420.79)" style="fill:#545454"/><path d="M1516.48,1430.06c-5.18,3.74-11.42,5.63-16.58,9.52-1.74,1.31-3.56-1-5.36-1.68a1.37,1.37,0,0,1,0-2c3.53,2.11,6.64,1.54,9.93-.87,2.35-1.73,5.25-2.74,7.9-4.07Z" transform="translate(-1322.01 -1420.79)" style="fill:#414141"/><path d="M1541.38,1422.92a21,21,0,0,1,12.93,0Z" transform="translate(-1322.01 -1420.79)" style="fill:#bfbfbf"/><path d="M1521.5,1428.16c-1.16,2-3.08,1.94-5,1.89A7.34,7.34,0,0,1,1521.5,1428.16Z" transform="translate(-1322.01 -1420.79)" style="fill:#414141"/><path d="M1581.13,1434.07c8.5,1.27,15.61,5.81,23,9.73,5.29.37,8.91,4.06,12.8,6.87a139.65,139.65,0,0,1,30.7,30.69c2.68,4.46,6.29,8.36,8.15,13.33a2.34,2.34,0,0,1-.79,2c-2.13-1.68-2.41-4.79-4.84-6.23a3.68,3.68,0,0,0-2-2.83,46.56,46.56,0,0,0-9.84-13,70.6,70.6,0,0,0-16.16-16,11.19,11.19,0,0,0-5-3.9,15.73,15.73,0,0,0-6.89-4.87c-8.53-6.93-18.63-10.79-28.75-14.59C1580.46,1435.17,1580.82,1434.61,1581.13,1434.07Z" transform="translate(-1322.01 -1420.79)" style="fill:#2a2a2a"/><path d="M1581.13,1434.07c.13.39.26.78.4,1.17-2.57.39-4.66-1.89-7.27-1.26l-12-3a.87.87,0,0,1,.17-1.33c2.43-.49,4.57.64,6.8,1.23l1.86.18c2.38.63,4.79,1.14,7.13,1.93Z" transform="translate(-1322.01 -1420.79)" style="fill:#616161"/><path d="M1654,1485.66c0,.67,0,1.34,0,2-4.19-.19-4.42-4.36-6.63-6.53-3.08-5.19-8.11-8.91-10.85-14.35a2,2,0,0,1,.65-1.22c5.5,4.36,9.3,10.19,13.56,15.62,1,1.27,1.55,2.94,3.21,3.63A2.93,2.93,0,0,0,1654,1485.66Z" transform="translate(-1322.01 -1420.79)" style="fill:#272727"/><path d="M1637.13,1465.57c0,.41-.07.82-.1,1.23a2.3,2.3,0,0,1-2.63-.77c-3.76-3.62-7.33-7.44-11.45-10.68a2.31,2.31,0,0,1-1-2.58.86.86,0,0,1,1.25,0l1.76.34a6.66,6.66,0,0,0,3,2.72Z" transform="translate(-1322.01 -1420.79)" style="fill:#242424"/><path d="M1344.08,1500.72c-.06.54-.13,1.07-.19,1.6l-4.83,8.26a2.54,2.54,0,0,1-.86-1.2,6,6,0,0,1-.19-2.23c1.19-3.42,1.83-7.24,6-8.64Z" transform="translate(-1322.01 -1420.79)" style="fill:#3f3f3f"/><path d="M1338.88,1509.47l.18,1.11a6.9,6.9,0,0,1-1.77,4l-1.19-.06C1335.56,1512,1336.21,1510.2,1338.88,1509.47Z" transform="translate(-1322.01 -1420.79)" style="fill:#363636"/><path d="M1665.23,1518.48l-.36,1.08q-4.48-9.46-9-19c0-.6-.05-1.2-.07-1.8a1,1,0,0,1,1.09-.49,3.22,3.22,0,0,1,1,.87c.7,1.1,1.24,2.3,1.94,3.41,1.84,2.33,2.29,5.21,3.12,7.94-.35,2.33,1.79,3.81,2.06,5.93A1.79,1.79,0,0,1,1665.23,1518.48Z" transform="translate(-1322.01 -1420.79)" style="fill:#636363"/><path d="M1508.5,1567.15a3.45,3.45,0,0,1-2-1.93,1.94,1.94,0,0,1,2.12-2.06,2.19,2.19,0,0,1,1.72,2.09Z" transform="translate(-1322.01 -1420.79)" style="fill:#444"/><path d="M1520.38,1433.93a94.66,94.66,0,0,1,15.83-4c1.83-.46,3.67-.84,5.43.26l-5.46,1.69-1.79.14c-5-.55-9.14,2.64-13.91,3C1519.91,1434.71,1519.88,1434.35,1520.38,1433.93Z" transform="translate(-1322.01 -1420.79)" style="fill:#727272"/><path d="M1541.64,1430.17l-5.43-.26c8.26-2,16.62-.6,24.94-.81.5.49.45.92-.15,1.28-1.65.08-3.31.37-4.93-.25Z" transform="translate(-1322.01 -1420.79)" style="fill:#616161"/><path d="M1556.07,1430.13l5.47-.3a.48.48,0,0,1,.79.1l0,1.08C1560.18,1431,1558,1431.18,1556.07,1430.13Z" transform="translate(-1322.01 -1420.79)" style="fill:#727272"/><path d="M1331.19,1519.52l-.24-1.27a52,52,0,0,1,6.9-16.75,1,1,0,0,1,1.33,0c.57,1.56-.27,2.88-.75,4.26-1.57,3.56-3,7.18-4.59,10.75C1333.3,1517.75,1333.16,1519.46,1331.19,1519.52Z" transform="translate(-1322.01 -1420.79)" style="fill:#363636"/><path d="M1339,1501.57l-1.19-.07c1.12-2.61,2.23-5.22,3.35-7.82l1.58-1.15,1.21.09a1.62,1.62,0,0,1,.42,1.9C1342.74,1497,1341.8,1500,1339,1501.57Z" transform="translate(-1322.01 -1420.79)" style="fill:#3f3f3f"/><path d="M1411.88,1437c8.29-2,16.36-4.89,24.84-6.1a65.73,65.73,0,0,1,27.89,0c4.15-.33,7.72,2.39,11.85,2.17a18.82,18.82,0,0,1,4.07,1.82c3.84,1.79,8.25,2.91,11.38,5.53,4.76,4,8.93,3.42,13.58.57.41.31,1,.41,1.14,1l-1.43,1.79c-3.49.76-6.84,3.24-10.6.88a4.35,4.35,0,0,0-2.85-1.86c-9.24-6.85-19.83-9.83-31.11-10.83l-2.68-.11a48.27,48.27,0,0,0-13.58,0c-7.17-.12-14,1.61-20.69,3.91-5.34.08-9.68,3.58-14.83,4.28a1.4,1.4,0,0,1-.33-1.22C1409.12,1437.27,1410.85,1437.76,1411.88,1437Z" transform="translate(-1322.01 -1420.79)" style="fill:#414141"/><path d="M1444.38,1431.87a31,31,0,0,1,13.58,0Z" transform="translate(-1322.01 -1420.79)" style="fill:silver"/><path d="M1347.88,1487.57c1.77-4.6,5.11-8.12,8.17-11.83,12.89-17,29.47-29.26,48.61-38.36A3.53,3.53,0,0,1,1407,1439a1.81,1.81,0,0,1-1.3,1.87,129.56,129.56,0,0,0-33.31,22.19c-6.24,5.1-10.91,11.69-16.44,17.46-3.16,2-4,6-6.86,8.29A1.46,1.46,0,0,1,1347.88,1487.57Z" transform="translate(-1322.01 -1420.79)" style="fill:#1b1b1b"/><path d="M1356,1480.49c4.23-6.86,9.81-12.51,15.92-17.69a.81.81,0,0,1,.36.8c-.06.3-.13.45-.22.45-2.36,3.56-6.46,5.61-8.33,9.59l-6.68,7.09Z" transform="translate(-1322.01 -1420.79)" style="fill:#1d1d1d"/><path d="M1339,1501.57c1.51-2.41,2.06-5.49,4.9-7a.75.75,0,0,1,1.15.06l-1.11,3.87c-2.19,2.69-4.18,5.48-5,8.91-1.72.08-1.5-.82-1-1.89Z" transform="translate(-1322.01 -1420.79)" style="fill:#0e0e0e"/><path d="M1345.09,1494.64l-1.15-.06c0-.65,0-1.31,0-2,1-1.93,1.93-3.88,3.9-5,.4.4.81.81,1.23,1.21C1349.06,1491.61,1347.2,1493.21,1345.09,1494.64Z" transform="translate(-1322.01 -1420.79)" style="fill:#0e0e0e"/><path d="M1494.56,1435.86c0,.68,0,1.36,0,2l-5.11-2.93c-.29-.22-.37-.43-.26-.63s.22-.28.33-.28l2.09-.15Z" transform="translate(-1322.01 -1420.79)" style="fill:#353535"/><path d="M1467.73,1428c-5.75.76-11.34-1.46-17.07-.94a1.07,1.07,0,0,1,.43-1.51c3.24-.58,6.47-1.11,9.59.47l1.91.13C1464,1427.55,1466.87,1425,1467.73,1428Z" transform="translate(-1322.01 -1420.79)" style="fill:#0e0e0e"/><path d="M1460.68,1426l-10,.2c-2.71.12-5.46,1.4-8.13-.24a4.56,4.56,0,0,1,.26-.79l1.84-.15a56.51,56.51,0,0,1,16,0l-.07.08C1460.61,1425.4,1460.65,1425.69,1460.68,1426Z" transform="translate(-1322.01 -1420.79)" style="fill:#444"/><path d="M1489.5,1434.06c0,.3,0,.61-.07.91-3.7-1.48-7.8-2.15-10.83-5.06C1482.7,1430.07,1485.93,1432.51,1489.5,1434.06Z" transform="translate(-1322.01 -1420.79)" style="fill:#0e0e0e"/><path d="M1478.66,1430c-2.83,0-5.77.58-8.06-1.8a1.46,1.46,0,0,1,2.07-.24C1474.82,1428.14,1477,1428.32,1478.66,1430Z" transform="translate(-1322.01 -1420.79)" style="fill:#0e0e0e"/><path d="M1472.67,1427.91l-2.07.24-2.87-.19c-1.35-1.61-3.81-.18-5.14-1.85A17.93,17.93,0,0,1,1472.67,1427.91Z" transform="translate(-1322.01 -1420.79)" style="fill:#424242"/><path d="M1512.71,1462.7c5.82-.35,11.16,1.84,16.68,3.1,1.71,1.38,5.8-.27,5.19,4-1.58,1.08-3,.28-4.53-.27a70.78,70.78,0,0,0-14.29-4c-4-.88-8.15-.25-12.23-.45-1.94-.09-3.94.23-5.73-.9a1.09,1.09,0,0,1-.3-1.53,1.11,1.11,0,0,1,.82,0A55,55,0,0,1,1512.71,1462.7Z" transform="translate(-1322.01 -1420.79)" style="fill:#878081"/><path d="M1497.5,1462.74v1a4,4,0,0,1-2.24,1.76,10.48,10.48,0,0,1-2.83.47,16.59,16.59,0,0,0-7.44,1.5c-1.08.45-2.15.9-3.25,1.29a22,22,0,0,1-5.44,1.23,3.9,3.9,0,0,1-2.71-.24l-2.09-.11c2.24-2.32,5.71-2,8.21-3.8l6.85-2C1490.24,1463.79,1493.77,1462.25,1497.5,1462.74Z" transform="translate(-1322.01 -1420.79)" style="fill:#8e8788"/><path d="M1512.71,1462.7l-14.39,0c4.57-1.61,9.31-.34,13.94-.82C1512.4,1462.18,1512.55,1462.44,1512.71,1462.7Z" transform="translate(-1322.01 -1420.79)" style="fill:#8e8788"/><path d="M1623.23,1452.81l-1.14.12c-6.59-2.23-11.82-6.56-17-10.94-4.51-2.86-9.95-4.07-13.92-7.88l2.13-.19,9.65,4.16q8.32,5.73,16.66,11.46C1621,1450.47,1622.43,1451.27,1623.23,1452.81Z" transform="translate(-1322.01 -1420.79)" style="fill:#2a2a2a"/><path d="M1472.71,1528.37c-1.28-2.1-4.13-2.55-5.18-4.9a2,2,0,0,1,1.21-.57c2.81.52,4.72,2.71,7.17,3.9.92.69,2.12,1.21,1.79,2.73a2.58,2.58,0,0,1-2,.65A5.25,5.25,0,0,1,1472.71,1528.37Z" transform="translate(-1322.01 -1420.79)" style="fill:#6a5f5f"/><path d="M1468.62,1523.38l-1.09.09a10.5,10.5,0,0,1-3.94-3.94c0-.39.08-.78.13-1.17,1.14-.49,2.16,0,3.2.38a3.71,3.71,0,0,1,1.06.83C1468.67,1520.76,1469.3,1522,1468.62,1523.38Z" transform="translate(-1322.01 -1420.79)" style="fill:#5c5150"/><path d="M1472.71,1528.37l2.84,1.05a1.5,1.5,0,0,1,.6,1,1.38,1.38,0,0,1-.56,1l-3-1.09-1.12-1.82Z" transform="translate(-1322.01 -1420.79)" style="fill:#c7c5c6"/><path d="M1460.64,1425l-16,0A27.46,27.46,0,0,1,1460.64,1425Z" transform="translate(-1322.01 -1420.79)" style="fill:#969696"/><path d="M1404.91,1438c-10.88,4.61-20.26,11.52-29.48,18.73-7.19,5.62-13.14,12.44-19.38,19-.06-.38-.11-.77-.16-1.16,3.66-5.56,9-9.62,13.19-14.7l2-1.78a61.86,61.86,0,0,0,10-8.14,121.52,121.52,0,0,0,15-9.89l16.78-7.91,3.57-.27a1,1,0,0,1,1.54.22c-1.93,2.92-6.14,1.15-8.14,3.92A6.22,6.22,0,0,1,1404.91,1438Z" transform="translate(-1322.01 -1420.79)" style="fill:#292929"/><path d="M1372,1464.05c0-.42-.09-.83-.14-1.25,8.7-9,19.07-15.64,30.29-21.07,1.61-.78,3.1-1.83,4.64-2.75a1.42,1.42,0,0,1,2,0l.06,1.12c-1.7,1.84-4.69,1.5-6.21,3.64a22.1,22.1,0,0,0-8.86,5,22.93,22.93,0,0,0-9,6.14,34.36,34.36,0,0,0-9.9,7.83Z" transform="translate(-1322.01 -1420.79)" style="fill:#292929"/><path d="M1534.48,1469.65c-.46-2.91-3.71-2.14-5.09-3.85l1.12-.3a30.84,30.84,0,0,1,15.08,9.12l-1.24.12a1.26,1.26,0,0,1-1.23.29c-1.54-.82-2.83-2.11-4.66-2.36a7.33,7.33,0,0,1-2.3-1.16A4.09,4.09,0,0,1,1534.48,1469.65Z" transform="translate(-1322.01 -1420.79)" style="fill:#bab8b8"/><path d="M1533.65,1526.57c-.35,1.89-2.57,2.1-3.31,3.64a100.55,100.55,0,0,1-19.86,6.2c-1.8.87-3.71.27-5.56.41a1.16,1.16,0,0,1-.69-1.26c3.69-2.26,8.1-2.19,12-3.65a9.18,9.18,0,0,1,1.36-.39,30.17,30.17,0,0,0,4.6-.82,12.92,12.92,0,0,0,4.62-2c1.77-1.26,3.33-2.93,5.75-2.88A1.75,1.75,0,0,1,1533.65,1526.57Z" transform="translate(-1322.01 -1420.79)" style="fill:#7f797a"/><path d="M1504.48,1536.35l6,.06a5.34,5.34,0,0,1-.07.89l-4.92.15a26.28,26.28,0,0,1-10,0c-3.8.17-7.3-1.33-10.94-2l-9-4,0-1.06c1.5-.72,3-.13,4.46.08a8.74,8.74,0,0,1,1.48.54,40.33,40.33,0,0,0,17.26,4.11C1500.8,1535,1502.85,1534.83,1504.48,1536.35Z" transform="translate(-1322.01 -1420.79)" style="fill:#c0bebf"/><path d="M1549.45,1506.68c0,1,0,1.91,0,2.87q-3.09,4.92-6.16,9.86l-2.92,1.94a2.16,2.16,0,0,1-.52-2.06c1.82-3.71,4.5-6.9,6.27-10.66C1546.66,1507.43,1547.43,1505.77,1549.45,1506.68Z" transform="translate(-1322.01 -1420.79)" style="fill:#908b8c"/><path d="M1540.42,1519.64c0,.57-.05,1.14-.07,1.71l-2,2.07a1.51,1.51,0,0,1-2,.14c-.52-2.08.45-3.45,2.11-4.52A1.78,1.78,0,0,1,1540.42,1519.64Z" transform="translate(-1322.01 -1420.79)" style="fill:#7f797a"/><path d="M1536.37,1523.43h1.94l-2,2.9-2.68.25-.53-.3a1.69,1.69,0,0,1,.08-1.25C1534,1524,1534.73,1522.81,1536.37,1523.43Z" transform="translate(-1322.01 -1420.79)" style="fill:#908b8c"/><path d="M1495.49,1537.44h10c0,.29,0,.57,0,.85C1502.15,1538,1498.69,1539.25,1495.49,1537.44Z" transform="translate(-1322.01 -1420.79)" style="fill:#d1d0d0"/><path d="M1506.63,1442l-1.14-1c4.63-3,9.43-5.73,14.89-7,0,.37.07.73.1,1.1-1.21.69-2.42,1.38-3.64,2.06C1513,1437.72,1510.27,1440.85,1506.63,1442Z" transform="translate(-1322.01 -1420.79)" style="fill:#404040"/><path d="M1418,1432.11l-1.54-.22c3.1-2.16,6.87-2.57,10.29-3.91,1.28-.47,2.61-1.12,3.18.9Z" transform="translate(-1322.01 -1420.79)" style="fill:#252525"/><path d="M1429.9,1428.88c-.8-1.2-2.14-.54-3.18-.9a1.11,1.11,0,0,1,.2-.77l7.68-1.37,1.21.28a.92.92,0,0,1,0,1.13c-.9.56-2.15-.19-2.94.79S1431,1428.89,1429.9,1428.88Z" transform="translate(-1322.01 -1420.79)" style="fill:#757575"/><path d="M1657,1498.58l-1.15.23a2.29,2.29,0,0,1-.87-2.15l.09-2.08C1657.71,1495,1658.31,1496.31,1657,1498.58Z" transform="translate(-1322.01 -1420.79)" style="fill:#1d1d1d"/><path d="M1432.83,1428c.67-1.08,1.83-.87,2.83-1.07,1.55-1.07,3.52.24,5-.9l1.87-.13,8.13.24a7.89,7.89,0,0,0,0,.84A102.25,102.25,0,0,1,1432.83,1428Z" transform="translate(-1322.01 -1420.79)" style="fill:#1b1b1b"/><path d="M1440.71,1426.07c-1.46,1.5-3.32.86-5,.9a3.07,3.07,0,0,1,.13-.85Z" transform="translate(-1322.01 -1420.79)" style="fill:#444"/><path d="M1338,1505.53c.09.75.16,1.51,1,1.89,0,.68,0,1.37-.07,2q-1.39,2.52-2.78,5c-4.64,10.51-6.13,21.88-8.88,32.91-.2.8.49,1.83.77,2.75-.9,1,.18,2.62-1.24,3.38a1,1,0,0,1-1.11-.83c.12-1.81-.48-3.67.4-5.42-.24-7.77,1.89-15.21,3.2-22.76l2-5C1334.08,1515.16,1334.18,1509.45,1338,1505.53Z" transform="translate(-1322.01 -1420.79)" style="fill:#262626"/><path d="M1326.07,1553.26h1a1.38,1.38,0,0,1,0,2c.12,2,.27,4.09.36,6.14,0,.93-.45,1.63-1.41,1.39-.38-.09-.57-1-.85-1.48a7.2,7.2,0,0,0,0-5.13l0-2.76C1325.41,1552.83,1325.69,1552.76,1326.07,1553.26Z" transform="translate(-1322.01 -1420.79)" style="fill:#2b2b2b"/><path d="M1326.07,1553.26a2.82,2.82,0,0,0-.86.14c.11-2.05-.89-4.25.83-6.09Z" transform="translate(-1322.01 -1420.79)" style="fill:#3c3c3c"/><path d="M1325.19,1556.16a3.92,3.92,0,0,1,0,5.13C1325.2,1559.58,1325.2,1557.87,1325.19,1556.16Z" transform="translate(-1322.01 -1420.79)" style="fill:#3c3c3c"/><path d="M1327.1,1555.24l0-2c0-1.11-.09-2.26.92-3.08C1327.87,1551.9,1328.73,1553.78,1327.1,1555.24Z" transform="translate(-1322.01 -1420.79)" style="fill:#3c3c3c"/><path d="M1657,1498.58c.14-1.7-.23-3.17-1.93-4-2.37-4.49-6.19-8.08-8-12.89-.29-.94.07-1.23,1-1,2.15,2.17,3.09,5.37,6,6.94.66,2.72,2.45,4.83,4,7.09.87.81,1.07,2.07,1.93,2.88,1.9,3.07,3.82,6.14,4.19,9.85l-1.08,3c-2-2.33-2.68-5.3-4-8-.69-1.32-.83-2.91-2-4Z" transform="translate(-1322.01 -1420.79)" style="fill:#0f0f0f"/><path d="M1669.88,1521.47c-2.21-1.11-2-3.1-1.86-5.06A6.44,6.44,0,0,1,1669.88,1521.47Z" transform="translate(-1322.01 -1420.79)" style="fill:#2a2a2a"/><path d="M1667.87,1515.51c-1.74-.87-2.09-2.35-1.8-4.11A5.78,5.78,0,0,1,1667.87,1515.51Z" transform="translate(-1322.01 -1420.79)" style="fill:#2a2a2a"/><path d="M1659.85,1497.64c-1.83-.17-1.89-1.52-1.93-2.88A2.62,2.62,0,0,1,1659.85,1497.64Z" transform="translate(-1322.01 -1420.79)" style="fill:#242424"/><path d="M1665.23,1518.48l-.21-2c1.72.81,2,2.29,1.92,4Z" transform="translate(-1322.01 -1420.79)" style="fill:#2a2a2a"/><path d="M1457.66,1509.53l-2.91-7c-1.29-7.25-2.88-14.55,2.87-20.84,2.51-.07,2.51-.07,2.24,4-3.87,10.34-1,19.41,5.29,27.84a3.84,3.84,0,0,1,.12,1.51,3.44,3.44,0,0,1-1.66,2.44Z" transform="translate(-1322.01 -1420.79)" style="fill:#4a3e3f"/><path d="M1473.6,1469.8l2-.9c.91.81,2.42-.16,3.2,1.06-3,4-7.16,6-11.86,7.1a2.28,2.28,0,0,1-1.36-2.36C1467.4,1471.67,1471.15,1471.79,1473.6,1469.8Z" transform="translate(-1322.01 -1420.79)" style="fill:#5f5352"/><path d="M1465.59,1474.7a2.08,2.08,0,0,1,1,2c-2,3.16-5.21,5.51-6.69,9.08a1.05,1.05,0,0,1-1.26-.1c-.85-1.21,2-3.38-1-4A19.91,19.91,0,0,1,1465.59,1474.7Z" transform="translate(-1322.01 -1420.79)" style="fill:#514546"/><path d="M1463.61,1517.51a2.09,2.09,0,0,1,1-2c1.83.72,3.24,1.65,1.94,3.92l-2.83-1.06A8.24,8.24,0,0,1,1463.61,1517.51Z" transform="translate(-1322.01 -1420.79)" style="fill:#3f3334"/><path d="M1543.47,1474.61a4.35,4.35,0,0,0,.88.13c7.8,7,9.06,16,7.9,25.81-1.4,1.13-.24,3.86-2.71,4.32-1.7-1.33-.83-3-.46-4.5,2-8,1-15.22-5.42-21.1a4.83,4.83,0,0,1-1.79-3.39C1542.05,1475,1542.43,1474.4,1543.47,1474.61Z" transform="translate(-1322.01 -1420.79)" style="fill:#6a6365"/><path d="M1542.4,1475.47c1.61,3.83,5.76,5.55,7.39,9.65,2.71,6.79,1,13.19-.25,19.75l-.09,1.81c-4.25,3.46-4.82,9.47-9,13l-1.91,0a3.07,3.07,0,0,1-2.37-1.2c-.07-2,1-2.91,2.81-3.21a1.83,1.83,0,0,0,1.34.45c-.58-.19-1.27-.23-1.44-1-.15-1.65,1-2.72,1.77-4,7.77-12.24,7.36-21.69-1.44-33a8.84,8.84,0,0,0-4.19-3.24,2.25,2.25,0,0,1-1.07-1.72c.2-1.48,1.28-1.9,2.53-2.12l1.85,1.26C1540,1472.67,1541.63,1473.59,1542.4,1475.47Z" transform="translate(-1322.01 -1420.79)" style="fill:#4c4041"/><path d="M1648,1480.73l-1,1c-5.79-5.8-10.6-12.47-16.58-18.13a141.1,141.1,0,0,0-26.33-19.75c.33-.61.65-1.22,1-1.82l17,10.94L1637,1466.8C1640.69,1471.44,1645.31,1475.33,1648,1480.73Z" transform="translate(-1322.01 -1420.79)" style="fill:#1d1d1d"/><path d="M1464.61,1430.87a105,105,0,0,0-27.89,0A45.49,45.49,0,0,1,1464.61,1430.87Z" transform="translate(-1322.01 -1420.79)" style="fill:#1b1b1b"/><path d="M1408.8,1438.94l-2,0a2,2,0,0,1-1.93-1c1.51-1,2.84-2.42,4.93-2a2.25,2.25,0,0,0,2.05,1Z" transform="translate(-1322.01 -1420.79)" style="fill:#0e0e0e"/><path d="M1562.33,1429.93a2.64,2.64,0,0,0-.79-.1c-.14-.24-.27-.48-.39-.73,2.86-.09,5.82-.64,8.11,1.81Z" transform="translate(-1322.01 -1420.79)" style="fill:#1c1c1c"/><path d="M1565.3,1426.15a11.47,11.47,0,0,1,7.1,1.78C1569.84,1428.12,1567.29,1428.25,1565.3,1426.15Z" transform="translate(-1322.01 -1420.79)" style="fill:#1c1c1c"/><path d="M1578.25,1433a13.26,13.26,0,0,1-7.13-1.93A9.13,9.13,0,0,1,1578.25,1433Z" transform="translate(-1322.01 -1420.79)" style="fill:#1c1c1c"/><path d="M1574.27,1428.13a6.35,6.35,0,0,1,5.08,1.81A5.82,5.82,0,0,1,1574.27,1428.13Z" transform="translate(-1322.01 -1420.79)" style="fill:#1c1c1c"/><path d="M1480.53,1434.86a6.2,6.2,0,0,1-4.07-1.82C1478.16,1432.87,1479.7,1433.08,1480.53,1434.86Z" transform="translate(-1322.01 -1420.79)" style="fill:#0e0e0e"/><path d="M1657,1498.6c1.85.73,2.16,2.24,2,4A5.92,5.92,0,0,1,1657,1498.6Z" transform="translate(-1322.01 -1420.79)" style="fill:#242424"/><path d="M1516.52,1464.75a34,34,0,0,1,14,4,3,3,0,0,1-2,1.12,9.65,9.65,0,0,1-3.08,0,7,7,0,0,1-1.49-.41c-2.27-1-4.44-2.2-7-2.46-1.23-.13-2.79-.32-2.62-2.26A1.93,1.93,0,0,1,1516.52,1464.75Z" transform="translate(-1322.01 -1420.79)" style="fill:#635859"/><path d="M1516.52,1464.75l-2.06,0a27.53,27.53,0,0,1-19,0l2-1C1503.84,1464.28,1510.27,1462.66,1516.52,1464.75Z" transform="translate(-1322.01 -1420.79)" style="fill:#6b5e59"/><path d="M1528.39,1468.77l2.1-.07,4,1c.75.12,1.58.07,2,.95l-2.07,2.17c-2.23,1.4-3.67-.24-5.25-1.35C1528.49,1470.65,1527.86,1469.86,1528.39,1468.77Z" transform="translate(-1322.01 -1420.79)" style="fill:#504445"/><path d="M1495.46,1464.77l19,0c3.13,1.8,7.44.66,10,4-1.21,1.21-2.67,1-4.17.75-10.63-2.07-21.23-2.45-31.82.27a9,9,0,0,1-6.33-.38,1.09,1.09,0,0,1-.52-1.51l2.94-1.13c2.58-1,5.35-1.21,8-1.93Z" transform="translate(-1322.01 -1420.79)" style="fill:#655956"/><path d="M1492.52,1464.84a15.32,15.32,0,0,1-8,1.93C1486.9,1465,1489.66,1464.7,1492.52,1464.84Z" transform="translate(-1322.01 -1420.79)" style="fill:#6b5e59"/><path d="M1481.58,1467.9c0,.29,0,.58,0,.88-.36,2.23-1.61,1.76-3,1-1.06,0-2.2.18-3-.86Z" transform="translate(-1322.01 -1420.79)" style="fill:#6b5e59"/><path d="M1468.62,1523.38a6.23,6.23,0,0,1-1-3.91l.56-.42c4.28.92,6.86,4.13,9.66,7.06-.38,1.07-1.28,1.23-2.24,1.3C1472.78,1526.91,1471,1524.69,1468.62,1523.38Z" transform="translate(-1322.01 -1420.79)" style="fill:#544949"/><path d="M1475.59,1527.41a2,2,0,0,1,2-1c1.66-.64,2.66.07,3.25,1.6-.26,1-1.1,1.41-2,1.73a1.43,1.43,0,0,1-1.25-.36Z" transform="translate(-1322.01 -1420.79)" style="fill:#524443"/><path d="M1477.59,1529.4a6.17,6.17,0,0,0,1,0c.9.31,1.41.84,1.07,1.85l-4-1a4.55,4.55,0,0,1-.07-.9Z" transform="translate(-1322.01 -1420.79)" style="fill:#7a7274"/><path d="M1466.55,1519.42c.23-1.74-1.4-2.57-1.94-3.92,0-.34,0-.67,0-1a1.33,1.33,0,0,1,1.44-.16c1.83,1.32,3.16,2.79,1.54,5.14h0Z" transform="translate(-1322.01 -1420.79)" style="fill:#544949"/><path d="M1542.4,1475.47c-1.81-.71-2.91-2.2-4.1-3.61,2.53-.59,3.91,1,5.17,2.75Z" transform="translate(-1322.01 -1420.79)" style="fill:#878081"/><path d="M1517.52,1532.5a30.16,30.16,0,0,1-13,3,36,36,0,0,1-21.13-3.26c-.05-2.5,1.77-2.53,3.52-2.65a5.74,5.74,0,0,1,1.62.4c7.89,2.06,15.87,1.12,23.83.6a5.86,5.86,0,0,1,3.77-.6A2.58,2.58,0,0,1,1517.52,1532.5Z" transform="translate(-1322.01 -1420.79)" style="fill:#514646"/><path d="M1483.52,1531.41c6.57,3.64,13.8,3.84,21,4a6.82,6.82,0,0,0-.07.9c-8.43.44-16.64-.19-24-4.89a2,2,0,0,1,1.87-.76A2.25,2.25,0,0,1,1483.52,1531.41Z" transform="translate(-1322.01 -1420.79)" style="fill:#675e60"/><path d="M1533.32,1525.4a2.62,2.62,0,0,1-.2.87c-2.3.32-3.8,2.09-5.69,3.14a1,1,0,0,1-1.1.26c-1-.71-2.52-.34-3.31-1.54a2.51,2.51,0,0,1,0-1.36c1.68-2,4.1-2.53,6.42-3.26C1531.13,1523.4,1532.62,1523.61,1533.32,1525.4Z" transform="translate(-1322.01 -1420.79)" style="fill:#3d3234"/><path d="M1523.42,1527.41v1c.67,1.3,2.19-.05,2.95.94l1.06.06a6,6,0,0,1-4.93,2c-1.51,1.13-3.56-.34-5,1l0,0a2.29,2.29,0,0,1-1.07-2.1C1518.3,1528.31,1520.07,1526,1523.42,1527.41Z" transform="translate(-1322.01 -1420.79)" style="fill:#493d3e"/><path d="M1517.48,1532.46c1.37-1.79,3.31-.83,5-1C1521,1532.77,1519.19,1532.29,1517.48,1532.46Z" transform="translate(-1322.01 -1420.79)" style="fill:#514646"/><path d="M1482.55,1531.37l-2.09.09c-.28,0-.56-.1-.84-.17-.36-.61-.71-1.23-1.07-1.85a2.15,2.15,0,0,1,2-1,1.27,1.27,0,0,1,1.34-.12C1483,1529.15,1483.6,1530.1,1482.55,1531.37Z" transform="translate(-1322.01 -1420.79)" style="fill:#4e403f"/><path d="M1533.32,1525.4a6.88,6.88,0,0,0-3.93-1c.92-3.62,3.49-5.31,7-6a2.2,2.2,0,0,1,2.15,1.2l-2.14,3.77Z" transform="translate(-1322.01 -1420.79)" style="fill:#483c3c"/><path d="M1465.61,1514.51l-1,0a87.07,87.07,0,0,1-6.11-10c-3.07-6.48-1.34-12.55.13-18.8l1,0c1.27,1.19,1,2.65.81,4.14a29.67,29.67,0,0,0,4.15,19.81C1465.44,1511.06,1467,1512.52,1465.61,1514.51Z" transform="translate(-1322.01 -1420.79)" style="fill:#6d5852"/><path d="M1465.61,1514.51c-2.42-5.46-5.81-10.4-6.62-16.69-.54-4.26.68-8.12.63-12.18.4-4.47,3.37-7,7-8.93q6-3.46,12-7c1.1,0,2.27.18,3-1,8.94-.87,17.76-2.43,26.85-2.2,5.51.14,10.68,1.46,16,2.19l1,0c1.14,1,2.83,1,4,2l5,2,1,1c1.26,1.09,3.09,1.4,4,2.94,10,8.71,10.77,23.42,1.81,35.43-.78,1-1.85,1.89-1.82,3.36h0a6.47,6.47,0,0,0-3,3l-7,6-6,3c-2.77,0-4.32,2.75-7,3l-3,1c-8.66.37-17.37,1.78-25.91-1h0c-1.91-.9-4.43,0-6-2-.33,0-.65,0-1,0l-3-2c-3.73-1.75-5.93-5.66-10-7C1468,1517.38,1466.51,1516.07,1465.61,1514.51Z" transform="translate(-1322.01 -1420.79)" style="fill:#725953"/><path d="M1539.37,1515.49l2.84-1.68c-.8,1.55-.48,4.19-2.84,1.68Z" transform="translate(-1322.01 -1420.79)" style="fill:#392c2e"/><path d="M1539.38,1476.7c-1.47-.81-3.24-1.21-4-2.94C1537.2,1474.06,1539,1474.36,1539.38,1476.7Z" transform="translate(-1322.01 -1420.79)" style="fill:#504445"/><path d="M1529.41,1470.75c-1.71.11-3.22-.17-4-2l3,0Z" transform="translate(-1322.01 -1420.79)" style="fill:#655956"/><path d="M1487.55,1530.39c8.58,1.88,17.27.69,25.91,1C1504.76,1532.59,1496.06,1534.07,1487.55,1530.39Z" transform="translate(-1322.01 -1420.79)" style="fill:#594d4c"/><path d="M1481.57,1528.41c2,.68,4.25.53,6,2a7,7,0,0,0-4,1c-.33,0-.65,0-1,0C1482.22,1530.38,1481.89,1529.4,1481.57,1528.41Z" transform="translate(-1322.01 -1420.79)" style="fill:#594d4c"/><path d="M1526.37,1529.35c-1.21-.29-2.3,1.62-3.52.2-.1-.13.37-.75.57-1.14C1524.36,1528.88,1526.14,1526.69,1526.37,1529.35Z" transform="translate(-1322.01 -1420.79)" style="fill:#322629"/><path d="M1501.2,1529.54c-17.58-1-32-7.53-38.67-24.91-5.67-14.78-.16-25.94,16.49-31.77a80.56,80.56,0,0,1,34.63-4c9.7.93,19.13,4.32,25.56,11.61s7.09,14.46,2.12,25.65c-5.11,11.5-15.18,16.72-25.94,21.33C1510.81,1529.43,1506.12,1529.59,1501.2,1529.54Z" transform="translate(-1322.01 -1420.79)" style="fill:#745551"/></svg>