<svg id="Layer_3" data-name="Layer 3" xmlns="http://www.w3.org/2000/svg" viewBox="0 0 3000 3000"><title>purplemouth</title><path d="M1132.19,1518c2.77-41.5,12.32-98.39,41.35-156.7,10.83-21.76,28.07-55.64,61.67-87.69,18.52-17.66,59.69-56.33,121.15-63.33,18.2-2.07,58.68-6.06,98,19.49a136.32,136.32,0,0,1,20.31,16.24l3.34,3.28c1.53-1.39,3.83-3.41,6.69-5.72,0,0,35.33-28.5,82.29-34.1,61.45-7.32,116.09,34.71,131.13,46.28,71.37,54.9,94.52,135.79,101.21,164.41a321.88,321.88,0,0,1,8.34,74.29L1746,1442.65l-15.76,61-78.84-89.48-24,123.17-81.66-89.42-22,121.95-100.43-137.92s-92.52,97.41-95.64,103.53-44.12-104.28-44.12-104.28l-45.81,109.34-44.45-97.85Z" style="fill:#fff"/><path d="M1148.22,1420.29c-.56,14.5-3.83,28.87-2.1,43.51.42,3.52-2.17,6.41-3.64,9.48-7.76,3.23-10.93-1.41-13.17-7.64A238.9,238.9,0,0,1,1137,1393c.8-3,2.34-5.81,3.54-8.7a1.92,1.92,0,0,1,2.78.48c1.48,2.5,1.25,5.11.52,7.75-7.25,23.57-9.14,47.58-6.66,72,4.09-6.62,2.29-13.85,2.69-20.82.47-8.14.07-16.42,5.42-23.42A2.49,2.49,0,0,1,1148.22,1420.29Z" style="fill:#cacaca"/><path d="M1788.73,1414.49c-.06-.58-.15-1.17-.25-1.74a8.4,8.4,0,0,1-.64-7.2,2.54,2.54,0,0,1,2.69-.86c2.65,1.94,3.49,4.78,4,7.81.34,3.34.26,6.74,1.46,10a22.92,22.92,0,0,1,.7,4.27c-.65,11.84,4.43,23.37,1.88,35.36,4.93-15.29,0-30.53.1-45.76a18,18,0,0,1-.61-2.61c-.48-3.35-.17-6.89-2.38-9.84a6.68,6.68,0,0,1-.49-2.54c.4-2.6.68-5.24,2.27-7.48a1.52,1.52,0,0,1,2.24.13l2.58,12.82c3,6.26,1.44,13.51,4.21,19.83.2,5.35,0,10.7.09,16,0,3.72,0,7.43,0,11.14-.22,5.1,1,10.39-2,15.14-2.36,2.56-5.36,2.44-8.44,2-6.79-3.5-2.64-9.74-3.68-14.68a11.47,11.47,0,0,0,0-9.59l-.24-9.34C1790,1429.93,1790,1422.12,1788.73,1414.49Z" style="fill:#9b9b9b"/><path d="M1425.63,1479a58.93,58.93,0,0,0,7.52,0c15.34-2,29.65,1.51,43,8.62,4.55,2.42,8.32,2.52,13.25,1.75s10.69-.45,14.1,4.83c-14.63,5.65-27.13-1.24-39.78-6.86-1.94-.86-3.49-2.61-5.82-2.68-4.38-4.2-9.88-2.4-15-2.8-5.78-.47-11.65,1-17.35-.9h0c-.48-.44-.64-.87-.47-1.29S1425.46,1479,1425.63,1479Z" style="fill:#e7e4e4"/><path d="M1474.79,1464.22c-4.55-1.15-7-5.16-10.39-7.8a31.41,31.41,0,0,0-27.38-6c-1-1.36-2.36-1.2-3.75-.67-2.34.43-4.31,2.49-7,1.55l-.89-.89c12.43-11.64,29-12.34,42.65-1.82,3.45,2.66,7,5.25,10.43,7.87.66.31,1,.72.9,1.22s-.17.83-.34.83a4.47,4.47,0,0,1-3.75.7c-2.35-1-4-3.06-6.18-4.24a15.92,15.92,0,0,0-5.94-4c-2.17-2-5-2.79-7.72-3.64-3.49-1.37-6.67-3.68-10.7-3.33,3.56-.07,6.58,1.55,9.63,3.06,3.15,1.22,6.6,1.8,9.12,4.34,2.67.46,4.07,2.78,6.09,4.18a19.22,19.22,0,0,1,4.68,4.13C1475.23,1461.1,1476.24,1462.53,1474.79,1464.22Z" style="fill:#767676"/><path d="M1385.54,1371.35c-4.79-5.61-7.26-12.34-9.35-19.26-3.73-12-4.43-24,0-36.08a10.42,10.42,0,0,1,3.81-7.56c1.86-2.56,4-4.88,5.78-7.52l9.48-7.57c1.37.58,2.48,1.39,2.52,3.06a10.55,10.55,0,0,1-3.9,6.27c-16.17,14.25-17.25,31.6-10.56,50.57a77,77,0,0,0,3.8,10.22,10.94,10.94,0,0,1,.5,4.22A5,5,0,0,1,1385.54,1371.35Z" style="fill:#cccbcb"/><path d="M1560.54,1297.11c13,13.29,18.5,29,13.44,47.13-3.23,11.55-4.67,24.28-15.42,32.4-2.78-5.49,3.38-8.68,3.46-13.43,1.7-5.38,5-10.16,6.09-15.77.21-.85.47-1.69.73-2.52,1.12-3.47.65-7,.66-10.56.37-10.88-2.2-20.82-9.17-29.43-1.76-2.18-3.49-4.44-2.26-7.56A1.54,1.54,0,0,1,1560.54,1297.11Z" style="fill:#efefef"/><path d="M1494.24,1210.15c13.49-5.21,27.16-9.77,41.59-11.57,3.77-1.52,7.84-1.06,11.72-1.86q12.06-.09,24.14,0c4.42,1.24,9.17.14,13.53,1.88h0a2,2,0,0,1-.69,2.86c-6.37,2.89-13.15,1-19.71,1.71-17.91-.74-35.27,2.66-52.48,7a35.52,35.52,0,0,0-10.51,2.39c-.79.36-1.6.67-2.41,1-2.43.81-4.84,2.18-7.42.44C1491.14,1211.81,1492.64,1211,1494.24,1210.15Z" style="fill:#848484"/><path d="M1674.41,1249.8c-20.14-12.53-41.92-21.37-64.46-28.5a1.76,1.76,0,0,1,.25-2.57c5.11-2.92,9.42.62,14,1.72,18.25,4.35,34.49,13.1,50.29,22.8,2.37,1.46,4.82,3.19,4,6.7A3.45,3.45,0,0,1,1674.41,1249.8Z" style="fill:#bababa"/><path d="M1716.11,1261.18a259,259,0,0,1,45.75,51.18c1.17,1.12,1.08,2.42.51,3.77-4.94,1.32-6.52-2.78-8.68-5.6-7.8-10.21-15.33-20.65-25.09-29.19-4.09-4.29-8.43-8.34-12.47-12.67-2-2.18-5-4.11-3.72-7.9A2.71,2.71,0,0,1,1716.11,1261.18Z" style="fill:#aeaeae"/><path d="M1148.22,1420.29l-2.14,0c-3.44-4.27-1.91-8.79-.7-13.32,3-11.13,6.47-22.09,10.3-33,1.3-3.08,2.9-6,4.32-9,4-4.75,3.41-13,11.18-15a1.82,1.82,0,0,1,.14,2.54c-7.85,18.67-15.3,37.46-21,56.94A80.57,80.57,0,0,0,1148.22,1420.29Z" style="fill:#bcbcbc"/><path d="M1788.63,1405l-.15,7.73c-6-5.44-4.59-13.58-6.45-20.25-4.32-15.49-12.09-29.23-18.47-43.68-.62-1.41-1-2.91-1.52-4.37,2.14-.85,3.67.29,5.17,1.56,8.07,11.13,12.21,24.14,17.59,36.57C1786.75,1389.94,1791.1,1396.91,1788.63,1405Z" style="fill:#cecece"/><path d="M1510.11,1492.56l-23.1-13.85a7.29,7.29,0,0,1-3.52-5.8c.73-2.64,2.27-4.22,5.23-3.91,7.58,5.47,15.1,11,23.63,15.08,2.06,1,4,2.51,3.45,5-.68,2.87-2.34,5.18-6,3.68Z" style="fill:#2f2e2e"/><path d="M1609.94,1219.41c0,.63,0,1.26,0,1.89-21.9-4.73-44-7.11-66.43-5.47a5.88,5.88,0,0,1-6.13-.24c1.45-5.85,7.19-3.73,10.71-5.76a131.68,131.68,0,0,1,26.41-.07c4,1.46,8.29,1.33,12.46,1.84C1594.62,1214.23,1603.89,1212.13,1609.94,1219.41Z" style="fill:#d9d9d9"/><path d="M1142.73,1384.34l-2.19-.06c5.26-18.1,11.82-35.63,22.46-51.39a2,2,0,0,1,2.62,0c2.32,6.36-2.84,10.61-4.47,15.86a156.26,156.26,0,0,0-13.34,31.54C1146.62,1382.23,1145.78,1384.66,1142.73,1384.34Z" style="fill:#cacaca"/><path d="M1450.29,1238.57l-3.9-2c-4.45-3.66-9.92-5.37-15-7.77-11.9-6.41-25.22-8-38.07-11.15a1.9,1.9,0,0,1,.28-2.69,5.55,5.55,0,0,1,3.47-1.32c19.68,2,38.2,7.37,54.47,19.07a4.7,4.7,0,0,1,1.28,2.48A3.31,3.31,0,0,1,1450.29,1238.57Z" style="fill:silver"/><path d="M1393.32,1215.6l0,2c-23.89-1.86-47.19,1.89-70.29,7.44a3.35,3.35,0,0,1-.57-3.11c9.2-7.77,21-6.29,31.69-8.73,3-.69,6.21-.21,9.33-.23,7.87.08,15.75-.11,23.62.11C1389.43,1213.26,1391.69,1213.66,1393.32,1215.6Z" style="fill:#cdcdcd"/><path d="M1509.79,1492.73c5-2.86,7.15-5-.1-8.42-7.88-3.71-15.66-8-21.67-14.64a18.11,18.11,0,0,1-4.85-3.37c-2-2.41-5.28-4.06-4.64-8a13,13,0,0,0,0-1.87c6.89,5.78,14.08,11.24,20.56,17.44,4.67,4.47,10.88,6.06,15.76,9.91,2.29,1.8,4.39,3.75,2.65,7.1C1515.62,1494.48,1513,1494.93,1509.79,1492.73Z" style="fill:#ddd9d9"/><path d="M1195.85,1312.33q-4.74,6.75-9.49,13.51a95.92,95.92,0,0,0-9.2,15.15c-1.41,2.74-2.16,6.06-6.33,5.68a5.24,5.24,0,0,1-1.39-3.78,24.52,24.52,0,0,1,2.22-7.81c2.58-4,6.35-7.16,7.8-11.88,4.5-5.46,6.23-13.39,14.14-15.82a4.69,4.69,0,0,1,2.59,1A3.56,3.56,0,0,1,1195.85,1312.33Z" style="fill:#494949"/><path d="M1494.24,1210.15c-.75,1.14-1.5,2.29-2.26,3.43-10,10.87-23.85,15.52-33.85,11.34-2.36-1.27-4.65-2.66-6.9-4.12-2.25-2.3-7-2.34-6.54-7.12,3.71-.55,6.93,1,9.63,3.06,8.88,6.62,16.87,5.26,25.54-.87C1483.91,1213,1488.41,1209.4,1494.24,1210.15Z" style="fill:#d0d0d0"/><path d="M1444.69,1213.68l7.65,5.61a4.45,4.45,0,0,1-3.59,1.64c-7.08-1.12-12.88-5.72-19.81-7.26a17.3,17.3,0,0,1-2.5-.89c-3.53-2-7.49-2.53-11.35-3.41a64.76,64.76,0,0,0-18.07-3,6.78,6.78,0,0,1-4-2.12,2.89,2.89,0,0,1,1.21-2.74c4.24-1.1,8.38-.25,12.51.66A131.27,131.27,0,0,1,1444.69,1213.68Z" style="fill:#818181"/><path d="M1585.34,1200.37c0-.58-.09-1.17-.15-1.76,20-.75,38.07,6,55.54,14.81a4.61,4.61,0,0,1-2.44,1.86c-3.62,1-6.75-.64-10-1.79-11-3.87-22-7.49-33.6-9.19C1591.36,1203.81,1587.76,1203.32,1585.34,1200.37Z" style="fill:#d2d2d2"/><path d="M1729.19,1297.34l-28.35-28.14a2.28,2.28,0,0,1,0-2.68c9.15.2,30.74,21.71,31,30.87A2.08,2.08,0,0,1,1729.19,1297.34Z" style="fill:#b9b9b9"/><path d="M1442.73,1274.38c19-3.54,38-7.61,57.33-2.11-2,2.53-4.83,2.59-7.64,2.78-8.57.46-17.21-.91-25.74.92a17.58,17.58,0,0,1-3.13.65c-6.77-.73-13.45,2.91-20.28.5A1.9,1.9,0,0,1,1442.73,1274.38Z" style="fill:#dddbdc"/><path d="M1667.31,1226.69c13.8,8,27.3,16.41,39.79,26.37a2.16,2.16,0,0,1,0,2.68,4.85,4.85,0,0,1-4.12.65c-11.35-7.66-22.12-16.18-34-23.15-2.38-1.41-5-2.89-4.25-6.45A2,2,0,0,1,1667.31,1226.69Z" style="fill:#b8b8b8"/><path d="M1385.54,1371.35l.34-4.46c8,1.44,8.4,10.26,13.93,14.08,2.59,2.77,5.27,5.44,8,8.06,2.48,3.79,8.56,4.6,8.67,10.36a3.93,3.93,0,0,1-2.29,1.13c-2.27-.25-3.84-2-5.81-2.84l-2-1.78c-3.83-3.14-7-7-11.19-9.74l-1.91-1.89c-2.22-2.27-3.67-5.13-5.74-7.52Q1386.56,1374.05,1385.54,1371.35Z" style="fill:#c7c5c6"/><path d="M1406.74,1202.21l-13.55.3-1.49.26c-9.56,1-19.27-1-28.76,1.4a23.26,23.26,0,0,1-4.77.69c-4.34-.25-9,1.15-12.59-2.69C1366,1197.41,1386.36,1195.89,1406.74,1202.21Z" style="fill:#b6b6b6"/><path d="M1237.54,1249.74c8.51-7.66,18.3-13.45,28.11-19.24a4.78,4.78,0,0,1,4.16-.13,3.15,3.15,0,0,1-.8,4.2c-8.76,6.33-16.73,14-27.59,17A5.21,5.21,0,0,1,1237.54,1249.74Z" style="fill:#bcbcbc"/><path d="M1270.26,1231l-4.61-.51c11.58-6.84,23.33-13.31,36.46-16.78a3,3,0,0,1,.86,2.62C1293.07,1223.46,1283,1230.18,1270.26,1231Z" style="fill:#cacaca"/><path d="M1195.84,1287.75c7.33-5.83,10.73-15.75,20.2-19.36a2.11,2.11,0,0,1,2.44-.15c1.62,4.33-1.92,6.36-4.22,8.64a258.6,258.6,0,0,0-19.2,20.93c-1.46,1.15-3,2.07-5,1.61a2.94,2.94,0,0,1-1-2.33C1190,1293,1193.91,1291.08,1195.84,1287.75Z" style="fill:#b9b9b9"/><path d="M1771.57,1325.46c8.35,11,14,23.34,18.81,36.15-2.13.86-3.63-.29-5.11-1.54-6-9.87-12.09-19.75-15.6-30.91A4.87,4.87,0,0,1,1771.57,1325.46Z" style="fill:#ececec"/><path d="M1322.88,1222.84l.12,2.22-32,11.62c-2.42.88-4.4,3.06-7.34,2.4a2.2,2.2,0,0,1-1.05-2.24c2.55-5.3,8.47-5.2,12.66-7.89,5.91-2.17,11.64-4.84,17.75-6.48C1316.34,1221.58,1319.68,1220.22,1322.88,1222.84Z" style="fill:#bdbdbd"/><path d="M1729.19,1297.34l2.91-.44c10.06,5.54,17.58,13,18.74,25.12a2.21,2.21,0,0,1-2.57-.07C1742.19,1313.53,1733.43,1307.18,1729.19,1297.34Z" style="fill:#bfbfbf"/><path d="M1190,1298.82l3.67-2a3.63,3.63,0,0,1,1.22,2.28c-3.5,8.63-10.81,14.79-15,23-3,3.2-4.85,7.35-8.69,9.76a3.26,3.26,0,0,1-2.49-.61c-1.64-2.88.58-5,1.5-7.31,1.59-3,3.78-5.54,5.39-8.49,2.13-2,3.07-4.86,5.37-6.68,1.59-.69,1.69-2.16,1.86-3.59A43.33,43.33,0,0,1,1190,1298.82Z" style="fill:#4a4a4a"/><path d="M1560.54,1297.11l-2.17.12a3.8,3.8,0,0,1-3.82.71,102.1,102.1,0,0,0-28.4-16.93c-1.44-1.27-2.7-2.61-1.71-4.75C1539,1278.91,1550.46,1286.79,1560.54,1297.11Z" style="fill:#f2f2f2"/><path d="M1526.33,1405.12c-11.81,6.48-24.11,11.38-37.85,11.57l-.67-1.28a3.55,3.55,0,0,1,1.6-2.3c12.09-4,23.85-9.19,36.73-10.44A1.53,1.53,0,0,1,1526.33,1405.12Z" style="fill:#d2d1d1"/><path d="M1397.44,1295.36l-2.21-2c8.51-6.49,18.44-10,28.4-13.39a5.86,5.86,0,0,1,5.58-.42c1.34,4.24-2.43,4.38-4.65,5.41-3.1,1.43-6.41,2.43-9.46,4C1408.9,1290.23,1404.8,1297.3,1397.44,1295.36Z" style="fill:#d3d1d1"/><path d="M1585.22,1198.61l-13.31-.32a89,89,0,0,0-24.66,0l-11.42.26C1552.3,1192.55,1568.76,1193.09,1585.22,1198.61Z" style="fill:#d2d2d2"/><path d="M1230.16,1276.7l-18.85,18.78a2.27,2.27,0,0,1-2.58,0c-2.23-4.38,1-6.88,3.49-9.44,3.58-3.76,7.07-7.64,11.28-10.76,2.09-1.14,4.19-2.26,6.67-1.17A2.12,2.12,0,0,1,1230.16,1276.7Z" style="fill:#b1b1b1"/><path d="M1554.85,1380.5a38.25,38.25,0,0,1-19,19c-1.18-1.6-.32-3.08.25-4.58,1.06-2.16,2.58-4,3.84-6.06a13.89,13.89,0,0,1,4.23-4.2,68.5,68.5,0,0,1,6.07-3.87C1551.74,1380.15,1553.24,1379.32,1554.85,1380.5Z" style="fill:#ebebeb"/><path d="M1667.31,1226.69l-2.69.53c-7.64,2-12.49-4.36-18.84-6.27-2.88-2-7.09-2.54-7.89-6.92l2.84-.61C1650.41,1216.22,1659.45,1220.29,1667.31,1226.69Z" style="fill:#c9c9c9"/><path d="M1786.6,1359.66l3.78,1.95c1.86,11.15,8.9,20.82,9.31,32.39a12.37,12.37,0,0,0-1.72-.17C1791.45,1383.34,1785.47,1372.68,1786.6,1359.66Z" style="fill:#d0d0d0"/><path d="M1482.65,1418.4c-15.11,4.85-29.41.39-43.73-3.78a1.73,1.73,0,0,1,.48-2.59c7.26-1.48,13.78,2.57,20.82,2.78,6,1.91,12.26.46,18.35,1.33A6.29,6.29,0,0,1,1482.65,1418.4Z" style="fill:#e3e2e2"/><path d="M1230.16,1276.7l-.38-2.66c3.17-9.3,10.4-13.77,19.37-16.19a3.7,3.7,0,0,1,2.24,1.67A128.53,128.53,0,0,1,1230.16,1276.7Z" style="fill:#bdbdbd"/><path d="M1171.13,1346.65c6.52-5.89,7.45-15.84,15.23-20.81a89.92,89.92,0,0,1-15,26.65l-.57-2.79A2.11,2.11,0,0,1,1171.13,1346.65Z" style="fill:#c8c8c8"/><path d="M1237.54,1249.74l4.09.13c-4,8.33-9.46,14.84-19.64,15.28a2.4,2.4,0,0,1,0-2.71C1226.11,1256.91,1231.71,1253.19,1237.54,1249.74Z" style="fill:#b7b7b7"/><path d="M1421.79,1463.85l-.16,7.21c-5.84,6.37-6.85.36-8.13-3.42-1-2.86,1-5.28,2.76-7.5l5.42-6.06C1425.13,1457.3,1419.45,1460.62,1421.79,1463.85Z" style="fill:#898888"/><path d="M1524.44,1276.26l2.1,3.23a3.61,3.61,0,0,1-2.31,1.92c-10.77-.6-21-4.31-31.51-6.05a2.39,2.39,0,0,1-1-2.7l8.31-.38Z" style="fill:#dbdada"/><path d="M1526.3,1219.39c-8.61,1.28-16.57,4.62-24.56,7.85l-.85-1.23c-.22-4.77,3.63-5.47,6.83-6.84,5.52-1.23,10.75-3.44,16.21-4.89,3.38-.9,6.79-1.47,9.91.86C1534.08,1221.4,1528,1216.52,1526.3,1219.39Z" style="fill:#c3c3c3"/><path d="M1482.58,1238.36c-7.73,4.61-15.31,10.17-24.83,4.14a1.79,1.79,0,0,1,0-2.59c7.22.15,13.91-3,21-3.54A6.52,6.52,0,0,1,1482.58,1238.36Z" style="fill:#d2d2d2"/><path d="M1482.58,1238.36l-4.29-.25c-.26-2,.79-3.42,2.15-4.68,6.33-3.56,11.66-9.59,20-8.09l1.26,1.9Z" style="fill:#cecece"/><path d="M1376.16,1316a87.21,87.21,0,0,0,0,36.08C1370.86,1340.07,1369.71,1328,1376.16,1316Z" style="fill:#dfdede"/><path d="M1674.41,1249.8l4.2-.18c7.67-1.44,11.33,3.38,14.38,9.17a4.59,4.59,0,0,1-1.34,4Q1683,1256.28,1674.41,1249.8Z" style="fill:#c1c1c1"/><path d="M1302.24,1215.94c0-.74-.08-1.47-.13-2.21a6.75,6.75,0,0,1,1.61-.25,82.8,82.8,0,0,1,7.91-3.43c5.53-1.53,10.59-4.82,16.64-4.4l1,1a3.31,3.31,0,0,1-.87,2.53c-5.87,4-13,4.95-19.28,8C1306.66,1217.69,1304.26,1217.87,1302.24,1215.94Z" style="fill:#b6b6b6"/><path d="M1283.19,1240.42c-5.75,3.13-10.62,7.79-17.06,9.69a3.59,3.59,0,0,1-1.13-2.63c4-6.68,9.29-11.09,17.77-9.54.22.26.46.52.69.78A1.11,1.11,0,0,1,1283.19,1240.42Z" style="fill:#bdbdbd"/><path d="M1425.61,1480.94c8.36,0,16.73-.06,25.1,0,3,0,6.53-.86,7.22,3.69-7.34-2.52-15-1.63-22.48-1.88C1432.12,1482.65,1428.42,1484,1425.61,1480.94Z" style="fill:#e9e6e6"/><path d="M1265.88,1247.4c.08.91.16,1.81.25,2.71-4.81,3.31-9.18,7.29-14.75,9.41l-2.73-.41C1251.61,1251.1,1256.94,1247.49,1265.88,1247.4Z" style="fill:#bdbdbd"/><path d="M1425.63,1479c0,.64,0,1.28,0,1.93-6.88.23-13.4,0-13.26-9.51,3.62.11,6.07,3.13,9.47,3.79A6.65,6.65,0,0,1,1425.63,1479Z" style="fill:#e9e6e6"/><path d="M1765.6,1346.44l-3.56-2-7.69-13.23a3,3,0,0,1-.44-3.76c7.34-.41,7.66,6.54,11,10.36a21,21,0,0,1,2,5A3.75,3.75,0,0,1,1765.6,1346.44Z" style="fill:#b2b2b2"/><path d="M1208.54,1295l2.77.46c-5.93,4.9-8.4,13-15.46,16.85,0-1.26,0-2.52,0-3.79C1197.14,1301.3,1201.47,1296.89,1208.54,1295Z" style="fill:#bebebe"/><path d="M1421.79,1463.85c-6.85-3.18,1.8-6.53-.11-9.77l3.75-3.68c.27.32.54.63.83.94,1.09,1,3,0,3.9,1.5a1.71,1.71,0,0,1-.56,2C1427.25,1458,1423.11,1459.74,1421.79,1463.85Z" style="fill:#717171"/><path d="M1438.92,1412.8v1.82c-8.32-2.34-16.67-4.61-22.86-11.25l1-.89c2.33-.77,4.35.24,6.41,1.08C1428.36,1407,1435.5,1406.84,1438.92,1412.8Z" style="fill:#e4e3e4"/><path d="M1429.71,1280.24l-6.08-.27c5.45-5,12.69-3.89,19.1-5.59l0,2C1439.77,1282.27,1434.85,1281.63,1429.71,1280.24Z" style="fill:#e0dfdf"/><path d="M1554.85,1380.5l-4,1.77c-.61-8.85,6.47-13.33,11-19.27a2.38,2.38,0,0,1,2.54.45c0,5.25-5.25,8.2-5.82,13.19Z" style="fill:#d1d0d1"/><path d="M1788.73,1414.49c2.36,7.46,4,15,3.48,22.92C1787.2,1430.35,1788.73,1422.31,1788.73,1414.49Z" style="fill:#cecece"/><path d="M1421.82,1475.23a9.19,9.19,0,0,1-9.47-3.79c.19-4.15-1.57-9,3.91-11.3-2.75,10-2.17,11.22,5.37,10.93C1421.69,1472.45,1421.76,1473.84,1421.82,1475.23Z" style="fill:#d5d1d1"/><path d="M1771.57,1325.46l-.18,4c-6.1-1-6.87-6.82-9.88-10.62a3.05,3.05,0,0,1,.26-2.47l.09-4Z" style="fill:#d0d0d0"/><path d="M1691.65,1262.77l.09-3.87c6.31-1.5,8.72,2,9.56,7.46-.15.94-.3,1.89-.46,2.84Z" style="fill:silver"/><path d="M1176.69,1316c-1.35,2.87-2.61,5.79-5.29,7.76a1.55,1.55,0,0,1-2.44-.2,22.61,22.61,0,0,1,7.68-11.45A2.63,2.63,0,0,1,1176.69,1316Z" style="fill:#d1d1d1"/><path d="M1537.62,1395.45c-.59,1.34-1.18,2.67-1.78,4l-9.51,5.67-.12-2.26c-.14-4.42,3.58-5.85,6.27-8.09C1534.32,1394.08,1536.08,1394,1537.62,1395.45Z" style="fill:#d5d3d4"/><path d="M1431.36,1228.77c6,.7,11.33,2.65,15,7.77C1440.91,1234.86,1435.6,1232.84,1431.36,1228.77Z" style="fill:#f0f0f0"/><path d="M1328.27,1205.65c4.7-3.49,10.12-3.59,15.62-3.33a2,2,0,0,1-.23,2.76c-4.65,2.73-9.36,4.87-14.62,1.43C1328.78,1206.22,1328.53,1205.93,1328.27,1205.65Z" style="fill:#b6b6b6"/><path d="M1805.93,1443l-.45-16.7c-.89-1.57-1-3.09.38-4.47,3.27,6.85,1,14.14,1.7,21.19C1807,1443.86,1806.46,1443.89,1805.93,1443Z" style="fill:#d1d1d1"/><path d="M1129.31,1465.64c3.14,4.69,6.41,9.16,13.17,7.64C1133.62,1476.73,1130.94,1475.18,1129.31,1465.64Z" style="fill:#efefef"/><path d="M1805.86,1421.83c-.13,1.49-.25,3-.38,4.47-2.27-6.29-2.46-12.93-3.21-19.48C1806.36,1411.13,1805.67,1416.59,1805.86,1421.83Z" style="fill:#cdcdcd"/><path d="M1526.3,1219.39l7.63-3.76a2.49,2.49,0,0,1,3.41-.25l6.18.45A32.92,32.92,0,0,1,1526.3,1219.39Z" style="fill:#e9e9e9"/><path d="M1754.58,1327c-.08,1.4-.16,2.79-.23,4.19-3.73-2-4.83-5.68-6.08-9.27l2.6-.31C1754.64,1321.7,1756,1323.41,1754.58,1327Z" style="fill:#c6c6c6"/><path d="M1395.24,1386.16c5.52,1.2,8.58,5.21,11.19,9.73C1401.15,1394.42,1398.15,1390.33,1395.24,1386.16Z" style="fill:#dcdcdc"/><path d="M1169,1323.59l2.44.2-2.77,7.23a2.55,2.55,0,0,1-3,2.2l-2.63-.33Q1166,1328.24,1169,1323.59Z" style="fill:#cecece"/><path d="M1706.64,1256l.45-2.89c3.19,2.5,7.52,3.74,9,8.11l-3.68,0C1708.34,1261.82,1706.83,1259.63,1706.64,1256Z" style="fill:#bebebe"/><path d="M1803.36,1469.33c2.47-4.7,2.3-9.84,2.58-14.91.53-.88,1.08-.89,1.63,0-.16,5.11,1,10.39-2,15.13C1804.74,1470.44,1804,1470.37,1803.36,1469.33Z" style="fill:#d1d1d1"/><path d="M1343.69,1203.89a7,7,0,0,0,.2-1.57,5.67,5.67,0,0,1,1.69-.15l13.82.41a2.1,2.1,0,0,1-.72,2.54,9.59,9.59,0,0,1-4.13,1.34,22.31,22.31,0,0,1-8.72-.64A4.16,4.16,0,0,1,1343.69,1203.89Z" style="fill:#969696"/><path d="M1803.36,1469.33l2.21.2c-2.86,2.28-5.45,6.29-9.44,1.49Z" style="fill:#d8d8d8"/><path d="M1195.84,1287.75c-.29,4.15-4.26,5.89-6,9.09-.44,1.25-1,1.32-1.77.22C1188.74,1292.37,1192.06,1289.87,1195.84,1287.75Z" style="fill:#dedede"/><path d="M1458.08,1239.79l-.33,2.71-7.46-3.93c.79-.77,1.57-1.55,2.35-2.33C1456.2,1234.77,1457.82,1236.23,1458.08,1239.79Z" style="fill:#d2d2d2"/><path d="M1188.06,1297.06a5.89,5.89,0,0,0,1.77-.22c0,.66.08,1.32.13,2-1.58,3-3.12,6.11-7.21,6.3C1182.68,1301.23,1187.13,1300.3,1188.06,1297.06Z" style="fill:#bebebe"/><path d="M1387.59,1376.75c3,1.7,5.51,3.74,5.74,7.52C1388.84,1383.73,1388.29,1380.18,1387.59,1376.75Z" style="fill:#eeeeef"/><path d="M1385.75,1300.93c-.27,3.77-2.62,6-5.78,7.52C1380.26,1304.69,1382.65,1302.55,1385.75,1300.93Z" style="fill:#dfdede"/><path d="M1408.4,1397.68l5.65,1.87c1.25.83,3,1.35,2.14,3.47l-.13.34C1412.38,1403,1410.23,1400.54,1408.4,1397.68Z" style="fill:#dcdcdc"/><path d="M1222,1262.44l.51,3c-.09,2.39-1.23,3.63-3.72,3.38-.91-.12-1.83-.25-2.74-.39C1216.84,1265.24,1220,1264.38,1222,1262.44Z" style="fill:#bebebe"/><path d="M1807.57,1454.4c-.54,0-1.09,0-1.63,0,0-3.81,0-7.61,0-11.42l1.64,0C1807.56,1446.81,1807.57,1450.6,1807.57,1454.4Z" style="fill:#cdcdcd"/><path d="M1311.63,1210.05a9.77,9.77,0,0,1-7.91,3.43A7.71,7.71,0,0,1,1311.63,1210.05Z" style="fill:#cacaca"/><path d="M1176.69,1316c0-1.3,0-2.59,0-3.89.88-1.81,1.9-3.43,4.25-3.42C1180.77,1311.89,1179.05,1314.14,1176.69,1316Z" style="fill:#c7c7c7"/><path d="M1792.45,1446.75a8,8,0,0,1,0,9.59Z" style="fill:#cecece"/><path d="M1283.19,1240.42a4.54,4.54,0,0,1,.27-1.71l7.53-2C1289.19,1239.59,1286.41,1240.45,1283.19,1240.42Z" style="fill:#cdcdcd"/><path d="M1482.65,1418.4l-3.83-.11a1.89,1.89,0,0,1,.59-2.69,7.36,7.36,0,0,1,8.81.78l.26.3C1486.92,1418.55,1484.75,1418.36,1482.65,1418.4Z" style="fill:#d2d1d1"/><path d="M1478.53,1458.32q3.1,3.69,6.22,7.37a10,10,0,0,1-3.84,4.42,1.77,1.77,0,0,1-2.07-.57l-4-5.32c-.53-1.41-1.06-2.82-1.6-4.23a2.23,2.23,0,0,1,1.94-1.88Z" style="fill:#464545"/><path d="M1478.84,1469.54a6.19,6.19,0,0,1,1.87.08c2.23.23,2.88,2.12,3.86,3.66,1,1.74,2.72,3.13,2.44,5.43C1482.71,1477.05,1479.47,1474.45,1478.84,1469.54Z" style="fill:#b6b4b4"/><path d="M1429.6,1454.81l-.15-2a5.86,5.86,0,0,1,3.9-4.08c1.92-.93,3.71-1.57,3.67,1.71C1434.54,1451.87,1432.73,1454.45,1429.6,1454.81Z" style="fill:#757575"/><path d="M1158.17,1373.07c-3.59,12-7.32,24-10.69,36-1,3.56-1,7.41-1.4,11.12-4.29,13.07-3.95,26.57-3.77,40.06,0,3.59,1.23,8.62-4.13,9s-4.91-4.76-4.94-8.34c-.15-23.52-.06-47,8.81-69.41l1.26,1c2.83,6.71-1.32,12.66-2.07,19-.91,7.68-2.29,15.28-3.45,22.92-1.61,3.93.06,8-.37,11.95,0,1.88-.6,3.7-.6,5.57-.14,2.32.26,4.65.09,6.91.89-2.84-.48-5.72.42-8.49a20.19,20.19,0,0,0,.45-9,219.63,219.63,0,0,1,14.56-65.56,6.56,6.56,0,0,1,3.16-3.37A2.73,2.73,0,0,1,1158.17,1373.07Z" style="fill:#3d3d3d"/><path d="M1142.73,1384.34l3.35-4.28a4.13,4.13,0,0,1,1.64,2.4c0,4,0,8-4.9,9.62l-.77-.58C1142.28,1389.11,1142.5,1386.73,1142.73,1384.34Z" style="fill:#3d3d3d"/><path d="M1762,1317.94c4.75,2.52,5.33,8.44,9.43,11.49l15.21,30.23,11.37,34.17c-.55,2.55,1.18,5.48-1.32,7.69-6.19-2.67-5.05-8.81-6.55-13.7a22.09,22.09,0,0,0-2.54-10.12,18.65,18.65,0,0,1-.91-2.39,45.28,45.28,0,0,0-3.22-8.07,52.8,52.8,0,0,0-3.83-7.81,159.23,159.23,0,0,0-7.7-17.44,13.42,13.42,0,0,0-4.35-6c-3.63-4.17-7.19-8.37-7.4-14.3A5,5,0,0,1,1762,1317.94Z" style="fill:#636363"/><path d="M1799.94,1414.6c3.48,15.64,4.14,31.47,3.11,47.38-.15,2.36-1,5.46-4.27,5.18-3-.26-4.26-3.2-3.75-5.63,2.52-12-1.15-23.7-.78-35.56,3.73,0,3.35,2.9,3.76,5.26,1.48,8.39.92,16.9,1,25.37.49-12.43-.7-24.76-1.69-37.1C1797.13,1417.67,1796.49,1414.83,1799.94,1414.6Z" style="fill:#3a3a3a"/><path d="M1792.23,1386.21c1,5.23,1.21,10.7,4.42,15.31a4.66,4.66,0,0,0-.34,1.52,10.32,10.32,0,0,1,1.4,2.54c.14,3.32,1.37,6.88-2.08,9.41-1.89.38-2.41-1.22-3.31-2.27l-1.92-7.53c-2-6.4-4.17-12.75-5.14-19.41a21.07,21.07,0,0,0-3.28-8.88c-1.62-3.58-4.39-6.72-4.32-11,1.33-2-.48-5.74,3.45-6.39,3.11,1.55,3.55,4.46,3.86,7.45.81,2.76,1.59,5.54,3.44,7.85a8,8,0,0,1,.28,1.7C1790.06,1379.7,1790.1,1383.34,1792.23,1386.21Z" style="fill:#0c0c0c"/><path d="M1794.39,1414.44c3.09-2.64,1.3-6.15,1.66-9.27,5.47.33,1.11,5.86,4,7.54l-.12,1.89v43c-2.29-10.53-.54-21.63-5.69-31.6l-.21-3.41C1793.13,1419.81,1792.67,1417.08,1794.39,1414.44Z" style="fill:#282828"/><path d="M1786.63,1384.29c-.71,7.32,5.08,13.47,3.77,20.9a11.78,11.78,0,0,0-1.77-.17l-6-22.45a2,2,0,0,1-.07-2.4C1786.21,1379.35,1785.08,1383.12,1786.63,1384.29Z" style="fill:#3a3a3a"/><path d="M1800.06,1412.71c-3.23-1.51-.86-6-4-7.54.09-.71.17-1.42.26-2.13C1801.5,1404.74,1799.56,1409.2,1800.06,1412.71Z" style="fill:#3a3a3a"/><path d="M1794.39,1414.44c-.12,2.71-.23,5.41-.35,8.12-1.88-3-1.83-6.44-1.72-9.84Z" style="fill:#3a3a3a"/><path d="M1454.41,1448.31c-4.11-1-7.43-4.06-12-3.93,5.2-2,9.77-1.28,13.81,2.16A3.11,3.11,0,0,1,1454.41,1448.31Z" style="fill:#434343"/><path d="M1454.41,1448.31l1.85-1.77c3.16,0,5.92.69,7.45,3.81,1,.73,1,1.42-.08,2.07Z" style="fill:#272727"/><path d="M1433.35,1448.7l-3.9,4.07c-1.16-.25-3.64,2.38-3.2-1.44C1429,1451.57,1429.94,1446.77,1433.35,1448.7Z" style="fill:#424242"/><path d="M1475.13,1458.11l-1.94,1.88-3.9-3.64c-.57-.51-.75-1-.54-1.48s.41-.72.61-.72C1472.08,1454.32,1473.8,1455.92,1475.13,1458.11Z" style="fill:#141414"/><path d="M1469.36,1454.15c0,.73,0,1.47-.07,2.2l-5.66-3.93c0-.69.06-1.37.08-2.06A5.55,5.55,0,0,1,1469.36,1454.15Z" style="fill:#252525"/><path d="M1397.44,1295.36l16.6-7.87a4,4,0,0,1,3.94-.31c-1.41,7.74-10.39,5.94-13.91,11a56.83,56.83,0,0,0-15.65,14.51c-6.86,8.86-6.34,19.08-5.4,29.33.25,2.74,1.33,5.41,1,8.25a5.74,5.74,0,0,1-2.17,3.89c-8.92-18.68-5.9-37.19,8.41-51.52C1392.63,1300.24,1395,1297.79,1397.44,1295.36Z" style="fill:#6f686a"/><path d="M1399,1382.51c-6.3-3.59-7.7-11.25-13.07-15.62l-.09-3.45a2.94,2.94,0,0,1,2.53-.34c5.07,3.84,8.31,9.13,11.47,14.48a7.16,7.16,0,0,1,.43,2.63A4.06,4.06,0,0,1,1399,1382.51Z" style="fill:#6d5852"/><path d="M1387.66,1363.45h-1.87a12.46,12.46,0,0,1-4-9.26l.3-4.09C1387.76,1353,1389.44,1357.49,1387.66,1363.45Z" style="fill:#5e5556"/><path d="M1555.29,1296.89l3.08.34c8.13,11.3,15.08,23,13.58,37.78-2.47,3.5.4,7.88-1.86,11.42h0a2,2,0,0,1-2.72-.37c-2.52-4-1.87-8.58-1.68-12.9.5-11.25-2.39-21.15-10.33-29.4-1.76-1.83-3.31-3.86-2.76-6.7A1.72,1.72,0,0,1,1555.29,1296.89Z" style="fill:#b9b6b7"/><path d="M1568,1346.32l2.13.12c.3,6.41-4.18,11.22-5.73,17l-1.78,0c-1.68-1.09-2.09-2.84-2.47-4.62-.38-2.21-.56-4.39,1.24-6.16C1564.43,1351.46,1563.58,1346.16,1568,1346.32Z" style="fill:#c7c5c5"/><path d="M1570.09,1346.43c.49-3.83-1.45-8,1.86-11.42C1571.59,1338.86,1573.23,1343,1570.09,1346.43Z" style="fill:#c7c5c5"/><path d="M1509.36,1208.31a180.27,180.27,0,0,1,54.85-7.69c9,1.5,18.29.67,27.33,2.2,4.42,2.07,9.19,2.66,14,3.31a11.73,11.73,0,0,1,4.09.85,50.14,50.14,0,0,0,10.46,3.18c7.44,2.45,14.7,5.33,22,8.28,8.64,6.15,19.68,8.2,27.39,16a4,4,0,0,1-2.59,4.53c-10.88-4.84-21.28-10.69-32.41-15-3.55-1.38-7.05-2.76-10.93-2.77a17.21,17.21,0,0,1-6.28-2.66,66.07,66.07,0,0,0-13.27-2.92,11.15,11.15,0,0,1-4.11-1.17,49.07,49.07,0,0,0-16.3-2.56c-14.83-1.14-29.65-1.95-44.43.46-10.28,2.37-20.55,4.8-30.75,7.5a151.28,151.28,0,0,0-28.82,14.34c-8.87,6-17.25,7.46-26.39-.35-6.16-5.27-14.13-8.09-21.57-11.45-2.89-1.56-5.82-3-9.24-3-7.38-1.29-14.38-4.18-21.86-5-17.37-2.39-34.73-2.85-52.08.21-16,3.46-31.89,7.68-47.61,12.41-2.19,0-4-.64-4.82-3,2.57-7.86,11.46-4.53,16-9,7.44-2.28,14.67-5.23,22.34-6.76,2.69.17,5-1.33,7.47-1.84,11,.83,21.72-1.83,32.58-2.81,10.58-1.33,20.58,3.9,31.14,2.72,2.12.13,4.14,1,6.27,1,4.89,3,10.82,2.43,16,4.5l-.12-.08c6.81,3.07,13.76,5.79,20.57,8.86,3.91.93,7.2,3.27,10.86,4.77,4.82,3.26,9.34,3.51,14.37-.14,8-5.83,17.54-9,26.43-13.21h0C1502.93,1210.56,1506.58,1210.59,1509.36,1208.31Z" style="fill:#0d0d0d"/><path d="M1610,1208.26l-3.56-.39c-4.51-1.15-9.15-1.8-13.54-3.39-9.55-1.33-19.3-1.13-28.65-3.86l21.13-.25c18.31,1.52,35.35,7.9,52.55,13.66l8.33,5.26c-1.24,1.34-2.63,1.13-4.07.38l-22.51-8C1616.46,1210.43,1613.2,1209.37,1610,1208.26Z" style="fill:#545454"/><path d="M1499.79,1211.93c-9.88,7.15-21.78,10.75-31.6,18.15-3.32,2.5-6.8-2-10.22-3.2-1.09-1.3-1.22-2.6,0-3.88,6.72,4,12.66,2.93,18.92-1.67,4.5-3.3,10-5.22,15.06-7.75Z" style="fill:#414141"/><path d="M1547.25,1198.32a40,40,0,0,1,24.66,0Z" style="fill:#bfbfbf"/><path d="M1509.36,1208.31c-2.21,3.78-5.88,3.7-9.56,3.61A14,14,0,0,1,1509.36,1208.31Z" style="fill:#414141"/><path d="M1623,1219.59c16.21,2.41,29.76,11.07,43.81,18.55,10.09.7,17,7.73,24.39,13.1a266.05,266.05,0,0,1,58.54,58.5c5.11,8.5,12,15.94,15.53,25.41a4.45,4.45,0,0,1-1.51,3.76c-4.06-3.2-4.58-9.13-9.22-11.88a7,7,0,0,0-3.71-5.39c-4.61-9.49-11.26-17.44-18.77-24.74a134.65,134.65,0,0,0-30.8-30.54c-2.65-3.17-5.47-6.12-9.56-7.46a30.29,30.29,0,0,0-13.13-9.28c-16.27-13.2-35.51-20.56-54.81-27.81C1621.75,1221.67,1622.44,1220.62,1623,1219.59Z" style="fill:#2a2a2a"/><path d="M1623,1219.59l.75,2.22c-4.88.75-8.88-3.61-13.85-2.4l-22.81-5.65a1.66,1.66,0,0,1,.32-2.54c4.63-.93,8.7,1.21,13,2.34l3.53.34c4.54,1.21,9.14,2.18,13.6,3.67Z" style="fill:#616161"/><path d="M1762,1317.94l-.09,3.82c-8-.35-8.41-8.31-12.63-12.45-5.86-9.88-15.45-17-20.68-27.34a3.76,3.76,0,0,1,1.23-2.33c10.49,8.31,17.73,19.42,25.85,29.77,1.91,2.42,3,5.62,6.13,6.93A5.7,5.7,0,0,0,1762,1317.94Z" style="fill:#272727"/><path d="M1729.79,1279.64l-.18,2.34c-2.08.9-3.65-.17-5-1.47-7.18-6.89-14-14.18-21.84-20.36a4.41,4.41,0,0,1-1.85-4.92,1.63,1.63,0,0,1,2.38.09l3.35.64c1.28,2.46,3.44,3.92,5.79,5.19Z" style="fill:#242424"/><path d="M1171.13,1346.65c-.13,1-.25,2-.38,3l-9.19,15.75a4.82,4.82,0,0,1-1.65-2.28,11.57,11.57,0,0,1-.37-4.26c2.27-6.53,3.49-13.8,11.38-16.47Z" style="fill:#3f3f3f"/><path d="M1161.2,1363.32l.36,2.13a13.13,13.13,0,0,1-3.39,7.61l-2.26-.11C1154.88,1368.22,1156.13,1364.72,1161.2,1363.32Z" style="fill:#363636"/><path d="M1783.36,1380.5c-.23.69-.45,1.38-.68,2.07l-17.08-36.13c0-1.15-.09-2.3-.14-3.44a2,2,0,0,1,2.08-.93,6.11,6.11,0,0,1,1.85,1.66c1.34,2.1,2.37,4.38,3.69,6.5,3.51,4.45,4.38,9.93,6,15.13-.66,4.45,3.41,7.26,3.93,11.3A3.39,3.39,0,0,1,1783.36,1380.5Z" style="fill:#636363"/><path d="M1484.57,1473.28a6.52,6.52,0,0,1-3.86-3.66c.08-2.6,1.51-3.83,4-3.93,1.88.67,3.24,1.78,3.27,4Z" style="fill:#444"/><path d="M1507.22,1219.31a182.14,182.14,0,0,1,30.18-7.67c3.5-.87,7-1.59,10.35.52l-10.41,3.22-3.41.25c-9.49-1-17.42,5-26.51,5.79C1506.33,1220.81,1506.26,1220.11,1507.22,1219.31Z" style="fill:#727272"/><path d="M1547.75,1212.16l-10.35-.51c15.74-3.8,31.69-1.15,47.54-1.55,1,.94.86,1.76-.28,2.45-3.15.15-6.31.7-9.39-.47Z" style="fill:#616161"/><path d="M1575.27,1212.08l10.42-.58a.9.9,0,0,1,1.5.19l-.06,2.07C1583.1,1213.69,1579,1214.07,1575.27,1212.08Z" style="fill:#727272"/><path d="M1146.54,1382.49l-.45-2.43c2.33-11.49,7.1-22,13.16-31.93a2,2,0,0,1,2.52,0c1.1,3-.51,5.49-1.42,8.12-3,6.8-5.78,13.69-8.74,20.5C1150.56,1379.11,1150.3,1382.38,1146.54,1382.49Z" style="fill:#363636"/><path d="M1161.51,1348.28l-2.26-.15q3.18-7.45,6.38-14.91l3-2.2,2.31.18a3.11,3.11,0,0,1,.82,3.64C1168.56,1339.48,1166.77,1345.2,1161.51,1348.28Z" style="fill:#3f3f3f"/><path d="M1300.38,1225.17c15.8-3.81,31.18-9.32,47.35-11.63,17.72-3.64,35.45-4,53.17,0,7.9-.64,14.73,4.56,22.59,4.13,2.61,1.11,5.43,1.76,7.77,3.48,7.31,3.41,15.72,5.53,21.69,10.54,9.07,7.61,17,6.51,25.89,1.07.78.6,1.93.8,2.16,2l-2.71,3.4c-6.66,1.46-13,6.18-20.21,1.68a8.4,8.4,0,0,0-5.44-3.55c-17.61-13-37.8-18.74-59.32-20.64l-5.09-.21a92.1,92.1,0,0,0-25.9,0c-13.66-.24-26.66,3.06-39.45,7.44-10.17.16-18.44,6.82-28.27,8.16a2.64,2.64,0,0,1-.61-2.33C1295.12,1225.69,1298.41,1226.62,1300.38,1225.17Z" style="fill:#414141"/><path d="M1362.33,1215.4a59.1,59.1,0,0,1,25.9,0Z" style="fill:silver"/><path d="M1178.37,1321.57c3.37-8.76,9.74-15.46,15.56-22.54,24.59-32.33,56.2-55.79,92.69-73.13a6.82,6.82,0,0,1,4.52,3c.15,1.86-1,2.87-2.48,3.56-23.52,10.61-44.39,25.14-63.51,42.31-11.9,9.73-20.8,22.29-31.35,33.28-6,3.91-7.52,11.54-13.08,15.82A2.79,2.79,0,0,1,1178.37,1321.57Z" style="fill:#1b1b1b"/><path d="M1193.8,1308.07c8.07-13.07,18.7-23.85,30.36-33.71a1.54,1.54,0,0,1,.68,1.53c-.11.57-.25.85-.42.85-4.5,6.78-12.31,10.7-15.88,18.28q-6.36,6.76-12.73,13.52Z" style="fill:#1d1d1d"/><path d="M1161.51,1348.28c2.87-4.61,3.93-10.48,9.33-13.33a1.45,1.45,0,0,1,2.21.1l-2.13,7.39c-4.17,5.11-8,10.44-9.59,17-3.29.15-2.87-1.58-1.83-3.61Z" style="fill:#0e0e0e"/><path d="M1173.05,1335.05l-2.2-.1.09-3.75c1.87-3.68,3.68-7.4,7.43-9.63l2.35,2.32C1180.61,1329.28,1177.07,1332.33,1173.05,1335.05Z" style="fill:#0e0e0e"/><path d="M1458,1223l0,3.89-9.75-5.57c-.55-.43-.71-.84-.49-1.21s.42-.54.62-.54l4-.27Z" style="fill:#353535"/><path d="M1406.85,1207.94c-11,1.45-21.61-2.79-32.55-1.8a2,2,0,0,1,.83-2.87c6.17-1.11,12.32-2.12,18.29.89l3.64.25C1399.75,1207.15,1405.2,1202.3,1406.85,1207.94Z" style="fill:#0e0e0e"/><path d="M1393.42,1204.16l-19,.38c-5.17.23-10.42,2.68-15.49-.46a9.06,9.06,0,0,1,.49-1.5l3.51-.28a107.64,107.64,0,0,1,30.42,0l-.14.16C1393.27,1203.06,1393.35,1203.61,1393.42,1204.16Z" style="fill:#444"/><path d="M1448.35,1219.56a17.15,17.15,0,0,1-.12,1.75c-7.07-2.84-14.88-4.1-20.67-9.66C1435.39,1212,1441.54,1216.6,1448.35,1219.56Z" style="fill:#0e0e0e"/><path d="M1427.68,1211.73c-5.39.07-11,1.1-15.36-3.44,1.17-1.41,2.52-1.25,3.94-.45C1420.36,1208.28,1424.49,1208.63,1427.68,1211.73Z" style="fill:#0e0e0e"/><path d="M1416.26,1207.84l-3.94.45-5.48-.35c-2.57-3.07-7.25-.35-9.78-3.53A34.09,34.09,0,0,1,1416.26,1207.84Z" style="fill:#424242"/><path d="M1492.59,1274.16c11.1-.66,21.29,3.51,31.82,5.92,3.25,2.63,11-.52,9.89,7.72-3,2-5.82.54-8.65-.51a134.43,134.43,0,0,0-27.24-7.57c-7.72-1.67-15.54-.47-23.3-.84-3.71-.18-7.53.42-10.93-1.71a2.09,2.09,0,0,1-.57-2.93,2.15,2.15,0,0,1,1.56,0A105.31,105.31,0,0,1,1492.59,1274.16Z" style="fill:#878081"/><path d="M1463.61,1274.24v2a7.51,7.51,0,0,1-4.27,3.35,19.39,19.39,0,0,1-5.4.9,31.52,31.52,0,0,0-14.18,2.87c-2,.85-4.1,1.71-6.19,2.46a42.28,42.28,0,0,1-10.37,2.35c-1.75.17-3.53.59-5.17-.48l-4-.2c4.28-4.42,10.88-3.88,15.66-7.25l13-3.84C1449.77,1276.25,1456.49,1273.3,1463.61,1274.24Z" style="fill:#8e8788"/><path d="M1492.59,1274.16l-27.41.06c8.7-3.08,17.73-.65,26.56-1.56C1492,1273.16,1492.3,1273.66,1492.59,1274.16Z" style="fill:#8e8788"/><path d="M1703.29,1255.32l-2.17.21c-12.56-4.24-22.52-12.49-32.42-20.86-8.6-5.44-19-7.74-26.55-15l4.07-.38,18.4,7.93q15.87,10.93,31.76,21.86C1699,1250.86,1701.76,1252.38,1703.29,1255.32Z" style="fill:#2a2a2a"/><path d="M1416.35,1399.35c-2.45-4-7.88-4.85-9.87-9.32a3.77,3.77,0,0,1,2.3-1.11c5.36,1,9,5.18,13.67,7.44,1.75,1.33,4,2.32,3.4,5.21a4.91,4.91,0,0,1-3.79,1.25C1419.84,1402.19,1417.76,1401.31,1416.35,1399.35Z" style="fill:#6a5f5f"/><path d="M1408.54,1389.84l-2.06.19a20.06,20.06,0,0,1-7.53-7.52c.08-.74.17-1.49.25-2.23,2.17-.93,4.13,0,6.11.72a7.53,7.53,0,0,1,2,1.57C1408.64,1384.84,1409.83,1387.14,1408.54,1389.84Z" style="fill:#5c5150"/><path d="M1416.35,1399.35l5.41,2a2.82,2.82,0,0,1,1.14,1.85,2.62,2.62,0,0,1-1.07,1.88l-5.64-2.08-2.14-3.47Z" style="fill:#c7c5c6"/><path d="M1393.33,1202.35l-30.42,0A52.37,52.37,0,0,1,1393.33,1202.35Z" style="fill:#969696"/><path d="M1287.08,1227.14c-20.73,8.78-38.61,21.95-56.2,35.7-13.71,10.71-25,23.72-37,36.19l-.3-2.21c7-10.6,17.15-18.35,25.15-28l3.72-3.38a117.49,117.49,0,0,0,19.13-15.53,232.2,232.2,0,0,0,28.63-18.85l32-15.08,6.81-.52a2,2,0,0,1,2.93.43c-3.68,5.56-11.69,2.2-15.51,7.48C1293.85,1225.85,1290.83,1227.4,1287.08,1227.14Z" style="fill:#292929"/><path d="M1224.42,1276.74c-.08-.79-.17-1.59-.26-2.38,16.59-17.19,36.35-29.83,57.74-40.17,3.08-1.49,5.91-3.49,8.86-5.25a2.69,2.69,0,0,1,3.74-.06c0,.7.07,1.41.11,2.12-3.24,3.52-8.93,2.87-11.84,6.94-6.46,1.69-11.91,5.15-16.89,9.47-6.55,2.71-12.58,6.2-17.23,11.7-7.34,3.65-13.38,8.94-18.87,14.93Z" style="fill:#292929"/><path d="M1534.1,1287.41c-.88-5.54-7.07-4.08-9.69-7.33l2.13-.58c11.13,3.25,21,8.57,28.74,17.39l-2.37.23a2.39,2.39,0,0,1-2.34.54c-2.93-1.55-5.39-4-8.87-4.49a14.25,14.25,0,0,1-4.4-2.22C1536,1290,1534.66,1289,1534.1,1287.41Z" style="fill:#bab8b8"/><path d="M1532.52,1395.93c-.68,3.6-4.89,4-6.31,6.93-12.12,5.52-24.9,8.93-37.85,11.82-3.44,1.67-7.09.52-10.62.79a2.24,2.24,0,0,1-1.31-2.4c7-4.32,15.44-4.19,22.94-7a19.41,19.41,0,0,1,2.58-.73c2.92-.55,5.93-.58,8.77-1.56,3.11-.88,6.21-1.75,8.82-3.8,3.37-2.4,6.34-5.6,11-5.49A3.3,3.3,0,0,1,1532.52,1395.93Z" style="fill:#7f797a"/><path d="M1476.92,1414.57l11.44.11a13.75,13.75,0,0,1-.14,1.7l-9.38.3a50.34,50.34,0,0,1-19.07,0c-7.25.33-13.91-2.53-20.85-3.85l-17.09-7.7.06-2c2.87-1.37,5.67-.24,8.51.17a16.56,16.56,0,0,1,2.81,1c10.44,4.87,21.3,7.86,32.91,7.83C1469.89,1412.07,1473.8,1411.68,1476.92,1414.57Z" style="fill:#c0bebf"/><path d="M1562.63,1358l0,5.47q-5.88,9.4-11.75,18.8l-5.56,3.71a4.12,4.12,0,0,1-1-3.93c3.47-7.06,8.58-13.16,12-20.32C1557.32,1359.45,1558.79,1356.28,1562.63,1358Z" style="fill:#908b8c"/><path d="M1545.43,1382.71c0,1.09-.09,2.18-.14,3.27l-3.89,4a2.87,2.87,0,0,1-3.91.25c-1-4,.87-6.58,4-8.6A3.41,3.41,0,0,1,1545.43,1382.71Z" style="fill:#7f797a"/><path d="M1537.7,1390l3.7,0-3.78,5.52-5.11.48-1-.57a3.22,3.22,0,0,1,.13-2.4C1533.23,1391.09,1534.59,1388.76,1537.7,1390Z" style="fill:#908b8c"/><path d="M1459.77,1416.65l19.07,0c0,.54,0,1.08,0,1.62C1472.47,1417.71,1465.87,1420.11,1459.77,1416.65Z" style="fill:#d1d0d0"/><path d="M1481,1234.71l-2.16-2c8.83-5.79,18-10.92,28.38-13.4.06.71.13,1.41.2,2.11l-6.94,3.92C1493.06,1226.55,1487.94,1232.51,1481,1234.71Z" style="fill:#404040"/><path d="M1312,1215.85l-2.93-.43c5.91-4.12,13.1-4.89,19.61-7.45,2.44-.9,5-2.14,6.08,1.72Z" style="fill:#252525"/><path d="M1334.74,1209.69c-1.54-2.29-4.09-1-6.08-1.72a2.17,2.17,0,0,1,.38-1.46l14.65-2.62,2.3.53a1.74,1.74,0,0,1-.07,2.17c-1.71,1.06-4.1-.37-5.6,1.49S1336.76,1209.71,1334.74,1209.69Z" style="fill:#757575"/><path d="M1767.66,1342.58l-2.2.42c-1.51-1-1.62-2.52-1.66-4.09l.18-4C1769,1335.65,1770.17,1338.24,1767.66,1342.58Z" style="fill:#1d1d1d"/><path d="M1340.32,1208.08c1.28-2.06,3.49-1.65,5.4-2,2.94-2,6.7.46,9.61-1.73l3.58-.24,15.49.46c-.05.54-.08,1.07-.1,1.6A195.09,195.09,0,0,1,1340.32,1208.08Z" style="fill:#1b1b1b"/><path d="M1355.33,1204.32c-2.78,2.88-6.32,1.65-9.61,1.73a6,6,0,0,1,.27-1.63Z" style="fill:#444"/><path d="M1159.5,1355.82c.16,1.43.29,2.88,1.83,3.61,0,1.3-.09,2.59-.13,3.89q-2.65,4.82-5.29,9.63c-8.85,20-11.69,41.73-16.93,62.74-.38,1.54.93,3.49,1.46,5.24-1.7,1.82.36,5-2.36,6.44a1.86,1.86,0,0,1-2.12-1.57c.23-3.44-.91-7,.77-10.32-.46-14.82,3.61-29,6.09-43.4l3.72-9.59C1152.05,1374.18,1152.25,1363.29,1159.5,1355.82Z" style="fill:#262626"/><path d="M1136.78,1446.81h1.91a2.62,2.62,0,0,1,.06,3.77c.23,3.9.51,7.8.68,11.7.08,1.78-.86,3.12-2.69,2.67-.73-.19-1.09-1.84-1.61-2.83a13.84,13.84,0,0,0,0-9.78l0-5.27C1135.53,1446,1136.07,1445.85,1136.78,1446.81Z" style="fill:#2b2b2b"/><path d="M1136.78,1446.81a5.61,5.61,0,0,0-1.63.26c.21-3.91-1.71-8.1,1.58-11.59C1136.75,1439.25,1136.76,1443,1136.78,1446.81Z" style="fill:#3c3c3c"/><path d="M1135.12,1452.34c2.45,3.26,2.42,6.52,0,9.78Q1135.11,1457.23,1135.12,1452.34Z" style="fill:#3c3c3c"/><path d="M1138.75,1450.58l-.06-3.77c0-2.12-.17-4.31,1.75-5.87C1140.22,1444.21,1141.85,1447.81,1138.75,1450.58Z" style="fill:#3c3c3c"/><path d="M1767.66,1342.58c.26-3.26-.43-6.06-3.68-7.63-4.51-8.56-11.8-15.4-15.33-24.57-.54-1.8.13-2.36,1.87-1.84,4.1,4.14,5.9,10.24,11.36,13.22,1.27,5.2,4.67,9.22,7.55,13.53,1.66,1.54,2,3.94,3.68,5.48,3.63,5.86,7.28,11.7,8,18.79l-2.07,5.8c-3.77-4.44-5.11-10.09-7.59-15.17-1.32-2.51-1.6-5.54-3.84-7.58Z" style="fill:#0f0f0f"/><path d="M1792.23,1386.21c-4.21-2.12-3.82-5.91-3.54-9.66A12.29,12.29,0,0,1,1792.23,1386.21Z" style="fill:#2a2a2a"/><path d="M1788.41,1374.85c-3.33-1.66-4-4.49-3.44-7.84A11.07,11.07,0,0,1,1788.41,1374.85Z" style="fill:#2a2a2a"/><path d="M1773.11,1340.77c-3.49-.31-3.6-2.88-3.68-5.48C1772.14,1336.13,1773.16,1338.1,1773.11,1340.77Z" style="fill:#242424"/><path d="M1783.36,1380.5c-.13-1.28-.27-2.56-.4-3.84,3.29,1.56,3.91,4.39,3.67,7.63Z" style="fill:#2a2a2a"/><path d="M1387.66,1363.45q-2.78-6.69-5.56-13.36c-2.46-13.84-5.49-27.75,5.47-39.75,4.79-.12,4.79-.12,4.27,7.71-7.38,19.72-1.83,37,10.09,53.08a7.32,7.32,0,0,1,.23,2.87,6.54,6.54,0,0,1-3.17,4.65Q1393.32,1371,1387.66,1363.45Z" style="fill:#4a3e3f"/><path d="M1418,1287.69l3.82-1.7c1.75,1.55,4.62-.32,6.11,2-5.62,7.7-13.65,11.39-22.61,13.54-2-.82-2.51-2.54-2.59-4.49C1406.21,1291.26,1413.37,1291.5,1418,1287.69Z" style="fill:#5f5352"/><path d="M1402.77,1297.05c1.53.83,1.91,2.24,1.93,3.83-3.9,6-9.93,10.49-12.76,17.31a2,2,0,0,1-2.4-.21c-1.62-2.29,3.91-6.43-2-7.63C1391.59,1304.72,1396.34,1299.93,1402.77,1297.05Z" style="fill:#514546"/><path d="M1399,1378.65c.06-1.56.37-3,1.91-3.83,3.5,1.38,6.19,3.15,3.69,7.47l-5.39-2C1399.11,1379.74,1399,1379.19,1399,1378.65Z" style="fill:#3f3334"/><path d="M1551.24,1296.87a8.64,8.64,0,0,0,1.67.25c14.88,13.4,17.27,30.6,15.08,49.2-2.67,2.16-.46,7.36-5.17,8.25-3.24-2.55-1.59-5.78-.89-8.59,3.83-15.32,1.87-29-10.33-40.23a9.19,9.19,0,0,1-3.4-6.46C1548.53,1297.64,1549.25,1296.46,1551.24,1296.87Z" style="fill:#6a6365"/><path d="M1549.2,1298.51c3.07,7.3,11,10.58,14.09,18.39,5.16,13,1.82,25.15-.47,37.66-.06,1.15-.12,2.3-.19,3.44-8.09,6.6-9.17,18.06-17.2,24.71l-3.64,0c-1.75-.3-3.47-.63-4.52-2.3-.14-3.72,1.9-5.53,5.36-6.11a3.43,3.43,0,0,0,2.55.86c-1.11-.37-2.42-.45-2.75-1.94-.28-3.14,1.88-5.18,3.37-7.53,14.83-23.34,14-41.36-2.74-63-1.85-3.09-4.86-4.7-8-6.17a4.35,4.35,0,0,1-2-3.29c.38-2.81,2.45-3.61,4.83-4l3.53,2.4C1544.67,1293.16,1547.74,1294.93,1549.2,1298.51Z" style="fill:#4c4041"/><path d="M1750.52,1308.54l-1.87,1.84c-11-11.07-20.2-23.78-31.6-34.58a270,270,0,0,0-50.2-37.66l1.86-3.47,32.41,20.86,28.49,26.45C1736.58,1290.83,1745.4,1298.24,1750.52,1308.54Z" style="fill:#1d1d1d"/><path d="M1400.9,1213.49c-17.72-2.62-35.45-2.08-53.17.06A86.68,86.68,0,0,1,1400.9,1213.49Z" style="fill:#1b1b1b"/><path d="M1294.5,1228.88l-3.74.06c-1.48-.09-2.91-.28-3.68-1.8,2.86-1.93,5.41-4.62,9.39-3.81.88,1.5,2.36,1.74,3.91,1.84Z" style="fill:#0e0e0e"/><path d="M1587.19,1211.69a5.06,5.06,0,0,0-1.5-.19c-.27-.46-.52-.92-.75-1.4,5.46-.17,11.11-1.21,15.47,3.46Z" style="fill:#1c1c1c"/><path d="M1592.86,1204.48a21.86,21.86,0,0,1,13.54,3.4C1601.51,1208.24,1596.65,1208.49,1592.86,1204.48Z" style="fill:#1c1c1c"/><path d="M1617.54,1217.57a25,25,0,0,1-13.59-3.67C1609,1213.37,1613.57,1214.28,1617.54,1217.57Z" style="fill:#1c1c1c"/><path d="M1610,1208.26a12.08,12.08,0,0,1,9.68,3.45A11.15,11.15,0,0,1,1610,1208.26Z" style="fill:#1c1c1c"/><path d="M1431.26,1221.1a12,12,0,0,1-7.77-3.48C1426.74,1217.31,1429.67,1217.7,1431.26,1221.1Z" style="fill:#0e0e0e"/><path d="M1767.6,1342.61c3.53,1.4,4.11,4.27,3.84,7.58A11.22,11.22,0,0,1,1767.6,1342.61Z" style="fill:#242424"/><path d="M1499.86,1278.08a64.51,64.51,0,0,1,26.63,7.53,5.68,5.68,0,0,1-3.72,2.13,18.12,18.12,0,0,1-5.88-.06,13.89,13.89,0,0,1-2.84-.78c-4.33-1.88-8.47-4.19-13.35-4.7-2.34-.24-5.32-.59-5-4.3A3.66,3.66,0,0,1,1499.86,1278.08Z" style="fill:#635859"/><path d="M1499.86,1278.08l-3.93.09a52.4,52.4,0,0,1-36.22-.07l3.91-1.86C1475.68,1277.18,1488,1274.09,1499.86,1278.08Z" style="fill:#6b5e59"/><path d="M1522.49,1285.73l4-.12,7.61,1.8c1.43.24,3,.14,3.76,1.81l-3.94,4.14c-4.25,2.67-7-.46-10-2.57C1522.67,1289.32,1521.49,1287.82,1522.49,1285.73Z" style="fill:#504445"/><path d="M1459.71,1278.1l36.22.07c6,3.43,14.18,1.26,19,7.56-2.32,2.32-5.09,2-8,1.44-20.25-4-40.46-4.67-60.66.52-4,1-8.14,1.17-12.07-.72a2.09,2.09,0,0,1-1-2.89l5.61-2.16c4.93-1.86,10.2-2.31,15.24-3.68Z" style="fill:#655956"/><path d="M1454.1,1278.24a29,29,0,0,1-15.24,3.68C1443.4,1278.47,1448.66,1278,1454.1,1278.24Z" style="fill:#6b5e59"/><path d="M1433.25,1284.08c0,.55,0,1.11,0,1.67-.68,4.25-3.08,3.36-5.68,1.88-2-.06-4.2.34-5.68-1.64Z" style="fill:#6b5e59"/><path d="M1408.54,1389.84a11.78,11.78,0,0,1-1.92-7.45l1.07-.79c8.15,1.74,13.08,7.87,18.41,13.46-.72,2-2.44,2.34-4.27,2.48C1416.47,1396.57,1413,1392.35,1408.54,1389.84Z" style="fill:#544949"/><path d="M1421.83,1397.54c.81-1.53,2.22-1.85,3.78-1.89,3.17-1.2,5.07.15,6.2,3.06-.5,2-2.1,2.69-3.79,3.3a2.74,2.74,0,0,1-2.38-.69Z" style="fill:#524443"/><path d="M1425.64,1401.32a12.53,12.53,0,0,0,1.84.08c1.72.59,2.69,1.59,2,3.53l-7.62-1.86a8.07,8.07,0,0,1-.13-1.7Z" style="fill:#7a7274"/><path d="M1404.59,1382.29c.45-3.31-2.65-4.88-3.69-7.47l0-1.92a2.55,2.55,0,0,1,2.76-.31c3.49,2.52,6,5.33,2.92,9.8h0Z" style="fill:#544949"/><path d="M1549.2,1298.51c-3.44-1.35-5.55-4.2-7.81-6.89,4.82-1.11,7.44,1.86,9.85,5.25Z" style="fill:#878081"/><path d="M1501.77,1407.23c-7.87,3.5-16,5.81-24.72,5.62-14.08,2.13-27.47-.19-40.28-6.21-.1-4.77,3.36-4.82,6.69-5.05a11.28,11.28,0,0,1,3.09.76c15,3.92,30.26,2.14,45.43,1.14,2.33-.85,4.63-1.88,7.2-1.13C1501.16,1403.39,1501.78,1405.14,1501.77,1407.23Z" style="fill:#514646"/><path d="M1437,1405.15c12.52,6.94,26.31,7.32,40.1,7.7a11,11,0,0,0-.13,1.72c-16.08.83-31.73-.36-45.8-9.32a3.85,3.85,0,0,1,3.56-1.45A4.35,4.35,0,0,1,1437,1405.15Z" style="fill:#675e60"/><path d="M1531.88,1393.7a4.94,4.94,0,0,1-.36,1.66c-4.39.61-7.25,4-10.87,6a1.88,1.88,0,0,1-2.08.48c-1.92-1.35-4.81-.64-6.32-2.93a4.81,4.81,0,0,1,.08-2.58c3.19-3.83,7.81-4.84,12.24-6.22C1527.71,1389.88,1530.56,1390.28,1531.88,1393.7Z" style="fill:#3d3234"/><path d="M1513,1397.52v1.91c1.27,2.48,4.16-.09,5.63,1.79l2,.13c-2.45,2.93-5.73,3.86-9.39,3.84-2.88,2.16-6.78-.64-9.57,2l.08.06a4.3,4.3,0,0,1-2-4C1503.26,1399.25,1506.64,1394.91,1513,1397.52Z" style="fill:#493d3e"/><path d="M1501.69,1407.16c2.62-3.41,6.32-1.58,9.57-2C1508.46,1407.74,1504.94,1406.83,1501.69,1407.16Z" style="fill:#514646"/><path d="M1435.1,1405.08l-4,.17c-.54-.09-1.07-.2-1.61-.32l-2-3.53c.84-1.56,2.29-1.93,3.9-2a2.44,2.44,0,0,1,2.56-.22C1435.86,1400.85,1437.1,1402.65,1435.1,1405.08Z" style="fill:#4e403f"/><path d="M1531.88,1393.7a13,13,0,0,0-7.48-1.86c1.74-6.91,6.66-10.14,13.29-11.37,1.76.06,3.28.55,4.1,2.29l-4.09,7.19Z" style="fill:#483c3c"/><path d="M1402.81,1372.94l-1.88,0c-4-6.25-8.38-12.18-11.64-19.08-5.84-12.35-2.56-23.93.25-35.84l1.86-.08c2.41,2.27,1.93,5,1.53,7.89-1.94,13.53,1,26,7.91,37.76C1402.49,1366.35,1405.37,1369.15,1402.81,1372.94Z" style="fill:#6d5852"/><path d="M1402.81,1372.94c-4.63-10.42-11.08-19.83-12.62-31.83-1-8.11,1.29-15.48,1.21-23.21.75-8.53,6.42-13.25,13.3-17l22.84-13.25c2.08-.06,4.32.34,5.68-1.88,17-1.65,33.86-4.63,51.19-4.18,10.5.27,20.36,2.77,30.52,4.16l1.89,0c2.18,2,5.4,1.85,7.62,3.75l9.48,3.84,1.86,1.89c2.39,2.08,5.89,2.68,7.66,5.61,19.08,16.6,20.54,44.65,3.45,67.54-1.49,2-3.53,3.6-3.46,6.4h0a12.37,12.37,0,0,0-5.74,5.67l-13.29,11.37-11.38,5.68c-5.28-.07-8.24,5.25-13.29,5.71l-5.7,1.9c-16.52.71-33.11,3.4-49.39-1.91h0c-3.64-1.73-8.44,0-11.4-3.79-.62,0-1.24,0-1.85,0l-5.77-3.76c-7.11-3.32-11.31-10.77-19-13.26C1407.42,1378.41,1404.53,1375.91,1402.81,1372.94Z" style="fill:#725953"/><path d="M1543.43,1374.8l5.42-3.19c-1.54,2.94-.92,8-5.42,3.19Z" style="fill:#392c2e"/><path d="M1543.44,1300.86c-2.8-1.54-6.17-2.31-7.66-5.61C1539.28,1295.83,1542.8,1296.39,1543.44,1300.86Z" style="fill:#504445"/><path d="M1524.44,1289.52c-3.26.2-6.15-.34-7.62-3.75l5.67,0Z" style="fill:#655956"/><path d="M1444.64,1403.22c16.35,3.57,32.92,1.3,49.39,1.91C1477.45,1407.41,1460.85,1410.23,1444.64,1403.22Z" style="fill:#594d4c"/><path d="M1433.23,1399.43c3.79,1.31,8.1,1,11.4,3.79a13.22,13.22,0,0,0-7.68,1.93c-.62,0-1.24,0-1.85-.07Q1434.16,1402.26,1433.23,1399.43Z" style="fill:#594d4c"/><path d="M1518.65,1401.22c-2.31-.54-4.39,3.09-6.71.39-.21-.25.69-1.43,1.08-2.18C1514.8,1400.32,1518.2,1396.16,1518.65,1401.22Z" style="fill:#322629"/><path d="M1470.66,1401.59c-33.51-1.89-61-14.35-73.73-47.48-10.8-28.19-.29-49.47,31.45-60.58a153.8,153.8,0,0,1,66-7.57c18.49,1.78,36.47,8.24,48.73,22.14,12.43,14.12,13.52,27.57,4.05,48.9-9.75,21.92-28.94,31.88-49.45,40.65C1489,1401.39,1480,1401.69,1470.66,1401.59Z" style="fill:#745551"/></svg>