<svg id="Layer_6" data-name="Layer 6" xmlns="http://www.w3.org/2000/svg" viewBox="0 0 3000 3000"><title>orangemouth</title><path d="M1211.5,1531.26c2.11-31.52,9.34-74.73,31.34-119,8.21-16.53,21.27-42.27,46.73-66.61,14-13.41,45.23-42.79,91.81-48.1,13.78-1.57,44.46-4.61,74.21,14.8a103.29,103.29,0,0,1,15.4,12.33l2.52,2.49c1.17-1.05,2.91-2.58,5.07-4.34,0,0,26.78-21.65,62.36-25.9,46.57-5.56,88,26.36,99.37,35.15,54.08,41.7,71.62,103.14,76.69,124.89a245,245,0,0,1,6.32,56.43L1676.59,1474l-11.94,46.3-59.75-68-18.21,93.56L1524.81,1478l-16.68,92.62L1432,1465.86s-70.11,74-72.48,78.64-33.42-79.21-33.42-79.21l-34.72,83.06L1257.73,1474Z" style="fill:#fff"/><path d="M1358.66,1477.89c2-5.09,6.88-3.6,9-2.11,4,2.79,7.26,1.44,11.17.9,24.1-3.35,47.43-9.71,70.4-17.54,1.81-.61,4.11-1.05,5.14-2.38,2.29-3-2.61-1.61-2.54-3.52,3.33-3.43,7.44,0,11-1.28a20.8,20.8,0,0,1,4.19-1.08,3.63,3.63,0,0,1,2.94,1.42c1.53,2.87.82,5.56-.53,8.27-10.26,20.74-39.75,39.1-62.53,34.78-13.68-2-26.69-5.85-38.24-13.75-2.49-1.7-5.52-1.49-8.26-2.3A3.85,3.85,0,0,1,1358.66,1477.89Z" style="fill:#d8d8d8"/><path d="M1491.44,1453.64l-5.44,3.74c6.21,6.14,14,9.53,21.75,12.66,16.76,6.8,34.11,11.9,51.54,16.76,6.66,1.85,12.29,1.08,17.63-3.06a1.16,1.16,0,0,1,1.79.07,4.88,4.88,0,0,1-1,4.15,25.27,25.27,0,0,1-9.25,6.28c-18.21,6.43-36.44,5.9-54.69.18-6.65-2.37-13.17-5-19.09-9-5.68-4.9-11.56-9.63-14.91-16.64a11.76,11.76,0,0,1-.11-6.65c2-4.75,2.46-11,10.12-10A2.79,2.79,0,0,1,1491.44,1453.64Z" style="fill:#d7d7d7"/><path d="M1706.51,1427.05c-12.09-31.33-30.83-58.08-55.34-81-3.85-3.6-8.92-5.81-11.76-10.51,6-3.77,8,3.18,12.1,4.57,25.28,22.71,44.75,49.56,57.55,81.14.78,2.75,2.38,5.44.79,8.41C1706.66,1431.44,1707.72,1427.81,1706.51,1427.05Z" style="fill:#a4a4a4"/><path d="M1713.65,1412.54c7.75,10.43,10.16,22.9,12.32,35.15,2.49,14.14,5.24,28.47,2.39,43-.84,4.29-2.1,8.35-7.7,7.55-5-.72-5.61-4.51-5.54-8.72.12-7.76.09-15.51.12-23.26,4,.89,3.1,4.25,3.24,6.85.3,5.49-.08,11,.24,16.5.09,1.7.37,3.51,2.46,3.84,1.61.25,1.79-1.19,2.06-2.37,2.58-21.13-.39-41.6-7.07-61.65-.06-3.38-1.21-6.48-2.39-9.58C1712.86,1417.45,1711.56,1415,1713.65,1412.54Z" style="fill:#e0e0e0"/><path d="M1566.8,1504.19a69.32,69.32,0,0,1-41.3,2.3,11.14,11.14,0,0,0-10.13,2c-15.34,11.39-32.9,13.35-51.13,11.07-4.61-.58-9.89.37-13.87-3.31,2-2.75,4.65-1.74,7.26-1.32,8.11,1.31,16.23,2.67,24.48,1.44a14.52,14.52,0,0,1,2.16-.54c7.15-.43,14.13-1.5,20.17-5.81a27.15,27.15,0,0,1,5.76-3.51c6.3-5.79,13.3-6.27,21.18-3.5,4.75,1.66,9.95.45,14.95.62,6.82,1.39,13.2-3.09,20-1.51A1.44,1.44,0,0,1,1566.8,1504.19Z" style="fill:#b4b4b4"/><path d="M1709.37,1430c-.59-2.9-1.19-5.79-1.78-8.68,3.41-.75,4.11,2.1,4.84,4.14,4,11.24,7.36,22.65,7.85,34.7.1,1,1.48-.47.66,0-.25.15-.56-.07-.44-.55.81-3.11-3.19-7,1.54-9.47,3.41,12.77,3.39,25.77,2.52,38.81-.19,2.73-1.38,4.55-4.54,4.12-3.25-2.6-1.85-6.24-1.87-9.41-.07-15-2-29.58-7.19-43.69a6.27,6.27,0,0,0-1.65-5.65A3.5,3.5,0,0,1,1709.37,1430Z" style="fill:#2a2a2a"/><path d="M1463.5,1453.29c-3.9,2.84-7.76-1.42-11.65,0-26.81-8.63-45-25.66-51.51-53.64-1.9-8.12-1.68-16.29,3.42-23.56,1.28,1,1.38,2.4,1.28,3.86a11,11,0,0,1-.45,2.06c-2.23,7.12-2.6,14.19.69,21.13,9.33,25.36,27,41.31,53.46,47.22C1460.66,1450.73,1462.48,1451.38,1463.5,1453.29Z" style="fill:#bdbdbd"/><path d="M1651,1341.6c-4.52-.75-6.06-7.28-11.62-6q-2-1.68-3.92-3.37a170.28,170.28,0,0,0-61.2-28.11c-2.64-1.19-6.06-.66-7.92-3.57a2.09,2.09,0,0,1,.68-2,6.29,6.29,0,0,1,4.92-.39c15.24,3.81,30.51,7.52,44.33,15.43,10.91,6.53,21.94,12.91,31.66,21.21C1649.93,1336.42,1653.3,1337.86,1651,1341.6Z" style="fill:#202020"/><path d="M1358.66,1477.89l1.74.24c2,3,1.84,7.58,6.19,9,1.8,1.07,3.63,2.08,5.41,3.19,12.88,7,26.36,11.5,41.28,10.37,3.07,0,6.15-.11,9.2.12s5.74.68,6.4,4.3c-.88,1.47-2,1.28-3.25.52h0a24.08,24.08,0,0,0-13.07,0c-2-.45-3.89,2.55-5.94.17-3.1-2.27-7,.25-10.12-1.58-15.31-.9-27.13-8.77-37.79-19-1.19-2.43-1.54-4.88-.06-7.34Z" style="fill:#b8b8b8"/><path d="M1230.64,1409.54c1.13-7.34,5.6-13.22,9.2-19.3a211.41,211.41,0,0,1,39.75-49.19c1.41-1.28,2.62-2.91,4.84-2.78.37,5.78-5.32,7.34-7.78,11.15a254.66,254.66,0,0,0-23.31,27.39c-5.92,8.54-11.85,17.07-16.21,26.58a17.25,17.25,0,0,1-4.59,6.45A1.64,1.64,0,0,1,1230.64,1409.54Z" style="fill:#d5d5d5"/><path d="M1574.1,1303.22c22.53,3.89,42.32,14,60.79,27,.45.31.41,1.31.6,2-7.24-2.1-13.21-6.81-19.62-10.38-13.35-7.43-27.39-12.58-42-16.59A1.37,1.37,0,0,1,1574.1,1303.22Z" style="fill:#aaa"/><path d="M1654.16,1332.36c10.16,5.88,17.24,15.16,25.08,23.46,9.89,10.49,17,23.18,24.91,35.17.71,1.07.53,2.74.77,4.13a2.34,2.34,0,0,1-2,.1c-6.08-6-9.16-14-14.3-20.66-10-13-19.88-25.92-32.84-36.15a5.93,5.93,0,0,1-2.51-4.22A2.85,2.85,0,0,1,1654.16,1332.36Z" style="fill:#d0d0d0"/><path d="M1585.68,1294.68c17,5.59,33.3,12.81,48.09,23.11.84,1,2.54,1.76,1.11,3.5-3.31,1.2-5.4-1.28-7.81-2.67-10.41-5.95-20.71-12.13-32.47-15.19a14.34,14.34,0,0,1-4.81-2.13c-2.39-2.64-6.35-2.59-8.79-5.14a2.08,2.08,0,0,1,.52-2C1583,1294,1584.4,1293.59,1585.68,1294.68Z" style="fill:#a3a3a3"/><path d="M1711,1440c4.91,4.55,4.49,11,5.74,16.76,2.54,11.75,2.81,23.73,2.89,35.71,1.89,2.32,3.9-1.32,5.81.11-.17,3-1.81,4.55-4.68,3.82a5.35,5.35,0,0,1-4-5.35c-.12-5.26.08-10.52-.1-15.77-.1-3,.73-6.26-1.35-9C1716.13,1457.12,1711.36,1448.92,1711,1440Z" style="fill:#a4a4a4"/><path d="M1457.86,1317.76c-6-1-10.15-6.24-16.22-7.06-2.81-1.26-6-1.29-8.7-3l-11.65-2.94c-2.25-1.66-5.12.18-7.4-1.32l-.66,0-.67-.07c-7.47-1.72-15.06-.34-22.58-.79-1.26-.07-2.58.26-3.71-.59,0-3.12,2.46-3,4.46-3.46,19.32-1.29,37.91,2,55.92,9C1450.75,1310.56,1457.74,1310.39,1457.86,1317.76Z" style="fill:#b4b4b4"/><path d="M1447.79,1349.1a7.63,7.63,0,0,0,1.16-.21,110.26,110.26,0,0,1,13.61-2.57c2.56-.62,5.21-.77,7.76-1.42,5.14,0,10.27,0,15.41,0,2.68.83,5.47.59,8.21.88,1.51.6,3.23.33,4.69,1.16a2,2,0,0,1-.65,2.24c-2.28,1.5-4.89,1.2-7.41,1.38-7.16-.06-14.32,0-21.47,0-4.66-.33-9.07,1.11-13.54,2-3.16.76-6.24,1.81-9.31,2.87a16.43,16.43,0,0,1-3.18.63c-2.84-.16-5.65,1.36-8.51.15a2.34,2.34,0,0,1-.6-2C1437.78,1350.42,1443.2,1350.86,1447.79,1349.1Z" style="fill:#7a7777"/><path d="M1481,1303.46c3.59-3.79,8.77-4.75,13-7.3,2.31-1.26,4.94-1.71,7.29-2.86h0c3.66-1.74,7.78-1.71,11.56-3h0c6.3-.91,12.52-2.59,19-2.13h15.47c3,.11,6-.24,8.93.24a1.74,1.74,0,0,1,.26,2.26c-3.42,2.52-7.39,1.66-11.14,1.61-13-.18-25.8.68-38.37,4.17a18.3,18.3,0,0,0-5.25,2.19,6.51,6.51,0,0,1-1.9,1c-2.94.07-6-.08-8.37,2.12a16.87,16.87,0,0,1-6.58,3A4.43,4.43,0,0,1,1481,1303.46Z" style="fill:#ababab"/><path d="M1530.9,1359.67l3.87,1.89a30.2,30.2,0,0,1,7.36,7.3q1.42,2.16,2.83,4.32c1.52,1.68,1.78,4,2.93,5.86l0,0c3.09,8.28,2.6,16.55,0,24.82v0c-1.31,2.74-1.14,6-3,8.52l-4.32,7.45a1.24,1.24,0,0,1-1.88-.22c-1-2.32.13-4.3.94-6.35,6-13.1,8.16-26.26.4-39.48-2.69-4.59-8-7-10-12.24A1.58,1.58,0,0,1,1530.9,1359.67Z" style="fill:#acacac"/><path d="M1559.48,1302c-23.74-1.73-46.73.94-68.42,11.45a2.08,2.08,0,0,1-.06-2c1.31-1.85,3.24-2.92,5-4.17a83,83,0,0,1,32.54-8.79c8.94,0,17.86-.16,26.79.1a7.24,7.24,0,0,1,3.67,1.17A1.6,1.6,0,0,1,1559.48,1302Z" style="fill:silver"/><path d="M1344,1315c-15.68,6.15-28.77,16.85-43.46,24.73-.86-2.86,1.23-4.4,2.76-6.2,3.43-2.08,7.06-3.88,9.93-6.81,8.34-5.6,16.37-11.83,26.73-13.39A5.38,5.38,0,0,1,1344,1315Z" style="fill:#bebebe"/><path d="M1330.93,1306.18c16.2-8,32.52-15.58,51.11-15.85a1.65,1.65,0,0,1-.12,2.09c-1.8,1.86-4.17,2.32-6.57,2.72-11,1.82-21.48,5.58-31.81,9.72-3.6.85-6.77,3.52-10.81,2.65A3.51,3.51,0,0,1,1330.93,1306.18Z" style="fill:#dbdbdb"/><path d="M1537.69,1425.61c-8.81,13.34-20.14,23.18-36.38,26.2a2.25,2.25,0,0,1-.68-1.85c1.13-3,4.27-2.78,6.55-3.88,5.89-2.83,11.74-5.67,15.88-11a84.13,84.13,0,0,1,9.16-7.81C1534,1426.44,1535.38,1424.56,1537.69,1425.61Z" style="fill:#dadada"/><path d="M1229.41,1450.56c-1,9.11-4,18-3.16,27.31a13.32,13.32,0,0,0,0,8.94l0,5.56c-2.21,3.88-4.56,7.26-9.12,2.48a4.76,4.76,0,0,1-.1-1.88c.82-1.48,2.78-1,3.77-2.18a4.91,4.91,0,0,0,.62-1.78,156,156,0,0,1,1.7-27.32,13.15,13.15,0,0,1,.41-2.15c1.34-4,1.47-8.4,3.07-12.4a4,4,0,0,1,1.43-1.56,2,2,0,0,1,1.84.79C1230,1447.79,1230.17,1449.23,1229.41,1450.56Z" style="fill:#959595"/><path d="M1217.77,1492.31l-.36,1.88c-.5.48-.93.42-1.29-.16v0c-2.69-9.22-1-18.47-.16-27.72l.27-8.63c1.24-4.33,1.09-8.94,2.65-13.2l3.12-10.12a1.42,1.42,0,0,1,2,.32c1.14,1.82,1,3.77.62,5.76a99.49,99.49,0,0,0-2.92,13.9c-2.45,9.6-2.13,19.39-2.14,29.16C1219.6,1486.5,1220.23,1489.75,1217.77,1492.31Z" style="fill:#b1b1b1"/><path d="M1382,1291.79c0-.49,0-1,0-1.46l2.83-.12a128.57,128.57,0,0,1,36.44,0l1.42.08c2.63,1.89,6-.54,8.64,1.55,3.62,2.32,8.55.85,11.85,4.11a1.58,1.58,0,0,1-.43,2.17,6.19,6.19,0,0,1-4.88.37c-13.57-4.85-27.65-5.13-41.82-4.74C1391.39,1293.21,1386.31,1295.23,1382,1291.79Z" style="fill:#b7b7b7"/><path d="M1229.41,1450.56l-.32-4.85c-2.32-4.67.41-8.67,1.68-12.87a35.08,35.08,0,0,0,4.3-13.14c1.49-3.73,2.16-7.91,5.58-10.64a2.83,2.83,0,0,1,3.13.52c0,6.06-4.35,10.45-6,15.93C1235.32,1434,1232.24,1442.22,1229.41,1450.56Z" style="fill:#acacac"/><path d="M1566.77,1502.7c-6.86.6-13.31,4.07-20.42,3a1.48,1.48,0,0,1,.19-2,213.83,213.83,0,0,0,34.5-12.34,4.92,4.92,0,0,1,3.31.84,2.23,2.23,0,0,1-.24,3.13,7.73,7.73,0,0,0-1.26.31C1578.6,1500.47,1572.68,1501.57,1566.77,1502.7Z" style="fill:#636363"/><path d="M1434.37,1354.3a8.3,8.3,0,0,0,0,1.41c-1.12,3.32-4.76,3.39-6.92,5.38-8.37,3.51-14.49,9.61-19.5,17-1.12,1.19-1.88,3-4,2.49,0-1.51-.09-3-.14-4.52l2.69-4.46c2.9-3,5.6-6.15,9-8.67,4.56-4.25,10.41-6.18,15.87-8.82A2.63,2.63,0,0,1,1434.37,1354.3Z" style="fill:#9d9c9c"/><path d="M1483.82,1517.23c-9.15,3.42-18.18.6-27.22-.62-2.09-.29-4.08-1.33-6.23-.36l-.73.27c-6-1.51-11.8-3.51-17-7.09-1.5-1-3.64-1.58-2.7-4.18,3.38-1.46,6,.8,8.84,1.84,11.18,5.49,23.27,7,35.44,8.1C1477.53,1515.49,1481.06,1514.56,1483.82,1517.23Z" style="fill:#7d7a7a"/><path d="M1285.92,1336.78c8.62-8.71,19.14-14.9,29.06-21.89a2.75,2.75,0,0,1,2.89-.3,2.43,2.43,0,0,1,.65,1.85c-1.17,3.1-4.18,4.26-6.48,6.19a18.25,18.25,0,0,1-1.64,1.12,98.78,98.78,0,0,0-15.19,10.9,12.26,12.26,0,0,1-1.8.93C1290.93,1336.05,1288.84,1339,1285.92,1336.78Z" style="fill:#ababab"/><path d="M1291.74,1347q-12.32,13.15-24.61,26.32a3.4,3.4,0,0,1-1.14-2.9c6.24-9.39,12.76-18.53,22.77-24.42A3.64,3.64,0,0,1,1291.74,1347Z" style="fill:#bcbcbc"/><path d="M1344,1315l-4.49-.13c1.77-5.33,7.07-5.12,11-7.07,6.24-1.55,12.39-3.41,18.57-5.17,3.24-.93,6.47-1.73,9.68.12a1.46,1.46,0,0,1,.35,2.07C1367.21,1307.58,1355.39,1310.6,1344,1315Z" style="fill:#b7b7b7"/><path d="M1267.12,1370.38v2.9L1249.65,1398a3.94,3.94,0,0,1-1.4-2.9c3-9.69,9.52-17.12,16.22-24.38A2.15,2.15,0,0,1,1267.12,1370.38Z" style="fill:#888"/><path d="M1457.86,1317.76c-1.71-5.29-7.62-5-10.89-8.28a3.22,3.22,0,0,1,1.64-1.31c4.17-.61,7.42,1.67,10.47,3.84a25.91,25.91,0,0,0,16,5.25,3.48,3.48,0,0,1,1.93,2.64c-.38,1.34-1.54,1.65-2.65,2-5.09,2-9.42-.42-13.83-2.36Z" style="fill:#434343"/><path d="M1421.31,1290.26l-36.44,0C1397,1286.35,1409.17,1286.85,1421.31,1290.26Z" style="fill:#dbdbdb"/><path d="M1578.52,1483.88l-1.6-.14c2.72-3.2,5.8-5.87,10.3-5.77,3,.06,7.07-1.18,8.15,2.77.93,3.46,2.18,7.79-2.49,10.25a5,5,0,0,1-1.46-2.66c-1.24-7.44-1.25-7.45-8.33-4.64C1581.57,1484.28,1580.11,1485.26,1578.52,1483.88Z" style="fill:#e9e9e9"/><path d="M1498.37,1348.53a4.71,4.71,0,0,0-.21-1.3,3.29,3.29,0,0,1,4.46-.13c3.73,1.77,7.74,2.39,11.78,2.91,2.25,1.24,4.89,1.53,7.08,2.92,2.76,2.78,7.68,2.53,9.42,6.74-.26.25-.52.51-.77.78-7,.17-12.24-4.86-18.69-6.57C1507,1352.71,1501.72,1352.71,1498.37,1348.53Z" style="fill:#acacac"/><path d="M1216,1466.28q.08,13.86.16,27.72C1210.69,1484.79,1213.76,1475.53,1216,1466.28Z" style="fill:#ddd"/><path d="M1635.12,1320.92l-1.35-3.13c7.72,3.56,13.82,9.4,20.39,14.57-.05.57-.11,1.14-.16,1.71-4.82,1.11-6.94-3.57-10.61-4.92C1640.3,1326.74,1635.87,1325.68,1635.12,1320.92Z" style="fill:#b9b9b9"/><path d="M1429.93,1505.65c5.1,6.28,13.49,6.62,19.71,10.87-9.74.22-17.05-5-24-10.87l3.11-.13A.76.76,0,0,1,1429.93,1505.65Z" style="fill:#d5d5d5"/><path d="M1556.55,1290.49l0-1.53c4.59-1.43,8.8,1.13,13.25,1.26a8.91,8.91,0,0,1,1.36.11c2.16,1.75,5.09-.31,7.25,1.46,2.2,1.55,5.35.68,7.3,2.89l-4.7.22A36.36,36.36,0,0,1,1556.55,1290.49Z" style="fill:#bcbcbc"/><path d="M1463.45,1304.91c4.11,3,8.45,3.64,13.09,1.31,1,1.52.21,2.81-.54,4.11-3.84,4.17-7.81,3.18-11.83.29-1.26-2-4.42-2.85-3.61-6.06A2.15,2.15,0,0,1,1463.45,1304.91Z" style="fill:#989898"/><path d="M1285.92,1336.78c3.09.69,4.45-3,7.29-2.89-2.14,8.2-9.32,11.31-15.55,15.38a3.08,3.08,0,0,1-1.91-.79c2-4.15,7.1-5.7,8.68-10.21Z" style="fill:#656565"/><path d="M1486.59,1345.72h-16.92c-2.17.73-4.32,1.07-6.42-.24a80,80,0,0,1,32.5,0,2.6,2.6,0,0,1-2.13.82C1491.28,1346.09,1488.86,1346.8,1486.59,1345.72Z" style="fill:#bfbfbf"/><path d="M1460.37,1305.13c1.19,1.71,4.18,1.53,4.41,4.24-8.21.37-14.23-4.49-20.56-8.6a2.24,2.24,0,0,1,.38-2.1c4.11-1.35,7.06,1.22,10.23,3a11.43,11.43,0,0,1,1.32.27C1457.39,1303.26,1459.75,1303,1460.37,1305.13Z" style="fill:#585858"/><path d="M1713.65,1412.54c.06,5.72,4.81,10.14,4.4,16a1.77,1.77,0,0,1-2.09.13c-3.92-4.8-5.44-10.56-6.58-16.47a3.79,3.79,0,0,1,1.63-2.91Z" style="fill:#959595"/><path d="M1547.89,1403.81c1-8.27,2-16.54,0-24.82A25.7,25.7,0,0,1,1547.89,1403.81Z" style="fill:#c1c1c1"/><path d="M1318,1315l-3-.12a54.82,54.82,0,0,1,16-8.71l2,.36C1329.68,1312.43,1324.44,1314.82,1318,1315Z" style="fill:#cfcfcf"/><path d="M1291.74,1347l-3-.06c-.49-3.31,2.14-4.66,4-6.47a40.74,40.74,0,0,0,6.77-5.59,6.1,6.1,0,0,1,2.63-1.34,1.56,1.56,0,0,1,1.58.86l-3.3,5.37Z" style="fill:#757575"/><path d="M1249.33,1394.76c.11,1.08.21,2.17.32,3.25q-2.94,5.79-5.87,11.57l-2.8.1C1241.17,1403.26,1243,1397.72,1249.33,1394.76Z" style="fill:#696969"/><path d="M1711,1409.28l-.45,3.54c-5.83-3.11-6.34-9.29-8.4-14.58a4.12,4.12,0,0,1,1.27-3l1.49-.11v0c1.68,1.59,1.92,3.9,2.92,5.84Z" style="fill:#7b7b7b"/><path d="M1566.77,1502.7l16.08-7.12c-3.17,6.94-10.12,6.82-16,8.61Z" style="fill:#d0d0d0"/><path d="M1230.64,1409.54c.44,0,.89,0,1.33,0a2.82,2.82,0,0,1,1,2.79c-.68,2.64-2,5.12-2.11,7.92-.58,2.51-1.21,5-4,6a2.18,2.18,0,0,1-2-.67C1225.55,1419.8,1228.49,1414.81,1230.64,1409.54Z" style="fill:#bababa"/><path d="M1491.1,1312.09c0,.45,0,.9,0,1.35q-5,3.06-10,6.1a2.83,2.83,0,0,1-2.92.32c-1-4.11,3.12-4.59,4.83-6.78,2-1.17,3.76-2.7,6.18-2.93A2.4,2.4,0,0,1,1491.1,1312.09Z" style="fill:#a9a9a9"/><path d="M1559.48,1302c0-.49,0-1,0-1.48,2.45-2.26,4.85-1.89,7.24.09l7.37,2.62-.21,2Z" style="fill:#adadad"/><path d="M1569.77,1290.22c-4.53.78-8.81-1.15-13.25-1.26l-8.47-.36c-.58-.16-.8-.39-.67-.69s.29-.48.46-.48C1555.29,1287.24,1562.74,1287,1569.77,1290.22Z" style="fill:#d4d4d4"/><path d="M1454.83,1301.71c-3.75.31-6.6-2.47-10.12-2.93a1.43,1.43,0,0,1-1.56-1.35,4.9,4.9,0,0,1,.07-1.43C1448,1296.05,1452.33,1297,1454.83,1301.71Z" style="fill:#d2d2d2"/><path d="M1434.37,1354.3l-3.1-.2c5-3.45,10.36-5.51,16.52-5C1443.92,1352.39,1438.59,1351.92,1434.37,1354.3Z" style="fill:#bfbfbf"/><path d="M1389.49,1302.17c7.69.4,15.52-1.7,23.07,1.27H1389.3c-.52-.37-.66-.68-.43-.93A.82.82,0,0,1,1389.49,1302.17Z" style="fill:#c7c7c7"/><path d="M1531.69,1288.64c-6.32-.14-12.39,2.4-18.76,1.63,6-2.9,12.46-3.07,19-2.84.48.35.61.65.4.89A.82.82,0,0,1,1531.69,1288.64Z" style="fill:#d4d4d4"/><path d="M1216.12,1494a6.15,6.15,0,0,1,1.29.16c4,4.45,6.17.24,8.81-1.82.71,3.79-1.62,5.28-4.72,5.8S1216.39,1497.4,1216.12,1494Z" style="fill:#ddd"/><path d="M1462,1347.05c-4.36.62-8.51,2.75-13.08,1.84,3.87-3,8.51-3,13.08-3.36.48.34.64.68.48,1S1462.19,1347.05,1462,1347.05Z" style="fill:#bfbfbf"/><path d="M1218.87,1444.45a24.18,24.18,0,0,1-2.65,13.2C1216.28,1453.09,1215.15,1448.28,1218.87,1444.45Z" style="fill:#ddd"/><path d="M1460.48,1319.55c4.92.08,9.61,2.75,14.67,1.36.47.31.64.64.5,1s-.29.52-.44.52h0c-3.44,1.34-6.89,1.89-10.36.09A4.92,4.92,0,0,1,1460.48,1319.55Z" style="fill:#a9a9a9"/><path d="M1475.21,1309.35l1.33-3.13,4.47-2.76,4.43.09C1483.6,1308.26,1480.45,1310.65,1475.21,1309.35Z" style="fill:#696969"/><path d="M1464.81,1322.49l10.36-.1C1471.74,1325.3,1468.3,1326.93,1464.81,1322.49Z" style="fill:#cfcfcf"/><path d="M1415.4,1362.91c-2.35,3.54-5,6.77-9,8.67C1408.25,1367.48,1410.9,1364.24,1415.4,1362.91Z" style="fill:#bdbdbd"/><path d="M1537.69,1425.61l-4.55,2.82c-1-4.86,1.53-7.4,5.84-8.72l1.56,0C1541.13,1422.46,1538.43,1423.56,1537.69,1425.61Z" style="fill:#c1c1c1"/><path d="M1224.89,1425.6l1.69.07c1.79,3.83,1.28,6.9-2.91,8.73l-1.68-.07C1221.69,1431,1223.57,1428.39,1224.89,1425.6Z" style="fill:#b6b6b6"/><path d="M1531.69,1288.64a5,5,0,0,0,.19-1.21h16a3.89,3.89,0,0,0,.21,1.17Z" style="fill:#bcbcbc"/><path d="M1542.13,1368.86a21.69,21.69,0,0,1-7.36-7.3A9.05,9.05,0,0,1,1542.13,1368.86Z" style="fill:#b9b9b9"/><path d="M1512.93,1290.28a24.73,24.73,0,0,1-11.56,3C1504.72,1290.36,1508.77,1290.1,1512.93,1290.28Z" style="fill:#d4d4d4"/><path d="M1412.57,1505.63c4.36-2.06,8.71-2.49,13.07,0Z" style="fill:#d5d5d5"/><path d="M1501.23,1450.06l.08,1.75c-3,2.06-6.56,1.31-9.87,1.82l-.52-.68C1493.45,1448.74,1497.1,1448.54,1501.23,1450.06Z" style="fill:#d7d7d7"/><path d="M1592.94,1488.14l-.06,2.85c-2,.92-3.18,3.26-5.77,3-.94-2.22.83-3.49,1.76-5.06a4.16,4.16,0,0,1,2.39-1.49A2.34,2.34,0,0,1,1592.94,1488.14Z" style="fill:#d0d0d0"/><path d="M1460.37,1305.13a4.85,4.85,0,0,1-4.22-3.15c2.91-.2,5.84-.47,7.3,2.93Z" style="fill:#d2d2d2"/><path d="M1389.49,1302.17a3.63,3.63,0,0,0-.19,1.27l-.68.06-.68,0c-2.27,1.52-5.13-.32-7.38,1.31l-1.46,0c0-.54,0-1.08,0-1.63,1.61-4.14,4.25-3.08,7-1.39Z" style="fill:#b7b7b7"/><path d="M1544.86,1412.31c.31-3.09.9-6.08,3-8.52C1547.91,1407,1547.91,1410.2,1544.86,1412.31Z" style="fill:#c1c1c1"/><path d="M1358.66,1477.92l.06,7.34C1356.35,1482.84,1354.47,1480.4,1358.66,1477.92Z" style="fill:#d8d8d8"/><path d="M1589.81,1489.27c.11,2.14-2.14,2.92-2.7,4.67l-3,1.33c.05-.91.09-1.82.14-2.73a4.81,4.81,0,0,1,2.84-3.6A2.9,2.9,0,0,1,1589.81,1489.27Z" style="fill:#a8a8a8"/><path d="M1432.94,1307.75a13.52,13.52,0,0,1,8.7,3C1438.36,1310.81,1435.22,1310.54,1432.94,1307.75Z" style="fill:#dcdcdc"/><path d="M1396.51,1504.22c3.39.42,7.11-1.27,10.12,1.58C1403.27,1505.18,1399.56,1506.85,1396.51,1504.22Z" style="fill:#d5d5d5"/><path d="M1226.25,1486.81a8.88,8.88,0,0,1,0-8.94Z" style="fill:#ddd"/><path d="M1493.9,1345.68l1.85-.22c2.35.28,5-.77,6.87,1.64l-4.46.13-4.07-.36q-.72-.28-.57-.72C1493.63,1345.84,1493.76,1345.68,1493.9,1345.68Z" style="fill:#bfbebe"/><path d="M1501.35,1293.3a9.41,9.41,0,0,1-7.29,2.86A7.8,7.8,0,0,1,1501.35,1293.3Z" style="fill:#d4d4d4"/><path d="M1521.48,1352.93a9,9,0,0,1-7.08-2.92C1517.21,1349.89,1519.77,1350.39,1521.48,1352.93Z" style="fill:#bfbebe"/><path d="M1709.37,1430l-.06,4.37a8.51,8.51,0,0,1-2.8-7.29C1707.46,1428,1708.42,1429,1709.37,1430Z" style="fill:#bababa"/><path d="M1431.37,1291.89c-2.88-.53-6.08.72-8.64-1.55C1425.64,1290.68,1428.91,1289,1431.37,1291.89Z" style="fill:#dbdbdb"/><path d="M1475.21,1322.4l-.06-1.49,1.16-1.61a1.25,1.25,0,0,1,1.49-.1l3.25.34C1479.81,1321.94,1477.68,1322.52,1475.21,1322.4Z" style="fill:#cfcfcf"/><path d="M1462,1347.05v-1.52a3.57,3.57,0,0,1,1.22,0l6.42.24C1467.33,1347.37,1464.64,1347,1462,1347.05Z" style="fill:#bfbebe"/><path d="M1707.83,1400.94a7.37,7.37,0,0,1-2.92-5.84C1707.68,1396.14,1708.17,1398.33,1707.83,1400.94Z" style="fill:#d0d0d0"/><path d="M1413.89,1303.49c2.53.11,5.25-.91,7.4,1.32C1418.76,1304.71,1416.08,1305.48,1413.89,1303.49Z" style="fill:#c7c7c7"/><path d="M1380.56,1304.79c2.14-2.23,4.87-1.18,7.38-1.32C1385.76,1305.48,1383.08,1304.68,1380.56,1304.79Z" style="fill:#c7c7c7"/><path d="M1578.38,1291.79c-2.46-.29-5.18.76-7.25-1.46C1573.6,1290.55,1576.34,1289.43,1578.38,1291.79Z" style="fill:#d4d4d4"/><path d="M1547.89,1379a7.88,7.88,0,0,1-2.93-5.86C1547.6,1374.3,1548,1376.55,1547.89,1379Z" style="fill:#b9b9b9"/><path d="M1403.9,1380.56l2.79-3c1.29,1.09,1.39,2.53,1.26,4-4.73,20.42,4.4,35.84,17.93,49.66a23.21,23.21,0,0,0,5.18,4.51c.56.33,1.09.7,1.61,1.08a59.16,59.16,0,0,0,8,5.22,38.37,38.37,0,0,0,7,2.93,24.69,24.69,0,0,0,7.4,2.4,17.08,17.08,0,0,1,2,.47c3.22,1.25,7.09,1,9.53,4.07l-3.08,1.36c-24.21-4.25-43.13-16.18-55-38.18-1.92-3.58-3.1-7.56-4.63-11.35a32.39,32.39,0,0,1,0-23.22Z" style="fill:#5e5d5d"/><path d="M1406.85,1493.9c26.92,1.4,46.24-11.06,60.43-33,1.8-2.77,3-5.53,2-8.86l.91-.5c4.46,1.82,2,5.25,1.89,8.14-1.4,5.63-4.7,10.2-8.19,14.67-11.22,11.17-24.11,19.41-39.85,22.64-2.9.46-5.9.24-8.74,1.23a14,14,0,0,1-5.76,0c-3.78-1.42-7.93-.16-11.7-1.62a2.75,2.75,0,0,1-1.53-1.84C1399.62,1492,1403.26,1493.3,1406.85,1493.9Z" style="fill:#454545"/><path d="M1406.85,1493.9c-3.41,1-7.19-1.17-10.46,1.18-7.41,1.22-13.49-2.32-19.69-5.46-2.85-2-5.35-4.58-8.71-5.87-.55-.24-1.09-.51-1.62-.74-2.91,1.5,1.68,3.77-.55,5.32-5.24-1.58-6.55-5.24-5.42-10.2,2.41-.61,5-1,7,.51C1379.26,1487.15,1392.81,1491.13,1406.85,1493.9Z" style="fill:#6a6a6a"/><path d="M1466.58,1451.93c-3.51-.89-7.3-.83-10.45-3a3.94,3.94,0,0,1,1.86-1.33c4.26-.37,8.44-.52,11.19,3.68a1,1,0,0,0,.08.75Z" style="fill:#342d28"/><path d="M1581.32,1492.41a77.34,77.34,0,0,1-34.93,11.93c-7.23,1.54-14.24.06-21.14-1.78-4.27-1.13-8-.75-11.31,2.17-1.73.37-2.83-.47-3.61-1.9-.62-2.85-2.77-4.36-5.1-5.71-3.14-3.61-7.81-5.33-11-8.82-2.38-2.58-2.2-3.14.77-4.5l18,8.81c18.9,7.85,37.86,7.32,56.86.39,4.34-2.14,8.08-5.19,11.93-8.08a6.52,6.52,0,0,1,1.89-.88c2.57.18,6.5-1.06,4.36,4.11C1586.11,1490.1,1583.67,1491.18,1581.32,1492.41Z" style="fill:#191414"/><path d="M1495,1483.8c-2.48,3.31,1.17,3.89,2.53,5.23,2.66,2.61,7.25,3.09,8.29,7.52-.2.26-.41.53-.61.81-8.29-1.48-13.4-7.68-19-13a60,60,0,0,1-5-6.12c-5.58-7-5.49-6.89-11.79-.13-2.23,2.4-3.57,5.83-7.2,6.79a4.09,4.09,0,0,1-3-.66c-1.22-5.23,4.42-6.58,5.83-10.33,2-3.4,3.43-7.32,7.6-8.89,4.11-1.16,6.46,1.32,8.64,4.17Z" style="fill:#3e171c"/><path d="M1571.27,1492.85c-19.47,8.75-38.92,10-58.31-.24,18.85,5,37.68,6.11,56.49-.21C1570.26,1491.75,1570.86,1491.9,1571.27,1492.85Z" style="fill:#242424"/><path d="M1501.23,1450.06l-10.31,2.89c-7.39-1.26-7.37,5.19-9.63,9.26a4,4,0,0,1-1.92-2.85c-.86-5.88,2.13-9.44,7.48-10.51,12.41-2.48,24-6.8,34.38-14.1a3.9,3.9,0,0,1,3.26,1C1518.76,1443.82,1510,1447,1501.23,1450.06Z" style="fill:#707070"/><path d="M1592.94,1488.14l-1.82-.26c-1.69-4.38-4.56-5.16-8.46-2.75l0,0c-1.72,1.11-3.16,3.15-5.66,1.72l1.49-2.95c1.27-.63,2.57-1.21,3.81-1.91,2.67-1.51,5.09-3.6,8.54-1.53S1592.86,1485.42,1592.94,1488.14Z" style="fill:#a8a8a8"/><path d="M1480.94,1459.07c.12,1,.23,2.09.35,3.14q0,3.48,0,7c-2.84-1.54-5.51-3.61-9.06-2.85-.56-5.18,6.42-3.26,7-7.41A1.35,1.35,0,0,1,1480.94,1459.07Z" style="fill:#170c0d"/><path d="M1577,1486.83l5.66-1.72c-2.85,4-6.94,6.15-11.42,7.74l-1.82-.45Z" style="fill:#383838"/><path d="M1703.42,1398.07l7.14,14.75,5.93,15.81c1.73,7.15,6.49,13.66,4.58,21.58v11.44c-3.56-11.49-6.12-23.11-10-34.38-.77-2.24-1.06-4.72-3.49-6-9.6-20.92-20.75-40.9-36.12-58.21-6.56-7.39-13.61-14.34-20.44-21.48-3.38-7.42-10.81-10.37-16.77-14.83-5.73-4.29-12-7.86-18-11.75a2.29,2.29,0,0,1,2.13-1.92c9.41,4.07,17.27,10.67,25.91,16,23.34,15.62,40.35,37,54.81,60.62C1700.74,1392.41,1701.89,1395.33,1703.42,1398.07Z" style="fill:#1c1c1c"/><path d="M1721.07,1450.21c-.06-7.5-4.32-14.12-4.58-21.58l1.56-.1a152.45,152.45,0,0,1,8.13,46,174.48,174.48,0,0,1-.78,18c-2,.5-3.94,3.27-5.81-.11,2.54-.1,4.12-1.33,4.14-3.94C1723.85,1475.69,1724.53,1462.8,1721.07,1450.21Z" style="fill:#5f5f5f"/><path d="M1511.43,1501.28c.15,1.17.34,2.3,1.52,2.94.61,2.41-1.2,3.07-2.81,3.88l-4.59,3.16a72.61,72.61,0,0,1-21.72,6h0a117.54,117.54,0,0,1-39.92-5.82,55.71,55.71,0,0,1-6.48-3.11c2.54-5.27,6.32-.66,9.47-1.2a11.32,11.32,0,0,1,2.12.66c10.81,3.39,21.87,3.72,33,2.87a13.34,13.34,0,0,1,2.06-.56c2.67-.52,5.47-.21,8.05-1.29a29.54,29.54,0,0,1,5.59-1.77c2.4-.3,4.8-.63,6.75-2.28a33.14,33.14,0,0,1,3.39-3.09C1509,1501.07,1510.15,1500.42,1511.43,1501.28Z" style="fill:#4f2a2e"/><path d="M1510.14,1508.1l2.81-3.88c4-3.61,8.54-3.31,13.5-2.23a86.76,86.76,0,0,0,19.94,2.35c0,.44,0,.88,0,1.32-4.07-.09-8.3.51-12.17-.41C1525.69,1503.25,1517.56,1502.07,1510.14,1508.1Z" style="fill:#5e2f34"/><path d="M1483.83,1517.23l21.72-6C1499.1,1516.11,1491.79,1517.85,1483.83,1517.23Z" style="fill:#7d7a7a"/><path d="M1403.91,1380.54a65.17,65.17,0,0,0,0,23.22C1399.87,1396,1399.82,1388.28,1403.91,1380.54Z" style="fill:#9d9c9c"/><path d="M1617.59,1313.64l-1.35,1.38a201.3,201.3,0,0,0-49.49-16c-3.22,1.46-6.36.57-9.51-.28-10-1.14-20-.81-30-.18-11.92,2.34-23.82,4.77-34.58,10.85a5.75,5.75,0,0,1-3,1.14c-2.1.66-3.18,3.18-5.68,3.11-3,1.24-5.11,4.48-8.87,4.2-4.89,2-9.13.84-13.35-2.12-3.88-2.72-7.8-5.56-12.57-6.7a267.1,267.1,0,0,0-35.63-9.46c-8-1.08-15.92-.71-23.88-.19-1.93.31-3.82.77-5.76,1a17.23,17.23,0,0,0-7.8,1.34c-8.32,1.25-16.09,4.75-24.43,6-1.92,0-3.91.1-4.9-2.1.93-3.41,4.08-3.86,6.7-5a21.88,21.88,0,0,0,8.7-2.29,9.93,9.93,0,0,1,1.93-.64c2.67-.56,5.53-.38,7.87-2.17,2.52-1.37,5.36-.51,8-1.18,9.7.09,19.35-1.14,29-1,4.84.93,9.77.9,14.66,1.29,4.38,0,8.55,1.22,12.77,2.17,2.44,1.83,5.94,1.27,8.17,3.59l20.18,8.94c3.48,2.47,7,3.06,10.43,0,4-1,7.18-3.22,10.23-5.8l5.66-3.12c2.46-.75,4.71-2.34,7.46-2a2.51,2.51,0,0,0,1,.35c4.69-3.83,10.8-3.31,16.09-5.27,2.66-.55,5.45,0,8.06-.94,1.63,0,3.15-.67,4.77-.75,8-.12,15.9,0,23.84,0a21.22,21.22,0,0,1,4.64.3c2.64,1.45,5.56,1.08,8.4,1.25a10.17,10.17,0,0,1,2,.37c2.18,1.17,4.65.84,7,1.3,2.52,1.19,5.33,1.46,7.89,2.55a23.69,23.69,0,0,1,8,2.75c1.82-.41,2.93.85,4.17,1.79C1602.62,1305,1610.64,1308.26,1617.59,1313.64Z" style="fill:#0b0b0b"/><path d="M1491,1309.08c10.63-7,23-8.53,35-11.53a159.46,159.46,0,0,1,32,0c2.68,1.72,5.72,1.45,8.69,1.54,0,.52,0,1,0,1.55l-7.24-.09-2.55-.2a151.15,151.15,0,0,0-29.7,0c-11.19.79-21.61,4.3-31.74,8.88C1494,1310.11,1492.48,1310.45,1491,1309.08Z" style="fill:#3c3c3c"/><path d="M1447.47,1508.45c-3.37,1.53-6.66-3-10-.15-2.67-.4-4.57-3-7.49-2.65a3.69,3.69,0,0,0-1.19-.13c-4.39-6.09-10.81-1.44-16.06-3a1.14,1.14,0,0,1-.36-1.11c.1-.38.21-.56.32-.57,1.94-1.37,4.36-1.06,6.48-1.84a10.28,10.28,0,0,1,1.89-.41c2.59-.29,5,1.18,7.65.54,9.28-3.89,18.58-7.72,26.6-14,1.09-.85,2.21-1.92,3.84-1.3h2.75c1.26,3.5-1.73,4.6-3.66,6a86.52,86.52,0,0,1-14.07,8.57c-1.67.79-4.19,1.19-4.39,3.24-.25,2.51,2.66,2.18,4.15,3.15S1447.81,1505.72,1447.47,1508.45Z" style="fill:#672d34"/><path d="M1412.65,1501.26a6.2,6.2,0,0,0,0,1.22c-15.44,1.08-29.46-3-42.25-11.57-.13-1.5.83-1.89,2-2,10.23,4.21,20.32,8.9,31.62,9.64C1406.86,1499.71,1410.34,1498.67,1412.65,1501.26Z" style="fill:#303030"/><path d="M1371.84,1489.52l-1.41,1.39-4.61-2.58c0-1.68-1.4-2.41-2.3-3.47-1.14-1.36-2.26-2.95-.51-4.35,2.08-1.66,3.46,0,4.64,1.62C1366.68,1485.94,1373.39,1485.38,1371.84,1489.52Z" style="fill:#1a1a1a"/><path d="M1231.77,1412.19c.07-.89.14-1.78.2-2.68,6-11.72,11.67-23.6,20.32-33.7a2.76,2.76,0,0,1,1.1,1.69c-.13,4.41-3.28,7.33-5.37,10.75A215.51,215.51,0,0,0,1236.6,1409a9,9,0,0,1-3.17,3.78A1.45,1.45,0,0,1,1231.77,1412.19Z" style="fill:#7f7f7f"/><path d="M1252.66,1377.77c-.13-.66-.25-1.31-.37-2a147.83,147.83,0,0,1,23.46-27.33l1.77.1c.44,3.14-2.11,4.59-3.7,6.58-4.92,6.17-10.47,11.81-15.24,18.12C1257.09,1375.26,1256,1378.08,1252.66,1377.77Z" style="fill:#646464"/><path d="M1703.42,1398.07c-7.74-10.43-13.58-22.11-22-32.11-10.59-12.55-21.09-25-35.34-33.74a12.17,12.17,0,0,1-2.39-2.68,1,1,0,0,1,.36-1.58c4.16.68,6.07,5,10,6.11,19.84,17.68,37,37.53,49.43,61.16C1703.43,1396.18,1703.42,1397.12,1703.42,1398.07Z" style="fill:#565656"/><path d="M1515.84,1294.65l-16.3,4.13c5-6.5,12.8-5.59,19.54-7,12.35-2.5,24.94-1.75,37.47-1.33l24.43,4.41c.12.38.25.76.38,1.13a1.92,1.92,0,0,1,0,2.82l-7.27-2.78c-2.21-1.67-5.11.26-7.32-1.39h0c-2.68-1.9-6,.3-8.73-1.41l-4.3-.12a104.74,104.74,0,0,0-26.3,0l-4.29.14C1520.92,1294.86,1518,1292.91,1515.84,1294.65Z" style="fill:#3e3e3e"/><path d="M1644,1328l-.36,1.58c-9.1-4.62-16.66-11.77-26.06-15.9l-23.18-11.56c8.89,0,15.62,5.65,23.15,9.1,6.07,2.78,11.72,6.46,17.55,9.74Z" style="fill:#202020"/><path d="M1581.36,1298.85V1296c3.23.87,7.21.17,8.89,4.26C1587,1301.36,1584.48,1298.38,1581.36,1298.85Z" style="fill:#494949"/><path d="M1414,1299c12,2.32,24.25,3.89,35.17,10.06l-2.21.41c-18.16-6.61-36.85-10-56.23-9a1.3,1.3,0,0,1,.71-2.08C1399,1298.61,1406.52,1297.53,1414,1299Z" style="fill:#3d3d3d"/><path d="M1390.76,1299.14c0,.46,0,.92,0,1.38l-4.67,1.28c-2.47-.2-4.88-.11-7,1.39-10.13-.13-19.11,5.08-29,6.19a1.69,1.69,0,0,1-.51-1.51c.46-.77,1.33-1,2-1.51l24.63-5.87c2.22-1.7,5.14.27,7.36-1.41l5.76-.15C1389.88,1298.39,1390.36,1298.49,1390.76,1299.14Z" style="fill:#383838"/><path d="M1498.37,1348.53c11.16,2.44,21.93,6,31.76,11.92,22,17.33,19,37.74,10.58,53.6a1.4,1.4,0,0,1-2-.22c-1.19-2.45-.11-4.71.63-7,7.37-22.62-1.14-40.15-23.45-48.34a41.39,41.39,0,0,1-6.68-2.76c-3.94-2.36-8.56-2.3-12.78-3.66-2-.65-5,0-5.25-3.44Z" style="fill:#3d3631"/><path d="M1491.19,1348.65c5.89,3.22,13.29,1.38,18.85,5.69-1.36,1.75-3.32,2.23-5.36,2.58-9.13-.4-17.8-4-27.1-3.62-8.94.34-17.51,3.17-26.44,3.43-2.08-.22-4.06-.68-5.36-2.55a16.31,16.31,0,0,1,8.72-2.87c4.41-1,9.08-.6,13.27-2.63Z" style="fill:#3a3532"/><path d="M1445.78,1354.18c1.62.24,3.48-.19,4.59,1.58-8.24,4.11-16.81,7.49-25.17,11.34-7,.44-9.82,6.3-13.88,10.57-1.48,1.55-1.3,5.07-4.87,4.2l.24-4.33c4.59-8.28,11-14.5,20.1-17.56a117.43,117.43,0,0,1,16.31-5.57Z" style="fill:#2f2b27"/><path d="M1443.1,1354.41c-5.25,2.41-10.36,5.22-16.31,5.57,1.75-2.78,5.15-2.65,7.56-4.27C1437.31,1355.6,1440,1353.61,1443.1,1354.41Z" style="fill:#3d3631"/><path d="M1467.77,1348.68c-3.81,4-8.7,2.48-13.27,2.63A32.89,32.89,0,0,1,1467.77,1348.68Z" style="fill:#3d3631"/><path d="M1493.9,1345.68a8.1,8.1,0,0,1,.19,1.2c-2.56,0-5.21.6-7.49-1.16Z" style="fill:#acacac"/><path d="M1498.56,1298.43c-2.47.72-4.58,2.8-7.46,2C1493.28,1298.64,1495.33,1296.33,1498.56,1298.43Z" style="fill:#696969"/><path d="M1539.09,1413.89l1.62.15c-.58,1.89-1.15,3.78-1.73,5.67-1.94,2.91-4.86,5.16-5.84,8.72l-8.65,7.33-2.91,0c-.26-.7-.41-1.58.06-2.06C1527.8,1427.37,1532.74,1420,1539.09,1413.89Z" style="fill:#5a5a5a"/><path d="M1527.24,1300.36a71.8,71.8,0,0,1,29.7,0Z" style="fill:#adadad"/><path d="M1491,1309.08l4.46.16-4.4,2.85-1.45-1.51Z" style="fill:#838383"/><path d="M1350,1307.78c0,.54,0,1.07,0,1.6-3.17,2.52-7.7,2.43-10.59,5.49-9.65,2.41-17.48,8.35-25.85,13.25-1.84,1-3.37,3-5.86,1.74-.92-2.88,1.28-3.86,3.14-4.85,3.83-2,7.32-4.61,10.92-7,6.48-4.15,13.53-7.07,20.67-9.8C1344.92,1307.29,1347.43,1306.27,1350,1307.78Z" style="fill:#232323"/><path d="M1307.79,1329.75l5.84-1.63a14.66,14.66,0,0,1-9.82,6.24l-.52-.59C1303.39,1330.87,1304.4,1329,1307.79,1329.75Z" style="fill:#757575"/><path d="M1379.06,1296.11c-2.39.63-5.14-.87-7.28,1.24-2.5,2.32-6-.4-8.56,1.75l-.1.06a53.52,53.52,0,0,1-9,2.66c-3-.3-4.2,3-6.91,3.28a3.28,3.28,0,0,1-1.78.91,4,4,0,0,1-2.86-.84,1.35,1.35,0,0,1,.17-1.78c12.46-6,25.8-9.09,39.3-11.6h14.54a1.42,1.42,0,0,1-.25,2c-3.11,1.73-6.68.21-9.87,1.37C1384.05,1295.9,1381.37,1294.55,1379.06,1296.11Z" style="fill:#616161"/><path d="M1342.73,1303.39c0,.47,0,.95,0,1.43-.38,1.75-1.8,2.54-3.13,3.4a14.76,14.76,0,0,1-1.66.9c-1.41.66-2.83,1.31-4.19,2.07a17.72,17.72,0,0,1-1.67.88,23.29,23.29,0,0,0-5,2.85c-2,1.25-3.77,3-6.36,2.92a3.7,3.7,0,0,1-2.74-1.34c0-.5,0-1,0-1.49l15-8.47Z" style="fill:#737373"/><path d="M1307.79,1329.75l-4.5,4-2.47,1.75c-3,1.28-5,4-7.5,5.9l-4.53,5.48c-8.34,6.8-14.92,15.22-21.67,23.48-7.54,6.95-12.62,15.69-17.79,24.38-3.85,4.37-6,9.69-8.35,14.92l-4.47,10.09c-1.84,3-2.1,6.59-3.68,9.68-2.54,5.26-3.84,10.89-5,16.57h.09c-2.65,3.94-1.72,8.76-3.19,13l.22,1.52c-2.86,6.38-2.08,13.17-2.3,19.86-.12,4.07.7,8.19-.59,12.2v0c-4-.59-2.87-3.87-2.89-6.16-.09-9.52-.48-19,.65-28.52,2.11-5.57,2-11.66,3.93-17.27,1.18-7.79,5.14-14.71,7-22.27a6.64,6.64,0,0,1,.54-2c1.3-2.26,3-4.3,3.73-6.89,4-11.65,11.31-21.44,17.6-31.81q12.43-14.58,24.86-29.18c5.11-5,11.53-8.66,15.69-14.69a1.48,1.48,0,0,1,1.13-.09c5.57-3.71,11.34-7.15,16.29-11.72l-.11.07c3.6-.87,6-4.14,9.8-4.69a2.43,2.43,0,0,1,2,2C1318.38,1324.09,1311.75,1325,1307.79,1329.75Z" style="fill:#1e1e1e"/><path d="M1220.76,1456.1q-.12,15.62-.24,31.21c0,1.92-.27,3.93,1.53,5.33-1.63,2.48-2.87,0-4.28-.33-.17-13.18-1.23-26.41,2.61-39.33A2.42,2.42,0,0,1,1220.76,1456.1Z" style="fill:#383838"/><path d="M1222.06,1492.6c0-8.86-.06-17.72,0-26.58,0-2.28-.66-5.06,2.93-5.48C1223,1471.14,1224.65,1482.06,1222.06,1492.6Z" style="fill:#383838"/><path d="M1227.83,1446c-.78-6.4,1.73-12,4.4-17.49a3.82,3.82,0,0,1,0,4.41l-3.15,12.77A8.11,8.11,0,0,1,1227.83,1446Z" style="fill:#2b2b2b"/><path d="M1224.73,1459c.32-4.52-1.07-9.45,3.19-13A35.25,35.25,0,0,1,1224.73,1459Z" style="fill:#383838"/><path d="M1232,1416.77c-.83,8.27-6.19,15.15-7.16,23.37a.93.93,0,0,1-1.61,0q.2-2.85.4-5.7c2-2.58,2.56-5.61,2.91-8.73,1.77-1.57,2.08-3.8,2.64-5.92C1230.51,1419.09,1229.43,1416.18,1232,1416.77Z" style="fill:#2b2b2b"/><path d="M1223.27,1440.1l1.61,0c-2.72,5-.18,11.31-4.12,16-.12-1-.25-2.09-.38-3.13A27.66,27.66,0,0,1,1223.27,1440.1Z" style="fill:#252525"/><path d="M1396.36,1293.05a6.87,6.87,0,0,0,.21-1.27,125.36,125.36,0,0,1,36.58,3.08c2.11.48,4.29.79,5.76,2.65a1.3,1.3,0,0,1-2,.26l-12.86-1.61c-2.24-1.7-4.93-.21-7.29-1-2.53-.83-5.26-.17-7.77-1.12a63,63,0,0,0-10.64.18A3.17,3.17,0,0,1,1396.36,1293.05Z" style="fill:#424242"/><path d="M1437,1297.77l2-.26,4.24-.08,1.56,1.35c0,.55-.07,1.1-.11,1.65Z" style="fill:#3e3e3e"/><path d="M1232.25,1432.94c0-1.47,0-2.94,0-4.41,1.15-3,.84-6.82,4.28-8.76A20.2,20.2,0,0,1,1232.25,1432.94Z" style="fill:#636363"/><path d="M1581.32,1492.41c1.1-2.49,3.72-3,5.7-4.33a1.12,1.12,0,0,1,.26,1.81l-3,2.65Z" style="fill:#242424"/><path d="M1310.63,1322.08c-3.77,6.2-9.77,9.32-16.29,11.72A48.94,48.94,0,0,1,1310.63,1322.08Z" style="fill:#232323"/><path d="M1320.9,1317.94c-3.61,1-6,5.16-10.37,4.21,1.77-2.84,5.11-3.59,7.48-5.65l2.93.09c.33.31.44.61.32.91S1321,1317.94,1320.9,1317.94Z" style="fill:#232323"/><path d="M1475.1,1317.89c2.92-1.49,5.24-4.23,8.87-4.2-1,3-4.27,3.5-6.17,5.51l-1.49.1Z" style="fill:#454545"/><path d="M1293.32,1341.42c1.69-3,3.52-5.81,7.5-5.9C1298.69,1338,1296.59,1340.43,1293.32,1341.42Z" style="fill:#232323"/><path d="M1232,1416.77l-2.82,3c-.4-2.94,1.14-5.23,2.55-7.56l.68.54c.63,1.44.79,2.84-.42,4.09Z" style="fill:#7f7f7f"/><path d="M1587.28,1489.89c-.08-.6-.17-1.2-.26-1.81,1.77-5.74-3.22-1.5-4.36-2.95,1.75-2.62,4.28-3.83,7.21-2.75,2.71,1,1.36,3.53,1.25,5.5l-1.31,1.39Z" style="fill:#383838"/><path d="M1406.45,1381.87c3.62-5.95,7.76-11.43,13.55-15.47,1.32-.92,2.54-2.61,4.19-.46a7,7,0,0,1-3,4.7c-5.47,4.51-7.83,10.57-8.9,17.32a16.15,16.15,0,0,0,0,9.87,44.42,44.42,0,0,0,4.55,13.35,100.52,100.52,0,0,0,9.54,13.86,22.64,22.64,0,0,0,8.06,8.12,48.61,48.61,0,0,1,4.72,3,13.42,13.42,0,0,0,4.59,2.64,16.07,16.07,0,0,1,1.65.71,27.56,27.56,0,0,0,5.84,2.25,15.86,15.86,0,0,1,1.76.6c3.48,1.71,7.38,1.6,11,2.57a3,3,0,0,1,1.33,1.42,1.94,1.94,0,0,1-.87,1.66c-2.23.59-4.66-.7-6.8.73l-1.59.15a8,8,0,0,1-1.38-.14c-2.39-1.12-5-1.79-7.41-2.71a9.15,9.15,0,0,1-7.18-2.92c-2.57-2.46-5.69-4.11-8.72-5.88h0c-2-1.4-3.69-3.25-5.94-4.31-13-10.52-19.32-24.66-21.23-40.86A17.49,17.49,0,0,1,1406.45,1381.87Z" style="fill:#211e1c"/><path d="M1431.44,1437.28c3.85.55,7,2.22,8.72,5.88A16.93,16.93,0,0,1,1431.44,1437.28Z" style="fill:#342d28"/><path d="M1447.34,1446.08a8.27,8.27,0,0,1,7.41,2.71A9.13,9.13,0,0,1,1447.34,1446.08Z" style="fill:#342d28"/><path d="M1425.51,1433c3.08-.08,4.67,1.88,5.94,4.3C1428.6,1437.05,1427,1435.09,1425.51,1433Z" style="fill:#342d28"/><path d="M1457.72,1448.78c2.06-2.3,4.81-1,7.24-1.37,5.26-3.71,11.36-1,16.94-2.24a12.82,12.82,0,0,1,2.1-.58c5.85-.47,11.61-1.22,16.3-5.28,11.83-6.21,22.9-13.34,30-25.19a13.53,13.53,0,0,0,3.29-5.44,14.26,14.26,0,0,1,.73-1.7,20.47,20.47,0,0,0,2.11-7.09,16.62,16.62,0,0,1,.45-1.85c.5-4.13,1.27-8.27-.84-12.21a51.67,51.67,0,0,1-4.33-10.19c-1.36-4.76-4.57-7.76-9.09-9.51a8.25,8.25,0,0,1-3.46-2c-3.34-4.13-8.4-5.34-12.84-7.6-.21-.26-.42-.53-.62-.8,1-1.7,2.76-1.37,4.35-1.42,9.23,3.38,18.42,6.64,25.33,14.33,10,11.11,9.8,23.77,6.42,37-.71,2.77-1.79,5.45-2.7,8.17-3.79,8.92-11.18,14.95-17.51,21.83-9.47,8.82-21.21,12.47-33.56,14.62-5.08.89-7.78,3.34-7.08,8.73h-1.46c-3.49-1-2.07-4.71-3.72-6.8-1.76,2.29-.4,6.61-4.83,6.83-.43-2.64,2.09-5.94-1.75-7.82A34,34,0,0,0,1457.72,1448.78Z" style="fill:#1f1d1b"/><path d="M1371.84,1489.52c-.92-2.41-3.55-2.79-5.18-4.37-1.85-1.79-1.27-2.64,1-3l-.09,0c2.78,2.22,5.92,3.89,8.86,5.89l20,7,1.62.34c3.73,2,8-.39,11.74,1.41h5.63c2.74-1.72,6.12.48,8.83-1.43,13.41-3.81,25.83-9.35,35.38-20,.88-1,2.48-1.3,3.75-1.93a3.41,3.41,0,0,1,2.91,1.55q-3.57,4.39-7.15,8.78c-8.49,8.76-19.9,12.4-30.54,17.39-2.86-.69-5.4-3.47-8.7-1.35h0a40.34,40.34,0,0,1-16,0C1392.07,1499.71,1381.6,1495.72,1371.84,1489.52Z" style="fill:#170c0d"/><path d="M1466.25,1475a2.94,2.94,0,0,1-2.91-1.55q3.79-7.17,7.59-14.34c1.67-1.77,3-3.77,2.4-6.28s.24-3.79,2.6-3.74,3.11,1.6,2.36,3.92.23,4.15,1.19,6.07c-.27,2.21,1.28,5.68-3.55,4.56-1.76-.41-3,1.08-3.71,2.68Z" style="fill:#030202"/><path d="M1409.75,1496.83c-3.91-.48-8.12,1.49-11.74-1.41C1401.92,1495.9,1406.07,1494.46,1409.75,1496.83Z" style="fill:#1a1a1a"/><path d="M1424.21,1495.41c-2.59,2.66-5.86,1.08-8.83,1.43C1418.06,1494.75,1421.25,1495.79,1424.21,1495.41Z" style="fill:#1a1a1a"/><path d="M1376.41,1488.06a12.24,12.24,0,0,1-8.86-5.89A14.42,14.42,0,0,1,1376.41,1488.06Z" style="fill:#1a1a1a"/><path d="M1511.43,1501.28l-2.83,1.36c-1.55-1.53-3.23-3-2.87-5.51l.08-.58C1508.64,1497,1511.47,1497.43,1511.43,1501.28Z" style="fill:#5e2f34"/><path d="M1505.73,1497.13c1.67,1.46,3.43,2.88,2.87,5.51-1,1-2,2-3,3-2.32,1.18-4.9,1.68-7.24,2.81l-5.89,1.7c-2.7,1.48-5.9-.45-8.58,1.25l-.14,0c-12.32,2-24.33.35-36.22-2.91l-.08,0a3,3,0,0,0-.47-.54c-3.35-2.46-10.24-1.32-10.22-6.35,0-3.87,6.36-4.09,9.67-6.27,5.37-3.52,11.63-5.86,15.41-11.51,3.07-3.34,6.73-6.31,9.08-10.1,4-6.47,6.48-4.28,9.59.6A65.84,65.84,0,0,0,1505.73,1497.13Z" style="fill:#cf273e"/><path d="M1447.55,1508.5c12,1.56,24,3.89,36.22,2.91A56,56,0,0,1,1447.55,1508.5Z" style="fill:#672d34"/><path d="M1498.38,1508.43a9.1,9.1,0,0,1,7.25-2.81A7.84,7.84,0,0,1,1498.38,1508.43Z" style="fill:#5e2f34"/><path d="M1483.91,1511.38c2.6-2.24,5.66-1.29,8.59-1.25C1489.92,1512.49,1486.79,1511.08,1483.91,1511.38Z" style="fill:#5e2f34"/><path d="M1320.9,1317.94c0-.45,0-.9,0-1.35l5.54-3.16c2.1-.75,4.47-1,6-2.94l0,0c2.07-.73,4.33-1.1,5.9-2.87l0,0c2.43-1,4.94-1.68,7.35-2.7l1.56.11c1.14,1.52,2.82,1.13,4.36,1.26l-1.53,1.42c-9.83,2.44-18.72,7.09-27.66,11.63Z" style="fill:#111"/><path d="M1558.06,1297.51l-32,0A74.26,74.26,0,0,1,1558.06,1297.51Z" style="fill:#1e1e1e"/><path d="M1398.18,1293.34l11.22,0c.26.18.51.37.76.56-.18.25-.35.51-.53.77-10.21.11-20.31,2.36-30.57,1.4,2-2.4,4.8-1.16,7.21-1.66C1390.15,1293.07,1394.33,1294.94,1398.18,1293.34Z" style="fill:#111"/><path d="M1527.43,1293.14a54.55,54.55,0,0,1,26.3,0Z" style="fill:#1e1e1e"/><path d="M1390.76,1299.14l-1.45-.21a45.84,45.84,0,0,1,24.7.08Z" style="fill:#111"/><path d="M1416.91,1294.56c2.39.56,5.19-.73,7.19,1.6-4.8-.7-9.89,1.42-14.47-1.45l.07-.09A9.3,9.3,0,0,1,1416.91,1294.56Z" style="fill:#111"/><path d="M1354.11,1301.82a16.27,16.27,0,0,1,9-2.66C1360.64,1301.82,1357.49,1302.21,1354.11,1301.82Z" style="fill:#111"/><path d="M1363.22,1299.1c2.45-2.58,5.79-.76,8.56-1.75C1369.43,1300.39,1366.06,1298.47,1363.22,1299.1Z" style="fill:#111"/><path d="M1558,1293.27c2.94.28,6.14-1,8.73,1.41C1563.84,1294.27,1560.62,1295.74,1558,1293.27Z" style="fill:#1e1e1e"/><path d="M1566.77,1294.68c2.48.24,5.19-.68,7.32,1.39C1571.61,1295.84,1568.85,1297,1566.77,1294.68Z" style="fill:#1e1e1e"/><path d="M1515.84,1294.65c2.11-2.18,4.81-1.21,7.3-1.37C1521.05,1295.54,1518.31,1294.4,1515.84,1294.65Z" style="fill:#1e1e1e"/><path d="M1383.55,1299.08c-2.16,2-4.86,1.15-7.36,1.41C1378.27,1298.07,1381.06,1299.34,1383.55,1299.08Z" style="fill:#111"/><path d="M1403.79,1499.83h16c-2.06,2.17-4.77,1.08-7.19,1.43C1409.71,1500.71,1406.43,1502.29,1403.79,1499.83Z" style="fill:#1a1a1a"/><path d="M1419.86,1499.82c3.46-3.11,6.07-.81,8.7,1.36Z" style="fill:#1a1a1a"/><path d="M1232,1416.82l.42-4.09,2.61-3.16C1235.17,1412.46,1234.56,1415,1232,1416.82Z" style="fill:#2b2b2b"/><path d="M1415.58,1412.52c-2.46-4.55-4.71-9.17-4.49-14.55a16.56,16.56,0,0,1,0-10.21c-.14-10,5.71-16.37,13.11-21.82,8.66-3.57,16.29-9.78,26.18-10.18,18.44-5.43,36.88-5.64,55.32,0h0a1.47,1.47,0,0,1-.39,2.08c-2.54,1.48-5.17.76-7.76.25-18.17-3.61-36-2.07-53.65,3.29a50.64,50.64,0,0,0-7.41,2.91c-18.64,9-24.19,21.27-18.73,41.36a13.4,13.4,0,0,1,.59,3.56C1418.06,1410.83,1417.86,1412.55,1415.58,1412.52Z" style="fill:#3d3631"/><path d="M1398.18,1293.34c-3.78,2.33-7.91,1.05-11.91,1.11,3.12-2.26,6.74-.87,10.1-1.4Z" style="fill:#393939"/><path d="M1345.64,1305a8.51,8.51,0,0,1-7.35,2.7l4.43-2.87Z" style="fill:#232323"/><path d="M1338.32,1307.66c-1.07,2.81-3.3,3.22-5.9,2.87A8.41,8.41,0,0,1,1338.32,1307.66Z" style="fill:#232323"/><path d="M1332.45,1310.49c-1,3-3.33,3.29-6,2.94A9.55,9.55,0,0,1,1332.45,1310.49Z" style="fill:#232323"/><path d="M1416.91,1294.56l-7.21.06a4.77,4.77,0,0,0-.29-1.24C1412,1293.46,1414.69,1292.35,1416.91,1294.56Z" style="fill:#393939"/><path d="M1415.58,1412.52a3.27,3.27,0,0,0,1.37-2.94c4.11-.47,5.42,3,6.75,5.51,13.73,26,57.3,33.13,78.16,19.33,8.69-5.74,17.76-10.44,24-19.32,6.33-9.09,8.08-19,6.81-29.62-.81-6.77-5.78-10.89-10.23-15.34-2.11-2.1-5.63-3.26-5.26-7.21a2.3,2.3,0,0,1,3.08.11,3.19,3.19,0,0,0,2.91,1.51,44,44,0,0,1,10.17,10.13l4.36,10.23a30.39,30.39,0,0,1,0,14.5h0c-1.16,2.85-1.35,6-2.89,8.73h0c-1.15,1.85-1.37,4.16-2.91,5.82-6.51,13-17.9,20.35-30.55,26.21-5.23,3.75-11.35,4.77-17.48,5.78h0a52.93,52.93,0,0,1-18.91,0h0c-4.33-1.14-8.9-1.17-13.09-2.92h0c-2.3-1.29-4.94-1.71-7.28-2.9h0c-1.87-1.1-4.17-1.36-5.83-2.88l-4.39-2.91a41.43,41.43,0,0,1-8.74-8.7C1420.75,1422.44,1418.94,1416.89,1415.58,1412.52Z" style="fill:#504139"/><path d="M1464.94,1446h18.91c-6.1,3.12-12.62.63-18.89,1.44C1464.94,1446.93,1464.94,1446.45,1464.94,1446Z" style="fill:#342d28"/><path d="M1425.61,1425.66a28.56,28.56,0,0,1,8.74,8.7A12.2,12.2,0,0,1,1425.61,1425.66Z" style="fill:#342d28"/><path d="M1451.85,1443.05a32.36,32.36,0,0,1,13.09,2.92C1460.34,1446.05,1455.71,1446.28,1451.85,1443.05Z" style="fill:#342d28"/><path d="M1411.08,1387.76q0,5.12,0,10.21A8.63,8.63,0,0,1,1411.08,1387.76Z" style="fill:#2f2b27"/><path d="M1444.57,1440.15c2.85-.09,5.38.62,7.28,2.9C1449,1443.17,1446.46,1442.47,1444.57,1440.15Z" style="fill:#342d28"/><path d="M1438.74,1437.27a7.69,7.69,0,0,1,5.83,2.88C1442.07,1440.31,1439.87,1439.87,1438.74,1437.27Z" style="fill:#342d28"/><path d="M1520.21,1363h-2.9c-4.9.13-9.28-.79-11.65-5.76l0-1.53C1511.5,1356.24,1516.5,1358.35,1520.21,1363Z" style="fill:#3a3532"/><path d="M1483.85,1446l17.48-5.78C1496.7,1445.74,1490.36,1446.11,1483.85,1446Z" style="fill:#342d28"/><path d="M1533.29,1374.68a44.69,44.69,0,0,1-10.17-10.14A15,15,0,0,1,1533.29,1374.68Z" style="fill:#3a3532"/><path d="M1537.68,1399.41l0-14.5A16.1,16.1,0,0,1,1537.68,1399.41Z" style="fill:#3a3532"/><path d="M1534.79,1408.15a13.47,13.47,0,0,1,2.89-8.73C1537.83,1402.7,1537.57,1405.84,1534.79,1408.15Z" style="fill:#3a3532"/><path d="M1531.88,1414a7.65,7.65,0,0,1,2.91-5.82C1534.92,1410.65,1534.47,1412.85,1531.88,1414Z" style="fill:#3a3532"/><path d="M1439.73,1501.29c14.72-5.54,24.72-15.16,33.81-25.88,1.66-2,2.78-1.28,4,.29,6.81,8.8,14.44,16.71,23.9,22.75,4.08,2.6,2.66,4.46-1.07,5.76a82.49,82.49,0,0,1-37.69,3.73C1455.34,1507,1447.85,1506.32,1439.73,1501.29Z" style="fill:#ef2d47"/><path d="M1505.66,1357.28l11.65,5.76c.79,2.34,3.13,2.91,4.85,4.17,16.59,12.14,16.46,31.54,6.65,46.55-21.58,33-70.46,40.78-100.12,11.27-4.64-4.62-6.57-11.26-11.74-15.45-.49-3.82-3-6.95-3.06-11.07-.49-21,9-33.67,30.32-39.49,19.11-5.24,38.35-7.14,57.83-1.93A16.68,16.68,0,0,0,1505.66,1357.28Z" style="fill:#625046"/></svg>